<?xml version="1.0" encoding="UTF-8" standalone="no"?>
<!-- Created with Inkscape (http://www.inkscape.org/) -->

<svg
   xmlns:dc="http://purl.org/dc/elements/1.1/"
   xmlns:cc="http://creativecommons.org/ns#"
   xmlns:rdf="http://www.w3.org/1999/02/22-rdf-syntax-ns#"
   xmlns:svg="http://www.w3.org/2000/svg"
   xmlns="http://www.w3.org/2000/svg"
   xmlns:sodipodi="http://sodipodi.sourceforge.net/DTD/sodipodi-0.dtd"
   xmlns:inkscape="http://www.inkscape.org/namespaces/inkscape"
   width="210mm"
   height="297mm"
   id="svg2"
   version="1.1"
   inkscape:version="0.48.4 r9939"
   sodipodi:docname="Neues Dokument 1">
  <sodipodi:namedview
     id="base"
     pagecolor="#ffffff"
     bordercolor="#666666"
     borderopacity="1.0"
     inkscape:pageopacity="0.0"
     inkscape:pageshadow="2"
     inkscape:zoom="1.4"
     inkscape:cx="330.28139"
     inkscape:cy="809.76256"
     inkscape:document-units="px"
     inkscape:current-layer="layer1"
     showgrid="false"
     showguides="true"
     inkscape:guide-bbox="true"
     inkscape:snap-bbox="true"
     inkscape:bbox-paths="true"
     inkscape:snap-bbox-edge-midpoints="true"
     inkscape:bbox-nodes="true"
     inkscape:snap-bbox-midpoints="true"
     inkscape:object-paths="true"
     inkscape:snap-intersection-paths="true"
     inkscape:snap-midpoints="true"
     inkscape:snap-center="true"
     inkscape:object-nodes="true"
     inkscape:snap-smooth-nodes="true"
     inkscape:snap-object-midpoints="true"
     inkscape:window-width="1920"
     inkscape:window-height="1138"
     inkscape:window-x="-8"
     inkscape:window-y="-8"
     inkscape:window-maximized="1"
     inkscape:snap-global="true" />
  <defs
     id="defs4">
    <marker
       inkscape:stockid="Arrow2Lend"
       orient="auto"
       refY="0.0"
       refX="0.0"
       id="Arrow2Lend"
       style="overflow:visible;">
      <path
         id="path3966"
         style="fill-rule:evenodd;stroke-width:0.62500000;stroke-linejoin:round;"
         d="M 8.7185878,4.0337352 L -2.2072895,0.016013256 L 8.7185884,-4.0017078 C 6.9730900,-1.6296469 6.9831476,1.6157441 8.7185878,4.0337352 z "
         transform="scale(1.1) rotate(180) translate(1,0)" />
    </marker>
    <marker
       inkscape:stockid="Arrow2Lend"
       orient="auto"
       refY="0"
       refX="0"
       id="Arrow2Lend-1"
       style="overflow:visible">
      <path
         inkscape:connector-curvature="0"
         id="path3966-7"
         style="fill-rule:evenodd;stroke-width:0.625;stroke-linejoin:round"
         d="M 8.7185878,4.0337352 -2.2072895,0.01601326 8.7185884,-4.0017078 c -1.7454984,2.3720609 -1.7354408,5.6174519 -6e-7,8.035443 z"
         transform="matrix(-1.1,0,0,-1.1,-1.1,0)" />
    </marker>
  </defs>
  <metadata
     id="metadata7">
    <rdf:RDF>
      <cc:Work
         rdf:about="">
        <dc:format>image/svg+xml</dc:format>
        <dc:type
           rdf:resource="http://purl.org/dc/dcmitype/StillImage" />
        <dc:title></dc:title>
      </cc:Work>
    </rdf:RDF>
  </metadata>
  <g
     inkscape:label="Ebene 1"
     inkscape:groupmode="layer"
     id="layer1">
    <path
       id="path12757"
       title="(1-30/(t+1)/(t+1))*cos(t) (1-30/(t+1)/(t+1))*sin(t)"
       d=" M 437.71059296 315.00077 C 438.256618592 313.473168962 438.747054235 311.910932148 439.179038179 310.318585448 C 439.611022123 308.726238748 439.984314352 307.103672793 440.29677148 305.455782133 C 440.609228608 303.807891472 440.860484523 302.134525789 441.04878806 300.440711304 C 441.237091598 298.746896819 441.362064043 297.032512537 441.422352023 295.302687097 C 441.482640003 293.572861657 441.477854515 291.827504169 441.407043554 290.07181635 C 441.336232594 288.316128531 441.198999221 286.550050208 440.994794386 284.778826874 C 440.790589552 283.00760354 440.519010753 281.23120618 440.179911516 279.454894925 C 439.84081228 277.678583671 439.433786924 275.902360933 438.959089228 274.131472632 C 438.484391531 272.360584331 437.94161502 270.5950644 437.331409488 268.840116111 C 436.721203955 267.085167821 436.043164509 265.340856555 435.29833085 263.612315019 C 434.553497192 261.883773483 433.74146836 260.171098265 432.863666036 258.479324246 C 431.985863712 256.787550226 431.041893183 255.11680479 430.033548407 253.471998477 C 429.025203632 251.827192164 427.952098417 250.208482588 426.816387592 248.620630302 C 425.680676767 247.032778016 424.481984876 245.475970137 423.222814569 243.954792551 C 421.963644261 242.433614965 420.643632968 240.948283412 419.265616545 239.503185503 C 417.887600122 238.058087593 416.451230962 236.653466664 414.959662021 235.293489597 C 413.46809308 233.93351253 411.920993706 232.618449095 410.321816448 231.352224245 C 408.722639191 230.085999394 407.071072249 228.868908028 405.370848949 227.704613303 C 403.670625649 226.540318579 401.921454837 225.429139098 400.127330579 224.374457763 C 398.333206321 223.319776427 396.493859795 222.321933996 394.613524657 221.384016133 C 392.733189519 220.446098271 390.811620844 219.568466236 388.853269712 218.753893018 C 386.894918579 217.939319801 384.899565408 217.188185399 382.871855624 216.502936291 C 380.84414584 215.817687182 378.783886521 215.198720249 376.695893567 214.648143268 C 374.607900614 214.097566287 372.492008939 213.615791088 370.353180365 213.204576244 C 368.214351791 212.793361401 366.052450104 212.45313168 363.872557919 212.185287679 C 361.692665734 211.917443678 359.494676604 211.722421025 357.283768358 211.601255319 C 355.072860112 211.480089614 352.848956814 211.433225213 350.617305592 211.461327472 C 348.38565437 211.489429731 346.14621039 211.592949562 343.904263946 211.772178612 C 341.662317502 211.951407661 339.417855302 212.206801189 337.176184575 212.538275456 C 334.934513849 212.869749723 332.695653127 213.277762108 330.464900361 213.761853597 C 328.234147595 214.245945087 326.011553269 214.806572934 323.802379979 215.442904738 C 321.593206689 216.079236543 319.397536844 216.791727187 317.220571858 217.579174527 C 315.043606873 218.366621868 312.885460899 219.229476181 310.751248711 220.166170951 C 308.617036523 221.102865722 306.506903678 222.113844406 304.425853333 223.19718319 C 302.344802988 224.280521973 300.293011614 225.436655303 298.275346361 226.6633108 C 296.257681108 227.889966296 294.274348724 229.18756725 292.330056653 230.553503055 C 290.385764581 231.91943886 288.480749063 233.354119556 286.619534939 234.85460821 C 284.758320816 236.355096864 282.941172893 237.921788225 281.172411409 239.551432434 C 279.403649925 241.181076642 277.683567187 242.874051189 276.01625782 244.626808114 C 274.348948452 246.379565038 272.734731067 248.192462682 271.177454748 250.061671176 C 269.62017843 251.930879669 268.12018677 253.856736399 266.681064553 255.835147057 C 265.241942336 257.813557716 263.864056689 259.844837024 262.550710581 261.924644909 C 261.237364473 264.004452795 259.98894701 266.133079703 258.808463152 268.305959582 C 257.627979294 270.478839461 256.515838461 272.696236984 255.474732795 274.95338092 C 254.43362713 277.210524857 253.463984605 279.507652726 252.56817119 281.83980985 C 251.672357774 284.171966975 250.85081814 286.53936246 250.105580232 288.936880735 C 249.360342323 291.33439901 248.691865576 293.762219634 248.10182961 296.215089423 C 247.511793643 298.667959212 247.00067065 301.146027179 246.569783221 303.643926421 C 246.138895792 306.141825663 245.788726803 308.659673787 245.520234745 311.192014576 C 245.251742686 313.724355365 245.065418991 316.271274303 244.96185263 318.827250658 C 244.858286268 321.383227014 244.83797506 323.948313574 244.901134717 326.516950192 C 244.964294373 329.08558681 245.111426893 331.657793148 245.34237268 334.227994912 C 245.573318467 336.798196675 245.888581466 339.366380126 246.287626421 341.92698216 C 246.686671376 344.487584194 247.170001933 347.040557547 247.736708514 349.580375591 C 248.303415094 352.120193635 248.953998794 354.646775605 249.687178741 357.154656485 C 250.420358689 359.662537364 251.23663118 362.151603062 252.134348748 364.616475034 C 253.032066315 367.081347007 254.011718224 369.521878163 255.07129675 371.932800916 C 256.130875276 374.343723669 257.270860449 376.724858405 258.488892245 379.071072494 C 259.70692404 381.417286583 261.003471082 383.728368509 262.37583058 385.999344006 C 263.748190078 388.270319503 265.196817122 390.500945922 266.718677228 392.68643008 C 268.240537335 394.871914237 269.836069987 397.011983257 271.50192156 399.102046961 C 273.167773132 401.192110665 274.904365495 403.231866998 276.708039862 405.216949827 C 278.511714229 407.202032656 280.382872918 409.132111921 282.31756733 411.003065597 C 284.252261741 412.874019273 286.250872786 414.685490603 288.309178694 416.433620662 C 290.367484601 418.181750722 292.485843107 419.866157483 294.659777134 421.483262977 C 296.833711161 423.100368471 299.063553603 424.649766938 301.344591082 426.128177991 C 303.625628561 427.606589044 305.958167565 429.013584845 308.337278484 430.346197917 C 310.716389403 431.678810989 313.142350864 432.936593171 315.610038066 434.116903865 C 318.077725269 435.297214559 320.587387643 436.399587126 323.133727116 437.421720399 C 325.68006659 438.443853672 328.263302186 439.385264466 330.877985263 440.244002118 C 333.492668341 441.102739769 336.138986434 441.878306559 338.81136372 442.569111878 C 341.483741006 443.259917196 344.182332584 443.865450871 346.90145942 444.384490331 C 349.620586256 444.903529791 352.360370204 445.335554552 355.115053471 445.679716473 C 357.869736738 446.023878394 360.639407266 446.279648868 363.418253325 446.446558949 C 366.197099383 446.613469029 368.985174483 446.690984218 371.776638044 446.679017884 C 374.568101605 446.66705155 377.362972332 446.56506557 380.155406043 446.373357085 C 382.947839754 446.181648601 385.737820124 445.899678149 388.519524661 445.528126442 C 391.301229199 445.156574736 394.074606477 444.694903271 396.833880927 444.144174464 C 399.593155377 443.593445657 402.338240548 442.953124262 405.063432859 442.224650876 C 407.78862517 441.49617749 410.493803374 440.679022419 413.173360663 439.774999278 C 415.852917951 438.870976136 418.506698662 437.879563056 421.129217159 436.802939887 C 423.751735656 435.726316717 426.342802389 434.563971665 428.897076809 433.318442443 C 431.451351229 432.072913221 433.968610574 430.743700319 436.443682699 429.333689392 C 438.918754823 427.923678465 441.351384573 426.432384448 443.736590835 424.863029499 C 446.121797098 423.293674551 448.459293286 421.64579016 450.744311159 419.92292209 C 453.029329032 418.200054021 455.261551667 416.401752357 457.436444651 414.531872161 C 459.611337634 412.661991966 461.728554937 410.720103886 463.783815954 408.710356629 C 465.839076972 406.700609372 467.832007927 404.622596033 469.758600947 402.48074203 C 471.685193967 400.338888027 473.545049004 398.132810697 475.334448703 395.867194026 C 477.123848403 393.601577355 478.84236804 391.276064615 480.486597347 388.895579088 C 482.130826653 386.515093562 483.700317929 384.079306046 485.191983272 381.59335879 C 486.683648616 379.107411534 488.097019158 376.57100434 489.429343292 373.989477135 C 490.761667425 371.407949931 492.01245701 368.781032878 493.179309249 366.114241422 C 494.346161489 363.447449965 495.428570956 360.740545859 496.424494713 357.999197122 C 497.420418471 355.257848385 498.329335868 352.481849464 499.149573361 349.676997327 C 499.969810854 346.872145191 500.700834702 344.038267943 501.341348732 341.181267293 C 501.981862762 338.324266643 502.531322333 335.44400518 502.988815036 332.546464664 C 503.446307738 329.648924149 503.811280275 326.734002335 504.083208766 323.807735972 C 504.355137257 320.881469609 504.533462037 317.943792151 504.618050885 315.00077"
       style="fill:none;stroke:#ff0000;stroke-width:1.29378080000000000;stroke-linecap:round;stroke-linejoin:bevel;stroke-miterlimit:4;stroke-opacity:1;stroke-dasharray:none;stroke-dashoffset:0" />
    <path
       style="fill:none;stroke:#000000;stroke-width:1px;stroke-linecap:butt;stroke-linejoin:miter;stroke-opacity:1"
       d="m 532.05455,315.65622 -15.62598,0 c 0,0 -1.51194,-9.51502 2.02031,-13.00714 3.7043,-3.66221 13.60567,-1.71547 13.60567,-1.71547"
       id="path4770"
       inkscape:connector-curvature="0"
       sodipodi:nodetypes="ccsc" />
    <path
       style="fill:none;stroke:#000000;stroke-width:1px;stroke-linecap:butt;stroke-linejoin:miter;stroke-opacity:1;marker-start:none;marker-end:url(#Arrow2Lend)"
       d="m 364.66507,544.25545 0,-447.497575"
       id="path2991"
       inkscape:connector-curvature="0" />
    <path
       style="fill:none;stroke:#000000;stroke-width:1px;stroke-linecap:butt;stroke-linejoin:miter;stroke-opacity:1;marker-start:none;marker-end:url(#Arrow2Lend)"
       d="m 136.06517,315.69077 447.49757,0"
       id="path2991-4"
       inkscape:connector-curvature="0" />
    <g
       transform="matrix(0.83362053,0,0,0.83362053,318.39121,56.525266)"
       id="g4420">
      <g
         style="font-style:normal;font-variant:normal;font-weight:normal;font-stretch:normal;letter-spacing:normal;word-spacing:normal;text-anchor:start;fill:none;stroke:#000000;stroke-linecap:butt;stroke-linejoin:miter;stroke-miterlimit:10.43299961;stroke-opacity:1;stroke-dasharray:none;stroke-dashoffset:0"
         id="content"
         transform="matrix(1.0629921,0,0,-1.0629921,-186.02362,789.27165)"
         xml:space="preserve"
         stroke-miterlimit="10.433"
         font-style="normal"
         font-variant="normal"
         font-weight="normal"
         font-stretch="normal"
         font-size-adjust="none"
         letter-spacing="normal"
         word-spacing="normal"><path
           style="fill:#000000;stroke-width:0"
           inkscape:connector-curvature="0"
           d="m 472.64,421.04 0.03,0.13 0.03,0.15 0.05,0.17 0.04,0.18 0.06,0.19 0.06,0.21 0.06,0.21 0.07,0.23 0.08,0.23 0.09,0.24 0.1,0.25 0.1,0.24 0.11,0.25 0.12,0.25 0.13,0.25 0.14,0.25 0.15,0.24 0.15,0.24 0.17,0.23 0.18,0.22 0.18,0.22 0.2,0.2 0.21,0.19 0.22,0.18 0.23,0.16 0.25,0.14 0.12,0.07 0.13,0.06 0.13,0.05 0.14,0.05 0.14,0.05 0.14,0.04 0.14,0.03 0.15,0.03 0.15,0.02 0.16,0.02 0.16,0.01 0.16,0 c 0.25,0 1.45,0 2.49,-0.65 -1.4,-0.25 -2.39,-1.49 -2.39,-2.68 0,-0.8 0.54,-1.75 1.89,-1.75 1.1,0 2.69,0.9 2.69,2.89 0,2.59 -2.94,3.29 -4.63,3.29 -2.89,0 -4.64,-2.64 -5.23,-3.79 -1.25,3.29 -3.94,3.79 -5.38,3.79 -5.18,0 -8.02,-6.43 -8.02,-7.67 0,-0.5 0.5,-0.5 0.6,-0.5 0.39,0 0.54,0.1 0.64,0.54 1.7,5.29 4.98,6.53 6.68,6.53 0.95,0 2.69,-0.45 2.69,-3.33 0,-1.55 -0.85,-4.89 -2.69,-11.86 -0.8,-3.09 -2.54,-5.18 -4.73,-5.18 -0.3,0 -1.45,0 -2.49,0.65 1.24,0.25 2.34,1.29 2.34,2.69 0,1.34 -1.1,1.74 -1.85,1.74 -1.49,0 -2.73,-1.3 -2.73,-2.89 0,-2.29 2.48,-3.29 4.68,-3.29 3.28,0 5.08,3.49 5.23,3.79 0.6,-1.85 2.39,-3.79 5.38,-3.79 5.13,0 7.97,6.43 7.97,7.68 0,0.49 -0.45,0.49 -0.6,0.49 -0.45,0 -0.55,-0.2 -0.65,-0.55 -1.64,-5.33 -5.03,-6.52 -6.62,-6.52 -1.95,0 -2.74,1.59 -2.74,3.29 0,1.09 0.29,2.19 0.85,4.38 z"
           id="path4423" /></g>    </g>
    <g
       id="g4451"
       transform="matrix(0.71686603,0,0,0.71686603,156.23932,-140.05714)">
      <g
         word-spacing="normal"
         letter-spacing="normal"
         font-size-adjust="none"
         font-stretch="normal"
         font-weight="normal"
         font-variant="normal"
         font-style="normal"
         stroke-miterlimit="10.433"
         xml:space="preserve"
         transform="matrix(1.0629921,0,0,-1.0629921,-186.02362,789.27165)"
         id="g4453"
         style="font-style:normal;font-variant:normal;font-weight:normal;font-stretch:normal;letter-spacing:normal;word-spacing:normal;text-anchor:start;fill:none;stroke:#000000;stroke-linecap:butt;stroke-linejoin:miter;stroke-miterlimit:10.43299961;stroke-opacity:1;stroke-dasharray:none;stroke-dashoffset:0"><path
           id="path4455"
           d="m 480.21,424.98 0.01,0.03 0.01,0.03 0.01,0.03 0.01,0.03 0.01,0.06 0.02,0.05 0.01,0.06 0.01,0.04 0.02,0.05 0.01,0.04 0.01,0.04 0.01,0.04 0,0.04 0.01,0.04 0.01,0.03 0,0.03 0.01,0.03 0.01,0.03 0,0.03 0,0.03 0.01,0.03 0,0.02 0,0.06 0.01,0.05 0,0.05 0,0.05 0,0.03 0,0.03 0,0.03 0,0.04 c 0,0.89 -0.7,1.34 -1.45,1.34 -0.5,0 -1.29,-0.3 -1.74,-1.05 -0.1,-0.24 -0.5,-1.79 -0.7,-2.69 -0.34,-1.29 -0.7,-2.64 -0.99,-3.98 l -2.24,-8.97 c -0.2,-0.74 -2.34,-4.23 -5.63,-4.23 -2.54,0 -3.09,2.19 -3.09,4.03 0,2.3 0.84,5.38 2.54,9.77 0.8,2.04 1,2.59 1,3.58 0,2.25 -1.6,4.09 -4.09,4.09 -4.73,0 -6.57,-7.23 -6.57,-7.67 0,-0.5 0.49,-0.5 0.59,-0.5 0.5,0 0.55,0.1 0.8,0.9 1.34,4.68 3.34,6.17 5.03,6.17 0.4,0 1.25,0 1.25,-1.59 0,-1.25 -0.5,-2.54 -0.85,-3.49 -1.99,-5.28 -2.89,-8.12 -2.89,-10.46 0,-4.43 3.14,-5.93 6.08,-5.93 1.94,0 3.63,0.85 5.03,2.25 -0.65,-2.6 -1.25,-5.04 -3.24,-7.68 -1.29,-1.69 -3.19,-3.14 -5.48,-3.14 -0.7,0 -2.94,0.16 -3.79,2.1 0.8,0 1.45,0 2.15,0.59 0.5,0.45 1,1.1 1,2.05 0,1.54 -1.35,1.74 -1.85,1.74 -1.15,0 -2.79,-0.8 -2.79,-3.24 0,-2.49 2.19,-4.33 5.28,-4.33 5.13,0 10.26,4.53 11.66,10.16 z"
           inkscape:connector-curvature="0"
           style="fill:#000000;stroke-width:0" /></g>    </g>
    <path
       sodipodi:type="star"
       style="fill:none;fill-opacity:1;stroke:#000000;stroke-width:1;stroke-linecap:round;stroke-linejoin:bevel;stroke-miterlimit:4;stroke-opacity:1;stroke-dasharray:none;stroke-dashoffset:0"
       id="path4472"
       sodipodi:sides="200"
       sodipodi:cx="364.66507"
       sodipodi:cy="315.69077"
       sodipodi:r1="167.43809"
       sodipodi:r2="167.41744"
       sodipodi:arg1="0.82067434"
       sodipodi:arg2="0.83638231"
       inkscape:flatsided="true"
       inkscape:rounded="0"
       inkscape:randomized="0.0005"
       d="m 478.80474,438.12857 -3.90122,3.60494 -3.94684,3.38946 -4.25412,3.30139 -4.15551,3.12967 -4.32139,2.92076 -4.40387,2.96096 -4.53797,2.65399 -4.49627,2.55752 -4.73536,2.58673 -4.62571,2.27051 -4.8451,2.10122 -4.93206,2.00796 -4.83398,1.89095 -4.98662,1.57345 -5.0742,1.55625 -5.06745,1.36922 -5.18821,1.18755 -5.02417,1.17112 -5.30822,0.79285 -5.084,0.71996 -5.36066,0.50355 -5.21008,0.44848 -5.16084,0.27096 -5.33489,-0.041 -5.20982,-9.2e-4 -5.29935,-0.34441 -5.32245,-0.31552 -5.16873,-0.71965 -5.19176,-0.70299 -5.20434,-0.93708 -5.13102,-1.07379 -5.07992,-1.18808 -4.99918,-1.44237 -5.03759,-1.54325 -4.95716,-1.75221 -4.97663,-1.9588 -4.83904,-2.00817 -4.78375,-2.07809 -4.67997,-2.33704 -4.66455,-2.60061 -4.54633,-2.52142 -4.48654,-2.73849 -4.45768,-2.93053 -4.24099,-3.10276 -4.17161,-3.18228 -4.20802,-3.26978 -3.9608,-3.37157 -3.78985,-3.6992 -3.81364,-3.6459 -3.59232,-3.67844 -3.58053,-3.92558 -3.35174,-4.00905 -3.36751,-4.09928 -3.10755,-4.24178 -2.97212,-4.33087 -2.95536,-4.46497 -2.62394,-4.47494 -2.64524,-4.5058 -2.33323,-4.73432 -2.37336,-4.74925 -2.15538,-4.76534 -1.92413,-4.88104 -1.95287,-4.99589 -1.62597,-4.91718 -1.49329,-5.11522 -1.43069,-4.95408 -1.1783,-5.1134 -1.08099,-5.14894 -0.80219,-5.25714 -0.71704,-5.18305 -0.64943,-5.21057 -0.44661,-5.32859 -0.1562,-5.26591 -0.0966,-5.24047 0.13403,-5.27968 0.2482,-5.14953 0.47498,-5.29567 0.5192,-5.19172 0.80877,-5.29035 0.99755,-5.11312 1.09689,-5.22651 1.10467,-5.09232 1.52407,-5.07386 1.49022,-4.9273 1.8107,-4.97093 1.78425,-4.8601 2.07829,-4.94303 2.23767,-4.80156 2.35287,-4.72578 2.38455,-4.5955 2.68979,-4.53211 2.75729,-4.49704 2.81323,-4.36716 3.09491,-4.33351 3.2145,-4.1382 3.3034,-4.13981 3.42238,-4.06178 3.49693,-3.83959 3.66899,-3.70578 3.78539,-3.60702 3.92219,-3.53934 4.06222,-3.48386 4.08392,-3.19795 4.18953,-3.18984 4.32138,-2.9393 4.37263,-2.96715 4.53797,-2.67253 4.62233,-2.54068 4.60654,-2.50013 4.79315,-2.2705 4.80373,-2.23329 4.76737,-1.9625 5.0428,-1.74036 4.85319,-1.80105 5.16626,-1.4607 5.10881,-1.42314 5.02077,-1.16901 5.22287,-1.12785 5.11579,-0.82283 5.16703,-0.72023 5.30262,-0.4733 5.17607,-0.40685 5.33713,-0.35704 5.19244,0.0896 5.26803,-0.0334 5.29936,0.32587 5.18902,0.44132 5.2101,0.51683 5.19176,0.88897 5.23835,0.85837 5.19183,1.14461 5.1553,1.27851 5.03319,1.3822 5.00358,1.58487 4.95716,1.58478 4.84044,1.98353 4.9311,1.95482 4.83414,2.2689 4.59557,2.20641 4.60925,2.49034 4.61341,2.75443 4.55289,2.75163 4.25514,2.77468 4.30735,3.15297 4.3078,3.12048 3.97423,3.25664 3.98578,3.4201 3.95452,3.59812 3.6874,3.65167 3.76269,3.90579 3.54819,3.85227 3.2479,3.9582 3.3335,4.17799 3.20236,4.17827 2.97213,4.36796 2.81917,4.32225 2.69932,4.56537 2.74005,4.49791 2.37167,4.78792 2.29815,4.69182 2.06609,4.75233 2.09156,4.84396 1.82572,4.98608 1.61952,5.05687 1.58552,5.03926 1.42794,5.05752 1.22243,5.14202 1.0056,5.03997 0.81749,5.19882 0.77436,5.28634 0.48476,5.25603 0.44384,5.11569 0.15621,5.26591 0.0993,5.30447 -0.13678,5.23423 -0.2482,5.31696 -0.4632,5.25097 -0.4391,5.13154 -0.79957,5.21466 -1.00382,5.24872 -0.99025,5.04387 -1.27211,5.09232 -1.52131,5.11931 -1.49298,5.03075 -1.64326,4.98946 -1.98294,4.96574 -1.98624,4.83407 -2.23157,4.67002 -2.28359,4.81738 -2.41689,4.67108 -2.6262,4.46272 -2.83266,4.44369 -2.93655,4.37724 -3.09507,4.33759 -3.12504,4.16567 -3.26938,4.07964 -3.51169,4.04877 -3.53093,3.89976 -3.67176,3.80922 z"
       inkscape:transform-center-x="0.040037407"
       inkscape:transform-center-y="-0.02046442" />
    <path
       inkscape:connector-curvature="0"
       id="path4525"
       d="m 365.1781,315.65622 208.83314,0"
       style="fill:none;stroke:#00ff00;stroke-width:2;stroke-linecap:butt;stroke-linejoin:miter;stroke-opacity:1;stroke-miterlimit:4;stroke-dasharray:none" />
    <path
       inkscape:transform-center-y="-0.00052211288"
       inkscape:transform-center-x="0.00045966978"
       d="m 533.30278,317.98589 -0.0796,0.0379 -0.0781,0.031 -0.082,0.0315 -0.0819,0.0272 -0.084,0.0248 -0.082,0.0218 -0.0846,0.0211 -0.0863,0.0174 -0.0829,0.0139 -0.0873,0.0119 -0.0851,0.007 -0.0867,0.006 -0.0884,0.004 -0.0855,0.002 -0.087,-5.1e-4 -0.0854,-0.006 -0.0868,-0.008 -0.0848,-0.009 -0.0874,-0.0137 -0.0854,-0.0161 -0.0835,-0.0163 -0.0853,-0.0207 -0.0834,-0.0252 -0.081,-0.0235 -0.0827,-0.0284 -0.0804,-0.0316 -0.0803,-0.0339 -0.0792,-0.0371 -0.0779,-0.0364 -0.0751,-0.0412 -0.0748,-0.0435 -0.0734,-0.0461 -0.0715,-0.0485 -0.0725,-0.0502 -0.0679,-0.0529 -0.0685,-0.0524 -0.0657,-0.0577 -0.0617,-0.0591 -0.0623,-0.0595 -0.0602,-0.0635 -0.0589,-0.0651 -0.0555,-0.0651 -0.0529,-0.0685 -0.0533,-0.0695 -0.0479,-0.0709 -0.048,-0.072 -0.0439,-0.0748 -0.0426,-0.0746 -0.0399,-0.0764 -0.0381,-0.0774 -0.0343,-0.0788 -0.0353,-0.0804 -0.0283,-0.0821 -0.0292,-0.0828 -0.0252,-0.0834 -0.0205,-0.0838 -0.0203,-0.0822 -0.0186,-0.087 -0.0141,-0.0843 -0.0108,-0.0851 -0.0105,-0.0857 -0.005,-0.0879 -0.004,-0.0856 -0.001,-0.0857 0.002,-0.088 0.005,-0.0874 0.006,-0.0841 0.0116,-0.0864 0.012,-0.085 0.0166,-0.0874 0.0155,-0.0844 0.0212,-0.0836 0.0231,-0.0845 0.0271,-0.0811 0.0276,-0.0827 0.0321,-0.0795 0.0334,-0.0796 0.0351,-0.0784 0.0381,-0.0801 0.0421,-0.0745 0.0434,-0.0758 0.0463,-0.074 0.0474,-0.0709 0.0487,-0.0707 0.0542,-0.0689 0.0536,-0.0666 0.0563,-0.0678 0.0586,-0.0625 0.0609,-0.0605 0.0631,-0.0607 0.0625,-0.058 0.0673,-0.0561 0.0692,-0.0543 0.0687,-0.0523 0.0701,-0.0476 0.0722,-0.0477 0.0753,-0.0449 0.0752,-0.0432 0.0768,-0.0402 0.0783,-0.037 0.0796,-0.0357 0.0797,-0.0334 0.0792,-0.029 0.083,-0.0292 0.0828,-0.024 0.085,-0.0217 0.0828,-0.0195 0.085,-0.0191 0.0871,-0.0142 0.0844,-0.0101 0.0867,-0.01 0.0851,-0.007 0.0871,-0.003 0.0855,-0.002 0.0883,0.002 0.0871,0.005 0.0851,0.008 0.0865,0.008 0.0845,0.0125 0.0868,0.0161 0.0849,0.0193 0.0826,0.0201 0.0847,0.0215 0.0825,0.0274 0.08,0.0281 0.0815,0.0321 0.0794,0.032 0.0792,0.0373 0.0778,0.0379 0.0762,0.0415 0.0749,0.0416 0.0747,0.0464 0.0716,0.0468 0.0698,0.0505 0.0705,0.0516 0.066,0.0549 0.0666,0.0566 0.0645,0.0594 0.0597,0.0608 0.0601,0.0622 0.058,0.0634 0.0553,0.0659 0.0558,0.0701 0.0504,0.0683 0.049,0.0708 0.0481,0.0729 0.0454,0.074 0.0426,0.077 0.0382,0.0741 0.0399,0.0782 0.0354,0.079 0.0312,0.0809 0.0296,0.0806 0.0282,0.0835 0.0261,0.0826 0.0221,0.0837 0.0201,0.0834 0.0172,0.0848 0.0141,0.0865 0.0125,0.0849 0.008,0.0874 0.008,0.0865 0.001,0.0854 0.001,0.0861 6.5e-4,0.0877 -0.005,0.085 -0.009,0.0862 -0.009,0.0883 -0.0135,0.0834 -0.0149,0.0876 -0.0182,0.084 -0.0201,0.0838 -0.0242,0.082 -0.0245,0.0849 -0.0292,0.0805 -0.0304,0.0818 -0.0351,0.0802 -0.0363,0.0769 -0.038,0.0786 -0.0407,0.0769 -0.042,0.0731 -0.0463,0.0742 -0.0489,0.0727 -0.0487,0.0704 -0.0542,0.069 -0.0522,0.0666 -0.059,0.0647 -0.0585,0.0638 -0.0609,0.063 -0.0603,0.061 -0.0652,0.0583 -0.0673,0.0558 -0.0666,0.0533 -0.0684,0.0517 -0.0719,0.0493 -0.0721,0.0462 -0.0737,0.045 -0.0753,0.042 -0.077,0.0413 z"
       inkscape:randomized="0.0005"
       inkscape:rounded="0"
       inkscape:flatsided="true"
       sodipodi:arg2="1.1518341"
       sodipodi:arg1="1.1361261"
       sodipodi:r2="2.7559723"
       sodipodi:r1="2.7563123"
       sodipodi:cy="315.48718"
       sodipodi:cx="532.14286"
       sodipodi:sides="200"
       id="path4523"
       style="fill:#000000;stroke:#000000;stroke-width:1;stroke-linecap:round;stroke-linejoin:bevel;stroke-miterlimit:4;stroke-opacity:1;stroke-dasharray:none;stroke-dashoffset:0;fill-opacity:1"
       sodipodi:type="star" />
    <g
       id="g4552"
       style="fill:#00ff00;fill-opacity:1;stroke:#00ff00;stroke-opacity:1"
       transform="matrix(0.69131449,0,0,0.69131449,168.3858,98.473494)">
      <g
         word-spacing="normal"
         letter-spacing="normal"
         font-size-adjust="none"
         font-stretch="normal"
         font-weight="normal"
         font-variant="normal"
         font-style="normal"
         stroke-miterlimit="10.433"
         xml:space="preserve"
         transform="matrix(1.0629921,0,0,-1.0629921,-186.02362,789.27165)"
         id="g4554"
         style="font-style:normal;font-variant:normal;font-weight:normal;font-stretch:normal;letter-spacing:normal;word-spacing:normal;text-anchor:start;fill:#00ff00;fill-opacity:1;fill-rule:evenodd;stroke:#00ff00;stroke-linecap:butt;stroke-linejoin:miter;stroke-miterlimit:10.43299961;stroke-opacity:1;stroke-dasharray:none;stroke-dashoffset:0"><path
           id="path4556"
           d="m 474.53,422.24 0.02,0.02 0.02,0.02 0.02,0.03 0.02,0.02 0.02,0.02 0.02,0.02 0.01,0.02 0.02,0.02 0.02,0.02 0.01,0.02 0.03,0.04 0.03,0.04 0.02,0.03 0.02,0.03 0.02,0.03 0.02,0.04 0.02,0.02 0.02,0.03 0.01,0.03 0.01,0.02 0.01,0.03 0.01,0.02 0.01,0.02 0.01,0.02 0.01,0.02 0,0.02 0.01,0.02 0,0.01 0,0.02 0.01,0.01 0,0.02 0,0.01 0,0.01 0,0.01 0,0.02 0,0.01 0,0.01 c 0,0.25 -0.2,0.5 -0.35,0.69 l -10.21,14.75 h 11.51 c 8.41,0 10.91,-1.8 11.95,-9.67 h 1.25 l -1.4,11.21 h -27.64 c -1.2,0 -1.3,0 -1.3,-1.14 l 12.4,-18.04 -11.85,-13.5 c -0.5,-0.54 -0.5,-0.64 -0.5,-0.79 0,-0.55 0.5,-0.55 1.25,-0.55 h 27.64 l 1.4,11.76 h -1.25 c -0.9,-8.32 -4.28,-9.67 -12.1,-9.67 h -13.75 z"
           style="fill:#00ff00;fill-opacity:1;stroke:#00ff00;stroke-width:0;stroke-opacity:1"
           inkscape:connector-curvature="0" /></g>    </g>
    <path
       style="fill:none;stroke:#000000;stroke-width:1.21298873px;stroke-linecap:butt;stroke-linejoin:miter;stroke-opacity:1;marker-end:url(#Arrow2Lend-1)"
       d="m 532.05407,315.54973 0,-165.94833"
       id="path4584"
       inkscape:connector-curvature="0" />
    <path
       sodipodi:type="star"
       style="fill:#000000;fill-opacity:1;stroke:none"
       id="path4775"
       sodipodi:sides="200"
       sodipodi:cx="524.52173"
       sodipodi:cy="308.38483"
       sodipodi:r1="0.59894673"
       sodipodi:r2="1.5359401"
       sodipodi:arg1="-2.8198421"
       sodipodi:arg2="-2.8041341"
       inkscape:flatsided="true"
       inkscape:rounded="0"
       inkscape:randomized="0.0005"
       d="m 523.95292,308.19472 0.007,-0.0168 0.007,-0.0174 0.007,-0.0171 0.009,-0.0177 0.008,-0.0166 0.01,-0.0171 0.01,-0.0162 0.009,-0.0155 0.01,-0.0153 0.0119,-0.0158 0.0109,-0.0146 0.0123,-0.0149 0.0119,-0.0137 0.0124,-0.0141 0.0144,-0.0136 0.0133,-0.0126 0.0131,-0.0135 0.0156,-0.0114 0.0146,-0.0124 0.0149,-0.0111 0.0147,-0.0107 0.0157,-0.009 0.0176,-0.011 0.0163,-0.008 0.016,-0.009 0.017,-0.008 0.0172,-0.007 0.0175,-0.007 0.017,-0.007 0.018,-0.005 0.0181,-0.005 0.0192,-0.005 0.0185,-0.005 0.0185,-0.003 0.0187,-0.003 0.0182,-0.003 0.0189,-0.001 0.0189,-0.001 0.0182,-0.001 0.0189,2e-4 0.019,1.3e-4 0.0183,0.001 0.0189,0.002 0.0188,0.002 0.0187,0.002 0.0179,0.004 0.0186,0.004 0.0184,0.004 0.0175,0.006 0.0181,0.006 0.0178,0.005 0.0176,0.008 0.0182,0.008 0.017,0.007 0.0169,0.009 0.0158,0.009 0.0162,0.009 0.0158,0.01 0.0155,0.0107 0.016,0.0117 0.0147,0.0111 0.0144,0.0116 0.0139,0.0129 0.0151,0.0118 0.0124,0.0131 0.0141,0.0138 0.0122,0.0142 0.0117,0.0139 0.0111,0.0152 0.0116,0.0157 0.0117,0.0146 0.01,0.0164 0.009,0.0161 0.01,0.0158 0.008,0.0169 0.008,0.0171 0.008,0.0176 0.006,0.0178 0.007,0.0175 0.006,0.0177 0.004,0.0172 0.005,0.019 0.005,0.0181 0.004,0.0177 0.002,0.0195 0.003,0.0181 0.002,0.0189 0.001,0.0184 8.3e-4,0.0198 1.5e-4,0.0175 -4.4e-4,0.0193 -0.001,0.0186 -0.002,0.0191 -0.002,0.0191 -0.001,0.0183 -0.004,0.0184 -0.004,0.019 -0.005,0.0173 -0.004,0.0186 -0.006,0.0185 -0.007,0.0176 -0.006,0.0168 -0.008,0.0184 -0.008,0.0163 -0.008,0.0166 -0.01,0.0171 -0.009,0.0167 -0.0109,0.0157 -0.01,0.0146 -0.0118,0.0165 -0.0102,0.0145 -0.013,0.0151 -0.0119,0.0139 -0.0123,0.0133 -0.0129,0.0144 -0.0142,0.0116 -0.0137,0.0135 -0.0142,0.0122 -0.0146,0.0117 -0.0159,0.0111 -0.0153,0.0105 -0.0158,0.0102 -0.016,0.0101 -0.0172,0.008 -0.0167,0.01 -0.0169,0.008 -0.0172,0.008 -0.0168,0.007 -0.0177,0.006 -0.018,0.007 -0.0175,0.005 -0.0182,0.004 -0.0184,0.005 -0.0186,0.002 -0.0195,0.004 -0.0189,0.002 -0.0173,0.002 -0.0197,0.002 -0.019,-1.5e-4 -0.0189,0.001 -0.0183,-8.4e-4 -0.0189,-0.002 -0.019,-0.001 -0.0188,-0.003 -0.018,-0.003 -0.0187,-0.002 -0.0185,-0.005 -0.0176,-0.004 -0.0182,-0.005 -0.018,-0.007 -0.0178,-0.005 -0.0184,-0.007 -0.0159,-0.007 -0.0171,-0.007 -0.0176,-0.01 -0.0165,-0.008 -0.0162,-0.01 -0.0159,-0.0108 -0.0164,-0.01 -0.0152,-0.0111 -0.0148,-0.0111 -0.0144,-0.0116 -0.0148,-0.0134 -0.0135,-0.0121 -0.013,-0.0131 -0.0127,-0.0145 -0.0136,-0.0135 -0.011,-0.0139 -0.0112,-0.0158 -0.0121,-0.0151 -0.0102,-0.0146 -0.0112,-0.0164 -0.009,-0.0152 -0.009,-0.0165 -0.008,-0.0169 -0.009,-0.0174 -0.008,-0.0166 -0.006,-0.0171 -0.007,-0.0182 -0.005,-0.0184 -0.006,-0.0179 -0.005,-0.0183 -0.004,-0.0175 -0.004,-0.0184 -0.003,-0.0195 -0.001,-0.0189 -0.002,-0.019 -0.001,-0.0176 -7.4e-4,-0.0191 -2.4e-4,-0.0183 5.3e-4,-0.0198 0.001,-0.0188 0.002,-0.0177 8.4e-4,-0.019 0.003,-0.0183 0.004,-0.0198 0.004,-0.0176 0.005,-0.0179 0.006,-0.018 z"
       inkscape:transform-center-x="-0.00014996183"
       inkscape:transform-center-y="-0.00032402317" />
    <path
       style="fill:none;stroke:#ff0000;stroke-width:1.23192692000000000;stroke-linecap:round;stroke-linejoin:bevel;stroke-miterlimit:4;stroke-opacity:1;stroke-dasharray:none;stroke-dashoffset:0"
       d=" M 575.6062725 315.86655 C 574.718460588 311.427969344 573.746070773 307.045506508 572.684652526 302.718405746 C 571.623234278 298.391304985 570.472446157 294.119824376 569.229911725 289.904515461 C 567.987377294 285.689206547 566.652562007 281.530434955 565.224369333 277.429932395 C 563.79617666 273.329429836 562.27405774 269.287567321 560.657987575 265.306917461 C 559.04191741 261.326267601 557.331340615 257.407214101 555.527148381 253.552917103 C 553.722956147 249.698620105 551.824592974 245.909481082 549.833747226 242.189054254 C 547.842901477 238.468627425 545.759022965 234.817335496 543.584503421 231.238975982 C 541.409983876 227.660616469 539.144283121 224.155635572 536.790420167 220.727954325 C 534.436557214 217.300273079 531.994006028 213.950362536 529.466349371 210.682170432 C 526.938692713 207.413978327 524.325422382 204.228001208 521.630630295 201.128134042 C 518.935838208 198.028266876 516.159037317 195.015031779 513.304780513 192.092204842 C 510.45052371 189.169377905 507.518348106 186.337506426 504.513223966 183.600192015 C 501.508099827 180.862877605 498.429591161 178.220691971 495.283045291 175.677015065 C 492.136499421 173.133338158 488.92150974 170.688765004 485.643762659 168.34641362 C 482.366015578 166.004062236 479.025136129 163.764549599 475.627113516 161.630697291 C 472.229090903 159.496844983 468.773583837 157.469290337 465.266849197 155.550528933 C 461.760114556 153.631767529 458.201846568 151.822455258 454.598535508 150.124736433 C 450.995224448 148.427017608 447.34660169 146.841564705 443.659357236 145.370149324 C 439.972112782 143.898733943 436.246016588 142.542043028 432.48792515 141.301457462 C 428.729833712 140.060871896 424.939556808 138.937090848 421.124084545 137.931089646 C 417.308612282 136.925088444 413.467795306 136.037576131 409.608724743 135.269110575 C 405.749654181 134.50064502 401.8722224 133.851942701 397.983589236 133.323134881 C 394.094956072 132.794327061 390.195056276 132.386135145 386.291086368 132.098257251 C 382.38711646 131.810379358 378.479054049 131.64353925 374.574100635 131.59699786 C 370.669147221 131.55045647 366.767323556 131.62493731 362.875804788 131.81926246 C 358.984286019 132.013587611 355.10313614 132.328477702 351.239473046 132.762316596 C 347.375809952 133.196155489 343.529740786 133.749658284 339.708295797 134.420773466 C 335.886850808 135.091888649 332.090180019 135.881323141 328.325196215 136.786595026 C 324.560212411 137.691866912 320.82710804 138.713672305 317.13264928 139.84910592 C 313.43819052 140.984539534 309.782611611 142.234284069 306.172503726 143.595019882 C 302.562395842 144.955755694 298.998034209 146.428149502 295.485807442 148.008478227 C 291.973580674 149.588806953 288.513804009 151.277718815 285.112636878 153.071100056 C 281.711469748 154.864481297 278.369266253 156.762959181 275.091931041 158.762043777 C 271.81459583 160.761128373 268.602520565 162.86142361 265.461330609 165.05807956 C 262.320140654 167.25473551 259.250263774 169.548330467 256.257022746 171.933672275 C 253.263781718 174.319014084 250.347638802 176.796653196 247.513592155 179.361074494 C 244.679545508 181.925495793 241.928090138 184.577219784 239.263878906 187.310429066 C 236.599667675 190.043638348 234.02322645 192.858821489 231.538843554 195.74988079 C 229.054460657 198.64094009 226.662690808 201.608330311 224.367440037 204.645696657 C 222.072189267 207.683063002 219.874039015 210.790824683 217.776496843 213.962394125 C 215.678954671 217.133963567 213.6826265 220.369722823 211.790606861 223.662876861 C 209.898587221 226.9560309 208.111504177 230.306923155 206.43202635 233.708577358 C 204.752548522 237.110231562 203.181323687 240.562951213 201.720583404 244.059605821 C 200.259843122 247.556260429 198.910252365 251.097112395 197.673596252 254.67490469 C 196.436940139 258.252696986 195.313898258 261.867649916 194.305801703 265.512408158 C 193.297705147 269.157166399 192.405245477 272.831907325 191.629294015 276.529206005 C 190.853342552 280.226504684 190.194600134 283.946494888 189.653474417 287.681711088 C 189.112348701 291.416927289 188.689547066 295.167459157 188.385011475 298.925829785 C 188.080475884 302.684200412 187.894917502 306.450455044 187.827812441 310.21713469 C 187.760707381 313.983814336 187.812767812 317.750919664 187.98300572 321.511038868 C 188.153243628 325.271158072 188.442369403 329.024247266 188.848934485 332.762970939 C 189.255499568 336.501694612 189.78020979 340.225964523 190.421161487 343.928550294 C 191.062113184 347.631136065 191.820004864 351.311905471 192.692485019 354.963761717 C 193.564965175 358.615617964 194.552722259 362.238385389 195.652965981 365.82512872 C 196.753209704 369.411872051 197.966615765 372.962372907 199.289965919 376.469884863 C 200.613316073 379.977396819 202.04727062 383.441659661 203.588195898 386.8561424 C 205.129121177 390.27062514 206.7776595 393.635026781 208.529776002 396.943057531 C 210.281892505 400.25108828 212.138208996 403.502407572 214.094305226 406.690991618 C 216.050401457 409.879575664 218.106876295 413.005045697 220.258941477 416.061667706 C 222.41100666 419.118289716 224.659235767 422.10564825 226.998491366 425.018321709 C 229.337746965 427.930995167 231.768575104 430.76853308 234.285509426 433.525847657 C 236.802443748 436.283162233 239.40600063 438.959769787 242.090406363 441.550936423 C 244.774812097 444.142103059 247.540551364 446.647313806 250.381565909 449.062207354 C 253.222580454 451.477100902 256.13932137 453.801133054 259.125469798 456.030332293 C 262.111618225 458.259531532 265.167589907 460.393326608 268.286830377 462.42815147 C 271.406070847 464.462976333 274.588958872 466.398234957 277.82873032 468.230780821 C 281.068501769 470.063326685 284.365496959 471.792541367 287.712768877 473.415710272 C 291.060040796 475.038879177 294.457889986 476.555363953 297.899214079 477.962892614 C 301.340538173 479.370421276 304.825596771 480.668338086 308.347160297 481.854822598 C 311.868723824 483.041307111 315.427009935 484.115688813 319.014690509 485.076605931 C 322.602371083 486.03752305 326.219620996 486.88429297 329.85904264 487.6160179 C 333.498464283 488.347742829 337.160189086 488.963730769 340.8367793 489.463551373 C 344.513369514 489.963371977 348.204912623 490.346326617 351.903960252 490.612454001 C 355.60300788 490.878581384 359.309603246 491.027179035 363.016316902 491.058754449 C 366.723030558 491.090329864 370.429861313 491.004179515 374.129428135 490.801277563 C 377.828994956 490.598375612 381.521252275 490.278020278 385.19889677 489.841648401 C 388.876541266 489.405276524 392.5394832 488.852190864 396.180525955 488.184285113 C 399.82156871 487.516379362 403.440578761 486.732963591 407.030494763 485.836380698 C 410.620410766 484.939797805 414.181055965 483.929367917 417.705532321 482.807873702 C 421.230008678 481.686379487 424.718096937 480.45315383 428.163089746 479.111407981 C 431.608082556 477.769662132 435.00971906 476.318744384 438.361509218 474.762281676 C 441.713299376 473.205818967 445.014941796 471.543177589 448.260189506 469.778385616 C 451.505437217 468.013593643 454.693949512 466.146037878 457.819747285 464.180131385 C 460.945545058 462.214224892 464.00824967 460.149377422 467.002173598 457.990369339 C 469.996097526 455.831361256 472.920825732 453.577627603 475.770984839 451.234296901 C 478.621143946 448.890966198 481.396284191 446.457501018 484.091367651 443.939357503 C 486.786451111 441.421213987 489.400995111 438.81788437 491.930317154 436.135130573 C 494.459639197 433.452376776 496.903225641 430.689722706 499.256767962 427.853213008 C 501.610310284 425.01670331 503.873265942 422.105895447 506.041717449 419.127092604 C 508.210168956 416.148289761 510.283547051 413.101084707 512.25834078 409.992013952 C 514.233134509 406.882943198 516.108750181 403.711636428 517.882097247 400.484837335 C 519.655444314 397.258038243 521.32590704 393.975414891 522.89082748 390.643891186 C 524.455747919 387.312367482 525.914490764 383.931651173 527.264841139 380.508818699 C 528.615191513 377.085986226 529.856497085 373.620786168 530.98699475 370.120419209 C 532.117492415 366.620052251 533.136515434 363.08430879 534.042759365 359.520484971 C 534.949003295 355.956661152 535.741789666 352.364590009 536.420277761 348.751633987 C 537.098765857 345.138677966 537.662268191 341.504713385 538.110410986 337.857139568 C 538.558553781 334.209565751 538.890643289 330.548302775 539.106774018 326.880757279 C 539.322904747 323.213211784 539.422379464 319.539347903 539.405760437 315.86655"
       title="(1+1/(t+1)/4)*cos(t) (1+1/(t+1)/4)*sin(t)"
       id="path7474" />
    <path
       inkscape:connector-curvature="0"
       id="path7508"
       d="m 518.51307,249.74787 -4.36424,-9.44415"
       style="fill:none;stroke:#000000;stroke-width:1px;stroke-linecap:butt;stroke-linejoin:miter;stroke-opacity:1;marker-end:url(#Arrow2Lend-1)" />
    <path
       inkscape:connector-curvature="0"
       id="path7694"
       d="m 201.46231,278.45439 -1.09689,5.22651"
       style="fill:none;stroke:#000000;stroke-width:1px;stroke-linecap:butt;stroke-linejoin:miter;stroke-opacity:1;marker-end:url(#Arrow2Lend-1)" />
    <path
       inkscape:connector-curvature="0"
       id="path7880"
       d="m 408.2208,477.31894 5.07082,-1.46274"
       style="fill:none;stroke:#000000;stroke-width:1px;stroke-linecap:butt;stroke-linejoin:miter;stroke-opacity:1;marker-end:url(#Arrow2Lend-1)" />
    <path
       inkscape:connector-curvature="0"
       id="path8066"
       d="m 565.22437,277.42993 -2.36086,-6.49873"
       style="fill:none;stroke:#ff0000;stroke-width:1px;stroke-linecap:butt;stroke-linejoin:miter;stroke-opacity:1;marker-end:url(#Arrow2Lend-1)" />
    <path
       inkscape:connector-curvature="0"
       id="path8252"
       d="m 260.94043,168.32307 -4.68341,3.6106 0,0 0,0"
       style="fill:none;stroke:#ff0000;stroke-width:0;stroke-linecap:butt;stroke-linejoin:miter;stroke-opacity:1;marker-start:none;marker-end:url(#Arrow2Lend-1);stroke-miterlimit:4;stroke-dasharray:none" />
    <path
       inkscape:connector-curvature="0"
       id="path8622"
       d="m 271.47504,161.02629 -10.53461,7.29678"
       style="fill:none;stroke:#ff0000;stroke-width:1px;stroke-linecap:butt;stroke-linejoin:miter;stroke-opacity:1;marker-end:url(#Arrow2Lend-1)" />
    <path
       inkscape:connector-curvature="0"
       id="path9180"
       d="m 527.26484,380.50882 2.10467,-5.61688"
       style="fill:none;stroke:#ff0000;stroke-width:1px;stroke-linecap:butt;stroke-linejoin:miter;stroke-opacity:1;marker-end:url(#Arrow2Lend-1)" />
    <g
       id="g9408"
       transform="matrix(0.55665134,0,0,0.55665134,300.34434,35.444571)">
      <g
         word-spacing="normal"
         letter-spacing="normal"
         font-size-adjust="none"
         font-stretch="normal"
         font-weight="normal"
         font-variant="normal"
         font-style="normal"
         stroke-miterlimit="10.433"
         xml:space="preserve"
         transform="matrix(1.0629921,0,0,-1.0629921,-186.02362,789.27165)"
         id="g9410"
         style="font-style:normal;font-variant:normal;font-weight:normal;font-stretch:normal;letter-spacing:normal;word-spacing:normal;text-anchor:start;fill:none;stroke:#000000;stroke-linecap:butt;stroke-linejoin:miter;stroke-miterlimit:10.43299961;stroke-opacity:1;stroke-dasharray:none;stroke-dashoffset:0"><path
           id="path9412"
           d="m 483.6,439.87 h -25.96 v -1.54 h 1.2 c 3.84,0 3.93,-0.55 3.93,-2.34 v -26.1 c 0,-1.8 -0.09,-2.35 -3.93,-2.35 h -1.2 V 406 h 15.95 v 1.54 h -1.65 c -4.73,0 -4.73,0.65 -4.73,2.39 v 26.41 c 0,1.64 0.1,1.99 2.44,1.99 h 5.13 c 7.12,0 8.17,-2.94 8.97,-9.67 h 1.24 z"
           inkscape:connector-curvature="0"
           style="fill:#000000;stroke-width:0" /><path
           id="path9414"
           d="m 495.68,402.7 -0.03,-0.12 -0.04,-0.11 -0.05,-0.12 -0.04,-0.13 -0.06,-0.12 -0.06,-0.13 -0.06,-0.12 -0.07,-0.13 -0.07,-0.13 -0.07,-0.13 -0.08,-0.13 -0.09,-0.12 -0.09,-0.13 -0.09,-0.12 -0.1,-0.12 -0.1,-0.12 -0.11,-0.12 -0.11,-0.11 -0.11,-0.1 -0.12,-0.1 -0.12,-0.1 -0.13,-0.09 -0.13,-0.08 -0.13,-0.08 -0.14,-0.07 -0.14,-0.06 -0.15,-0.05 -0.15,-0.05 -0.15,-0.03 -0.16,-0.03 -0.16,-0.02 -0.16,0 c -0.11,0 -1.16,0 -1.89,0.49 1.43,0.45 1.53,1.7 1.53,1.92 0,0.76 -0.59,1.28 -1.39,1.28 -0.98,0 -1.99,-0.83 -1.99,-2.12 0,-1.75 1.96,-2.55 3.67,-2.55 1.6,0 3.03,1.01 3.9,2.48 0.84,-1.85 2.76,-2.48 4.15,-2.48 4.01,0 6.14,4.36 6.14,5.33 0,0.46 -0.46,0.46 -0.56,0.46 -0.49,0 -0.52,-0.17 -0.67,-0.59 -0.73,-2.41 -2.82,-4.22 -4.77,-4.22 -1.4,0 -2.13,0.94 -2.13,2.26 0,0.91 0.84,4.08 1.81,7.95 0.7,2.69 2.27,3.56 3.42,3.56 0.07,0 1.16,0 1.89,-0.49 -1.12,-0.31 -1.54,-1.29 -1.54,-1.91 0,-0.77 0.59,-1.3 1.4,-1.3 0.8,0 1.95,0.67 1.95,2.13 0,1.96 -2.23,2.55 -3.63,2.55 -1.74,0 -3.14,-1.15 -3.9,-2.48 -0.63,1.43 -2.23,2.48 -4.19,2.48 -3.9,0 -6.13,-4.29 -6.13,-5.34 0,-0.45 0.48,-0.45 0.59,-0.45 0.45,0 0.49,0.14 0.66,0.59 0.87,2.72 3.07,4.22 4.78,4.22 1.15,0 2.09,-0.63 2.09,-2.3 0,-0.7 -0.42,-2.44 -0.73,-3.63 z"
           inkscape:connector-curvature="0"
           style="fill:#000000;stroke-width:0" /><path
           id="path9416"
           d="m 512.49,391.09 -0.02,-0.06 -0.01,-0.06 -0.02,-0.05 -0.01,-0.05 -0.02,-0.05 -0.01,-0.05 -0.02,-0.04 -0.01,-0.04 -0.02,-0.04 -0.02,-0.04 -0.02,-0.03 -0.02,-0.03 -0.02,-0.03 -0.03,-0.03 -0.03,-0.02 -0.03,-0.03 -0.03,-0.02 -0.04,-0.02 -0.04,-0.01 -0.04,-0.02 -0.04,-0.01 -0.05,-0.02 -0.06,-0.01 -0.03,0 -0.03,-0.01 -0.03,0 -0.03,-0.01 -0.03,0 -0.04,0 -0.03,-0.01 -0.04,0 -0.04,0 -0.04,0 -0.04,-0.01 -0.04,0 -0.05,0 -0.04,0 -0.05,0 -0.05,0 -0.05,0 -0.05,0 c -0.38,0 -0.8,0 -0.8,-0.7 0,-0.27 0.22,-0.42 0.4,-0.42 0.37,0 0.82,0.07 1.22,0.07 h 2.71 c 0.43,0 0.95,-0.07 1.37,-0.07 0.33,0 0.63,0.17 0.63,0.7 0,0.42 -0.43,0.42 -0.77,0.42 -0.83,0 -1.38,0 -1.38,0.3 0,0.15 0.4,1.67 1.15,4.63 0.62,-0.84 1.62,-1.49 2.99,-1.49 v 0.84 c -2.07,0 -2.59,2.02 -2.59,2.22 0,0.12 0.05,0.27 0.07,0.4 l 1.07,4.23 c 0.1,0.4 0.13,0.45 0.55,0.95 1,1.09 2.27,1.79 3.46,1.79 1.02,0 2.2,-0.64 2.2,-2.54 0,-1.09 -0.58,-3.49 -1.27,-4.68 -1.05,-1.82 -2.54,-2.37 -3.49,-2.37 v -0.84 c 3.51,0 7,3.43 7,6.95 0,2.48 -1.82,4.33 -4.36,4.33 -1.94,0 -3.46,-1.27 -3.96,-1.74 -0.5,1.34 -1.99,1.74 -2.92,1.74 -0.84,0 -1.59,-0.4 -2.21,-1.37 -0.65,-1.05 -0.97,-2.34 -0.97,-2.47 0,-0.37 0.37,-0.37 0.52,-0.37 0.43,0 0.47,0.13 0.57,0.52 0.28,1 0.8,2.84 1.97,2.84 0.87,0 1.02,-0.82 1.02,-1.32 0,-0.35 -0.02,-0.45 -0.07,-0.64 z"
           inkscape:connector-curvature="0"
           style="fill:#000000;stroke-width:0" /></g>    </g>
    <g
       transform="matrix(0.36797996,0,0,0.36797996,426.91042,48.894138)"
       id="g9510">
      <g
         style="font-style:normal;font-variant:normal;font-weight:normal;font-stretch:normal;letter-spacing:normal;word-spacing:normal;text-anchor:start;fill:none;stroke:#000000;stroke-linecap:butt;stroke-linejoin:miter;stroke-miterlimit:10.43299961;stroke-opacity:1;stroke-dasharray:none;stroke-dashoffset:0"
         id="g9512"
         transform="matrix(1.0629921,0,0,-1.0629921,-186.02362,789.27165)"
         xml:space="preserve"
         stroke-miterlimit="10.433"
         font-style="normal"
         font-variant="normal"
         font-weight="normal"
         font-stretch="normal"
         font-size-adjust="none"
         letter-spacing="normal"
         word-spacing="normal"><path
           style="fill:#000000;stroke-width:0"
           inkscape:connector-curvature="0"
           d="m 479.31,424.53 0,0.13 0,0.12 -0.01,0.12 0,0.11 -0.01,0.12 -0.01,0.11 -0.01,0.11 -0.01,0.1 -0.04,0.21 -0.03,0.19 -0.05,0.18 -0.04,0.18 -0.06,0.16 -0.06,0.16 -0.06,0.15 -0.06,0.13 -0.08,0.13 -0.07,0.12 -0.08,0.12 -0.08,0.1 -0.08,0.1 -0.09,0.09 -0.08,0.08 -0.09,0.07 -0.09,0.07 -0.09,0.06 -0.1,0.05 -0.09,0.05 -0.09,0.04 -0.09,0.03 -0.1,0.03 -0.09,0.03 -0.09,0.01 -0.09,0.02 -0.08,0 -0.09,0.01 c -1.24,0 -2.44,-1.3 -2.44,-2.39 0,-0.65 0.25,-0.95 0.8,-1.5 1.04,-0.99 1.69,-2.29 1.69,-4.08 0,-2.09 -3.04,-13.5 -8.87,-13.5 -2.54,0 -3.68,1.74 -3.68,4.33 0,2.79 1.34,6.43 2.89,10.56 0.35,0.85 0.6,1.54 0.6,2.49 0,2.25 -1.6,4.09 -4.09,4.09 -4.68,0 -6.57,-7.23 -6.57,-7.67 0,-0.5 0.49,-0.5 0.59,-0.5 0.5,0 0.55,0.1 0.8,0.9 1.45,5.03 3.59,6.17 5.03,6.17 0.4,0 1.25,0 1.25,-1.59 0,-1.25 -0.5,-2.59 -0.85,-3.49 -2.19,-5.78 -2.84,-8.07 -2.84,-10.21 0,-5.38 4.38,-6.18 6.68,-6.18 8.36,0 11.2,16.49 11.2,19.08 z"
           id="path9514" /><path
           style="fill:#000000;stroke-width:0"
           inkscape:connector-curvature="0"
           d="m 497.49,394.04 0,0.03 0,0.03 -0.01,0.01 0,0.02 0,0.01 -0.01,0.02 0,0.02 -0.01,0.01 -0.01,0.02 -0.01,0.02 -0.01,0.03 -0.01,0.02 -0.02,0.02 -0.02,0.03 -0.02,0.03 -0.02,0.03 -0.03,0.03 -0.03,0.04 -0.01,0.02 -0.02,0.02 -0.02,0.02 -0.02,0.02 -0.02,0.02 -0.02,0.03 -0.02,0.02 -0.02,0.02 -0.02,0.03 -0.03,0.02 -0.02,0.03 -0.03,0.03 -0.02,0.03 -0.03,0.03 -0.03,0.03 -0.03,0.03 -0.03,0.03 -0.03,0.03 -0.04,0.04 -0.03,0.03 -0.04,0.04 -0.03,0.03 -0.04,0.04 -0.04,0.04 c -6.23,6.28 -7.82,15.69 -7.82,23.31 0,8.67 1.89,17.34 8.02,23.57 0.65,0.59 0.65,0.69 0.65,0.84 0,0.35 -0.2,0.5 -0.5,0.5 -0.5,0 -4.98,-3.39 -7.92,-9.72 -2.54,-5.47 -3.14,-11 -3.14,-15.19 0,-3.88 0.55,-9.91 3.29,-15.54 2.99,-6.12 7.27,-9.36 7.77,-9.36 0.3,0 0.5,0.15 0.5,0.49 z"
           id="path9516" /><path
           style="fill:#000000;stroke-width:0"
           inkscape:connector-curvature="0"
           d="m 517.64,421.04 0.03,0.13 0.03,0.15 0.05,0.17 0.04,0.18 0.06,0.19 0.06,0.21 0.06,0.21 0.07,0.23 0.08,0.23 0.09,0.24 0.1,0.25 0.1,0.24 0.11,0.25 0.12,0.25 0.13,0.25 0.14,0.25 0.15,0.24 0.15,0.24 0.17,0.23 0.18,0.22 0.18,0.22 0.2,0.2 0.21,0.19 0.22,0.18 0.23,0.16 0.25,0.14 0.12,0.07 0.13,0.06 0.13,0.05 0.14,0.05 0.14,0.05 0.14,0.04 0.14,0.03 0.15,0.03 0.15,0.02 0.16,0.02 0.16,0.01 0.16,0 c 0.25,0 1.45,0 2.49,-0.65 -1.4,-0.25 -2.39,-1.49 -2.39,-2.68 0,-0.8 0.55,-1.75 1.89,-1.75 1.1,0 2.69,0.9 2.69,2.89 0,2.59 -2.94,3.29 -4.63,3.29 -2.89,0 -4.64,-2.64 -5.23,-3.79 -1.24,3.29 -3.94,3.79 -5.38,3.79 -5.18,0 -8.02,-6.43 -8.02,-7.67 0,-0.5 0.5,-0.5 0.6,-0.5 0.39,0 0.54,0.1 0.64,0.54 1.7,5.29 4.98,6.53 6.68,6.53 0.94,0 2.69,-0.45 2.69,-3.33 0,-1.55 -0.85,-4.89 -2.69,-11.86 -0.8,-3.09 -2.54,-5.18 -4.73,-5.18 -0.3,0 -1.45,0 -2.49,0.65 1.24,0.25 2.34,1.29 2.34,2.69 0,1.34 -1.1,1.74 -1.85,1.74 -1.49,0 -2.73,-1.3 -2.73,-2.89 0,-2.29 2.48,-3.29 4.68,-3.29 3.28,0 5.08,3.49 5.22,3.79 0.61,-1.85 2.4,-3.79 5.39,-3.79 5.13,0 7.97,6.43 7.97,7.68 0,0.49 -0.45,0.49 -0.6,0.49 -0.45,0 -0.55,-0.2 -0.65,-0.55 -1.64,-5.33 -5.03,-6.52 -6.62,-6.52 -1.94,0 -2.74,1.59 -2.74,3.29 0,1.09 0.3,2.19 0.85,4.38 z"
           id="path9518" /><path
           style="fill:#000000;stroke-width:0"
           inkscape:connector-curvature="0"
           d="m 531.61,394.75 -0.02,-0.09 -0.02,-0.09 -0.02,-0.08 -0.02,-0.08 -0.02,-0.07 -0.02,-0.07 -0.03,-0.07 -0.02,-0.06 -0.02,-0.06 -0.03,-0.06 -0.03,-0.05 -0.03,-0.05 -0.03,-0.05 -0.03,-0.04 -0.04,-0.04 -0.04,-0.04 -0.04,-0.03 -0.05,-0.03 -0.05,-0.03 -0.05,-0.03 -0.06,-0.02 -0.07,-0.02 -0.07,-0.02 -0.07,-0.02 -0.08,-0.01 -0.05,-0.01 -0.04,-0.01 -0.04,0 -0.05,-0.01 -0.05,0 -0.05,0 -0.05,-0.01 -0.06,0 -0.05,0 -0.06,0 -0.06,-0.01 -0.06,0 -0.06,0 -0.06,0 c -0.46,0 -0.94,0 -0.94,-0.73 0,-0.38 0.31,-0.53 0.48,-0.53 h 6.66 c 0.32,0 0.7,0.11 0.7,0.77 0,0.49 -0.49,0.49 -0.91,0.49 -0.76,0 -1.7,0 -1.7,0.42 0,0.17 0.24,1.08 0.38,1.6 0.42,1.85 0.9,3.73 1.29,5.2 0.42,-0.7 1.5,-2.06 3.59,-2.06 v 0.98 c -2.48,0 -3.11,2.68 -3.11,3.03 0,0.14 0.08,0.38 0.11,0.52 l 1.75,7.01 c 2.02,2.69 3.76,3.21 4.88,3.21 1.36,0 2.54,-1.01 2.54,-3.38 0,-1.43 -0.76,-4.99 -1.81,-7.01 -0.87,-1.71 -2.58,-3.38 -4.36,-3.38 v -0.98 c 4.26,0 8.96,4.71 8.96,9.9 0,4.08 -2.82,5.83 -5.23,5.83 -2.16,0 -4.01,-1.47 -4.95,-2.44 -0.59,1.99 -2.54,2.44 -3.59,2.44 -1.36,0 -2.2,-0.91 -2.75,-1.85 -0.7,-1.19 -1.26,-3.28 -1.26,-3.49 0,-0.45 0.49,-0.45 0.59,-0.45 0.49,0 0.52,0.11 0.77,1.05 0.52,2.02 1.18,3.76 2.54,3.76 0.91,0 1.16,-0.77 1.16,-1.71 0,-0.38 -0.07,-0.83 -0.11,-1.05 z"
           id="path9520" /><path
           style="fill:#000000;stroke-width:0"
           inkscape:connector-curvature="0"
           d="m 566.4,418.45 -0.01,0.37 0,0.39 -0.01,0.39 -0.01,0.41 -0.04,0.84 -0.06,0.88 -0.09,0.92 -0.1,0.94 -0.14,0.98 -0.16,1 -0.2,1.02 -0.23,1.04 -0.27,1.05 -0.3,1.06 -0.35,1.06 -0.39,1.07 -0.22,0.53 -0.22,0.54 -0.24,0.53 -0.25,0.53 c -2.99,6.12 -7.27,9.36 -7.77,9.36 -0.3,0 -0.5,-0.2 -0.5,-0.5 0,-0.15 0,-0.25 0.94,-1.15 4.89,-4.92 7.73,-12.85 7.73,-23.26 0,-8.52 -1.85,-17.28 -8.02,-23.56 -0.65,-0.6 -0.65,-0.69 -0.65,-0.85 0,-0.29 0.2,-0.49 0.5,-0.49 0.5,0 4.98,3.38 7.92,9.71 2.54,5.48 3.14,11.01 3.14,15.19 z"
           id="path9522" /></g>    </g>
    <path
       inkscape:connector-curvature="0"
       style="fill:none;stroke:#000000;stroke-width:1;stroke-linecap:round;stroke-linejoin:bevel;stroke-miterlimit:4;stroke-opacity:1;stroke-dasharray:none;stroke-dashoffset:0"
       d="m 397.46429,316.11218 c 0,-0.24435 -0.003,-0.48869 -0.008,-0.73298 -0.005,-0.24428 -0.0136,-0.48851 -0.0244,-0.73261 -0.0109,-0.24411 -0.0244,-0.48809 -0.0407,-0.7319 -0.0163,-0.2438 -0.0352,-0.48742 -0.0569,-0.73081 -0.0217,-0.24338 -0.0461,-0.48652 -0.0731,-0.72936 -0.0271,-0.24284 -0.0569,-0.48538 -0.0893,-0.72756 -0.0325,-0.24218 -0.0676,-0.484 -0.10547,-0.7254 -0.0378,-0.24139 -0.0784,-0.48237 -0.12156,-0.72287 -0.0432,-0.2405 -0.0891,-0.48052 -0.13759,-0.72 -0.0485,-0.23948 -0.0997,-0.47841 -0.15354,-0.71676 -0.0538,-0.23834 -0.11031,-0.47608 -0.16942,-0.71317 -0.0591,-0.23709 -0.12086,-0.47352 -0.18522,-0.70924 -0.0644,-0.23572 -0.13135,-0.47072 -0.20093,-0.70495 -0.0696,-0.23422 -0.14178,-0.46768 -0.21654,-0.70031 -0.0748,-0.23262 -0.15213,-0.46441 -0.23204,-0.69532 -0.0799,-0.23091 -0.16241,-0.46093 -0.24743,-0.69 -0.085,-0.22908 -0.1726,-0.45721 -0.26269,-0.68434 -0.0901,-0.22713 -0.18272,-0.45326 -0.27783,-0.67833 -0.0951,-0.22508 -0.19273,-0.44909 -0.29282,-0.672 -0.10009,-0.2229 -0.20267,-0.44469 -0.30768,-0.66532 -0.10502,-0.22063 -0.21249,-0.44009 -0.32239,-0.65833 -0.10989,-0.21824 -0.22221,-0.43526 -0.33692,-0.651 -0.11471,-0.21575 -0.23183,-0.43022 -0.3513,-0.64336 -0.11947,-0.21315 -0.24132,-0.42496 -0.3655,-0.6354 -0.12418,-0.21044 -0.25071,-0.41949 -0.37953,-0.62712 -0.12882,-0.20763 -0.25996,-0.41382 -0.39336,-0.61854 -0.13341,-0.20471 -0.26909,-0.40794 -0.40701,-0.60965 -0.13791,-0.2017 -0.27808,-0.40186 -0.42044,-0.60045 -0.14237,-0.19859 -0.28694,-0.3956 -0.43368,-0.59097 -0.14674,-0.19538 -0.29566,-0.38913 -0.4467,-0.5812 -0.15104,-0.19207 -0.30422,-0.38245 -0.45949,-0.57112 -0.15528,-0.18867 -0.31265,-0.37561 -0.47207,-0.56078 -0.15943,-0.18518 -0.32091,-0.36857 -0.48441,-0.55016 -0.1635,-0.18159 -0.32902,-0.36135 -0.49651,-0.53926 -0.16749,-0.17791 -0.33696,-0.35396 -0.50836,-0.5281 -0.1714,-0.17415 -0.34474,-0.34638 -0.51997,-0.51668 -0.17523,-0.1703 -0.35235,-0.33864 -0.53132,-0.505 -0.17896,-0.16636 -0.35978,-0.33073 -0.5424,-0.49308 -0.18261,-0.16234 -0.36704,-0.32265 -0.55322,-0.4809 -0.18617,-0.15825 -0.37411,-0.31443 -0.56376,-0.4685 -0.18965,-0.15408 -0.38101,-0.30604 -0.57403,-0.45587 -0.19303,-0.14982 -0.38772,-0.29749 -0.58402,-0.443 -0.1963,-0.1455 -0.39422,-0.28881 -0.59371,-0.42991 -0.19949,-0.14111 -0.40054,-0.27999 -0.60311,-0.41663 -0.20257,-0.13664 -0.40667,-0.27102 -0.61222,-0.40313 -0.20556,-0.1321 -0.41259,-0.26192 -0.62102,-0.38943 -0.20844,-0.1275 -0.4183,-0.25269 -0.62952,-0.37553 -0.21122,-0.12285 -0.42381,-0.24334 -0.63771,-0.36147 -0.21389,-0.11812 -0.42911,-0.23386 -0.64557,-0.34721 -0.21647,-0.11334 -0.4342,-0.22428 -0.65313,-0.33278 -0.21893,-0.10851 -0.43907,-0.21458 -0.66036,-0.3182 -0.22129,-0.10362 -0.44373,-0.20477 -0.66726,-0.30345 -0.22354,-0.0987 -0.44817,-0.19487 -0.67384,-0.28856 -0.22567,-0.0937 -0.45239,-0.18486 -0.68009,-0.27351 -0.22769,-0.0887 -0.45638,-0.17477 -0.68598,-0.25835 -0.22961,-0.0836 -0.46015,-0.16459 -0.69156,-0.24304 -0.23141,-0.0785 -0.46369,-0.15433 -0.69679,-0.22762 -0.23309,-0.0733 -0.467,-0.14399 -0.70167,-0.21209 -0.23466,-0.0681 -0.47009,-0.13358 -0.70621,-0.19645 -0.23612,-0.0629 -0.47294,-0.12311 -0.71039,-0.18072 -0.23746,-0.0576 -0.47556,-0.11258 -0.71424,-0.1649 -0.23868,-0.0523 -0.47794,-0.10198 -0.71772,-0.14899 -0.23978,-0.047 -0.48009,-0.0913 -0.72086,-0.13301 -0.24076,-0.0417 -0.48199,-0.0806 -0.72363,-0.11696 -0.24163,-0.0363 -0.48367,-0.0699 -0.72605,-0.10087 -0.24238,-0.0309 -0.4851,-0.0592 -0.72811,-0.0847 -0.24301,-0.0256 -0.4863,-0.0484 -0.72981,-0.0685 -0.24352,-0.0201 -0.48726,-0.0376 -0.73116,-0.0523 -0.2439,-0.0147 -0.48797,-0.0267 -0.73214,-0.036 -0.24416,-0.009 -0.48844,-0.0159 -0.73275,-0.0198 -0.24432,-0.004 -0.48868,-0.005 -0.73302,-0.003 -0.24434,0.002 -0.48866,0.006 -0.73291,0.0128 -0.24425,0.007 -0.48841,0.0167 -0.73245,0.0291 -0.24403,0.0124 -0.48792,0.0275 -0.73162,0.0453 -0.24369,0.0178 -0.48719,0.0383 -0.73043,0.0616 -0.24324,0.0232 -0.48622,0.0491 -0.72888,0.0778 -0.24267,0.0286 -0.48501,0.06 -0.72698,0.094 -0.24197,0.034 -0.48356,0.0707 -0.72471,0.11008 -0.24116,0.0394 -0.48187,0.0814 -0.72209,0.12614 -0.24022,0.0447 -0.47994,0.0921 -0.71911,0.14215 -0.23917,0.05 -0.47778,0.10275 -0.71577,0.15809 -0.238,0.0553 -0.47538,0.11333 -0.71209,0.17394 -0.23671,0.0606 -0.47274,0.12387 -0.70804,0.18972 -0.23531,0.0659 -0.46988,0.13434 -0.70366,0.2054 -0.23378,0.0711 -0.46678,0.14474 -0.69892,0.22098 -0.23215,0.0762 -0.46345,0.15507 -0.69384,0.23645 -0.2304,0.0814 -0.45989,0.16533 -0.68842,0.2518 -0.22853,0.0865 -0.4561,0.1755 -0.68266,0.26703 -0.22655,0.0915 -0.45209,0.18559 -0.67655,0.28213 -0.22447,0.0965 -0.44786,0.19558 -0.67012,0.29708 -0.22227,0.10151 -0.44341,0.20548 -0.66336,0.3119 -0.21996,0.10641 -0.43873,0.21528 -0.65627,0.32655 -0.21754,0.11128 -0.43384,0.22497 -0.64885,0.34105 -0.21502,0.11608 -0.42874,0.23455 -0.64112,0.35538 -0.21238,0.12082 -0.42342,0.24401 -0.63306,0.36953 -0.20965,0.12551 -0.4179,0.25336 -0.6247,0.3835 -0.20681,0.13013 -0.41217,0.26258 -0.61603,0.39728 -0.20387,0.1347 -0.40623,0.27167 -0.60706,0.41086 -0.20082,0.1392 -0.40009,0.28063 -0.59777,0.42425"
       title="cos(t) sin(t)"
       id="path9983" />
    <g
       id="g10098"
       transform="matrix(0.39560166,0,0,0.39560166,252.08262,165.2795)">
      <g
         word-spacing="normal"
         letter-spacing="normal"
         font-size-adjust="none"
         font-stretch="normal"
         font-weight="normal"
         font-variant="normal"
         font-style="normal"
         stroke-miterlimit="10.433"
         xml:space="preserve"
         transform="matrix(1.0629921,0,0,-1.0629921,-186.02362,789.27165)"
         id="g10100"
         style="font-style:normal;font-variant:normal;font-weight:normal;font-stretch:normal;letter-spacing:normal;word-spacing:normal;text-anchor:start;fill:none;stroke:#000000;stroke-linecap:butt;stroke-linejoin:miter;stroke-miterlimit:10.43299961;stroke-opacity:1;stroke-dasharray:none;stroke-dashoffset:0"><path
           id="path10102"
           d="m 478.66,430.91 0,0.31 -0.01,0.34 -0.01,0.36 -0.02,0.37 -0.03,0.38 -0.04,0.4 -0.05,0.41 -0.06,0.41 -0.06,0.42 -0.08,0.42 -0.09,0.43 -0.1,0.42 -0.11,0.43 -0.13,0.42 -0.13,0.41 -0.16,0.4 -0.17,0.4 -0.18,0.39 -0.2,0.37 -0.22,0.35 -0.23,0.34 -0.25,0.32 -0.27,0.3 -0.29,0.27 -0.31,0.25 -0.17,0.12 -0.16,0.11 -0.18,0.1 -0.17,0.09 -0.19,0.09 -0.19,0.07 -0.19,0.07 -0.2,0.06 -0.21,0.06 -0.21,0.04 -0.21,0.03 -0.23,0.03 -0.23,0.01 -0.23,0.01 -0.05,-1.1 c 2.44,0 2.74,-3.18 2.74,-6.02 0,-2.45 -0.4,-4.99 -1.59,-9.92 h -10.42 c 0.85,3.19 1.84,7.17 3.84,10.71 1.34,2.44 3.18,5.23 5.43,5.23 l 0.05,1.1 c -6.93,0 -14.6,-14.05 -14.6,-25.46 0,-4.68 1.45,-10.21 5.98,-10.21 v 1.1 c -1.64,0 -2.69,1.44 -2.69,6.08 0,2.09 0.3,4.98 1.59,9.86 h 10.37 c -0.55,-2.29 -1.6,-6.53 -3.49,-10.11 -1.74,-3.39 -3.64,-5.83 -5.78,-5.83 v -1.1 c 7.02,0 14.59,14.3 14.59,25.46 z"
           inkscape:connector-curvature="0"
           style="fill:#000000;stroke-width:0" /></g>    </g>
    <g
       transform="matrix(0.62521539,0,0,0.62521539,126.45469,25.349816)"
       id="g10220">
      <g
         style="font-style:normal;font-variant:normal;font-weight:normal;font-stretch:normal;letter-spacing:normal;word-spacing:normal;text-anchor:start;fill:none;stroke:#000000;stroke-linecap:butt;stroke-linejoin:miter;stroke-miterlimit:10.43299961;stroke-opacity:1;stroke-dasharray:none;stroke-dashoffset:0"
         id="g10222"
         transform="matrix(1.0629921,0,0,-1.0629921,-186.02362,789.27165)"
         xml:space="preserve"
         stroke-miterlimit="10.433"
         font-style="normal"
         font-variant="normal"
         font-weight="normal"
         font-stretch="normal"
         font-size-adjust="none"
         letter-spacing="normal"
         word-spacing="normal"><path
           style="fill:#000000;stroke-width:0"
           inkscape:connector-curvature="0"
           d="m 460.38,408.94 -0.01,-0.07 -0.02,-0.08 -0.01,-0.07 -0.02,-0.08 -0.03,-0.16 -0.04,-0.16 -0.04,-0.16 -0.03,-0.16 -0.04,-0.16 -0.04,-0.16 -0.01,-0.08 -0.02,-0.07 -0.02,-0.07 -0.01,-0.07 -0.02,-0.07 -0.01,-0.07 -0.01,-0.06 -0.02,-0.06 -0.01,-0.05 -0.01,-0.06 -0.01,-0.05 0,-0.04 -0.01,-0.04 0,-0.04 -0.01,-0.03 0,-0.02 c 0,-0.9 0.7,-1.35 1.45,-1.35 0.6,0 1.5,0.4 1.84,1.4 0.1,0.2 1.8,6.97 1.99,7.87 0.4,1.64 1.3,5.13 1.6,6.47 0.2,0.65 1.59,2.99 2.79,4.09 0.4,0.35 1.84,1.64 3.99,1.64 1.29,0 2.04,-0.6 2.09,-0.6 -1.5,-0.25 -2.59,-1.44 -2.59,-2.73 0,-0.8 0.54,-1.75 1.89,-1.75 1.34,0 2.74,1.14 2.74,2.94 0,1.74 -1.59,3.24 -4.13,3.24 -3.24,0 -5.43,-2.44 -6.38,-3.84 -0.4,2.24 -2.19,3.84 -4.53,3.84 -2.3,0 -3.24,-1.95 -3.69,-2.84 -0.9,-1.7 -1.54,-4.68 -1.54,-4.83 0,-0.5 0.49,-0.5 0.59,-0.5 0.5,0 0.55,0.05 0.85,1.14 0.84,3.54 1.84,5.93 3.64,5.93 0.84,0 1.54,-0.4 1.54,-2.29 0,-1.04 -0.15,-1.59 -0.8,-4.18 z"
           id="path10224" /></g>    </g>
    <path
       inkscape:connector-curvature="0"
       id="path10040"
       d="M 365,315.75504 261.42857,183.96932"
       style="fill:none;stroke:#000000;stroke-width:1px;stroke-linecap:butt;stroke-linejoin:miter;stroke-opacity:1" />
    <g
       transform="matrix(0.47169112,0,0,0.47169112,352.85462,167.5007)"
       id="g4492">
      <g
         style="font-style:normal;font-variant:normal;font-weight:normal;font-stretch:normal;letter-spacing:normal;word-spacing:normal;text-anchor:start;fill:none;stroke:#000000;stroke-linecap:butt;stroke-linejoin:miter;stroke-miterlimit:10.43299961;stroke-opacity:1;stroke-dasharray:none;stroke-dashoffset:0"
         id="g4494"
         transform="matrix(1.0629921,0,0,-1.0629921,-186.02362,789.27165)"
         xml:space="preserve"
         stroke-miterlimit="10.433"
         font-style="normal"
         font-variant="normal"
         font-weight="normal"
         font-stretch="normal"
         font-size-adjust="none"
         letter-spacing="normal"
         word-spacing="normal"><path
           style="fill:#000000;stroke-width:0"
           inkscape:connector-curvature="0"
           d="m 475.38,394.41 -8.77,19.38 c -0.35,0.8 -0.6,0.8 -0.75,0.8 -0.05,0 -0.3,0 -0.84,-0.4 l -4.73,-3.59 c -0.65,-0.5 -0.65,-0.65 -0.65,-0.8 0,-0.25 0.15,-0.55 0.49,-0.55 0.3,0 1.15,0.7 1.7,1.1 0.3,0.25 1.05,0.8 1.59,1.2 l 9.81,-21.57 c 0.36,-0.8 0.6,-0.8 1.05,-0.8 0.75,0 0.9,0.3 1.25,1 L 498.14,437 c 0.35,0.7 0.35,0.9 0.35,1 0,0.5 -0.4,0.99 -0.99,0.99 -0.4,0 -0.75,-0.25 -1.15,-1.04 z"
           id="path4496" /><polyline
           style="fill:#000000;fill-rule:nonzero;stroke-width:0"
           points="497,437 527.12,437 527.12,439.04 497,439.04 "
           id="polyline4498" /><path
           style="fill:#000000;stroke-width:0"
           inkscape:connector-curvature="0"
           d="m 508.51,423.48 0.02,0.1 0.03,0.11 0.02,0.11 0.03,0.11 0.03,0.12 0.03,0.12 0.06,0.24 0.06,0.25 0.06,0.25 0.07,0.24 0.05,0.25 0.03,0.11 0.03,0.12 0.03,0.11 0.02,0.11 0.03,0.1 0.02,0.1 0.02,0.1 0.02,0.09 0.02,0.08 0.02,0.07 0.01,0.07 0.01,0.07 0.01,0.05 0.01,0.05 0,0.03 0,0.02 0,0.01 c 0,0.85 -0.59,1.35 -1.44,1.35 -0.15,0 -1.54,-0.05 -1.99,-1.8 l -7.18,-28.84 c -0.14,-0.59 -0.14,-0.7 -0.14,-0.79 0,-0.75 0.54,-1.35 1.39,-1.35 1.04,0 1.64,0.9 1.74,1.05 0.2,0.44 0.85,3.03 2.74,10.71 1.59,-1.35 3.84,-1.55 4.83,-1.55 3.49,0 5.43,2.25 6.63,3.64 0.45,-2.24 2.29,-3.64 4.48,-3.64 1.74,0 2.89,1.15 3.69,2.74 0.84,1.79 1.49,4.83 1.49,4.94 0,0.49 -0.45,0.49 -0.59,0.49 -0.5,0 -0.55,-0.2 -0.7,-0.89 -0.85,-3.24 -1.75,-6.18 -3.79,-6.18 -1.34,0 -1.49,1.29 -1.49,2.29 0,1.09 0.6,3.44 0.99,5.18 l 1.4,5.38 c 0.15,0.75 0.65,2.64 0.85,3.39 0.25,1.14 0.74,3.03 0.74,3.34 0,0.89 -0.69,1.34 -1.44,1.34 -0.25,0 -1.55,-0.05 -1.94,-1.74 l -2.34,-9.32 c -0.6,-2.49 -1.15,-4.58 -1.3,-5.08 -0.05,-0.25 -2.44,-4.78 -6.48,-4.78 -2.49,0 -3.68,1.64 -3.68,4.33 0,1.45 0.35,2.84 0.69,4.24 z"
           id="path4500" /></g>    </g>
    <path
       style="fill:none;stroke:#ff0000;stroke-width:1px;stroke-linecap:butt;stroke-linejoin:miter;stroke-opacity:1;marker-end:url(#Arrow2Lend-1)"
       d="m 438.95909,274.13147 -1.62768,-5.29135"
       id="path12823"
       inkscape:connector-curvature="0" />
    <path
       style="fill:none;stroke:#ff0000;stroke-width:1px;stroke-linecap:butt;stroke-linejoin:miter;stroke-opacity:1;marker-end:url(#Arrow2Lend-1)"
       d="m 257.22242,376.56166 1.26647,2.50941"
       id="path13009"
       inkscape:connector-curvature="0" />
  </g>
</svg>
