<?xml version="1.0" encoding="UTF-8" standalone="no"?>
<!-- Created with Inkscape (http://www.inkscape.org/) -->

<svg
   xmlns:dc="http://purl.org/dc/elements/1.1/"
   xmlns:cc="http://creativecommons.org/ns#"
   xmlns:rdf="http://www.w3.org/1999/02/22-rdf-syntax-ns#"
   xmlns:svg="http://www.w3.org/2000/svg"
   xmlns="http://www.w3.org/2000/svg"
   xmlns:sodipodi="http://sodipodi.sourceforge.net/DTD/sodipodi-0.dtd"
   xmlns:inkscape="http://www.inkscape.org/namespaces/inkscape"
   width="210mm"
   height="297mm"
   id="svg2"
   version="1.1"
   inkscape:version="0.48.4 r9939"
   sodipodi:docname="heterokline_orbits.svg">
  <sodipodi:namedview
     id="base"
     pagecolor="#ffffff"
     bordercolor="#666666"
     borderopacity="1.0"
     inkscape:pageopacity="0.0"
     inkscape:pageshadow="2"
     inkscape:zoom="2.8"
     inkscape:cx="114.82988"
     inkscape:cy="789.71414"
     inkscape:document-units="px"
     inkscape:current-layer="layer1"
     showgrid="false"
     inkscape:snap-bbox="true"
     inkscape:bbox-paths="true"
     inkscape:snap-bbox-edge-midpoints="true"
     inkscape:bbox-nodes="true"
     inkscape:snap-bbox-midpoints="true"
     inkscape:object-paths="true"
     inkscape:snap-intersection-paths="true"
     inkscape:object-nodes="true"
     inkscape:snap-smooth-nodes="true"
     inkscape:snap-midpoints="true"
     inkscape:snap-object-midpoints="true"
     inkscape:snap-center="true"
     inkscape:window-width="1920"
     inkscape:window-height="1138"
     inkscape:window-x="-8"
     inkscape:window-y="-8"
     inkscape:window-maximized="1"
     inkscape:snap-global="true" />
  <defs
     id="defs4">
    <marker
       inkscape:stockid="Arrow2Lend"
       orient="auto"
       refY="0.0"
       refX="0.0"
       id="Arrow2Lend"
       style="overflow:visible;">
      <path
         id="path4204"
         style="fill-rule:evenodd;stroke-width:0.62500000;stroke-linejoin:round;"
         d="M 8.7185878,4.0337352 L -2.2072895,0.016013256 L 8.7185884,-4.0017078 C 6.9730900,-1.6296469 6.9831476,1.6157441 8.7185878,4.0337352 z "
         transform="scale(1.1) rotate(180) translate(1,0)" />
    </marker>
  </defs>
  <metadata
     id="metadata7">
    <rdf:RDF>
      <cc:Work
         rdf:about="">
        <dc:format>image/svg+xml</dc:format>
        <dc:type
           rdf:resource="http://purl.org/dc/dcmitype/StillImage" />
        <dc:title />
      </cc:Work>
    </rdf:RDF>
  </metadata>
  <g
     inkscape:label="Ebene 1"
     inkscape:groupmode="layer"
     id="layer1">
    <path
       sodipodi:type="star"
       style="fill:#000000;fill-opacity:1;stroke:none"
       id="path2985"
       sodipodi:sides="200"
       sodipodi:cx="254.28571"
       sodipodi:cy="319.50504"
       sodipodi:r1="2.2868302"
       sodipodi:r2="17.200155"
       sodipodi:arg1="0.89605541"
       sodipodi:arg2="0.91176337"
       inkscape:flatsided="true"
       inkscape:rounded="0"
       inkscape:randomized="0.0005"
       d="m 255.71662,321.29853 -0.054,0.0373 -0.0581,0.0423 -0.0604,0.0474 -0.0625,0.0323 -0.0646,0.0373 -0.0676,0.0294 -0.0515,0.0423 -0.0715,0.021 -0.0724,0.0319 -0.0589,0.018 -0.076,0.0368 -0.0604,0.0214 -0.0629,0.0182 -0.0798,0.0183 -0.0744,0.006 -0.0645,0.014 -0.0667,0.009 -0.0833,0.009 -0.0673,0.014 -0.0666,0.014 -0.0685,-0.01 -0.0771,0.001 -0.0676,0.003 -0.0675,-0.005 -0.0845,-0.0128 -0.067,2.6e-4 -0.0649,-0.0109 -0.0826,-0.0234 -0.064,-0.006 -0.073,-0.0197 -0.062,-0.0289 -0.0785,-0.0162 -0.0587,-0.0249 -0.0751,-0.0332 -0.0561,-0.0307 -0.0715,-0.0272 -0.0686,-0.0205 -0.0504,-0.0401 -0.0646,-0.0334 -0.0625,-0.0469 -0.0594,-0.0363 -0.0572,-0.0363 -0.0549,-0.0493 -0.0516,-0.0562 -0.0664,-0.0362 -0.0536,-0.0527 -0.0424,-0.0482 -0.0571,-0.0476 -0.0363,-0.0676 -0.05,-0.057 -0.036,-0.0492 -0.0427,-0.051 -0.039,-0.0746 -0.0421,-0.046 -0.0487,-0.0681 -0.0354,-0.0627 -0.0238,-0.0596 -0.0267,-0.0632 -0.0314,-0.0693 -0.0361,-0.0719 -0.0244,-0.0662 -0.01,-0.0715 -0.0223,-0.0694 -0.0114,-0.068 -0.0311,-0.0685 -0.009,-0.067 -0.006,-0.0804 -0.0182,-0.0722 0.004,-0.0663 -0.008,-0.0613 0.003,-0.0786 4e-5,-0.066 -0.003,-0.082 0.009,-0.0606 -0.004,-0.0751 0.0183,-0.0687 0.006,-0.0785 0.008,-0.0781 0.0315,-0.0612 0.0124,-0.0726 0.0224,-0.0589 0.0101,-0.0707 0.0245,-0.0708 0.0362,-0.0754 0.0315,-0.0568 0.0278,-0.0668 0.023,-0.0648 0.0364,-0.0705 0.0478,-0.0596 0.0363,-0.0591 0.0287,-0.0635 0.0428,-0.0462 0.0474,-0.0688 0.0569,-0.0524 0.0364,-0.0555 0.0572,-0.0477 0.0425,-0.0535 0.0527,-0.0495 0.0665,-0.049 0.0517,-0.0317 0.0549,-0.0466 0.0581,-0.0438 0.0604,-0.0459 0.0616,-0.0402 0.0646,-0.0354 0.0504,-0.0333 0.0687,-0.0251 0.0725,-0.0284 0.0552,-0.03 0.0752,-0.0259 0.0587,-0.0387 0.0785,-0.0149 0.062,-0.0228 0.073,-0.006 0.064,-0.0215 0.0826,-0.021 0.0658,-6e-5 0.0671,-0.02 0.0664,-0.003 0.0847,-0.006 0.0608,-0.001 0.0839,5e-5 0.0685,0.009 0.0665,-0.005 0.0682,0.0188 0.0671,0.004 0.0821,0.008 0.0758,0.0235 0.0631,0.015 0.0644,0.003 0.0782,0.0367 0.0604,0.01 0.0769,0.0348 0.0579,0.0141 0.0724,0.0381 0.0543,0.0272 0.0686,0.0396 0.0676,0.0229 0.0646,0.0334 0.0625,0.0469 0.0603,0.0447 0.0572,0.0359 0.054,0.0414 0.0525,0.0469 0.0483,0.0459 0.064,0.0509 0.0502,0.0575 0.0389,0.055 0.0501,0.0413 0.05,0.057 0.0369,0.0557 0.0427,0.0701 0.0381,0.0475 0.0439,0.0634 0.0305,0.0583 0.0345,0.0719 0.041,0.06 0.0267,0.0651 0.0323,0.0753 0.0189,0.0543 0.0235,0.0793 0.0281,0.0623 0.0223,0.0656 0.0105,0.0811 0.0142,0.054 0.0273,0.0787 0.006,0.0766 9e-5,0.0647 0.006,0.0664 0.008,0.0785 0.005,0.0726 -9.7e-4,0.0715 -0.004,0.0673 -0.009,0.074 -0.006,0.0769 -2e-4,0.0609 -0.005,0.0692 -0.0274,0.0794 -0.0146,0.0718 -0.0115,0.0633 -0.0224,0.078 -0.0282,0.0609 -0.0236,0.0772 -0.019,0.0582 -0.0324,0.0679 -0.0278,0.0645 -0.0402,0.0648 -0.0355,0.0613 -0.0306,0.0615 -0.044,0.0671 -0.0391,0.0462 -0.0419,0.0713 -0.037,0.0498 -0.05,0.0575 -0.0501,0.0455 -0.039,0.0575 -0.0502,0.0442 -0.0641,0.0605 -0.0483,0.0374 z"
       inkscape:transform-center-x="0.0024241464"
       inkscape:transform-center-y="0.0011130073" />
    <path
       transform="translate(27.142026,94.997667)"
       sodipodi:type="star"
       style="fill:#000000;fill-opacity:1;stroke:none"
       id="path2985-7"
       sodipodi:sides="200"
       sodipodi:cx="254.28571"
       sodipodi:cy="319.50504"
       sodipodi:r1="2.2868302"
       sodipodi:r2="17.200155"
       sodipodi:arg1="0.89605541"
       sodipodi:arg2="0.91176337"
       inkscape:flatsided="true"
       inkscape:rounded="0"
       inkscape:randomized="0.0005"
       d="m 255.71662,321.29853 -0.054,0.0373 -0.0581,0.0423 -0.0604,0.0474 -0.0625,0.0323 -0.0646,0.0373 -0.0676,0.0294 -0.0515,0.0423 -0.0715,0.021 -0.0724,0.0319 -0.0589,0.018 -0.076,0.0368 -0.0604,0.0214 -0.0629,0.0182 -0.0798,0.0183 -0.0744,0.006 -0.0645,0.014 -0.0667,0.009 -0.0833,0.009 -0.0673,0.014 -0.0666,0.014 -0.0685,-0.01 -0.0771,0.001 -0.0676,0.003 -0.0675,-0.005 -0.0845,-0.0128 -0.067,2.6e-4 -0.0649,-0.0109 -0.0826,-0.0234 -0.064,-0.006 -0.073,-0.0197 -0.062,-0.0289 -0.0785,-0.0162 -0.0587,-0.0249 -0.0751,-0.0332 -0.0561,-0.0307 -0.0715,-0.0272 -0.0686,-0.0205 -0.0504,-0.0401 -0.0646,-0.0334 -0.0625,-0.0469 -0.0594,-0.0363 -0.0572,-0.0363 -0.0549,-0.0493 -0.0516,-0.0562 -0.0664,-0.0362 -0.0536,-0.0527 -0.0424,-0.0482 -0.0571,-0.0476 -0.0363,-0.0676 -0.05,-0.057 -0.036,-0.0492 -0.0427,-0.051 -0.039,-0.0746 -0.0421,-0.046 -0.0487,-0.0681 -0.0354,-0.0627 -0.0238,-0.0596 -0.0267,-0.0632 -0.0314,-0.0693 -0.0361,-0.0719 -0.0244,-0.0662 -0.01,-0.0715 -0.0223,-0.0694 -0.0114,-0.068 -0.0311,-0.0685 -0.009,-0.067 -0.006,-0.0804 -0.0182,-0.0722 0.004,-0.0663 -0.008,-0.0613 0.003,-0.0786 4e-5,-0.066 -0.003,-0.082 0.009,-0.0606 -0.004,-0.0751 0.0183,-0.0687 0.006,-0.0785 0.008,-0.0781 0.0315,-0.0612 0.0124,-0.0726 0.0224,-0.0589 0.0101,-0.0707 0.0245,-0.0708 0.0362,-0.0754 0.0315,-0.0568 0.0278,-0.0668 0.023,-0.0648 0.0364,-0.0705 0.0478,-0.0596 0.0363,-0.0591 0.0287,-0.0635 0.0428,-0.0462 0.0474,-0.0688 0.0569,-0.0524 0.0364,-0.0555 0.0572,-0.0477 0.0425,-0.0535 0.0527,-0.0495 0.0665,-0.049 0.0517,-0.0317 0.0549,-0.0466 0.0581,-0.0438 0.0604,-0.0459 0.0616,-0.0402 0.0646,-0.0354 0.0504,-0.0333 0.0687,-0.0251 0.0725,-0.0284 0.0552,-0.03 0.0752,-0.0259 0.0587,-0.0387 0.0785,-0.0149 0.062,-0.0228 0.073,-0.006 0.064,-0.0215 0.0826,-0.021 0.0658,-6e-5 0.0671,-0.02 0.0664,-0.003 0.0847,-0.006 0.0608,-0.001 0.0839,5e-5 0.0685,0.009 0.0665,-0.005 0.0682,0.0188 0.0671,0.004 0.0821,0.008 0.0758,0.0235 0.0631,0.015 0.0644,0.003 0.0782,0.0367 0.0604,0.01 0.0769,0.0348 0.0579,0.0141 0.0724,0.0381 0.0543,0.0272 0.0686,0.0396 0.0676,0.0229 0.0646,0.0334 0.0625,0.0469 0.0603,0.0447 0.0572,0.0359 0.054,0.0414 0.0525,0.0469 0.0483,0.0459 0.064,0.0509 0.0502,0.0575 0.0389,0.055 0.0501,0.0413 0.05,0.057 0.0369,0.0557 0.0427,0.0701 0.0381,0.0475 0.0439,0.0634 0.0305,0.0583 0.0345,0.0719 0.041,0.06 0.0267,0.0651 0.0323,0.0753 0.0189,0.0543 0.0235,0.0793 0.0281,0.0623 0.0223,0.0656 0.0105,0.0811 0.0142,0.054 0.0273,0.0787 0.006,0.0766 9e-5,0.0647 0.006,0.0664 0.008,0.0785 0.005,0.0726 -9.7e-4,0.0715 -0.004,0.0673 -0.009,0.074 -0.006,0.0769 -2e-4,0.0609 -0.005,0.0692 -0.0274,0.0794 -0.0146,0.0718 -0.0115,0.0633 -0.0224,0.078 -0.0282,0.0609 -0.0236,0.0772 -0.019,0.0582 -0.0324,0.0679 -0.0278,0.0645 -0.0402,0.0648 -0.0355,0.0613 -0.0306,0.0615 -0.044,0.0671 -0.0391,0.0462 -0.0419,0.0713 -0.037,0.0498 -0.05,0.0575 -0.0501,0.0455 -0.039,0.0575 -0.0502,0.0442 -0.0641,0.0605 -0.0483,0.0374 z"
       inkscape:transform-center-x="0.0024241464"
       inkscape:transform-center-y="0.0011130073" />
    <path
       style="fill:none;stroke:#000000;stroke-width:1px;stroke-linecap:butt;stroke-linejoin:miter;stroke-opacity:1"
       d="m 254.28571,319.50504 c 0,0 36.64056,16.21423 42.49916,33.21195 6.91531,20.06357 -15.35714,61.78571 -15.35714,61.78571"
       id="path3780"
       inkscape:connector-curvature="0"
       sodipodi:nodetypes="csc" />
    <g
       transform="matrix(0.50532181,0,0,0.50532181,89.826467,128.5686)"
       id="g3791">
      <g
         style="font-style:normal;font-variant:normal;font-weight:normal;font-stretch:normal;letter-spacing:normal;word-spacing:normal;text-anchor:start;fill:none;stroke:#000000;stroke-linecap:butt;stroke-linejoin:miter;stroke-miterlimit:10.43299961;stroke-opacity:1;stroke-dasharray:none;stroke-dashoffset:0"
         id="content"
         transform="matrix(1.0629921,0,0,-1.0629921,-186.02362,789.27165)"
         xml:space="preserve"
         stroke-miterlimit="10.433"
         font-style="normal"
         font-variant="normal"
         font-weight="normal"
         font-stretch="normal"
         font-size-adjust="none"
         letter-spacing="normal"
         word-spacing="normal"><path
           style="fill:#000000;stroke-width:0"
           inkscape:connector-curvature="0"
           d="m 472.64,421.04 0.03,0.13 0.03,0.15 0.05,0.17 0.04,0.18 0.06,0.19 0.06,0.21 0.06,0.21 0.07,0.23 0.08,0.23 0.09,0.24 0.1,0.25 0.1,0.24 0.11,0.25 0.12,0.25 0.13,0.25 0.14,0.25 0.15,0.24 0.15,0.24 0.17,0.23 0.18,0.22 0.18,0.22 0.2,0.2 0.21,0.19 0.22,0.18 0.23,0.16 0.25,0.14 0.12,0.07 0.13,0.06 0.13,0.05 0.14,0.05 0.14,0.05 0.14,0.04 0.14,0.03 0.15,0.03 0.15,0.02 0.16,0.02 0.16,0.01 0.16,0 c 0.25,0 1.45,0 2.49,-0.65 -1.4,-0.25 -2.39,-1.49 -2.39,-2.68 0,-0.8 0.54,-1.75 1.89,-1.75 1.1,0 2.69,0.9 2.69,2.89 0,2.59 -2.94,3.29 -4.63,3.29 -2.89,0 -4.64,-2.64 -5.23,-3.79 -1.25,3.29 -3.94,3.79 -5.38,3.79 -5.18,0 -8.02,-6.43 -8.02,-7.67 0,-0.5 0.5,-0.5 0.6,-0.5 0.39,0 0.54,0.1 0.64,0.54 1.7,5.29 4.98,6.53 6.68,6.53 0.95,0 2.69,-0.45 2.69,-3.33 0,-1.55 -0.85,-4.89 -2.69,-11.86 -0.8,-3.09 -2.54,-5.18 -4.73,-5.18 -0.3,0 -1.45,0 -2.49,0.65 1.24,0.25 2.34,1.29 2.34,2.69 0,1.34 -1.1,1.74 -1.85,1.74 -1.49,0 -2.73,-1.3 -2.73,-2.89 0,-2.29 2.48,-3.29 4.68,-3.29 3.28,0 5.08,3.49 5.23,3.79 0.6,-1.85 2.39,-3.79 5.38,-3.79 5.13,0 7.97,6.43 7.97,7.68 0,0.49 -0.45,0.49 -0.6,0.49 -0.45,0 -0.55,-0.2 -0.65,-0.55 -1.64,-5.33 -5.03,-6.52 -6.62,-6.52 -1.95,0 -2.74,1.59 -2.74,3.29 0,1.09 0.29,2.19 0.85,4.38 z"
           id="path3794" /><path
           style="fill:#000000;stroke-width:0"
           inkscape:connector-curvature="0"
           d="m 495.68,446.18 0,0.04 0,0.04 0,0.04 0,0.04 0,0.04 0,0.04 0,0.03 0,0.04 -0.01,0.03 0,0.03 0,0.04 0,0.03 -0.01,0.02 0,0.03 0,0.03 -0.01,0.03 0,0.02 0,0.02 -0.02,0.05 -0.01,0.04 -0.01,0.04 -0.02,0.03 -0.02,0.03 -0.02,0.03 -0.03,0.03 -0.02,0.02 -0.03,0.02 -0.04,0.02 -0.03,0.01 -0.04,0.01 -0.05,0.02 -0.05,0 -0.02,0.01 -0.03,0 -0.03,0.01 -0.02,0 -0.03,0 -0.03,0 -0.04,0 -0.03,0.01 -0.03,0 -0.04,0 -0.03,0 -0.04,0 -0.04,0 -0.04,0 -0.04,0 -0.04,0 -0.05,0 -0.04,0 c -2.24,-2.19 -5.41,-2.23 -6.84,-2.23 v -1.25 c 0.84,0 3.14,0 5.06,0.97 v -17.78 c 0,-1.15 0,-1.61 -3.49,-1.61 h -1.33 V 424 h 12.45 v 1.25 h -1.32 c -3.49,0 -3.49,0.46 -3.49,1.61 z"
           id="path3796" /><path
           style="fill:#000000;stroke-width:0"
           inkscape:connector-curvature="0"
           d="m 513.4,416.06 -0.01,0.02 0,0.01 0,0.02 0,0.02 0,0.02 -0.01,0.02 0,0.01 -0.01,0.02 0,0.02 -0.01,0.02 -0.01,0.02 -0.01,0.02 -0.01,0.02 -0.01,0.02 -0.01,0.01 -0.01,0.02 -0.02,0.02 -0.01,0.01 -0.02,0.02 -0.01,0.01 -0.02,0.02 -0.02,0.01 -0.02,0.01 -0.02,0.02 -0.02,0.01 -0.03,0.01 -0.02,0 -0.03,0.01 -0.01,0 -0.02,0 -0.01,0.01 -0.02,0 -0.01,0 -0.02,0 -0.01,0 -0.02,0 c -0.24,0 -0.31,-0.07 -0.63,-0.42 l -2.54,-2.68 c -0.32,0.42 -2.27,3.1 -6.56,3.1 -8.47,0 -16.77,-7.49 -16.77,-15.37 0,-5.41 4.11,-9.84 10.81,-9.84 3.07,0 6.31,0.81 8.13,2.76 0.34,-0.77 1.28,-2.02 1.7,-2.02 0.32,0 0.39,0.14 0.56,0.87 l 0.66,2.68 c 0.18,0.63 0.66,2.72 0.77,3.14 0.42,1.57 0.45,1.6 2.51,1.64 0.24,0 0.77,0 0.77,0.73 0,0.35 -0.25,0.53 -0.53,0.53 h -9.48 c -0.24,0 -0.77,0 -0.77,-0.77 0,-0.49 0.39,-0.49 1.26,-0.49 0.66,0 1.36,0 2.02,-0.07 1.12,-0.1 1.15,-0.25 1.15,-0.66 0,-0.14 0,-0.21 -0.24,-1.12 -0.24,-0.98 -0.63,-2.54 -0.77,-2.89 -1.01,-2.13 -4.25,-3.07 -6.97,-3.07 -3.49,0 -8.06,1.67 -8.06,7.57 0,3.73 1.75,8.4 4.33,11.01 3.59,3.56 7.32,4.12 9.27,4.12 4.05,0 6.42,-2.93 6.42,-6.84 0,-0.97 -0.11,-1.22 -0.11,-1.43 0,-0.45 0.46,-0.45 0.63,-0.45 0.56,0 0.56,0.1 0.73,0.77 z"
           id="path3798" /></g>    </g>
    <g
       id="g3826"
       transform="matrix(0.50532179,0,0,0.50532179,132.70965,246.71889)">
      <g
         word-spacing="normal"
         letter-spacing="normal"
         font-size-adjust="none"
         font-stretch="normal"
         font-weight="normal"
         font-variant="normal"
         font-style="normal"
         stroke-miterlimit="10.433"
         xml:space="preserve"
         transform="matrix(1.0629921,0,0,-1.0629921,-186.02362,789.27165)"
         id="g3828"
         style="font-style:normal;font-variant:normal;font-weight:normal;font-stretch:normal;letter-spacing:normal;word-spacing:normal;text-anchor:start;fill:none;stroke:#000000;stroke-linecap:butt;stroke-linejoin:miter;stroke-miterlimit:10.43299961;stroke-opacity:1;stroke-dasharray:none;stroke-dashoffset:0"><path
           id="path3830"
           d="m 472.64,421.04 0.03,0.13 0.03,0.15 0.05,0.17 0.04,0.18 0.06,0.19 0.06,0.21 0.06,0.21 0.07,0.23 0.08,0.23 0.09,0.24 0.1,0.25 0.1,0.24 0.11,0.25 0.12,0.25 0.13,0.25 0.14,0.25 0.15,0.24 0.15,0.24 0.17,0.23 0.18,0.22 0.18,0.22 0.2,0.2 0.21,0.19 0.22,0.18 0.23,0.16 0.25,0.14 0.12,0.07 0.13,0.06 0.13,0.05 0.14,0.05 0.14,0.05 0.14,0.04 0.14,0.03 0.15,0.03 0.15,0.02 0.16,0.02 0.16,0.01 0.16,0 c 0.25,0 1.45,0 2.49,-0.65 -1.4,-0.25 -2.39,-1.49 -2.39,-2.68 0,-0.8 0.54,-1.75 1.89,-1.75 1.1,0 2.69,0.9 2.69,2.89 0,2.59 -2.94,3.29 -4.63,3.29 -2.89,0 -4.64,-2.64 -5.23,-3.79 -1.25,3.29 -3.94,3.79 -5.38,3.79 -5.18,0 -8.02,-6.43 -8.02,-7.67 0,-0.5 0.5,-0.5 0.6,-0.5 0.39,0 0.54,0.1 0.64,0.54 1.7,5.29 4.98,6.53 6.68,6.53 0.95,0 2.69,-0.45 2.69,-3.33 0,-1.55 -0.85,-4.89 -2.69,-11.86 -0.8,-3.09 -2.54,-5.18 -4.73,-5.18 -0.3,0 -1.45,0 -2.49,0.65 1.24,0.25 2.34,1.29 2.34,2.69 0,1.34 -1.1,1.74 -1.85,1.74 -1.49,0 -2.73,-1.3 -2.73,-2.89 0,-2.29 2.48,-3.29 4.68,-3.29 3.28,0 5.08,3.49 5.23,3.79 0.6,-1.85 2.39,-3.79 5.38,-3.79 5.13,0 7.97,6.43 7.97,7.68 0,0.49 -0.45,0.49 -0.6,0.49 -0.45,0 -0.55,-0.2 -0.65,-0.55 -1.64,-5.33 -5.03,-6.52 -6.62,-6.52 -1.95,0 -2.74,1.59 -2.74,3.29 0,1.09 0.29,2.19 0.85,4.38 z"
           inkscape:connector-curvature="0"
           style="fill:#000000;stroke-width:0" /><path
           id="path3832"
           d="m 501.61,430.35 h -1.19 c -0.1,-0.77 -0.45,-2.83 -0.9,-3.18 -0.28,-0.21 -2.97,-0.21 -3.45,-0.21 h -6.42 c 3.66,3.25 4.88,4.22 6.97,5.86 2.58,2.06 4.99,4.22 4.99,7.54 0,4.21 -3.7,6.79 -8.16,6.79 -4.32,0 -7.25,-3.03 -7.25,-6.24 0,-1.78 1.5,-1.95 1.84,-1.95 0.84,0 1.85,0.59 1.85,1.85 0,0.62 -0.24,1.85 -2.05,1.85 1.08,2.47 3.45,3.24 5.09,3.24 3.48,0 5.3,-2.72 5.3,-5.54 0,-3.04 -2.16,-5.45 -3.28,-6.7 l -8.4,-8.3 c -0.35,-0.31 -0.35,-0.38 -0.35,-1.36 h 14.36 z"
           inkscape:connector-curvature="0"
           style="fill:#000000;stroke-width:0" /><path
           id="path3834"
           d="m 513.4,416.06 -0.01,0.02 0,0.01 0,0.02 0,0.02 0,0.02 -0.01,0.02 0,0.01 -0.01,0.02 0,0.02 -0.01,0.02 -0.01,0.02 -0.01,0.02 -0.01,0.02 -0.01,0.02 -0.01,0.01 -0.01,0.02 -0.02,0.02 -0.01,0.01 -0.02,0.02 -0.01,0.01 -0.02,0.02 -0.02,0.01 -0.02,0.01 -0.02,0.02 -0.02,0.01 -0.03,0.01 -0.02,0 -0.03,0.01 -0.01,0 -0.02,0 -0.01,0.01 -0.02,0 -0.01,0 -0.02,0 -0.01,0 -0.02,0 c -0.24,0 -0.31,-0.07 -0.63,-0.42 l -2.54,-2.68 c -0.32,0.42 -2.27,3.1 -6.56,3.1 -8.47,0 -16.77,-7.49 -16.77,-15.37 0,-5.41 4.11,-9.84 10.81,-9.84 3.07,0 6.31,0.81 8.13,2.76 0.34,-0.77 1.28,-2.02 1.7,-2.02 0.32,0 0.39,0.14 0.56,0.87 l 0.66,2.68 c 0.18,0.63 0.66,2.72 0.77,3.14 0.42,1.57 0.45,1.6 2.51,1.64 0.24,0 0.77,0 0.77,0.73 0,0.35 -0.25,0.53 -0.53,0.53 h -9.48 c -0.24,0 -0.77,0 -0.77,-0.77 0,-0.49 0.39,-0.49 1.26,-0.49 0.66,0 1.36,0 2.02,-0.07 1.12,-0.1 1.15,-0.25 1.15,-0.66 0,-0.14 0,-0.21 -0.24,-1.12 -0.24,-0.98 -0.63,-2.54 -0.77,-2.89 -1.01,-2.13 -4.25,-3.07 -6.97,-3.07 -3.49,0 -8.06,1.67 -8.06,7.57 0,3.73 1.75,8.4 4.33,11.01 3.59,3.56 7.32,4.12 9.27,4.12 4.05,0 6.42,-2.93 6.42,-6.84 0,-0.97 -0.11,-1.22 -0.11,-1.43 0,-0.45 0.46,-0.45 0.63,-0.45 0.56,0 0.56,0.1 0.73,0.77 z"
           inkscape:connector-curvature="0"
           style="fill:#000000;stroke-width:0" /></g>    </g>
    <g
       transform="matrix(0.50532179,0,0,0.50532179,-19.415408,281.00461)"
       id="g3872">
      <g
         style="font-style:normal;font-variant:normal;font-weight:normal;font-stretch:normal;letter-spacing:normal;word-spacing:normal;text-anchor:start;fill:none;stroke:#000000;stroke-linecap:butt;stroke-linejoin:miter;stroke-miterlimit:10.43299961;stroke-opacity:1;stroke-dasharray:none;stroke-dashoffset:0"
         id="g3874"
         transform="matrix(1.0629921,0,0,-1.0629921,-186.02362,789.27165)"
         xml:space="preserve"
         stroke-miterlimit="10.433"
         font-style="normal"
         font-variant="normal"
         font-weight="normal"
         font-stretch="normal"
         font-size-adjust="none"
         letter-spacing="normal"
         word-spacing="normal"><path
           style="fill:#000000;stroke-width:0"
           inkscape:connector-curvature="0"
           d="m 472.64,421.04 0.03,0.13 0.03,0.15 0.05,0.17 0.04,0.18 0.06,0.19 0.06,0.21 0.06,0.21 0.07,0.23 0.08,0.23 0.09,0.24 0.1,0.25 0.1,0.24 0.11,0.25 0.12,0.25 0.13,0.25 0.14,0.25 0.15,0.24 0.15,0.24 0.17,0.23 0.18,0.22 0.18,0.22 0.2,0.2 0.21,0.19 0.22,0.18 0.23,0.16 0.25,0.14 0.12,0.07 0.13,0.06 0.13,0.05 0.14,0.05 0.14,0.05 0.14,0.04 0.14,0.03 0.15,0.03 0.15,0.02 0.16,0.02 0.16,0.01 0.16,0 c 0.25,0 1.45,0 2.49,-0.65 -1.4,-0.25 -2.39,-1.49 -2.39,-2.68 0,-0.8 0.54,-1.75 1.89,-1.75 1.1,0 2.69,0.9 2.69,2.89 0,2.59 -2.94,3.29 -4.63,3.29 -2.89,0 -4.64,-2.64 -5.23,-3.79 -1.25,3.29 -3.94,3.79 -5.38,3.79 -5.18,0 -8.02,-6.43 -8.02,-7.67 0,-0.5 0.5,-0.5 0.6,-0.5 0.39,0 0.54,0.1 0.64,0.54 1.7,5.29 4.98,6.53 6.68,6.53 0.95,0 2.69,-0.45 2.69,-3.33 0,-1.55 -0.85,-4.89 -2.69,-11.86 -0.8,-3.09 -2.54,-5.18 -4.73,-5.18 -0.3,0 -1.45,0 -2.49,0.65 1.24,0.25 2.34,1.29 2.34,2.69 0,1.34 -1.1,1.74 -1.85,1.74 -1.49,0 -2.73,-1.3 -2.73,-2.89 0,-2.29 2.48,-3.29 4.68,-3.29 3.28,0 5.08,3.49 5.23,3.79 0.6,-1.85 2.39,-3.79 5.38,-3.79 5.13,0 7.97,6.43 7.97,7.68 0,0.49 -0.45,0.49 -0.6,0.49 -0.45,0 -0.55,-0.2 -0.65,-0.55 -1.64,-5.33 -5.03,-6.52 -6.62,-6.52 -1.95,0 -2.74,1.59 -2.74,3.29 0,1.09 0.29,2.19 0.85,4.38 z"
           id="path3876" /><path
           style="fill:#000000;stroke-width:0"
           inkscape:connector-curvature="0"
           d="m 493.52,435.64 0.25,0 0.25,-0.02 0.24,-0.02 0.24,-0.04 0.23,-0.05 0.23,-0.06 0.22,-0.07 0.22,-0.09 0.21,-0.09 0.2,-0.11 0.19,-0.11 0.19,-0.13 0.18,-0.13 0.18,-0.15 0.17,-0.16 0.15,-0.17 0.16,-0.18 0.14,-0.2 0.13,-0.2 0.13,-0.21 0.12,-0.23 0.11,-0.23 0.09,-0.25 0.09,-0.26 0.08,-0.27 0.07,-0.28 0.06,-0.29 0.05,-0.3 0.04,-0.31 0.03,-0.32 0.02,-0.33 0,-0.35 c 0,-4.32 -2.51,-5.61 -4.53,-5.61 -1.39,0 -4.46,0.38 -5.93,2.44 1.64,0.07 2.02,1.22 2.02,1.95 0,1.12 -0.83,1.92 -1.91,1.92 -0.98,0 -1.96,-0.59 -1.96,-2.02 0,-3.28 3.63,-5.41 7.85,-5.41 4.84,0 8.19,3.25 8.19,6.73 0,2.72 -2.23,5.44 -6.06,6.24 3.66,1.33 4.98,3.94 4.98,6.07 0,2.76 -3.17,4.81 -7.04,4.81 -3.87,0 -6.84,-1.88 -6.84,-4.67 0,-1.18 0.77,-1.85 1.82,-1.85 1.08,0 1.77,0.8 1.77,1.78 0,1.01 -0.69,1.75 -1.77,1.81 1.22,1.54 3.62,1.92 4.92,1.92 1.56,0 3.76,-0.76 3.76,-3.8 0,-1.46 -0.49,-3.07 -1.39,-4.15 -1.16,-1.32 -2.13,-1.39 -3.87,-1.5 -0.88,-0.07 -0.95,-0.07 -1.12,-0.1 -0.07,0 -0.35,-0.07 -0.35,-0.46 0,-0.49 0.31,-0.49 0.91,-0.49 z"
           id="path3878" /><path
           style="fill:#000000;stroke-width:0"
           inkscape:connector-curvature="0"
           d="m 513.4,416.06 -0.01,0.02 0,0.01 0,0.02 0,0.02 0,0.02 -0.01,0.02 0,0.01 -0.01,0.02 0,0.02 -0.01,0.02 -0.01,0.02 -0.01,0.02 -0.01,0.02 -0.01,0.02 -0.01,0.01 -0.01,0.02 -0.02,0.02 -0.01,0.01 -0.02,0.02 -0.01,0.01 -0.02,0.02 -0.02,0.01 -0.02,0.01 -0.02,0.02 -0.02,0.01 -0.03,0.01 -0.02,0 -0.03,0.01 -0.01,0 -0.02,0 -0.01,0.01 -0.02,0 -0.01,0 -0.02,0 -0.01,0 -0.02,0 c -0.24,0 -0.31,-0.07 -0.63,-0.42 l -2.54,-2.68 c -0.32,0.42 -2.27,3.1 -6.56,3.1 -8.47,0 -16.77,-7.49 -16.77,-15.37 0,-5.41 4.11,-9.84 10.81,-9.84 3.07,0 6.31,0.81 8.13,2.76 0.34,-0.77 1.28,-2.02 1.7,-2.02 0.32,0 0.39,0.14 0.56,0.87 l 0.66,2.68 c 0.18,0.63 0.66,2.72 0.77,3.14 0.42,1.57 0.45,1.6 2.51,1.64 0.24,0 0.77,0 0.77,0.73 0,0.35 -0.25,0.53 -0.53,0.53 h -9.48 c -0.24,0 -0.77,0 -0.77,-0.77 0,-0.49 0.39,-0.49 1.26,-0.49 0.66,0 1.36,0 2.02,-0.07 1.12,-0.1 1.15,-0.25 1.15,-0.66 0,-0.14 0,-0.21 -0.24,-1.12 -0.24,-0.98 -0.63,-2.54 -0.77,-2.89 -1.01,-2.13 -4.25,-3.07 -6.97,-3.07 -3.49,0 -8.06,1.67 -8.06,7.57 0,3.73 1.75,8.4 4.33,11.01 3.59,3.56 7.32,4.12 9.27,4.12 4.05,0 6.42,-2.93 6.42,-6.84 0,-0.97 -0.11,-1.22 -0.11,-1.43 0,-0.45 0.46,-0.45 0.63,-0.45 0.56,0 0.56,0.1 0.73,0.77 z"
           id="path3880" /></g>    </g>
    <g
       id="g3928"
       transform="matrix(0.50850851,0,0,0.50850851,-93.304835,252.20249)"
       style="fill:#ff0000;fill-opacity:1">
      <g
         word-spacing="normal"
         letter-spacing="normal"
         font-size-adjust="none"
         font-stretch="normal"
         font-weight="normal"
         font-variant="normal"
         font-style="normal"
         stroke-miterlimit="10.433"
         xml:space="preserve"
         transform="matrix(1.0629921,0,0,-1.0629921,-191.64229,791.37865)"
         id="g3930"
         style="font-style:normal;font-variant:normal;font-weight:normal;font-stretch:normal;letter-spacing:normal;word-spacing:normal;text-anchor:start;fill:#ff0000;fill-opacity:1;stroke:#000000;stroke-linecap:butt;stroke-linejoin:miter;stroke-miterlimit:10.43299961;stroke-opacity:1;stroke-dasharray:none;stroke-dashoffset:0"><path
           id="path3932"
           d="m 472.64,421.04 0.03,0.13 0.03,0.15 0.05,0.17 0.04,0.18 0.06,0.19 0.06,0.21 0.06,0.21 0.07,0.23 0.08,0.23 0.09,0.24 0.1,0.25 0.1,0.24 0.11,0.25 0.12,0.25 0.13,0.25 0.14,0.25 0.15,0.24 0.15,0.24 0.17,0.23 0.18,0.22 0.18,0.22 0.2,0.2 0.21,0.19 0.22,0.18 0.23,0.16 0.25,0.14 0.12,0.07 0.13,0.06 0.13,0.05 0.14,0.05 0.14,0.05 0.14,0.04 0.14,0.03 0.15,0.03 0.15,0.02 0.16,0.02 0.16,0.01 0.16,0 c 0.25,0 1.45,0 2.49,-0.65 -1.4,-0.25 -2.39,-1.49 -2.39,-2.68 0,-0.8 0.54,-1.75 1.89,-1.75 1.1,0 2.69,0.9 2.69,2.89 0,2.59 -2.94,3.29 -4.63,3.29 -2.89,0 -4.64,-2.64 -5.23,-3.79 -1.25,3.29 -3.94,3.79 -5.38,3.79 -5.18,0 -8.02,-6.43 -8.02,-7.67 0,-0.5 0.5,-0.5 0.6,-0.5 0.39,0 0.54,0.1 0.64,0.54 1.7,5.29 4.98,6.53 6.68,6.53 0.95,0 2.69,-0.45 2.69,-3.33 0,-1.55 -0.85,-4.89 -2.69,-11.86 -0.8,-3.09 -2.54,-5.18 -4.73,-5.18 -0.3,0 -1.45,0 -2.49,0.65 1.24,0.25 2.34,1.29 2.34,2.69 0,1.34 -1.1,1.74 -1.85,1.74 -1.49,0 -2.73,-1.3 -2.73,-2.89 0,-2.29 2.48,-3.29 4.68,-3.29 3.28,0 5.08,3.49 5.23,3.79 0.6,-1.85 2.39,-3.79 5.38,-3.79 5.13,0 7.97,6.43 7.97,7.68 0,0.49 -0.45,0.49 -0.6,0.49 -0.45,0 -0.55,-0.2 -0.65,-0.55 -1.64,-5.33 -5.03,-6.52 -6.62,-6.52 -1.95,0 -2.74,1.59 -2.74,3.29 0,1.09 0.29,2.19 0.85,4.38 z"
           inkscape:connector-curvature="0"
           style="fill:#ff0000;fill-opacity:1;stroke-width:0" /><path
           id="path3934"
           d="m 493.52,435.64 0.25,0 0.25,-0.02 0.24,-0.02 0.24,-0.04 0.23,-0.05 0.23,-0.06 0.22,-0.07 0.22,-0.09 0.21,-0.09 0.2,-0.11 0.19,-0.11 0.19,-0.13 0.18,-0.13 0.18,-0.15 0.17,-0.16 0.15,-0.17 0.16,-0.18 0.14,-0.2 0.13,-0.2 0.13,-0.21 0.12,-0.23 0.11,-0.23 0.09,-0.25 0.09,-0.26 0.08,-0.27 0.07,-0.28 0.06,-0.29 0.05,-0.3 0.04,-0.31 0.03,-0.32 0.02,-0.33 0,-0.35 c 0,-4.32 -2.51,-5.61 -4.53,-5.61 -1.39,0 -4.46,0.38 -5.93,2.44 1.64,0.07 2.02,1.22 2.02,1.95 0,1.12 -0.83,1.92 -1.91,1.92 -0.98,0 -1.96,-0.59 -1.96,-2.02 0,-3.28 3.63,-5.41 7.85,-5.41 4.84,0 8.19,3.25 8.19,6.73 0,2.72 -2.23,5.44 -6.06,6.24 3.66,1.33 4.98,3.94 4.98,6.07 0,2.76 -3.17,4.81 -7.04,4.81 -3.87,0 -6.84,-1.88 -6.84,-4.67 0,-1.18 0.77,-1.85 1.82,-1.85 1.08,0 1.77,0.8 1.77,1.78 0,1.01 -0.69,1.75 -1.77,1.81 1.22,1.54 3.62,1.92 4.92,1.92 1.56,0 3.76,-0.76 3.76,-3.8 0,-1.46 -0.49,-3.07 -1.39,-4.15 -1.16,-1.32 -2.13,-1.39 -3.87,-1.5 -0.88,-0.07 -0.95,-0.07 -1.12,-0.1 -0.07,0 -0.35,-0.07 -0.35,-0.46 0,-0.49 0.31,-0.49 0.91,-0.49 z"
           inkscape:connector-curvature="0"
           style="fill:#ff0000;fill-opacity:1;stroke-width:0" /><path
           id="path3936"
           d="m 494.91,415.15 0.01,0.01 0,0 0,0 0,0.01 0,0.01 0.01,0 0,0.01 0,0 0,0.02 0.01,0.02 0.01,0.02 0,0.01 0.01,0.02 0,0.03 0.01,0.02 0,0.02 0.01,0.02 0.01,0.03 0.01,0.04 0.01,0.05 0,0.03 0.01,0.02 0,0.02 0.01,0.02 0,0.02 0.01,0.02 0,0.02 0,0.01 0.01,0.01 0,0.01 0,0 0,0.01 0,0.01 0,0 0,0.01 0,0 0,0 0,0.01 0,0 0,0 c 0,0.18 -0.14,0.49 -0.55,0.49 -0.7,0 -3.6,-0.28 -4.47,-0.35 -0.28,-0.03 -0.76,-0.07 -0.76,-0.8 0,-0.49 0.48,-0.49 0.9,-0.49 1.67,0 1.67,-0.24 1.67,-0.52 0,-0.25 -0.06,-0.46 -0.13,-0.77 l -4.92,-19.73 c -0.18,-0.63 -0.18,-0.7 -0.18,-0.77 0,-0.53 0.43,-1.12 1.19,-1.12 0.38,0 1.05,0.17 1.43,0.91 0.11,0.21 0.42,1.46 0.59,2.19 l 0.81,3.11 c 0.1,0.52 0.45,1.85 0.55,2.37 0.35,1.32 0.35,1.36 1.05,2.47 1.11,1.71 2.86,3.7 5.58,3.7 1.95,0 2.06,-1.6 2.06,-2.44 0,-2.09 -1.5,-5.96 -2.06,-7.43 -0.38,-0.97 -0.52,-1.29 -0.52,-1.88 0,-1.85 1.53,-3 3.31,-3 3.49,0 5.02,4.81 5.02,5.33 0,0.46 -0.46,0.46 -0.56,0.46 -0.49,0 -0.52,-0.21 -0.66,-0.59 -0.8,-2.79 -2.34,-4.22 -3.7,-4.22 -0.73,0 -0.87,0.49 -0.87,1.22 0,0.8 0.17,1.25 0.8,2.82 0.42,1.08 1.85,4.78 1.85,6.73 0,0.56 0,2.03 -1.29,3.04 -0.59,0.45 -1.6,0.94 -3.24,0.94 -2.55,0 -4.4,-1.4 -5.68,-2.9 z"
           inkscape:connector-curvature="0"
           style="fill:#ff0000;fill-opacity:1;stroke-width:0" /></g>    </g>
    <path
       transform="translate(-89.643687,117.85481)"
       sodipodi:type="star"
       style="fill:#000000;fill-opacity:1;stroke:none"
       id="path2985-4"
       sodipodi:sides="200"
       sodipodi:cx="254.28571"
       sodipodi:cy="319.50504"
       sodipodi:r1="2.2868302"
       sodipodi:r2="17.200155"
       sodipodi:arg1="0.89605541"
       sodipodi:arg2="0.91176337"
       inkscape:flatsided="true"
       inkscape:rounded="0"
       inkscape:randomized="0.0005"
       d="m 255.71662,321.29853 -0.054,0.0373 -0.0581,0.0423 -0.0604,0.0474 -0.0625,0.0323 -0.0646,0.0373 -0.0676,0.0294 -0.0515,0.0423 -0.0715,0.021 -0.0724,0.0319 -0.0589,0.018 -0.076,0.0368 -0.0604,0.0214 -0.0629,0.0182 -0.0798,0.0183 -0.0744,0.006 -0.0645,0.014 -0.0667,0.009 -0.0833,0.009 -0.0673,0.014 -0.0666,0.014 -0.0685,-0.01 -0.0771,0.001 -0.0676,0.003 -0.0675,-0.005 -0.0845,-0.0128 -0.067,2.6e-4 -0.0649,-0.0109 -0.0826,-0.0234 -0.064,-0.006 -0.073,-0.0197 -0.062,-0.0289 -0.0785,-0.0162 -0.0587,-0.0249 -0.0751,-0.0332 -0.0561,-0.0307 -0.0715,-0.0272 -0.0686,-0.0205 -0.0504,-0.0401 -0.0646,-0.0334 -0.0625,-0.0469 -0.0594,-0.0363 -0.0572,-0.0363 -0.0549,-0.0493 -0.0516,-0.0562 -0.0664,-0.0362 -0.0536,-0.0527 -0.0424,-0.0482 -0.0571,-0.0476 -0.0363,-0.0676 -0.05,-0.057 -0.036,-0.0492 -0.0427,-0.051 -0.039,-0.0746 -0.0421,-0.046 -0.0487,-0.0681 -0.0354,-0.0627 -0.0238,-0.0596 -0.0267,-0.0632 -0.0314,-0.0693 -0.0361,-0.0719 -0.0244,-0.0662 -0.01,-0.0715 -0.0223,-0.0694 -0.0114,-0.068 -0.0311,-0.0685 -0.009,-0.067 -0.006,-0.0804 -0.0182,-0.0722 0.004,-0.0663 -0.008,-0.0613 0.003,-0.0786 4e-5,-0.066 -0.003,-0.082 0.009,-0.0606 -0.004,-0.0751 0.0183,-0.0687 0.006,-0.0785 0.008,-0.0781 0.0315,-0.0612 0.0124,-0.0726 0.0224,-0.0589 0.0101,-0.0707 0.0245,-0.0708 0.0362,-0.0754 0.0315,-0.0568 0.0278,-0.0668 0.023,-0.0648 0.0364,-0.0705 0.0478,-0.0596 0.0363,-0.0591 0.0287,-0.0635 0.0428,-0.0462 0.0474,-0.0688 0.0569,-0.0524 0.0364,-0.0555 0.0572,-0.0477 0.0425,-0.0535 0.0527,-0.0495 0.0665,-0.049 0.0517,-0.0317 0.0549,-0.0466 0.0581,-0.0438 0.0604,-0.0459 0.0616,-0.0402 0.0646,-0.0354 0.0504,-0.0333 0.0687,-0.0251 0.0725,-0.0284 0.0552,-0.03 0.0752,-0.0259 0.0587,-0.0387 0.0785,-0.0149 0.062,-0.0228 0.073,-0.006 0.064,-0.0215 0.0826,-0.021 0.0658,-6e-5 0.0671,-0.02 0.0664,-0.003 0.0847,-0.006 0.0608,-0.001 0.0839,5e-5 0.0685,0.009 0.0665,-0.005 0.0682,0.0188 0.0671,0.004 0.0821,0.008 0.0758,0.0235 0.0631,0.015 0.0644,0.003 0.0782,0.0367 0.0604,0.01 0.0769,0.0348 0.0579,0.0141 0.0724,0.0381 0.0543,0.0272 0.0686,0.0396 0.0676,0.0229 0.0646,0.0334 0.0625,0.0469 0.0603,0.0447 0.0572,0.0359 0.054,0.0414 0.0525,0.0469 0.0483,0.0459 0.064,0.0509 0.0502,0.0575 0.0389,0.055 0.0501,0.0413 0.05,0.057 0.0369,0.0557 0.0427,0.0701 0.0381,0.0475 0.0439,0.0634 0.0305,0.0583 0.0345,0.0719 0.041,0.06 0.0267,0.0651 0.0323,0.0753 0.0189,0.0543 0.0235,0.0793 0.0281,0.0623 0.0223,0.0656 0.0105,0.0811 0.0142,0.054 0.0273,0.0787 0.006,0.0766 9e-5,0.0647 0.006,0.0664 0.008,0.0785 0.005,0.0726 -9.7e-4,0.0715 -0.004,0.0673 -0.009,0.074 -0.006,0.0769 -2e-4,0.0609 -0.005,0.0692 -0.0274,0.0794 -0.0146,0.0718 -0.0115,0.0633 -0.0224,0.078 -0.0282,0.0609 -0.0236,0.0772 -0.019,0.0582 -0.0324,0.0679 -0.0278,0.0645 -0.0402,0.0648 -0.0355,0.0613 -0.0306,0.0615 -0.044,0.0671 -0.0391,0.0462 -0.0419,0.0713 -0.037,0.0498 -0.05,0.0575 -0.0501,0.0455 -0.039,0.0575 -0.0502,0.0442 -0.0641,0.0605 -0.0483,0.0374 z"
       inkscape:transform-center-x="0.0024241464"
       inkscape:transform-center-y="0.0011130073" />
    <path
       style="fill:none;stroke:#000000;stroke-width:1px;stroke-linecap:butt;stroke-linejoin:miter;stroke-opacity:1"
       d="m 281.42773,414.5027 c 0,0 -42.04752,-7.32181 -62.5,-3.21428 -19.68014,3.95242 -54.28245,26.07265 -54.28245,26.07265"
       id="path3997"
       inkscape:connector-curvature="0"
       sodipodi:nodetypes="csc" />
    <g
       transform="matrix(0.58588794,0,0,0.58588794,36.771128,233.06481)"
       id="g4039"
       style="fill:#ff0000;fill-opacity:1">
      <g
         style="font-style:normal;font-variant:normal;font-weight:normal;font-stretch:normal;letter-spacing:normal;word-spacing:normal;text-anchor:start;fill:#ff0000;stroke:#000000;stroke-linecap:butt;stroke-linejoin:miter;stroke-miterlimit:10.43299961000000000;stroke-opacity:1;stroke-dasharray:none;stroke-dashoffset:0;fill-opacity:1"
         id="g4041"
         transform="matrix(1.0629921,0,0,-1.0629921,-186.02362,789.27165)"
         xml:space="preserve"
         stroke-miterlimit="10.433"
         font-style="normal"
         font-variant="normal"
         font-weight="normal"
         font-stretch="normal"
         font-size-adjust="none"
         letter-spacing="normal"
         word-spacing="normal"><path
           style="fill:#ff0000;stroke-width:0;fill-opacity:1"
           inkscape:connector-curvature="0"
           d="m 472.64,421.04 0.03,0.13 0.03,0.15 0.05,0.17 0.04,0.18 0.06,0.19 0.06,0.21 0.06,0.21 0.07,0.23 0.08,0.23 0.09,0.24 0.1,0.25 0.1,0.24 0.11,0.25 0.12,0.25 0.13,0.25 0.14,0.25 0.15,0.24 0.15,0.24 0.17,0.23 0.18,0.22 0.18,0.22 0.2,0.2 0.21,0.19 0.22,0.18 0.23,0.16 0.25,0.14 0.12,0.07 0.13,0.06 0.13,0.05 0.14,0.05 0.14,0.05 0.14,0.04 0.14,0.03 0.15,0.03 0.15,0.02 0.16,0.02 0.16,0.01 0.16,0 c 0.25,0 1.45,0 2.49,-0.65 -1.4,-0.25 -2.39,-1.49 -2.39,-2.68 0,-0.8 0.54,-1.75 1.89,-1.75 1.1,0 2.69,0.9 2.69,2.89 0,2.59 -2.94,3.29 -4.63,3.29 -2.89,0 -4.64,-2.64 -5.23,-3.79 -1.25,3.29 -3.94,3.79 -5.38,3.79 -5.18,0 -8.02,-6.43 -8.02,-7.67 0,-0.5 0.5,-0.5 0.6,-0.5 0.39,0 0.54,0.1 0.64,0.54 1.7,5.29 4.98,6.53 6.68,6.53 0.95,0 2.69,-0.45 2.69,-3.33 0,-1.55 -0.85,-4.89 -2.69,-11.86 -0.8,-3.09 -2.54,-5.18 -4.73,-5.18 -0.3,0 -1.45,0 -2.49,0.65 1.24,0.25 2.34,1.29 2.34,2.69 0,1.34 -1.1,1.74 -1.85,1.74 -1.49,0 -2.73,-1.3 -2.73,-2.89 0,-2.29 2.48,-3.29 4.68,-3.29 3.28,0 5.08,3.49 5.23,3.79 0.6,-1.85 2.39,-3.79 5.38,-3.79 5.13,0 7.97,6.43 7.97,7.68 0,0.49 -0.45,0.49 -0.6,0.49 -0.45,0 -0.55,-0.2 -0.65,-0.55 -1.64,-5.33 -5.03,-6.52 -6.62,-6.52 -1.95,0 -2.74,1.59 -2.74,3.29 0,1.09 0.29,2.19 0.85,4.38 z"
           id="path4043" /><path
           style="fill:#ff0000;stroke-width:0;fill-opacity:1"
           inkscape:connector-curvature="0"
           d="m 501.61,430.35 h -1.19 c -0.1,-0.77 -0.45,-2.83 -0.9,-3.18 -0.28,-0.21 -2.97,-0.21 -3.45,-0.21 h -6.42 c 3.66,3.25 4.88,4.22 6.97,5.86 2.58,2.06 4.99,4.22 4.99,7.54 0,4.21 -3.7,6.79 -8.16,6.79 -4.32,0 -7.25,-3.03 -7.25,-6.24 0,-1.78 1.5,-1.95 1.84,-1.95 0.84,0 1.85,0.59 1.85,1.85 0,0.62 -0.24,1.85 -2.05,1.85 1.08,2.47 3.45,3.24 5.09,3.24 3.48,0 5.3,-2.72 5.3,-5.54 0,-3.04 -2.16,-5.45 -3.28,-6.7 l -8.4,-8.3 c -0.35,-0.31 -0.35,-0.38 -0.35,-1.36 h 14.36 z"
           id="path4045" /><path
           style="fill:#ff0000;stroke-width:0;fill-opacity:1"
           inkscape:connector-curvature="0"
           d="m 494.91,415.15 0.01,0.01 0,0 0,0 0,0.01 0,0.01 0.01,0 0,0.01 0,0 0,0.02 0.01,0.02 0.01,0.02 0,0.01 0.01,0.02 0,0.03 0.01,0.02 0,0.02 0.01,0.02 0.01,0.03 0.01,0.04 0.01,0.05 0,0.03 0.01,0.02 0,0.02 0.01,0.02 0,0.02 0.01,0.02 0,0.02 0,0.01 0.01,0.01 0,0.01 0,0 0,0.01 0,0.01 0,0 0,0.01 0,0 0,0 0,0.01 0,0 0,0 c 0,0.18 -0.14,0.49 -0.55,0.49 -0.7,0 -3.6,-0.28 -4.47,-0.35 -0.28,-0.03 -0.76,-0.07 -0.76,-0.8 0,-0.49 0.48,-0.49 0.9,-0.49 1.67,0 1.67,-0.24 1.67,-0.52 0,-0.25 -0.06,-0.46 -0.13,-0.77 l -4.92,-19.73 c -0.18,-0.63 -0.18,-0.7 -0.18,-0.77 0,-0.53 0.43,-1.12 1.19,-1.12 0.38,0 1.05,0.17 1.43,0.91 0.11,0.21 0.42,1.46 0.59,2.19 l 0.81,3.11 c 0.1,0.52 0.45,1.85 0.55,2.37 0.35,1.32 0.35,1.36 1.05,2.47 1.11,1.71 2.86,3.7 5.58,3.7 1.95,0 2.06,-1.6 2.06,-2.44 0,-2.09 -1.5,-5.96 -2.06,-7.43 -0.38,-0.97 -0.52,-1.29 -0.52,-1.88 0,-1.85 1.53,-3 3.31,-3 3.49,0 5.02,4.81 5.02,5.33 0,0.46 -0.46,0.46 -0.56,0.46 -0.49,0 -0.52,-0.21 -0.66,-0.59 -0.8,-2.79 -2.34,-4.22 -3.7,-4.22 -0.73,0 -0.87,0.49 -0.87,1.22 0,0.8 0.17,1.25 0.8,2.82 0.42,1.08 1.85,4.78 1.85,6.73 0,0.56 0,2.03 -1.29,3.04 -0.59,0.45 -1.6,0.94 -3.24,0.94 -2.55,0 -4.4,-1.4 -5.68,-2.9 z"
           id="path4047" /></g>    </g>
    <g
       id="g4125"
       transform="matrix(0.50850851,0,0,0.50850851,149.63788,180.445)"
       style="fill:#ff0000;fill-opacity:1">
      <g
         word-spacing="normal"
         letter-spacing="normal"
         font-size-adjust="none"
         font-stretch="normal"
         font-weight="normal"
         font-variant="normal"
         font-style="normal"
         stroke-miterlimit="10.433"
         xml:space="preserve"
         transform="matrix(1.0629921,0,0,-1.0629921,-186.02362,789.27165)"
         id="g4127"
         style="font-style:normal;font-variant:normal;font-weight:normal;font-stretch:normal;letter-spacing:normal;word-spacing:normal;text-anchor:start;fill:#ff0000;stroke:#000000;stroke-linecap:butt;stroke-linejoin:miter;stroke-miterlimit:10.43299961000000000;stroke-opacity:1;stroke-dasharray:none;stroke-dashoffset:0;fill-opacity:1"><path
           id="path4129"
           d="m 472.64,421.04 0.03,0.13 0.03,0.15 0.05,0.17 0.04,0.18 0.06,0.19 0.06,0.21 0.06,0.21 0.07,0.23 0.08,0.23 0.09,0.24 0.1,0.25 0.1,0.24 0.11,0.25 0.12,0.25 0.13,0.25 0.14,0.25 0.15,0.24 0.15,0.24 0.17,0.23 0.18,0.22 0.18,0.22 0.2,0.2 0.21,0.19 0.22,0.18 0.23,0.16 0.25,0.14 0.12,0.07 0.13,0.06 0.13,0.05 0.14,0.05 0.14,0.05 0.14,0.04 0.14,0.03 0.15,0.03 0.15,0.02 0.16,0.02 0.16,0.01 0.16,0 c 0.25,0 1.45,0 2.49,-0.65 -1.4,-0.25 -2.39,-1.49 -2.39,-2.68 0,-0.8 0.54,-1.75 1.89,-1.75 1.1,0 2.69,0.9 2.69,2.89 0,2.59 -2.94,3.29 -4.63,3.29 -2.89,0 -4.64,-2.64 -5.23,-3.79 -1.25,3.29 -3.94,3.79 -5.38,3.79 -5.18,0 -8.02,-6.43 -8.02,-7.67 0,-0.5 0.5,-0.5 0.6,-0.5 0.39,0 0.54,0.1 0.64,0.54 1.7,5.29 4.98,6.53 6.68,6.53 0.95,0 2.69,-0.45 2.69,-3.33 0,-1.55 -0.85,-4.89 -2.69,-11.86 -0.8,-3.09 -2.54,-5.18 -4.73,-5.18 -0.3,0 -1.45,0 -2.49,0.65 1.24,0.25 2.34,1.29 2.34,2.69 0,1.34 -1.1,1.74 -1.85,1.74 -1.49,0 -2.73,-1.3 -2.73,-2.89 0,-2.29 2.48,-3.29 4.68,-3.29 3.28,0 5.08,3.49 5.23,3.79 0.6,-1.85 2.39,-3.79 5.38,-3.79 5.13,0 7.97,6.43 7.97,7.68 0,0.49 -0.45,0.49 -0.6,0.49 -0.45,0 -0.55,-0.2 -0.65,-0.55 -1.64,-5.33 -5.03,-6.52 -6.62,-6.52 -1.95,0 -2.74,1.59 -2.74,3.29 0,1.09 0.29,2.19 0.85,4.38 z"
           inkscape:connector-curvature="0"
           style="fill:#ff0000;stroke-width:0;fill-opacity:1" /><path
           id="path4131"
           d="m 495.68,446.18 0,0.04 0,0.04 0,0.04 0,0.04 0,0.04 0,0.04 0,0.03 0,0.04 -0.01,0.03 0,0.03 0,0.04 0,0.03 -0.01,0.02 0,0.03 0,0.03 -0.01,0.03 0,0.02 0,0.02 -0.02,0.05 -0.01,0.04 -0.01,0.04 -0.02,0.03 -0.02,0.03 -0.02,0.03 -0.03,0.03 -0.02,0.02 -0.03,0.02 -0.04,0.02 -0.03,0.01 -0.04,0.01 -0.05,0.02 -0.05,0 -0.02,0.01 -0.03,0 -0.03,0.01 -0.02,0 -0.03,0 -0.03,0 -0.04,0 -0.03,0.01 -0.03,0 -0.04,0 -0.03,0 -0.04,0 -0.04,0 -0.04,0 -0.04,0 -0.04,0 -0.05,0 -0.04,0 c -2.24,-2.19 -5.41,-2.23 -6.84,-2.23 v -1.25 c 0.84,0 3.14,0 5.06,0.97 v -17.78 c 0,-1.15 0,-1.61 -3.49,-1.61 h -1.33 V 424 h 12.45 v 1.25 h -1.32 c -3.49,0 -3.49,0.46 -3.49,1.61 z"
           inkscape:connector-curvature="0"
           style="fill:#ff0000;stroke-width:0;fill-opacity:1" /><path
           id="path4133"
           d="m 494.91,415.15 0.01,0.01 0,0 0,0 0,0.01 0,0.01 0.01,0 0,0.01 0,0 0,0.02 0.01,0.02 0.01,0.02 0,0.01 0.01,0.02 0,0.03 0.01,0.02 0,0.02 0.01,0.02 0.01,0.03 0.01,0.04 0.01,0.05 0,0.03 0.01,0.02 0,0.02 0.01,0.02 0,0.02 0.01,0.02 0,0.02 0,0.01 0.01,0.01 0,0.01 0,0 0,0.01 0,0.01 0,0 0,0.01 0,0 0,0 0,0.01 0,0 0,0 c 0,0.18 -0.14,0.49 -0.55,0.49 -0.7,0 -3.6,-0.28 -4.47,-0.35 -0.28,-0.03 -0.76,-0.07 -0.76,-0.8 0,-0.49 0.48,-0.49 0.9,-0.49 1.67,0 1.67,-0.24 1.67,-0.52 0,-0.25 -0.06,-0.46 -0.13,-0.77 l -4.92,-19.73 c -0.18,-0.63 -0.18,-0.7 -0.18,-0.77 0,-0.53 0.43,-1.12 1.19,-1.12 0.38,0 1.05,0.17 1.43,0.91 0.11,0.21 0.42,1.46 0.59,2.19 l 0.81,3.11 c 0.1,0.52 0.45,1.85 0.55,2.37 0.35,1.32 0.35,1.36 1.05,2.47 1.11,1.71 2.86,3.7 5.58,3.7 1.95,0 2.06,-1.6 2.06,-2.44 0,-2.09 -1.5,-5.96 -2.06,-7.43 -0.38,-0.97 -0.52,-1.29 -0.52,-1.88 0,-1.85 1.53,-3 3.31,-3 3.49,0 5.02,4.81 5.02,5.33 0,0.46 -0.46,0.46 -0.56,0.46 -0.49,0 -0.52,-0.21 -0.66,-0.59 -0.8,-2.79 -2.34,-4.22 -3.7,-4.22 -0.73,0 -0.87,0.49 -0.87,1.22 0,0.8 0.17,1.25 0.8,2.82 0.42,1.08 1.85,4.78 1.85,6.73 0,0.56 0,2.03 -1.29,3.04 -0.59,0.45 -1.6,0.94 -3.24,0.94 -2.55,0 -4.4,-1.4 -5.68,-2.9 z"
           inkscape:connector-curvature="0"
           style="fill:#ff0000;stroke-width:0;fill-opacity:1" /></g>    </g>
    <path
       style="fill:none;stroke:#000000;stroke-width:1px;stroke-linecap:butt;stroke-linejoin:miter;stroke-opacity:1;marker-end:url(#Arrow2Lend)"
       d="m 297.31282,370.77418 -0.63497,3.38545"
       id="path4177"
       inkscape:connector-curvature="0" />
    <path
       style="fill:none;stroke:#000000;stroke-width:1px;stroke-linecap:butt;stroke-linejoin:miter;stroke-opacity:1;marker-end:url(#Arrow2Lend)"
       d="m 249.76151,410.64527 -5.56418,-0.35032"
       id="path4623"
       inkscape:connector-curvature="0" />
    <path
       transform="translate(42.499169,33.211953)"
       sodipodi:type="star"
       style="fill:#ff0000;fill-opacity:1;stroke:none"
       id="path2985-1"
       sodipodi:sides="200"
       sodipodi:cx="254.28571"
       sodipodi:cy="319.50504"
       sodipodi:r1="2.2868302"
       sodipodi:r2="17.200155"
       sodipodi:arg1="0.89605541"
       sodipodi:arg2="0.91176337"
       inkscape:flatsided="true"
       inkscape:rounded="0"
       inkscape:randomized="0.0005"
       d="m 255.71662,321.29853 -0.054,0.0373 -0.0581,0.0423 -0.0604,0.0474 -0.0625,0.0323 -0.0646,0.0373 -0.0676,0.0294 -0.0515,0.0423 -0.0715,0.021 -0.0724,0.0319 -0.0589,0.018 -0.076,0.0368 -0.0604,0.0214 -0.0629,0.0182 -0.0798,0.0183 -0.0744,0.006 -0.0645,0.014 -0.0667,0.009 -0.0833,0.009 -0.0673,0.014 -0.0666,0.014 -0.0685,-0.01 -0.0771,0.001 -0.0676,0.003 -0.0675,-0.005 -0.0845,-0.0128 -0.067,2.6e-4 -0.0649,-0.0109 -0.0826,-0.0234 -0.064,-0.006 -0.073,-0.0197 -0.062,-0.0289 -0.0785,-0.0162 -0.0587,-0.0249 -0.0751,-0.0332 -0.0561,-0.0307 -0.0715,-0.0272 -0.0686,-0.0205 -0.0504,-0.0401 -0.0646,-0.0334 -0.0625,-0.0469 -0.0594,-0.0363 -0.0572,-0.0363 -0.0549,-0.0493 -0.0516,-0.0562 -0.0664,-0.0362 -0.0536,-0.0527 -0.0424,-0.0482 -0.0571,-0.0476 -0.0363,-0.0676 -0.05,-0.057 -0.036,-0.0492 -0.0427,-0.051 -0.039,-0.0746 -0.0421,-0.046 -0.0487,-0.0681 -0.0354,-0.0627 -0.0238,-0.0596 -0.0267,-0.0632 -0.0314,-0.0693 -0.0361,-0.0719 -0.0244,-0.0662 -0.01,-0.0715 -0.0223,-0.0694 -0.0114,-0.068 -0.0311,-0.0685 -0.009,-0.067 -0.006,-0.0804 -0.0182,-0.0722 0.004,-0.0663 -0.008,-0.0613 0.003,-0.0786 4e-5,-0.066 -0.003,-0.082 0.009,-0.0606 -0.004,-0.0751 0.0183,-0.0687 0.006,-0.0785 0.008,-0.0781 0.0315,-0.0612 0.0124,-0.0726 0.0224,-0.0589 0.0101,-0.0707 0.0245,-0.0708 0.0362,-0.0754 0.0315,-0.0568 0.0278,-0.0668 0.023,-0.0648 0.0364,-0.0705 0.0478,-0.0596 0.0363,-0.0591 0.0287,-0.0635 0.0428,-0.0462 0.0474,-0.0688 0.0569,-0.0524 0.0364,-0.0555 0.0572,-0.0477 0.0425,-0.0535 0.0527,-0.0495 0.0665,-0.049 0.0517,-0.0317 0.0549,-0.0466 0.0581,-0.0438 0.0604,-0.0459 0.0616,-0.0402 0.0646,-0.0354 0.0504,-0.0333 0.0687,-0.0251 0.0725,-0.0284 0.0552,-0.03 0.0752,-0.0259 0.0587,-0.0387 0.0785,-0.0149 0.062,-0.0228 0.073,-0.006 0.064,-0.0215 0.0826,-0.021 0.0658,-6e-5 0.0671,-0.02 0.0664,-0.003 0.0847,-0.006 0.0608,-0.001 0.0839,5e-5 0.0685,0.009 0.0665,-0.005 0.0682,0.0188 0.0671,0.004 0.0821,0.008 0.0758,0.0235 0.0631,0.015 0.0644,0.003 0.0782,0.0367 0.0604,0.01 0.0769,0.0348 0.0579,0.0141 0.0724,0.0381 0.0543,0.0272 0.0686,0.0396 0.0676,0.0229 0.0646,0.0334 0.0625,0.0469 0.0603,0.0447 0.0572,0.0359 0.054,0.0414 0.0525,0.0469 0.0483,0.0459 0.064,0.0509 0.0502,0.0575 0.0389,0.055 0.0501,0.0413 0.05,0.057 0.0369,0.0557 0.0427,0.0701 0.0381,0.0475 0.0439,0.0634 0.0305,0.0583 0.0345,0.0719 0.041,0.06 0.0267,0.0651 0.0323,0.0753 0.0189,0.0543 0.0235,0.0793 0.0281,0.0623 0.0223,0.0656 0.0105,0.0811 0.0142,0.054 0.0273,0.0787 0.006,0.0766 9e-5,0.0647 0.006,0.0664 0.008,0.0785 0.005,0.0726 -9.7e-4,0.0715 -0.004,0.0673 -0.009,0.074 -0.006,0.0769 -2e-4,0.0609 -0.005,0.0692 -0.0274,0.0794 -0.0146,0.0718 -0.0115,0.0633 -0.0224,0.078 -0.0282,0.0609 -0.0236,0.0772 -0.019,0.0582 -0.0324,0.0679 -0.0278,0.0645 -0.0402,0.0648 -0.0355,0.0613 -0.0306,0.0615 -0.044,0.0671 -0.0391,0.0462 -0.0419,0.0713 -0.037,0.0498 -0.05,0.0575 -0.0501,0.0455 -0.039,0.0575 -0.0502,0.0442 -0.0641,0.0605 -0.0483,0.0374 z"
       inkscape:transform-center-x="0.0024241464"
       inkscape:transform-center-y="0.0011130073" />
    <path
       transform="translate(-35.357973,91.783381)"
       sodipodi:type="star"
       style="fill:#ff0000;fill-opacity:1;stroke:none"
       id="path2985-9"
       sodipodi:sides="200"
       sodipodi:cx="254.28571"
       sodipodi:cy="319.50504"
       sodipodi:r1="2.2868302"
       sodipodi:r2="17.200155"
       sodipodi:arg1="0.89605541"
       sodipodi:arg2="0.91176337"
       inkscape:flatsided="true"
       inkscape:rounded="0"
       inkscape:randomized="0.0005"
       d="m 255.71662,321.29853 -0.054,0.0373 -0.0581,0.0423 -0.0604,0.0474 -0.0625,0.0323 -0.0646,0.0373 -0.0676,0.0294 -0.0515,0.0423 -0.0715,0.021 -0.0724,0.0319 -0.0589,0.018 -0.076,0.0368 -0.0604,0.0214 -0.0629,0.0182 -0.0798,0.0183 -0.0744,0.006 -0.0645,0.014 -0.0667,0.009 -0.0833,0.009 -0.0673,0.014 -0.0666,0.014 -0.0685,-0.01 -0.0771,0.001 -0.0676,0.003 -0.0675,-0.005 -0.0845,-0.0128 -0.067,2.6e-4 -0.0649,-0.0109 -0.0826,-0.0234 -0.064,-0.006 -0.073,-0.0197 -0.062,-0.0289 -0.0785,-0.0162 -0.0587,-0.0249 -0.0751,-0.0332 -0.0561,-0.0307 -0.0715,-0.0272 -0.0686,-0.0205 -0.0504,-0.0401 -0.0646,-0.0334 -0.0625,-0.0469 -0.0594,-0.0363 -0.0572,-0.0363 -0.0549,-0.0493 -0.0516,-0.0562 -0.0664,-0.0362 -0.0536,-0.0527 -0.0424,-0.0482 -0.0571,-0.0476 -0.0363,-0.0676 -0.05,-0.057 -0.036,-0.0492 -0.0427,-0.051 -0.039,-0.0746 -0.0421,-0.046 -0.0487,-0.0681 -0.0354,-0.0627 -0.0238,-0.0596 -0.0267,-0.0632 -0.0314,-0.0693 -0.0361,-0.0719 -0.0244,-0.0662 -0.01,-0.0715 -0.0223,-0.0694 -0.0114,-0.068 -0.0311,-0.0685 -0.009,-0.067 -0.006,-0.0804 -0.0182,-0.0722 0.004,-0.0663 -0.008,-0.0613 0.003,-0.0786 4e-5,-0.066 -0.003,-0.082 0.009,-0.0606 -0.004,-0.0751 0.0183,-0.0687 0.006,-0.0785 0.008,-0.0781 0.0315,-0.0612 0.0124,-0.0726 0.0224,-0.0589 0.0101,-0.0707 0.0245,-0.0708 0.0362,-0.0754 0.0315,-0.0568 0.0278,-0.0668 0.023,-0.0648 0.0364,-0.0705 0.0478,-0.0596 0.0363,-0.0591 0.0287,-0.0635 0.0428,-0.0462 0.0474,-0.0688 0.0569,-0.0524 0.0364,-0.0555 0.0572,-0.0477 0.0425,-0.0535 0.0527,-0.0495 0.0665,-0.049 0.0517,-0.0317 0.0549,-0.0466 0.0581,-0.0438 0.0604,-0.0459 0.0616,-0.0402 0.0646,-0.0354 0.0504,-0.0333 0.0687,-0.0251 0.0725,-0.0284 0.0552,-0.03 0.0752,-0.0259 0.0587,-0.0387 0.0785,-0.0149 0.062,-0.0228 0.073,-0.006 0.064,-0.0215 0.0826,-0.021 0.0658,-6e-5 0.0671,-0.02 0.0664,-0.003 0.0847,-0.006 0.0608,-0.001 0.0839,5e-5 0.0685,0.009 0.0665,-0.005 0.0682,0.0188 0.0671,0.004 0.0821,0.008 0.0758,0.0235 0.0631,0.015 0.0644,0.003 0.0782,0.0367 0.0604,0.01 0.0769,0.0348 0.0579,0.0141 0.0724,0.0381 0.0543,0.0272 0.0686,0.0396 0.0676,0.0229 0.0646,0.0334 0.0625,0.0469 0.0603,0.0447 0.0572,0.0359 0.054,0.0414 0.0525,0.0469 0.0483,0.0459 0.064,0.0509 0.0502,0.0575 0.0389,0.055 0.0501,0.0413 0.05,0.057 0.0369,0.0557 0.0427,0.0701 0.0381,0.0475 0.0439,0.0634 0.0305,0.0583 0.0345,0.0719 0.041,0.06 0.0267,0.0651 0.0323,0.0753 0.0189,0.0543 0.0235,0.0793 0.0281,0.0623 0.0223,0.0656 0.0105,0.0811 0.0142,0.054 0.0273,0.0787 0.006,0.0766 9e-5,0.0647 0.006,0.0664 0.008,0.0785 0.005,0.0726 -9.7e-4,0.0715 -0.004,0.0673 -0.009,0.074 -0.006,0.0769 -2e-4,0.0609 -0.005,0.0692 -0.0274,0.0794 -0.0146,0.0718 -0.0115,0.0633 -0.0224,0.078 -0.0282,0.0609 -0.0236,0.0772 -0.019,0.0582 -0.0324,0.0679 -0.0278,0.0645 -0.0402,0.0648 -0.0355,0.0613 -0.0306,0.0615 -0.044,0.0671 -0.0391,0.0462 -0.0419,0.0713 -0.037,0.0498 -0.05,0.0575 -0.0501,0.0455 -0.039,0.0575 -0.0502,0.0442 -0.0641,0.0605 -0.0483,0.0374 z"
       inkscape:transform-center-x="0.0024241464"
       inkscape:transform-center-y="0.0011130073" />
    <path
       transform="translate(-177.51495,5.0399017)"
       sodipodi:type="star"
       style="fill:#000000;fill-opacity:1;stroke:none"
       id="path2985-4-4"
       sodipodi:sides="200"
       sodipodi:cx="254.28571"
       sodipodi:cy="319.50504"
       sodipodi:r1="2.2868302"
       sodipodi:r2="17.200155"
       sodipodi:arg1="0.89605541"
       sodipodi:arg2="0.91176337"
       inkscape:flatsided="true"
       inkscape:rounded="0"
       inkscape:randomized="0.0005"
       d="m 255.71662,321.29853 -0.054,0.0373 -0.0581,0.0423 -0.0604,0.0474 -0.0625,0.0323 -0.0646,0.0373 -0.0676,0.0294 -0.0515,0.0423 -0.0715,0.021 -0.0724,0.0319 -0.0589,0.018 -0.076,0.0368 -0.0604,0.0214 -0.0629,0.0182 -0.0798,0.0183 -0.0744,0.006 -0.0645,0.014 -0.0667,0.009 -0.0833,0.009 -0.0673,0.014 -0.0666,0.014 -0.0685,-0.01 -0.0771,0.001 -0.0676,0.003 -0.0675,-0.005 -0.0845,-0.0128 -0.067,2.6e-4 -0.0649,-0.0109 -0.0826,-0.0234 -0.064,-0.006 -0.073,-0.0197 -0.062,-0.0289 -0.0785,-0.0162 -0.0587,-0.0249 -0.0751,-0.0332 -0.0561,-0.0307 -0.0715,-0.0272 -0.0686,-0.0205 -0.0504,-0.0401 -0.0646,-0.0334 -0.0625,-0.0469 -0.0594,-0.0363 -0.0572,-0.0363 -0.0549,-0.0493 -0.0516,-0.0562 -0.0664,-0.0362 -0.0536,-0.0527 -0.0424,-0.0482 -0.0571,-0.0476 -0.0363,-0.0676 -0.05,-0.057 -0.036,-0.0492 -0.0427,-0.051 -0.039,-0.0746 -0.0421,-0.046 -0.0487,-0.0681 -0.0354,-0.0627 -0.0238,-0.0596 -0.0267,-0.0632 -0.0314,-0.0693 -0.0361,-0.0719 -0.0244,-0.0662 -0.01,-0.0715 -0.0223,-0.0694 -0.0114,-0.068 -0.0311,-0.0685 -0.009,-0.067 -0.006,-0.0804 -0.0182,-0.0722 0.004,-0.0663 -0.008,-0.0613 0.003,-0.0786 4e-5,-0.066 -0.003,-0.082 0.009,-0.0606 -0.004,-0.0751 0.0183,-0.0687 0.006,-0.0785 0.008,-0.0781 0.0315,-0.0612 0.0124,-0.0726 0.0224,-0.0589 0.0101,-0.0707 0.0245,-0.0708 0.0362,-0.0754 0.0315,-0.0568 0.0278,-0.0668 0.023,-0.0648 0.0364,-0.0705 0.0478,-0.0596 0.0363,-0.0591 0.0287,-0.0635 0.0428,-0.0462 0.0474,-0.0688 0.0569,-0.0524 0.0364,-0.0555 0.0572,-0.0477 0.0425,-0.0535 0.0527,-0.0495 0.0665,-0.049 0.0517,-0.0317 0.0549,-0.0466 0.0581,-0.0438 0.0604,-0.0459 0.0616,-0.0402 0.0646,-0.0354 0.0504,-0.0333 0.0687,-0.0251 0.0725,-0.0284 0.0552,-0.03 0.0752,-0.0259 0.0587,-0.0387 0.0785,-0.0149 0.062,-0.0228 0.073,-0.006 0.064,-0.0215 0.0826,-0.021 0.0658,-6e-5 0.0671,-0.02 0.0664,-0.003 0.0847,-0.006 0.0608,-0.001 0.0839,5e-5 0.0685,0.009 0.0665,-0.005 0.0682,0.0188 0.0671,0.004 0.0821,0.008 0.0758,0.0235 0.0631,0.015 0.0644,0.003 0.0782,0.0367 0.0604,0.01 0.0769,0.0348 0.0579,0.0141 0.0724,0.0381 0.0543,0.0272 0.0686,0.0396 0.0676,0.0229 0.0646,0.0334 0.0625,0.0469 0.0603,0.0447 0.0572,0.0359 0.054,0.0414 0.0525,0.0469 0.0483,0.0459 0.064,0.0509 0.0502,0.0575 0.0389,0.055 0.0501,0.0413 0.05,0.057 0.0369,0.0557 0.0427,0.0701 0.0381,0.0475 0.0439,0.0634 0.0305,0.0583 0.0345,0.0719 0.041,0.06 0.0267,0.0651 0.0323,0.0753 0.0189,0.0543 0.0235,0.0793 0.0281,0.0623 0.0223,0.0656 0.0105,0.0811 0.0142,0.054 0.0273,0.0787 0.006,0.0766 9e-5,0.0647 0.006,0.0664 0.008,0.0785 0.005,0.0726 -9.7e-4,0.0715 -0.004,0.0673 -0.009,0.074 -0.006,0.0769 -2e-4,0.0609 -0.005,0.0692 -0.0274,0.0794 -0.0146,0.0718 -0.0115,0.0633 -0.0224,0.078 -0.0282,0.0609 -0.0236,0.0772 -0.019,0.0582 -0.0324,0.0679 -0.0278,0.0645 -0.0402,0.0648 -0.0355,0.0613 -0.0306,0.0615 -0.044,0.0671 -0.0391,0.0462 -0.0419,0.0713 -0.037,0.0498 -0.05,0.0575 -0.0501,0.0455 -0.039,0.0575 -0.0502,0.0442 -0.0641,0.0605 -0.0483,0.0374 z"
       inkscape:transform-center-x="0.0024241464"
       inkscape:transform-center-y="0.0011130073" />
    <path
       style="fill:none;stroke:#000000;stroke-width:1px;stroke-linecap:butt;stroke-linejoin:miter;stroke-opacity:1"
       d="m 164.64528,437.36107 c 0,0 -56.1475,-2.67752 -72.9079,-21.70522 C 71.394059,392.56054 76.770756,324.54494 76.770756,324.54494"
       id="path5395"
       inkscape:connector-curvature="0"
       sodipodi:nodetypes="csc" />
    <path
       style="fill:none;stroke:#000000;stroke-width:1px;stroke-linecap:butt;stroke-linejoin:miter;stroke-opacity:1"
       d="m 76.77402,324.54616 c 0,0 54.3823,-40.84414 86.36477,-41.92255 32.75671,-1.10452 91.14692,36.88143 91.14692,36.88143"
       id="path5397"
       inkscape:connector-curvature="0"
       sodipodi:nodetypes="csc" />
    <g
       style="fill:#ff0000;fill-opacity:1"
       transform="matrix(0.50532181,0,0,0.50532181,-70.41617,113.09582)"
       id="g5450">
      <g
         style="font-style:normal;font-variant:normal;font-weight:normal;font-stretch:normal;letter-spacing:normal;word-spacing:normal;text-anchor:start;fill:#ff0000;fill-opacity:1;stroke:#000000;stroke-linecap:butt;stroke-linejoin:miter;stroke-miterlimit:10.43299961;stroke-opacity:1;stroke-dasharray:none;stroke-dashoffset:0"
         id="g5452"
         transform="matrix(1.0629921,0,0,-1.0629921,-186.02362,789.27165)"
         xml:space="preserve"
         stroke-miterlimit="10.433"
         font-style="normal"
         font-variant="normal"
         font-weight="normal"
         font-stretch="normal"
         font-size-adjust="none"
         letter-spacing="normal"
         word-spacing="normal"><path
           style="fill:#ff0000;fill-opacity:1;stroke-width:0"
           inkscape:connector-curvature="0"
           d="m 472.64,421.04 0.03,0.13 0.03,0.15 0.05,0.17 0.04,0.18 0.06,0.19 0.06,0.21 0.06,0.21 0.07,0.23 0.08,0.23 0.09,0.24 0.1,0.25 0.1,0.24 0.11,0.25 0.12,0.25 0.13,0.25 0.14,0.25 0.15,0.24 0.15,0.24 0.17,0.23 0.18,0.22 0.18,0.22 0.2,0.2 0.21,0.19 0.22,0.18 0.23,0.16 0.25,0.14 0.12,0.07 0.13,0.06 0.13,0.05 0.14,0.05 0.14,0.05 0.14,0.04 0.14,0.03 0.15,0.03 0.15,0.02 0.16,0.02 0.16,0.01 0.16,0 c 0.25,0 1.45,0 2.49,-0.65 -1.4,-0.25 -2.39,-1.49 -2.39,-2.68 0,-0.8 0.54,-1.75 1.89,-1.75 1.1,0 2.69,0.9 2.69,2.89 0,2.59 -2.94,3.29 -4.63,3.29 -2.89,0 -4.64,-2.64 -5.23,-3.79 -1.25,3.29 -3.94,3.79 -5.38,3.79 -5.18,0 -8.02,-6.43 -8.02,-7.67 0,-0.5 0.5,-0.5 0.6,-0.5 0.39,0 0.54,0.1 0.64,0.54 1.7,5.29 4.98,6.53 6.68,6.53 0.95,0 2.69,-0.45 2.69,-3.33 0,-1.55 -0.85,-4.89 -2.69,-11.86 -0.8,-3.09 -2.54,-5.18 -4.73,-5.18 -0.3,0 -1.45,0 -2.49,0.65 1.24,0.25 2.34,1.29 2.34,2.69 0,1.34 -1.1,1.74 -1.85,1.74 -1.49,0 -2.73,-1.3 -2.73,-2.89 0,-2.29 2.48,-3.29 4.68,-3.29 3.28,0 5.08,3.49 5.23,3.79 0.6,-1.85 2.39,-3.79 5.38,-3.79 5.13,0 7.97,6.43 7.97,7.68 0,0.49 -0.45,0.49 -0.6,0.49 -0.45,0 -0.55,-0.2 -0.65,-0.55 -1.64,-5.33 -5.03,-6.52 -6.62,-6.52 -1.95,0 -2.74,1.59 -2.74,3.29 0,1.09 0.29,2.19 0.85,4.38 z"
           id="path5454" /><path
           style="fill:#ff0000;fill-opacity:1;stroke-width:0"
           inkscape:connector-curvature="0"
           d="m 502.45,429.72 v 1.25 h -3.88 v 15.56 c 0,0.73 0,0.97 -0.76,0.97 -0.42,0 -0.56,0 -0.91,-0.49 l -11.54,-16.04 v -1.25 h 10.25 l 0.25,1.25 h -9.21 l 9.21,12.76 v -12.76 l -0.25,-1.25 v -2.86 c 0,-1.19 0,-1.61 -2.82,-1.61 h -0.95 V 424 h 10.5 v 1.25 h -0.94 c -2.83,0 -2.83,0.42 -2.83,1.61 v 2.86 z"
           id="path5456" /><path
           style="fill:#ff0000;fill-opacity:1;stroke-width:0"
           inkscape:connector-curvature="0"
           d="m 494.91,415.15 0.01,0.01 0,0 0,0 0,0.01 0,0.01 0.01,0 0,0.01 0,0 0,0.02 0.01,0.02 0.01,0.02 0,0.01 0.01,0.02 0,0.03 0.01,0.02 0,0.02 0.01,0.02 0.01,0.03 0.01,0.04 0.01,0.05 0,0.03 0.01,0.02 0,0.02 0.01,0.02 0,0.02 0.01,0.02 0,0.02 0,0.01 0.01,0.01 0,0.01 0,0 0,0.01 0,0.01 0,0 0,0.01 0,0 0,0 0,0.01 0,0 0,0 c 0,0.18 -0.14,0.49 -0.55,0.49 -0.7,0 -3.6,-0.28 -4.47,-0.35 -0.28,-0.03 -0.76,-0.07 -0.76,-0.8 0,-0.49 0.48,-0.49 0.9,-0.49 1.67,0 1.67,-0.24 1.67,-0.52 0,-0.25 -0.06,-0.46 -0.13,-0.77 l -4.92,-19.73 c -0.18,-0.63 -0.18,-0.7 -0.18,-0.77 0,-0.53 0.43,-1.12 1.19,-1.12 0.38,0 1.05,0.17 1.43,0.91 0.11,0.21 0.42,1.46 0.59,2.19 l 0.81,3.11 c 0.1,0.52 0.45,1.85 0.55,2.37 0.35,1.32 0.35,1.36 1.05,2.47 1.11,1.71 2.86,3.7 5.58,3.7 1.95,0 2.06,-1.6 2.06,-2.44 0,-2.09 -1.5,-5.96 -2.06,-7.43 -0.38,-0.97 -0.52,-1.29 -0.52,-1.88 0,-1.85 1.53,-3 3.31,-3 3.49,0 5.02,4.81 5.02,5.33 0,0.46 -0.46,0.46 -0.56,0.46 -0.49,0 -0.52,-0.21 -0.66,-0.59 -0.8,-2.79 -2.34,-4.22 -3.7,-4.22 -0.73,0 -0.87,0.49 -0.87,1.22 0,0.8 0.17,1.25 0.8,2.82 0.42,1.08 1.85,4.78 1.85,6.73 0,0.56 0,2.03 -1.29,3.04 -0.59,0.45 -1.6,0.94 -3.24,0.94 -2.55,0 -4.4,-1.4 -5.68,-2.9 z"
           id="path5458" /></g>    </g>
    <path
       transform="translate(-153.46834,-11.524286)"
       sodipodi:type="star"
       style="fill:#ff0000;fill-opacity:1;stroke:none"
       id="path2985-0-8"
       sodipodi:sides="200"
       sodipodi:cx="254.28571"
       sodipodi:cy="319.50504"
       sodipodi:r1="2.2868302"
       sodipodi:r2="17.200155"
       sodipodi:arg1="0.89605541"
       sodipodi:arg2="0.91176337"
       inkscape:flatsided="true"
       inkscape:rounded="0"
       inkscape:randomized="0.0005"
       d="m 255.71662,321.29853 -0.054,0.0373 -0.0581,0.0423 -0.0604,0.0474 -0.0625,0.0323 -0.0646,0.0373 -0.0676,0.0294 -0.0515,0.0423 -0.0715,0.021 -0.0724,0.0319 -0.0589,0.018 -0.076,0.0368 -0.0604,0.0214 -0.0629,0.0182 -0.0798,0.0183 -0.0744,0.006 -0.0645,0.014 -0.0667,0.009 -0.0833,0.009 -0.0673,0.014 -0.0666,0.014 -0.0685,-0.01 -0.0771,0.001 -0.0676,0.003 -0.0675,-0.005 -0.0845,-0.0128 -0.067,2.6e-4 -0.0649,-0.0109 -0.0826,-0.0234 -0.064,-0.006 -0.073,-0.0197 -0.062,-0.0289 -0.0785,-0.0162 -0.0587,-0.0249 -0.0751,-0.0332 -0.0561,-0.0307 -0.0715,-0.0272 -0.0686,-0.0205 -0.0504,-0.0401 -0.0646,-0.0334 -0.0625,-0.0469 -0.0594,-0.0363 -0.0572,-0.0363 -0.0549,-0.0493 -0.0516,-0.0562 -0.0664,-0.0362 -0.0536,-0.0527 -0.0424,-0.0482 -0.0571,-0.0476 -0.0363,-0.0676 -0.05,-0.057 -0.036,-0.0492 -0.0427,-0.051 -0.039,-0.0746 -0.0421,-0.046 -0.0487,-0.0681 -0.0354,-0.0627 -0.0238,-0.0596 -0.0267,-0.0632 -0.0314,-0.0693 -0.0361,-0.0719 -0.0244,-0.0662 -0.01,-0.0715 -0.0223,-0.0694 -0.0114,-0.068 -0.0311,-0.0685 -0.009,-0.067 -0.006,-0.0804 -0.0182,-0.0722 0.004,-0.0663 -0.008,-0.0613 0.003,-0.0786 4e-5,-0.066 -0.003,-0.082 0.009,-0.0606 -0.004,-0.0751 0.0183,-0.0687 0.006,-0.0785 0.008,-0.0781 0.0315,-0.0612 0.0124,-0.0726 0.0224,-0.0589 0.0101,-0.0707 0.0245,-0.0708 0.0362,-0.0754 0.0315,-0.0568 0.0278,-0.0668 0.023,-0.0648 0.0364,-0.0705 0.0478,-0.0596 0.0363,-0.0591 0.0287,-0.0635 0.0428,-0.0462 0.0474,-0.0688 0.0569,-0.0524 0.0364,-0.0555 0.0572,-0.0477 0.0425,-0.0535 0.0527,-0.0495 0.0665,-0.049 0.0517,-0.0317 0.0549,-0.0466 0.0581,-0.0438 0.0604,-0.0459 0.0616,-0.0402 0.0646,-0.0354 0.0504,-0.0333 0.0687,-0.0251 0.0725,-0.0284 0.0552,-0.03 0.0752,-0.0259 0.0587,-0.0387 0.0785,-0.0149 0.062,-0.0228 0.073,-0.006 0.064,-0.0215 0.0826,-0.021 0.0658,-6e-5 0.0671,-0.02 0.0664,-0.003 0.0847,-0.006 0.0608,-0.001 0.0839,5e-5 0.0685,0.009 0.0665,-0.005 0.0682,0.0188 0.0671,0.004 0.0821,0.008 0.0758,0.0235 0.0631,0.015 0.0644,0.003 0.0782,0.0367 0.0604,0.01 0.0769,0.0348 0.0579,0.0141 0.0724,0.0381 0.0543,0.0272 0.0686,0.0396 0.0676,0.0229 0.0646,0.0334 0.0625,0.0469 0.0603,0.0447 0.0572,0.0359 0.054,0.0414 0.0525,0.0469 0.0483,0.0459 0.064,0.0509 0.0502,0.0575 0.0389,0.055 0.0501,0.0413 0.05,0.057 0.0369,0.0557 0.0427,0.0701 0.0381,0.0475 0.0439,0.0634 0.0305,0.0583 0.0345,0.0719 0.041,0.06 0.0267,0.0651 0.0323,0.0753 0.0189,0.0543 0.0235,0.0793 0.0281,0.0623 0.0223,0.0656 0.0105,0.0811 0.0142,0.054 0.0273,0.0787 0.006,0.0766 9e-5,0.0647 0.006,0.0664 0.008,0.0785 0.005,0.0726 -9.7e-4,0.0715 -0.004,0.0673 -0.009,0.074 -0.006,0.0769 -2e-4,0.0609 -0.005,0.0692 -0.0274,0.0794 -0.0146,0.0718 -0.0115,0.0633 -0.0224,0.078 -0.0282,0.0609 -0.0236,0.0772 -0.019,0.0582 -0.0324,0.0679 -0.0278,0.0645 -0.0402,0.0648 -0.0355,0.0613 -0.0306,0.0615 -0.044,0.0671 -0.0391,0.0462 -0.0419,0.0713 -0.037,0.0498 -0.05,0.0575 -0.0501,0.0455 -0.039,0.0575 -0.0502,0.0442 -0.0641,0.0605 -0.0483,0.0374 z"
       inkscape:transform-center-x="0.0024241464"
       inkscape:transform-center-y="0.0011130073" />
    <g
       id="g5570"
       transform="matrix(0.50217477,0,0,0.50217477,-107.10333,134.99239)">
      <g
         word-spacing="normal"
         letter-spacing="normal"
         font-size-adjust="none"
         font-stretch="normal"
         font-weight="normal"
         font-variant="normal"
         font-style="normal"
         stroke-miterlimit="10.433"
         xml:space="preserve"
         transform="matrix(1.0629921,0,0,-1.0629921,-186.02362,789.27165)"
         id="g5572"
         style="font-style:normal;font-variant:normal;font-weight:normal;font-stretch:normal;letter-spacing:normal;word-spacing:normal;text-anchor:start;fill:none;stroke:#000000;stroke-linecap:butt;stroke-linejoin:miter;stroke-miterlimit:10.43299961;stroke-opacity:1;stroke-dasharray:none;stroke-dashoffset:0"><path
           id="path5574"
           d="m 472.64,421.04 0.03,0.13 0.03,0.15 0.05,0.17 0.04,0.18 0.06,0.19 0.06,0.21 0.06,0.21 0.07,0.23 0.08,0.23 0.09,0.24 0.1,0.25 0.1,0.24 0.11,0.25 0.12,0.25 0.13,0.25 0.14,0.25 0.15,0.24 0.15,0.24 0.17,0.23 0.18,0.22 0.18,0.22 0.2,0.2 0.21,0.19 0.22,0.18 0.23,0.16 0.25,0.14 0.12,0.07 0.13,0.06 0.13,0.05 0.14,0.05 0.14,0.05 0.14,0.04 0.14,0.03 0.15,0.03 0.15,0.02 0.16,0.02 0.16,0.01 0.16,0 c 0.25,0 1.45,0 2.49,-0.65 -1.4,-0.25 -2.39,-1.49 -2.39,-2.68 0,-0.8 0.54,-1.75 1.89,-1.75 1.1,0 2.69,0.9 2.69,2.89 0,2.59 -2.94,3.29 -4.63,3.29 -2.89,0 -4.64,-2.64 -5.23,-3.79 -1.25,3.29 -3.94,3.79 -5.38,3.79 -5.18,0 -8.02,-6.43 -8.02,-7.67 0,-0.5 0.5,-0.5 0.6,-0.5 0.39,0 0.54,0.1 0.64,0.54 1.7,5.29 4.98,6.53 6.68,6.53 0.95,0 2.69,-0.45 2.69,-3.33 0,-1.55 -0.85,-4.89 -2.69,-11.86 -0.8,-3.09 -2.54,-5.18 -4.73,-5.18 -0.3,0 -1.45,0 -2.49,0.65 1.24,0.25 2.34,1.29 2.34,2.69 0,1.34 -1.1,1.74 -1.85,1.74 -1.49,0 -2.73,-1.3 -2.73,-2.89 0,-2.29 2.48,-3.29 4.68,-3.29 3.28,0 5.08,3.49 5.23,3.79 0.6,-1.85 2.39,-3.79 5.38,-3.79 5.13,0 7.97,6.43 7.97,7.68 0,0.49 -0.45,0.49 -0.6,0.49 -0.45,0 -0.55,-0.2 -0.65,-0.55 -1.64,-5.33 -5.03,-6.52 -6.62,-6.52 -1.95,0 -2.74,1.59 -2.74,3.29 0,1.09 0.29,2.19 0.85,4.38 z"
           inkscape:connector-curvature="0"
           style="fill:#000000;stroke-width:0" /><path
           id="path5576"
           d="m 502.45,429.72 v 1.25 h -3.88 v 15.56 c 0,0.73 0,0.97 -0.76,0.97 -0.42,0 -0.56,0 -0.91,-0.49 l -11.54,-16.04 v -1.25 h 10.25 l 0.25,1.25 h -9.21 l 9.21,12.76 v -12.76 l -0.25,-1.25 v -2.86 c 0,-1.19 0,-1.61 -2.82,-1.61 h -0.95 V 424 h 10.5 v 1.25 h -0.94 c -2.83,0 -2.83,0.42 -2.83,1.61 v 2.86 z"
           inkscape:connector-curvature="0"
           style="fill:#000000;stroke-width:0" /><path
           id="path5578"
           d="m 513.4,416.06 -0.01,0.02 0,0.01 0,0.02 0,0.02 0,0.02 -0.01,0.02 0,0.01 -0.01,0.02 0,0.02 -0.01,0.02 -0.01,0.02 -0.01,0.02 -0.01,0.02 -0.01,0.02 -0.01,0.01 -0.01,0.02 -0.02,0.02 -0.01,0.01 -0.02,0.02 -0.01,0.01 -0.02,0.02 -0.02,0.01 -0.02,0.01 -0.02,0.02 -0.02,0.01 -0.03,0.01 -0.02,0 -0.03,0.01 -0.01,0 -0.02,0 -0.01,0.01 -0.02,0 -0.01,0 -0.02,0 -0.01,0 -0.02,0 c -0.24,0 -0.31,-0.07 -0.63,-0.42 l -2.54,-2.68 c -0.32,0.42 -2.27,3.1 -6.56,3.1 -8.47,0 -16.77,-7.49 -16.77,-15.37 0,-5.41 4.11,-9.84 10.81,-9.84 3.07,0 6.31,0.81 8.13,2.76 0.34,-0.77 1.28,-2.02 1.7,-2.02 0.32,0 0.39,0.14 0.56,0.87 l 0.66,2.68 c 0.18,0.63 0.66,2.72 0.77,3.14 0.42,1.57 0.45,1.6 2.51,1.64 0.24,0 0.77,0 0.77,0.73 0,0.35 -0.25,0.53 -0.53,0.53 h -9.48 c -0.24,0 -0.77,0 -0.77,-0.77 0,-0.49 0.39,-0.49 1.26,-0.49 0.66,0 1.36,0 2.02,-0.07 1.12,-0.1 1.15,-0.25 1.15,-0.66 0,-0.14 0,-0.21 -0.24,-1.12 -0.24,-0.98 -0.63,-2.54 -0.77,-2.89 -1.01,-2.13 -4.25,-3.07 -6.97,-3.07 -3.49,0 -8.06,1.67 -8.06,7.57 0,3.73 1.75,8.4 4.33,11.01 3.59,3.56 7.32,4.12 9.27,4.12 4.05,0 6.42,-2.93 6.42,-6.84 0,-0.97 -0.11,-1.22 -0.11,-1.43 0,-0.45 0.46,-0.45 0.63,-0.45 0.56,0 0.56,0.1 0.73,0.77 z"
           inkscape:connector-curvature="0"
           style="fill:#000000;stroke-width:0" /></g>    </g>
    <path
       transform="translate(-162.55159,96.149594)"
       sodipodi:type="star"
       style="fill:#ff0000;fill-opacity:1;stroke:none"
       id="path2985-0"
       sodipodi:sides="200"
       sodipodi:cx="254.28571"
       sodipodi:cy="319.50504"
       sodipodi:r1="2.2868302"
       sodipodi:r2="17.200155"
       sodipodi:arg1="0.89605541"
       sodipodi:arg2="0.91176337"
       inkscape:flatsided="true"
       inkscape:rounded="0"
       inkscape:randomized="0.0005"
       d="m 255.71662,321.29853 -0.054,0.0373 -0.0581,0.0423 -0.0604,0.0474 -0.0625,0.0323 -0.0646,0.0373 -0.0676,0.0294 -0.0515,0.0423 -0.0715,0.021 -0.0724,0.0319 -0.0589,0.018 -0.076,0.0368 -0.0604,0.0214 -0.0629,0.0182 -0.0798,0.0183 -0.0744,0.006 -0.0645,0.014 -0.0667,0.009 -0.0833,0.009 -0.0673,0.014 -0.0666,0.014 -0.0685,-0.01 -0.0771,0.001 -0.0676,0.003 -0.0675,-0.005 -0.0845,-0.0128 -0.067,2.6e-4 -0.0649,-0.0109 -0.0826,-0.0234 -0.064,-0.006 -0.073,-0.0197 -0.062,-0.0289 -0.0785,-0.0162 -0.0587,-0.0249 -0.0751,-0.0332 -0.0561,-0.0307 -0.0715,-0.0272 -0.0686,-0.0205 -0.0504,-0.0401 -0.0646,-0.0334 -0.0625,-0.0469 -0.0594,-0.0363 -0.0572,-0.0363 -0.0549,-0.0493 -0.0516,-0.0562 -0.0664,-0.0362 -0.0536,-0.0527 -0.0424,-0.0482 -0.0571,-0.0476 -0.0363,-0.0676 -0.05,-0.057 -0.036,-0.0492 -0.0427,-0.051 -0.039,-0.0746 -0.0421,-0.046 -0.0487,-0.0681 -0.0354,-0.0627 -0.0238,-0.0596 -0.0267,-0.0632 -0.0314,-0.0693 -0.0361,-0.0719 -0.0244,-0.0662 -0.01,-0.0715 -0.0223,-0.0694 -0.0114,-0.068 -0.0311,-0.0685 -0.009,-0.067 -0.006,-0.0804 -0.0182,-0.0722 0.004,-0.0663 -0.008,-0.0613 0.003,-0.0786 4e-5,-0.066 -0.003,-0.082 0.009,-0.0606 -0.004,-0.0751 0.0183,-0.0687 0.006,-0.0785 0.008,-0.0781 0.0315,-0.0612 0.0124,-0.0726 0.0224,-0.0589 0.0101,-0.0707 0.0245,-0.0708 0.0362,-0.0754 0.0315,-0.0568 0.0278,-0.0668 0.023,-0.0648 0.0364,-0.0705 0.0478,-0.0596 0.0363,-0.0591 0.0287,-0.0635 0.0428,-0.0462 0.0474,-0.0688 0.0569,-0.0524 0.0364,-0.0555 0.0572,-0.0477 0.0425,-0.0535 0.0527,-0.0495 0.0665,-0.049 0.0517,-0.0317 0.0549,-0.0466 0.0581,-0.0438 0.0604,-0.0459 0.0616,-0.0402 0.0646,-0.0354 0.0504,-0.0333 0.0687,-0.0251 0.0725,-0.0284 0.0552,-0.03 0.0752,-0.0259 0.0587,-0.0387 0.0785,-0.0149 0.062,-0.0228 0.073,-0.006 0.064,-0.0215 0.0826,-0.021 0.0658,-6e-5 0.0671,-0.02 0.0664,-0.003 0.0847,-0.006 0.0608,-0.001 0.0839,5e-5 0.0685,0.009 0.0665,-0.005 0.0682,0.0188 0.0671,0.004 0.0821,0.008 0.0758,0.0235 0.0631,0.015 0.0644,0.003 0.0782,0.0367 0.0604,0.01 0.0769,0.0348 0.0579,0.0141 0.0724,0.0381 0.0543,0.0272 0.0686,0.0396 0.0676,0.0229 0.0646,0.0334 0.0625,0.0469 0.0603,0.0447 0.0572,0.0359 0.054,0.0414 0.0525,0.0469 0.0483,0.0459 0.064,0.0509 0.0502,0.0575 0.0389,0.055 0.0501,0.0413 0.05,0.057 0.0369,0.0557 0.0427,0.0701 0.0381,0.0475 0.0439,0.0634 0.0305,0.0583 0.0345,0.0719 0.041,0.06 0.0267,0.0651 0.0323,0.0753 0.0189,0.0543 0.0235,0.0793 0.0281,0.0623 0.0223,0.0656 0.0105,0.0811 0.0142,0.054 0.0273,0.0787 0.006,0.0766 9e-5,0.0647 0.006,0.0664 0.008,0.0785 0.005,0.0726 -9.7e-4,0.0715 -0.004,0.0673 -0.009,0.074 -0.006,0.0769 -2e-4,0.0609 -0.005,0.0692 -0.0274,0.0794 -0.0146,0.0718 -0.0115,0.0633 -0.0224,0.078 -0.0282,0.0609 -0.0236,0.0772 -0.019,0.0582 -0.0324,0.0679 -0.0278,0.0645 -0.0402,0.0648 -0.0355,0.0613 -0.0306,0.0615 -0.044,0.0671 -0.0391,0.0462 -0.0419,0.0713 -0.037,0.0498 -0.05,0.0575 -0.0501,0.0455 -0.039,0.0575 -0.0502,0.0442 -0.0641,0.0605 -0.0483,0.0374 z"
       inkscape:transform-center-x="0.0024241464"
       inkscape:transform-center-y="0.0011130073" />
    <path
       style="fill:none;stroke:#000000;stroke-width:1px;stroke-linecap:butt;stroke-linejoin:miter;stroke-opacity:1;marker-end:url(#Arrow2Lend)"
       d="m 82.579971,397.53079 -1.010153,-2.90418"
       id="path5639"
       inkscape:connector-curvature="0" />
    <path
       style="fill:none;stroke:#000000;stroke-width:1px;stroke-linecap:butt;stroke-linejoin:miter;stroke-opacity:1;marker-end:url(#Arrow2Lend)"
       d="m 158.60385,283.01522 3.0082,-0.31143"
       id="path5825"
       inkscape:connector-curvature="0" />
  </g>
</svg>
