<?xml version="1.0" encoding="UTF-8" standalone="no"?>
<!-- Created with Inkscape (http://www.inkscape.org/) -->

<svg
   xmlns:dc="http://purl.org/dc/elements/1.1/"
   xmlns:cc="http://creativecommons.org/ns#"
   xmlns:rdf="http://www.w3.org/1999/02/22-rdf-syntax-ns#"
   xmlns:svg="http://www.w3.org/2000/svg"
   xmlns="http://www.w3.org/2000/svg"
   xmlns:sodipodi="http://sodipodi.sourceforge.net/DTD/sodipodi-0.dtd"
   xmlns:inkscape="http://www.inkscape.org/namespaces/inkscape"
   width="210mm"
   height="297mm"
   id="svg2"
   version="1.1"
   inkscape:version="0.48.4 r9939"
   sodipodi:docname="Neues Dokument 1">
  <sodipodi:namedview
     id="base"
     pagecolor="#ffffff"
     bordercolor="#666666"
     borderopacity="1.0"
     inkscape:pageopacity="0.0"
     inkscape:pageshadow="2"
     inkscape:zoom="1.4"
     inkscape:cx="323.10151"
     inkscape:cy="780.32006"
     inkscape:document-units="px"
     inkscape:current-layer="layer1"
     showgrid="false"
     inkscape:window-width="1920"
     inkscape:window-height="1138"
     inkscape:window-x="-8"
     inkscape:window-y="-8"
     inkscape:window-maximized="1"
     inkscape:snap-global="false"
     inkscape:snap-bbox="true"
     inkscape:bbox-paths="true"
     inkscape:bbox-nodes="true"
     inkscape:snap-bbox-edge-midpoints="true"
     inkscape:snap-bbox-midpoints="true"
     inkscape:object-paths="true"
     inkscape:snap-intersection-paths="true"
     inkscape:object-nodes="true"
     inkscape:snap-smooth-nodes="true"
     inkscape:snap-midpoints="true"
     inkscape:snap-object-midpoints="true"
     inkscape:snap-center="true" />
  <defs
     id="defs4">
    <marker
       inkscape:stockid="Arrow2Lend"
       orient="auto"
       refY="0.0"
       refX="0.0"
       id="Arrow2Lend"
       style="overflow:visible;">
      <path
         id="path3856"
         style="fill-rule:evenodd;stroke-width:0.62500000;stroke-linejoin:round;"
         d="M 8.7185878,4.0337352 L -2.2072895,0.016013256 L 8.7185884,-4.0017078 C 6.9730900,-1.6296469 6.9831476,1.6157441 8.7185878,4.0337352 z "
         transform="scale(1.1) rotate(180) translate(1,0)" />
    </marker>
  </defs>
  <metadata
     id="metadata7">
    <rdf:RDF>
      <cc:Work
         rdf:about="">
        <dc:format>image/svg+xml</dc:format>
        <dc:type
           rdf:resource="http://purl.org/dc/dcmitype/StillImage" />
        <dc:title></dc:title>
      </cc:Work>
    </rdf:RDF>
  </metadata>
  <g
     inkscape:label="Ebene 1"
     inkscape:groupmode="layer"
     id="layer1">
    <path
       sodipodi:type="star"
       style="fill:none;stroke:#ff0000;stroke-width:0.99921262;stroke-linecap:round;stroke-linejoin:bevel;stroke-miterlimit:4;stroke-opacity:1;stroke-dasharray:none;stroke-dashoffset:0"
       id="path2985"
       sodipodi:sides="200"
       sodipodi:cx="213.57143"
       sodipodi:cy="121.6479"
       sodipodi:r1="182.48427"
       sodipodi:r2="182.46176"
       sodipodi:arg1="1.0001644"
       sodipodi:arg2="1.0158724"
       inkscape:flatsided="true"
       inkscape:rounded="0"
       inkscape:randomized="0"
       d="m 312.14285,275.21933 -4.87243,3.02042 -4.96491,2.86589 -5.05247,2.70852 -5.13506,2.54849 -5.21257,2.38593 -5.28494,2.22102 -5.35211,2.05392 -5.41397,1.8848 -5.47051,1.7138 -5.52164,1.54113 -5.56732,1.36693 -5.60751,1.19138 -5.64217,1.01466 -5.67125,0.83693 -5.69475,0.65838 -5.71261,0.47918 -5.72485,0.29951 -5.73143,0.11954 -5.73236,-0.0606 -5.72762,-0.24057 -5.71725,-0.42037 -5.70122,-0.59975 -5.67956,-0.77853 -5.65231,-0.95654 -5.61948,-1.13362 -5.58109,-1.30957 -5.53721,-1.48422 -5.48785,-1.65743 -5.43308,-1.82898 -5.37296,-1.99874 -5.30752,-2.16652 -5.23684,-2.33217 -5.16101,-2.4955 -5.08008,-2.65639 -4.99413,-2.81465 -4.90326,-2.97012 -4.80754,-3.12268 -4.70709,-3.27214 -4.60198,-3.41838 -4.492342,-3.56125 -4.37826,-3.7006 -4.25986,-3.83629 -4.137258,-3.96821 -4.010572,-4.09621 -3.879928,-4.22016 -3.745456,-4.33994 -3.607286,-4.45546 -3.465557,-4.56656 -3.320407,-4.67317 -3.171982,-4.77515 -3.020425,-4.87244 -2.865888,-4.9649 -2.708522,-5.05247 -2.548484,-5.13506 -2.38593,-5.21257 -2.221022,-5.28495 -2.053922,-5.3521 -1.884795,-5.41397 -1.713807,-5.47051 -1.54113,-5.52164 -1.36693,-5.56732 -1.191381,-5.60752 -1.014658,-5.64216 -0.836932,-5.67126 -0.658381,-5.69474 -0.47918,-5.71262 -0.299505,-5.72484 -0.119536,-5.73143 0.06055,-5.73236 0.24058,-5.72763 0.420369,-5.71724 0.599745,-5.701218 0.778529,-5.679566 0.956544,-5.65231 1.133616,-5.619475 1.309568,-5.581094 1.484228,-5.537206 1.657424,-5.487852 1.828984,-5.433084 1.998738,-5.372954 2.166521,-5.30752 2.332165,-5.236849 2.495507,-5.16101 2.656387,-5.080077 2.814646,-4.994132 2.970126,-4.903257 3.122676,-4.807544 3.272143,-4.707086 3.418382,-4.601983 3.561247,-4.4923376 3.700598,-4.3782599 3.836296,-4.2598609 3.968208,-4.1372579 4.096205,-4.0105717 4.220159,-3.879928 4.339947,-3.745456 4.455457,-3.607286 4.56656,-3.465557 4.67317,-3.320407 4.77515,-3.171982 4.87244,-3.020425 4.9649,-2.865888 5.05247,-2.708522 5.13506,-2.548484 5.21257,-2.38593 5.28495,-2.221022 5.3521,-2.053922 5.41397,-1.884795 5.47051,-1.713807 5.52164,-1.54113 5.56732,-1.36693 5.60751,-1.191381 5.64217,-1.014658 5.67126,-0.836932 5.69474,-0.658381 5.71262,-0.47918 5.72484,-0.299505 5.73143,-0.119536 5.73236,0.06055 5.72763,0.24058 5.71724,0.420369 5.70122,0.599745 5.67956,0.778529 5.65231,0.956544 5.61948,1.133616 5.58109,1.309568 5.53721,1.484228 5.48785,1.657424 5.43309,1.828984 5.37295,1.998738 5.30752,2.166521 5.23685,2.332165 5.16101,2.495507 5.08007,2.656387 4.99414,2.814646 4.90325,2.970126 4.80755,3.122676 4.70708,3.272143 4.60199,3.418382 4.49233,3.561247 4.37826,3.700598 4.25987,3.836296 4.13725,3.9682082 4.01058,4.0962048 3.87992,4.22015861 3.74546,4.33994769 3.60728,4.4554538 3.46556,4.5665629 3.32041,4.673165 3.17198,4.775156 3.02043,4.872434 2.86588,4.964904 2.70853,5.052474 2.54848,5.135057 2.38593,5.212573 2.22102,5.284945 2.05392,5.352101 1.8848,5.413975 1.71381,5.470507 1.54113,5.521639 1.36693,5.567323 1.19138,5.607512 1.01465,5.642167 0.83694,5.671255 0.65838,5.694746 0.47918,5.71261 0.2995,5.72485 0.11954,5.73143 -0.0605,5.73236 -0.24058,5.72762 -0.42037,5.71725 -0.59975,5.70121 -0.77853,5.67957 -0.95654,5.65231 -1.13362,5.61948 -1.30956,5.58109 -1.48423,5.53721 -1.65743,5.48785 -1.82898,5.43308 -1.99874,5.37296 -2.16652,5.30752 -2.33216,5.23684 -2.49551,5.16101 -2.65639,5.08008 -2.81464,4.99413 -2.97013,4.90326 -3.12268,4.80754 -3.27214,4.70709 -3.41838,4.60198 -3.56125,4.49234 -3.7006,4.37826 -3.83629,4.25986 -3.96821,4.13726 -4.0962,4.01057 -4.22016,3.87993 -4.33995,3.74546 -4.45545,3.60728 -4.56657,3.46556 -4.67316,3.32041 z"
       transform="matrix(0.89100652,-0.45399049,1.426886,0.39529155,10.414483,315.5209)" />
    <path
       sodipodi:type="star"
       style="fill:none;stroke:#0000ff;stroke-width:5;stroke-linecap:round;stroke-linejoin:bevel;stroke-miterlimit:4;stroke-opacity:1;stroke-dasharray:5, 120;stroke-dashoffset:0"
       id="path3755"
       sodipodi:sides="200"
       sodipodi:cx="352.14285"
       sodipodi:cy="275.21933"
       sodipodi:r1="137.28601"
       sodipodi:r2="137.26907"
       sodipodi:arg1="0.64141995"
       sodipodi:arg2="0.65712791"
       inkscape:flatsided="true"
       inkscape:rounded="0"
       inkscape:randomized="0"
       d="m 462.14285,357.36219 -2.63445,3.41465 -2.7404,3.33021 -2.84366,3.2425 -2.9441,3.15157 -3.04164,3.05754 -3.13619,2.9605 -3.22762,2.86052 -3.31589,2.75773 -3.40087,2.65221 -3.4825,2.54408 -3.56069,2.43344 -3.63538,2.32039 -3.70646,2.20505 -3.7739,2.08755 -3.83761,1.96798 -3.89753,1.84646 -3.9536,1.72312 -4.00578,1.59809 -4.054,1.47148 -4.09822,1.34341 -4.13839,1.21403 -4.17449,1.08343 -4.20646,0.95177 -4.23427,0.81918 -4.25792,0.68577 -4.27736,0.55168 -4.29258,0.41706 -4.30356,0.28202 -4.31029,0.14671 -4.31278,0.0112 -4.311,-0.12423 -4.30497,-0.25959 -4.29469,-0.39467 -4.28018,-0.52938 -4.26143,-0.66357 -4.23849,-0.79709 -4.21137,-0.92983 -4.18007,-1.06166 -4.14467,-1.19243 -4.10517,-1.32203 -4.06161,-1.45032 -4.01406,-1.57719 -3.96253,-1.70249 -3.9071,-1.82612 -3.84782,-1.94794 -3.78473,-2.06784 -3.71791,-2.18571 -3.64742,-2.30141 -3.57333,-2.41484 -3.49571,-2.52589 -3.41466,-2.63445 -3.33021,-2.7404 -3.2425,-2.84366 -3.15157,-2.9441 -3.05754,-3.04165 -2.96049,-3.13618 -2.86052,-3.22763 -2.75773,-3.31588 -2.65222,-3.40087 -2.54408,-3.4825 -2.43343,-3.5607 -2.32039,-3.63537 -2.20506,-3.70646 -2.08755,-3.7739 -1.96797,-3.83761 -1.84647,-3.89753 -1.72312,-3.9536 -1.59809,-4.00578 -1.47148,-4.054 -1.34341,-4.09822 -1.21402,-4.1384 -1.08343,-4.17448 -0.95178,-4.20646 -0.81917,-4.23428 -0.68577,-4.25792 -0.55169,-4.27735 -0.41706,-4.29258 -0.28202,-4.30356 -0.1467,-4.3103 -0.0113,-4.31277 0.12424,-4.311 0.25958,-4.30497 0.39467,-4.29469 0.52939,-4.28018 0.66356,-4.26144 0.79709,-4.23849 0.92983,-4.21136 1.06166,-4.18008 1.19243,-4.14466 1.32203,-4.10517 1.45032,-4.06162 1.57719,-4.01405 1.70249,-3.96253 1.82612,-3.90711 1.94794,-3.84781 2.06785,-3.78473 2.1857,-3.71791 2.30141,-3.64742 2.41484,-3.57333 2.52589,-3.49572 2.63445,-3.41465 2.74041,-3.33021 2.84365,-3.2425 2.94411,-3.15157 3.04164,-3.05754 3.13618,-2.9605 3.22763,-2.86052 3.31588,-2.75773 3.40087,-2.65221 3.48251,-2.54408 3.56069,-2.43344 3.63537,-2.32039 3.70647,-2.20505 3.7739,-2.08755 3.8376,-1.96798 3.89753,-1.84646 3.95361,-1.72312 4.00578,-1.5981 4.05399,-1.47147 4.09822,-1.34341 4.1384,-1.21403 4.17448,-1.08343 4.20646,-0.95177 4.23428,-0.81918 4.25792,-0.68577 4.27736,-0.55168 4.29257,-0.41706 4.30356,-0.28202 4.3103,-0.14671 4.31277,-0.0112 4.311,0.12423 4.30497,0.25959 4.2947,0.39467 4.28017,0.52938 4.26144,0.66357 4.23849,0.79709 4.21136,0.92983 4.18008,1.06165 4.14467,1.19244 4.10516,1.32203 4.06162,1.45032 4.01405,1.57719 3.96254,1.70249 3.9071,1.82612 3.84781,1.94794 3.78473,2.06784 3.71791,2.18571 3.64742,2.30141 3.57333,2.41484 3.49572,2.52589 3.41465,2.63445 3.33022,2.7404 3.24249,2.84366 3.15157,2.9441 3.05755,3.04165 2.96049,3.13618 2.86052,3.22763 2.75773,3.31588 2.65221,3.40087 2.54408,3.4825 2.43344,3.5607 2.32039,3.63537 2.20506,3.70646 2.08754,3.7739 1.96798,3.83761 1.84646,3.89753 1.72313,3.9536 1.59809,4.00578 1.47148,4.054 1.34341,4.09822 1.21402,4.1384 1.08343,4.17448 0.95177,4.20646 0.81918,4.23428 0.68577,4.25792 0.55169,4.27735 0.41706,4.29258 0.28202,4.30356 0.1467,4.31029 0.0112,4.31278 -0.12423,4.311 -0.25958,4.30497 -0.39468,4.29469 -0.52938,4.28018 -0.66356,4.26144 -0.79709,4.23849 -0.92984,4.21136 -1.06165,4.18008 -1.19243,4.14466 -1.32203,4.10517 -1.45033,4.06162 -1.57718,4.01405 -1.7025,3.96253 -1.82611,3.90711 -1.94795,3.84781 -2.06784,3.78473 -2.18571,3.71791 -2.30141,3.64742 -2.41484,3.57333 z"
       transform="matrix(0.89100652,-0.45399049,1.426886,0.39529155,-332.56524,317.11892)" />
    <g
       transform="matrix(0.37110089,0,0,0.37110089,-19.59268,192.6621)"
       id="g3764"
       style="fill:#ff0000;fill-opacity:1">
      <g
         style="font-style:normal;font-variant:normal;font-weight:normal;font-stretch:normal;letter-spacing:normal;word-spacing:normal;text-anchor:start;fill:#ff0000;fill-opacity:1;stroke:#000000;stroke-linecap:butt;stroke-linejoin:miter;stroke-miterlimit:10.43299961;stroke-opacity:1;stroke-dasharray:none;stroke-dashoffset:0"
         id="content"
         transform="matrix(1.0629921,0,0,-1.0629921,-186.02362,789.27165)"
         xml:space="preserve"
         stroke-miterlimit="10.433"
         font-style="normal"
         font-variant="normal"
         font-weight="normal"
         font-stretch="normal"
         font-size-adjust="none"
         letter-spacing="normal"
         word-spacing="normal"><path
           style="fill:#ff0000;fill-opacity:1;stroke-width:0"
           inkscape:connector-curvature="0"
           d="m 483.6,439.87 h -25.96 v -1.54 h 1.2 c 3.84,0 3.93,-0.55 3.93,-2.34 v -26.1 c 0,-1.8 -0.09,-2.35 -3.93,-2.35 h -1.2 V 406 h 15.95 v 1.54 h -1.65 c -4.73,0 -4.73,0.65 -4.73,2.39 v 26.41 c 0,1.64 0.1,1.99 2.44,1.99 h 5.13 c 7.12,0 8.17,-2.94 8.97,-9.67 h 1.24 z"
           id="path3767" /><path
           style="fill:#ff0000;fill-opacity:1;stroke-width:0"
           inkscape:connector-curvature="0"
           d="m 495.68,402.7 -0.03,-0.12 -0.04,-0.11 -0.05,-0.12 -0.04,-0.13 -0.06,-0.12 -0.06,-0.13 -0.06,-0.12 -0.07,-0.13 -0.07,-0.13 -0.07,-0.13 -0.08,-0.13 -0.09,-0.12 -0.09,-0.13 -0.09,-0.12 -0.1,-0.12 -0.1,-0.12 -0.11,-0.12 -0.11,-0.11 -0.11,-0.1 -0.12,-0.1 -0.12,-0.1 -0.13,-0.09 -0.13,-0.08 -0.13,-0.08 -0.14,-0.07 -0.14,-0.06 -0.15,-0.05 -0.15,-0.05 -0.15,-0.03 -0.16,-0.03 -0.16,-0.02 -0.16,0 c -0.11,0 -1.16,0 -1.89,0.49 1.43,0.45 1.53,1.7 1.53,1.92 0,0.76 -0.59,1.28 -1.39,1.28 -0.98,0 -1.99,-0.83 -1.99,-2.12 0,-1.75 1.96,-2.55 3.67,-2.55 1.6,0 3.03,1.01 3.9,2.48 0.84,-1.85 2.76,-2.48 4.15,-2.48 4.01,0 6.14,4.36 6.14,5.33 0,0.46 -0.46,0.46 -0.56,0.46 -0.49,0 -0.52,-0.17 -0.67,-0.59 -0.73,-2.41 -2.82,-4.22 -4.77,-4.22 -1.4,0 -2.13,0.94 -2.13,2.26 0,0.91 0.84,4.08 1.81,7.95 0.7,2.69 2.27,3.56 3.42,3.56 0.07,0 1.16,0 1.89,-0.49 -1.12,-0.31 -1.54,-1.29 -1.54,-1.91 0,-0.77 0.59,-1.3 1.4,-1.3 0.8,0 1.95,0.67 1.95,2.13 0,1.96 -2.23,2.55 -3.63,2.55 -1.74,0 -3.14,-1.15 -3.9,-2.48 -0.63,1.43 -2.23,2.48 -4.19,2.48 -3.9,0 -6.13,-4.29 -6.13,-5.34 0,-0.45 0.48,-0.45 0.59,-0.45 0.45,0 0.49,0.14 0.66,0.59 0.87,2.72 3.07,4.22 4.78,4.22 1.15,0 2.09,-0.63 2.09,-2.3 0,-0.7 -0.42,-2.44 -0.73,-3.63 z"
           id="path3769" /><path
           style="fill:#ff0000;fill-opacity:1;stroke-width:0"
           inkscape:connector-curvature="0"
           d="m 512.49,391.09 -0.02,-0.06 -0.01,-0.06 -0.02,-0.05 -0.01,-0.05 -0.02,-0.05 -0.01,-0.05 -0.02,-0.04 -0.01,-0.04 -0.02,-0.04 -0.02,-0.04 -0.02,-0.03 -0.02,-0.03 -0.02,-0.03 -0.03,-0.03 -0.03,-0.02 -0.03,-0.03 -0.03,-0.02 -0.04,-0.02 -0.04,-0.01 -0.04,-0.02 -0.04,-0.01 -0.05,-0.02 -0.06,-0.01 -0.03,0 -0.03,-0.01 -0.03,0 -0.03,-0.01 -0.03,0 -0.04,0 -0.03,-0.01 -0.04,0 -0.04,0 -0.04,0 -0.04,-0.01 -0.04,0 -0.05,0 -0.04,0 -0.05,0 -0.05,0 -0.05,0 -0.05,0 c -0.38,0 -0.8,0 -0.8,-0.7 0,-0.27 0.22,-0.42 0.4,-0.42 0.37,0 0.82,0.07 1.22,0.07 h 2.71 c 0.43,0 0.95,-0.07 1.37,-0.07 0.33,0 0.63,0.17 0.63,0.7 0,0.42 -0.43,0.42 -0.77,0.42 -0.83,0 -1.38,0 -1.38,0.3 0,0.15 0.4,1.67 1.15,4.63 0.62,-0.84 1.62,-1.49 2.99,-1.49 v 0.84 c -2.07,0 -2.59,2.02 -2.59,2.22 0,0.12 0.05,0.27 0.07,0.4 l 1.07,4.23 c 0.1,0.4 0.13,0.45 0.55,0.95 1,1.09 2.27,1.79 3.46,1.79 1.02,0 2.2,-0.64 2.2,-2.54 0,-1.09 -0.58,-3.49 -1.27,-4.68 -1.05,-1.82 -2.54,-2.37 -3.49,-2.37 v -0.84 c 3.51,0 7,3.43 7,6.95 0,2.48 -1.82,4.33 -4.36,4.33 -1.94,0 -3.46,-1.27 -3.96,-1.74 -0.5,1.34 -1.99,1.74 -2.92,1.74 -0.84,0 -1.59,-0.4 -2.21,-1.37 -0.65,-1.05 -0.97,-2.34 -0.97,-2.47 0,-0.37 0.37,-0.37 0.52,-0.37 0.43,0 0.47,0.13 0.57,0.52 0.28,1 0.8,2.84 1.97,2.84 0.87,0 1.02,-0.82 1.02,-1.32 0,-0.35 -0.02,-0.45 -0.07,-0.64 z"
           id="path3771" /></g>    </g>
    <g
       id="g3795"
       transform="matrix(0.52570034,0,0,0.52570034,-75.826228,-1.8508539)"
       style="fill:#ff0000;fill-opacity:1;stroke:#ff0000;stroke-opacity:1">
      <g
         word-spacing="normal"
         letter-spacing="normal"
         font-size-adjust="none"
         font-stretch="normal"
         font-weight="normal"
         font-variant="normal"
         font-style="normal"
         stroke-miterlimit="10.433"
         xml:space="preserve"
         transform="matrix(1.0629921,0,0,-1.0629921,-186.02362,789.27165)"
         id="g3797"
         style="font-style:normal;font-variant:normal;font-weight:normal;font-stretch:normal;letter-spacing:normal;word-spacing:normal;text-anchor:start;fill:#ff0000;fill-opacity:1;stroke:#ff0000;stroke-linecap:butt;stroke-linejoin:miter;stroke-miterlimit:10.43299961;stroke-opacity:1;stroke-dasharray:none;stroke-dashoffset:0"><path
           id="path3799"
           d="m 472.64,421.04 0.03,0.13 0.03,0.15 0.05,0.17 0.04,0.18 0.06,0.19 0.06,0.21 0.06,0.21 0.07,0.23 0.08,0.23 0.09,0.24 0.1,0.25 0.1,0.24 0.11,0.25 0.12,0.25 0.13,0.25 0.14,0.25 0.15,0.24 0.15,0.24 0.17,0.23 0.18,0.22 0.18,0.22 0.2,0.2 0.21,0.19 0.22,0.18 0.23,0.16 0.25,0.14 0.12,0.07 0.13,0.06 0.13,0.05 0.14,0.05 0.14,0.05 0.14,0.04 0.14,0.03 0.15,0.03 0.15,0.02 0.16,0.02 0.16,0.01 0.16,0 c 0.25,0 1.45,0 2.49,-0.65 -1.4,-0.25 -2.39,-1.49 -2.39,-2.68 0,-0.8 0.54,-1.75 1.89,-1.75 1.1,0 2.69,0.9 2.69,2.89 0,2.59 -2.94,3.29 -4.63,3.29 -2.89,0 -4.64,-2.64 -5.23,-3.79 -1.25,3.29 -3.94,3.79 -5.38,3.79 -5.18,0 -8.02,-6.43 -8.02,-7.67 0,-0.5 0.5,-0.5 0.6,-0.5 0.39,0 0.54,0.1 0.64,0.54 1.7,5.29 4.98,6.53 6.68,6.53 0.95,0 2.69,-0.45 2.69,-3.33 0,-1.55 -0.85,-4.89 -2.69,-11.86 -0.8,-3.09 -2.54,-5.18 -4.73,-5.18 -0.3,0 -1.45,0 -2.49,0.65 1.24,0.25 2.34,1.29 2.34,2.69 0,1.34 -1.1,1.74 -1.85,1.74 -1.49,0 -2.73,-1.3 -2.73,-2.89 0,-2.29 2.48,-3.29 4.68,-3.29 3.28,0 5.08,3.49 5.23,3.79 0.6,-1.85 2.39,-3.79 5.38,-3.79 5.13,0 7.97,6.43 7.97,7.68 0,0.49 -0.45,0.49 -0.6,0.49 -0.45,0 -0.55,-0.2 -0.65,-0.55 -1.64,-5.33 -5.03,-6.52 -6.62,-6.52 -1.95,0 -2.74,1.59 -2.74,3.29 0,1.09 0.29,2.19 0.85,4.38 z"
           inkscape:connector-curvature="0"
           style="fill:#ff0000;fill-opacity:1;stroke:#ff0000;stroke-width:0;stroke-opacity:1" /><path
           id="path3801"
           d="m 486.61,394.75 -0.02,-0.09 -0.02,-0.09 -0.02,-0.08 -0.02,-0.08 -0.02,-0.07 -0.02,-0.07 -0.03,-0.07 -0.02,-0.06 -0.02,-0.06 -0.03,-0.06 -0.03,-0.05 -0.03,-0.05 -0.03,-0.05 -0.03,-0.04 -0.04,-0.04 -0.04,-0.04 -0.04,-0.03 -0.05,-0.03 -0.05,-0.03 -0.05,-0.03 -0.06,-0.02 -0.07,-0.02 -0.07,-0.02 -0.07,-0.02 -0.08,-0.01 -0.05,-0.01 -0.04,-0.01 -0.04,0 -0.05,-0.01 -0.05,0 -0.05,0 -0.05,-0.01 -0.06,0 -0.05,0 -0.06,0 -0.06,-0.01 -0.06,0 -0.06,0 -0.06,0 c -0.46,0 -0.95,0 -0.95,-0.73 0,-0.38 0.32,-0.53 0.49,-0.53 h 6.66 c 0.32,0 0.7,0.11 0.7,0.77 0,0.49 -0.49,0.49 -0.91,0.49 -0.76,0 -1.7,0 -1.7,0.42 0,0.17 0.24,1.08 0.38,1.6 0.42,1.85 0.9,3.73 1.29,5.2 0.42,-0.7 1.5,-2.06 3.59,-2.06 v 0.98 c -2.48,0 -3.1,2.68 -3.1,3.03 0,0.14 0.07,0.38 0.1,0.52 l 1.75,7.01 c 2.02,2.69 3.76,3.21 4.88,3.21 1.36,0 2.54,-1.01 2.54,-3.38 0,-1.43 -0.76,-4.99 -1.81,-7.01 -0.87,-1.71 -2.58,-3.38 -4.36,-3.38 v -0.98 c 4.25,0 8.96,4.71 8.96,9.9 0,4.08 -2.82,5.83 -5.23,5.83 -2.16,0 -4.01,-1.47 -4.95,-2.44 -0.59,1.99 -2.54,2.44 -3.59,2.44 -1.36,0 -2.2,-0.91 -2.76,-1.85 -0.69,-1.19 -1.25,-3.28 -1.25,-3.49 0,-0.45 0.49,-0.45 0.59,-0.45 0.49,0 0.52,0.11 0.77,1.05 0.52,2.02 1.18,3.76 2.54,3.76 0.91,0 1.16,-0.77 1.16,-1.71 0,-0.38 -0.07,-0.83 -0.11,-1.05 z"
           inkscape:connector-curvature="0"
           style="fill:#ff0000;fill-opacity:1;stroke:#ff0000;stroke-width:0;stroke-opacity:1" /></g>    </g>
    <path
       sodipodi:type="star"
       style="fill:#ff0000;fill-opacity:1;stroke:#ff0000;stroke-width:1;stroke-linecap:round;stroke-linejoin:bevel;stroke-miterlimit:4;stroke-opacity:1;stroke-dasharray:none;stroke-dashoffset:0"
       id="path3825"
       sodipodi:sides="200"
       sodipodi:cx="110.625"
       sodipodi:cy="196.29075"
       sodipodi:r1="2.9733618"
       sodipodi:r2="2.9729949"
       sodipodi:arg1="0.84914148"
       sodipodi:arg2="0.86484944"
       inkscape:flatsided="true"
       inkscape:rounded="0"
       inkscape:randomized="0"
       d="m 112.58929,198.5229 -0.0711,0.0606 -0.0729,0.0583 -0.0747,0.056 -0.0765,0.0536 -0.0781,0.0512 -0.0797,0.0487 -0.0812,0.0462 -0.0826,0.0436 -0.0839,0.041 -0.0852,0.0384 -0.0863,0.0357 -0.0874,0.0329 -0.0884,0.0302 -0.0893,0.0274 -0.0901,0.0246 -0.0908,0.0217 -0.0915,0.0189 -0.092,0.016 -0.0925,0.0131 -0.0928,0.0102 -0.0931,0.007 -0.0933,0.004 -0.0934,0.001 -0.0934,-0.002 -0.0933,-0.004 -0.0931,-0.007 -0.0928,-0.0103 -0.0925,-0.0132 -0.092,-0.0162 -0.0914,-0.019 -0.0908,-0.0219 -0.0901,-0.0247 -0.0893,-0.0275 -0.0883,-0.0303 -0.0874,-0.0331 -0.0863,-0.0358 -0.0851,-0.0385 -0.0838,-0.0412 -0.0825,-0.0438 -0.0811,-0.0464 -0.0796,-0.0489 -0.078,-0.0514 -0.0764,-0.0538 -0.0747,-0.0562 -0.0728,-0.0585 -0.071,-0.0607 -0.069,-0.0629 -0.067,-0.0651 -0.0649,-0.0671 -0.0628,-0.0691 -0.0606,-0.0711 -0.0583,-0.073 -0.056,-0.0747 -0.0536,-0.0765 -0.0512,-0.0781 -0.0487,-0.0797 -0.0462,-0.0812 -0.0436,-0.0826 -0.041,-0.0839 -0.0384,-0.0852 -0.0357,-0.0863 -0.0329,-0.0874 -0.0302,-0.0884 -0.0274,-0.0893 -0.0246,-0.0901 -0.0217,-0.0908 -0.0189,-0.0915 -0.016,-0.092 -0.0131,-0.0925 -0.0102,-0.0928 -0.007,-0.0931 -0.004,-0.0933 -0.001,-0.0934 0.002,-0.0934 0.004,-0.0933 0.007,-0.0931 0.0103,-0.0928 0.0132,-0.0925 0.0161,-0.092 0.019,-0.0915 0.0219,-0.0908 0.0247,-0.0901 0.0275,-0.0892 0.0303,-0.0883 0.0331,-0.0874 0.0358,-0.0863 0.0385,-0.0851 0.0412,-0.0839 0.0438,-0.0825 0.0464,-0.0811 0.0489,-0.0796 0.0513,-0.078 0.0538,-0.0764 0.0562,-0.0747 0.0585,-0.0728 0.0607,-0.071 0.0629,-0.069 0.0651,-0.067 0.0671,-0.065 0.0691,-0.0628 0.0711,-0.0606 0.0729,-0.0583 0.0747,-0.056 0.0765,-0.0536 0.0781,-0.0512 0.0797,-0.0487 0.0812,-0.0462 0.0826,-0.0436 0.0839,-0.041 0.0852,-0.0384 0.0863,-0.0357 0.0874,-0.0329 0.0884,-0.0302 0.0893,-0.0274 0.0901,-0.0246 0.0908,-0.0217 0.0915,-0.0189 0.092,-0.016 0.0925,-0.0131 0.0928,-0.0102 0.0931,-0.007 0.0933,-0.004 0.0934,-0.001 0.0934,0.002 0.0933,0.004 0.0931,0.007 0.0928,0.0103 0.0925,0.0132 0.092,0.0161 0.0914,0.019 0.0908,0.0219 0.0901,0.0247 0.0893,0.0276 0.0883,0.0303 0.0874,0.0331 0.0863,0.0358 0.0851,0.0385 0.0838,0.0412 0.0825,0.0438 0.0811,0.0464 0.0796,0.0489 0.078,0.0513 0.0764,0.0538 0.0747,0.0562 0.0728,0.0585 0.071,0.0607 0.069,0.0629 0.067,0.0651 0.0649,0.0671 0.0628,0.0691 0.0606,0.0711 0.0583,0.0729 0.056,0.0748 0.0536,0.0765 0.0512,0.0781 0.0487,0.0797 0.0462,0.0812 0.0436,0.0826 0.041,0.0839 0.0384,0.0852 0.0357,0.0863 0.0329,0.0874 0.0302,0.0884 0.0274,0.0893 0.0246,0.0901 0.0217,0.0908 0.0189,0.0915 0.016,0.092 0.0131,0.0925 0.0102,0.0929 0.007,0.0931 0.004,0.0933 0.001,0.0934 -0.002,0.0934 -0.004,0.0933 -0.007,0.0931 -0.0103,0.0928 -0.0132,0.0925 -0.0161,0.092 -0.019,0.0915 -0.0219,0.0908 -0.0247,0.0901 -0.0275,0.0893 -0.0303,0.0883 -0.0331,0.0873 -0.0358,0.0863 -0.0385,0.0851 -0.0412,0.0838 -0.0438,0.0825 -0.0464,0.0811 -0.0489,0.0796 -0.0513,0.078 -0.0538,0.0764 -0.0562,0.0746 -0.0585,0.0729 -0.0607,0.071 -0.0629,0.069 -0.0651,0.067 -0.0671,0.0649 z" />
    <path
       style="fill:none;stroke:#ff0000;stroke-width:1px;stroke-linecap:butt;stroke-linejoin:miter;stroke-opacity:1;marker-end:url(#Arrow2Lend)"
       d="m 151.22322,179.56606 3.31227,-1.05154"
       id="path3829"
       inkscape:connector-curvature="0" />
    <g
       transform="matrix(0.36797996,0,0,0.36797996,308.52157,47.201806)"
       style="fill:#0000ff;fill-opacity:1"
       id="g4406">
      <g
         style="font-style:normal;font-variant:normal;font-weight:normal;font-stretch:normal;letter-spacing:normal;word-spacing:normal;text-anchor:start;fill:#0000ff;fill-opacity:1;fill-rule:evenodd;stroke:#000000;stroke-linecap:butt;stroke-linejoin:miter;stroke-miterlimit:10.43299961;stroke-opacity:1;stroke-dasharray:none;stroke-dashoffset:0"
         id="g4408"
         transform="matrix(1.0629921,0,0,-1.0629921,-186.02362,789.27165)"
         xml:space="preserve"
         stroke-miterlimit="10.433"
         font-style="normal"
         font-variant="normal"
         font-weight="normal"
         font-stretch="normal"
         font-size-adjust="none"
         letter-spacing="normal"
         word-spacing="normal"><path
           inkscape:connector-curvature="0"
           style="fill:#0000ff;fill-opacity:1;stroke-width:0"
           d="m 480.01,439.27 0.01,0.02 0,0.02 0.01,0.02 0,0.02 0.01,0.05 0.01,0.04 0.02,0.05 0.01,0.04 0.01,0.05 0.01,0.05 0.01,0.05 0.02,0.05 0.01,0.05 0,0.05 0.01,0.05 0.01,0.05 0,0.02 0,0.03 0,0.02 0,0.02 c 0,0.5 -0.35,0.55 -0.6,0.55 -0.5,0 -0.54,-0.1 -0.75,-1 l -8.26,-32.92 c -3.79,0.45 -5.68,2.29 -5.68,5.58 0,0.99 0,2.29 2.69,9.26 0.2,0.6 0.55,1.45 0.55,2.44 0,2.25 -1.6,4.09 -4.09,4.09 -4.73,0 -6.57,-7.23 -6.57,-7.67 0,-0.5 0.49,-0.5 0.59,-0.5 0.5,0 0.55,0.1 0.8,0.9 1.34,4.73 3.34,6.17 5.03,6.17 0.4,0 1.25,0 1.25,-1.59 0,-1.3 -0.5,-2.54 -1.15,-4.29 -2.39,-6.27 -2.39,-7.57 -2.39,-8.41 0,-4.74 3.88,-6.78 8.67,-7.08 -0.4,-1.79 -0.4,-1.89 -1.1,-4.53 -0.15,-0.55 -1.15,-4.58 -1.15,-4.73 0,-0.05 0,-0.5 0.6,-0.5 0.1,0 0.35,0 0.45,0.2 0.15,0.1 0.45,1.34 0.6,2.04 l 1.89,7.42 c 1.85,0 6.23,0 10.91,5.33 2.04,2.29 3.09,4.49 3.64,5.98 0.45,1.24 1.54,5.58 1.54,7.77 0,2.79 -1.34,3.49 -2.19,3.49 -1.24,0 -2.49,-1.3 -2.49,-2.39 0,-0.65 0.3,-0.95 0.75,-1.35 0.54,-0.55 1.79,-1.84 1.79,-4.23 0,-3.19 -2.59,-7.28 -4.33,-9.07 -4.39,-4.43 -7.57,-4.43 -9.37,-4.43 z"
           id="path4410" /><path
           inkscape:connector-curvature="0"
           style="fill:#0000ff;fill-opacity:1;stroke-width:0"
           d="m 506.49,394.04 0,0.03 0,0.03 -0.01,0.01 0,0.02 0,0.01 -0.01,0.02 0,0.02 -0.01,0.01 -0.01,0.02 -0.01,0.02 -0.01,0.03 -0.01,0.02 -0.02,0.02 -0.02,0.03 -0.02,0.03 -0.02,0.03 -0.03,0.03 -0.03,0.04 -0.01,0.02 -0.02,0.02 -0.02,0.02 -0.02,0.02 -0.02,0.02 -0.02,0.03 -0.02,0.02 -0.02,0.02 -0.02,0.03 -0.03,0.02 -0.02,0.03 -0.03,0.03 -0.02,0.03 -0.03,0.03 -0.03,0.03 -0.03,0.03 -0.03,0.03 -0.03,0.03 -0.04,0.04 -0.03,0.03 -0.04,0.04 -0.03,0.03 -0.04,0.04 -0.04,0.04 c -6.23,6.28 -7.82,15.69 -7.82,23.31 0,8.67 1.89,17.34 8.02,23.57 0.65,0.59 0.65,0.69 0.65,0.84 0,0.35 -0.2,0.5 -0.5,0.5 -0.5,0 -4.98,-3.39 -7.92,-9.72 -2.54,-5.47 -3.14,-11 -3.14,-15.19 0,-3.88 0.55,-9.91 3.29,-15.54 2.99,-6.12 7.27,-9.36 7.77,-9.36 0.3,0 0.5,0.15 0.5,0.49 z"
           id="path4412" /><path
           inkscape:connector-curvature="0"
           style="fill:#0000ff;fill-opacity:1;stroke-width:0"
           d="m 559.27,443.36 -0.15,-0.07 -0.17,-0.09 -0.21,-0.11 -0.24,-0.12 -0.27,-0.13 -0.3,-0.14 -0.33,-0.16 -0.35,-0.16 -0.37,-0.17 -0.4,-0.18 -0.42,-0.18 -0.45,-0.18 -0.46,-0.19 -0.48,-0.19 -0.49,-0.19 -0.52,-0.19 -0.53,-0.19 -0.54,-0.19 -0.55,-0.18 -0.56,-0.17 -0.58,-0.17 -0.58,-0.16 -0.59,-0.15 -0.59,-0.14 -0.6,-0.12 -0.61,-0.12 -0.6,-0.1 -0.61,-0.08 -0.6,-0.07 -0.6,-0.05 -0.6,-0.03 -0.6,-0.01 c -3.64,0 -5.83,0.89 -9.27,2.39 -2.39,0.99 -4.83,1.99 -8.27,1.99 -5.82,0 -11.6,-2.79 -16.78,-5.28 l 0.5,-1 c 1.34,0.7 8.62,4.39 14.94,4.39 3.64,0 5.83,-0.9 9.27,-2.4 2.39,-0.99 4.83,-1.99 8.27,-1.99 5.82,0 11.6,2.79 16.78,5.28 z"
           id="path4414" /><path
           inkscape:connector-curvature="0"
           style="fill:#0000ff;fill-opacity:1;stroke-width:0"
           d="m 525.64,421.04 0.03,0.13 0.03,0.15 0.05,0.17 0.04,0.18 0.06,0.19 0.06,0.21 0.06,0.21 0.07,0.23 0.08,0.23 0.09,0.24 0.1,0.25 0.1,0.24 0.11,0.25 0.12,0.25 0.13,0.25 0.14,0.25 0.15,0.24 0.15,0.24 0.17,0.23 0.18,0.22 0.18,0.22 0.2,0.2 0.21,0.19 0.22,0.18 0.23,0.16 0.25,0.14 0.12,0.07 0.13,0.06 0.13,0.05 0.14,0.05 0.14,0.05 0.14,0.04 0.14,0.03 0.15,0.03 0.15,0.02 0.16,0.02 0.16,0.01 0.16,0 c 0.25,0 1.45,0 2.49,-0.65 -1.4,-0.25 -2.39,-1.49 -2.39,-2.68 0,-0.8 0.55,-1.75 1.89,-1.75 1.1,0 2.69,0.9 2.69,2.89 0,2.59 -2.94,3.29 -4.63,3.29 -2.89,0 -4.64,-2.64 -5.23,-3.79 -1.24,3.29 -3.94,3.79 -5.38,3.79 -5.18,0 -8.02,-6.43 -8.02,-7.67 0,-0.5 0.5,-0.5 0.6,-0.5 0.39,0 0.54,0.1 0.64,0.54 1.7,5.29 4.99,6.53 6.68,6.53 0.94,0 2.69,-0.45 2.69,-3.33 0,-1.55 -0.85,-4.89 -2.69,-11.86 -0.8,-3.09 -2.54,-5.18 -4.73,-5.18 -0.3,0 -1.45,0 -2.49,0.65 1.24,0.25 2.34,1.29 2.34,2.69 0,1.34 -1.1,1.74 -1.85,1.74 -1.49,0 -2.73,-1.3 -2.73,-2.89 0,-2.29 2.48,-3.29 4.68,-3.29 3.28,0 5.08,3.49 5.22,3.79 0.61,-1.85 2.4,-3.79 5.39,-3.79 5.13,0 7.97,6.43 7.97,7.68 0,0.49 -0.45,0.49 -0.6,0.49 -0.45,0 -0.55,-0.2 -0.65,-0.55 -1.64,-5.33 -5.03,-6.52 -6.62,-6.52 -1.94,0 -2.74,1.59 -2.74,3.29 0,1.09 0.3,2.19 0.85,4.38 z"
           id="path4416" /><path
           inkscape:connector-curvature="0"
           style="fill:#0000ff;fill-opacity:1;stroke-width:0"
           d="m 539.61,394.75 -0.02,-0.09 -0.02,-0.09 -0.02,-0.08 -0.02,-0.08 -0.02,-0.07 -0.02,-0.07 -0.03,-0.07 -0.02,-0.06 -0.02,-0.06 -0.03,-0.06 -0.03,-0.05 -0.03,-0.05 -0.03,-0.05 -0.03,-0.04 -0.04,-0.04 -0.04,-0.04 -0.04,-0.03 -0.05,-0.03 -0.05,-0.03 -0.05,-0.03 -0.06,-0.02 -0.07,-0.02 -0.07,-0.02 -0.07,-0.02 -0.08,-0.01 -0.05,-0.01 -0.04,-0.01 -0.04,0 -0.05,-0.01 -0.05,0 -0.05,0 -0.05,-0.01 -0.06,0 -0.05,0 -0.06,0 -0.06,-0.01 -0.06,0 -0.06,0 -0.06,0 c -0.46,0 -0.94,0 -0.94,-0.73 0,-0.38 0.31,-0.53 0.48,-0.53 h 6.66 c 0.32,0 0.7,0.11 0.7,0.77 0,0.49 -0.49,0.49 -0.91,0.49 -0.76,0 -1.7,0 -1.7,0.42 0,0.17 0.24,1.08 0.38,1.6 0.42,1.85 0.9,3.73 1.29,5.2 0.42,-0.7 1.5,-2.06 3.59,-2.06 v 0.98 c -2.48,0 -3.11,2.68 -3.11,3.03 0,0.14 0.08,0.38 0.11,0.52 l 1.75,7.01 c 2.02,2.69 3.76,3.21 4.88,3.21 1.36,0 2.54,-1.01 2.54,-3.38 0,-1.43 -0.76,-4.99 -1.81,-7.01 -0.87,-1.71 -2.58,-3.38 -4.36,-3.38 v -0.98 c 4.26,0 8.96,4.71 8.96,9.9 0,4.08 -2.82,5.83 -5.23,5.83 -2.16,0 -4.01,-1.47 -4.95,-2.44 -0.59,1.99 -2.54,2.44 -3.59,2.44 -1.36,0 -2.2,-0.91 -2.75,-1.85 -0.7,-1.19 -1.26,-3.28 -1.26,-3.49 0,-0.45 0.49,-0.45 0.59,-0.45 0.49,0 0.52,0.11 0.77,1.05 0.52,2.02 1.18,3.76 2.54,3.76 0.91,0 1.16,-0.77 1.16,-1.71 0,-0.38 -0.07,-0.83 -0.11,-1.05 z"
           id="path4418" /><path
           inkscape:connector-curvature="0"
           style="fill:#0000ff;fill-opacity:1;stroke-width:0"
           d="m 575.4,418.45 -0.01,0.37 0,0.39 -0.01,0.39 -0.01,0.41 -0.04,0.84 -0.06,0.88 -0.09,0.92 -0.1,0.94 -0.14,0.98 -0.16,1 -0.2,1.02 -0.23,1.04 -0.27,1.05 -0.3,1.06 -0.35,1.06 -0.39,1.07 -0.22,0.53 -0.22,0.54 -0.24,0.53 -0.25,0.53 c -2.99,6.12 -7.27,9.36 -7.77,9.36 -0.3,0 -0.5,-0.2 -0.5,-0.5 0,-0.15 0,-0.25 0.94,-1.15 4.89,-4.92 7.73,-12.85 7.73,-23.26 0,-8.52 -1.85,-17.28 -8.02,-23.56 -0.65,-0.6 -0.65,-0.69 -0.65,-0.85 0,-0.29 0.2,-0.49 0.5,-0.49 0.5,0 4.98,3.38 7.92,9.71 2.54,5.48 3.14,11.01 3.14,15.19 z"
           id="path4420" /></g>    </g>
    <g
       id="g4486"
       style="fill:#0000ff;fill-opacity:1"
       transform="matrix(0.33998582,0,0,0.33998582,168.86963,52.301676)">
      <g
         word-spacing="normal"
         letter-spacing="normal"
         font-size-adjust="none"
         font-stretch="normal"
         font-weight="normal"
         font-variant="normal"
         font-style="normal"
         stroke-miterlimit="10.433"
         xml:space="preserve"
         transform="matrix(1.0629921,0,0,-1.0629921,-186.02362,789.27165)"
         id="g4488"
         style="font-style:normal;font-variant:normal;font-weight:normal;font-stretch:normal;letter-spacing:normal;word-spacing:normal;text-anchor:start;fill:#0000ff;fill-opacity:1;fill-rule:evenodd;stroke:#000000;stroke-linecap:butt;stroke-linejoin:miter;stroke-miterlimit:10.43299961;stroke-opacity:1;stroke-dasharray:none;stroke-dashoffset:0"><path
           id="path4490"
           d="m 480.01,439.27 0.01,0.02 0,0.02 0.01,0.02 0,0.02 0.01,0.05 0.01,0.04 0.02,0.05 0.01,0.04 0.01,0.05 0.01,0.05 0.01,0.05 0.02,0.05 0.01,0.05 0,0.05 0.01,0.05 0.01,0.05 0,0.02 0,0.03 0,0.02 0,0.02 c 0,0.5 -0.35,0.55 -0.6,0.55 -0.5,0 -0.54,-0.1 -0.75,-1 l -8.26,-32.92 c -3.79,0.45 -5.68,2.29 -5.68,5.58 0,0.99 0,2.29 2.69,9.26 0.2,0.6 0.55,1.45 0.55,2.44 0,2.25 -1.6,4.09 -4.09,4.09 -4.73,0 -6.57,-7.23 -6.57,-7.67 0,-0.5 0.49,-0.5 0.59,-0.5 0.5,0 0.55,0.1 0.8,0.9 1.34,4.73 3.34,6.17 5.03,6.17 0.4,0 1.25,0 1.25,-1.59 0,-1.3 -0.5,-2.54 -1.15,-4.29 -2.39,-6.27 -2.39,-7.57 -2.39,-8.41 0,-4.74 3.88,-6.78 8.67,-7.08 -0.4,-1.79 -0.4,-1.89 -1.1,-4.53 -0.15,-0.55 -1.15,-4.58 -1.15,-4.73 0,-0.05 0,-0.5 0.6,-0.5 0.1,0 0.35,0 0.45,0.2 0.15,0.1 0.45,1.34 0.6,2.04 l 1.89,7.42 c 1.85,0 6.23,0 10.91,5.33 2.04,2.29 3.09,4.49 3.64,5.98 0.45,1.24 1.54,5.58 1.54,7.77 0,2.79 -1.34,3.49 -2.19,3.49 -1.24,0 -2.49,-1.3 -2.49,-2.39 0,-0.65 0.3,-0.95 0.75,-1.35 0.54,-0.55 1.79,-1.84 1.79,-4.23 0,-3.19 -2.59,-7.28 -4.33,-9.07 -4.39,-4.43 -7.57,-4.43 -9.37,-4.43 z"
           style="fill:#0000ff;fill-opacity:1;stroke-width:0"
           inkscape:connector-curvature="0" /><path
           id="path4492"
           d="m 506.95,445.1 0.01,0.04 0.01,0.05 0.01,0.04 0.01,0.05 0.01,0.04 0.01,0.04 0.01,0.04 0.01,0.04 0.02,0.07 0.02,0.07 0.02,0.06 0.02,0.06 0.02,0.05 0.02,0.05 0.02,0.05 0.02,0.05 0.03,0.04 0.02,0.03 0.03,0.04 0.02,0.03 0.03,0.03 0.03,0.03 0.03,0.02 0.03,0.02 0.04,0.02 0.04,0.02 0.04,0.01 0.04,0.02 0.05,0.01 0.04,0.01 0.06,0.01 0.05,0.01 0.06,0.01 0.06,0.01 0.07,0 0.07,0.01 c 0.17,0.04 1.39,0.04 2.09,0.04 2.13,0 3.03,0 3.9,-0.28 1.57,-0.49 1.64,-1.5 1.64,-2.76 0,-0.55 0,-1.01 -0.24,-2.82 l -0.07,-0.39 c 0,-0.34 0.24,-0.52 0.59,-0.52 0.53,0 0.59,0.32 0.66,0.87 l 0.95,6.66 c 0,0.49 -0.42,0.49 -1.05,0.49 h -21.45 c -0.87,0 -0.94,0 -1.18,-0.73 l -2.2,-6.17 c -0.03,-0.14 -0.17,-0.46 -0.17,-0.63 0,-0.14 0.07,-0.49 0.59,-0.49 0.46,0 0.52,0.18 0.73,0.84 2.03,5.58 3.18,5.93 8.48,5.93 h 1.46 c 1.05,0 1.08,-0.04 1.08,-0.35 0,-0.04 0,-0.21 -0.14,-0.74 l -4.6,-18.34 c -0.31,-1.28 -0.42,-1.64 -4.08,-1.64 -1.25,0 -1.57,0 -1.57,-0.76 0,-0.11 0.07,-0.49 0.59,-0.49 h 12.07 c 0.28,0 0.8,0 0.8,0.77 0,0.48 -0.35,0.48 -1.43,0.48 -0.66,0 -1.36,0.04 -2.02,0.07 -1.19,0.11 -1.26,0.25 -1.26,0.67 0,0.24 0,0.31 0.14,0.8 z"
           style="fill:#0000ff;fill-opacity:1;stroke-width:0"
           inkscape:connector-curvature="0" /><path
           id="path4494"
           d="m 537.49,394.04 0,0.03 0,0.03 -0.01,0.01 0,0.02 0,0.01 -0.01,0.02 0,0.02 -0.01,0.01 -0.01,0.02 -0.01,0.02 -0.01,0.03 -0.01,0.02 -0.02,0.02 -0.02,0.03 -0.02,0.03 -0.02,0.03 -0.03,0.03 -0.03,0.04 -0.01,0.02 -0.02,0.02 -0.02,0.02 -0.02,0.02 -0.02,0.02 -0.02,0.03 -0.02,0.02 -0.02,0.02 -0.02,0.03 -0.03,0.02 -0.02,0.03 -0.03,0.03 -0.02,0.03 -0.03,0.03 -0.03,0.03 -0.03,0.03 -0.03,0.03 -0.03,0.03 -0.04,0.04 -0.03,0.03 -0.04,0.04 -0.03,0.03 -0.04,0.04 -0.04,0.04 c -6.23,6.28 -7.82,15.69 -7.82,23.31 0,8.67 1.9,17.34 8.02,23.57 0.65,0.59 0.65,0.69 0.65,0.84 0,0.35 -0.2,0.5 -0.5,0.5 -0.5,0 -4.98,-3.39 -7.92,-9.72 -2.54,-5.47 -3.14,-11 -3.14,-15.19 0,-3.88 0.55,-9.91 3.29,-15.54 2.99,-6.12 7.27,-9.36 7.77,-9.36 0.3,0 0.5,0.15 0.5,0.49 z"
           style="fill:#0000ff;fill-opacity:1;stroke-width:0"
           inkscape:connector-curvature="0" /><path
           id="path4496"
           d="m 590.27,443.36 -0.15,-0.07 -0.17,-0.09 -0.21,-0.11 -0.24,-0.12 -0.27,-0.13 -0.3,-0.14 -0.33,-0.16 -0.35,-0.16 -0.37,-0.17 -0.4,-0.18 -0.42,-0.18 -0.45,-0.18 -0.46,-0.19 -0.48,-0.19 -0.49,-0.19 -0.52,-0.19 -0.53,-0.19 -0.54,-0.19 -0.55,-0.18 -0.56,-0.17 -0.58,-0.17 -0.58,-0.16 -0.59,-0.15 -0.59,-0.14 -0.6,-0.12 -0.61,-0.12 -0.6,-0.1 -0.61,-0.08 -0.6,-0.07 -0.6,-0.05 -0.6,-0.03 -0.6,-0.01 c -3.64,0 -5.83,0.89 -9.27,2.39 -2.39,0.99 -4.83,1.99 -8.27,1.99 -5.82,0 -11.6,-2.79 -16.78,-5.28 l 0.5,-1 c 1.34,0.7 8.62,4.39 14.94,4.39 3.64,0 5.83,-0.9 9.27,-2.4 2.39,-0.99 4.83,-1.99 8.27,-1.99 5.82,0 11.6,2.79 16.78,5.28 z"
           style="fill:#0000ff;fill-opacity:1;stroke-width:0"
           inkscape:connector-curvature="0" /><path
           id="path4498"
           d="m 556.64,421.04 0.03,0.13 0.03,0.15 0.05,0.17 0.04,0.18 0.06,0.19 0.06,0.21 0.06,0.21 0.07,0.23 0.08,0.23 0.09,0.24 0.1,0.25 0.1,0.24 0.11,0.25 0.12,0.25 0.13,0.25 0.14,0.25 0.15,0.24 0.15,0.24 0.17,0.23 0.18,0.22 0.18,0.22 0.2,0.2 0.21,0.19 0.22,0.18 0.23,0.16 0.25,0.14 0.12,0.07 0.13,0.06 0.13,0.05 0.14,0.05 0.14,0.05 0.14,0.04 0.14,0.03 0.15,0.03 0.15,0.02 0.16,0.02 0.16,0.01 0.16,0 c 0.25,0 1.45,0 2.49,-0.65 -1.4,-0.25 -2.39,-1.49 -2.39,-2.68 0,-0.8 0.55,-1.75 1.89,-1.75 1.1,0 2.69,0.9 2.69,2.89 0,2.59 -2.94,3.29 -4.63,3.29 -2.89,0 -4.64,-2.64 -5.23,-3.79 -1.24,3.29 -3.94,3.79 -5.38,3.79 -5.18,0 -8.02,-6.43 -8.02,-7.67 0,-0.5 0.5,-0.5 0.6,-0.5 0.39,0 0.54,0.1 0.64,0.54 1.7,5.29 4.99,6.53 6.68,6.53 0.94,0 2.69,-0.45 2.69,-3.33 0,-1.55 -0.85,-4.89 -2.69,-11.86 -0.8,-3.09 -2.54,-5.18 -4.73,-5.18 -0.3,0 -1.45,0 -2.49,0.65 1.24,0.25 2.34,1.29 2.34,2.69 0,1.34 -1.1,1.74 -1.85,1.74 -1.49,0 -2.73,-1.3 -2.73,-2.89 0,-2.29 2.48,-3.29 4.68,-3.29 3.28,0 5.08,3.49 5.22,3.79 0.61,-1.85 2.4,-3.79 5.39,-3.79 5.13,0 7.97,6.43 7.97,7.68 0,0.49 -0.45,0.49 -0.6,0.49 -0.45,0 -0.55,-0.2 -0.65,-0.55 -1.64,-5.33 -5.03,-6.52 -6.62,-6.52 -1.94,0 -2.74,1.59 -2.74,3.29 0,1.09 0.3,2.19 0.85,4.38 z"
           style="fill:#0000ff;fill-opacity:1;stroke-width:0"
           inkscape:connector-curvature="0" /><path
           id="path4500"
           d="m 571.61,394.75 -0.02,-0.09 -0.02,-0.09 -0.02,-0.08 -0.02,-0.08 -0.02,-0.07 -0.02,-0.07 -0.03,-0.07 -0.02,-0.06 -0.02,-0.06 -0.03,-0.06 -0.03,-0.05 -0.03,-0.05 -0.03,-0.05 -0.03,-0.04 -0.04,-0.04 -0.04,-0.04 -0.04,-0.03 -0.05,-0.03 -0.05,-0.03 -0.05,-0.03 -0.06,-0.02 -0.07,-0.02 -0.07,-0.02 -0.07,-0.02 -0.08,-0.01 -0.05,-0.01 -0.04,-0.01 -0.04,0 -0.05,-0.01 -0.05,0 -0.05,0 -0.05,-0.01 -0.06,0 -0.05,0 -0.06,0 -0.06,-0.01 -0.06,0 -0.06,0 -0.06,0 c -0.46,0 -0.94,0 -0.94,-0.73 0,-0.38 0.31,-0.53 0.48,-0.53 h 6.66 c 0.32,0 0.7,0.11 0.7,0.77 0,0.49 -0.49,0.49 -0.91,0.49 -0.76,0 -1.7,0 -1.7,0.42 0,0.17 0.24,1.08 0.38,1.6 0.42,1.85 0.9,3.73 1.29,5.2 0.42,-0.7 1.5,-2.06 3.59,-2.06 v 0.98 c -2.48,0 -3.11,2.68 -3.11,3.03 0,0.14 0.08,0.38 0.11,0.52 l 1.75,7.01 c 2.02,2.69 3.76,3.21 4.88,3.21 1.36,0 2.54,-1.01 2.54,-3.38 0,-1.43 -0.76,-4.99 -1.81,-7.01 -0.87,-1.71 -2.58,-3.38 -4.36,-3.38 v -0.98 c 4.26,0 8.96,4.71 8.96,9.9 0,4.08 -2.82,5.83 -5.23,5.83 -2.16,0 -4.01,-1.47 -4.95,-2.44 -0.59,1.99 -2.54,2.44 -3.59,2.44 -1.36,0 -2.2,-0.91 -2.75,-1.85 -0.7,-1.19 -1.26,-3.28 -1.26,-3.49 0,-0.45 0.49,-0.45 0.59,-0.45 0.49,0 0.52,0.11 0.77,1.05 0.52,2.02 1.18,3.76 2.54,3.76 0.91,0 1.16,-0.77 1.16,-1.71 0,-0.38 -0.07,-0.83 -0.11,-1.05 z"
           style="fill:#0000ff;fill-opacity:1;stroke-width:0"
           inkscape:connector-curvature="0" /><path
           id="path4502"
           d="m 606.4,418.45 -0.01,0.37 0,0.39 -0.01,0.39 -0.01,0.41 -0.04,0.84 -0.06,0.88 -0.09,0.92 -0.1,0.94 -0.14,0.98 -0.16,1 -0.2,1.02 -0.23,1.04 -0.27,1.05 -0.3,1.06 -0.35,1.06 -0.39,1.07 -0.22,0.53 -0.22,0.54 -0.24,0.53 -0.25,0.53 c -2.99,6.12 -7.27,9.36 -7.77,9.36 -0.3,0 -0.5,-0.2 -0.5,-0.5 0,-0.15 0,-0.25 0.94,-1.15 4.89,-4.92 7.73,-12.85 7.73,-23.26 0,-8.52 -1.85,-17.28 -8.02,-23.56 -0.65,-0.6 -0.65,-0.69 -0.65,-0.85 0,-0.29 0.2,-0.49 0.5,-0.49 0.5,0 4.98,3.38 7.92,9.71 2.54,5.48 3.14,11.01 3.14,15.19 z"
           style="fill:#0000ff;fill-opacity:1;stroke-width:0"
           inkscape:connector-curvature="0" /><path
           id="path4504"
           d="m 659.22,422.29 0.14,0 0.15,0 0.15,0.01 0.07,0 0.07,0 0.07,0.01 0.08,0.01 0.07,0.01 0.07,0.01 0.06,0.02 0.07,0.01 0.07,0.02 0.06,0.02 0.06,0.03 0.06,0.03 0.05,0.03 0.06,0.03 0.05,0.04 0.04,0.04 0.05,0.05 0.03,0.05 0.02,0.03 0.02,0.02 0.02,0.03 0.01,0.03 0.02,0.03 0.01,0.04 0.01,0.03 0.01,0.04 0.01,0.03 0.01,0.04 0.01,0.04 0,0.04 0.01,0.04 0,0.04 0,0.05 0,0.05 c 0,0.99 -0.94,0.99 -1.64,0.99 h -29.84 c -0.7,0 -1.64,0 -1.64,-0.99 0,-1 0.94,-1 1.69,-1 z"
           style="fill:#0000ff;fill-opacity:1;stroke-width:0"
           inkscape:connector-curvature="0" /><path
           id="path4506"
           d="m 659.27,412.63 0.13,0 0.14,0 0.14,0 0.07,0.01 0.07,0 0.07,0.01 0.07,0.01 0.07,0.01 0.07,0.01 0.06,0.01 0.07,0.02 0.06,0.02 0.06,0.02 0.06,0.02 0.06,0.03 0.06,0.03 0.05,0.04 0.05,0.04 0.04,0.04 0.05,0.04 0.02,0.03 0.02,0.03 0.01,0.02 0.02,0.03 0.02,0.03 0.01,0.03 0.02,0.03 0.01,0.03 0.01,0.04 0.01,0.03 0.01,0.04 0.01,0.04 0.01,0.04 0,0.04 0.01,0.04 0,0.04 0,0.05 0,0.04 c 0,1 -0.94,1 -1.69,1 h -29.74 c -0.75,0 -1.69,0 -1.69,-1 0,-0.99 0.94,-0.99 1.64,-0.99 z"
           style="fill:#0000ff;fill-opacity:1;stroke-width:0"
           inkscape:connector-curvature="0" /><path
           id="path4508"
           d="m 728.27,443.36 -0.15,-0.07 -0.17,-0.09 -0.21,-0.11 -0.24,-0.12 -0.27,-0.13 -0.3,-0.14 -0.33,-0.16 -0.35,-0.16 -0.37,-0.17 -0.4,-0.18 -0.42,-0.18 -0.45,-0.18 -0.46,-0.19 -0.48,-0.19 -0.49,-0.19 -0.52,-0.19 -0.53,-0.19 -0.54,-0.19 -0.55,-0.18 -0.56,-0.17 -0.58,-0.17 -0.58,-0.16 -0.59,-0.15 -0.59,-0.14 -0.6,-0.12 -0.61,-0.12 -0.6,-0.1 -0.61,-0.08 -0.6,-0.07 -0.6,-0.05 -0.6,-0.03 -0.6,-0.01 c -3.64,0 -5.83,0.89 -9.27,2.39 -2.39,0.99 -4.83,1.99 -8.27,1.99 -5.82,0 -11.6,-2.79 -16.78,-5.28 l 0.5,-1 c 1.34,0.7 8.62,4.39 14.94,4.39 3.64,0 5.83,-0.9 9.27,-2.4 2.39,-0.99 4.83,-1.99 8.27,-1.99 5.82,0 11.6,2.79 16.78,5.28 z"
           style="fill:#0000ff;fill-opacity:1;stroke-width:0"
           inkscape:connector-curvature="0" /><path
           id="path4510"
           d="m 694.64,421.04 0.03,0.13 0.03,0.15 0.05,0.17 0.04,0.18 0.06,0.19 0.06,0.21 0.06,0.21 0.07,0.23 0.08,0.23 0.09,0.24 0.1,0.25 0.1,0.24 0.11,0.25 0.12,0.25 0.13,0.25 0.14,0.25 0.15,0.24 0.15,0.24 0.17,0.23 0.18,0.22 0.18,0.22 0.2,0.2 0.21,0.19 0.22,0.18 0.23,0.16 0.25,0.14 0.12,0.07 0.13,0.06 0.13,0.05 0.14,0.05 0.14,0.05 0.14,0.04 0.14,0.03 0.15,0.03 0.15,0.02 0.16,0.02 0.16,0.01 0.16,0 c 0.25,0 1.45,0 2.49,-0.65 -1.4,-0.25 -2.39,-1.49 -2.39,-2.68 0,-0.8 0.55,-1.75 1.89,-1.75 1.1,0 2.69,0.9 2.69,2.89 0,2.59 -2.94,3.29 -4.63,3.29 -2.89,0 -4.64,-2.64 -5.23,-3.79 -1.24,3.29 -3.94,3.79 -5.38,3.79 -5.18,0 -8.02,-6.43 -8.02,-7.67 0,-0.5 0.5,-0.5 0.6,-0.5 0.39,0 0.54,0.1 0.64,0.54 1.7,5.29 4.99,6.53 6.68,6.53 0.94,0 2.69,-0.45 2.69,-3.33 0,-1.55 -0.85,-4.89 -2.69,-11.86 -0.8,-3.09 -2.54,-5.18 -4.73,-5.18 -0.3,0 -1.45,0 -2.49,0.65 1.24,0.25 2.34,1.29 2.34,2.69 0,1.34 -1.1,1.74 -1.85,1.74 -1.49,0 -2.73,-1.3 -2.73,-2.89 0,-2.29 2.48,-3.29 4.68,-3.29 3.28,0 5.08,3.49 5.22,3.79 0.61,-1.85 2.4,-3.79 5.39,-3.79 5.13,0 7.97,6.43 7.97,7.68 0,0.49 -0.45,0.49 -0.6,0.49 -0.45,0 -0.55,-0.2 -0.65,-0.55 -1.64,-5.33 -5.03,-6.52 -6.62,-6.52 -1.94,0 -2.74,1.59 -2.74,3.29 0,1.09 0.3,2.19 0.85,4.38 z"
           style="fill:#0000ff;fill-opacity:1;stroke-width:0"
           inkscape:connector-curvature="0" /><path
           id="path4512"
           d="m 708.61,394.75 -0.02,-0.09 -0.02,-0.09 -0.02,-0.08 -0.02,-0.08 -0.02,-0.07 -0.02,-0.07 -0.03,-0.07 -0.02,-0.06 -0.02,-0.06 -0.03,-0.06 -0.03,-0.05 -0.03,-0.05 -0.03,-0.05 -0.03,-0.04 -0.04,-0.04 -0.04,-0.04 -0.04,-0.03 -0.05,-0.03 -0.05,-0.03 -0.05,-0.03 -0.06,-0.02 -0.07,-0.02 -0.07,-0.02 -0.07,-0.02 -0.08,-0.01 -0.05,-0.01 -0.04,-0.01 -0.04,0 -0.05,-0.01 -0.05,0 -0.05,0 -0.05,-0.01 -0.06,0 -0.05,0 -0.06,0 -0.06,-0.01 -0.06,0 -0.06,0 -0.06,0 c -0.46,0 -0.94,0 -0.94,-0.73 0,-0.38 0.31,-0.53 0.48,-0.53 h 6.66 c 0.32,0 0.7,0.11 0.7,0.77 0,0.49 -0.49,0.49 -0.91,0.49 -0.76,0 -1.7,0 -1.7,0.42 0,0.17 0.24,1.08 0.38,1.6 0.42,1.85 0.9,3.73 1.29,5.2 0.42,-0.7 1.5,-2.06 3.59,-2.06 v 0.98 c -2.48,0 -3.11,2.68 -3.11,3.03 0,0.14 0.08,0.38 0.11,0.52 l 1.75,7.01 c 2.02,2.69 3.76,3.21 4.88,3.21 1.36,0 2.54,-1.01 2.54,-3.38 0,-1.43 -0.76,-4.99 -1.81,-7.01 -0.87,-1.71 -2.58,-3.38 -4.36,-3.38 v -0.98 c 4.26,0 8.96,4.71 8.96,9.9 0,4.08 -2.82,5.83 -5.23,5.83 -2.16,0 -4.01,-1.47 -4.95,-2.44 -0.59,1.99 -2.54,2.44 -3.59,2.44 -1.36,0 -2.2,-0.91 -2.75,-1.85 -0.7,-1.19 -1.26,-3.28 -1.26,-3.49 0,-0.45 0.49,-0.45 0.59,-0.45 0.49,0 0.52,0.11 0.77,1.05 0.52,2.02 1.18,3.76 2.54,3.76 0.91,0 1.16,-0.77 1.16,-1.71 0,-0.38 -0.07,-0.83 -0.11,-1.05 z"
           style="fill:#0000ff;fill-opacity:1;stroke-width:0"
           inkscape:connector-curvature="0" /></g>    </g>
    <g
       transform="matrix(0.34258585,0,0,0.34258585,432.24389,93.254928)"
       style="fill:#0000ff;fill-opacity:1"
       id="g4601">
      <g
         style="font-style:normal;font-variant:normal;font-weight:normal;font-stretch:normal;letter-spacing:normal;word-spacing:normal;text-anchor:start;fill:#0000ff;fill-opacity:1;fill-rule:evenodd;stroke:#000000;stroke-linecap:butt;stroke-linejoin:miter;stroke-miterlimit:10.43299961;stroke-opacity:1;stroke-dasharray:none;stroke-dashoffset:0"
         id="g4603"
         transform="matrix(1.0629921,0,0,-1.0629921,-186.02362,789.27165)"
         xml:space="preserve"
         stroke-miterlimit="10.433"
         font-style="normal"
         font-variant="normal"
         font-weight="normal"
         font-stretch="normal"
         font-size-adjust="none"
         letter-spacing="normal"
         word-spacing="normal"><path
           inkscape:connector-curvature="0"
           style="fill:#0000ff;fill-opacity:1;stroke-width:0"
           d="m 480.01,439.27 0.01,0.02 0,0.02 0.01,0.02 0,0.02 0.01,0.05 0.01,0.04 0.02,0.05 0.01,0.04 0.01,0.05 0.01,0.05 0.01,0.05 0.02,0.05 0.01,0.05 0,0.05 0.01,0.05 0.01,0.05 0,0.02 0,0.03 0,0.02 0,0.02 c 0,0.5 -0.35,0.55 -0.6,0.55 -0.5,0 -0.54,-0.1 -0.75,-1 l -8.26,-32.92 c -3.79,0.45 -5.68,2.29 -5.68,5.58 0,0.99 0,2.29 2.69,9.26 0.2,0.6 0.55,1.45 0.55,2.44 0,2.25 -1.6,4.09 -4.09,4.09 -4.73,0 -6.57,-7.23 -6.57,-7.67 0,-0.5 0.49,-0.5 0.59,-0.5 0.5,0 0.55,0.1 0.8,0.9 1.34,4.73 3.34,6.17 5.03,6.17 0.4,0 1.25,0 1.25,-1.59 0,-1.3 -0.5,-2.54 -1.15,-4.29 -2.39,-6.27 -2.39,-7.57 -2.39,-8.41 0,-4.74 3.88,-6.78 8.67,-7.08 -0.4,-1.79 -0.4,-1.89 -1.1,-4.53 -0.15,-0.55 -1.15,-4.58 -1.15,-4.73 0,-0.05 0,-0.5 0.6,-0.5 0.1,0 0.35,0 0.45,0.2 0.15,0.1 0.45,1.34 0.6,2.04 l 1.89,7.42 c 1.85,0 6.23,0 10.91,5.33 2.04,2.29 3.09,4.49 3.64,5.98 0.45,1.24 1.54,5.58 1.54,7.77 0,2.79 -1.34,3.49 -2.19,3.49 -1.24,0 -2.49,-1.3 -2.49,-2.39 0,-0.65 0.3,-0.95 0.75,-1.35 0.54,-0.55 1.79,-1.84 1.79,-4.23 0,-3.19 -2.59,-7.28 -4.33,-9.07 -4.39,-4.43 -7.57,-4.43 -9.37,-4.43 z"
           id="path4605" /><path
           inkscape:connector-curvature="0"
           style="fill:#0000ff;fill-opacity:1;stroke-width:0"
           d="m 507.61,430.35 h -1.19 c -0.1,-0.77 -0.45,-2.83 -0.9,-3.18 -0.28,-0.21 -2.97,-0.21 -3.45,-0.21 h -6.42 c 3.66,3.25 4.88,4.22 6.97,5.86 2.58,2.06 4.99,4.22 4.99,7.54 0,4.21 -3.7,6.79 -8.16,6.79 -4.32,0 -7.25,-3.03 -7.25,-6.24 0,-1.78 1.5,-1.95 1.84,-1.95 0.84,0 1.85,0.59 1.85,1.85 0,0.62 -0.24,1.85 -2.05,1.85 1.08,2.47 3.45,3.24 5.09,3.24 3.48,0 5.3,-2.72 5.3,-5.54 0,-3.04 -2.16,-5.45 -3.28,-6.7 l -8.4,-8.3 c -0.35,-0.31 -0.35,-0.38 -0.35,-1.36 h 14.36 z"
           id="path4607" /><path
           inkscape:connector-curvature="0"
           style="fill:#0000ff;fill-opacity:1;stroke-width:0"
           d="m 528.49,394.04 0,0.03 0,0.03 -0.01,0.01 0,0.02 0,0.01 -0.01,0.02 0,0.02 -0.01,0.01 -0.01,0.02 -0.01,0.02 -0.01,0.03 -0.01,0.02 -0.02,0.02 -0.02,0.03 -0.02,0.03 -0.02,0.03 -0.03,0.03 -0.03,0.04 -0.01,0.02 -0.02,0.02 -0.02,0.02 -0.02,0.02 -0.02,0.02 -0.02,0.03 -0.02,0.02 -0.02,0.02 -0.02,0.03 -0.03,0.02 -0.02,0.03 -0.03,0.03 -0.02,0.03 -0.03,0.03 -0.03,0.03 -0.03,0.03 -0.03,0.03 -0.03,0.03 -0.04,0.04 -0.03,0.03 -0.04,0.04 -0.03,0.03 -0.04,0.04 -0.04,0.04 c -6.23,6.28 -7.82,15.69 -7.82,23.31 0,8.67 1.9,17.34 8.02,23.57 0.65,0.59 0.65,0.69 0.65,0.84 0,0.35 -0.2,0.5 -0.5,0.5 -0.5,0 -4.98,-3.39 -7.92,-9.72 -2.54,-5.47 -3.14,-11 -3.14,-15.19 0,-3.88 0.55,-9.91 3.29,-15.54 2.99,-6.12 7.27,-9.36 7.77,-9.36 0.3,0 0.5,0.15 0.5,0.49 z"
           id="path4609" /><path
           inkscape:connector-curvature="0"
           style="fill:#0000ff;fill-opacity:1;stroke-width:0"
           d="m 581.27,443.36 -0.15,-0.07 -0.17,-0.09 -0.21,-0.11 -0.24,-0.12 -0.27,-0.13 -0.3,-0.14 -0.33,-0.16 -0.35,-0.16 -0.37,-0.17 -0.4,-0.18 -0.42,-0.18 -0.45,-0.18 -0.46,-0.19 -0.48,-0.19 -0.49,-0.19 -0.52,-0.19 -0.53,-0.19 -0.54,-0.19 -0.55,-0.18 -0.56,-0.17 -0.58,-0.17 -0.58,-0.16 -0.59,-0.15 -0.59,-0.14 -0.6,-0.12 -0.61,-0.12 -0.6,-0.1 -0.61,-0.08 -0.6,-0.07 -0.6,-0.05 -0.6,-0.03 -0.6,-0.01 c -3.64,0 -5.83,0.89 -9.27,2.39 -2.39,0.99 -4.83,1.99 -8.27,1.99 -5.82,0 -11.6,-2.79 -16.78,-5.28 l 0.5,-1 c 1.34,0.7 8.62,4.39 14.94,4.39 3.64,0 5.83,-0.9 9.27,-2.4 2.39,-0.99 4.83,-1.99 8.27,-1.99 5.82,0 11.6,2.79 16.78,5.28 z"
           id="path4611" /><path
           inkscape:connector-curvature="0"
           style="fill:#0000ff;fill-opacity:1;stroke-width:0"
           d="m 547.64,421.04 0.03,0.13 0.03,0.15 0.05,0.17 0.04,0.18 0.06,0.19 0.06,0.21 0.06,0.21 0.07,0.23 0.08,0.23 0.09,0.24 0.1,0.25 0.1,0.24 0.11,0.25 0.12,0.25 0.13,0.25 0.14,0.25 0.15,0.24 0.15,0.24 0.17,0.23 0.18,0.22 0.18,0.22 0.2,0.2 0.21,0.19 0.22,0.18 0.23,0.16 0.25,0.14 0.12,0.07 0.13,0.06 0.13,0.05 0.14,0.05 0.14,0.05 0.14,0.04 0.14,0.03 0.15,0.03 0.15,0.02 0.16,0.02 0.16,0.01 0.16,0 c 0.25,0 1.45,0 2.49,-0.65 -1.4,-0.25 -2.39,-1.49 -2.39,-2.68 0,-0.8 0.55,-1.75 1.89,-1.75 1.1,0 2.69,0.9 2.69,2.89 0,2.59 -2.94,3.29 -4.63,3.29 -2.89,0 -4.64,-2.64 -5.23,-3.79 -1.24,3.29 -3.94,3.79 -5.38,3.79 -5.18,0 -8.02,-6.43 -8.02,-7.67 0,-0.5 0.5,-0.5 0.6,-0.5 0.39,0 0.54,0.1 0.64,0.54 1.7,5.29 4.99,6.53 6.68,6.53 0.94,0 2.69,-0.45 2.69,-3.33 0,-1.55 -0.85,-4.89 -2.69,-11.86 -0.8,-3.09 -2.54,-5.18 -4.73,-5.18 -0.3,0 -1.45,0 -2.49,0.65 1.24,0.25 2.34,1.29 2.34,2.69 0,1.34 -1.1,1.74 -1.85,1.74 -1.49,0 -2.73,-1.3 -2.73,-2.89 0,-2.29 2.48,-3.29 4.68,-3.29 3.28,0 5.08,3.49 5.22,3.79 0.61,-1.85 2.4,-3.79 5.39,-3.79 5.13,0 7.97,6.43 7.97,7.68 0,0.49 -0.45,0.49 -0.6,0.49 -0.45,0 -0.55,-0.2 -0.65,-0.55 -1.64,-5.33 -5.03,-6.52 -6.62,-6.52 -1.94,0 -2.74,1.59 -2.74,3.29 0,1.09 0.3,2.19 0.85,4.38 z"
           id="path4613" /><path
           inkscape:connector-curvature="0"
           style="fill:#0000ff;fill-opacity:1;stroke-width:0"
           d="m 562.61,394.75 -0.02,-0.09 -0.02,-0.09 -0.02,-0.08 -0.02,-0.08 -0.02,-0.07 -0.02,-0.07 -0.03,-0.07 -0.02,-0.06 -0.02,-0.06 -0.03,-0.06 -0.03,-0.05 -0.03,-0.05 -0.03,-0.05 -0.03,-0.04 -0.04,-0.04 -0.04,-0.04 -0.04,-0.03 -0.05,-0.03 -0.05,-0.03 -0.05,-0.03 -0.06,-0.02 -0.07,-0.02 -0.07,-0.02 -0.07,-0.02 -0.08,-0.01 -0.05,-0.01 -0.04,-0.01 -0.04,0 -0.05,-0.01 -0.05,0 -0.05,0 -0.05,-0.01 -0.06,0 -0.05,0 -0.06,0 -0.06,-0.01 -0.06,0 -0.06,0 -0.06,0 c -0.46,0 -0.94,0 -0.94,-0.73 0,-0.38 0.31,-0.53 0.48,-0.53 h 6.66 c 0.32,0 0.7,0.11 0.7,0.77 0,0.49 -0.49,0.49 -0.91,0.49 -0.76,0 -1.7,0 -1.7,0.42 0,0.17 0.24,1.08 0.38,1.6 0.42,1.85 0.9,3.73 1.29,5.2 0.42,-0.7 1.5,-2.06 3.59,-2.06 v 0.98 c -2.48,0 -3.11,2.68 -3.11,3.03 0,0.14 0.08,0.38 0.11,0.52 l 1.75,7.01 c 2.02,2.69 3.76,3.21 4.88,3.21 1.36,0 2.54,-1.01 2.54,-3.38 0,-1.43 -0.76,-4.99 -1.81,-7.01 -0.87,-1.71 -2.58,-3.38 -4.36,-3.38 v -0.98 c 4.26,0 8.96,4.71 8.96,9.9 0,4.08 -2.82,5.83 -5.23,5.83 -2.16,0 -4.01,-1.47 -4.95,-2.44 -0.59,1.99 -2.54,2.44 -3.59,2.44 -1.36,0 -2.2,-0.91 -2.75,-1.85 -0.7,-1.19 -1.26,-3.28 -1.26,-3.49 0,-0.45 0.49,-0.45 0.59,-0.45 0.49,0 0.52,0.11 0.77,1.05 0.52,2.02 1.18,3.76 2.54,3.76 0.91,0 1.16,-0.77 1.16,-1.71 0,-0.38 -0.07,-0.83 -0.11,-1.05 z"
           id="path4615" /><path
           inkscape:connector-curvature="0"
           style="fill:#0000ff;fill-opacity:1;stroke-width:0"
           d="m 597.4,418.45 -0.01,0.37 0,0.39 -0.01,0.39 -0.01,0.41 -0.04,0.84 -0.06,0.88 -0.09,0.92 -0.1,0.94 -0.14,0.98 -0.16,1 -0.2,1.02 -0.23,1.04 -0.27,1.05 -0.3,1.06 -0.35,1.06 -0.39,1.07 -0.22,0.53 -0.22,0.54 -0.24,0.53 -0.25,0.53 c -2.99,6.12 -7.27,9.36 -7.77,9.36 -0.3,0 -0.5,-0.2 -0.5,-0.5 0,-0.15 0,-0.25 0.94,-1.15 4.89,-4.92 7.73,-12.85 7.73,-23.26 0,-8.52 -1.85,-17.28 -8.02,-23.56 -0.65,-0.6 -0.65,-0.69 -0.65,-0.85 0,-0.29 0.2,-0.49 0.5,-0.49 0.5,0 4.98,3.38 7.92,9.71 2.54,5.48 3.14,11.01 3.14,15.19 z"
           id="path4617" /></g>    </g>
    <g
       id="g4719"
       transform="matrix(0.35701736,0,0,0.35701736,80.04325,125.18013)"
       style="fill:#0000ff;fill-opacity:1">
      <g
         word-spacing="normal"
         letter-spacing="normal"
         font-size-adjust="none"
         font-stretch="normal"
         font-weight="normal"
         font-variant="normal"
         font-style="normal"
         stroke-miterlimit="10.433"
         xml:space="preserve"
         transform="matrix(1.0629921,0,0,-1.0629921,-186.02362,789.27165)"
         id="g4721"
         style="font-style:normal;font-variant:normal;font-weight:normal;font-stretch:normal;letter-spacing:normal;word-spacing:normal;text-anchor:start;fill:#0000ff;fill-opacity:1;stroke:#000000;stroke-linecap:butt;stroke-linejoin:miter;stroke-miterlimit:10.43299961;stroke-opacity:1;stroke-dasharray:none;stroke-dashoffset:0"><path
           id="path4723"
           d="m 483.6,439.87 h -25.96 v -1.54 h 1.2 c 3.84,0 3.93,-0.55 3.93,-2.34 v -26.1 c 0,-1.8 -0.09,-2.35 -3.93,-2.35 h -1.2 V 406 h 15.95 v 1.54 h -1.65 c -4.73,0 -4.73,0.65 -4.73,2.39 v 26.41 c 0,1.64 0.1,1.99 2.44,1.99 h 5.13 c 7.12,0 8.17,-2.94 8.97,-9.67 h 1.24 z"
           inkscape:connector-curvature="0"
           style="fill:#0000ff;fill-opacity:1;stroke-width:0" /><path
           id="path4725"
           d="m 528.13,422.28 -0.02,0.04 -0.02,0.03 -0.02,0.03 -0.01,0.03 -0.02,0.03 -0.01,0.03 -0.02,0.02 -0.01,0.03 -0.01,0.02 -0.01,0.03 -0.01,0.02 -0.01,0.02 -0.02,0.05 -0.02,0.04 -0.02,0.05 -0.02,0.04 -0.01,0.03 -0.01,0.02 -0.01,0.03 -0.01,0.02 -0.01,0.03 -0.01,0.03 -0.01,0.03 -0.01,0.03 -0.02,0.03 -0.01,0.04 -0.02,0.03 -0.01,0.04 c -2.83,-1.19 -7.19,-3.03 -11.47,-3.03 -2.72,0 -4.78,0.77 -6.87,1.53 -2.16,0.8 -4.08,1.5 -6.84,1.5 -4.88,0 -10.11,-2.4 -13,-3.73 0.21,-0.38 0.21,-0.45 0.38,-0.87 2.83,1.18 7.19,3.03 11.47,3.03 2.72,0 4.78,-0.76 6.87,-1.53 2.17,-0.8 4.08,-1.5 6.84,-1.5 4.88,0 10.11,2.4 13.01,3.73 z"
           inkscape:connector-curvature="0"
           style="fill:#0000ff;fill-opacity:1;stroke-width:0" /><path
           id="path4727"
           d="m 495.68,400.7 -0.03,-0.12 -0.04,-0.11 -0.05,-0.12 -0.04,-0.13 -0.06,-0.12 -0.06,-0.13 -0.06,-0.12 -0.07,-0.13 -0.07,-0.13 -0.07,-0.13 -0.08,-0.13 -0.09,-0.12 -0.09,-0.13 -0.09,-0.12 -0.1,-0.12 -0.1,-0.12 -0.11,-0.12 -0.11,-0.11 -0.11,-0.1 -0.12,-0.1 -0.12,-0.1 -0.13,-0.09 -0.13,-0.08 -0.13,-0.08 -0.14,-0.07 -0.14,-0.06 -0.15,-0.05 -0.15,-0.05 -0.15,-0.03 -0.16,-0.03 -0.16,-0.02 -0.16,0 c -0.11,0 -1.16,0 -1.89,0.49 1.43,0.45 1.53,1.7 1.53,1.92 0,0.76 -0.59,1.28 -1.39,1.28 -0.98,0 -1.99,-0.83 -1.99,-2.12 0,-1.75 1.96,-2.55 3.67,-2.55 1.6,0 3.03,1.01 3.9,2.48 0.84,-1.85 2.76,-2.48 4.15,-2.48 4.01,0 6.14,4.36 6.14,5.33 0,0.46 -0.46,0.46 -0.56,0.46 -0.49,0 -0.52,-0.17 -0.67,-0.59 -0.73,-2.41 -2.82,-4.22 -4.77,-4.22 -1.4,0 -2.13,0.94 -2.13,2.26 0,0.91 0.84,4.08 1.81,7.95 0.7,2.69 2.27,3.56 3.42,3.56 0.07,0 1.16,0 1.89,-0.49 -1.12,-0.31 -1.54,-1.29 -1.54,-1.91 0,-0.77 0.59,-1.3 1.4,-1.3 0.8,0 1.95,0.67 1.95,2.13 0,1.96 -2.23,2.55 -3.63,2.55 -1.74,0 -3.14,-1.15 -3.9,-2.48 -0.63,1.43 -2.23,2.48 -4.19,2.48 -3.9,0 -6.13,-4.29 -6.13,-5.34 0,-0.45 0.48,-0.45 0.59,-0.45 0.45,0 0.49,0.14 0.66,0.59 0.87,2.72 3.07,4.22 4.78,4.22 1.15,0 2.09,-0.63 2.09,-2.3 0,-0.7 -0.42,-2.44 -0.73,-3.63 z"
           inkscape:connector-curvature="0"
           style="fill:#0000ff;fill-opacity:1;stroke-width:0" /><path
           id="path4729"
           d="m 512.49,389.09 -0.02,-0.06 -0.01,-0.06 -0.02,-0.05 -0.01,-0.05 -0.02,-0.05 -0.01,-0.05 -0.02,-0.04 -0.01,-0.04 -0.02,-0.04 -0.02,-0.04 -0.02,-0.03 -0.02,-0.03 -0.02,-0.03 -0.03,-0.03 -0.03,-0.02 -0.03,-0.03 -0.03,-0.02 -0.04,-0.02 -0.04,-0.01 -0.04,-0.02 -0.04,-0.01 -0.05,-0.02 -0.06,-0.01 -0.03,0 -0.03,-0.01 -0.03,0 -0.03,-0.01 -0.03,0 -0.04,0 -0.03,-0.01 -0.04,0 -0.04,0 -0.04,0 -0.04,-0.01 -0.04,0 -0.05,0 -0.04,0 -0.05,0 -0.05,0 -0.05,0 -0.05,0 c -0.38,0 -0.8,0 -0.8,-0.7 0,-0.27 0.22,-0.42 0.4,-0.42 0.37,0 0.82,0.07 1.22,0.07 h 2.71 c 0.43,0 0.95,-0.07 1.37,-0.07 0.33,0 0.63,0.17 0.63,0.7 0,0.42 -0.43,0.42 -0.77,0.42 -0.83,0 -1.38,0 -1.38,0.3 0,0.15 0.4,1.67 1.15,4.63 0.62,-0.84 1.62,-1.49 2.99,-1.49 v 0.84 c -2.07,0 -2.59,2.02 -2.59,2.22 0,0.12 0.05,0.27 0.07,0.4 l 1.07,4.23 c 0.1,0.4 0.13,0.45 0.55,0.95 1,1.09 2.27,1.79 3.46,1.79 1.02,0 2.2,-0.64 2.2,-2.54 0,-1.09 -0.58,-3.49 -1.27,-4.68 -1.05,-1.82 -2.54,-2.37 -3.49,-2.37 v -0.84 c 3.51,0 7,3.43 7,6.95 0,2.48 -1.82,4.33 -4.36,4.33 -1.94,0 -3.46,-1.27 -3.96,-1.74 -0.5,1.34 -1.99,1.74 -2.92,1.74 -0.84,0 -1.59,-0.4 -2.21,-1.37 -0.65,-1.05 -0.97,-2.34 -0.97,-2.47 0,-0.37 0.37,-0.37 0.52,-0.37 0.43,0 0.47,0.13 0.57,0.52 0.28,1 0.8,2.84 1.97,2.84 0.87,0 1.02,-0.82 1.02,-1.32 0,-0.35 -0.02,-0.45 -0.07,-0.64 z"
           inkscape:connector-curvature="0"
           style="fill:#0000ff;fill-opacity:1;stroke-width:0" /></g>    </g>
  </g>
</svg>
