<?xml version="1.0" encoding="UTF-8" standalone="no"?>
<!-- Created with Inkscape (http://www.inkscape.org/) -->

<svg
   xmlns:ns0="http://www.iki.fi/pav/software/textext/"
   xmlns:dc="http://purl.org/dc/elements/1.1/"
   xmlns:cc="http://creativecommons.org/ns#"
   xmlns:rdf="http://www.w3.org/1999/02/22-rdf-syntax-ns#"
   xmlns:svg="http://www.w3.org/2000/svg"
   xmlns="http://www.w3.org/2000/svg"
   xmlns:sodipodi="http://sodipodi.sourceforge.net/DTD/sodipodi-0.dtd"
   xmlns:inkscape="http://www.inkscape.org/namespaces/inkscape"
   sodipodi:docname="orbiale_stabilitaet.svg"
   inkscape:version="0.48.4 r9939"
   version="1.1"
   id="svg2"
   height="297mm"
   width="210mm">
  <sodipodi:namedview
     id="base"
     pagecolor="#ffffff"
     bordercolor="#666666"
     borderopacity="1.0"
     inkscape:pageopacity="0.0"
     inkscape:pageshadow="2"
     inkscape:zoom="1.979899"
     inkscape:cx="345.67063"
     inkscape:cy="619.13506"
     inkscape:document-units="px"
     inkscape:current-layer="layer1"
     showgrid="false"
     inkscape:snap-bbox="true"
     inkscape:bbox-paths="true"
     inkscape:bbox-nodes="true"
     inkscape:snap-bbox-edge-midpoints="true"
     inkscape:snap-bbox-midpoints="true"
     inkscape:object-paths="true"
     inkscape:snap-intersection-paths="true"
     inkscape:object-nodes="true"
     inkscape:snap-smooth-nodes="true"
     inkscape:snap-midpoints="true"
     inkscape:snap-object-midpoints="true"
     inkscape:snap-center="true"
     inkscape:snap-global="false"
     inkscape:window-width="1600"
     inkscape:window-height="1138"
     inkscape:window-x="-8"
     inkscape:window-y="-8"
     inkscape:window-maximized="1" />
  <defs
     id="defs4">
    <marker
       inkscape:stockid="Arrow2Lend"
       orient="auto"
       refY="0.0"
       refX="0.0"
       id="Arrow2Lend"
       style="overflow:visible;">
      <path
         id="path3782"
         style="fill-rule:evenodd;stroke-width:0.62500000;stroke-linejoin:round;"
         d="M 8.7185878,4.0337352 L -2.2072895,0.016013256 L 8.7185884,-4.0017078 C 6.9730900,-1.6296469 6.9831476,1.6157441 8.7185878,4.0337352 z "
         transform="scale(1.1) rotate(180) translate(1,0)" />
    </marker>
    <marker
       inkscape:stockid="Arrow2Lend"
       orient="auto"
       refY="0"
       refX="0"
       id="Arrow2Lend-1"
       style="overflow:visible">
      <path
         inkscape:connector-curvature="0"
         id="path3782-7"
         style="fill-rule:evenodd;stroke-width:0.625;stroke-linejoin:round"
         d="M 8.7185878,4.0337352 -2.2072895,0.01601326 8.7185884,-4.0017078 c -1.7454984,2.3720609 -1.7354408,5.6174519 -6e-7,8.035443 z"
         transform="matrix(-1.1,0,0,-1.1,-1.1,0)" />
    </marker>
  </defs>
  <metadata
     id="metadata7">
    <rdf:RDF>
      <cc:Work
         rdf:about="">
        <dc:format>image/svg+xml</dc:format>
        <dc:type
           rdf:resource="http://purl.org/dc/dcmitype/StillImage" />
      </cc:Work>
    </rdf:RDF>
  </metadata>
  <g
     inkscape:label="Ebene 1"
     inkscape:groupmode="layer"
     id="layer1">
    <path
       style="fill:none;stroke:#000000;stroke-width:0.80000001px;stroke-linecap:butt;stroke-linejoin:miter;stroke-opacity:1;marker-end:url(#Arrow2Lend)"
       d="m 355.67159,422.40488 0,-175.42857"
       id="path3755"
       inkscape:connector-curvature="0" />
    <path
       style="fill:none;stroke:#000000;stroke-width:0.80000001px;stroke-linecap:butt;stroke-linejoin:miter;stroke-opacity:1;marker-end:url(#Arrow2Lend)"
       d="m 355.67159,422.40488 175.42857,0"
       id="path3755-4"
       inkscape:connector-curvature="0" />
    <path
       sodipodi:type="star"
       style="fill:none;stroke:#000000;stroke-opacity:1"
       id="path4225"
       sodipodi:sides="200"
       sodipodi:cx="267.14285"
       sodipodi:cy="452.36218"
       sodipodi:r1="110.82327"
       sodipodi:r2="110.80959"
       sodipodi:arg1="-0.81755426"
       sodipodi:arg2="-0.80184629"
       inkscape:flatsided="true"
       inkscape:rounded="0"
       inkscape:randomized="0"
       d="m 342.94679,371.51936 2.50193,2.42095 2.42465,2.49835 2.34498,2.57327 2.26299,2.64566 2.17878,2.71543 2.0924,2.78253 2.00398,2.84689 1.91356,2.90842 1.82126,2.9671 1.72716,3.02284 1.63136,3.0756 1.53395,3.12532 1.43503,3.17196 1.33468,3.21548 1.23302,3.25581 1.13015,3.29293 1.02616,3.32681 0.92115,3.3574 0.81524,3.38468 0.70852,3.40861 0.60111,3.42919 0.49309,3.44638 0.3846,3.46016 0.27572,3.47054 0.16657,3.47748 0.0573,3.481 -0.0521,3.48109 -0.16143,3.47773 -0.27058,3.47094 -0.37948,3.46073 -0.48799,3.4471 -0.59603,3.43007 -0.70347,3.40966 -0.81023,3.38588 -0.91618,3.35876 -1.02123,3.32832 -1.12527,3.29461 -1.22821,3.25763 -1.32992,3.21745 -1.43032,3.17408 -1.52933,3.12759 -1.6268,3.07802 -1.72269,3.02539 -1.81687,2.96979 -1.90925,2.91125 -1.99976,2.84985 -2.08828,2.78562 -2.17475,2.71866 -2.25908,2.64901 -2.34117,2.57674 -2.42095,2.50193 -2.49834,2.42465 -2.57327,2.34498 -2.64566,2.26299 -2.71544,2.17878 -2.78253,2.0924 -2.84688,2.00398 -2.90843,1.91356 -2.96709,1.82126 -3.02284,1.72716 -3.0756,1.63136 -3.12532,1.53395 -3.17197,1.43503 -3.21547,1.33468 -3.25581,1.23302 -3.29294,1.13015 -3.32681,1.02616 -3.3574,0.92115 -3.38467,0.81524 -3.40862,0.70852 -3.42918,0.6011 -3.44638,0.4931 -3.46016,0.3846 -3.47054,0.27572 -3.47749,0.16657 -3.481,0.0573 -3.48108,-0.0521 -3.47773,-0.16143 -3.47094,-0.27058 -3.46073,-0.37948 -3.4471,-0.48799 -3.43008,-0.59603 -3.40966,-0.70347 -3.38588,-0.81023 -3.35876,-0.91618 -3.32832,-1.02123 -3.2946,-1.12527 -3.25764,-1.22821 -3.21744,-1.32992 -3.17409,-1.43032 -3.12759,-1.52933 -3.07801,-1.6268 -3.02539,-1.72269 -2.96979,-1.81687 -2.91126,-1.90925 -2.84984,-1.99976 -2.78563,-2.08828 -2.71866,-2.17475 -2.649,-2.25908 -2.57674,-2.34117 -2.50193,-2.42095 -2.42465,-2.49834 -2.34498,-2.57327 -2.263,-2.64566 -2.17877,-2.71544 -2.09241,-2.78253 -2.00397,-2.84688 -1.91356,-2.90843 -1.82126,-2.96709 -1.72717,-3.02284 -1.63136,-3.0756 -1.53395,-3.12532 -1.43502,-3.17197 -1.33469,-3.21547 -1.23302,-3.25581 -1.13015,-3.29294 -1.02615,-3.32681 -0.92115,-3.3574 -0.81524,-3.38467 -0.70852,-3.40862 -0.60111,-3.42918 -0.49309,-3.44638 -0.3846,-3.46016 -0.27572,-3.47054 -0.16658,-3.47749 -0.0573,-3.481 0.0521,-3.48108 0.16142,-3.47773 0.27059,-3.47094 0.37947,-3.46073 0.488,-3.4471 0.59602,-3.43008 0.70348,-3.40966 0.81023,-3.38588 0.91618,-3.35876 1.02123,-3.32832 1.12527,-3.2946 1.2282,-3.25764 1.32992,-3.21744 1.43033,-3.17409 1.52932,-3.12759 1.62681,-3.07801 1.72268,-3.02539 1.81687,-2.96979 1.90926,-2.91126 1.99975,-2.84984 2.08829,-2.78563 2.17475,-2.71866 2.25908,-2.649 2.34116,-2.57674 2.42095,-2.50193 2.49835,-2.42465 2.57327,-2.34498 2.64566,-2.263 2.71543,-2.17877 2.78253,-2.09241 2.84689,-2.00397 2.90842,-1.91356 2.9671,-1.82126 3.02284,-1.72717 3.0756,-1.63136 3.12532,-1.53395 3.17196,-1.43502 3.21548,-1.33469 3.25581,-1.23302 3.29293,-1.13015 3.32681,-1.02615 3.3574,-0.92115 3.38468,-0.81524 3.40861,-0.70852 3.42919,-0.60111 3.44638,-0.49309 3.46016,-0.3846 3.47054,-0.27572 3.47748,-0.16658 3.481,-0.0573 3.48109,0.0521 3.47773,0.16142 3.47094,0.27059 3.46073,0.37947 3.4471,0.488 3.43007,0.59602 3.40966,0.70348 3.38588,0.81023 3.35876,0.91618 3.32832,1.02123 3.29461,1.12527 3.25763,1.2282 3.21745,1.32992 3.17408,1.43033 3.12759,1.52932 3.07802,1.62681 3.02539,1.72268 2.96979,1.81687 2.91125,1.90926 2.84985,1.99975 2.78562,2.08829 2.71866,2.17475 2.64901,2.25908 z"
       transform="matrix(0.8,0,0,0.8,141.95731,60.515128)" />
    <path
       sodipodi:type="star"
       style="fill:none;stroke:#ff0000;stroke-opacity:1"
       id="path4227"
       sodipodi:sides="200"
       sodipodi:cx="267.14285"
       sodipodi:cy="452.36218"
       sodipodi:r1="41.458744"
       sodipodi:r2="41.453629"
       sodipodi:arg1="0"
       sodipodi:arg2="0.015707963"
       inkscape:flatsided="true"
       inkscape:rounded="0"
       inkscape:randomized="0"
       d="m 308.6016,452.36218 -0.0205,1.30225 -0.0614,1.30097 -0.10219,1.2984 -0.14292,1.29454 -0.18351,1.28942 -0.22392,1.28302 -0.26411,1.27535 -0.30405,1.26642 -0.34367,1.25625 -0.38296,1.24484 -0.42187,1.23219 -0.46037,1.21833 -0.49841,1.20328 -0.53596,1.18702 -0.57299,1.1696 -0.60943,1.15102 -0.64529,1.13132 -0.68051,1.11049 -0.71506,1.08856 -0.74889,1.06557 -0.78199,1.04152 -0.81433,1.01644 -0.84584,0.99036 -0.87654,0.96331 -0.90637,0.93529 -0.93529,0.90637 -0.96331,0.87654 -0.99036,0.84584 -1.01644,0.81433 -1.04152,0.78199 -1.06557,0.74889 -1.08856,0.71506 -1.11049,0.68051 -1.13131,0.64529 -1.15103,0.60943 -1.1696,0.57299 -1.18702,0.53596 -1.20328,0.49841 -1.21833,0.46037 -1.23219,0.42187 -1.24484,0.38296 -1.25625,0.34367 -1.26642,0.30405 -1.27535,0.26411 -1.28302,0.22392 -1.28942,0.18351 -1.29454,0.14292 -1.2984,0.10219 -1.30097,0.0614 -1.30225,0.0205 -1.30225,-0.0205 -1.30096,-0.0614 -1.2984,-0.10219 -1.29455,-0.14292 -1.28941,-0.18351 -1.28302,-0.22392 -1.27535,-0.26411 -1.26643,-0.30405 -1.25625,-0.34367 -1.24483,-0.38296 -1.2322,-0.42187 -1.21833,-0.46037 -1.20327,-0.49841 -1.18702,-0.53596 -1.1696,-0.57299 -1.15103,-0.60943 -1.13131,-0.64529 -1.11049,-0.68051 -1.08857,-0.71506 -1.06557,-0.74889 -1.04151,-0.78199 -1.01645,-0.81433 -0.99036,-0.84584 -0.9633,-0.87654 -0.9353,-0.90637 -0.90636,-0.93529 -0.87654,-0.96331 -0.84585,-0.99036 -0.81432,-1.01644 -0.782,-1.04152 -0.74889,-1.06557 -0.71505,-1.08856 -0.68051,-1.11049 -0.64529,-1.13132 -0.60944,-1.15102 -0.57298,-1.1696 -0.53596,-1.18702 -0.49841,-1.20328 -0.46037,-1.21833 -0.42188,-1.23219 -0.38296,-1.24484 -0.34367,-1.25625 -0.30404,-1.26642 -0.26411,-1.27535 -0.22393,-1.28302 -0.18351,-1.28942 -0.14292,-1.29454 -0.10218,-1.2984 -0.0614,-1.30097 -0.0205,-1.30225 0.0205,-1.30225 0.0614,-1.30096 0.10218,-1.2984 0.14292,-1.29455 0.18351,-1.28941 0.22393,-1.28302 0.26411,-1.27535 0.30404,-1.26643 0.34367,-1.25625 0.38296,-1.24483 0.42188,-1.2322 0.46037,-1.21833 0.49841,-1.20327 0.53596,-1.18702 0.57298,-1.1696 0.60944,-1.15103 0.64529,-1.13132 0.68051,-1.11048 0.71505,-1.08857 0.74889,-1.06557 0.782,-1.04151 0.81432,-1.01645 0.84585,-0.99036 0.87654,-0.9633 0.90636,-0.9353 0.9353,-0.90636 0.9633,-0.87654 0.99036,-0.84585 1.01645,-0.81432 1.04151,-0.782 1.06557,-0.74889 1.08857,-0.71505 1.11049,-0.68051 1.13131,-0.64529 1.15103,-0.60944 1.1696,-0.57298 1.18702,-0.53596 1.20327,-0.49841 1.21833,-0.46037 1.2322,-0.42188 1.24483,-0.38296 1.25625,-0.34367 1.26643,-0.30404 1.27535,-0.26411 1.28302,-0.22393 1.28941,-0.18351 1.29455,-0.14292 1.2984,-0.10218 1.30096,-0.0614 1.30225,-0.0205 1.30225,0.0205 1.30097,0.0614 1.2984,0.10218 1.29454,0.14292 1.28942,0.18351 1.28302,0.22393 1.27535,0.26411 1.26642,0.30404 1.25625,0.34367 1.24484,0.38296 1.23219,0.42188 1.21833,0.46037 1.20328,0.49841 1.18702,0.53596 1.1696,0.57298 1.15103,0.60944 1.13131,0.64529 1.11049,0.68051 1.08856,0.71505 1.06557,0.74889 1.04152,0.782 1.01644,0.81432 0.99036,0.84585 0.96331,0.87654 0.93529,0.90636 0.90637,0.9353 0.87654,0.9633 0.84584,0.99036 0.81433,1.01645 0.78199,1.04151 0.74889,1.06557 0.71506,1.08857 0.68051,1.11048 0.64529,1.13132 0.60943,1.15103 0.57299,1.1696 0.53596,1.18702 0.49841,1.20327 0.46037,1.21833 0.42187,1.2322 0.38296,1.24483 0.34367,1.25625 0.30405,1.26643 0.26411,1.27535 0.22392,1.28302 0.18351,1.28941 0.14292,1.29455 0.10219,1.2984 0.0614,1.30096 z"
       transform="matrix(0.8,0,0,0.8,141.95731,60.515128)" />
    <path
       sodipodi:type="star"
       style="fill:none;stroke:#ff0000;stroke-opacity:1"
       id="path4229"
       sodipodi:sides="200"
       sodipodi:cx="267.14285"
       sodipodi:cy="452.36218"
       sodipodi:r1="199.11391"
       sodipodi:r2="199.08932"
       sodipodi:arg1="0.93819361"
       sodipodi:arg2="0.95390158"
       inkscape:flatsided="true"
       inkscape:rounded="0"
       inkscape:randomized="0"
       d="m 384.86812,612.94584 -5.10215,3.6186 -5.21329,3.45655 -5.31929,3.2911 -5.42004,3.12238 -5.51544,2.9506 -5.6054,2.7759 -5.68983,2.59846 -5.76865,2.41846 -5.84176,2.23606 -5.90911,2.05147 -5.97064,1.86485 -6.02627,1.67638 -6.07595,1.48626 -6.11964,1.29469 -6.15728,1.10182 -6.18885,0.90787 -6.21432,0.71303 -6.23365,0.51748 -6.24683,0.32142 -6.25384,0.12504 -6.25468,-0.0714 -6.24935,-0.26789 -6.23786,-0.46405 -6.2202,-0.65975 -6.1964,-0.85481 -6.1665,-1.04903 -6.13051,-1.2422 -6.08846,-1.43415 -6.04041,-1.62468 -5.9864,-1.81362 -5.92647,-2.00076 -5.86071,-2.18593 -5.78915,-2.36894 -5.71189,-2.54962 -5.62898,-2.72776 -5.54052,-2.90324 -5.4466,-3.07583 -5.34729,-3.2454 -5.24272,-3.41176 -5.13296,-3.57475 -5.01814,-3.73422 -4.89838,-3.89 -4.77376,-4.04194 -4.64446,-4.18989 -4.51055,-4.33372 -4.3722,-4.47325 -4.22954,-4.60838 -4.08269,-4.73896 -3.93183,-4.86487 -3.77708,-4.98596 -3.6186,-5.10215 -3.456555,-5.21329 -3.291095,-5.31929 -3.122388,-5.42004 -2.9506,-5.51544 -2.775899,-5.6054 -2.59846,-5.68984 -2.418455,-5.76864 -2.236065,-5.84176 -2.051468,-5.90911 -1.864845,-5.97064 -1.676383,-6.02627 -1.486266,-6.07595 -1.294682,-6.11964 -1.101821,-6.15728 -0.907873,-6.18885 -0.713027,-6.21432 -0.51748,-6.23365 -0.32142,-6.24683 -0.125045,-6.25384 0.07146,-6.25468 0.267885,-6.24935 0.464049,-6.23786 0.659755,-6.2202 0.854812,-6.1964 1.049023,-6.1665 1.2422,-6.13051 1.434151,-6.08846 1.624687,-6.04041 1.813619,-5.9864 2.000761,-5.92647 2.185929,-5.86071 2.368939,-5.78915 2.549613,-5.71189 2.727769,-5.62898 2.903233,-5.54052 3.075833,-5.4466 3.245397,-5.34729 3.411757,-5.24272 3.57475,-5.13296 3.73422,-5.01814 3.89,-4.89838 4.04194,-4.77376 4.1899,-4.64446 4.33371,-4.51055 4.47326,-4.3722 4.60838,-4.22954 4.73896,-4.08269 4.86486,-3.93183 4.98597,-3.77708 5.10214,-3.6186 5.21329,-3.45656 5.31929,-3.29109 5.42004,-3.12239 5.51545,-2.9506 5.6054,-2.7759 5.68983,-2.59846 5.76864,-2.41845 5.84176,-2.23607 5.90912,-2.05146 5.97064,-1.86485 6.02626,-1.67638 6.07595,-1.48627 6.11964,-1.29468 6.15729,-1.10182 6.18885,-0.90787 6.21432,-0.71303 6.23365,-0.51748 6.24682,-0.32142 6.25384,-0.12505 6.25469,0.0715 6.24935,0.26788 6.23785,0.46405 6.2202,0.65976 6.19641,0.85481 6.1665,1.04902 6.1305,1.2422 6.08846,1.43415 6.04041,1.62469 5.9864,1.81362 5.92648,2.00076 5.8607,2.18593 5.78916,2.36894 5.71188,2.54961 5.62898,2.72777 5.54053,2.90323 5.44659,3.07584 5.3473,3.24539 5.24271,3.41176 5.13296,3.57475 5.01815,3.73422 4.89837,3.89 4.77377,4.04194 4.64445,4.1899 4.51056,4.33371 4.3722,4.47326 4.22953,4.60838 4.0827,4.73896 3.93183,4.86486 3.77708,4.98597 3.6186,5.10214 3.45655,5.21329 3.2911,5.31929 3.12238,5.42004 2.9506,5.51545 2.7759,5.6054 2.59846,5.68983 2.41846,5.76864 2.23606,5.84176 2.05147,5.90912 1.86485,5.97064 1.67638,6.02626 1.48626,6.07595 1.29469,6.11964 1.10182,6.15728 0.90787,6.18886 0.71303,6.21432 0.51748,6.23365 0.32142,6.24682 0.12504,6.25384 -0.0715,6.25469 -0.26789,6.24935 -0.46405,6.23785 -0.65975,6.2202 -0.85481,6.19641 -1.04903,6.1665 -1.2422,6.1305 -1.43415,6.08846 -1.62468,6.04041 -1.81362,5.9864 -2.00076,5.92648 -2.18593,5.8607 -2.36894,5.78916 -2.54962,5.71188 -2.72776,5.62898 -2.90324,5.54053 -3.07583,5.44659 -3.2454,5.3473 -3.41176,5.24271 -3.57475,5.13296 -3.73422,5.01815 -3.89,4.89837 -4.04194,4.77377 -4.18989,4.64445 -4.33372,4.51056 -4.47325,4.3722 -4.60838,4.22953 -4.73896,4.0827 -4.86487,3.93183 z"
       transform="matrix(0.8,0,0,0.8,141.95731,60.515128)" />
    <path
       sodipodi:type="star"
       style="fill:none;stroke:#0000ff;stroke-opacity:1"
       id="path4231"
       sodipodi:sides="200"
       sodipodi:cx="267.14285"
       sodipodi:cy="452.36218"
       sodipodi:r1="91.825958"
       sodipodi:r2="91.814629"
       sodipodi:arg1="1.2571983"
       sodipodi:arg2="1.2729063"
       inkscape:flatsided="true"
       inkscape:rounded="0"
       inkscape:randomized="0"
       d="m 295.46962,539.70977 -2.75764,0.84666 -2.78286,0.75963 -2.80535,0.67184 -2.82507,0.58339 -2.84201,0.49437 -2.85612,0.40485 -2.86744,0.31494 -2.87591,0.22471 -2.88156,0.13427 -2.88434,0.0437 -2.8843,-0.0469 -2.8814,-0.13751 -2.87566,-0.22794 -2.86708,-0.31816 -2.85567,-0.40806 -2.84145,-0.49755 -2.82441,-0.58656 -2.8046,-0.67499 -2.78201,-0.76275 -2.75668,-0.84976 -2.72863,-0.93593 -2.69788,-1.02118 -2.66447,-1.10541 -2.62844,-1.18856 -2.58981,-1.27054 -2.54862,-1.35126 -2.50493,-1.43064 -2.45874,-1.50862 -2.41015,-1.58511 -2.35917,-1.66003 -2.30586,-1.73331 -2.25028,-1.80489 -2.19247,-1.87468 -2.13251,-1.94262 -2.07044,-2.00865 -2.00632,-2.07269 -1.94023,-2.13469 -1.87221,-2.19458 -1.80236,-2.2523 -1.73073,-2.30781 -1.65738,-2.36103 -1.5824,-2.41192 -1.50586,-2.46044 -1.42783,-2.50652 -1.3484,-2.55014 -1.26763,-2.59123 -1.18561,-2.62978 -1.10242,-2.66571 -1.01815,-2.69903 -0.93287,-2.72967 -0.84666,-2.75764 -0.75963,-2.78286 -0.67184,-2.80535 -0.58339,-2.82507 -0.49436,-2.84201 -0.40486,-2.85612 -0.31493,-2.86744 -0.22472,-2.87591 -0.13427,-2.88156 -0.0437,-2.88434 0.0469,-2.8843 0.1375,-2.8814 0.22795,-2.87566 0.31815,-2.86708 0.40806,-2.85567 0.49756,-2.84145 0.58656,-2.82441 0.67499,-2.8046 0.76275,-2.78201 0.84976,-2.75668 0.93593,-2.72863 1.02117,-2.69788 1.10542,-2.66447 1.18856,-2.62844 1.27053,-2.58981 1.35126,-2.54862 1.43065,-2.50493 1.50862,-2.45874 1.58511,-2.41015 1.66003,-2.35917 1.73331,-2.30586 1.80489,-2.25028 1.87468,-2.19247 1.94262,-2.13251 2.00865,-2.07044 2.07269,-2.00632 2.13468,-1.94023 2.19458,-1.87221 2.25231,-1.80236 2.3078,-1.73073 2.36103,-1.65738 2.41193,-1.5824 2.46043,-1.50586 2.50653,-1.42783 2.55014,-1.3484 2.59123,-1.26763 2.62977,-1.18561 2.66572,-1.10242 2.69902,-1.01815 2.72968,-0.93287 2.75763,-0.84666 2.78287,-0.75963 2.80535,-0.67184 2.82507,-0.58339 2.842,-0.49436 2.85613,-0.40486 2.86744,-0.31493 2.87591,-0.22472 2.88155,-0.13427 2.88435,-0.0437 2.8843,0.0469 2.8814,0.1375 2.87566,0.22795 2.86708,0.31815 2.85567,0.40806 2.84144,0.49756 2.82442,0.58656 2.80459,0.67499 2.78201,0.76275 2.75668,0.84976 2.72863,0.93593 2.69788,1.02117 2.66448,1.10542 2.62844,1.18856 2.58981,1.27053 2.54862,1.35126 2.50492,1.43065 2.45875,1.50862 2.41014,1.58511 2.35917,1.66003 2.30586,1.73331 2.25028,1.80489 2.19248,1.87468 2.13251,1.94262 2.07043,2.00865 2.00632,2.07269 1.94023,2.13468 1.87222,2.19458 1.80236,2.25231 1.73072,2.3078 1.65738,2.36103 1.58241,2.41192 1.50586,2.46044 1.42783,2.50653 1.34839,2.55014 1.26763,2.59123 1.18561,2.62977 1.10243,2.66572 1.01814,2.69902 0.93287,2.72968 0.84666,2.75763 0.75963,2.78287 0.67184,2.80535 0.58339,2.82507 0.49437,2.842 0.40485,2.85613 0.31494,2.86744 0.22472,2.87591 0.13426,2.88155 0.0437,2.88435 -0.0469,2.8843 -0.13751,2.8814 -0.22794,2.87565 -0.31816,2.86708 -0.40806,2.85568 -0.49755,2.84144 -0.58656,2.82442 -0.67499,2.80459 -0.76275,2.78201 -0.84976,2.75668 -0.93593,2.72863 -1.02118,2.69788 -1.10541,2.66448 -1.18856,2.62844 -1.27054,2.58981 -1.35126,2.54862 -1.43064,2.50492 -1.50862,2.45875 -1.58511,2.41014 -1.66003,2.35917 -1.73331,2.30586 -1.80489,2.25028 -1.87468,2.19248 -1.94262,2.13251 -2.00865,2.07043 -2.07269,2.00632 -2.13469,1.94023 -2.19458,1.87222 -2.2523,1.80236 -2.30781,1.73072 -2.36103,1.65738 -2.41192,1.58241 -2.46044,1.50586 -2.50652,1.42783 -2.55014,1.34839 -2.59123,1.26763 -2.62977,1.18561 -2.66572,1.10243 -2.69903,1.01814 z"
       transform="matrix(0.8,0,0,0.8,141.95731,60.515128)" />
    <path
       sodipodi:type="star"
       style="fill:none;stroke:#0000ff;stroke-opacity:1"
       id="path4233"
       sodipodi:sides="200"
       sodipodi:cx="267.14285"
       sodipodi:cy="452.36218"
       sodipodi:r1="130.4751"
       sodipodi:r2="130.45901"
       sodipodi:arg1="1.2474385"
       sodipodi:arg2="1.2631465"
       inkscape:flatsided="true"
       inkscape:rounded="0"
       inkscape:randomized="0"
       d="m 308.6016,576.07525 -3.90638,1.24121 -3.94344,1.11789 -3.97661,0.99347 -4.00585,0.86808 -4.03114,0.74182 -4.05245,0.61483 -4.06977,0.48724 -4.08306,0.35916 -4.09232,0.23073 -4.09756,0.10208 -4.09874,-0.0267 -4.09588,-0.15541 -4.08898,-0.28399 -4.07804,-0.41229 -4.06308,-0.54018 -4.0441,-0.66754 -4.02114,-0.79423 -3.99421,-0.92015 -3.96334,-1.04516 -3.92855,-1.16913 -3.88989,-1.29196 -3.84739,-1.4135 -3.80109,-1.53366 -3.75104,-1.65229 -3.69729,-1.7693 -3.63989,-1.88456 -3.5789,-1.99796 -3.51438,-2.1094 -3.44638,-2.21874 -3.375,-2.3259 -3.30026,-2.43077 -3.22229,-2.53323 -3.14113,-2.63319 -3.05687,-2.73056 -2.96958,-2.82523 -2.87939,-2.91711 -2.78633,-3.00612 -2.69053,-3.09215 -2.59208,-3.17515 -2.49106,-3.25499 -2.3876,-3.33163 -2.28176,-3.40499 -2.17369,-3.47498 -2.06347,-3.54154 -1.9512,-3.6046 -1.83701,-3.66412 -1.72102,-3.72001 -1.60332,-3.77224 -1.48404,-3.82073 -1.3633,-3.86546 -1.2412,-3.90638 -1.11789,-3.94344 -0.99348,-3.97661 -0.86807,-4.00585 -0.74182,-4.03114 -0.61483,-4.05245 -0.48724,-4.06977 -0.35916,-4.08306 -0.23074,-4.09232 -0.10207,-4.09756 0.0267,-4.09874 0.15541,-4.09588 0.28399,-4.08898 0.41229,-4.07804 0.54017,-4.06308 0.66754,-4.0441 0.79424,-4.02114 0.92015,-3.99421 1.04516,-3.96334 1.16913,-3.92855 1.29195,-3.88989 1.41351,-3.84739 1.53365,-3.80109 1.65229,-3.75104 1.7693,-3.69729 1.88457,-3.63989 1.99796,-3.5789 2.10939,-3.51438 2.21875,-3.44638 2.3259,-3.375 2.43076,-3.30026 2.53323,-3.22229 2.63319,-3.14113 2.73056,-3.05687 2.82523,-2.96958 2.91712,-2.87939 3.00611,-2.78633 3.09216,-2.69053 3.17514,-2.59208 3.25499,-2.49106 3.33164,-2.3876 3.40498,-2.28176 3.47498,-2.17369 3.54154,-2.06347 3.60461,-1.9512 3.66412,-1.83701 3.72001,-1.72102 3.77223,-1.60332 3.82074,-1.48404 3.86546,-1.3633 3.90638,-1.2412 3.94344,-1.11789 3.9766,-0.99348 4.00585,-0.86807 4.03114,-0.74182 4.05246,-0.61483 4.06976,-0.48724 4.08306,-0.35916 4.09233,-0.23074 4.09756,-0.10208 4.09874,0.0267 4.09588,0.15541 4.08897,0.28399 4.07804,0.41229 4.06308,0.54017 4.04411,0.66754 4.02114,0.79424 3.99421,0.92015 3.96333,1.04516 3.92855,1.16913 3.88989,1.29195 3.84739,1.41351 3.80109,1.53365 3.75104,1.65229 3.6973,1.7693 3.63989,1.88457 3.5789,1.99796 3.51437,2.10939 3.44639,2.21875 3.37499,2.3259 3.30027,2.43076 3.22229,2.53323 3.14112,2.63319 3.05687,2.73056 2.96959,2.82523 2.87938,2.91712 2.78633,3.00611 2.69054,3.09216 2.59207,3.17514 2.49107,3.25499 2.38759,3.33164 2.28177,3.40498 2.17369,3.47498 2.06346,3.54154 1.9512,3.60461 1.83702,3.66412 1.72102,3.72001 1.60332,3.77223 1.48404,3.82074 1.36329,3.86546 1.24121,3.90638 1.11789,3.94344 0.99347,3.9766 0.86808,4.00585 0.74182,4.03114 0.61483,4.05246 0.48724,4.06976 0.35916,4.08306 0.23073,4.09233 0.10208,4.09756 -0.0267,4.09874 -0.15541,4.09588 -0.28399,4.08897 -0.41229,4.07804 -0.54018,4.06308 -0.66754,4.04411 -0.79423,4.02114 -0.92015,3.99421 -1.04516,3.96333 -1.16913,3.92855 -1.29196,3.88989 -1.4135,3.84739 -1.53366,3.80109 -1.65229,3.75104 -1.7693,3.6973 -1.88456,3.63989 -1.99796,3.5789 -2.1094,3.51437 -2.21874,3.44639 -2.3259,3.37499 -2.43077,3.30027 -2.53323,3.22229 -2.63319,3.14112 -2.73056,3.05687 -2.82523,2.96959 -2.91711,2.87938 -3.00612,2.78633 -3.09215,2.69054 -3.17515,2.59207 -3.25499,2.49107 -3.33163,2.38759 -3.40499,2.28177 -3.47498,2.17369 -3.54154,2.06346 -3.6046,1.9512 -3.66412,1.83702 -3.72001,1.72102 -3.77224,1.60332 -3.82073,1.48404 z"
       transform="matrix(0.8,0,0,0.8,141.95731,60.515128)" />
    <path
       style="fill:none;stroke:#0000ff;stroke-width:0.80000001px;stroke-linecap:butt;stroke-linejoin:miter;stroke-opacity:1"
       d="m 267.19207,428.03729 15.16113,-1.06092"
       id="path4243"
       inkscape:connector-curvature="0" />
    <path
       style="fill:none;stroke:#ff0000;stroke-width:0.80000001px;stroke-linecap:butt;stroke-linejoin:miter;stroke-opacity:1"
       d="M 269.45795,401.77429 201.86646,381.03598"
       id="path4245"
       inkscape:connector-curvature="0" />
    <path
       style="fill:none;stroke:#000000;stroke-width:0.80000001px;stroke-linecap:butt;stroke-linejoin:miter;stroke-opacity:1;marker-end:url(#Arrow2Lend-1)"
       d="m 405.55939,495.6958 4.50352,-3.27711"
       id="path4247"
       inkscape:connector-curvature="0" />
    <path
       style="fill:none;stroke:#000000;stroke-width:0.80000001;stroke-linecap:butt;stroke-linejoin:miter;stroke-miterlimit:4;stroke-opacity:1;stroke-dasharray:none;marker-end:url(#Arrow2Lend-1)"
       d="m 314.13272,344.09183 -3.64851,2.03428"
       id="path4433"
       inkscape:connector-curvature="0" />
    <path
       style="fill:none;stroke:#000000;stroke-width:0.80000001px;stroke-linecap:butt;stroke-linejoin:miter;stroke-opacity:1;marker-end:url(#Arrow2Lend-1)"
       d="m 275.47883,460.21325 2.53225,4.96074"
       id="path4619"
       inkscape:connector-curvature="0" />
    <path
       style="fill:none;stroke:#00ff00;stroke-width:0.80000001px;stroke-linecap:butt;stroke-linejoin:miter;stroke-opacity:1"
       d="m 369.10016,515.83345 c 0,0 41.05901,-12.63573 58.28571,-24.85714 18.08913,-12.83327 38.14327,-28.00443 44.85715,-49.14286 8.80386,-27.71866 6.02832,-62.89205 -10.85715,-86.57143 -21.19279,-29.71977 -61.90004,-45.37338 -98.28571,-48.28571 -35.04523,-2.80505 -77.91221,4.21945 -100.85714,30.85714 -27.77747,32.24798 -32.30313,85.90348 -18.85715,126.28571 11.25459,33.80082 42.99141,61.7416 76,75.14286 21.00254,8.52688 68,-0.57143 68,-0.57143"
       id="path4805"
       inkscape:connector-curvature="0"
       sodipodi:nodetypes="csssssssc" />
    <path
       style="fill:none;stroke:#00ff00;stroke-width:0.80000001px;stroke-linecap:butt;stroke-linejoin:miter;stroke-opacity:1"
       d="m 399.95731,485.83345 c 0,0 28.83376,-31.30253 31.42856,-51.14286 2.28194,-17.44805 -2.71157,-38.11731 -15.14285,-50.57143 -14.68684,-14.7138 -39.64571,-23.42696 -59.71428,-18 -20.10035,5.43556 -38.13467,25.37015 -42.57143,45.71429 -4.63967,21.27452 1.54067,51.4188 20.57143,62 21.40021,11.89863 58.38226,3.57767 71.42857,-17.14286 11.36603,-18.05187 -13.42857,-62.57143 -13.42857,-62.57143"
       id="path4807"
       inkscape:connector-curvature="0"
       sodipodi:nodetypes="cssssssc" />
    <path
       style="fill:none;stroke:#00ff00;stroke-width:0.80000001px;stroke-linecap:butt;stroke-linejoin:miter;stroke-opacity:1;marker-end:url(#Arrow2Lend-1)"
       d="m 426.0516,449.77584 1.31864,-2.67311"
       id="path4809"
       inkscape:connector-curvature="0" />
    <path
       style="fill:none;stroke:#000000;stroke-width:0.80000001px;stroke-linecap:butt;stroke-linejoin:miter;stroke-opacity:1;marker-end:url(#Arrow2Lend-1)"
       d="m 319.72971,396.73445 -2.01781,4.00656"
       id="path4995"
       inkscape:connector-curvature="0" />
    <path
       style="fill:none;stroke:#00ff00;stroke-width:0.80000001px;stroke-linecap:butt;stroke-linejoin:miter;stroke-opacity:1;marker-end:url(#Arrow2Lend-1)"
       d="m 378.26822,476.15263 4.59583,-1.63331"
       id="path5181"
       inkscape:connector-curvature="0" />
    <path
       style="fill:none;stroke:#00ff00;stroke-width:0.80000001px;stroke-linecap:butt;stroke-linejoin:miter;stroke-opacity:1;marker-end:url(#Arrow2Lend-1)"
       d="m 454.93226,468.66585 2.17241,-2.26693"
       id="path5367"
       inkscape:connector-curvature="0" />
    <path
       style="fill:none;stroke:#00ff00;stroke-width:0.80000001px;stroke-linecap:butt;stroke-linejoin:miter;stroke-opacity:1;marker-end:url(#Arrow2Lend-1)"
       d="m 437.25335,331.97604 -7.29784,-4.64735"
       id="path5553"
       inkscape:connector-curvature="0" />
    <path
       style="fill:none;stroke:#00ff00;stroke-width:0.80000001px;stroke-linecap:butt;stroke-linejoin:miter;stroke-opacity:1;marker-end:url(#Arrow2Lend-1)"
       d="m 243.38587,464.11916 1.74768,4.79448"
       id="path5739"
       inkscape:connector-curvature="0" />
    <g
       style="font-style:normal;font-variant:normal;font-weight:normal;font-stretch:normal;letter-spacing:normal;word-spacing:normal;text-anchor:start;fill:none;stroke:#000000;stroke-linecap:butt;stroke-linejoin:miter;stroke-miterlimit:10.43299961;stroke-opacity:1;stroke-dasharray:none;stroke-dashoffset:0"
       id="content"
       transform="matrix(1,0,0,-1,-184.64286,722.5)"
       xml:space="preserve"
       stroke-miterlimit="10.433"
       font-style="normal"
       font-variant="normal"
       font-weight="normal"
       font-stretch="normal"
       font-size-adjust="none"
       letter-spacing="normal"
       word-spacing="normal"
       ns0:text="$\\varepsilon$\n"
       ns0:preamble="">
<path
   style="fill:#ff0000;fill-opacity:1;stroke-width:0"
   inkscape:connector-curvature="0"
   d="m 413.18518,346.29272 0.12658,-0.0422 0.12659,-0.0422 0.12658,-0.0422 0.12658,-0.0422 0.12658,-0.0422 0.12658,-0.0422 0.12659,-0.0422 0.12658,-0.0422 0.0844,0 0.12658,-0.0422 0.25316,-0.0422 0.25317,-0.0422 0.21097,-0.0422 0.21097,0 0.21097,-0.0422 0.25316,0 0.21097,0 0.16878,0 0.21097,0 0.21097,0 0.16878,-0.0422 v 0.92827 c -0.88608,0 -1.4346,0 -2.19409,0.21097 h 0 c 0.97046,0.33755 1.81434,0.37975 2.53164,0.37975 1.05485,0 1.22363,-0.0422 1.98312,-0.25317 -0.63291,-0.29536 -0.7173,-0.33755 -2.32067,-0.33755 v -0.92827 c 1.09704,0 3.41772,0 3.41772,1.30801 0,1.01266 -1.47679,1.13925 -3.08017,1.13925 -0.88607,0 -2.32067,-0.0844 -3.88186,-0.80169 -0.97046,0.50633 -1.68776,1.30801 -1.68776,2.44725 0,2.57384 4.13502,4.09283 7.8903,4.09283 0.6751,0 2.19409,0 3.88185,-1.18143 0.46414,-0.33756 0.54853,-0.42194 0.84388,-0.42194 0.54853,0 1.13925,0.54852 1.13925,1.13924 0,0.80168 -2.57384,2.40506 -5.44304,2.40506 -4.81013,0 -9.36709,-2.827 -9.36709,-6.03376 0,-1.81434 1.51899,-2.86919 1.68776,-2.99578 -2.48945,-1.3924 -3.83966,-3.71308 -3.83966,-5.654 0,-2.74262 2.40506,-5.31646 6.87764,-5.31646 5.52742,0 7.89029,3.71308 7.89029,4.34599 0,0.25317 -0.21097,0.42194 -0.46413,0.42194 -0.21097,0 -0.33756,-0.16877 -0.42194,-0.29536 -0.59072,-0.97046 -1.60338,-2.53164 -6.66667,-2.53164 -2.53165,0 -6.11814,0.63291 -6.11814,3.62869 0,1.4346 1.18143,3.67089 3.75527,4.89452 z"
   id="path5961" />
</g>    <g
       style="font-style:normal;font-variant:normal;font-weight:normal;font-stretch:normal;letter-spacing:normal;word-spacing:normal;text-anchor:start;fill:none;stroke:#000000;stroke-linecap:butt;stroke-linejoin:miter;stroke-miterlimit:10.43299961;stroke-opacity:1;stroke-dasharray:none;stroke-dashoffset:0"
       id="g6153"
       transform="matrix(1.9550342,0,0,-1.9550342,-105.49966,1908.3351)"
       xml:space="preserve"
       stroke-miterlimit="10.433"
       font-style="normal"
       font-variant="normal"
       font-weight="normal"
       font-stretch="normal"
       font-size-adjust="none"
       letter-spacing="normal"
       word-spacing="normal"
       ns0:text="$\\Gamma_{x_p}$"
       ns0:preamble="">
<path
   style="fill:#000000;stroke-width:0"
   inkscape:connector-curvature="0"
   d="m 228.95,713.9 h -5.19 v -0.31 H 224 c 0.77,0 0.79,-0.11 0.79,-0.47 v -5.22 c 0,-0.36 -0.02,-0.47 -0.79,-0.47 h -0.24 v -0.31 c 0.35,0.03 1.13,0.03 1.52,0.03 0.4,0 1.31,0 1.67,-0.03 v 0.31 h -0.33 c -0.95,0 -0.95,0.13 -0.95,0.48 v 5.28 c 0,0.33 0.02,0.4 0.49,0.4 h 1.03 c 1.42,0 1.63,-0.59 1.79,-1.93 h 0.25 z"
   id="path6155" />
<path
   style="fill:#000000;stroke-width:0"
   inkscape:connector-curvature="0"
   d="m 231.39,706.37 0,-0.02 -0.01,-0.03 -0.01,-0.02 -0.01,-0.03 -0.01,-0.02 -0.01,-0.03 -0.01,-0.02 -0.02,-0.03 -0.01,-0.02 -0.02,-0.03 -0.01,-0.02 -0.02,-0.03 -0.02,-0.02 -0.02,-0.03 -0.02,-0.02 -0.02,-0.03 -0.02,-0.02 -0.02,-0.02 -0.02,-0.02 -0.03,-0.02 -0.02,-0.02 -0.03,-0.02 -0.02,-0.02 -0.03,-0.01 -0.03,-0.02 -0.03,-0.01 -0.02,-0.01 -0.03,-0.01 -0.04,0 -0.03,-0.01 -0.03,0 -0.03,0 c -0.02,0 -0.23,0 -0.38,0.09 0.29,0.09 0.31,0.35 0.31,0.39 0,0.15 -0.12,0.25 -0.28,0.25 -0.2,0 -0.4,-0.16 -0.4,-0.42 0,-0.35 0.39,-0.51 0.74,-0.51 0.31,0 0.6,0.2 0.78,0.49 0.16,-0.36 0.55,-0.49 0.83,-0.49 0.8,0 1.22,0.87 1.22,1.07 0,0.09 -0.09,0.09 -0.11,0.09 -0.1,0 -0.1,-0.04 -0.13,-0.12 -0.15,-0.48 -0.57,-0.84 -0.96,-0.84 -0.28,0 -0.42,0.18 -0.42,0.45 0,0.18 0.16,0.82 0.36,1.59 0.14,0.54 0.45,0.71 0.68,0.71 0.02,0 0.23,0 0.38,-0.1 -0.22,-0.06 -0.31,-0.25 -0.31,-0.38 0,-0.15 0.12,-0.26 0.28,-0.26 0.16,0 0.39,0.13 0.39,0.43 0,0.39 -0.44,0.51 -0.72,0.51 -0.35,0 -0.63,-0.24 -0.78,-0.5 -0.13,0.29 -0.45,0.5 -0.84,0.5 -0.78,0 -1.23,-0.86 -1.23,-1.07 0,-0.09 0.1,-0.09 0.12,-0.09 0.09,0 0.1,0.03 0.13,0.12 0.18,0.54 0.62,0.84 0.96,0.84 0.23,0 0.42,-0.12 0.42,-0.46 0,-0.14 -0.09,-0.49 -0.15,-0.72 z"
   id="path6157" />
<path
   style="fill:#000000;stroke-width:0"
   inkscape:connector-curvature="0"
   d="m 234.88,704.05 -0.01,-0.01 0,-0.01 0,-0.01 0,-0.01 -0.01,-0.01 0,-0.01 0,-0.01 -0.01,-0.01 0,-0.01 0,0 -0.01,-0.01 0,-0.01 -0.01,0 0,-0.01 -0.01,0 0,-0.01 -0.01,0 -0.01,-0.01 -0.01,0 0,0 -0.01,-0.01 -0.01,0 -0.01,0 -0.01,0 -0.01,0 0,0 -0.01,0 -0.01,-0.01 0,0 -0.01,0 -0.01,0 0,0 -0.01,0 -0.01,0 -0.01,0 -0.01,0 -0.01,0 -0.01,0 -0.01,0 -0.01,0 -0.01,0 c -0.07,0 -0.16,0 -0.16,-0.14 0,-0.05 0.05,-0.08 0.08,-0.08 0.08,0 0.17,0.01 0.25,0.01 0.08,0 0.16,0.01 0.25,0.01 0.1,0 0.19,-0.01 0.29,-0.01 0.08,0 0.19,-0.01 0.28,-0.01 0.06,0 0.12,0.03 0.12,0.14 0,0.08 -0.09,0.08 -0.15,0.08 -0.17,0 -0.28,0 -0.28,0.06 0,0.03 0.08,0.33 0.23,0.93 0.13,-0.17 0.32,-0.3 0.6,-0.3 v 0.17 c -0.42,0 -0.52,0.4 -0.52,0.44 0,0.03 0.01,0.05 0.02,0.08 l 0.21,0.85 c 0.02,0.08 0.02,0.09 0.11,0.19 0.2,0.22 0.45,0.35 0.69,0.35 0.21,0 0.44,-0.13 0.44,-0.5 0,-0.22 -0.11,-0.7 -0.25,-0.94 -0.21,-0.36 -0.51,-0.47 -0.7,-0.47 v -0.17 c 0.7,0 1.4,0.69 1.4,1.39 0,0.5 -0.37,0.86 -0.87,0.86 -0.39,0 -0.7,-0.25 -0.8,-0.34 -0.1,0.27 -0.39,0.34 -0.58,0.34 -0.17,0 -0.32,-0.07 -0.44,-0.27 -0.13,-0.21 -0.2,-0.47 -0.2,-0.49 0,-0.08 0.08,-0.08 0.11,-0.08 0.08,0 0.09,0.03 0.11,0.11 0.06,0.2 0.16,0.56 0.4,0.56 0.17,0 0.2,-0.16 0.2,-0.26 0,-0.07 0,-0.09 -0.02,-0.13 z"
   id="path6159" />
</g>    <g
       id="g6321"
       transform="matrix(2.1574973,0,0,-2.1574973,-116.34812,2083.5464)"
       xml:space="preserve"
       stroke-miterlimit="10.433"
       font-style="normal"
       font-variant="normal"
       font-weight="normal"
       font-stretch="normal"
       font-size-adjust="none"
       letter-spacing="normal"
       word-spacing="normal"
       ns0:text="$\\Gamma_{x_2}$"
       ns0:preamble=""
       style="font-style:normal;font-variant:normal;font-weight:normal;font-stretch:normal;letter-spacing:normal;word-spacing:normal;text-anchor:start;fill:#00ff00;fill-opacity:1;fill-rule:evenodd;stroke:#000000;stroke-linecap:butt;stroke-linejoin:miter;stroke-miterlimit:10.43299961;stroke-opacity:1;stroke-dasharray:none;stroke-dashoffset:0">
<path
   d="m 228.95,713.9 h -5.19 v -0.31 H 224 c 0.77,0 0.79,-0.11 0.79,-0.47 v -5.22 c 0,-0.36 -0.02,-0.47 -0.79,-0.47 h -0.24 v -0.31 c 0.35,0.03 1.13,0.03 1.52,0.03 0.4,0 1.31,0 1.67,-0.03 v 0.31 h -0.33 c -0.95,0 -0.95,0.13 -0.95,0.48 v 5.28 c 0,0.33 0.02,0.4 0.49,0.4 h 1.03 c 1.42,0 1.63,-0.59 1.79,-1.93 h 0.25 z"
   id="path6323"
   style="fill:#00ff00;fill-opacity:1;stroke-width:0"
   inkscape:connector-curvature="0" />
<path
   d="m 231.39,706.37 0,-0.02 -0.01,-0.03 -0.01,-0.02 -0.01,-0.03 -0.01,-0.02 -0.01,-0.03 -0.01,-0.02 -0.02,-0.03 -0.01,-0.02 -0.02,-0.03 -0.01,-0.02 -0.02,-0.03 -0.02,-0.02 -0.02,-0.03 -0.02,-0.02 -0.02,-0.03 -0.02,-0.02 -0.02,-0.02 -0.02,-0.02 -0.03,-0.02 -0.02,-0.02 -0.03,-0.02 -0.02,-0.02 -0.03,-0.01 -0.03,-0.02 -0.03,-0.01 -0.02,-0.01 -0.03,-0.01 -0.04,0 -0.03,-0.01 -0.03,0 -0.03,0 c -0.02,0 -0.23,0 -0.38,0.09 0.29,0.09 0.31,0.35 0.31,0.39 0,0.15 -0.12,0.25 -0.28,0.25 -0.2,0 -0.4,-0.16 -0.4,-0.42 0,-0.35 0.39,-0.51 0.74,-0.51 0.31,0 0.6,0.2 0.78,0.49 0.16,-0.36 0.55,-0.49 0.83,-0.49 0.8,0 1.22,0.87 1.22,1.07 0,0.09 -0.09,0.09 -0.11,0.09 -0.1,0 -0.1,-0.04 -0.13,-0.12 -0.15,-0.48 -0.57,-0.84 -0.96,-0.84 -0.28,0 -0.42,0.18 -0.42,0.45 0,0.18 0.16,0.82 0.36,1.59 0.14,0.54 0.45,0.71 0.68,0.71 0.02,0 0.23,0 0.38,-0.1 -0.22,-0.06 -0.31,-0.25 -0.31,-0.38 0,-0.15 0.12,-0.26 0.28,-0.26 0.16,0 0.39,0.13 0.39,0.43 0,0.39 -0.44,0.51 -0.72,0.51 -0.35,0 -0.63,-0.24 -0.78,-0.5 -0.13,0.29 -0.45,0.5 -0.84,0.5 -0.78,0 -1.23,-0.86 -1.23,-1.07 0,-0.09 0.1,-0.09 0.12,-0.09 0.09,0 0.1,0.03 0.13,0.12 0.18,0.54 0.62,0.84 0.96,0.84 0.23,0 0.42,-0.12 0.42,-0.46 0,-0.14 -0.09,-0.49 -0.15,-0.72 z"
   id="path6325"
   style="fill:#00ff00;fill-opacity:1;stroke-width:0"
   inkscape:connector-curvature="0" />
<path
   d="m 237.11,705.59 h -0.21 c -0.01,-0.09 -0.06,-0.4 -0.14,-0.45 -0.04,-0.03 -0.46,-0.03 -0.53,-0.03 h -0.98 c 0.33,0.24 0.7,0.52 1,0.72 0.45,0.31 0.86,0.6 0.86,1.13 0,0.64 -0.6,0.99 -1.31,0.99 -0.67,0 -1.17,-0.39 -1.17,-0.88 0,-0.26 0.22,-0.3 0.29,-0.3 0.14,0 0.3,0.09 0.3,0.29 0,0.18 -0.13,0.28 -0.29,0.3 0.14,0.22 0.43,0.37 0.76,0.37 0.49,0 0.89,-0.29 0.89,-0.78 0,-0.42 -0.29,-0.73 -0.67,-1.06 l -1.22,-1.03 c -0.05,-0.04 -0.05,-0.04 -0.06,-0.08 v -0.15 h 2.32 z"
   id="path6327"
   style="fill:#00ff00;fill-opacity:1;stroke-width:0"
   inkscape:connector-curvature="0" />
</g>    <g
       ns0:preamble=""
       ns0:text="$\\Gamma_{x_1}$"
       word-spacing="normal"
       letter-spacing="normal"
       font-size-adjust="none"
       font-stretch="normal"
       font-weight="normal"
       font-variant="normal"
       font-style="normal"
       stroke-miterlimit="10.433"
       xml:space="preserve"
       transform="matrix(2.1574973,0,0,-2.1574973,-107.39445,1913.1072)"
       id="g6411"
       style="font-style:normal;font-variant:normal;font-weight:normal;font-stretch:normal;letter-spacing:normal;word-spacing:normal;text-anchor:start;fill:#00ff00;fill-opacity:1;stroke:#000000;stroke-linecap:butt;stroke-linejoin:miter;stroke-miterlimit:10.43299961;stroke-opacity:1;stroke-dasharray:none;stroke-dashoffset:0">
<path
   id="path6413"
   d="m 228.95,713.9 h -5.19 v -0.31 H 224 c 0.77,0 0.79,-0.11 0.79,-0.47 v -5.22 c 0,-0.36 -0.02,-0.47 -0.79,-0.47 h -0.24 v -0.31 c 0.35,0.03 1.13,0.03 1.52,0.03 0.4,0 1.31,0 1.67,-0.03 v 0.31 h -0.33 c -0.95,0 -0.95,0.13 -0.95,0.48 v 5.28 c 0,0.33 0.02,0.4 0.49,0.4 h 1.03 c 1.42,0 1.63,-0.59 1.79,-1.93 h 0.25 z"
   inkscape:connector-curvature="0"
   style="fill:#00ff00;fill-opacity:1;stroke-width:0" />
<path
   id="path6415"
   d="m 231.39,706.37 0,-0.02 -0.01,-0.03 -0.01,-0.02 -0.01,-0.03 -0.01,-0.02 -0.01,-0.03 -0.01,-0.02 -0.02,-0.03 -0.01,-0.02 -0.02,-0.03 -0.01,-0.02 -0.02,-0.03 -0.02,-0.02 -0.02,-0.03 -0.02,-0.02 -0.02,-0.03 -0.02,-0.02 -0.02,-0.02 -0.02,-0.02 -0.03,-0.02 -0.02,-0.02 -0.03,-0.02 -0.02,-0.02 -0.03,-0.01 -0.03,-0.02 -0.03,-0.01 -0.02,-0.01 -0.03,-0.01 -0.04,0 -0.03,-0.01 -0.03,0 -0.03,0 c -0.02,0 -0.23,0 -0.38,0.09 0.29,0.09 0.31,0.35 0.31,0.39 0,0.15 -0.12,0.25 -0.28,0.25 -0.2,0 -0.4,-0.16 -0.4,-0.42 0,-0.35 0.39,-0.51 0.74,-0.51 0.31,0 0.6,0.2 0.78,0.49 0.16,-0.36 0.55,-0.49 0.83,-0.49 0.8,0 1.22,0.87 1.22,1.07 0,0.09 -0.09,0.09 -0.11,0.09 -0.1,0 -0.1,-0.04 -0.13,-0.12 -0.15,-0.48 -0.57,-0.84 -0.96,-0.84 -0.28,0 -0.42,0.18 -0.42,0.45 0,0.18 0.16,0.82 0.36,1.59 0.14,0.54 0.45,0.71 0.68,0.71 0.02,0 0.23,0 0.38,-0.1 -0.22,-0.06 -0.31,-0.25 -0.31,-0.38 0,-0.15 0.12,-0.26 0.28,-0.26 0.16,0 0.39,0.13 0.39,0.43 0,0.39 -0.44,0.51 -0.72,0.51 -0.35,0 -0.63,-0.24 -0.78,-0.5 -0.13,0.29 -0.45,0.5 -0.84,0.5 -0.78,0 -1.23,-0.86 -1.23,-1.07 0,-0.09 0.1,-0.09 0.12,-0.09 0.09,0 0.1,0.03 0.13,0.12 0.18,0.54 0.62,0.84 0.96,0.84 0.23,0 0.42,-0.12 0.42,-0.46 0,-0.14 -0.09,-0.49 -0.15,-0.72 z"
   inkscape:connector-curvature="0"
   style="fill:#00ff00;fill-opacity:1;stroke-width:0" />
<path
   id="path6417"
   d="m 236.16,707.8 0,0.01 0,0 0,0.01 0,0.01 0,0 0,0.01 0,0 0,0.01 0,0.01 0,0 0,0.01 0,0 0,0 0,0.01 0,0 0,0.01 0,0 0,0 -0.01,0.01 0,0.01 0,0 0,0.01 -0.01,0 0,0.01 -0.01,0 0,0 -0.01,0.01 0,0 -0.01,0 0,0 -0.01,0.01 -0.01,0 0,0 -0.01,0 0,0 -0.01,0 0,0 -0.01,0 0,0 -0.01,0 -0.01,0 0,0 -0.01,0 0,0 -0.01,0 -0.01,0 0,0 -0.01,0 -0.01,0 -0.01,0 c -0.35,-0.32 -0.9,-0.32 -1,-0.32 h -0.09 v -0.22 h 0.09 c 0.11,0 0.43,0.02 0.72,0.14 v -2.49 c 0,-0.15 0,-0.21 -0.52,-0.21 h -0.25 v -0.22 c 0.27,0.02 0.72,0.02 1,0.02 0.29,0 0.74,0 1.01,-0.02 v 0.22 h -0.25 c -0.53,0 -0.53,0.06 -0.53,0.21 z"
   inkscape:connector-curvature="0"
   style="fill:#00ff00;fill-opacity:1;stroke-width:0" />
</g>    <g
       style="font-style:normal;font-variant:normal;font-weight:normal;font-stretch:normal;letter-spacing:normal;word-spacing:normal;text-anchor:start;fill:#00ff00;fill-opacity:1;stroke:#000000;stroke-linecap:butt;stroke-linejoin:miter;stroke-miterlimit:10.43299961;stroke-opacity:1;stroke-dasharray:none;stroke-dashoffset:0"
       id="g6509"
       transform="matrix(2.5423729,0,0,-2.5423729,-195.5947,2291.1249)"
       xml:space="preserve"
       stroke-miterlimit="10.433"
       font-style="normal"
       font-variant="normal"
       font-weight="normal"
       font-stretch="normal"
       font-size-adjust="none"
       letter-spacing="normal"
       word-spacing="normal"
       ns0:text="$x_1$"
       ns0:preamble="">
<path
   style="fill:#00ff00;fill-opacity:1;stroke-width:0"
   inkscape:connector-curvature="0"
   d="m 226.76,710.13 0.01,0.03 0,0.03 0.01,0.03 0.01,0.04 0.01,0.03 0.01,0.05 0.02,0.04 0.01,0.04 0.02,0.05 0.01,0.05 0.02,0.05 0.02,0.05 0.03,0.05 0.02,0.05 0.03,0.05 0.02,0.05 0.03,0.04 0.03,0.05 0.04,0.05 0.03,0.04 0.04,0.05 0.04,0.04 0.04,0.03 0.05,0.04 0.04,0.03 0.05,0.03 0.03,0.01 0.02,0.02 0.03,0.01 0.03,0.01 0.02,0.01 0.03,0 0.03,0.01 0.03,0.01 0.03,0 0.03,0 0.03,0.01 0.04,0 c 0.05,0 0.29,0 0.49,-0.13 -0.28,-0.05 -0.47,-0.3 -0.47,-0.54 0,-0.16 0.11,-0.35 0.38,-0.35 0.21,0 0.53,0.18 0.53,0.58 0,0.52 -0.58,0.66 -0.92,0.66 -0.58,0 -0.93,-0.53 -1.05,-0.76 -0.25,0.66 -0.79,0.76 -1.08,0.76 -1.03,0 -1.6,-1.29 -1.6,-1.54 0,-0.1 0.1,-0.1 0.12,-0.1 0.08,0 0.11,0.02 0.13,0.11 0.34,1.06 1,1.31 1.33,1.31 0.19,0 0.54,-0.09 0.54,-0.67 0,-0.31 -0.17,-0.98 -0.54,-2.37 -0.15,-0.62 -0.5,-1.04 -0.94,-1.04 -0.06,0 -0.29,0 -0.5,0.13 0.25,0.05 0.47,0.26 0.47,0.54 0,0.27 -0.22,0.35 -0.37,0.35 -0.3,0 -0.55,-0.26 -0.55,-0.58 0,-0.46 0.5,-0.66 0.94,-0.66 0.66,0 1.01,0.7 1.04,0.76 0.12,-0.37 0.48,-0.76 1.08,-0.76 1.03,0 1.59,1.29 1.59,1.54 0,0.1 -0.09,0.1 -0.12,0.1 -0.09,0 -0.1,-0.04 -0.12,-0.11 -0.33,-1.07 -1.01,-1.31 -1.33,-1.31 -0.39,0 -0.55,0.32 -0.55,0.66 0,0.22 0.06,0.44 0.17,0.88 z"
   id="path6511" />
<path
   style="fill:#00ff00;fill-opacity:1;stroke-width:0"
   inkscape:connector-curvature="0"
   d="m 231.46,710.07 0,0 0,0.01 0,0.01 0,0.01 0,0.01 0,0 0,0.01 0,0.01 0,0 0,0.01 0,0.01 0,0 0,0.01 0,0 0,0.01 0,0.01 -0.01,0 0,0.01 0,0 0,0.01 0,0.01 -0.01,0.01 0,0 -0.01,0.01 0,0 -0.01,0.01 0,0 -0.01,0.01 -0.01,0 0,0 -0.01,0 -0.01,0.01 -0.01,0 0,0 -0.01,0 0,0 -0.01,0 -0.01,0 0,0 -0.01,0 -0.01,0 0,0 -0.01,0 -0.01,0 -0.01,0 0,0 -0.01,0 -0.01,0 -0.01,0 -0.01,0 c -0.44,-0.44 -1.08,-0.45 -1.37,-0.45 v -0.25 c 0.17,0 0.63,0 1.02,0.2 v -3.56 c 0,-0.23 0,-0.32 -0.7,-0.32 h -0.27 v -0.25 c 0.13,0.01 0.99,0.03 1.25,0.03 0.21,0 1.09,-0.02 1.24,-0.03 v 0.25 h -0.26 c -0.7,0 -0.7,0.09 -0.7,0.32 z"
   id="path6513" />
</g>    <g
       ns0:preamble=""
       ns0:text="$x_2$"
       word-spacing="normal"
       letter-spacing="normal"
       font-size-adjust="none"
       font-stretch="normal"
       font-weight="normal"
       font-variant="normal"
       font-style="normal"
       stroke-miterlimit="10.433"
       xml:space="preserve"
       transform="matrix(2.5423729,0,0,-2.5423729,-196.20872,2325.6831)"
       id="g6611"
       style="font-style:normal;font-variant:normal;font-weight:normal;font-stretch:normal;letter-spacing:normal;word-spacing:normal;text-anchor:start;fill:#00ff00;fill-opacity:1;stroke:#000000;stroke-linecap:butt;stroke-linejoin:miter;stroke-miterlimit:10.43299961;stroke-opacity:1;stroke-dasharray:none;stroke-dashoffset:0">
<path
   id="path6613"
   d="m 226.76,710.13 0.01,0.03 0,0.03 0.01,0.03 0.01,0.04 0.01,0.03 0.01,0.05 0.02,0.04 0.01,0.04 0.02,0.05 0.01,0.05 0.02,0.05 0.02,0.05 0.03,0.05 0.02,0.05 0.03,0.05 0.02,0.05 0.03,0.04 0.03,0.05 0.04,0.05 0.03,0.04 0.04,0.05 0.04,0.04 0.04,0.03 0.05,0.04 0.04,0.03 0.05,0.03 0.03,0.01 0.02,0.02 0.03,0.01 0.03,0.01 0.02,0.01 0.03,0 0.03,0.01 0.03,0.01 0.03,0 0.03,0 0.03,0.01 0.04,0 c 0.05,0 0.29,0 0.49,-0.13 -0.28,-0.05 -0.47,-0.3 -0.47,-0.54 0,-0.16 0.11,-0.35 0.38,-0.35 0.21,0 0.53,0.18 0.53,0.58 0,0.52 -0.58,0.66 -0.92,0.66 -0.58,0 -0.93,-0.53 -1.05,-0.76 -0.25,0.66 -0.79,0.76 -1.08,0.76 -1.03,0 -1.6,-1.29 -1.6,-1.54 0,-0.1 0.1,-0.1 0.12,-0.1 0.08,0 0.11,0.02 0.13,0.11 0.34,1.06 1,1.31 1.33,1.31 0.19,0 0.54,-0.09 0.54,-0.67 0,-0.31 -0.17,-0.98 -0.54,-2.37 -0.15,-0.62 -0.5,-1.04 -0.94,-1.04 -0.06,0 -0.29,0 -0.5,0.13 0.25,0.05 0.47,0.26 0.47,0.54 0,0.27 -0.22,0.35 -0.37,0.35 -0.3,0 -0.55,-0.26 -0.55,-0.58 0,-0.46 0.5,-0.66 0.94,-0.66 0.66,0 1.01,0.7 1.04,0.76 0.12,-0.37 0.48,-0.76 1.08,-0.76 1.03,0 1.59,1.29 1.59,1.54 0,0.1 -0.09,0.1 -0.12,0.1 -0.09,0 -0.1,-0.04 -0.12,-0.11 -0.33,-1.07 -1.01,-1.31 -1.33,-1.31 -0.39,0 -0.55,0.32 -0.55,0.66 0,0.22 0.06,0.44 0.17,0.88 z"
   inkscape:connector-curvature="0"
   style="fill:#00ff00;fill-opacity:1;stroke-width:0" />
<path
   id="path6615"
   d="m 232.65,706.9 h -0.24 c -0.02,-0.15 -0.09,-0.57 -0.18,-0.63 -0.06,-0.05 -0.59,-0.05 -0.69,-0.05 h -1.28 c 0.73,0.65 0.97,0.85 1.39,1.17 0.52,0.42 1,0.85 1,1.51 0,0.84 -0.74,1.36 -1.64,1.36 -0.86,0 -1.45,-0.61 -1.45,-1.25 0,-0.35 0.3,-0.39 0.37,-0.39 0.17,0 0.37,0.12 0.37,0.37 0,0.13 -0.04,0.37 -0.41,0.37 0.22,0.5 0.69,0.65 1.02,0.65 0.7,0 1.06,-0.54 1.06,-1.11 0,-0.61 -0.43,-1.09 -0.65,-1.34 l -1.69,-1.66 c -0.07,-0.06 -0.07,-0.07 -0.07,-0.27 h 2.88 z"
   inkscape:connector-curvature="0"
   style="fill:#00ff00;fill-opacity:1;stroke-width:0" />
</g>    <path
       sodipodi:type="star"
       style="fill:#00ff00;fill-opacity:1;stroke:none;stroke-width:1;stroke-miterlimit:4;stroke-opacity:1;stroke-dasharray:none"
       id="path6673"
       sodipodi:sides="30"
       sodipodi:cx="369.10016"
       sodipodi:cy="515.83345"
       sodipodi:r1="1.5418338"
       sodipodi:r2="1.5333875"
       sodipodi:arg1="0.97266099"
       sodipodi:arg2="1.0773807"
       inkscape:flatsided="true"
       inkscape:rounded="0"
       inkscape:randomized="0"
       d="m 369.96837,517.10759 -0.28388,0.15266 -0.30943,0.0903 -0.32143,0.024 -0.3194,-0.0434 -0.30341,-0.10881 -0.27416,-0.16951 -0.23292,-0.22282 -0.18151,-0.26637 -0.12215,-0.29828 -0.0575,-0.31717 0.01,-0.32218 0.0765,-0.31312 0.13993,-0.29038 0.19725,-0.25493 0.24594,-0.20836 0.28388,-0.15266 0.30942,-0.0903 0.32144,-0.024 0.3194,0.0434 0.30341,0.10881 0.27416,0.16951 0.23292,0.22282 0.1815,0.26637 0.12216,0.29828 0.0575,0.31717 -0.01,0.32218 -0.0765,0.31312 -0.13993,0.29038 -0.19724,0.25493 z" />
    <path
       transform="translate(30.857151,-29.999985)"
       sodipodi:type="star"
       style="fill:#00ff00;fill-opacity:1;stroke:none"
       id="path6673-0"
       sodipodi:sides="30"
       sodipodi:cx="369.10016"
       sodipodi:cy="515.83344"
       sodipodi:r1="1.5418338"
       sodipodi:r2="1.5333875"
       sodipodi:arg1="0.97266099"
       sodipodi:arg2="1.0773807"
       inkscape:flatsided="true"
       inkscape:rounded="0"
       inkscape:randomized="0"
       d="m 369.96837,517.10759 -0.28388,0.15266 -0.30943,0.0903 -0.32143,0.024 -0.3194,-0.0434 -0.30341,-0.10881 -0.27416,-0.16951 -0.23292,-0.22282 -0.18151,-0.26637 -0.12215,-0.29828 -0.0575,-0.31717 0.01,-0.32218 0.0765,-0.31312 0.13993,-0.29038 0.19725,-0.25493 0.24594,-0.20836 0.28388,-0.15266 0.30942,-0.0903 0.32144,-0.024 0.3194,0.0434 0.30341,0.10881 0.27416,0.16951 0.23292,0.22282 0.1815,0.26637 0.12216,0.29828 0.0575,0.31717 -0.01,0.32218 -0.0765,0.31312 -0.13993,0.29038 -0.19724,0.25493 z" />
    <path
       transform="translate(-18.929993,-4.9407941)"
       sodipodi:type="star"
       style="fill:#000000;fill-opacity:1;stroke:none"
       id="path6673-9"
       sodipodi:sides="30"
       sodipodi:cx="369.10016"
       sodipodi:cy="515.83344"
       sodipodi:r1="1.5418338"
       sodipodi:r2="1.5333875"
       sodipodi:arg1="0.97266099"
       sodipodi:arg2="1.0773807"
       inkscape:flatsided="true"
       inkscape:rounded="0"
       inkscape:randomized="0"
       d="m 369.96837,517.10759 -0.28388,0.15266 -0.30943,0.0903 -0.32143,0.024 -0.3194,-0.0434 -0.30341,-0.10881 -0.27416,-0.16951 -0.23292,-0.22282 -0.18151,-0.26637 -0.12215,-0.29828 -0.0575,-0.31717 0.01,-0.32218 0.0765,-0.31312 0.13993,-0.29038 0.19725,-0.25493 0.24594,-0.20836 0.28388,-0.15266 0.30942,-0.0903 0.32144,-0.024 0.3194,0.0434 0.30341,0.10881 0.27416,0.16951 0.23292,0.22282 0.1815,0.26637 0.12216,0.29828 0.0575,0.31717 -0.01,0.32218 -0.0765,0.31312 -0.13993,0.29038 -0.19724,0.25493 z" />
  </g>
  <g
     id="g6084"
     transform="matrix(0.52234355,0,0,0.52234355,113.3804,237.94656)"
     style="fill:#0000ff;fill-opacity:1">
    <g
       word-spacing="normal"
       letter-spacing="normal"
       font-size-adjust="none"
       font-stretch="normal"
       font-weight="normal"
       font-variant="normal"
       font-style="normal"
       stroke-miterlimit="10.433"
       xml:space="preserve"
       transform="matrix(1.0629921,0,0,-1.0629921,-186.02362,789.27165)"
       id="g6086"
       style="font-style:normal;font-variant:normal;font-weight:normal;font-stretch:normal;letter-spacing:normal;word-spacing:normal;text-anchor:start;fill:#0000ff;fill-opacity:1;stroke:#000000;stroke-linecap:butt;stroke-linejoin:miter;stroke-miterlimit:10.43299961;stroke-opacity:1;stroke-dasharray:none;stroke-dashoffset:0"><path
         id="path6088"
         d="m 469.15,427.77 -0.58,-0.15 -0.57,-0.19 -0.56,-0.21 -0.55,-0.23 -0.54,-0.27 -0.53,-0.28 -0.52,-0.31 -0.5,-0.33 -0.49,-0.35 -0.48,-0.38 -0.46,-0.39 -0.45,-0.41 -0.44,-0.43 -0.41,-0.44 -0.4,-0.46 -0.38,-0.47 -0.36,-0.49 -0.35,-0.5 -0.32,-0.51 -0.31,-0.52 -0.28,-0.53 -0.27,-0.53 -0.24,-0.55 -0.21,-0.55 -0.2,-0.56 -0.17,-0.56 -0.15,-0.56 -0.12,-0.57 -0.09,-0.57 -0.07,-0.57 -0.04,-0.56 -0.02,-0.57 c 0,-4.78 3.19,-8.37 7.87,-8.37 v 1.1 c -2.74,0 -4.78,2.09 -4.78,5.88 0,3.14 1.84,12.5 8.57,14.29 h 0 c 1.24,-2.29 2.74,-4.98 2.74,-8.56 0,-3.29 -1.9,-11.61 -6.53,-11.61 v -1.1 c 5.83,0 9.97,7.82 9.97,14.7 0,4.53 -2,7.02 -3.69,9.26 -1.79,2.25 -4.73,5.98 -4.73,8.17 0,1.1 0.99,2.29 2.74,2.29 1.49,0 2.49,-0.64 3.54,-1.34 0.99,-0.6 1.99,-1.25 2.73,-1.25 1.25,0 2,1.2 2,2 0,1.09 -0.8,1.24 -2.59,1.64 -2.59,0.55 -3.29,0.55 -4.09,0.55 -3.88,0 -5.68,-2.15 -5.68,-5.13 0,-2.69 1.45,-5.48 2.99,-8.52 z"
         inkscape:connector-curvature="0"
         style="fill:#0000ff;fill-opacity:1;stroke-width:0" /></g>  </g>
</svg>
