<?xml version="1.0" encoding="UTF-8" standalone="no"?>
<!-- Created with Inkscape (http://www.inkscape.org/) -->

<svg
   xmlns:ns0="http://www.iki.fi/pav/software/textext/"
   xmlns:dc="http://purl.org/dc/elements/1.1/"
   xmlns:cc="http://creativecommons.org/ns#"
   xmlns:rdf="http://www.w3.org/1999/02/22-rdf-syntax-ns#"
   xmlns:svg="http://www.w3.org/2000/svg"
   xmlns="http://www.w3.org/2000/svg"
   xmlns:sodipodi="http://sodipodi.sourceforge.net/DTD/sodipodi-0.dtd"
   xmlns:inkscape="http://www.inkscape.org/namespaces/inkscape"
   sodipodi:docname="orbitale_asymp_stabilitaet.pdf"
   inkscape:version="0.48.4 r9939"
   version="1.1"
   id="svg2"
   height="297mm"
   width="210mm">
  <sodipodi:namedview
     id="base"
     pagecolor="#ffffff"
     bordercolor="#666666"
     borderopacity="1.0"
     inkscape:pageopacity="0.0"
     inkscape:pageshadow="2"
     inkscape:zoom="1.4"
     inkscape:cx="296.20257"
     inkscape:cy="637.30156"
     inkscape:document-units="px"
     inkscape:current-layer="layer1"
     showgrid="false"
     inkscape:snap-bbox="true"
     inkscape:bbox-paths="true"
     inkscape:bbox-nodes="true"
     inkscape:snap-bbox-edge-midpoints="true"
     inkscape:snap-bbox-midpoints="true"
     inkscape:object-paths="true"
     inkscape:snap-intersection-paths="true"
     inkscape:object-nodes="true"
     inkscape:snap-smooth-nodes="true"
     inkscape:snap-midpoints="true"
     inkscape:snap-object-midpoints="true"
     inkscape:snap-center="true"
     inkscape:snap-global="false"
     inkscape:window-width="1600"
     inkscape:window-height="1138"
     inkscape:window-x="-8"
     inkscape:window-y="-8"
     inkscape:window-maximized="1" />
  <defs
     id="defs4">
    <marker
       style="overflow:visible;"
       id="Arrow2Lend"
       refX="0.0"
       refY="0.0"
       orient="auto"
       inkscape:stockid="Arrow2Lend">
      <path
         transform="scale(1.1) rotate(180) translate(1,0)"
         d="M 8.7185878,4.0337352 L -2.2072895,0.016013256 L 8.7185884,-4.0017078 C 6.9730900,-1.6296469 6.9831476,1.6157441 8.7185878,4.0337352 z "
         style="fill-rule:evenodd;stroke-width:0.62500000;stroke-linejoin:round;"
         id="path3782" />
    </marker>
    <marker
       style="overflow:visible"
       id="Arrow2Lend-1"
       refX="0"
       refY="0"
       orient="auto"
       inkscape:stockid="Arrow2Lend">
      <path
         transform="matrix(-1.1,0,0,-1.1,-1.1,0)"
         d="M 8.7185878,4.0337352 -2.2072895,0.01601326 8.7185884,-4.0017078 c -1.7454984,2.3720609 -1.7354408,5.6174519 -6e-7,8.035443 z"
         style="fill-rule:evenodd;stroke-width:0.625;stroke-linejoin:round"
         id="path3782-7"
         inkscape:connector-curvature="0" />
    </marker>
  </defs>
  <metadata
     id="metadata7">
    <rdf:RDF>
      <cc:Work
         rdf:about="">
        <dc:format>image/svg+xml</dc:format>
        <dc:type
           rdf:resource="http://purl.org/dc/dcmitype/StillImage" />
        <dc:title></dc:title>
      </cc:Work>
    </rdf:RDF>
  </metadata>
  <g
     id="layer1"
     inkscape:groupmode="layer"
     inkscape:label="Ebene 1">
    <path
       inkscape:connector-curvature="0"
       id="path3755"
       d="m 355.67159,422.40488 0,-175.42857"
       style="fill:none;stroke:#000000;stroke-width:0.80000001px;stroke-linecap:butt;stroke-linejoin:miter;stroke-opacity:1;marker-end:url(#Arrow2Lend)" />
    <path
       inkscape:connector-curvature="0"
       id="path3755-4"
       d="m 355.67159,422.40488 175.42857,0"
       style="fill:none;stroke:#000000;stroke-width:0.80000001px;stroke-linecap:butt;stroke-linejoin:miter;stroke-opacity:1;marker-end:url(#Arrow2Lend)" />
    <path
       transform="matrix(0.8,0,0,0.8,141.95731,60.515128)"
       d="m 342.94679,371.51936 2.50193,2.42095 2.42465,2.49835 2.34498,2.57327 2.26299,2.64566 2.17878,2.71543 2.0924,2.78253 2.00398,2.84689 1.91356,2.90842 1.82126,2.9671 1.72716,3.02284 1.63136,3.0756 1.53395,3.12532 1.43503,3.17196 1.33468,3.21548 1.23302,3.25581 1.13015,3.29293 1.02616,3.32681 0.92115,3.3574 0.81524,3.38468 0.70852,3.40861 0.60111,3.42919 0.49309,3.44638 0.3846,3.46016 0.27572,3.47054 0.16657,3.47748 0.0573,3.481 -0.0521,3.48109 -0.16143,3.47773 -0.27058,3.47094 -0.37948,3.46073 -0.48799,3.4471 -0.59603,3.43007 -0.70347,3.40966 -0.81023,3.38588 -0.91618,3.35876 -1.02123,3.32832 -1.12527,3.29461 -1.22821,3.25763 -1.32992,3.21745 -1.43032,3.17408 -1.52933,3.12759 -1.6268,3.07802 -1.72269,3.02539 -1.81687,2.96979 -1.90925,2.91125 -1.99976,2.84985 -2.08828,2.78562 -2.17475,2.71866 -2.25908,2.64901 -2.34117,2.57674 -2.42095,2.50193 -2.49834,2.42465 -2.57327,2.34498 -2.64566,2.26299 -2.71544,2.17878 -2.78253,2.0924 -2.84688,2.00398 -2.90843,1.91356 -2.96709,1.82126 -3.02284,1.72716 -3.0756,1.63136 -3.12532,1.53395 -3.17197,1.43503 -3.21547,1.33468 -3.25581,1.23302 -3.29294,1.13015 -3.32681,1.02616 -3.3574,0.92115 -3.38467,0.81524 -3.40862,0.70852 -3.42918,0.6011 -3.44638,0.4931 -3.46016,0.3846 -3.47054,0.27572 -3.47749,0.16657 -3.481,0.0573 -3.48108,-0.0521 -3.47773,-0.16143 -3.47094,-0.27058 -3.46073,-0.37948 -3.4471,-0.48799 -3.43008,-0.59603 -3.40966,-0.70347 -3.38588,-0.81023 -3.35876,-0.91618 -3.32832,-1.02123 -3.2946,-1.12527 -3.25764,-1.22821 -3.21744,-1.32992 -3.17409,-1.43032 -3.12759,-1.52933 -3.07801,-1.6268 -3.02539,-1.72269 -2.96979,-1.81687 -2.91126,-1.90925 -2.84984,-1.99976 -2.78563,-2.08828 -2.71866,-2.17475 -2.649,-2.25908 -2.57674,-2.34117 -2.50193,-2.42095 -2.42465,-2.49834 -2.34498,-2.57327 -2.263,-2.64566 -2.17877,-2.71544 -2.09241,-2.78253 -2.00397,-2.84688 -1.91356,-2.90843 -1.82126,-2.96709 -1.72717,-3.02284 -1.63136,-3.0756 -1.53395,-3.12532 -1.43502,-3.17197 -1.33469,-3.21547 -1.23302,-3.25581 -1.13015,-3.29294 -1.02615,-3.32681 -0.92115,-3.3574 -0.81524,-3.38467 -0.70852,-3.40862 -0.60111,-3.42918 -0.49309,-3.44638 -0.3846,-3.46016 -0.27572,-3.47054 -0.16658,-3.47749 -0.0573,-3.481 0.0521,-3.48108 0.16142,-3.47773 0.27059,-3.47094 0.37947,-3.46073 0.488,-3.4471 0.59602,-3.43008 0.70348,-3.40966 0.81023,-3.38588 0.91618,-3.35876 1.02123,-3.32832 1.12527,-3.2946 1.2282,-3.25764 1.32992,-3.21744 1.43033,-3.17409 1.52932,-3.12759 1.62681,-3.07801 1.72268,-3.02539 1.81687,-2.96979 1.90926,-2.91126 1.99975,-2.84984 2.08829,-2.78563 2.17475,-2.71866 2.25908,-2.649 2.34116,-2.57674 2.42095,-2.50193 2.49835,-2.42465 2.57327,-2.34498 2.64566,-2.263 2.71543,-2.17877 2.78253,-2.09241 2.84689,-2.00397 2.90842,-1.91356 2.9671,-1.82126 3.02284,-1.72717 3.0756,-1.63136 3.12532,-1.53395 3.17196,-1.43502 3.21548,-1.33469 3.25581,-1.23302 3.29293,-1.13015 3.32681,-1.02615 3.3574,-0.92115 3.38468,-0.81524 3.40861,-0.70852 3.42919,-0.60111 3.44638,-0.49309 3.46016,-0.3846 3.47054,-0.27572 3.47748,-0.16658 3.481,-0.0573 3.48109,0.0521 3.47773,0.16142 3.47094,0.27059 3.46073,0.37947 3.4471,0.488 3.43007,0.59602 3.40966,0.70348 3.38588,0.81023 3.35876,0.91618 3.32832,1.02123 3.29461,1.12527 3.25763,1.2282 3.21745,1.32992 3.17408,1.43033 3.12759,1.52932 3.07802,1.62681 3.02539,1.72268 2.96979,1.81687 2.91125,1.90926 2.84985,1.99975 2.78562,2.08829 2.71866,2.17475 2.64901,2.25908 z"
       inkscape:randomized="0"
       inkscape:rounded="0"
       inkscape:flatsided="true"
       sodipodi:arg2="-0.80184629"
       sodipodi:arg1="-0.81755426"
       sodipodi:r2="110.80959"
       sodipodi:r1="110.82327"
       sodipodi:cy="452.36218"
       sodipodi:cx="267.14285"
       sodipodi:sides="200"
       id="path4225"
       style="fill:none;stroke:#000000;stroke-opacity:1"
       sodipodi:type="star" />
    <path
       inkscape:connector-curvature="0"
       id="path4247"
       d="m 405.55939,495.6958 4.50352,-3.27711"
       style="fill:none;stroke:#000000;stroke-width:0.80000001px;stroke-linecap:butt;stroke-linejoin:miter;stroke-opacity:1;marker-end:url(#Arrow2Lend-1)" />
    <path
       inkscape:connector-curvature="0"
       id="path4433"
       d="m 314.13272,344.09183 -3.64851,2.03428"
       style="fill:none;stroke:#000000;stroke-width:0.80000001;stroke-linecap:butt;stroke-linejoin:miter;stroke-miterlimit:4;stroke-opacity:1;stroke-dasharray:none;marker-end:url(#Arrow2Lend-1)" />
    <path
       inkscape:connector-curvature="0"
       id="path4619"
       d="m 275.47883,460.21325 2.53225,4.96074"
       style="fill:none;stroke:#000000;stroke-width:0.80000001px;stroke-linecap:butt;stroke-linejoin:miter;stroke-opacity:1;marker-end:url(#Arrow2Lend-1)" />
    <g
       ns0:preamble=""
       ns0:text="$\\Gamma_{x_p}$"
       word-spacing="normal"
       letter-spacing="normal"
       font-size-adjust="none"
       font-stretch="normal"
       font-weight="normal"
       font-variant="normal"
       font-style="normal"
       stroke-miterlimit="10.433"
       xml:space="preserve"
       transform="matrix(1.9550342,0,0,-1.9550342,-99.785374,1884.7637)"
       id="g6153"
       style="font-style:normal;font-variant:normal;font-weight:normal;font-stretch:normal;letter-spacing:normal;word-spacing:normal;text-anchor:start;fill:none;stroke:#000000;stroke-linecap:butt;stroke-linejoin:miter;stroke-miterlimit:10.43299961;stroke-opacity:1;stroke-dasharray:none;stroke-dashoffset:0">
<path
   id="path6155"
   d="m 228.95,713.9 h -5.19 v -0.31 H 224 c 0.77,0 0.79,-0.11 0.79,-0.47 v -5.22 c 0,-0.36 -0.02,-0.47 -0.79,-0.47 h -0.24 v -0.31 c 0.35,0.03 1.13,0.03 1.52,0.03 0.4,0 1.31,0 1.67,-0.03 v 0.31 h -0.33 c -0.95,0 -0.95,0.13 -0.95,0.48 v 5.28 c 0,0.33 0.02,0.4 0.49,0.4 h 1.03 c 1.42,0 1.63,-0.59 1.79,-1.93 h 0.25 z"
   inkscape:connector-curvature="0"
   style="fill:#000000;stroke-width:0" />
<path
   id="path6157"
   d="m 231.39,706.37 0,-0.02 -0.01,-0.03 -0.01,-0.02 -0.01,-0.03 -0.01,-0.02 -0.01,-0.03 -0.01,-0.02 -0.02,-0.03 -0.01,-0.02 -0.02,-0.03 -0.01,-0.02 -0.02,-0.03 -0.02,-0.02 -0.02,-0.03 -0.02,-0.02 -0.02,-0.03 -0.02,-0.02 -0.02,-0.02 -0.02,-0.02 -0.03,-0.02 -0.02,-0.02 -0.03,-0.02 -0.02,-0.02 -0.03,-0.01 -0.03,-0.02 -0.03,-0.01 -0.02,-0.01 -0.03,-0.01 -0.04,0 -0.03,-0.01 -0.03,0 -0.03,0 c -0.02,0 -0.23,0 -0.38,0.09 0.29,0.09 0.31,0.35 0.31,0.39 0,0.15 -0.12,0.25 -0.28,0.25 -0.2,0 -0.4,-0.16 -0.4,-0.42 0,-0.35 0.39,-0.51 0.74,-0.51 0.31,0 0.6,0.2 0.78,0.49 0.16,-0.36 0.55,-0.49 0.83,-0.49 0.8,0 1.22,0.87 1.22,1.07 0,0.09 -0.09,0.09 -0.11,0.09 -0.1,0 -0.1,-0.04 -0.13,-0.12 -0.15,-0.48 -0.57,-0.84 -0.96,-0.84 -0.28,0 -0.42,0.18 -0.42,0.45 0,0.18 0.16,0.82 0.36,1.59 0.14,0.54 0.45,0.71 0.68,0.71 0.02,0 0.23,0 0.38,-0.1 -0.22,-0.06 -0.31,-0.25 -0.31,-0.38 0,-0.15 0.12,-0.26 0.28,-0.26 0.16,0 0.39,0.13 0.39,0.43 0,0.39 -0.44,0.51 -0.72,0.51 -0.35,0 -0.63,-0.24 -0.78,-0.5 -0.13,0.29 -0.45,0.5 -0.84,0.5 -0.78,0 -1.23,-0.86 -1.23,-1.07 0,-0.09 0.1,-0.09 0.12,-0.09 0.09,0 0.1,0.03 0.13,0.12 0.18,0.54 0.62,0.84 0.96,0.84 0.23,0 0.42,-0.12 0.42,-0.46 0,-0.14 -0.09,-0.49 -0.15,-0.72 z"
   inkscape:connector-curvature="0"
   style="fill:#000000;stroke-width:0" />
<path
   id="path6159"
   d="m 234.88,704.05 -0.01,-0.01 0,-0.01 0,-0.01 0,-0.01 -0.01,-0.01 0,-0.01 0,-0.01 -0.01,-0.01 0,-0.01 0,0 -0.01,-0.01 0,-0.01 -0.01,0 0,-0.01 -0.01,0 0,-0.01 -0.01,0 -0.01,-0.01 -0.01,0 0,0 -0.01,-0.01 -0.01,0 -0.01,0 -0.01,0 -0.01,0 0,0 -0.01,0 -0.01,-0.01 0,0 -0.01,0 -0.01,0 0,0 -0.01,0 -0.01,0 -0.01,0 -0.01,0 -0.01,0 -0.01,0 -0.01,0 -0.01,0 -0.01,0 c -0.07,0 -0.16,0 -0.16,-0.14 0,-0.05 0.05,-0.08 0.08,-0.08 0.08,0 0.17,0.01 0.25,0.01 0.08,0 0.16,0.01 0.25,0.01 0.1,0 0.19,-0.01 0.29,-0.01 0.08,0 0.19,-0.01 0.28,-0.01 0.06,0 0.12,0.03 0.12,0.14 0,0.08 -0.09,0.08 -0.15,0.08 -0.17,0 -0.28,0 -0.28,0.06 0,0.03 0.08,0.33 0.23,0.93 0.13,-0.17 0.32,-0.3 0.6,-0.3 v 0.17 c -0.42,0 -0.52,0.4 -0.52,0.44 0,0.03 0.01,0.05 0.02,0.08 l 0.21,0.85 c 0.02,0.08 0.02,0.09 0.11,0.19 0.2,0.22 0.45,0.35 0.69,0.35 0.21,0 0.44,-0.13 0.44,-0.5 0,-0.22 -0.11,-0.7 -0.25,-0.94 -0.21,-0.36 -0.51,-0.47 -0.7,-0.47 v -0.17 c 0.7,0 1.4,0.69 1.4,1.39 0,0.5 -0.37,0.86 -0.87,0.86 -0.39,0 -0.7,-0.25 -0.8,-0.34 -0.1,0.27 -0.39,0.34 -0.58,0.34 -0.17,0 -0.32,-0.07 -0.44,-0.27 -0.13,-0.21 -0.2,-0.47 -0.2,-0.49 0,-0.08 0.08,-0.08 0.11,-0.08 0.08,0 0.09,0.03 0.11,0.11 0.06,0.2 0.16,0.56 0.4,0.56 0.17,0 0.2,-0.16 0.2,-0.26 0,-0.07 0,-0.09 -0.02,-0.13 z"
   inkscape:connector-curvature="0"
   style="fill:#000000;stroke-width:0" />
</g>    <path
       d="m 369.96837,517.10759 -0.28388,0.15266 -0.30943,0.0903 -0.32143,0.024 -0.3194,-0.0434 -0.30341,-0.10881 -0.27416,-0.16951 -0.23292,-0.22282 -0.18151,-0.26637 -0.12215,-0.29828 -0.0575,-0.31717 0.01,-0.32218 0.0765,-0.31312 0.13993,-0.29038 0.19725,-0.25493 0.24594,-0.20836 0.28388,-0.15266 0.30942,-0.0903 0.32144,-0.024 0.3194,0.0434 0.30341,0.10881 0.27416,0.16951 0.23292,0.22282 0.1815,0.26637 0.12216,0.29828 0.0575,0.31717 -0.01,0.32218 -0.0765,0.31312 -0.13993,0.29038 -0.19724,0.25493 z"
       inkscape:randomized="0"
       inkscape:rounded="0"
       inkscape:flatsided="true"
       sodipodi:arg2="1.0773807"
       sodipodi:arg1="0.97266099"
       sodipodi:r2="1.5333875"
       sodipodi:r1="1.5418338"
       sodipodi:cy="515.83344"
       sodipodi:cx="369.10016"
       sodipodi:sides="30"
       id="path6673-9"
       style="fill:#000000;fill-opacity:1;stroke:none"
       sodipodi:type="star"
       transform="translate(-18.929993,-4.9407941)" />
    <path
       d="m 395.47473,544.25545 -3.84705,1.19012 -3.88255,1.06869 -3.91419,0.94622 -3.94199,0.8228 -3.96589,0.69857 -3.98587,0.57365 -4.00192,0.44818 -4.01403,0.32225 -4.02217,0.196 -4.02634,0.0696 -4.02654,-0.0569 -4.02276,-0.18339 -4.01502,-0.30965 -4.00331,-0.43561 -3.98765,-0.56114 -3.96806,-0.68613 -3.94455,-0.81042 -3.91714,-0.93393 -3.88588,-1.0565 -3.85078,-1.17804 -3.81187,-1.29842 -3.76921,-1.41751 -3.72282,-1.53521 -3.67276,-1.65138 -3.61908,-1.76593 -3.56182,-1.87874 -3.50106,-1.98969 -3.43683,-2.09868 -3.36921,-2.2056 -3.29827,-2.31034 -3.22407,-2.4128 -3.14669,-2.51288 -3.06621,-2.61049 -2.9827,-2.7055 -2.89625,-2.79786 -2.80693,-2.88745 -2.71485,-2.9742 -2.62009,-3.058 -2.52275,-3.13879 -2.4229,-3.21649 -2.32068,-3.291 -2.21616,-3.36227 -2.10946,-3.43023 -2.00067,-3.49479 -1.88991,-3.55591 -1.77728,-3.61352 -1.6629,-3.66756 -1.54688,-3.71799 -1.42933,-3.76474 -1.31037,-3.80778 -1.19012,-3.84706 -1.0687,-3.88254 -0.94621,-3.9142 -0.8228,-3.94198 -0.69857,-3.96589 -0.57366,-3.98587 -0.44817,-4.00193 -0.32225,-4.01402 -0.196,-4.02217 -0.0696,-4.02634 0.0569,-4.02654 0.18338,-4.02276 0.30965,-4.01502 0.43562,-4.00331 0.56114,-3.98765 0.68612,-3.96806 0.81043,-3.94455 0.93392,-3.91715 1.05651,-3.88587 1.17804,-3.85078 1.29842,-3.81187 1.41751,-3.76921 1.5352,-3.72282 1.65139,-3.67276 1.76593,-3.61908 1.87874,-3.56183 1.98969,-3.50105 2.09868,-3.43683 2.2056,-3.36921 2.31034,-3.29827 2.4128,-3.22407 2.51288,-3.1467 2.61048,-3.06621 2.70551,-2.9827 2.79786,-2.89624 2.88745,-2.80694 2.97419,-2.71485 3.058,-2.62009 3.1388,-2.52274 3.21648,-2.42291 3.29101,-2.32068 3.36227,-2.21616 3.43023,-2.10945 3.49479,-2.00067 3.55591,-1.88991 3.61352,-1.77728 3.66756,-1.6629 3.71799,-1.54688 3.76474,-1.42933 3.80778,-1.31037 3.84706,-1.19013 3.88254,-1.06869 3.9142,-0.94621 3.94198,-0.8228 3.96589,-0.69857 3.98587,-0.57366 4.00192,-0.44817 4.01403,-0.32225 4.02217,-0.19601 4.02634,-0.0696 4.02654,0.0569 4.02276,0.18338 4.01502,0.30965 4.00331,0.43561 3.98765,0.56115 3.96806,0.68612 3.94455,0.81042 3.91714,0.93393 3.88588,1.05651 3.85078,1.17804 3.81187,1.29842 3.76921,1.4175 3.72282,1.53521 3.67276,1.65138 3.61908,1.76594 3.56182,1.87873 3.50106,1.9897 3.43683,2.09868 3.36921,2.2056 3.29827,2.31034 3.22407,2.4128 3.14669,2.51288 3.06621,2.61048 2.9827,2.7055 2.89625,2.79786 2.80693,2.88745 2.71486,2.9742 2.62009,3.058 2.52274,3.13879 2.42291,3.21649 2.32067,3.291 2.21617,3.36228 2.10945,3.43022 2.00067,3.4948 1.88991,3.55591 1.77728,3.61352 1.6629,3.66756 1.54688,3.71798 1.42933,3.76474 1.31037,3.80778 1.19012,3.84706 1.0687,3.88255 0.94621,3.91419 0.8228,3.94199 0.69857,3.96588 0.57366,3.98588 0.44817,4.00192 0.32225,4.01403 0.19601,4.02216 0.0696,4.02634 -0.0569,4.02654 -0.18338,4.02277 -0.30965,4.01501 -0.43562,4.00331 -0.56114,3.98766 -0.68612,3.96805 -0.81043,3.94455 -0.93392,3.91715 -1.05651,3.88588 -1.17804,3.85077 -1.29842,3.81188 -1.41751,3.7692 -1.5352,3.72282 -1.65139,3.67277 -1.76593,3.61908 -1.87874,3.56182 -1.98969,3.50105 -2.09868,3.43683 -2.2056,3.36921 -2.31034,3.29827 -2.4128,3.22408 -2.51288,3.14669 -2.61048,3.06621 -2.70551,2.9827 -2.79786,2.89625 -2.88745,2.80693 -2.97419,2.71485 -3.058,2.62009 -3.1388,2.52275 -3.21648,2.4229 -3.29101,2.32068 -3.36227,2.21616 -3.43023,2.10946 -3.49479,2.00067 -3.55591,1.8899 -3.61352,1.77728 -3.66756,1.66291 -3.71799,1.54687 -3.76474,1.42934 z"
       inkscape:randomized="0"
       inkscape:rounded="0"
       inkscape:flatsided="true"
       sodipodi:arg2="1.270776"
       sodipodi:arg1="1.255068"
       sodipodi:r2="128.17097"
       sodipodi:r1="128.18678"
       sodipodi:cy="422.40488"
       sodipodi:cx="355.67159"
       sodipodi:sides="200"
       id="path6700"
       style="fill:none;fill-opacity:1;stroke:#ff0000;stroke-opacity:1"
       sodipodi:type="star" />
    <path
       d="m 379.31229,469.50416 -1.49109,0.71933 -1.51295,0.67214 -1.53331,0.62429 -1.55217,0.57581 -1.56949,0.52678 -1.58526,0.47722 -1.59946,0.42719 -1.6121,0.37673 -1.62313,0.32592 -1.63257,0.27476 -1.6404,0.22336 -1.6466,0.17171 -1.65119,0.11991 -1.65413,0.068 -1.65546,0.016 -1.65514,-0.036 -1.65319,-0.088 -1.64961,-0.13987 -1.64441,-0.19161 -1.63757,-0.24317 -1.62913,-0.29449 -1.61908,-0.34552 -1.60742,-0.3962 -1.59419,-0.4465 -1.57937,-0.49635 -1.563,-0.54571 -1.54509,-0.59454 -1.52566,-0.64278 -1.50471,-0.69039 -1.48228,-0.73731 -1.45839,-0.7835 -1.43306,-0.82893 -1.40632,-0.87353 -1.37819,-0.91727 -1.34869,-0.96011 -1.31787,-1.00201 -1.28575,-1.0429 -1.25235,-1.08277 -1.21772,-1.12158 -1.1819,-1.15927 -1.14489,-1.19582 -1.10677,-1.2312 -1.06755,-1.26536 -1.02728,-1.29826 -0.986,-1.32989 -0.94373,-1.3602 -0.90054,-1.38918 -0.85646,-1.41677 -0.81154,-1.44298 -0.76581,-1.46776 -0.71934,-1.49109 -0.67214,-1.51295 -0.62428,-1.53331 -0.57582,-1.55217 -0.52677,-1.56949 -0.47722,-1.58526 -0.42719,-1.59947 -0.37673,-1.61209 -0.32592,-1.62314 -0.27477,-1.63257 -0.22335,-1.64039 -0.17172,-1.64661 -0.11991,-1.65118 -0.068,-1.65414 -0.016,-1.65545 0.036,-1.65514 0.088,-1.65319 0.13986,-1.64962 0.19162,-1.6444 0.24317,-1.63758 0.29449,-1.62913 0.34551,-1.61907 0.39621,-1.60742 0.44649,-1.59419 0.49635,-1.57937 0.54572,-1.56301 0.59454,-1.54509 0.64278,-1.52565 0.69039,-1.50471 0.7373,-1.48228 0.78351,-1.4584 0.82893,-1.43306 0.87353,-1.40632 0.91727,-1.37818 0.96011,-1.34869 1.002,-1.31787 1.0429,-1.28575 1.08278,-1.25235 1.12157,-1.21773 1.15928,-1.18189 1.19582,-1.1449 1.2312,-1.10677 1.26535,-1.06755 1.29826,-1.02728 1.32989,-0.98599 1.36021,-0.94373 1.38917,-0.90054 1.41678,-0.85647 1.44298,-0.81154 1.46776,-0.76581 1.49109,-0.71933 1.51295,-0.67214 1.53331,-0.62429 1.55217,-0.57581 1.56949,-0.52678 1.58526,-0.47721 1.59946,-0.42719 1.6121,-0.37674 1.62313,-0.32591 1.63258,-0.27477 1.64039,-0.22335 1.6466,-0.17172 1.65119,-0.11991 1.65413,-0.068 1.65546,-0.016 1.65514,0.036 1.65319,0.088 1.64961,0.13987 1.64441,0.19161 1.63757,0.24317 1.62913,0.29449 1.61908,0.34552 1.60742,0.3962 1.59419,0.4465 1.57937,0.49635 1.563,0.54571 1.5451,0.59455 1.52565,0.64278 1.50471,0.69038 1.48228,0.73731 1.45839,0.7835 1.43307,0.82893 1.40631,0.87353 1.37819,0.91728 1.34869,0.96011 1.31787,1.002 1.28575,1.0429 1.25235,1.08277 1.21772,1.12158 1.1819,1.15927 1.14489,1.19583 1.10677,1.23119 1.06755,1.26536 1.02728,1.29826 0.986,1.32989 0.94373,1.3602 0.90054,1.38918 0.85646,1.41678 0.81154,1.44298 0.76582,1.46775 0.71933,1.49109 0.67214,1.51295 0.62428,1.53332 0.57582,1.55216 0.52677,1.56949 0.47722,1.58526 0.42719,1.59947 0.37674,1.6121 0.32591,1.62313 0.27477,1.63257 0.22335,1.6404 0.17172,1.6466 0.11991,1.65118 0.068,1.65414 0.016,1.65545 -0.036,1.65514 -0.088,1.6532 -0.13987,1.64961 -0.19162,1.6444 -0.24317,1.63758 -0.29449,1.62913 -0.34551,1.61907 -0.3962,1.60743 -0.4465,1.59418 -0.49635,1.57938 -0.54572,1.563 -0.59454,1.54509 -0.64278,1.52566 -0.69038,1.50471 -0.73731,1.48228 -0.78351,1.45839 -0.82892,1.43306 -0.87354,1.40632 -0.91727,1.37818 -0.96011,1.3487 -1.002,1.31787 -1.0429,1.28574 -1.08278,1.25236 -1.12157,1.21772 -1.15928,1.18189 -1.19582,1.1449 -1.2312,1.10677 -1.26535,1.06755 -1.29826,1.02728 -1.32989,0.98599 -1.36021,0.94374 -1.38917,0.90054 -1.41678,0.85646 -1.44298,0.81154 z"
       inkscape:randomized="0"
       inkscape:rounded="0"
       inkscape:flatsided="true"
       sodipodi:arg2="1.1213114"
       sodipodi:arg1="1.1056034"
       sodipodi:r2="52.69288"
       sodipodi:r1="52.699381"
       sodipodi:cy="422.40488"
       sodipodi:cx="355.67159"
       sodipodi:sides="200"
       id="path6702"
       style="fill:none;stroke:#ff0000;stroke-width:1;stroke-miterlimit:4;stroke-opacity:1;stroke-dasharray:none"
       sodipodi:type="star" />
    <path
       inkscape:connector-curvature="0"
       id="path6704"
       d="m 267.03384,421.07806 -39.5204,-0.48532"
       style="fill:none;stroke:#ff0000;stroke-width:1px;stroke-linecap:butt;stroke-linejoin:miter;stroke-opacity:1" />
    <g
       ns0:preamble=""
       ns0:text="$b$"
       word-spacing="normal"
       letter-spacing="normal"
       font-size-adjust="none"
       font-stretch="normal"
       font-weight="normal"
       font-variant="normal"
       font-style="normal"
       stroke-miterlimit="10.433"
       xml:space="preserve"
       transform="matrix(2.8449502,0,0,-2.8449502,-392.91088,2427.4604)"
       id="content"
       style="font-style:normal;font-variant:normal;font-weight:normal;font-stretch:normal;letter-spacing:normal;word-spacing:normal;text-anchor:start;fill:#ff0000;fill-opacity:1;stroke:#ff0000;stroke-linecap:butt;stroke-linejoin:miter;stroke-miterlimit:10.43299961;stroke-opacity:1;stroke-dasharray:none;stroke-dashoffset:0">
<path
   id="path6732"
   d="m 225.81,713.93 0,0 0,0 0,0 0,0 0,0 0,0.01 0,0 0,0 0,0.01 0,0 0,0.01 0,0 0,0.01 0,0 -0.01,0.01 0,0 0,0.01 -0.01,0 0,0.01 0,0 -0.01,0 0,0.01 0,0 -0.01,0 0,0 0,0.01 0,0 -0.01,0 0,0 0,0 -0.01,0 0,0.01 -0.01,0 0,0 0,0 -0.01,0 0,0 -0.01,0 0,0 -0.01,0.01 0,0 -0.01,0 0,0 -0.01,0 -0.01,0 c -0.22,0 -0.95,-0.08 -1.21,-0.1 -0.08,-0.01 -0.19,-0.02 -0.19,-0.2 0,-0.12 0.09,-0.12 0.24,-0.12 0.48,0 0.5,-0.07 0.5,-0.17 0,-0.07 -0.09,-0.41 -0.14,-0.62 l -0.82,-3.25 c -0.12,-0.49 -0.16,-0.65 -0.16,-1 0,-0.95 0.53,-1.57 1.27,-1.57 v 0.22 c -0.34,0 -0.67,0.27 -0.67,1.01 0,0.19 0,0.38 0.16,1 l 0.22,0.92 c 0.06,0.22 0.06,0.24 0.15,0.35 0.48,0.65 0.93,0.8 1.19,0.8 0.36,0 0.63,-0.3 0.63,-0.94 0,-0.59 -0.33,-1.73 -0.51,-2.11 -0.33,-0.67 -0.79,-1.03 -1.17,-1.03 v -0.22 c 1.17,0 2.4,1.49 2.4,2.92 0,0.91 -0.53,1.6 -1.33,1.6 -0.46,0 -0.86,-0.29 -1.16,-0.6 z"
   inkscape:connector-curvature="0"
   style="fill:#ff0000;fill-opacity:1;stroke:#ff0000;stroke-width:0;stroke-opacity:1" />
</g>    <path
       style="fill:none;stroke:#00ff00;stroke-width:1px;stroke-linecap:butt;stroke-linejoin:miter;stroke-opacity:1"
       d="m 409.11178,535.16408 c 0,0 26.29948,-16.06525 35.86042,-27.7792 15.18748,-18.60751 29.14983,-40.7799 31.8198,-64.64976 3.05951,-27.35235 -4.38733,-57.1057 -19.1929,-80.30713 -13.28147,-20.81305 -34.5985,-38.34469 -58.08377,-45.96194 -26.60784,-8.63003 -58.57224,-8.45864 -83.84266,3.53554 -25.64075,12.16995 -47.17884,36.85549 -56.56854,63.63961 -9.59316,27.3645 -8.87079,61.16625 4.54568,86.87312 10.65784,20.42113 33.07691,34.08409 54.54824,42.4264 21.56861,8.3801 47.35617,13.20283 69.19545,5.55584 24.84377,-8.69901 45.39887,-30.70784 57.5787,-54.04316 7.00681,-13.42434 8.49298,-29.93197 6.56599,-44.95179 -2.41933,-18.85731 -10.77321,-37.3508 -22.22336,-52.52793 -8.72539,-11.56546 -29.19725,-22.98841 -29.19725,-22.98841"
       id="path6761"
       inkscape:connector-curvature="0"
       sodipodi:nodetypes="cssssssssssssc" />
    <path
       style="fill:none;stroke:#00ff00;stroke-width:1px;stroke-linecap:butt;stroke-linejoin:miter;stroke-opacity:1;marker-end:url(#Arrow2Lend-1)"
       d="m 439.75023,512.82088 5.22197,-5.436"
       id="path6763"
       inkscape:connector-curvature="0" />
    <path
       style="fill:none;stroke:#00ff00;stroke-width:1px;stroke-linecap:butt;stroke-linejoin:miter;stroke-opacity:1;marker-end:url(#Arrow2Lend-1)"
       d="m 468.35333,383.55711 -4.04188,-9.15205"
       id="path6949"
       inkscape:connector-curvature="0" />
    <path
       style="fill:none;stroke:#00ff00;stroke-width:1px;stroke-linecap:butt;stroke-linejoin:miter;stroke-opacity:1;marker-end:url(#Arrow2Lend-1)"
       d="m 254.25607,441.95319 0.8781,4.56405"
       id="path7135"
       inkscape:connector-curvature="0" />
    <path
       style="fill:none;stroke:#00ff00;stroke-width:1px;stroke-linecap:butt;stroke-linejoin:miter;stroke-opacity:1;marker-end:url(#Arrow2Lend-1)"
       d="m 452.28719,433.61137 -0.0329,-5.36659"
       id="path7321"
       inkscape:connector-curvature="0" />
    <path
       style="fill:none;stroke:#00ff00;stroke-width:1px;stroke-linecap:butt;stroke-linejoin:miter;stroke-opacity:1"
       d="m 403.05087,554.35698 c 0,0 37.61849,-15.105 53.033,-27.7792 17.85212,-14.67846 36.31308,-32.05654 43.43656,-54.04316 12.3658,-38.16706 9.69582,-83.3115 -6.06091,-120.20815 -11.45951,-26.83409 -35.26492,-48.32932 -60.10408,-63.63961 -20.49535,-12.63286 -45.19355,-18.82201 -69.19545,-20.70813 -23.87952,-1.87651 -48.76194,1.25502 -71.21575,9.59645 -24.86361,9.23665 -48.64696,23.9768 -66.67007,43.43656 -12.38966,13.37726 -30.30458,37.37565 -30.30458,37.37565"
       id="path7507"
       inkscape:connector-curvature="0"
       sodipodi:nodetypes="csssssssc" />
    <path
       style="fill:none;stroke:#00ff00;stroke-width:1px;stroke-linecap:butt;stroke-linejoin:miter;stroke-opacity:1;marker-end:url(#Arrow2Lend-1)"
       d="m 432.66793,540.86678 5.85322,-3.07194"
       id="path7509"
       inkscape:connector-curvature="0" />
    <path
       style="fill:none;stroke:#00ff00;stroke-width:1px;stroke-linecap:butt;stroke-linejoin:miter;stroke-opacity:1;marker-end:url(#Arrow2Lend-1)"
       d="m 367.80315,268.29788 -3.64316,-0.31915"
       id="path7695"
       inkscape:connector-curvature="0" />
    <path
       d="m 369.96837,517.10759 -0.28388,0.15266 -0.30943,0.0903 -0.32143,0.024 -0.3194,-0.0434 -0.30341,-0.10881 -0.27416,-0.16951 -0.23292,-0.22282 -0.18151,-0.26637 -0.12215,-0.29828 -0.0575,-0.31717 0.01,-0.32218 0.0765,-0.31312 0.13993,-0.29038 0.19725,-0.25493 0.24594,-0.20836 0.28388,-0.15266 0.30942,-0.0903 0.32144,-0.024 0.3194,0.0434 0.30341,0.10881 0.27416,0.16951 0.23292,0.22282 0.1815,0.26637 0.12216,0.29828 0.0575,0.31717 -0.01,0.32218 -0.0765,0.31312 -0.13993,0.29038 -0.19724,0.25493 z"
       inkscape:randomized="0"
       inkscape:rounded="0"
       inkscape:flatsided="true"
       sodipodi:arg2="1.0773807"
       sodipodi:arg1="0.97266099"
       sodipodi:r2="1.5333875"
       sodipodi:r1="1.5418338"
       sodipodi:cy="515.83344"
       sodipodi:cx="369.10016"
       sodipodi:sides="30"
       id="path6673-9-4"
       style="fill:#00ff00;fill-opacity:1;stroke:none"
       sodipodi:type="star"
       transform="translate(40.011621,19.330645)" />
    <path
       d="m 369.96837,517.10759 -0.28388,0.15266 -0.30943,0.0903 -0.32143,0.024 -0.3194,-0.0434 -0.30341,-0.10881 -0.27416,-0.16951 -0.23292,-0.22282 -0.18151,-0.26637 -0.12215,-0.29828 -0.0575,-0.31717 0.01,-0.32218 0.0765,-0.31312 0.13993,-0.29038 0.19725,-0.25493 0.24594,-0.20836 0.28388,-0.15266 0.30942,-0.0903 0.32144,-0.024 0.3194,0.0434 0.30341,0.10881 0.27416,0.16951 0.23292,0.22282 0.1815,0.26637 0.12216,0.29828 0.0575,0.31717 -0.01,0.32218 -0.0765,0.31312 -0.13993,0.29038 -0.19724,0.25493 z"
       inkscape:randomized="0"
       inkscape:rounded="0"
       inkscape:flatsided="true"
       sodipodi:arg2="1.0773807"
       sodipodi:arg1="0.97266099"
       sodipodi:r2="1.5333875"
       sodipodi:r1="1.5418338"
       sodipodi:cy="515.83344"
       sodipodi:cx="369.10016"
       sodipodi:sides="30"
       id="path6673-9-8"
       style="fill:#00ff00;fill-opacity:1;stroke:none;stroke-opacity:1"
       sodipodi:type="star"
       transform="translate(33.950711,38.523545)" />
    <g
       id="g7941"
       transform="matrix(1.000000,0,0,-1.000000,-200.000000,750.000000)"
       xml:space="preserve"
       stroke="black"
       stroke-linecap="butt"
       stroke-linejoin="miter"
       stroke-miterlimit="10.433"
       stroke-dasharray="none"
       stroke-dashoffset="0"
       stroke-opacity="1"
       fill="none"
       fill-rule="evenodd"
       fill-opacity="1"
       font-style="normal"
       font-variant="normal"
       font-weight="normal"
       font-stretch="normal"
       font-size-adjust="none"
       letter-spacing="normal"
       word-spacing="normal"
       text-anchor="start"
       ns0:text="$x_1$"
       ns0:preamble="">
<path
   style="fill:#00ff00;fill-opacity:1;stroke-width:0"
   inkscape:connector-curvature="0"
   d="m 606.02334,184.25678 0.0259,0.0763 0,0.0763 0.0259,0.0763 0.0259,0.10167 0.0259,0.0763 0.0259,0.12704 0.051,0.10168 0.0259,0.10168 0.051,0.1273 0.0259,0.12703 0.051,0.12704 0.051,0.12703 0.0763,0.12729 0.051,0.12704 0.0763,0.12704 0.0509,0.12703 0.0763,0.10168 0.0763,0.12704 0.10167,0.12703 0.0763,0.10169 0.10168,0.12729 0.10168,0.10168 0.10168,0.0763 0.12704,0.10169 0.10167,0.0763 0.1273,0.0763 0.0763,0.0259 0.051,0.051 0.0763,0.0259 0.0763,0.0259 0.051,0.0259 0.0763,0 0.0763,0.0259 0.0763,0.0259 0.0763,0 0.0763,0 0.0763,0.0259 0.10167,0 c 0.1273,0 0.73761,0 1.2463,-0.33065 -0.71215,-0.1273 -1.1954,-0.76302 -1.1954,-1.37346 0,-0.40694 0.27976,-0.89019 0.9665,-0.89019 0.53412,0 1.34801,0.45782 1.34801,1.47519 0,1.32258 -1.47519,1.67866 -2.33994,1.67866 -1.4752,0 -2.36541,-1.34803 -2.67063,-1.93301 -0.63585,1.67866 -2.00931,1.93301 -2.74689,1.93301 -2.61976,0 -4.0695,-3.28104 -4.0695,-3.91689 0,-0.25433 0.25434,-0.25433 0.3052,-0.25433 0.20336,0 0.27979,0.051 0.33065,0.27976 0.86478,2.69606 2.54344,3.33191 3.38278,3.33191 0.48326,0 1.37343,-0.22898 1.37343,-1.70411 0,-0.78846 -0.43238,-2.49258 -1.37343,-6.02794 -0.38152,-1.57693 -1.27173,-2.64517 -2.39083,-2.64517 -0.15265,0 -0.73761,0 -1.27173,0.33065 0.63588,0.12704 1.19543,0.66129 1.19543,1.37346 0,0.68673 -0.55955,0.89019 -0.94108,0.89019 -0.76304,0 -1.39889,-0.66129 -1.39889,-1.47519 0,-1.16997 1.27173,-1.67866 2.39083,-1.67866 1.67866,0 2.56887,1.78042 2.64516,1.93301 0.30523,-0.94107 1.22087,-1.93301 2.74693,-1.93301 2.61973,0 4.04405,3.28104 4.04405,3.91689 0,0.25433 -0.22897,0.25433 -0.30522,0.25433 -0.22897,0 -0.25433,-0.10168 -0.30522,-0.27976 -0.83931,-2.72149 -2.56887,-3.33191 -3.38274,-3.33191 -0.99195,0 -1.3989,0.81391 -1.3989,1.67866 0,0.55957 0.15265,1.11913 0.43239,2.23823 z"
   id="path7943" />
<path
   style="fill:#00ff00;fill-opacity:1;stroke-width:0"
   inkscape:connector-curvature="0"
   d="m 617.97748,184.10419 0,0 0,0.0259 0,0.0259 0,0.0259 0,0.0259 0,0 0,0.0259 0,0.0259 0,0 0,0.0259 0,0.0259 0,0 0,0.0259 0,0 0,0.0259 0,0.0259 -0.0259,0 0,0.0259 0,0 0,0.0259 0,0.0259 -0.0259,0.0259 0,0 -0.0259,0.0259 0,0 -0.0259,0.0259 0,0 -0.0259,0.0259 -0.0259,0 0,0 -0.0259,0 -0.0259,0.0259 -0.0259,0 0,0 -0.0259,0 0,0 -0.0259,0 -0.0259,0 0,0 -0.0259,0 -0.0259,0 0,0 -0.0259,0 -0.0259,0 -0.0259,0 0,0 -0.0259,0 -0.0259,0 -0.0259,0 -0.0259,0 c -1.11911,-1.11913 -2.7469,-1.14456 -3.48451,-1.14456 v -0.63585 c 0.43239,0 1.60239,0 2.59433,0.50868 v -9.05462 c 0,-0.58499 0,-0.81391 -1.78041,-0.81391 h -0.68673 v -0.63585 c 0.33063,0.0259 2.518,0.0763 3.17929,0.0763 0.53412,0 2.77233,-0.051 3.15385,-0.0763 v 0.63585 h -0.66128 c -1.78042,0 -1.78042,0.22898 -1.78042,0.81391 z"
   id="path7945" />
<g
   ns0:preamble=""
   ns0:text="$x_2$"
   word-spacing="normal"
   letter-spacing="normal"
   font-size-adjust="none"
   font-stretch="normal"
   font-weight="normal"
   font-variant="normal"
   font-style="normal"
   stroke-miterlimit="10.433"
   xml:space="preserve"
   transform="matrix(2.5423729,0,0,2.5423729,13.344067,-1581.2729)"
   id="g8021"
   style="font-style:normal;font-variant:normal;font-weight:normal;font-stretch:normal;letter-spacing:normal;word-spacing:normal;text-anchor:start;fill:#00ff00;fill-opacity:1;stroke:#000000;stroke-linecap:butt;stroke-linejoin:miter;stroke-miterlimit:10.43299961;stroke-opacity:1;stroke-dasharray:none;stroke-dashoffset:0">
<path
   id="path8023"
   d="m 226.76,710.13 0.01,0.03 0,0.03 0.01,0.03 0.01,0.04 0.01,0.03 0.01,0.05 0.02,0.04 0.01,0.04 0.02,0.05 0.01,0.05 0.02,0.05 0.02,0.05 0.03,0.05 0.02,0.05 0.03,0.05 0.02,0.05 0.03,0.04 0.03,0.05 0.04,0.05 0.03,0.04 0.04,0.05 0.04,0.04 0.04,0.03 0.05,0.04 0.04,0.03 0.05,0.03 0.03,0.01 0.02,0.02 0.03,0.01 0.03,0.01 0.02,0.01 0.03,0 0.03,0.01 0.03,0.01 0.03,0 0.03,0 0.03,0.01 0.04,0 c 0.05,0 0.29,0 0.49,-0.13 -0.28,-0.05 -0.47,-0.3 -0.47,-0.54 0,-0.16 0.11,-0.35 0.38,-0.35 0.21,0 0.53,0.18 0.53,0.58 0,0.52 -0.58,0.66 -0.92,0.66 -0.58,0 -0.93,-0.53 -1.05,-0.76 -0.25,0.66 -0.79,0.76 -1.08,0.76 -1.03,0 -1.6,-1.29 -1.6,-1.54 0,-0.1 0.1,-0.1 0.12,-0.1 0.08,0 0.11,0.02 0.13,0.11 0.34,1.06 1,1.31 1.33,1.31 0.19,0 0.54,-0.09 0.54,-0.67 0,-0.31 -0.17,-0.98 -0.54,-2.37 -0.15,-0.62 -0.5,-1.04 -0.94,-1.04 -0.06,0 -0.29,0 -0.5,0.13 0.25,0.05 0.47,0.26 0.47,0.54 0,0.27 -0.22,0.35 -0.37,0.35 -0.3,0 -0.55,-0.26 -0.55,-0.58 0,-0.46 0.5,-0.66 0.94,-0.66 0.66,0 1.01,0.7 1.04,0.76 0.12,-0.37 0.48,-0.76 1.08,-0.76 1.03,0 1.59,1.29 1.59,1.54 0,0.1 -0.09,0.1 -0.12,0.1 -0.09,0 -0.1,-0.04 -0.12,-0.11 -0.33,-1.07 -1.01,-1.31 -1.33,-1.31 -0.39,0 -0.55,0.32 -0.55,0.66 0,0.22 0.06,0.44 0.17,0.88 z"
   inkscape:connector-curvature="0"
   style="fill:#00ff00;fill-opacity:1;stroke-width:0" />
<path
   id="path8025"
   d="m 232.65,706.9 h -0.24 c -0.02,-0.15 -0.09,-0.57 -0.18,-0.63 -0.06,-0.05 -0.59,-0.05 -0.69,-0.05 h -1.28 c 0.73,0.65 0.97,0.85 1.39,1.17 0.52,0.42 1,0.85 1,1.51 0,0.84 -0.74,1.36 -1.64,1.36 -0.86,0 -1.45,-0.61 -1.45,-1.25 0,-0.35 0.3,-0.39 0.37,-0.39 0.17,0 0.37,0.12 0.37,0.37 0,0.13 -0.04,0.37 -0.41,0.37 0.22,0.5 0.69,0.65 1.02,0.65 0.7,0 1.06,-0.54 1.06,-1.11 0,-0.61 -0.43,-1.09 -0.65,-1.34 l -1.69,-1.66 c -0.07,-0.06 -0.07,-0.07 -0.07,-0.27 h 2.88 z"
   inkscape:connector-curvature="0"
   style="fill:#00ff00;fill-opacity:1;stroke-width:0" />
</g>
<g
   style="font-style:normal;font-variant:normal;font-weight:normal;font-stretch:normal;letter-spacing:normal;word-spacing:normal;text-anchor:start;fill:#00ff00;fill-opacity:1;stroke:#000000;stroke-linecap:butt;stroke-linejoin:miter;stroke-miterlimit:10.43299961;stroke-opacity:1;stroke-dasharray:none;stroke-dashoffset:0"
   id="g8107"
   transform="matrix(2.1574973,0,0,2.1574973,-74.133512,-1135.6347)"
   xml:space="preserve"
   stroke-miterlimit="10.433"
   font-style="normal"
   font-variant="normal"
   font-weight="normal"
   font-stretch="normal"
   font-size-adjust="none"
   letter-spacing="normal"
   word-spacing="normal"
   ns0:text="$\\Gamma_{x_1}$"
   ns0:preamble="">
<path
   style="fill:#00ff00;fill-opacity:1;stroke-width:0"
   inkscape:connector-curvature="0"
   d="m 228.95,713.9 h -5.19 v -0.31 H 224 c 0.77,0 0.79,-0.11 0.79,-0.47 v -5.22 c 0,-0.36 -0.02,-0.47 -0.79,-0.47 h -0.24 v -0.31 c 0.35,0.03 1.13,0.03 1.52,0.03 0.4,0 1.31,0 1.67,-0.03 v 0.31 h -0.33 c -0.95,0 -0.95,0.13 -0.95,0.48 v 5.28 c 0,0.33 0.02,0.4 0.49,0.4 h 1.03 c 1.42,0 1.63,-0.59 1.79,-1.93 h 0.25 z"
   id="path8109" />
<path
   style="fill:#00ff00;fill-opacity:1;stroke-width:0"
   inkscape:connector-curvature="0"
   d="m 231.39,706.37 0,-0.02 -0.01,-0.03 -0.01,-0.02 -0.01,-0.03 -0.01,-0.02 -0.01,-0.03 -0.01,-0.02 -0.02,-0.03 -0.01,-0.02 -0.02,-0.03 -0.01,-0.02 -0.02,-0.03 -0.02,-0.02 -0.02,-0.03 -0.02,-0.02 -0.02,-0.03 -0.02,-0.02 -0.02,-0.02 -0.02,-0.02 -0.03,-0.02 -0.02,-0.02 -0.03,-0.02 -0.02,-0.02 -0.03,-0.01 -0.03,-0.02 -0.03,-0.01 -0.02,-0.01 -0.03,-0.01 -0.04,0 -0.03,-0.01 -0.03,0 -0.03,0 c -0.02,0 -0.23,0 -0.38,0.09 0.29,0.09 0.31,0.35 0.31,0.39 0,0.15 -0.12,0.25 -0.28,0.25 -0.2,0 -0.4,-0.16 -0.4,-0.42 0,-0.35 0.39,-0.51 0.74,-0.51 0.31,0 0.6,0.2 0.78,0.49 0.16,-0.36 0.55,-0.49 0.83,-0.49 0.8,0 1.22,0.87 1.22,1.07 0,0.09 -0.09,0.09 -0.11,0.09 -0.1,0 -0.1,-0.04 -0.13,-0.12 -0.15,-0.48 -0.57,-0.84 -0.96,-0.84 -0.28,0 -0.42,0.18 -0.42,0.45 0,0.18 0.16,0.82 0.36,1.59 0.14,0.54 0.45,0.71 0.68,0.71 0.02,0 0.23,0 0.38,-0.1 -0.22,-0.06 -0.31,-0.25 -0.31,-0.38 0,-0.15 0.12,-0.26 0.28,-0.26 0.16,0 0.39,0.13 0.39,0.43 0,0.39 -0.44,0.51 -0.72,0.51 -0.35,0 -0.63,-0.24 -0.78,-0.5 -0.13,0.29 -0.45,0.5 -0.84,0.5 -0.78,0 -1.23,-0.86 -1.23,-1.07 0,-0.09 0.1,-0.09 0.12,-0.09 0.09,0 0.1,0.03 0.13,0.12 0.18,0.54 0.62,0.84 0.96,0.84 0.23,0 0.42,-0.12 0.42,-0.46 0,-0.14 -0.09,-0.49 -0.15,-0.72 z"
   id="path8111" />
<path
   style="fill:#00ff00;fill-opacity:1;stroke-width:0"
   inkscape:connector-curvature="0"
   d="m 236.16,707.8 0,0.01 0,0 0,0.01 0,0.01 0,0 0,0.01 0,0 0,0.01 0,0.01 0,0 0,0.01 0,0 0,0 0,0.01 0,0 0,0.01 0,0 0,0 -0.01,0.01 0,0.01 0,0 0,0.01 -0.01,0 0,0.01 -0.01,0 0,0 -0.01,0.01 0,0 -0.01,0 0,0 -0.01,0.01 -0.01,0 0,0 -0.01,0 0,0 -0.01,0 0,0 -0.01,0 0,0 -0.01,0 -0.01,0 0,0 -0.01,0 0,0 -0.01,0 -0.01,0 0,0 -0.01,0 -0.01,0 -0.01,0 c -0.35,-0.32 -0.9,-0.32 -1,-0.32 h -0.09 v -0.22 h 0.09 c 0.11,0 0.43,0.02 0.72,0.14 v -2.49 c 0,-0.15 0,-0.21 -0.52,-0.21 h -0.25 v -0.22 c 0.27,0.02 0.72,0.02 1,0.02 0.29,0 0.74,0 1.01,-0.02 v 0.22 h -0.25 c -0.53,0 -0.53,0.06 -0.53,0.21 z"
   id="path8113" />
</g>
<g
   id="g8203"
   transform="matrix(0.41017692,0,0,-0.41017692,461.56682,562.03284)"
   style="fill:#00ff00;fill-opacity:1"><g
     word-spacing="normal"
     letter-spacing="normal"
     font-size-adjust="none"
     font-stretch="normal"
     font-weight="normal"
     font-variant="normal"
     font-style="normal"
     stroke-miterlimit="10.433"
     xml:space="preserve"
     transform="matrix(1.0629921,0,0,-1.0629921,-186.02362,789.27165)"
     id="g8205"
     style="font-style:normal;font-variant:normal;font-weight:normal;font-stretch:normal;letter-spacing:normal;word-spacing:normal;text-anchor:start;fill:#00ff00;fill-opacity:1;stroke:#000000;stroke-linecap:butt;stroke-linejoin:miter;stroke-miterlimit:10.43299961;stroke-opacity:1;stroke-dasharray:none;stroke-dashoffset:0"><path
       id="path8207"
       d="m 483.6,439.87 h -25.96 v -1.54 h 1.2 c 3.84,0 3.93,-0.55 3.93,-2.34 v -26.1 c 0,-1.8 -0.09,-2.35 -3.93,-2.35 h -1.2 V 406 h 15.95 v 1.54 h -1.65 c -4.73,0 -4.73,0.65 -4.73,2.39 v 26.41 c 0,1.64 0.1,1.99 2.44,1.99 h 5.13 c 7.12,0 8.17,-2.94 8.97,-9.67 h 1.24 z"
       inkscape:connector-curvature="0"
       style="fill:#00ff00;fill-opacity:1;stroke-width:0" /><path
       id="path8209"
       d="m 495.68,402.7 -0.03,-0.12 -0.04,-0.11 -0.05,-0.12 -0.04,-0.13 -0.06,-0.12 -0.06,-0.13 -0.06,-0.12 -0.07,-0.13 -0.07,-0.13 -0.07,-0.13 -0.08,-0.13 -0.09,-0.12 -0.09,-0.13 -0.09,-0.12 -0.1,-0.12 -0.1,-0.12 -0.11,-0.12 -0.11,-0.11 -0.11,-0.1 -0.12,-0.1 -0.12,-0.1 -0.13,-0.09 -0.13,-0.08 -0.13,-0.08 -0.14,-0.07 -0.14,-0.06 -0.15,-0.05 -0.15,-0.05 -0.15,-0.03 -0.16,-0.03 -0.16,-0.02 -0.16,0 c -0.11,0 -1.16,0 -1.89,0.49 1.43,0.45 1.53,1.7 1.53,1.92 0,0.76 -0.59,1.28 -1.39,1.28 -0.98,0 -1.99,-0.83 -1.99,-2.12 0,-1.75 1.96,-2.55 3.67,-2.55 1.6,0 3.03,1.01 3.9,2.48 0.84,-1.85 2.76,-2.48 4.15,-2.48 4.01,0 6.14,4.36 6.14,5.33 0,0.46 -0.46,0.46 -0.56,0.46 -0.49,0 -0.52,-0.17 -0.67,-0.59 -0.73,-2.41 -2.82,-4.22 -4.77,-4.22 -1.4,0 -2.13,0.94 -2.13,2.26 0,0.91 0.84,4.08 1.81,7.95 0.7,2.69 2.27,3.56 3.42,3.56 0.07,0 1.16,0 1.89,-0.49 -1.12,-0.31 -1.54,-1.29 -1.54,-1.91 0,-0.77 0.59,-1.3 1.4,-1.3 0.8,0 1.95,0.67 1.95,2.13 0,1.96 -2.23,2.55 -3.63,2.55 -1.74,0 -3.14,-1.15 -3.9,-2.48 -0.63,1.43 -2.23,2.48 -4.19,2.48 -3.9,0 -6.13,-4.29 -6.13,-5.34 0,-0.45 0.48,-0.45 0.59,-0.45 0.45,0 0.49,0.14 0.66,0.59 0.87,2.72 3.07,4.22 4.78,4.22 1.15,0 2.09,-0.63 2.09,-2.3 0,-0.7 -0.42,-2.44 -0.73,-3.63 z"
       inkscape:connector-curvature="0"
       style="fill:#00ff00;fill-opacity:1;stroke-width:0" /><path
       id="path8211"
       d="m 523.67,398.81 h -1.04 c -0.08,-0.48 -0.33,-2.02 -0.73,-2.27 -0.2,-0.15 -2.29,-0.15 -2.66,-0.15 h -4.89 c 1.65,1.22 3.49,2.62 4.99,3.61 2.24,1.55 4.33,2.99 4.33,5.63 0,3.19 -3.01,4.96 -6.58,4.96 -3.36,0 -5.82,-1.95 -5.82,-4.39 0,-1.29 1.09,-1.52 1.44,-1.52 0.67,0 1.47,0.45 1.47,1.48 0,0.89 -0.65,1.39 -1.42,1.47 0.7,1.12 2.14,1.86 3.81,1.86 2.42,0 4.43,-1.44 4.43,-3.88 0,-2.09 -1.44,-3.69 -3.35,-5.31 l -6.08,-5.16 c -0.25,-0.22 -0.28,-0.22 -0.3,-0.39 V 394 h 11.58 z"
       inkscape:connector-curvature="0"
       style="fill:#00ff00;fill-opacity:1;stroke-width:0" /></g></g></g>  </g>
</svg>
