<?xml version="1.0" encoding="UTF-8" standalone="no"?>
<!-- Created with Inkscape (http://www.inkscape.org/) -->

<svg
   xmlns:dc="http://purl.org/dc/elements/1.1/"
   xmlns:cc="http://creativecommons.org/ns#"
   xmlns:rdf="http://www.w3.org/1999/02/22-rdf-syntax-ns#"
   xmlns:svg="http://www.w3.org/2000/svg"
   xmlns="http://www.w3.org/2000/svg"
   xmlns:sodipodi="http://sodipodi.sourceforge.net/DTD/sodipodi-0.dtd"
   xmlns:inkscape="http://www.inkscape.org/namespaces/inkscape"
   sodipodi:docname="transversal_rueckkehrzeit.pdf"
   inkscape:version="0.48.4 r9939"
   version="1.1"
   id="svg6050"
   height="297mm"
   width="210mm">
  <sodipodi:namedview
     id="base"
     pagecolor="#ffffff"
     bordercolor="#666666"
     borderopacity="1.0"
     inkscape:pageopacity="0.0"
     inkscape:pageshadow="2"
     inkscape:zoom="1.979899"
     inkscape:cx="287.5869"
     inkscape:cy="679.49461"
     inkscape:document-units="px"
     inkscape:current-layer="layer1"
     showgrid="false"
     inkscape:window-width="1920"
     inkscape:window-height="1138"
     inkscape:window-x="-8"
     inkscape:window-y="-8"
     inkscape:window-maximized="1"
     showguides="true"
     inkscape:snap-bbox="true"
     inkscape:bbox-paths="true"
     inkscape:bbox-nodes="true"
     inkscape:snap-bbox-edge-midpoints="true"
     inkscape:snap-bbox-midpoints="true"
     inkscape:object-paths="true"
     inkscape:snap-intersection-paths="true"
     inkscape:object-nodes="true"
     inkscape:snap-midpoints="true"
     inkscape:snap-smooth-nodes="true"
     inkscape:snap-global="false" />
  <defs
     id="defs6052">
    <inkscape:perspective
       id="perspective7204"
       inkscape:persp3d-origin="372.04724 : 350.78739 : 1"
       inkscape:vp_z="744.09448 : 526.18109 : 1"
       inkscape:vp_y="0 : 1000 : 0"
       inkscape:vp_x="0 : 526.18109 : 1"
       sodipodi:type="inkscape:persp3d" />
    <marker
       style="overflow:visible;"
       id="Arrow2Lend"
       refX="0.0"
       refY="0.0"
       orient="auto"
       inkscape:stockid="Arrow2Lend">
      <path
         transform="scale(1.1) rotate(180) translate(1,0)"
         d="M 8.7185878,4.0337352 L -2.2072895,0.016013256 L 8.7185884,-4.0017078 C 6.9730900,-1.6296469 6.9831476,1.6157441 8.7185878,4.0337352 z "
         style="fill-rule:evenodd;stroke-width:0.62500000;stroke-linejoin:round;"
         id="path3780" />
    </marker>
    <marker
       style="overflow:visible"
       id="Arrow2Lend-2"
       refX="0"
       refY="0"
       orient="auto"
       inkscape:stockid="Arrow2Lend">
      <path
         transform="matrix(-1.1,0,0,-1.1,-1.1,0)"
         d="M 8.7185878,4.0337352 -2.2072895,0.01601326 8.7185884,-4.0017078 c -1.7454984,2.3720609 -1.7354408,5.6174519 -6e-7,8.035443 z"
         style="fill-rule:evenodd;stroke-width:0.625;stroke-linejoin:round"
         id="path3780-4"
         inkscape:connector-curvature="0" />
    </marker>
  </defs>
  <metadata
     id="metadata6055">
    <rdf:RDF>
      <cc:Work
         rdf:about="">
        <dc:format>image/svg+xml</dc:format>
        <dc:type
           rdf:resource="http://purl.org/dc/dcmitype/StillImage" />
        <dc:title></dc:title>
      </cc:Work>
    </rdf:RDF>
  </metadata>
  <g
     id="layer1"
     inkscape:groupmode="layer"
     inkscape:label="Ebene 1">
    <g
       style="fill:none;stroke:#00ffff;stroke-opacity:1"
       inkscape:label="WireframeSphere"
       transform="matrix(0.21663946,-0.30526104,0.30526104,0.21663946,241.00326,409.9907)"
       id="g14481">
      <g
         style="fill:none;stroke:#00ffff;stroke-opacity:1"
         inkscape:label="Lines of Longitude"
         id="g14483">
        <path
           sodipodi:rx="29.356783"
           sodipodi:ry="100"
           style="fill:none;stroke:#00ffff;stroke-width:1;stroke-opacity:1"
           sodipodi:type="arc"
           transform="matrix(0.97660851,0.21502514,-0.21502514,0.97660851,0,0)"
           sodipodi:cy="0"
           sodipodi:cx="0"
           id="path14485"
           d="M 29.356783,0 C 29.356783,55.228475 16.213304,100 0,100 -16.213304,100 -29.356783,55.228475 -29.356783,0 c 0,-55.228475 13.143479,-100 29.356783,-100 16.213304,0 29.356783,44.771525 29.356783,100 z" />
        <path
           sodipodi:rx="76.475433"
           sodipodi:ry="100"
           style="fill:none;stroke:#00ffff;stroke-width:1;stroke-opacity:1"
           sodipodi:type="arc"
           transform="matrix(0.55618363,-0.83105943,0.83105943,0.55618363,0,0)"
           sodipodi:cy="0"
           sodipodi:cx="0"
           id="path14487"
           d="M 76.475433,0 C 76.475433,55.228475 42.236216,100 0,100 -42.236216,100 -76.475433,55.228475 -76.475433,0 c 0,-55.228475 34.239217,-100 76.475433,-100 42.236216,0 76.475433,44.771525 76.475433,100 z" />
      </g>
      <g
         style="fill:none;stroke:#00ffff;stroke-opacity:1"
         inkscape:label="Lines of Latitude"
         id="g14489">
        <path
           sodipodi:rx="58.778526"
           sodipodi:ry="33.714977"
           style="fill:none;stroke:#00ffff;stroke-width:1;stroke-opacity:1"
           sodipodi:type="arc"
           sodipodi:cy="66.27079"
           sodipodi:cx="0"
           id="path14491"
           d="m 58.778526,66.27079 c 0,18.620268 -26.316042,33.714977 -58.778526,33.714977 -32.462484,0 -58.778526,-15.094709 -58.778526,-33.714977 0,-18.620268 26.316042,-33.714977 58.778526,-33.714977 32.462484,0 58.778526,15.094709 58.778526,33.714977 z" />
        <path
           sodipodi:rx="95.105652"
           sodipodi:ry="54.551361"
           style="fill:none;stroke:#00ffff;stroke-width:1;stroke-opacity:1"
           sodipodi:type="arc"
           sodipodi:cy="25.31319"
           sodipodi:cx="0"
           id="path14493"
           d="m 95.105652,25.31319 c 0,30.127885 -42.580251,54.551362 -95.105652,54.551362 -52.525401,0 -95.105652,-24.423477 -95.105652,-54.551362 0,-30.1278843 42.580251,-54.551361 95.105652,-54.551361 52.525401,0 95.105652,24.4234767 95.105652,54.551361 z" />
        <path
           sodipodi:rx="95.105652"
           sodipodi:ry="54.551361"
           style="fill:none;stroke:#00ffff;stroke-width:1;stroke-opacity:1"
           sodipodi:type="arc"
           sodipodi:cy="-25.31319"
           sodipodi:cx="0"
           id="path14495"
           d="M 95.105652,-25.31319 C 95.105652,4.8146943 52.525401,29.238171 0,29.238171 c -52.525401,0 -95.105652,-24.4234767 -95.105652,-54.551361 0,-30.127885 42.580251,-54.551362 95.105652,-54.551362 52.525401,0 95.105652,24.423477 95.105652,54.551362 z" />
        <path
           sodipodi:rx="58.778526"
           sodipodi:ry="33.714977"
           style="fill:none;stroke:#00ffff;stroke-width:1;stroke-opacity:1"
           sodipodi:type="arc"
           sodipodi:cy="-66.27079"
           sodipodi:cx="0"
           id="path14497"
           d="m 58.778526,-66.27079 c 0,18.620268 -26.316042,33.714977 -58.778526,33.714977 -32.462484,0 -58.778526,-15.094709 -58.778526,-33.714977 0,-18.620268 26.316042,-33.714977 58.778526,-33.714977 32.462484,0 58.778526,15.094709 58.778526,33.714977 z" />
      </g>
      <path
         sodipodi:rx="100"
         sodipodi:ry="100"
         style="fill:none;stroke:#00ffff;stroke-width:1;stroke-opacity:1"
         sodipodi:type="arc"
         sodipodi:cy="0"
         sodipodi:cx="0"
         id="path14499"
         d="M 100,0 C 100,55.228475 55.228475,100 0,100 -55.228475,100 -100,55.228475 -100,0 c 0,-55.228475 44.771525,-100 100,-100 55.228475,0 100,44.771525 100,100 z" />
    </g>
    <g
       id="g14673"
       style="fill:#00ffff;fill-opacity:1;stroke:#00ffff;stroke-opacity:1"
       transform="matrix(0.40859328,-0.36060348,0.21764617,0.60185649,14.456529,374.93048)">
      <g
         word-spacing="normal"
         letter-spacing="normal"
         font-size-adjust="none"
         font-stretch="normal"
         font-weight="normal"
         font-variant="normal"
         font-style="normal"
         stroke-miterlimit="10.433"
         xml:space="preserve"
         transform="matrix(1.0629921,0,0,-1.0629921,-186.02362,789.27165)"
         id="g14675"
         style="font-style:normal;font-variant:normal;font-weight:normal;font-stretch:normal;letter-spacing:normal;word-spacing:normal;text-anchor:start;fill:#00ffff;fill-opacity:1;fill-rule:evenodd;stroke:#00ffff;stroke-linecap:butt;stroke-linejoin:miter;stroke-miterlimit:10.43299961;stroke-opacity:1;stroke-dasharray:none;stroke-dashoffset:0"><path
           id="path14677"
           d="m 487.28,434.34 0.23,0.36 0.22,0.33 0.23,0.31 0.22,0.29 0.22,0.28 0.22,0.25 0.21,0.24 0.22,0.22 0.21,0.2 0.21,0.18 0.21,0.18 0.21,0.15 0.2,0.15 0.2,0.13 0.21,0.11 0.19,0.11 0.2,0.1 0.2,0.08 0.19,0.08 0.2,0.06 0.19,0.06 0.19,0.05 0.18,0.04 0.19,0.04 0.18,0.03 0.19,0.02 0.36,0.04 0.35,0.03 0.35,0.02 c 0.6,0.05 0.64,0.9 0.64,0.95 0,0.39 -0.24,0.59 -0.64,0.59 h -9.02 c -0.3,0 -0.94,0 -0.94,-0.95 0,-0.54 0.44,-0.59 0.79,-0.59 1.35,-0.1 2.3,-0.6 2.3,-1.64 0,-0.75 -0.75,-1.85 -0.75,-1.9 l -15.29,-24.31 -3.39,26.35 c 0,0.85 1.14,1.5 3.43,1.5 0.7,0 1.25,0 1.25,0.99 0,0.45 -0.4,0.55 -0.7,0.55 -1.99,0 -4.13,-0.15 -6.18,-0.15 -0.89,0 -1.84,0.05 -2.73,0.05 -0.9,0 -1.85,0.1 -2.7,0.1 -0.34,0 -0.94,0 -0.94,-0.95 0,-0.59 0.45,-0.59 1.25,-0.59 2.78,0 2.84,-0.45 2.98,-1.69 l 3.94,-30.74 c 0.15,-1 0.35,-1.15 1,-1.15 0.79,0 0.99,0.25 1.39,0.9 z"
           style="fill:#00ffff;fill-opacity:1;stroke:#00ffff;stroke-width:0;stroke-opacity:1"
           inkscape:connector-curvature="0" /></g>    </g>
    <rect
       transform="matrix(0.63707396,-0.77080268,0.5147006,0.85736999,0,0)"
       y="386.84302"
       x="-67.74308"
       height="195.34894"
       width="108.42774"
       id="rect8027"
       style="fill:none;stroke:#00ff00;stroke-width:1.05351079;stroke-linecap:round;stroke-linejoin:bevel;stroke-miterlimit:4;stroke-opacity:1;stroke-dasharray:none;stroke-dashoffset:0" />
    <path
       sodipodi:nodetypes="csssssssssssssssscsssassssc"
       inkscape:connector-curvature="0"
       id="path7830"
       d="m 263.78058,407.98661 c -0.10918,-0.25378 -11.84529,-20.08324 -11.97419,-20.34455 -3.84281,-7.79044 -4.58311,-20.15292 -14.71699,-22.14188 -1.59019,-0.31214 -3.41173,-0.36875 -5.51282,-0.11228 -15.71163,1.91817 -41.71917,22.72347 -32.88651,29.0914 14.23218,10.26073 59.77218,-16.38763 71.7976,-33.31622 16.45888,-23.16979 11.28346,-68.096 -23.76521,-59.28066 -15.5776,3.91803 -19.40229,28.17575 -6.30164,30.58926 24.30651,4.47793 80.74485,-29.29693 73.57754,-45.35326 -1.75892,-3.94042 -19.83078,8.00267 -21.26517,3.94291 -4.17951,-11.82921 36.64349,-31.09141 55.46737,-29.87055 24.94917,1.61809 -1.19623,39.7534 20.31767,45.67612 29.72935,8.18438 81.84603,-29.98034 113.6646,-24.09742 13.5565,2.50642 30.50112,12.79966 20.58727,23.02698 -0.18828,0.19419 -0.38145,0.3856 -0.57887,0.57457 -21.73699,20.77344 -79.53193,-12.10778 -99.64372,9.53105 -20.31492,21.85732 61.57886,23.03792 49.06363,45.87579 l -2e-5,4.6e-4 c -0.21253,0.38725 -0.47132,0.77239 -0.77316,1.15483 -7.61347,9.64393 -35.4579,7.84103 -42.50366,17.61115 -11.07389,15.35579 41.30119,27.85645 19.52449,37.88054 -33.96134,15.63282 -10.06703,-58.74333 -46.33231,-51.76446 -12.55619,2.41634 -9.93513,17.29723 -19.20291,24.70501 -12.27189,9.80892 -31.95089,14.21128 -45.02838,23.60244 -24.04535,17.26737 -28.91034,57.22596 -58.00191,57.70966 -0.30648,0.005 -0.60894,0.005 -0.90746,0.002 -26.39599,-0.30469 -16.24,-23.80886 -8.90527,-47.38454"
       inkscape:transform-center-y="12.686813"
       inkscape:transform-center-x="-16.321746"
       style="fill:none;stroke:#ff0000;stroke-width:1;stroke-linecap:round;stroke-linejoin:bevel;stroke-miterlimit:4;stroke-opacity:1;stroke-dasharray:none;stroke-dashoffset:0" />
    <path
       inkscape:connector-curvature="0"
       id="path7610"
       d="M 334.77583,354.99666 494.74169,258.96513"
       style="fill:none;stroke:#000000;stroke-width:0.80964571px;stroke-linecap:butt;stroke-linejoin:miter;stroke-opacity:1;marker-end:url(#Arrow2Lend)" />
    <path
       inkscape:connector-curvature="0"
       id="path7610-5"
       d="m 334.63505,354.81109 108.18732,89.41765"
       style="fill:none;stroke:#000000;stroke-width:0.91213202px;stroke-linecap:butt;stroke-linejoin:miter;stroke-opacity:1;marker-end:url(#Arrow2Lend)" />
    <path
       transform="matrix(0.68434715,0.56561787,-1.1399612,0.68434716,515.92549,-82.546208)"
       d="m 383.24847,291.6817 2.10358,1.44735 2.03847,1.57227 2.03722,1.68874 1.97444,1.64158 1.89256,1.75285 1.89974,1.84661 1.76351,1.85039 1.78065,1.97418 1.69037,1.91975 1.53903,2.08205 1.56758,2.03756 1.51113,2.20426 1.3988,2.15342 1.40066,2.24288 1.23354,2.20125 1.22087,2.3393 1.08543,2.36819 1.09218,2.34697 1.02854,2.41048 0.90499,2.38543 0.78876,2.48017 0.7361,2.47624 0.70936,2.51378 0.58627,2.56997 0.48661,2.52876 0.47372,2.53037 0.36429,2.61727 0.29485,2.55996 0.15329,2.61394 0.11761,2.56014 0.0571,2.596 -0.10323,2.65859 -0.12632,2.52789 -0.1993,2.63299 -0.26528,2.58909 -0.41012,2.58381 -0.47331,2.51891 -0.53674,2.51562 -0.58996,2.53864 -0.75473,2.49314 -0.74219,2.47468 -0.86201,2.48935 -0.90796,2.3959 -0.98125,2.44021 -1.0991,2.34508 -1.18973,2.29983 -1.22402,2.30642 -1.30204,2.30047 -1.30566,2.18458 -1.4235,2.2 -1.53986,2.10108 -1.54526,2.04538 -1.67388,2.05349 -1.72133,1.9195 -1.71427,1.92833 -1.85497,1.85058 -1.82081,1.7954 -1.94577,1.75833 -2.01444,1.65018 -1.99322,1.6412 -2.11843,1.53896 -2.09583,1.48784 -2.17853,1.39647 -2.22881,1.3865 -2.30676,1.25995 -2.24625,1.19428 -2.37867,1.19389 -2.37545,1.00241 -2.34863,0.98378 -2.45507,0.95506 -2.45086,0.7832 -2.47167,0.74863 -2.5229,0.66306 -2.5582,0.62493 -2.52366,0.53397 -2.54408,0.41553 -2.61897,0.39855 -2.55343,0.26403 -2.63371,0.18268 -2.54532,0.11971 -2.59819,-0.0192 -2.61755,0.008 -2.57261,-0.19416 -2.59026,-0.17915 -2.57946,-0.28028 -2.59804,-0.35473 -2.60516,-0.51789 -2.49702,-0.54567 -2.53086,-0.59629 -2.48594,-0.71408 -2.51673,-0.77669 -2.41258,-0.8227 -2.49,-0.94731 -2.33294,-0.97672 -2.40901,-1.09313 -2.28731,-1.18404 -2.3025,-1.20529 -2.23976,-1.25665 -2.24223,-1.36836 -2.14136,-1.43977 -2.10804,-1.49468 -2.12564,-1.59213 -1.99098,-1.65244 -1.92897,-1.68625 -1.94249,-1.75552 -1.8498,-1.85311 -1.85069,-1.87941 -1.69348,-1.92684 -1.70725,-1.97988 -1.6094,-2.00284 -1.52589,-2.11098 -1.46565,-2.0835 -1.48152,-2.23614 -1.36334,-2.20022 -1.27086,-2.25307 -1.13807,-2.32299 -1.13099,-2.33067 -1.12942,-2.39164 -0.94573,-2.40333 -0.95493,-2.37895 -0.82163,-2.50295 -0.73601,-2.45994 -0.64353,-2.49121 -0.65209,-2.59254 -0.45393,-2.53858 -0.46926,-2.56575 -0.31881,-2.57006 -0.26198,-2.55548 -0.19062,-2.57388 -0.163,-2.6002 -0.007,-2.6188 0.0161,-2.59573 0.13078,-2.57243 0.23798,-2.64143 0.30486,-2.54527 0.41011,-2.58381 0.4323,-2.52794 0.4995,-2.54197 0.65587,-2.52723 0.68881,-2.51371 0.77497,-2.46819 0.82923,-2.505 0.98623,-2.41576 0.98133,-2.3595 1.05353,-2.39028 1.15704,-2.30833 1.25672,-2.28876 1.26926,-2.24255 1.38845,-2.251 1.42342,-2.12444 1.53094,-2.17743 1.55418,-2.0609 1.62403,-2.02153 1.72125,-1.92665 1.70989,-1.89496 1.82219,-1.93063 1.9079,-1.76437 1.9003,-1.7045 1.9772,-1.70401 2.07156,-1.59867 2.02337,-1.53546 2.1908,-1.56289 2.17853,-1.39647 2.2289,-1.29664 2.2195,-1.30527 2.33342,-1.23881 2.29604,-1.11319 2.37991,-1.04695 2.38132,-0.98444 2.45516,-0.94791 2.49625,-0.83502 2.47613,-0.70129 2.52291,-0.66306 2.47556,-0.62694 2.60192,-0.49859 2.54854,-0.45091 2.53616,-0.31382 2.59076,-0.30409 2.59647,-0.23651 2.58256,-0.0659 2.62232,-0.0319 2.63881,0.0744 2.57261,0.1206 2.59035,0.17714 2.57492,0.30851 2.59803,0.36389 2.50573,0.4812 2.60092,0.53782 2.52193,0.61181 2.49486,0.69856 2.4341,0.77468 2.4863,0.83107 2.4162,0.9318 2.41119,1.03041 2.32638,1.09112 2.32001,1.10982 2.35698,1.24413 2.23522,1.30319 2.2012,1.35934 z"
       inkscape:randomized="0.0005"
       inkscape:rounded="0"
       inkscape:flatsided="true"
       sodipodi:arg2="-0.95391287"
       sodipodi:arg1="-0.96962083"
       sodipodi:r2="82.706734"
       sodipodi:r1="82.716934"
       sodipodi:cy="359.86218"
       sodipodi:cx="336.42856"
       sodipodi:sides="200"
       id="path7820"
       style="fill:none;stroke:#000000;stroke-width:0.94782964;stroke-linecap:round;stroke-linejoin:bevel;stroke-miterlimit:4;stroke-opacity:1;stroke-dasharray:none;stroke-dashoffset:0"
       sodipodi:type="star" />
    <path
       inkscape:connector-curvature="0"
       id="path9868"
       d="m 334.75256,355.0455 0,-135.0099"
       style="fill:none;stroke:#000000;stroke-width:0.65526056px;stroke-linecap:butt;stroke-linejoin:miter;stroke-opacity:1;marker-end:url(#Arrow2Lend-2)" />
    <g
       id="g10071"
       transform="matrix(0.26280965,-0.30191856,0.24662997,0.44395701,84.469048,467.99579)"
       style="fill:#00ff00;fill-opacity:1">
      <g
         word-spacing="normal"
         letter-spacing="normal"
         font-size-adjust="none"
         font-stretch="normal"
         font-weight="normal"
         font-variant="normal"
         font-style="normal"
         stroke-miterlimit="10.433"
         xml:space="preserve"
         transform="matrix(1.0629921,0,0,-1.0629921,-186.02362,789.27165)"
         id="content"
         style="font-style:normal;font-variant:normal;font-weight:normal;font-stretch:normal;letter-spacing:normal;word-spacing:normal;text-anchor:start;fill:#00ff00;fill-opacity:1;stroke:#000000;stroke-linecap:butt;stroke-linejoin:miter;stroke-miterlimit:10.43299961;stroke-opacity:1;stroke-dasharray:none;stroke-dashoffset:0"><path
           id="path10074"
           d="m 474.53,422.24 0.02,0.02 0.02,0.02 0.02,0.03 0.02,0.02 0.02,0.02 0.02,0.02 0.01,0.02 0.02,0.02 0.02,0.02 0.01,0.02 0.03,0.04 0.03,0.04 0.02,0.03 0.02,0.03 0.02,0.03 0.02,0.04 0.02,0.02 0.02,0.03 0.01,0.03 0.01,0.02 0.01,0.03 0.01,0.02 0.01,0.02 0.01,0.02 0.01,0.02 0,0.02 0.01,0.02 0,0.01 0,0.02 0.01,0.01 0,0.02 0,0.01 0,0.01 0,0.01 0,0.02 0,0.01 0,0.01 c 0,0.25 -0.2,0.5 -0.35,0.69 l -10.21,14.75 h 11.51 c 8.41,0 10.91,-1.8 11.95,-9.67 h 1.25 l -1.4,11.21 h -27.64 c -1.2,0 -1.3,0 -1.3,-1.14 l 12.4,-18.04 -11.85,-13.5 c -0.5,-0.54 -0.5,-0.64 -0.5,-0.79 0,-0.55 0.5,-0.55 1.25,-0.55 h 27.64 l 1.4,11.76 h -1.25 c -0.9,-8.32 -4.28,-9.67 -12.1,-9.67 h -13.75 z"
           inkscape:connector-curvature="0"
           style="fill:#00ff00;fill-opacity:1;stroke-width:0" /><path
           id="path10076"
           d="m 500.68,402.7 -0.03,-0.12 -0.04,-0.11 -0.05,-0.12 -0.04,-0.13 -0.06,-0.12 -0.06,-0.13 -0.06,-0.12 -0.07,-0.13 -0.07,-0.13 -0.07,-0.13 -0.08,-0.13 -0.09,-0.12 -0.09,-0.13 -0.09,-0.12 -0.1,-0.12 -0.1,-0.12 -0.11,-0.12 -0.11,-0.11 -0.11,-0.1 -0.12,-0.1 -0.12,-0.1 -0.13,-0.09 -0.13,-0.08 -0.13,-0.08 -0.14,-0.07 -0.14,-0.06 -0.15,-0.05 -0.15,-0.05 -0.15,-0.03 -0.16,-0.03 -0.16,-0.02 -0.16,0 c -0.11,0 -1.16,0 -1.89,0.49 1.43,0.45 1.53,1.7 1.53,1.92 0,0.76 -0.59,1.28 -1.39,1.28 -0.98,0 -1.99,-0.83 -1.99,-2.12 0,-1.75 1.96,-2.55 3.67,-2.55 1.6,0 3.03,1.01 3.9,2.48 0.84,-1.85 2.76,-2.48 4.15,-2.48 4.01,0 6.14,4.36 6.14,5.33 0,0.46 -0.46,0.46 -0.56,0.46 -0.49,0 -0.52,-0.17 -0.67,-0.59 -0.73,-2.41 -2.82,-4.22 -4.77,-4.22 -1.4,0 -2.13,0.94 -2.13,2.26 0,0.91 0.84,4.08 1.81,7.95 0.7,2.69 2.27,3.56 3.42,3.56 0.07,0 1.16,0 1.89,-0.49 -1.12,-0.31 -1.54,-1.29 -1.54,-1.91 0,-0.77 0.59,-1.3 1.4,-1.3 0.8,0 1.95,0.67 1.95,2.13 0,1.96 -2.23,2.55 -3.63,2.55 -1.74,0 -3.14,-1.15 -3.9,-2.48 -0.63,1.43 -2.23,2.48 -4.19,2.48 -3.9,0 -6.13,-4.29 -6.13,-5.34 0,-0.45 0.48,-0.45 0.59,-0.45 0.45,0 0.49,0.14 0.66,0.59 0.87,2.72 3.07,4.22 4.78,4.22 1.15,0 2.09,-0.63 2.09,-2.3 0,-0.7 -0.42,-2.44 -0.73,-3.63 z"
           inkscape:connector-curvature="0"
           style="fill:#00ff00;fill-opacity:1;stroke-width:0" /><path
           id="path10078"
           d="m 517.49,391.09 -0.02,-0.06 -0.01,-0.06 -0.02,-0.05 -0.01,-0.05 -0.02,-0.05 -0.01,-0.05 -0.02,-0.04 -0.01,-0.04 -0.02,-0.04 -0.02,-0.04 -0.02,-0.03 -0.02,-0.03 -0.02,-0.03 -0.03,-0.03 -0.03,-0.02 -0.03,-0.03 -0.03,-0.02 -0.04,-0.02 -0.04,-0.01 -0.04,-0.02 -0.04,-0.01 -0.05,-0.02 -0.06,-0.01 -0.03,0 -0.03,-0.01 -0.03,0 -0.03,-0.01 -0.03,0 -0.04,0 -0.03,-0.01 -0.04,0 -0.04,0 -0.04,0 -0.04,-0.01 -0.04,0 -0.05,0 -0.04,0 -0.05,0 -0.05,0 -0.05,0 -0.05,0 c -0.38,0 -0.8,0 -0.8,-0.7 0,-0.27 0.22,-0.42 0.4,-0.42 0.37,0 0.82,0.07 1.22,0.07 h 2.71 c 0.43,0 0.95,-0.07 1.37,-0.07 0.33,0 0.63,0.17 0.63,0.7 0,0.42 -0.43,0.42 -0.77,0.42 -0.83,0 -1.38,0 -1.38,0.3 0,0.15 0.4,1.67 1.15,4.63 0.62,-0.84 1.62,-1.49 2.99,-1.49 v 0.84 c -2.07,0 -2.59,2.02 -2.59,2.22 0,0.12 0.05,0.27 0.07,0.4 l 1.07,4.23 c 0.1,0.4 0.13,0.45 0.55,0.95 1,1.09 2.27,1.79 3.46,1.79 1.02,0 2.2,-0.64 2.2,-2.54 0,-1.09 -0.58,-3.49 -1.27,-4.68 -1.05,-1.82 -2.54,-2.37 -3.49,-2.37 v -0.84 c 3.51,0 7,3.43 7,6.95 0,2.48 -1.82,4.33 -4.36,4.33 -1.94,0 -3.46,-1.27 -3.96,-1.74 -0.5,1.34 -1.99,1.74 -2.92,1.74 -0.84,0 -1.59,-0.4 -2.21,-1.37 -0.65,-1.05 -0.97,-2.34 -0.97,-2.47 0,-0.37 0.37,-0.37 0.52,-0.37 0.43,0 0.47,0.13 0.57,0.52 0.28,1 0.8,2.84 1.97,2.84 0.87,0 1.02,-0.82 1.02,-1.32 0,-0.35 -0.02,-0.45 -0.07,-0.64 z"
           inkscape:connector-curvature="0"
           style="fill:#00ff00;fill-opacity:1;stroke-width:0" /></g>    </g>
    <path
       sodipodi:type="star"
       style="fill:#000000;fill-opacity:1;stroke:none"
       id="path10252"
       sodipodi:sides="200"
       sodipodi:cx="241.17392"
       sodipodi:cy="410.28397"
       sodipodi:r1="3.5377879"
       sodipodi:r2="3.5373516"
       sodipodi:arg1="0.96299433"
       sodipodi:arg2="0.97870229"
       inkscape:flatsided="true"
       inkscape:rounded="0"
       inkscape:randomized="0.0005"
       d="m 243.19364,413.18773 -0.0904,0.0633 -0.0943,0.0571 -0.0986,0.0575 -0.095,0.0525 -0.099,0.0504 -0.10089,0.0464 -0.10409,0.0423 -0.10402,0.041 -0.10208,0.0365 -0.1087,0.0342 -0.10459,0.0309 -0.1094,0.0269 -0.10668,0.0252 -0.10914,0.0205 -0.11167,0.0174 -0.1088,0.0111 -0.1129,0.0111 -0.11102,0.006 -0.10976,0.005 -0.10981,-0.004 -0.11307,-0.003 -0.11114,-0.008 -0.10907,-0.009 -0.11221,-0.0147 -0.10797,-0.0177 -0.10894,-0.0212 -0.10998,-0.0257 -0.10541,-0.0259 -0.10783,-0.032 -0.10464,-0.0375 -0.10435,-0.0381 -0.10381,-0.0413 -0.10014,-0.0447 -0.10024,-0.0475 -0.0999,-0.0508 -0.0963,-0.0534 -0.0981,-0.0576 -0.0937,-0.0588 -0.0912,-0.0619 -0.0872,-0.0674 -0.0901,-0.0681 -0.0855,-0.071 -0.0811,-0.0751 -0.0817,-0.0767 -0.0771,-0.0776 -0.0758,-0.0833 -0.0722,-0.0814 -0.0731,-0.0884 -0.0659,-0.0871 -0.066,-0.0883 -0.0628,-0.0952 -0.0591,-0.0914 -0.0557,-0.0977 -0.0517,-0.0953 -0.0516,-0.10057 -0.046,-0.10233 -0.0441,-0.10126 -0.0401,-0.10383 -0.0377,-0.10483 -0.0322,-0.10621 -0.0297,-0.10722 -0.0277,-0.1081 -0.025,-0.10617 -0.0196,-0.10986 -0.0168,-0.11174 -0.0127,-0.10692 -0.0118,-0.11327 -0.004,-0.11027 -0.004,-0.11003 7.3e-4,-0.11029 0.005,-0.11431 0.005,-0.11048 0.01,-0.10815 0.0175,-0.11238 0.0164,-0.10928 0.0222,-0.11005 0.0228,-0.10663 0.0289,-0.10756 0.0309,-0.10689 0.037,-0.10398 0.0354,-0.10616 0.0449,-0.10313 0.0418,-0.10185 0.0491,-0.0987 0.0508,-0.0998 0.0529,-0.0986 0.0568,-0.0947 0.0602,-0.0926 0.0639,-0.0933 0.0671,-0.088 0.0671,-0.0884 0.0702,-0.086 0.0755,-0.0819 0.0765,-0.0796 0.0796,-0.0788 0.0789,-0.0758 0.0837,-0.0722 0.0882,-0.0725 0.0891,-0.0669 0.0896,-0.0652 0.092,-0.061 0.0929,-0.0579 0.0965,-0.0568 0.0972,-0.0528 0.0988,-0.0525 0.10248,-0.0445 0.1025,-0.0438 0.10067,-0.0398 0.10649,-0.0403 0.10692,-0.0338 0.10459,-0.0277 0.10746,-0.0281 0.11021,-0.0255 0.10755,-0.0186 0.11168,-0.0178 0.11039,-0.012 0.10936,-0.0119 0.11296,-0.004 0.10977,-0.005 0.11139,0.002 0.10973,0.005 0.1129,0.008 0.10926,0.008 0.1122,0.0147 0.10975,0.0181 0.10716,0.024 0.10998,0.0229 0.10681,0.0294 0.10783,0.0323 0.10324,0.0334 0.10507,0.0368 0.10167,0.0416 0.10208,0.0464 0.10185,0.0461 0.0985,0.0501 0.0965,0.055 0.0958,0.0563 0.0921,0.0604 0.0914,0.0631 0.0924,0.0662 0.0847,0.0685 0.0875,0.0723 0.0828,0.0751 0.0815,0.0752 0.0787,0.0794 0.0758,0.0793 0.071,0.0831 0.0692,0.0887 0.0694,0.0871 0.066,0.0914 0.0593,0.092 0.0593,0.0926 0.0591,0.0965 0.0498,0.0976 0.0516,0.0998 0.0479,0.10042 0.0441,0.10166 0.0384,0.10422 0.0361,0.10567 0.0372,0.10334 0.0281,0.10847 0.0293,0.10685 0.0237,0.10793 0.0172,0.11173 0.0169,0.10935 0.0145,0.11046 0.0118,0.10974 0.004,0.11066 0.004,0.11002 -5.3e-4,0.11193 -0.005,0.11038 -0.005,0.11316 -0.0133,0.10909 -0.0122,0.10955 -0.0184,0.11079 -0.0222,0.11043 -0.0246,0.10634 -0.027,0.1091 -0.0329,0.10487 -0.0352,0.10751 -0.0373,0.10493 -0.0413,0.10313 -0.0467,0.10165 -0.0457,0.10054 -0.0528,0.0986 -0.0529,0.0947 -0.0568,0.0947 -0.0602,0.0962 -0.0639,0.0902 -0.0636,0.0907 -0.0704,0.0869 -0.0704,0.0844 -0.0736,0.0831 -0.0765,0.0799 -0.078,0.0807 -0.0824,0.0754 -0.0853,0.0707 -0.083,0.0705 -0.0905,0.0705 z"
       inkscape:transform-center-x="-0.00014257758"
       inkscape:transform-center-y="0.00016748919"
       transform="matrix(0.55399498,0,0,0.55399498,107.56554,182.89414)" />
    <g
       style="fill:#ff0000;fill-opacity:1"
       id="g10377"
       transform="matrix(0.34233652,0,0,0.34233652,355.05266,209.1526)">
      <g
         word-spacing="normal"
         letter-spacing="normal"
         font-size-adjust="none"
         font-stretch="normal"
         font-weight="normal"
         font-variant="normal"
         font-style="normal"
         stroke-miterlimit="10.433"
         xml:space="preserve"
         transform="matrix(1.0629921,0,0,-1.0629921,-186.02362,789.27165)"
         id="g10379"
         style="font-style:normal;font-variant:normal;font-weight:normal;font-stretch:normal;letter-spacing:normal;word-spacing:normal;text-anchor:start;fill:#ff0000;fill-opacity:1;stroke:#000000;stroke-linecap:butt;stroke-linejoin:miter;stroke-miterlimit:10.43299961;stroke-opacity:1;stroke-dasharray:none;stroke-dashoffset:0"><path
           id="path10381"
           d="m 483.6,439.87 h -25.96 v -1.54 h 1.2 c 3.84,0 3.93,-0.55 3.93,-2.34 v -26.1 c 0,-1.8 -0.09,-2.35 -3.93,-2.35 h -1.2 V 406 h 15.95 v 1.54 h -1.65 c -4.73,0 -4.73,0.65 -4.73,2.39 v 26.41 c 0,1.64 0.1,1.99 2.44,1.99 h 5.13 c 7.12,0 8.17,-2.94 8.97,-9.67 h 1.24 z"
           inkscape:connector-curvature="0"
           style="fill:#ff0000;fill-opacity:1;stroke-width:0" /><path
           id="path10383"
           d="m 495.68,402.7 -0.03,-0.12 -0.04,-0.11 -0.05,-0.12 -0.04,-0.13 -0.06,-0.12 -0.06,-0.13 -0.06,-0.12 -0.07,-0.13 -0.07,-0.13 -0.07,-0.13 -0.08,-0.13 -0.09,-0.12 -0.09,-0.13 -0.09,-0.12 -0.1,-0.12 -0.1,-0.12 -0.11,-0.12 -0.11,-0.11 -0.11,-0.1 -0.12,-0.1 -0.12,-0.1 -0.13,-0.09 -0.13,-0.08 -0.13,-0.08 -0.14,-0.07 -0.14,-0.06 -0.15,-0.05 -0.15,-0.05 -0.15,-0.03 -0.16,-0.03 -0.16,-0.02 -0.16,0 c -0.11,0 -1.16,0 -1.89,0.49 1.43,0.45 1.53,1.7 1.53,1.92 0,0.76 -0.59,1.28 -1.39,1.28 -0.98,0 -1.99,-0.83 -1.99,-2.12 0,-1.75 1.96,-2.55 3.67,-2.55 1.6,0 3.03,1.01 3.9,2.48 0.84,-1.85 2.76,-2.48 4.15,-2.48 4.01,0 6.14,4.36 6.14,5.33 0,0.46 -0.46,0.46 -0.56,0.46 -0.49,0 -0.52,-0.17 -0.67,-0.59 -0.73,-2.41 -2.82,-4.22 -4.77,-4.22 -1.4,0 -2.13,0.94 -2.13,2.26 0,0.91 0.84,4.08 1.81,7.95 0.7,2.69 2.27,3.56 3.42,3.56 0.07,0 1.16,0 1.89,-0.49 -1.12,-0.31 -1.54,-1.29 -1.54,-1.91 0,-0.77 0.59,-1.3 1.4,-1.3 0.8,0 1.95,0.67 1.95,2.13 0,1.96 -2.23,2.55 -3.63,2.55 -1.74,0 -3.14,-1.15 -3.9,-2.48 -0.63,1.43 -2.23,2.48 -4.19,2.48 -3.9,0 -6.13,-4.29 -6.13,-5.34 0,-0.45 0.48,-0.45 0.59,-0.45 0.45,0 0.49,0.14 0.66,0.59 0.87,2.72 3.07,4.22 4.78,4.22 1.15,0 2.09,-0.63 2.09,-2.3 0,-0.7 -0.42,-2.44 -0.73,-3.63 z"
           inkscape:connector-curvature="0"
           style="fill:#ff0000;fill-opacity:1;stroke-width:0" /></g>    </g>
    <path
       inkscape:transform-center-y="-0.00011080484"
       inkscape:transform-center-x="-0.00039026914"
       d="m 264.34435,409.90545 -0.0577,0.0163 -0.0583,0.0164 -0.0587,0.0125 -0.0591,0.0104 -0.0595,0.01 -0.0599,0.008 -0.06,0.006 -0.0602,0.004 -0.0604,0.003 -0.0593,1.5e-4 -0.0603,-0.003 -0.0603,-0.002 -0.0601,-0.006 -0.06,-0.007 -0.0596,-0.0106 -0.0591,-0.0109 -0.0588,-0.0121 -0.0584,-0.0161 -0.0578,-0.0158 -0.0571,-0.0192 -0.0565,-0.019 -0.0558,-0.0234 -0.0567,-0.023 -0.0541,-0.0256 -0.054,-0.0274 -0.0521,-0.0293 -0.0512,-0.0294 -0.0519,-0.0334 -0.049,-0.0336 -0.0505,-0.0345 -0.0463,-0.0376 -0.0471,-0.0374 -0.0456,-0.0392 -0.0432,-0.0412 -0.0428,-0.043 -0.0412,-0.0438 -0.0406,-0.0446 -0.0381,-0.0469 -0.0366,-0.0476 -0.0356,-0.0492 -0.035,-0.0488 -0.0322,-0.0511 -0.0296,-0.0506 -0.0304,-0.0537 -0.026,-0.0536 -0.0268,-0.0534 -0.0248,-0.0565 -0.0219,-0.0554 -0.021,-0.0574 -0.0171,-0.0562 -0.0179,-0.0591 -0.0148,-0.0569 -0.0129,-0.0588 -0.0109,-0.0589 -0.0106,-0.0609 -0.008,-0.0583 -0.006,-0.0599 -0.002,-0.06 -0.002,-0.0603 -1.5e-4,-0.0602 0.002,-0.0618 0.002,-0.0589 0.006,-0.0596 0.007,-0.0607 0.0103,-0.0585 0.0105,-0.0602 0.0125,-0.0579 0.0146,-0.0595 0.0178,-0.0572 0.0185,-0.0573 0.0206,-0.056 0.0218,-0.0571 0.0225,-0.0556 0.0265,-0.0536 0.0275,-0.054 0.0283,-0.0528 0.0312,-0.051 0.0319,-0.0526 0.0328,-0.0487 0.0354,-0.0493 0.0362,-0.0474 0.0398,-0.046 0.0384,-0.0462 0.0411,-0.044 0.0426,-0.0428 0.0447,-0.0405 0.0455,-0.0404 0.0449,-0.0385 0.0471,-0.0379 0.0493,-0.0352 0.0507,-0.0343 0.0498,-0.0324 0.0529,-0.0294 0.0509,-0.0296 0.055,-0.0285 0.0539,-0.0246 0.0549,-0.0244 0.0556,-0.0224 0.0563,-0.0204 0.0589,-0.0188 0.0578,-0.0171 0.0581,-0.0145 0.0587,-0.0146 0.0592,-0.011 0.0596,-0.009 0.0587,-0.009 0.06,-0.004 0.0603,-0.005 0.0604,-0.003 0.0603,7.3e-4 0.0604,0.002 0.0601,0.003 0.0602,0.007 0.0599,0.006 0.0577,0.0104 0.0593,0.0106 0.0588,0.0143 0.0583,0.0135 0.0597,0.0177 0.0571,0.0189 0.0565,0.0191 0.0557,0.0228 0.0558,0.0226 0.054,0.0253 0.0532,0.0288 0.0541,0.0285 0.0511,0.0302 0.05,0.0317 0.0516,0.0336 0.0478,0.0364 0.0484,0.0362 0.0451,0.0388 0.0457,0.0399 0.045,0.0403 0.0429,0.0432 0.0413,0.0425 0.0386,0.0454 0.0381,0.047 0.0373,0.0477 0.0367,0.0482 0.0332,0.0497 0.0322,0.0511 0.0315,0.0505 0.0285,0.0539 0.0287,0.0539 0.0259,0.0539 0.0229,0.0546 0.0221,0.0553 0.0209,0.0582 0.0189,0.0575 0.0169,0.0563 0.016,0.0588 0.0128,0.0596 0.0109,0.0591 0.009,0.0579 0.009,0.061 0.006,0.0599 0.004,0.0599 0.002,0.0605 1.5e-4,0.0587 -0.002,0.0605 -0.004,0.0598 -0.005,0.0606 -0.008,0.0606 -0.008,0.0585 -0.0106,0.0594 -0.0143,0.0588 -0.0146,0.0593 -0.0157,0.0562 -0.0187,0.0577 -0.0206,0.0579 -0.0216,0.0553 -0.0247,0.0555 -0.0256,0.0549 -0.0264,0.0536 -0.0283,0.0529 -0.0312,0.0508 -0.0319,0.0508 -0.0348,0.0508 -0.0346,0.0494 -0.0371,0.0462 -0.0378,0.0468 -0.0404,0.0455 -0.0411,0.0438 -0.0424,0.0425 -0.043,0.0429 -0.0454,0.0392 -0.0469,0.0379 -0.0462,0.0376 -0.0503,0.0351 -0.0487,0.0336 -0.0518,0.0323 -0.051,0.0325 -0.052,0.0285 -0.055,0.0265 -0.0528,0.0256 -0.0567,0.0252 -0.0555,0.0216 -0.0564,0.0211 z"
       inkscape:randomized="0.0005"
       inkscape:rounded="0"
       inkscape:flatsided="true"
       sodipodi:arg2="1.2855841"
       sodipodi:arg1="1.2698761"
       sodipodi:r2="1.9168091"
       sodipodi:r1="1.9170456"
       sodipodi:cy="408.07426"
       sodipodi:cx="263.77608"
       sodipodi:sides="200"
       id="path10550"
       style="fill:#ff0000;fill-opacity:1;stroke:none"
       sodipodi:type="star" />
    <path
       inkscape:transform-center-y="0.00026501761"
       inkscape:transform-center-x="-0.00037989211"
       d="m 250.64463,427.01483 -0.0557,0.039 -0.0549,0.0375 -0.0563,0.0335 -0.0575,0.0347 -0.0585,0.032 -0.0597,0.0303 -0.0607,0.0267 -0.0617,0.0274 -0.0603,0.0233 -0.0634,0.0227 -0.0641,0.0202 -0.0647,0.0182 -0.0633,0.0152 -0.0658,0.0139 -0.0665,0.0115 -0.0647,0.0111 -0.0671,0.009 -0.0652,0.006 -0.0676,0.002 -0.0654,0.003 -0.0675,2.2e-4 -0.0654,-0.003 -0.0675,-0.006 -0.0672,-0.006 -0.0649,-0.0102 -0.0666,-0.0102 -0.064,-0.0125 -0.0649,-0.0146 -0.0651,-0.0167 -0.0644,-0.0201 -0.0638,-0.0208 -0.0609,-0.024 -0.0622,-0.0238 -0.0613,-0.0277 -0.0602,-0.0288 -0.058,-0.0309 -0.0602,-0.0312 -0.057,-0.0355 -0.0556,-0.0352 -0.0544,-0.037 -0.053,-0.0393 -0.0538,-0.0416 -0.05,-0.0425 -0.0495,-0.045 -0.0491,-0.0469 -0.0474,-0.0465 -0.0436,-0.0488 -0.045,-0.0504 -0.0422,-0.0514 -0.0402,-0.0543 -0.0395,-0.0527 -0.0365,-0.0564 -0.0354,-0.0569 -0.0326,-0.0564 -0.0314,-0.058 -0.0306,-0.0613 -0.0273,-0.0595 -0.0262,-0.0607 -0.025,-0.0626 -0.022,-0.0643 -0.0205,-0.0619 -0.0183,-0.0637 -0.016,-0.066 -0.0129,-0.0641 -0.0136,-0.0672 -0.009,-0.0658 -0.009,-0.0644 -0.005,-0.0666 -0.004,-0.0671 -0.002,-0.0662 4.4e-4,-0.0666 0.003,-0.0677 0.003,-0.067 0.007,-0.0663 0.01,-0.0646 0.0101,-0.0663 0.0124,-0.0661 0.0158,-0.0648 0.017,-0.0642 0.0192,-0.0645 0.0207,-0.0633 0.0236,-0.0612 0.0239,-0.0627 0.0271,-0.0599 0.0281,-0.0597 0.0313,-0.0601 0.0322,-0.0579 0.0334,-0.0566 0.0363,-0.0574 0.0394,-0.0552 0.0392,-0.0518 0.0401,-0.0543 0.0428,-0.0511 0.0448,-0.0491 0.0453,-0.0478 0.0481,-0.048 0.0499,-0.0452 0.0491,-0.0434 0.0529,-0.0426 0.051,-0.0396 0.0558,-0.0396 0.0548,-0.0366 0.0563,-0.0357 0.0573,-0.0334 0.0586,-0.031 0.0597,-0.0303 0.0607,-0.0268 0.0617,-0.0273 0.0625,-0.0233 0.0613,-0.0227 0.0641,-0.0205 0.0647,-0.018 0.0633,-0.0155 0.0658,-0.0139 0.0663,-0.0125 0.0648,-0.0101 0.0671,-0.009 0.0652,-0.006 0.0675,-0.003 0.0676,-0.002 0.0654,-2.2e-4 0.0675,0.003 0.0654,0.004 0.0663,0.008 0.067,0.008 0.0644,0.01 0.0662,0.0127 0.0657,0.0148 0.0631,0.0175 0.0644,0.0204 0.0638,0.0205 0.0609,0.0222 0.0622,0.0255 0.0613,0.0261 0.0601,0.0297 0.0593,0.0309 0.0582,0.0322 0.0569,0.0345 0.0565,0.0361 0.0545,0.0382 0.053,0.0393 0.0536,0.0416 0.0503,0.0426 0.0506,0.0428 0.048,0.0478 0.0475,0.0465 0.0457,0.0488 0.0419,0.0495 0.043,0.0516 0.0405,0.0541 0.0393,0.0547 0.0366,0.0555 0.0346,0.0546 0.0334,0.0587 0.0325,0.0589 0.0294,0.0601 0.0284,0.0605 0.0272,0.0598 0.0229,0.0628 0.022,0.0619 0.0205,0.064 0.0183,0.0637 0.0151,0.066 0.0158,0.0643 0.0114,0.0651 0.009,0.0658 0.009,0.0663 0.007,0.068 0.003,0.0658 0.002,0.0674 -4.3e-4,0.0664 -0.004,0.0659 -0.003,0.0656 -0.007,0.0666 -0.008,0.0666 -0.0121,0.0652 -0.0125,0.0651 -0.0147,0.0658 -0.0181,0.0642 -0.0173,0.0647 -0.0214,0.062 -0.0228,0.0635 -0.0259,0.0615 -0.0272,0.061 -0.0281,0.0597 -0.0315,0.0591 -0.0322,0.0597 -0.0333,0.0558 -0.0363,0.0574 -0.0374,0.054 -0.0401,0.0538 -0.0411,0.0524 -0.0429,0.0517 -0.0436,0.0484 -0.0465,0.0488 -0.0481,0.0459 -0.0476,0.0462 -0.0515,0.0438 -0.0517,0.0425 z"
       inkscape:randomized="0.0005"
       inkscape:rounded="0"
       inkscape:flatsided="true"
       sodipodi:arg2="0.94895549"
       sodipodi:arg1="0.93324753"
       sodipodi:r2="2.1210962"
       sodipodi:r1="2.1213579"
       sodipodi:cy="425.30999"
       sodipodi:cx="249.38141"
       sodipodi:sides="200"
       id="path10552"
       style="fill:#ff0000;fill-opacity:1;stroke:none"
       sodipodi:type="star" />
    <g
       id="g10611"
       transform="matrix(0.27832566,0,0,0.27832566,289.0487,325.59973)">
      <g
         word-spacing="normal"
         letter-spacing="normal"
         font-size-adjust="none"
         font-stretch="normal"
         font-weight="normal"
         font-variant="normal"
         font-style="normal"
         stroke-miterlimit="10.433"
         xml:space="preserve"
         transform="matrix(1.0629921,0,0,-1.0629921,-186.02362,789.27165)"
         id="g10613"
         style="font-style:normal;font-variant:normal;font-weight:normal;font-stretch:normal;letter-spacing:normal;word-spacing:normal;text-anchor:start;fill:none;stroke:#000000;stroke-linecap:butt;stroke-linejoin:miter;stroke-miterlimit:10.43299961;stroke-opacity:1;stroke-dasharray:none;stroke-dashoffset:0"><path
           id="path10615"
           d="m 483.6,439.87 h -25.96 v -1.54 h 1.2 c 3.84,0 3.93,-0.55 3.93,-2.34 v -26.1 c 0,-1.8 -0.09,-2.35 -3.93,-2.35 h -1.2 V 406 h 15.95 v 1.54 h -1.65 c -4.73,0 -4.73,0.65 -4.73,2.39 v 26.41 c 0,1.64 0.1,1.99 2.44,1.99 h 5.13 c 7.12,0 8.17,-2.94 8.97,-9.67 h 1.24 z"
           inkscape:connector-curvature="0"
           style="fill:#000000;stroke-width:0" /><path
           id="path10617"
           d="m 495.68,402.7 -0.03,-0.12 -0.04,-0.11 -0.05,-0.12 -0.04,-0.13 -0.06,-0.12 -0.06,-0.13 -0.06,-0.12 -0.07,-0.13 -0.07,-0.13 -0.07,-0.13 -0.08,-0.13 -0.09,-0.12 -0.09,-0.13 -0.09,-0.12 -0.1,-0.12 -0.1,-0.12 -0.11,-0.12 -0.11,-0.11 -0.11,-0.1 -0.12,-0.1 -0.12,-0.1 -0.13,-0.09 -0.13,-0.08 -0.13,-0.08 -0.14,-0.07 -0.14,-0.06 -0.15,-0.05 -0.15,-0.05 -0.15,-0.03 -0.16,-0.03 -0.16,-0.02 -0.16,0 c -0.11,0 -1.16,0 -1.89,0.49 1.43,0.45 1.53,1.7 1.53,1.92 0,0.76 -0.59,1.28 -1.39,1.28 -0.98,0 -1.99,-0.83 -1.99,-2.12 0,-1.75 1.96,-2.55 3.67,-2.55 1.6,0 3.03,1.01 3.9,2.48 0.84,-1.85 2.76,-2.48 4.15,-2.48 4.01,0 6.14,4.36 6.14,5.33 0,0.46 -0.46,0.46 -0.56,0.46 -0.49,0 -0.52,-0.17 -0.67,-0.59 -0.73,-2.41 -2.82,-4.22 -4.77,-4.22 -1.4,0 -2.13,0.94 -2.13,2.26 0,0.91 0.84,4.08 1.81,7.95 0.7,2.69 2.27,3.56 3.42,3.56 0.07,0 1.16,0 1.89,-0.49 -1.12,-0.31 -1.54,-1.29 -1.54,-1.91 0,-0.77 0.59,-1.3 1.4,-1.3 0.8,0 1.95,0.67 1.95,2.13 0,1.96 -2.23,2.55 -3.63,2.55 -1.74,0 -3.14,-1.15 -3.9,-2.48 -0.63,1.43 -2.23,2.48 -4.19,2.48 -3.9,0 -6.13,-4.29 -6.13,-5.34 0,-0.45 0.48,-0.45 0.59,-0.45 0.45,0 0.49,0.14 0.66,0.59 0.87,2.72 3.07,4.22 4.78,4.22 1.15,0 2.09,-0.63 2.09,-2.3 0,-0.7 -0.42,-2.44 -0.73,-3.63 z"
           inkscape:connector-curvature="0"
           style="fill:#000000;stroke-width:0" /><path
           id="path10619"
           d="m 512.49,391.09 -0.02,-0.06 -0.01,-0.06 -0.02,-0.05 -0.01,-0.05 -0.02,-0.05 -0.01,-0.05 -0.02,-0.04 -0.01,-0.04 -0.02,-0.04 -0.02,-0.04 -0.02,-0.03 -0.02,-0.03 -0.02,-0.03 -0.03,-0.03 -0.03,-0.02 -0.03,-0.03 -0.03,-0.02 -0.04,-0.02 -0.04,-0.01 -0.04,-0.02 -0.04,-0.01 -0.05,-0.02 -0.06,-0.01 -0.03,0 -0.03,-0.01 -0.03,0 -0.03,-0.01 -0.03,0 -0.04,0 -0.03,-0.01 -0.04,0 -0.04,0 -0.04,0 -0.04,-0.01 -0.04,0 -0.05,0 -0.04,0 -0.05,0 -0.05,0 -0.05,0 -0.05,0 c -0.38,0 -0.8,0 -0.8,-0.7 0,-0.27 0.22,-0.42 0.4,-0.42 0.37,0 0.82,0.07 1.22,0.07 h 2.71 c 0.43,0 0.95,-0.07 1.37,-0.07 0.33,0 0.63,0.17 0.63,0.7 0,0.42 -0.43,0.42 -0.77,0.42 -0.83,0 -1.38,0 -1.38,0.3 0,0.15 0.4,1.67 1.15,4.63 0.62,-0.84 1.62,-1.49 2.99,-1.49 v 0.84 c -2.07,0 -2.59,2.02 -2.59,2.22 0,0.12 0.05,0.27 0.07,0.4 l 1.07,4.23 c 0.1,0.4 0.13,0.45 0.55,0.95 1,1.09 2.27,1.79 3.46,1.79 1.02,0 2.2,-0.64 2.2,-2.54 0,-1.09 -0.58,-3.49 -1.27,-4.68 -1.05,-1.82 -2.54,-2.37 -3.49,-2.37 v -0.84 c 3.51,0 7,3.43 7,6.95 0,2.48 -1.82,4.33 -4.36,4.33 -1.94,0 -3.46,-1.27 -3.96,-1.74 -0.5,1.34 -1.99,1.74 -2.92,1.74 -0.84,0 -1.59,-0.4 -2.21,-1.37 -0.65,-1.05 -0.97,-2.34 -0.97,-2.47 0,-0.37 0.37,-0.37 0.52,-0.37 0.43,0 0.47,0.13 0.57,0.52 0.28,1 0.8,2.84 1.97,2.84 0.87,0 1.02,-0.82 1.02,-1.32 0,-0.35 -0.02,-0.45 -0.07,-0.64 z"
           inkscape:connector-curvature="0"
           style="fill:#000000;stroke-width:0" /></g>    </g>
    <path
       style="fill:none;stroke:#000000;stroke-width:1px;stroke-linecap:butt;stroke-linejoin:miter;stroke-opacity:1;marker-end:url(#Arrow2Lend-2)"
       d="m 366.88839,413.59133 4.9152,-2.1126"
       id="path10683"
       inkscape:connector-curvature="0" />
    <path
       style="fill:none;stroke:#000000;stroke-width:1px;stroke-linecap:butt;stroke-linejoin:miter;stroke-opacity:1;marker-end:url(#Arrow2Lend-2)"
       d="m 379.30823,280.74698 -3.13504,-0.0937"
       id="path10869"
       inkscape:connector-curvature="0" />
    <path
       style="fill:none;stroke:#000000;stroke-width:1px;stroke-linecap:butt;stroke-linejoin:miter;stroke-opacity:1;marker-end:url(#Arrow2Lend-2)"
       d="m 231.30773,356.02459 -1.0376,2.27649"
       id="path11055"
       inkscape:connector-curvature="0" />
    <path
       style="fill:none;stroke:#ff0000;stroke-width:1px;stroke-linecap:butt;stroke-linejoin:miter;stroke-opacity:1;marker-end:url(#Arrow2Lend-2)"
       d="m 297.62249,438.15329 2.18282,-3.41811"
       id="path11241"
       inkscape:connector-curvature="0" />
    <path
       style="fill:none;stroke:#ff0000;stroke-width:1px;stroke-linecap:butt;stroke-linejoin:miter;stroke-opacity:1;marker-end:url(#Arrow2Lend-2)"
       d="m 419.03421,399.32154 -3.01637,-2.20423"
       id="path11427"
       inkscape:connector-curvature="0" />
    <path
       style="fill:none;stroke:#ff0000;stroke-width:1px;stroke-linecap:butt;stroke-linejoin:miter;stroke-opacity:1;marker-end:url(#Arrow2Lend-2)"
       d="m 486.18675,283.70892 -4.00392,-0.93944"
       id="path11613"
       inkscape:connector-curvature="0" />
    <path
       style="fill:none;stroke:#ff0000;stroke-width:1px;stroke-linecap:butt;stroke-linejoin:miter;stroke-opacity:1;marker-end:url(#Arrow2Lend-2)"
       d="m 303.94617,306.62062 -2.45084,2.10023"
       id="path11799"
       inkscape:connector-curvature="0" />
    <path
       style="fill:none;stroke:#ff0000;stroke-width:1px;stroke-linecap:butt;stroke-linejoin:miter;stroke-opacity:1;marker-end:url(#Arrow2Lend-2)"
       d="m 268.37816,363.84227 -1.48203,1.64811"
       id="path11985"
       inkscape:connector-curvature="0" />
    <path
       style="fill:none;stroke:#ff0000;stroke-width:1px;stroke-linecap:butt;stroke-linejoin:miter;stroke-opacity:1;marker-start:none;marker-end:url(#Arrow2Lend-2)"
       d="m 242.33643,303.66654 4.38603,-1.78412"
       id="path12171"
       inkscape:connector-curvature="0" />
    <g
       id="g13780"
       transform="translate(622.98562,385.4945)"
       inkscape:label="WireframeSphere" />
    <g
       style="fill:#0000ff;fill-opacity:1"
       transform="matrix(0.27598497,0,0,0.27598497,230.51179,374.12638)"
       id="g10124">
      <g
         style="font-style:normal;font-variant:normal;font-weight:normal;font-stretch:normal;letter-spacing:normal;word-spacing:normal;text-anchor:start;fill:#0000ff;stroke:#000000;stroke-linecap:butt;stroke-linejoin:miter;stroke-miterlimit:10.43299961000000000;stroke-opacity:1;stroke-dasharray:none;stroke-dashoffset:0;fill-opacity:1"
         id="g10126"
         transform="matrix(1.0629921,0,0,-1.0629921,-186.02362,789.27165)"
         xml:space="preserve"
         stroke-miterlimit="10.433"
         font-style="normal"
         font-variant="normal"
         font-weight="normal"
         font-stretch="normal"
         font-size-adjust="none"
         letter-spacing="normal"
         word-spacing="normal"><path
           style="fill:#0000ff;stroke-width:0;fill-opacity:1"
           inkscape:connector-curvature="0"
           d="m 479.31,424.53 0,0.13 0,0.12 -0.01,0.12 0,0.11 -0.01,0.12 -0.01,0.11 -0.01,0.11 -0.01,0.1 -0.04,0.21 -0.03,0.19 -0.05,0.18 -0.04,0.18 -0.06,0.16 -0.06,0.16 -0.06,0.15 -0.06,0.13 -0.08,0.13 -0.07,0.12 -0.08,0.12 -0.08,0.1 -0.08,0.1 -0.09,0.09 -0.08,0.08 -0.09,0.07 -0.09,0.07 -0.09,0.06 -0.1,0.05 -0.09,0.05 -0.09,0.04 -0.09,0.03 -0.1,0.03 -0.09,0.03 -0.09,0.01 -0.09,0.02 -0.08,0 -0.09,0.01 c -1.24,0 -2.44,-1.3 -2.44,-2.39 0,-0.65 0.25,-0.95 0.8,-1.5 1.04,-0.99 1.69,-2.29 1.69,-4.08 0,-2.09 -3.04,-13.5 -8.87,-13.5 -2.54,0 -3.68,1.74 -3.68,4.33 0,2.79 1.34,6.43 2.89,10.56 0.35,0.85 0.6,1.54 0.6,2.49 0,2.25 -1.6,4.09 -4.09,4.09 -4.68,0 -6.57,-7.23 -6.57,-7.67 0,-0.5 0.49,-0.5 0.59,-0.5 0.5,0 0.55,0.1 0.8,0.9 1.45,5.03 3.59,6.17 5.03,6.17 0.4,0 1.25,0 1.25,-1.59 0,-1.25 -0.5,-2.59 -0.85,-3.49 -2.19,-5.78 -2.84,-8.07 -2.84,-10.21 0,-5.38 4.38,-6.18 6.68,-6.18 8.36,0 11.2,16.49 11.2,19.08 z"
           id="path10128" /><path
           style="fill:#0000ff;stroke-width:0;fill-opacity:1"
           inkscape:connector-curvature="0"
           d="m 497.49,394.04 0,0.03 0,0.03 -0.01,0.01 0,0.02 0,0.01 -0.01,0.02 0,0.02 -0.01,0.01 -0.01,0.02 -0.01,0.02 -0.01,0.03 -0.01,0.02 -0.02,0.02 -0.02,0.03 -0.02,0.03 -0.02,0.03 -0.03,0.03 -0.03,0.04 -0.01,0.02 -0.02,0.02 -0.02,0.02 -0.02,0.02 -0.02,0.02 -0.02,0.03 -0.02,0.02 -0.02,0.02 -0.02,0.03 -0.03,0.02 -0.02,0.03 -0.03,0.03 -0.02,0.03 -0.03,0.03 -0.03,0.03 -0.03,0.03 -0.03,0.03 -0.03,0.03 -0.04,0.04 -0.03,0.03 -0.04,0.04 -0.03,0.03 -0.04,0.04 -0.04,0.04 c -6.23,6.28 -7.82,15.69 -7.82,23.31 0,8.67 1.89,17.34 8.02,23.57 0.65,0.59 0.65,0.69 0.65,0.84 0,0.35 -0.2,0.5 -0.5,0.5 -0.5,0 -4.98,-3.39 -7.92,-9.72 -2.54,-5.47 -3.14,-11 -3.14,-15.19 0,-3.88 0.55,-9.91 3.29,-15.54 2.99,-6.12 7.27,-9.36 7.77,-9.36 0.3,0 0.5,0.15 0.5,0.49 z"
           id="path10130" /><path
           style="fill:#0000ff;stroke-width:0;fill-opacity:1"
           inkscape:connector-curvature="0"
           d="m 517.64,421.04 0.03,0.13 0.03,0.15 0.05,0.17 0.04,0.18 0.06,0.19 0.06,0.21 0.06,0.21 0.07,0.23 0.08,0.23 0.09,0.24 0.1,0.25 0.1,0.24 0.11,0.25 0.12,0.25 0.13,0.25 0.14,0.25 0.15,0.24 0.15,0.24 0.17,0.23 0.18,0.22 0.18,0.22 0.2,0.2 0.21,0.19 0.22,0.18 0.23,0.16 0.25,0.14 0.12,0.07 0.13,0.06 0.13,0.05 0.14,0.05 0.14,0.05 0.14,0.04 0.14,0.03 0.15,0.03 0.15,0.02 0.16,0.02 0.16,0.01 0.16,0 c 0.25,0 1.45,0 2.49,-0.65 -1.4,-0.25 -2.39,-1.49 -2.39,-2.68 0,-0.8 0.55,-1.75 1.89,-1.75 1.1,0 2.69,0.9 2.69,2.89 0,2.59 -2.94,3.29 -4.63,3.29 -2.89,0 -4.64,-2.64 -5.23,-3.79 -1.24,3.29 -3.94,3.79 -5.38,3.79 -5.18,0 -8.02,-6.43 -8.02,-7.67 0,-0.5 0.5,-0.5 0.6,-0.5 0.39,0 0.54,0.1 0.64,0.54 1.7,5.29 4.98,6.53 6.68,6.53 0.94,0 2.69,-0.45 2.69,-3.33 0,-1.55 -0.85,-4.89 -2.69,-11.86 -0.8,-3.09 -2.54,-5.18 -4.73,-5.18 -0.3,0 -1.45,0 -2.49,0.65 1.24,0.25 2.34,1.29 2.34,2.69 0,1.34 -1.1,1.74 -1.85,1.74 -1.49,0 -2.73,-1.3 -2.73,-2.89 0,-2.29 2.48,-3.29 4.68,-3.29 3.28,0 5.08,3.49 5.22,3.79 0.61,-1.85 2.4,-3.79 5.39,-3.79 5.13,0 7.97,6.43 7.97,7.68 0,0.49 -0.45,0.49 -0.6,0.49 -0.45,0 -0.55,-0.2 -0.65,-0.55 -1.64,-5.33 -5.03,-6.52 -6.62,-6.52 -1.94,0 -2.74,1.59 -2.74,3.29 0,1.09 0.3,2.19 0.85,4.38 z"
           id="path10132" /><path
           style="fill:#0000ff;stroke-width:0;fill-opacity:1"
           inkscape:connector-curvature="0"
           d="m 531.61,394.75 -0.02,-0.09 -0.02,-0.09 -0.02,-0.08 -0.02,-0.08 -0.02,-0.07 -0.02,-0.07 -0.03,-0.07 -0.02,-0.06 -0.02,-0.06 -0.03,-0.06 -0.03,-0.05 -0.03,-0.05 -0.03,-0.05 -0.03,-0.04 -0.04,-0.04 -0.04,-0.04 -0.04,-0.03 -0.05,-0.03 -0.05,-0.03 -0.05,-0.03 -0.06,-0.02 -0.07,-0.02 -0.07,-0.02 -0.07,-0.02 -0.08,-0.01 -0.05,-0.01 -0.04,-0.01 -0.04,0 -0.05,-0.01 -0.05,0 -0.05,0 -0.05,-0.01 -0.06,0 -0.05,0 -0.06,0 -0.06,-0.01 -0.06,0 -0.06,0 -0.06,0 c -0.46,0 -0.94,0 -0.94,-0.73 0,-0.38 0.31,-0.53 0.48,-0.53 h 6.66 c 0.32,0 0.7,0.11 0.7,0.77 0,0.49 -0.49,0.49 -0.91,0.49 -0.76,0 -1.7,0 -1.7,0.42 0,0.17 0.24,1.08 0.38,1.6 0.42,1.85 0.9,3.73 1.29,5.2 0.42,-0.7 1.5,-2.06 3.59,-2.06 v 0.98 c -2.48,0 -3.11,2.68 -3.11,3.03 0,0.14 0.08,0.38 0.11,0.52 l 1.75,7.01 c 2.02,2.69 3.76,3.21 4.88,3.21 1.36,0 2.54,-1.01 2.54,-3.38 0,-1.43 -0.76,-4.99 -1.81,-7.01 -0.87,-1.71 -2.58,-3.38 -4.36,-3.38 v -0.98 c 4.26,0 8.96,4.71 8.96,9.9 0,4.08 -2.82,5.83 -5.23,5.83 -2.16,0 -4.01,-1.47 -4.95,-2.44 -0.59,1.99 -2.54,2.44 -3.59,2.44 -1.36,0 -2.2,-0.91 -2.75,-1.85 -0.7,-1.19 -1.26,-3.28 -1.26,-3.49 0,-0.45 0.49,-0.45 0.59,-0.45 0.49,0 0.52,0.11 0.77,1.05 0.52,2.02 1.18,3.76 2.54,3.76 0.91,0 1.16,-0.77 1.16,-1.71 0,-0.38 -0.07,-0.83 -0.11,-1.05 z"
           id="path10134" /><path
           style="fill:#0000ff;stroke-width:0;fill-opacity:1"
           inkscape:connector-curvature="0"
           d="m 566.4,418.45 -0.01,0.37 0,0.39 -0.01,0.39 -0.01,0.41 -0.04,0.84 -0.06,0.88 -0.09,0.92 -0.1,0.94 -0.14,0.98 -0.16,1 -0.2,1.02 -0.23,1.04 -0.27,1.05 -0.3,1.06 -0.35,1.06 -0.39,1.07 -0.22,0.53 -0.22,0.54 -0.24,0.53 -0.25,0.53 c -2.99,6.12 -7.27,9.36 -7.77,9.36 -0.3,0 -0.5,-0.2 -0.5,-0.5 0,-0.15 0,-0.25 0.94,-1.15 4.89,-4.92 7.73,-12.85 7.73,-23.26 0,-8.52 -1.85,-17.28 -8.02,-23.56 -0.65,-0.6 -0.65,-0.69 -0.65,-0.85 0,-0.29 0.2,-0.49 0.5,-0.49 0.5,0 4.98,3.38 7.92,9.71 2.54,5.48 3.14,11.01 3.14,15.19 z"
           id="path10136" /><path
           style="fill:#0000ff;stroke-width:0;fill-opacity:1"
           inkscape:connector-curvature="0"
           d="m 620.22,422.29 0.14,0 0.15,0 0.15,0.01 0.07,0 0.07,0 0.07,0.01 0.08,0.01 0.07,0.01 0.07,0.01 0.06,0.02 0.07,0.01 0.07,0.02 0.06,0.02 0.06,0.03 0.06,0.03 0.05,0.03 0.06,0.03 0.05,0.04 0.04,0.04 0.05,0.05 0.03,0.05 0.02,0.03 0.02,0.02 0.02,0.03 0.01,0.03 0.02,0.03 0.01,0.04 0.01,0.03 0.01,0.04 0.01,0.03 0.01,0.04 0.01,0.04 0,0.04 0.01,0.04 0,0.04 0,0.05 0,0.05 c 0,0.99 -0.94,0.99 -1.64,0.99 h -29.84 c -0.7,0 -1.64,0 -1.64,-0.99 0,-1 0.94,-1 1.69,-1 z"
           id="path10138" /><path
           style="fill:#0000ff;stroke-width:0;fill-opacity:1"
           inkscape:connector-curvature="0"
           d="m 620.27,412.63 0.13,0 0.14,0 0.14,0 0.07,0.01 0.07,0 0.07,0.01 0.07,0.01 0.07,0.01 0.07,0.01 0.06,0.01 0.07,0.02 0.06,0.02 0.06,0.02 0.06,0.02 0.06,0.03 0.06,0.03 0.05,0.04 0.05,0.04 0.04,0.04 0.05,0.04 0.02,0.03 0.02,0.03 0.01,0.02 0.02,0.03 0.02,0.03 0.01,0.03 0.02,0.03 0.01,0.03 0.01,0.04 0.01,0.03 0.01,0.04 0.01,0.04 0.01,0.04 0,0.04 0.01,0.04 0,0.04 0,0.05 0,0.04 c 0,1 -0.94,1 -1.69,1 h -29.74 c -0.75,0 -1.69,0 -1.69,-1 0,-0.99 0.94,-0.99 1.64,-0.99 z"
           id="path10140" /><path
           style="fill:#0000ff;stroke-width:0;fill-opacity:1"
           inkscape:connector-curvature="0"
           d="m 642.38,408.94 -0.01,-0.07 -0.02,-0.08 -0.01,-0.07 -0.02,-0.08 -0.03,-0.16 -0.04,-0.16 -0.04,-0.16 -0.03,-0.16 -0.04,-0.16 -0.04,-0.16 -0.01,-0.08 -0.02,-0.07 -0.02,-0.07 -0.01,-0.07 -0.02,-0.07 -0.01,-0.07 -0.01,-0.06 -0.02,-0.06 -0.01,-0.05 -0.01,-0.06 -0.01,-0.05 0,-0.04 -0.01,-0.04 0,-0.04 -0.01,-0.03 0,-0.02 c 0,-0.9 0.7,-1.35 1.45,-1.35 0.6,0 1.5,0.4 1.84,1.4 0.05,0.1 0.65,2.44 0.95,3.68 l 1.1,4.49 c 0.29,1.09 0.59,2.19 0.84,3.34 0.2,0.84 0.6,2.28 0.65,2.48 0.75,1.55 3.39,6.08 8.12,6.08 2.24,0 2.69,-1.84 2.69,-3.49 0,-3.08 -2.44,-9.46 -3.24,-11.6 -0.45,-1.15 -0.5,-1.74 -0.5,-2.29 0,-2.34 1.75,-4.09 4.09,-4.09 4.68,0 6.52,7.28 6.52,7.68 0,0.49 -0.44,0.49 -0.6,0.49 -0.49,0 -0.49,-0.15 -0.74,-0.89 -1,-3.39 -2.64,-6.18 -5.08,-6.18 -0.85,0 -1.2,0.5 -1.2,1.64 0,1.25 0.45,2.44 0.9,3.54 0.94,2.64 3.04,8.12 3.04,10.96 0,3.33 -2.15,5.33 -5.73,5.33 -4.48,0 -6.93,-3.19 -7.77,-4.34 -0.25,2.79 -2.29,4.34 -4.58,4.34 -2.3,0 -3.24,-1.95 -3.74,-2.84 -0.8,-1.7 -1.49,-4.63 -1.49,-4.83 0,-0.5 0.49,-0.5 0.59,-0.5 0.5,0 0.55,0.05 0.85,1.14 0.84,3.54 1.84,5.93 3.64,5.93 0.99,0 1.54,-0.65 1.54,-2.29 0,-1.04 -0.15,-1.59 -0.8,-4.18 z"
           id="path10142" /></g>    </g>
    <g
       style="fill:#ff0000;fill-opacity:1"
       transform="matrix(0.54185334,0,0,0.54185334,87.437625,245.39025)"
       id="g10291">
      <g
         style="font-style:normal;font-variant:normal;font-weight:normal;font-stretch:normal;letter-spacing:normal;word-spacing:normal;text-anchor:start;fill:#ff0000;fill-opacity:1;stroke:#000000;stroke-linecap:butt;stroke-linejoin:miter;stroke-miterlimit:10.43299961;stroke-opacity:1;stroke-dasharray:none;stroke-dashoffset:0"
         id="g10293"
         transform="matrix(1.0629921,0,0,-1.0629921,-186.02362,789.27165)"
         xml:space="preserve"
         stroke-miterlimit="10.433"
         font-style="normal"
         font-variant="normal"
         font-weight="normal"
         font-stretch="normal"
         font-size-adjust="none"
         letter-spacing="normal"
         word-spacing="normal"><path
           style="fill:#ff0000;fill-opacity:1;stroke-width:0"
           inkscape:connector-curvature="0"
           d="m 472.64,421.04 0.03,0.13 0.03,0.15 0.05,0.17 0.04,0.18 0.06,0.19 0.06,0.21 0.06,0.21 0.07,0.23 0.08,0.23 0.09,0.24 0.1,0.25 0.1,0.24 0.11,0.25 0.12,0.25 0.13,0.25 0.14,0.25 0.15,0.24 0.15,0.24 0.17,0.23 0.18,0.22 0.18,0.22 0.2,0.2 0.21,0.19 0.22,0.18 0.23,0.16 0.25,0.14 0.12,0.07 0.13,0.06 0.13,0.05 0.14,0.05 0.14,0.05 0.14,0.04 0.14,0.03 0.15,0.03 0.15,0.02 0.16,0.02 0.16,0.01 0.16,0 c 0.25,0 1.45,0 2.49,-0.65 -1.4,-0.25 -2.39,-1.49 -2.39,-2.68 0,-0.8 0.54,-1.75 1.89,-1.75 1.1,0 2.69,0.9 2.69,2.89 0,2.59 -2.94,3.29 -4.63,3.29 -2.89,0 -4.64,-2.64 -5.23,-3.79 -1.25,3.29 -3.94,3.79 -5.38,3.79 -5.18,0 -8.02,-6.43 -8.02,-7.67 0,-0.5 0.5,-0.5 0.6,-0.5 0.39,0 0.54,0.1 0.64,0.54 1.7,5.29 4.98,6.53 6.68,6.53 0.95,0 2.69,-0.45 2.69,-3.33 0,-1.55 -0.85,-4.89 -2.69,-11.86 -0.8,-3.09 -2.54,-5.18 -4.73,-5.18 -0.3,0 -1.45,0 -2.49,0.65 1.24,0.25 2.34,1.29 2.34,2.69 0,1.34 -1.1,1.74 -1.85,1.74 -1.49,0 -2.73,-1.3 -2.73,-2.89 0,-2.29 2.48,-3.29 4.68,-3.29 3.28,0 5.08,3.49 5.23,3.79 0.6,-1.85 2.39,-3.79 5.38,-3.79 5.13,0 7.97,6.43 7.97,7.68 0,0.49 -0.45,0.49 -0.6,0.49 -0.45,0 -0.55,-0.2 -0.65,-0.55 -1.64,-5.33 -5.03,-6.52 -6.62,-6.52 -1.95,0 -2.74,1.59 -2.74,3.29 0,1.09 0.29,2.19 0.85,4.38 z"
           id="path10295" /></g>    </g>
    <g
       style="fill:#ff0000;fill-opacity:1"
       transform="matrix(0.37773169,0,0,0.37773169,148.35886,261.28363)"
       id="g10473">
      <g
         style="font-style:normal;font-variant:normal;font-weight:normal;font-stretch:normal;letter-spacing:normal;word-spacing:normal;text-anchor:start;fill:#ff0000;fill-opacity:1;stroke:#000000;stroke-linecap:butt;stroke-linejoin:miter;stroke-miterlimit:10.43299961;stroke-opacity:1;stroke-dasharray:none;stroke-dashoffset:0"
         id="g10475"
         transform="matrix(1.0629921,0,0,-1.0629921,-186.02362,789.27165)"
         xml:space="preserve"
         stroke-miterlimit="10.433"
         font-style="normal"
         font-variant="normal"
         font-weight="normal"
         font-stretch="normal"
         font-size-adjust="none"
         letter-spacing="normal"
         word-spacing="normal"><path
           style="fill:#ff0000;fill-opacity:1;stroke-width:0"
           inkscape:connector-curvature="0"
           d="m 477.77,439.38 0,0 0,0.01 0,0 0,0.01 0,0.01 0,0 0,0.01 0.01,0.01 0,0.02 0,0.02 0.01,0.02 0,0.03 0.01,0.02 0,0.03 0.01,0.03 0.01,0.03 0,0.02 0.01,0.03 0.01,0.06 0.02,0.06 0,0.03 0.01,0.03 0.01,0.02 0,0.03 0.01,0.02 0,0.03 0.01,0.02 0,0.02 0.01,0.01 0,0 0,0.01 0,0.01 0,0.01 0,0 0.01,0.01 0,0.01 0,0 0,0 0,0.01 0,0 c 0,0.05 0,0.5 -0.6,0.5 -0.5,0 -0.55,-0.15 -0.75,-1 l -2.89,-11.5 c -7.92,-0.25 -15.24,-6.88 -15.24,-13.65 0,-4.73 3.49,-8.67 9.56,-9.02 l 0.25,1.1 c -2.98,0.15 -6.57,1.89 -6.57,6.87 0,5.98 4.28,12.95 11.71,13.6 L 468.25,406.5 468,405.4 c -0.39,-1.54 -0.74,-3.13 -1.14,-4.68 -0.6,-2.34 -1.1,-4.24 -1.1,-4.38 0,-0.5 0.35,-0.55 0.6,-0.55 0.25,0 0.35,0.05 0.5,0.2 0.1,0.1 0.4,1.29 0.55,1.99 l 1.89,7.42 0.25,1.1 5.13,20.47 c 3.78,-0.2 6.62,-2.49 6.62,-6.87 0,-5.88 -4.28,-13 -11.75,-13.6 l -0.25,-1.1 c 8.02,0.25 15.24,6.98 15.24,13.65 0,3.93 -2.64,8.52 -9.56,9.02 z"
           id="path10477" /><path
           style="fill:#ff0000;fill-opacity:1;stroke-width:0"
           inkscape:connector-curvature="0"
           d="m 501.49,394.04 0,0.03 0,0.03 -0.01,0.01 0,0.02 0,0.01 -0.01,0.02 0,0.02 -0.01,0.01 -0.01,0.02 -0.01,0.02 -0.01,0.03 -0.01,0.02 -0.02,0.02 -0.02,0.03 -0.02,0.03 -0.02,0.03 -0.03,0.03 -0.03,0.04 -0.01,0.02 -0.02,0.02 -0.02,0.02 -0.02,0.02 -0.02,0.02 -0.02,0.03 -0.02,0.02 -0.02,0.02 -0.02,0.03 -0.03,0.02 -0.02,0.03 -0.03,0.03 -0.02,0.03 -0.03,0.03 -0.03,0.03 -0.03,0.03 -0.03,0.03 -0.03,0.03 -0.04,0.04 -0.03,0.03 -0.04,0.04 -0.03,0.03 -0.04,0.04 -0.04,0.04 c -6.23,6.28 -7.82,15.69 -7.82,23.31 0,8.67 1.89,17.34 8.02,23.57 0.65,0.59 0.65,0.69 0.65,0.84 0,0.35 -0.2,0.5 -0.5,0.5 -0.5,0 -4.98,-3.39 -7.92,-9.72 -2.54,-5.47 -3.14,-11 -3.14,-15.19 0,-3.88 0.55,-9.91 3.29,-15.54 2.99,-6.12 7.27,-9.36 7.77,-9.36 0.3,0 0.5,0.15 0.5,0.49 z"
           id="path10479" /><path
           style="fill:#ff0000;fill-opacity:1;stroke-width:0"
           inkscape:connector-curvature="0"
           d="m 518.65,424.58 h 8.37 c 0.64,0 2.43,0 2.43,1.69 0,1.2 -1.04,1.2 -1.99,1.2 h -13.94 c -1,0 -2.95,0 -5.14,-2.34 -1.64,-1.79 -3.04,-4.18 -3.04,-4.49 0,-0.05 0,-0.49 0.6,-0.49 0.4,0 0.5,0.2 0.8,0.6 2.44,3.83 5.28,3.83 6.33,3.83 h 4.13 l -4.88,-15.99 c -0.2,-0.6 -0.5,-1.64 -0.5,-1.84 0,-0.55 0.35,-1.35 1.45,-1.35 1.64,0 1.89,1.4 2.04,2.14 z"
           id="path10481" /><path
           style="fill:#ff0000;fill-opacity:1;stroke-width:0"
           inkscape:connector-curvature="0"
           d="m 548.49,394.04 0,0.03 0,0.03 -0.01,0.01 0,0.02 0,0.01 -0.01,0.02 0,0.02 -0.01,0.01 -0.01,0.02 -0.01,0.02 -0.01,0.03 -0.01,0.02 -0.02,0.02 -0.02,0.03 -0.02,0.03 -0.02,0.03 -0.03,0.03 -0.03,0.04 -0.01,0.02 -0.02,0.02 -0.02,0.02 -0.02,0.02 -0.02,0.02 -0.02,0.03 -0.02,0.02 -0.02,0.02 -0.02,0.03 -0.03,0.02 -0.02,0.03 -0.03,0.03 -0.02,0.03 -0.03,0.03 -0.03,0.03 -0.03,0.03 -0.03,0.03 -0.03,0.03 -0.04,0.04 -0.03,0.03 -0.04,0.04 -0.03,0.03 -0.04,0.04 -0.04,0.04 c -6.23,6.28 -7.82,15.69 -7.82,23.31 0,8.67 1.9,17.34 8.02,23.57 0.65,0.59 0.65,0.69 0.65,0.84 0,0.35 -0.2,0.5 -0.5,0.5 -0.5,0 -4.98,-3.39 -7.92,-9.72 -2.54,-5.47 -3.14,-11 -3.14,-15.19 0,-3.88 0.55,-9.91 3.29,-15.54 2.99,-6.12 7.27,-9.36 7.77,-9.36 0.3,0 0.5,0.15 0.5,0.49 z"
           id="path10483" /><path
           style="fill:#ff0000;fill-opacity:1;stroke-width:0"
           inkscape:connector-curvature="0"
           d="m 567.64,421.04 0.03,0.13 0.03,0.15 0.05,0.17 0.04,0.18 0.06,0.19 0.06,0.21 0.06,0.21 0.07,0.23 0.08,0.23 0.09,0.24 0.1,0.25 0.1,0.24 0.11,0.25 0.12,0.25 0.13,0.25 0.14,0.25 0.15,0.24 0.15,0.24 0.17,0.23 0.18,0.22 0.18,0.22 0.2,0.2 0.21,0.19 0.22,0.18 0.23,0.16 0.25,0.14 0.12,0.07 0.13,0.06 0.13,0.05 0.14,0.05 0.14,0.05 0.14,0.04 0.14,0.03 0.15,0.03 0.15,0.02 0.16,0.02 0.16,0.01 0.16,0 c 0.25,0 1.45,0 2.49,-0.65 -1.4,-0.25 -2.39,-1.49 -2.39,-2.68 0,-0.8 0.55,-1.75 1.89,-1.75 1.1,0 2.69,0.9 2.69,2.89 0,2.59 -2.94,3.29 -4.63,3.29 -2.89,0 -4.64,-2.64 -5.23,-3.79 -1.24,3.29 -3.94,3.79 -5.38,3.79 -5.18,0 -8.02,-6.43 -8.02,-7.67 0,-0.5 0.5,-0.5 0.6,-0.5 0.39,0 0.54,0.1 0.64,0.54 1.7,5.29 4.99,6.53 6.68,6.53 0.94,0 2.69,-0.45 2.69,-3.33 0,-1.55 -0.85,-4.89 -2.69,-11.86 -0.8,-3.09 -2.54,-5.18 -4.73,-5.18 -0.3,0 -1.45,0 -2.49,0.65 1.24,0.25 2.34,1.29 2.34,2.69 0,1.34 -1.1,1.74 -1.85,1.74 -1.49,0 -2.73,-1.3 -2.73,-2.89 0,-2.29 2.48,-3.29 4.68,-3.29 3.28,0 5.08,3.49 5.22,3.79 0.61,-1.85 2.4,-3.79 5.39,-3.79 5.13,0 7.97,6.43 7.97,7.68 0,0.49 -0.45,0.49 -0.6,0.49 -0.45,0 -0.55,-0.2 -0.65,-0.55 -1.64,-5.33 -5.03,-6.52 -6.62,-6.52 -1.94,0 -2.74,1.59 -2.74,3.29 0,1.09 0.3,2.19 0.85,4.38 z"
           id="path10485" /><path
           style="fill:#ff0000;fill-opacity:1;stroke-width:0"
           inkscape:connector-curvature="0"
           d="m 594.4,418.45 -0.01,0.37 0,0.39 -0.01,0.39 -0.01,0.41 -0.04,0.84 -0.06,0.88 -0.09,0.92 -0.1,0.94 -0.14,0.98 -0.16,1 -0.2,1.02 -0.23,1.04 -0.27,1.05 -0.3,1.06 -0.35,1.06 -0.39,1.07 -0.22,0.53 -0.22,0.54 -0.24,0.53 -0.25,0.53 c -2.99,6.12 -7.27,9.36 -7.77,9.36 -0.3,0 -0.5,-0.2 -0.5,-0.5 0,-0.15 0,-0.25 0.94,-1.15 4.89,-4.92 7.73,-12.85 7.73,-23.26 0,-8.52 -1.85,-17.28 -8.02,-23.56 -0.65,-0.6 -0.65,-0.69 -0.65,-0.85 0,-0.29 0.2,-0.49 0.5,-0.49 0.5,0 4.98,3.38 7.92,9.71 2.54,5.48 3.14,11.01 3.14,15.19 z"
           id="path10487" /><path
           style="fill:#ff0000;fill-opacity:1;stroke-width:0"
           inkscape:connector-curvature="0"
           d="m 609.11,406.05 0,0.31 -0.01,0.29 -0.02,0.29 -0.02,0.28 -0.04,0.27 -0.03,0.26 -0.05,0.26 -0.05,0.24 -0.06,0.24 -0.07,0.23 -0.07,0.22 -0.07,0.21 -0.09,0.2 -0.09,0.19 -0.09,0.18 -0.1,0.18 -0.11,0.16 -0.11,0.15 -0.12,0.15 -0.12,0.13 -0.13,0.13 -0.13,0.11 -0.14,0.1 -0.15,0.1 -0.15,0.08 -0.15,0.07 -0.16,0.06 -0.16,0.05 -0.17,0.04 -0.17,0.03 -0.17,0.02 -0.18,0 c -1.65,0 -2.65,-1.24 -2.65,-2.64 0,-1.34 1,-2.64 2.65,-2.64 0.59,0 1.24,0.2 1.74,0.65 0.15,0.1 0.2,0.15 0.25,0.15 0.05,0 0.1,-0.05 0.1,-0.75 0,-3.69 -1.75,-6.67 -3.39,-8.32 -0.55,-0.55 -0.55,-0.65 -0.55,-0.8 0,-0.34 0.25,-0.54 0.5,-0.54 0.55,0 4.53,3.83 4.53,9.66 z"
           id="path10489" /><path
           style="fill:#ff0000;fill-opacity:1;stroke-width:0"
           inkscape:connector-curvature="0"
           d="m 637.64,421.04 0.03,0.13 0.03,0.15 0.05,0.17 0.04,0.18 0.06,0.19 0.06,0.21 0.06,0.21 0.07,0.23 0.08,0.23 0.09,0.24 0.1,0.25 0.1,0.24 0.11,0.25 0.12,0.25 0.13,0.25 0.14,0.25 0.15,0.24 0.15,0.24 0.17,0.23 0.18,0.22 0.18,0.22 0.2,0.2 0.21,0.19 0.22,0.18 0.23,0.16 0.25,0.14 0.12,0.07 0.13,0.06 0.13,0.05 0.14,0.05 0.14,0.05 0.14,0.04 0.14,0.03 0.15,0.03 0.15,0.02 0.16,0.02 0.16,0.01 0.16,0 c 0.25,0 1.45,0 2.49,-0.65 -1.4,-0.25 -2.39,-1.49 -2.39,-2.68 0,-0.8 0.55,-1.75 1.89,-1.75 1.1,0 2.69,0.9 2.69,2.89 0,2.59 -2.94,3.29 -4.63,3.29 -2.89,0 -4.64,-2.64 -5.23,-3.79 -1.24,3.29 -3.94,3.79 -5.38,3.79 -5.18,0 -8.02,-6.43 -8.02,-7.67 0,-0.5 0.5,-0.5 0.6,-0.5 0.39,0 0.54,0.1 0.64,0.54 1.7,5.29 4.99,6.53 6.68,6.53 0.94,0 2.69,-0.45 2.69,-3.33 0,-1.55 -0.85,-4.89 -2.69,-11.86 -0.8,-3.09 -2.54,-5.18 -4.73,-5.18 -0.3,0 -1.45,0 -2.49,0.65 1.24,0.25 2.34,1.29 2.34,2.69 0,1.34 -1.1,1.74 -1.85,1.74 -1.49,0 -2.73,-1.3 -2.73,-2.89 0,-2.29 2.48,-3.29 4.68,-3.29 3.28,0 5.08,3.49 5.22,3.79 0.61,-1.85 2.4,-3.79 5.39,-3.79 5.13,0 7.97,6.43 7.97,7.68 0,0.49 -0.45,0.49 -0.6,0.49 -0.45,0 -0.55,-0.2 -0.65,-0.55 -1.64,-5.33 -5.03,-6.52 -6.62,-6.52 -1.94,0 -2.74,1.59 -2.74,3.29 0,1.09 0.3,2.19 0.85,4.38 z"
           id="path10491" /><path
           style="fill:#ff0000;fill-opacity:1;stroke-width:0"
           inkscape:connector-curvature="0"
           d="m 663.4,418.45 -0.01,0.37 0,0.39 -0.01,0.39 -0.01,0.41 -0.04,0.84 -0.06,0.88 -0.09,0.92 -0.1,0.94 -0.14,0.98 -0.16,1 -0.2,1.02 -0.23,1.04 -0.27,1.05 -0.3,1.06 -0.35,1.06 -0.39,1.07 -0.22,0.53 -0.22,0.54 -0.24,0.53 -0.25,0.53 c -2.99,6.12 -7.27,9.36 -7.77,9.36 -0.3,0 -0.5,-0.2 -0.5,-0.5 0,-0.15 0,-0.25 0.94,-1.15 4.89,-4.92 7.73,-12.85 7.73,-23.26 0,-8.52 -1.85,-17.28 -8.02,-23.56 -0.65,-0.6 -0.65,-0.69 -0.65,-0.85 0,-0.29 0.2,-0.49 0.5,-0.49 0.5,0 4.98,3.38 7.92,9.71 2.54,5.48 3.14,11.01 3.14,15.19 z"
           id="path10493" /></g>    </g>
    <g
       id="g10208"
       transform="matrix(0.44947378,0,0,0.44947378,81.192939,263.25911)">
      <g
         word-spacing="normal"
         letter-spacing="normal"
         font-size-adjust="none"
         font-stretch="normal"
         font-weight="normal"
         font-variant="normal"
         font-style="normal"
         stroke-miterlimit="10.433"
         xml:space="preserve"
         transform="matrix(1.0629921,0,0,-1.0629921,-186.02362,789.27165)"
         id="g10210"
         style="font-style:normal;font-variant:normal;font-weight:normal;font-stretch:normal;letter-spacing:normal;word-spacing:normal;text-anchor:start;fill:none;stroke:#000000;stroke-linecap:butt;stroke-linejoin:miter;stroke-miterlimit:10.43299961;stroke-opacity:1;stroke-dasharray:none;stroke-dashoffset:0"><path
           id="path10212"
           d="m 472.64,421.04 0.03,0.13 0.03,0.15 0.05,0.17 0.04,0.18 0.06,0.19 0.06,0.21 0.06,0.21 0.07,0.23 0.08,0.23 0.09,0.24 0.1,0.25 0.1,0.24 0.11,0.25 0.12,0.25 0.13,0.25 0.14,0.25 0.15,0.24 0.15,0.24 0.17,0.23 0.18,0.22 0.18,0.22 0.2,0.2 0.21,0.19 0.22,0.18 0.23,0.16 0.25,0.14 0.12,0.07 0.13,0.06 0.13,0.05 0.14,0.05 0.14,0.05 0.14,0.04 0.14,0.03 0.15,0.03 0.15,0.02 0.16,0.02 0.16,0.01 0.16,0 c 0.25,0 1.45,0 2.49,-0.65 -1.4,-0.25 -2.39,-1.49 -2.39,-2.68 0,-0.8 0.54,-1.75 1.89,-1.75 1.1,0 2.69,0.9 2.69,2.89 0,2.59 -2.94,3.29 -4.63,3.29 -2.89,0 -4.64,-2.64 -5.23,-3.79 -1.25,3.29 -3.94,3.79 -5.38,3.79 -5.18,0 -8.02,-6.43 -8.02,-7.67 0,-0.5 0.5,-0.5 0.6,-0.5 0.39,0 0.54,0.1 0.64,0.54 1.7,5.29 4.98,6.53 6.68,6.53 0.95,0 2.69,-0.45 2.69,-3.33 0,-1.55 -0.85,-4.89 -2.69,-11.86 -0.8,-3.09 -2.54,-5.18 -4.73,-5.18 -0.3,0 -1.45,0 -2.49,0.65 1.24,0.25 2.34,1.29 2.34,2.69 0,1.34 -1.1,1.74 -1.85,1.74 -1.49,0 -2.73,-1.3 -2.73,-2.89 0,-2.29 2.48,-3.29 4.68,-3.29 3.28,0 5.08,3.49 5.23,3.79 0.6,-1.85 2.39,-3.79 5.38,-3.79 5.13,0 7.97,6.43 7.97,7.68 0,0.49 -0.45,0.49 -0.6,0.49 -0.45,0 -0.55,-0.2 -0.65,-0.55 -1.64,-5.33 -5.03,-6.52 -6.62,-6.52 -1.95,0 -2.74,1.59 -2.74,3.29 0,1.09 0.29,2.19 0.85,4.38 z"
           inkscape:connector-curvature="0"
           style="fill:#000000;stroke-width:0" /><path
           id="path10214"
           d="m 486.61,394.75 -0.02,-0.09 -0.02,-0.09 -0.02,-0.08 -0.02,-0.08 -0.02,-0.07 -0.02,-0.07 -0.03,-0.07 -0.02,-0.06 -0.02,-0.06 -0.03,-0.06 -0.03,-0.05 -0.03,-0.05 -0.03,-0.05 -0.03,-0.04 -0.04,-0.04 -0.04,-0.04 -0.04,-0.03 -0.05,-0.03 -0.05,-0.03 -0.05,-0.03 -0.06,-0.02 -0.07,-0.02 -0.07,-0.02 -0.07,-0.02 -0.08,-0.01 -0.05,-0.01 -0.04,-0.01 -0.04,0 -0.05,-0.01 -0.05,0 -0.05,0 -0.05,-0.01 -0.06,0 -0.05,0 -0.06,0 -0.06,-0.01 -0.06,0 -0.06,0 -0.06,0 c -0.46,0 -0.95,0 -0.95,-0.73 0,-0.38 0.32,-0.53 0.49,-0.53 h 6.66 c 0.32,0 0.7,0.11 0.7,0.77 0,0.49 -0.49,0.49 -0.91,0.49 -0.76,0 -1.7,0 -1.7,0.42 0,0.17 0.24,1.08 0.38,1.6 0.42,1.85 0.9,3.73 1.29,5.2 0.42,-0.7 1.5,-2.06 3.59,-2.06 v 0.98 c -2.48,0 -3.1,2.68 -3.1,3.03 0,0.14 0.07,0.38 0.1,0.52 l 1.75,7.01 c 2.02,2.69 3.76,3.21 4.88,3.21 1.36,0 2.54,-1.01 2.54,-3.38 0,-1.43 -0.76,-4.99 -1.81,-7.01 -0.87,-1.71 -2.58,-3.38 -4.36,-3.38 v -0.98 c 4.25,0 8.96,4.71 8.96,9.9 0,4.08 -2.82,5.83 -5.23,5.83 -2.16,0 -4.01,-1.47 -4.95,-2.44 -0.59,1.99 -2.54,2.44 -3.59,2.44 -1.36,0 -2.2,-0.91 -2.76,-1.85 -0.69,-1.19 -1.25,-3.28 -1.25,-3.49 0,-0.45 0.49,-0.45 0.59,-0.45 0.49,0 0.52,0.11 0.77,1.05 0.52,2.02 1.18,3.76 2.54,3.76 0.91,0 1.16,-0.77 1.16,-1.71 0,-0.38 -0.07,-0.83 -0.11,-1.05 z"
           inkscape:connector-curvature="0"
           style="fill:#000000;stroke-width:0" /></g>    </g>
    <path
       inkscape:connector-curvature="0"
       id="path7839"
       d="M 241.43446,410.39225 308.76934,466.045"
       style="fill:none;stroke:#0000ff;stroke-width:0.52752094999999999;stroke-linecap:butt;stroke-linejoin:miter;stroke-miterlimit:4;stroke-opacity:1;stroke-dasharray:none;marker-end:url(#Arrow2Lend-2)" />
  </g>
  <g
     inkscape:label="WireframeSphere"
     transform="translate(492.37711,458.98905)"
     id="g9840" />
</svg>
