<?xml version="1.0" encoding="UTF-8" standalone="no"?>
<!-- Created with Inkscape (http://www.inkscape.org/) -->

<svg
   xmlns:dc="http://purl.org/dc/elements/1.1/"
   xmlns:cc="http://creativecommons.org/ns#"
   xmlns:rdf="http://www.w3.org/1999/02/22-rdf-syntax-ns#"
   xmlns:svg="http://www.w3.org/2000/svg"
   xmlns="http://www.w3.org/2000/svg"
   xmlns:sodipodi="http://sodipodi.sourceforge.net/DTD/sodipodi-0.dtd"
   xmlns:inkscape="http://www.inkscape.org/namespaces/inkscape"
   width="210mm"
   height="297mm"
   id="svg2"
   version="1.1"
   inkscape:version="0.48.4 r9939"
   sodipodi:docname="beispiel_asymp_stabilitaet.svg">
  <sodipodi:namedview
     id="base"
     pagecolor="#ffffff"
     bordercolor="#666666"
     borderopacity="1.0"
     inkscape:pageopacity="0.0"
     inkscape:pageshadow="2"
     inkscape:zoom="1.4"
     inkscape:cx="242.52928"
     inkscape:cy="823.88377"
     inkscape:document-units="px"
     inkscape:current-layer="layer1"
     showgrid="false"
     showguides="true"
     inkscape:guide-bbox="true"
     inkscape:snap-bbox="true"
     inkscape:bbox-paths="true"
     inkscape:snap-bbox-edge-midpoints="true"
     inkscape:bbox-nodes="true"
     inkscape:snap-bbox-midpoints="true"
     inkscape:object-paths="true"
     inkscape:snap-intersection-paths="true"
     inkscape:snap-midpoints="true"
     inkscape:snap-center="true"
     inkscape:object-nodes="true"
     inkscape:snap-smooth-nodes="true"
     inkscape:snap-object-midpoints="true"
     inkscape:window-width="1920"
     inkscape:window-height="1138"
     inkscape:window-x="-8"
     inkscape:window-y="-8"
     inkscape:window-maximized="1"
     inkscape:snap-global="true" />
  <defs
     id="defs4">
    <marker
       inkscape:stockid="Arrow2Lend"
       orient="auto"
       refY="0.0"
       refX="0.0"
       id="Arrow2Lend"
       style="overflow:visible;">
      <path
         id="path3966"
         style="fill-rule:evenodd;stroke-width:0.62500000;stroke-linejoin:round;"
         d="M 8.7185878,4.0337352 L -2.2072895,0.016013256 L 8.7185884,-4.0017078 C 6.9730900,-1.6296469 6.9831476,1.6157441 8.7185878,4.0337352 z "
         transform="scale(1.1) rotate(180) translate(1,0)" />
    </marker>
    <marker
       inkscape:stockid="Arrow2Lend"
       orient="auto"
       refY="0"
       refX="0"
       id="Arrow2Lend-1"
       style="overflow:visible">
      <path
         inkscape:connector-curvature="0"
         id="path3966-7"
         style="fill-rule:evenodd;stroke-width:0.625;stroke-linejoin:round"
         d="M 8.7185878,4.0337352 -2.2072895,0.01601326 8.7185884,-4.0017078 c -1.7454984,2.3720609 -1.7354408,5.6174519 -6e-7,8.035443 z"
         transform="matrix(-1.1,0,0,-1.1,-1.1,0)" />
    </marker>
    <marker
       inkscape:stockid="Arrow2Lend"
       orient="auto"
       refY="0"
       refX="0"
       id="Arrow2Lend-1-1"
       style="overflow:visible">
      <path
         inkscape:connector-curvature="0"
         id="path3966-7-7"
         style="fill-rule:evenodd;stroke-width:0.625;stroke-linejoin:round"
         d="M 8.7185878,4.0337352 -2.2072895,0.01601326 8.7185884,-4.0017078 c -1.7454984,2.3720609 -1.7354408,5.6174519 -6e-7,8.035443 z"
         transform="matrix(-1.1,0,0,-1.1,-1.1,0)" />
    </marker>
    <marker
       inkscape:stockid="Arrow2Lend"
       orient="auto"
       refY="0"
       refX="0"
       id="Arrow2Lend-1-0"
       style="overflow:visible">
      <path
         inkscape:connector-curvature="0"
         id="path3966-7-9"
         style="fill-rule:evenodd;stroke-width:0.625;stroke-linejoin:round"
         d="M 8.7185878,4.0337352 -2.2072895,0.01601326 8.7185884,-4.0017078 c -1.7454984,2.3720609 -1.7354408,5.6174519 -6e-7,8.035443 z"
         transform="matrix(-1.1,0,0,-1.1,-1.1,0)" />
    </marker>
    <marker
       inkscape:stockid="Arrow2Lend"
       orient="auto"
       refY="0"
       refX="0"
       id="Arrow2Lend-1-8"
       style="overflow:visible">
      <path
         inkscape:connector-curvature="0"
         id="path3966-7-2"
         style="fill-rule:evenodd;stroke-width:0.625;stroke-linejoin:round"
         d="M 8.7185878,4.0337352 -2.2072895,0.01601326 8.7185884,-4.0017078 c -1.7454984,2.3720609 -1.7354408,5.6174519 -6e-7,8.035443 z"
         transform="matrix(-1.1,0,0,-1.1,-1.1,0)" />
    </marker>
    <marker
       inkscape:stockid="Arrow2Lend"
       orient="auto"
       refY="0"
       refX="0"
       id="Arrow2Lend-1-5"
       style="overflow:visible">
      <path
         inkscape:connector-curvature="0"
         id="path3966-7-1"
         style="fill-rule:evenodd;stroke-width:0.625;stroke-linejoin:round"
         d="M 8.7185878,4.0337352 -2.2072895,0.01601326 8.7185884,-4.0017078 c -1.7454984,2.3720609 -1.7354408,5.6174519 -6e-7,8.035443 z"
         transform="matrix(-1.1,0,0,-1.1,-1.1,0)" />
    </marker>
    <marker
       inkscape:stockid="Arrow2Lend"
       orient="auto"
       refY="0"
       refX="0"
       id="Arrow2Lend-1-11"
       style="overflow:visible">
      <path
         inkscape:connector-curvature="0"
         id="path3966-7-5"
         style="fill-rule:evenodd;stroke-width:0.625;stroke-linejoin:round"
         d="M 8.7185878,4.0337352 -2.2072895,0.01601326 8.7185884,-4.0017078 c -1.7454984,2.3720609 -1.7354408,5.6174519 -6e-7,8.035443 z"
         transform="matrix(-1.1,0,0,-1.1,-1.1,0)" />
    </marker>
    <marker
       inkscape:stockid="Arrow2Lend"
       orient="auto"
       refY="0"
       refX="0"
       id="Arrow2Lend-1-7"
       style="overflow:visible">
      <path
         inkscape:connector-curvature="0"
         id="path3966-7-6"
         style="fill-rule:evenodd;stroke-width:0.625;stroke-linejoin:round"
         d="M 8.7185878,4.0337352 -2.2072895,0.01601326 8.7185884,-4.0017078 c -1.7454984,2.3720609 -1.7354408,5.6174519 -6e-7,8.035443 z"
         transform="matrix(-1.1,0,0,-1.1,-1.1,0)" />
    </marker>
    <marker
       inkscape:stockid="Arrow2Lend"
       orient="auto"
       refY="0"
       refX="0"
       id="Arrow2Lend-1-4"
       style="overflow:visible">
      <path
         inkscape:connector-curvature="0"
         id="path3966-7-23"
         style="fill-rule:evenodd;stroke-width:0.625;stroke-linejoin:round"
         d="M 8.7185878,4.0337352 -2.2072895,0.01601326 8.7185884,-4.0017078 c -1.7454984,2.3720609 -1.7354408,5.6174519 -6e-7,8.035443 z"
         transform="matrix(-1.1,0,0,-1.1,-1.1,0)" />
    </marker>
    <marker
       inkscape:stockid="Arrow2Lend"
       orient="auto"
       refY="0"
       refX="0"
       id="Arrow2Lend-1-2"
       style="overflow:visible">
      <path
         inkscape:connector-curvature="0"
         id="path3966-7-16"
         style="fill-rule:evenodd;stroke-width:0.625;stroke-linejoin:round"
         d="M 8.7185878,4.0337352 -2.2072895,0.01601326 8.7185884,-4.0017078 c -1.7454984,2.3720609 -1.7354408,5.6174519 -6e-7,8.035443 z"
         transform="matrix(-1.1,0,0,-1.1,-1.1,0)" />
    </marker>
    <marker
       inkscape:stockid="Arrow2Lend"
       orient="auto"
       refY="0"
       refX="0"
       id="Arrow2Lend-1-4-5"
       style="overflow:visible">
      <path
         inkscape:connector-curvature="0"
         id="path3966-7-23-7"
         style="fill-rule:evenodd;stroke-width:0.625;stroke-linejoin:round"
         d="M 8.7185878,4.0337352 -2.2072895,0.01601326 8.7185884,-4.0017078 c -1.7454984,2.3720609 -1.7354408,5.6174519 -6e-7,8.035443 z"
         transform="matrix(-1.1,0,0,-1.1,-1.1,0)" />
    </marker>
    <marker
       inkscape:stockid="Arrow2Lend"
       orient="auto"
       refY="0"
       refX="0"
       id="Arrow2Lend-1-4-1"
       style="overflow:visible">
      <path
         inkscape:connector-curvature="0"
         id="path3966-7-23-8"
         style="fill-rule:evenodd;stroke-width:0.625;stroke-linejoin:round"
         d="M 8.7185878,4.0337352 -2.2072895,0.01601326 8.7185884,-4.0017078 c -1.7454984,2.3720609 -1.7354408,5.6174519 -6e-7,8.035443 z"
         transform="matrix(-1.1,0,0,-1.1,-1.1,0)" />
    </marker>
    <marker
       inkscape:stockid="Arrow2Lend"
       orient="auto"
       refY="0"
       refX="0"
       id="Arrow2Lend-1-4-2"
       style="overflow:visible">
      <path
         inkscape:connector-curvature="0"
         id="path3966-7-23-79"
         style="fill-rule:evenodd;stroke-width:0.625;stroke-linejoin:round"
         d="M 8.7185878,4.0337352 -2.2072895,0.01601326 8.7185884,-4.0017078 c -1.7454984,2.3720609 -1.7354408,5.6174519 -6e-7,8.035443 z"
         transform="matrix(-1.1,0,0,-1.1,-1.1,0)" />
    </marker>
    <marker
       inkscape:stockid="Arrow2Lend"
       orient="auto"
       refY="0"
       refX="0"
       id="Arrow2Lend-1-4-4"
       style="overflow:visible">
      <path
         inkscape:connector-curvature="0"
         id="path3966-7-23-3"
         style="fill-rule:evenodd;stroke-width:0.625;stroke-linejoin:round"
         d="M 8.7185878,4.0337352 -2.2072895,0.01601326 8.7185884,-4.0017078 c -1.7454984,2.3720609 -1.7354408,5.6174519 -6e-7,8.035443 z"
         transform="matrix(-1.1,0,0,-1.1,-1.1,0)" />
    </marker>
    <marker
       inkscape:stockid="Arrow2Lend"
       orient="auto"
       refY="0"
       refX="0"
       id="Arrow2Lend-1-4-23"
       style="overflow:visible">
      <path
         inkscape:connector-curvature="0"
         id="path3966-7-23-34"
         style="fill-rule:evenodd;stroke-width:0.625;stroke-linejoin:round"
         d="M 8.7185878,4.0337352 -2.2072895,0.01601326 8.7185884,-4.0017078 c -1.7454984,2.3720609 -1.7354408,5.6174519 -6e-7,8.035443 z"
         transform="matrix(-1.1,0,0,-1.1,-1.1,0)" />
    </marker>
    <marker
       inkscape:stockid="Arrow2Lend"
       orient="auto"
       refY="0"
       refX="0"
       id="Arrow2Lend-1-4-13"
       style="overflow:visible">
      <path
         inkscape:connector-curvature="0"
         id="path3966-7-23-87"
         style="fill-rule:evenodd;stroke-width:0.625;stroke-linejoin:round"
         d="M 8.7185878,4.0337352 -2.2072895,0.01601326 8.7185884,-4.0017078 c -1.7454984,2.3720609 -1.7354408,5.6174519 -6e-7,8.035443 z"
         transform="matrix(-1.1,0,0,-1.1,-1.1,0)" />
    </marker>
    <marker
       inkscape:stockid="Arrow2Lend"
       orient="auto"
       refY="0"
       refX="0"
       id="Arrow2Lend-1-4-27"
       style="overflow:visible">
      <path
         inkscape:connector-curvature="0"
         id="path3966-7-23-793"
         style="fill-rule:evenodd;stroke-width:0.625;stroke-linejoin:round"
         d="M 8.7185878,4.0337352 -2.2072895,0.01601326 8.7185884,-4.0017078 c -1.7454984,2.3720609 -1.7354408,5.6174519 -6e-7,8.035443 z"
         transform="matrix(-1.1,0,0,-1.1,-1.1,0)" />
    </marker>
    <marker
       inkscape:stockid="Arrow2Lend"
       orient="auto"
       refY="0"
       refX="0"
       id="Arrow2Lend-1-4-8"
       style="overflow:visible">
      <path
         inkscape:connector-curvature="0"
         id="path3966-7-23-6"
         style="fill-rule:evenodd;stroke-width:0.625;stroke-linejoin:round"
         d="M 8.7185878,4.0337352 -2.2072895,0.01601326 8.7185884,-4.0017078 c -1.7454984,2.3720609 -1.7354408,5.6174519 -6e-7,8.035443 z"
         transform="matrix(-1.1,0,0,-1.1,-1.1,0)" />
    </marker>
    <marker
       inkscape:stockid="Arrow2Lend"
       orient="auto"
       refY="0"
       refX="0"
       id="Arrow2Lend-1-4-0"
       style="overflow:visible">
      <path
         inkscape:connector-curvature="0"
         id="path3966-7-23-2"
         style="fill-rule:evenodd;stroke-width:0.625;stroke-linejoin:round"
         d="M 8.7185878,4.0337352 -2.2072895,0.01601326 8.7185884,-4.0017078 c -1.7454984,2.3720609 -1.7354408,5.6174519 -6e-7,8.035443 z"
         transform="matrix(-1.1,0,0,-1.1,-1.1,0)" />
    </marker>
    <marker
       inkscape:stockid="Arrow2Lend"
       orient="auto"
       refY="0"
       refX="0"
       id="Arrow2Lend-1-4-6"
       style="overflow:visible">
      <path
         inkscape:connector-curvature="0"
         id="path3966-7-23-0"
         style="fill-rule:evenodd;stroke-width:0.625;stroke-linejoin:round"
         d="M 8.7185878,4.0337352 -2.2072895,0.01601326 8.7185884,-4.0017078 c -1.7454984,2.3720609 -1.7354408,5.6174519 -6e-7,8.035443 z"
         transform="matrix(-1.1,0,0,-1.1,-1.1,0)" />
    </marker>
    <marker
       inkscape:stockid="Arrow2Lend"
       orient="auto"
       refY="0"
       refX="0"
       id="Arrow2Lend-1-4-48"
       style="overflow:visible">
      <path
         inkscape:connector-curvature="0"
         id="path3966-7-23-65"
         style="fill-rule:evenodd;stroke-width:0.625;stroke-linejoin:round"
         d="M 8.7185878,4.0337352 -2.2072895,0.01601326 8.7185884,-4.0017078 c -1.7454984,2.3720609 -1.7354408,5.6174519 -6e-7,8.035443 z"
         transform="matrix(-1.1,0,0,-1.1,-1.1,0)" />
    </marker>
    <marker
       inkscape:stockid="Arrow2Lend"
       orient="auto"
       refY="0"
       refX="0"
       id="Arrow2Lend-1-4-9"
       style="overflow:visible">
      <path
         inkscape:connector-curvature="0"
         id="path3966-7-23-00"
         style="fill-rule:evenodd;stroke-width:0.625;stroke-linejoin:round"
         d="M 8.7185878,4.0337352 -2.2072895,0.01601326 8.7185884,-4.0017078 c -1.7454984,2.3720609 -1.7354408,5.6174519 -6e-7,8.035443 z"
         transform="matrix(-1.1,0,0,-1.1,-1.1,0)" />
    </marker>
    <marker
       inkscape:stockid="Arrow2Lend"
       orient="auto"
       refY="0"
       refX="0"
       id="Arrow2Lend-1-4-138"
       style="overflow:visible">
      <path
         inkscape:connector-curvature="0"
         id="path3966-7-23-9"
         style="fill-rule:evenodd;stroke-width:0.625;stroke-linejoin:round"
         d="M 8.7185878,4.0337352 -2.2072895,0.01601326 8.7185884,-4.0017078 c -1.7454984,2.3720609 -1.7354408,5.6174519 -6e-7,8.035443 z"
         transform="matrix(-1.1,0,0,-1.1,-1.1,0)" />
    </marker>
    <marker
       inkscape:stockid="Arrow2Lend"
       orient="auto"
       refY="0"
       refX="0"
       id="Arrow2Lend-1-4-44"
       style="overflow:visible">
      <path
         inkscape:connector-curvature="0"
         id="path3966-7-23-60"
         style="fill-rule:evenodd;stroke-width:0.625;stroke-linejoin:round"
         d="M 8.7185878,4.0337352 -2.2072895,0.01601326 8.7185884,-4.0017078 c -1.7454984,2.3720609 -1.7354408,5.6174519 -6e-7,8.035443 z"
         transform="matrix(-1.1,0,0,-1.1,-1.1,0)" />
    </marker>
    <marker
       inkscape:stockid="Arrow2Lend"
       orient="auto"
       refY="0"
       refX="0"
       id="Arrow2Lend-1-4-61"
       style="overflow:visible">
      <path
         inkscape:connector-curvature="0"
         id="path3966-7-23-84"
         style="fill-rule:evenodd;stroke-width:0.625;stroke-linejoin:round"
         d="M 8.7185878,4.0337352 -2.2072895,0.01601326 8.7185884,-4.0017078 c -1.7454984,2.3720609 -1.7354408,5.6174519 -6e-7,8.035443 z"
         transform="matrix(-1.1,0,0,-1.1,-1.1,0)" />
    </marker>
  </defs>
  <metadata
     id="metadata7">
    <rdf:RDF>
      <cc:Work
         rdf:about="">
        <dc:format>image/svg+xml</dc:format>
        <dc:type
           rdf:resource="http://purl.org/dc/dcmitype/StillImage" />
        <dc:title></dc:title>
      </cc:Work>
    </rdf:RDF>
  </metadata>
  <g
     inkscape:label="Ebene 1"
     inkscape:groupmode="layer"
     id="layer1">
    <path
       style="fill:none;stroke:#000000;stroke-width:1px;stroke-linecap:butt;stroke-linejoin:miter;stroke-opacity:1;marker-start:none;marker-end:url(#Arrow2Lend)"
       d="m 364.66507,544.25545 0,-447.497575"
       id="path2991"
       inkscape:connector-curvature="0" />
    <path
       style="fill:none;stroke:#000000;stroke-width:1px;stroke-linecap:butt;stroke-linejoin:miter;stroke-opacity:1;marker-start:none;marker-end:url(#Arrow2Lend)"
       d="m 136.06517,315.69077 447.49757,0"
       id="path2991-4"
       inkscape:connector-curvature="0" />
    <g
       transform="matrix(0.83362053,0,0,0.83362053,318.39121,56.525266)"
       id="g4420">
      <g
         style="font-style:normal;font-variant:normal;font-weight:normal;font-stretch:normal;letter-spacing:normal;word-spacing:normal;text-anchor:start;fill:none;stroke:#000000;stroke-linecap:butt;stroke-linejoin:miter;stroke-miterlimit:10.43299961;stroke-opacity:1;stroke-dasharray:none;stroke-dashoffset:0"
         id="content"
         transform="matrix(1.0629921,0,0,-1.0629921,-186.02362,789.27165)"
         xml:space="preserve"
         stroke-miterlimit="10.433"
         font-style="normal"
         font-variant="normal"
         font-weight="normal"
         font-stretch="normal"
         font-size-adjust="none"
         letter-spacing="normal"
         word-spacing="normal"><path
           style="fill:#000000;stroke-width:0"
           inkscape:connector-curvature="0"
           d="m 472.64,421.04 0.03,0.13 0.03,0.15 0.05,0.17 0.04,0.18 0.06,0.19 0.06,0.21 0.06,0.21 0.07,0.23 0.08,0.23 0.09,0.24 0.1,0.25 0.1,0.24 0.11,0.25 0.12,0.25 0.13,0.25 0.14,0.25 0.15,0.24 0.15,0.24 0.17,0.23 0.18,0.22 0.18,0.22 0.2,0.2 0.21,0.19 0.22,0.18 0.23,0.16 0.25,0.14 0.12,0.07 0.13,0.06 0.13,0.05 0.14,0.05 0.14,0.05 0.14,0.04 0.14,0.03 0.15,0.03 0.15,0.02 0.16,0.02 0.16,0.01 0.16,0 c 0.25,0 1.45,0 2.49,-0.65 -1.4,-0.25 -2.39,-1.49 -2.39,-2.68 0,-0.8 0.54,-1.75 1.89,-1.75 1.1,0 2.69,0.9 2.69,2.89 0,2.59 -2.94,3.29 -4.63,3.29 -2.89,0 -4.64,-2.64 -5.23,-3.79 -1.25,3.29 -3.94,3.79 -5.38,3.79 -5.18,0 -8.02,-6.43 -8.02,-7.67 0,-0.5 0.5,-0.5 0.6,-0.5 0.39,0 0.54,0.1 0.64,0.54 1.7,5.29 4.98,6.53 6.68,6.53 0.95,0 2.69,-0.45 2.69,-3.33 0,-1.55 -0.85,-4.89 -2.69,-11.86 -0.8,-3.09 -2.54,-5.18 -4.73,-5.18 -0.3,0 -1.45,0 -2.49,0.65 1.24,0.25 2.34,1.29 2.34,2.69 0,1.34 -1.1,1.74 -1.85,1.74 -1.49,0 -2.73,-1.3 -2.73,-2.89 0,-2.29 2.48,-3.29 4.68,-3.29 3.28,0 5.08,3.49 5.23,3.79 0.6,-1.85 2.39,-3.79 5.38,-3.79 5.13,0 7.97,6.43 7.97,7.68 0,0.49 -0.45,0.49 -0.6,0.49 -0.45,0 -0.55,-0.2 -0.65,-0.55 -1.64,-5.33 -5.03,-6.52 -6.62,-6.52 -1.95,0 -2.74,1.59 -2.74,3.29 0,1.09 0.29,2.19 0.85,4.38 z"
           id="path4423" /></g>    </g>
    <g
       id="g4451"
       transform="matrix(0.71686603,0,0,0.71686603,156.23932,-140.05714)">
      <g
         word-spacing="normal"
         letter-spacing="normal"
         font-size-adjust="none"
         font-stretch="normal"
         font-weight="normal"
         font-variant="normal"
         font-style="normal"
         stroke-miterlimit="10.433"
         xml:space="preserve"
         transform="matrix(1.0629921,0,0,-1.0629921,-186.02362,789.27165)"
         id="g4453"
         style="font-style:normal;font-variant:normal;font-weight:normal;font-stretch:normal;letter-spacing:normal;word-spacing:normal;text-anchor:start;fill:none;stroke:#000000;stroke-linecap:butt;stroke-linejoin:miter;stroke-miterlimit:10.43299961;stroke-opacity:1;stroke-dasharray:none;stroke-dashoffset:0"><path
           id="path4455"
           d="m 480.21,424.98 0.01,0.03 0.01,0.03 0.01,0.03 0.01,0.03 0.01,0.06 0.02,0.05 0.01,0.06 0.01,0.04 0.02,0.05 0.01,0.04 0.01,0.04 0.01,0.04 0,0.04 0.01,0.04 0.01,0.03 0,0.03 0.01,0.03 0.01,0.03 0,0.03 0,0.03 0.01,0.03 0,0.02 0,0.06 0.01,0.05 0,0.05 0,0.05 0,0.03 0,0.03 0,0.03 0,0.04 c 0,0.89 -0.7,1.34 -1.45,1.34 -0.5,0 -1.29,-0.3 -1.74,-1.05 -0.1,-0.24 -0.5,-1.79 -0.7,-2.69 -0.34,-1.29 -0.7,-2.64 -0.99,-3.98 l -2.24,-8.97 c -0.2,-0.74 -2.34,-4.23 -5.63,-4.23 -2.54,0 -3.09,2.19 -3.09,4.03 0,2.3 0.84,5.38 2.54,9.77 0.8,2.04 1,2.59 1,3.58 0,2.25 -1.6,4.09 -4.09,4.09 -4.73,0 -6.57,-7.23 -6.57,-7.67 0,-0.5 0.49,-0.5 0.59,-0.5 0.5,0 0.55,0.1 0.8,0.9 1.34,4.68 3.34,6.17 5.03,6.17 0.4,0 1.25,0 1.25,-1.59 0,-1.25 -0.5,-2.54 -0.85,-3.49 -1.99,-5.28 -2.89,-8.12 -2.89,-10.46 0,-4.43 3.14,-5.93 6.08,-5.93 1.94,0 3.63,0.85 5.03,2.25 -0.65,-2.6 -1.25,-5.04 -3.24,-7.68 -1.29,-1.69 -3.19,-3.14 -5.48,-3.14 -0.7,0 -2.94,0.16 -3.79,2.1 0.8,0 1.45,0 2.15,0.59 0.5,0.45 1,1.1 1,2.05 0,1.54 -1.35,1.74 -1.85,1.74 -1.15,0 -2.79,-0.8 -2.79,-3.24 0,-2.49 2.19,-4.33 5.28,-4.33 5.13,0 10.26,4.53 11.66,10.16 z"
           inkscape:connector-curvature="0"
           style="fill:#000000;stroke-width:0" /></g>    </g>
    <path
       inkscape:transform-center-y="-0.00052211288"
       inkscape:transform-center-x="0.00045966978"
       d="m 533.30278,317.98589 -0.0796,0.0379 -0.0781,0.031 -0.082,0.0315 -0.0819,0.0272 -0.084,0.0248 -0.082,0.0218 -0.0846,0.0211 -0.0863,0.0174 -0.0829,0.0139 -0.0873,0.0119 -0.0851,0.007 -0.0867,0.006 -0.0884,0.004 -0.0855,0.002 -0.087,-5.1e-4 -0.0854,-0.006 -0.0868,-0.008 -0.0848,-0.009 -0.0874,-0.0137 -0.0854,-0.0161 -0.0835,-0.0163 -0.0853,-0.0207 -0.0834,-0.0252 -0.081,-0.0235 -0.0827,-0.0284 -0.0804,-0.0316 -0.0803,-0.0339 -0.0792,-0.0371 -0.0779,-0.0364 -0.0751,-0.0412 -0.0748,-0.0435 -0.0734,-0.0461 -0.0715,-0.0485 -0.0725,-0.0502 -0.0679,-0.0529 -0.0685,-0.0524 -0.0657,-0.0577 -0.0617,-0.0591 -0.0623,-0.0595 -0.0602,-0.0635 -0.0589,-0.0651 -0.0555,-0.0651 -0.0529,-0.0685 -0.0533,-0.0695 -0.0479,-0.0709 -0.048,-0.072 -0.0439,-0.0748 -0.0426,-0.0746 -0.0399,-0.0764 -0.0381,-0.0774 -0.0343,-0.0788 -0.0353,-0.0804 -0.0283,-0.0821 -0.0292,-0.0828 -0.0252,-0.0834 -0.0205,-0.0838 -0.0203,-0.0822 -0.0186,-0.087 -0.0141,-0.0843 -0.0108,-0.0851 -0.0105,-0.0857 -0.005,-0.0879 -0.004,-0.0856 -0.001,-0.0857 0.002,-0.088 0.005,-0.0874 0.006,-0.0841 0.0116,-0.0864 0.012,-0.085 0.0166,-0.0874 0.0155,-0.0844 0.0212,-0.0836 0.0231,-0.0845 0.0271,-0.0811 0.0276,-0.0827 0.0321,-0.0795 0.0334,-0.0796 0.0351,-0.0784 0.0381,-0.0801 0.0421,-0.0745 0.0434,-0.0758 0.0463,-0.074 0.0474,-0.0709 0.0487,-0.0707 0.0542,-0.0689 0.0536,-0.0666 0.0563,-0.0678 0.0586,-0.0625 0.0609,-0.0605 0.0631,-0.0607 0.0625,-0.058 0.0673,-0.0561 0.0692,-0.0543 0.0687,-0.0523 0.0701,-0.0476 0.0722,-0.0477 0.0753,-0.0449 0.0752,-0.0432 0.0768,-0.0402 0.0783,-0.037 0.0796,-0.0357 0.0797,-0.0334 0.0792,-0.029 0.083,-0.0292 0.0828,-0.024 0.085,-0.0217 0.0828,-0.0195 0.085,-0.0191 0.0871,-0.0142 0.0844,-0.0101 0.0867,-0.01 0.0851,-0.007 0.0871,-0.003 0.0855,-0.002 0.0883,0.002 0.0871,0.005 0.0851,0.008 0.0865,0.008 0.0845,0.0125 0.0868,0.0161 0.0849,0.0193 0.0826,0.0201 0.0847,0.0215 0.0825,0.0274 0.08,0.0281 0.0815,0.0321 0.0794,0.032 0.0792,0.0373 0.0778,0.0379 0.0762,0.0415 0.0749,0.0416 0.0747,0.0464 0.0716,0.0468 0.0698,0.0505 0.0705,0.0516 0.066,0.0549 0.0666,0.0566 0.0645,0.0594 0.0597,0.0608 0.0601,0.0622 0.058,0.0634 0.0553,0.0659 0.0558,0.0701 0.0504,0.0683 0.049,0.0708 0.0481,0.0729 0.0454,0.074 0.0426,0.077 0.0382,0.0741 0.0399,0.0782 0.0354,0.079 0.0312,0.0809 0.0296,0.0806 0.0282,0.0835 0.0261,0.0826 0.0221,0.0837 0.0201,0.0834 0.0172,0.0848 0.0141,0.0865 0.0125,0.0849 0.008,0.0874 0.008,0.0865 0.001,0.0854 0.001,0.0861 6.5e-4,0.0877 -0.005,0.085 -0.009,0.0862 -0.009,0.0883 -0.0135,0.0834 -0.0149,0.0876 -0.0182,0.084 -0.0201,0.0838 -0.0242,0.082 -0.0245,0.0849 -0.0292,0.0805 -0.0304,0.0818 -0.0351,0.0802 -0.0363,0.0769 -0.038,0.0786 -0.0407,0.0769 -0.042,0.0731 -0.0463,0.0742 -0.0489,0.0727 -0.0487,0.0704 -0.0542,0.069 -0.0522,0.0666 -0.059,0.0647 -0.0585,0.0638 -0.0609,0.063 -0.0603,0.061 -0.0652,0.0583 -0.0673,0.0558 -0.0666,0.0533 -0.0684,0.0517 -0.0719,0.0493 -0.0721,0.0462 -0.0737,0.045 -0.0753,0.042 -0.077,0.0413 z"
       inkscape:randomized="0.0005"
       inkscape:rounded="0"
       inkscape:flatsided="true"
       sodipodi:arg2="1.1518341"
       sodipodi:arg1="1.1361261"
       sodipodi:r2="2.7559724"
       sodipodi:r1="2.7563124"
       sodipodi:cy="315.48718"
       sodipodi:cx="532.14288"
       sodipodi:sides="200"
       id="path4523"
       style="fill:#000000;fill-opacity:1;stroke:#000000;stroke-width:1;stroke-linecap:round;stroke-linejoin:bevel;stroke-miterlimit:4;stroke-opacity:1;stroke-dasharray:none;stroke-dashoffset:0"
       sodipodi:type="star"
       transform="translate(-38.495892,0.28611436)" />
    <path
       inkscape:connector-curvature="0"
       id="path8252"
       d="m 260.94043,168.32307 -4.68341,3.6106 0,0 0,0"
       style="fill:none;stroke:#ff0000;stroke-width:0;stroke-linecap:butt;stroke-linejoin:miter;stroke-opacity:1;marker-start:none;marker-end:url(#Arrow2Lend-1);stroke-miterlimit:4;stroke-dasharray:none" />
    <g
       transform="matrix(0.47169112,0,0,0.47169112,351.42605,167.5007)"
       id="g4492">
      <g
         style="font-style:normal;font-variant:normal;font-weight:normal;font-stretch:normal;letter-spacing:normal;word-spacing:normal;text-anchor:start;fill:none;stroke:#000000;stroke-linecap:butt;stroke-linejoin:miter;stroke-miterlimit:10.43299961;stroke-opacity:1;stroke-dasharray:none;stroke-dashoffset:0"
         id="g4494"
         transform="matrix(1.0629921,0,0,-1.0629921,-186.02362,789.27165)"
         xml:space="preserve"
         stroke-miterlimit="10.433"
         font-style="normal"
         font-variant="normal"
         font-weight="normal"
         font-stretch="normal"
         font-size-adjust="none"
         letter-spacing="normal"
         word-spacing="normal"><path
           style="fill:#000000;stroke-width:0"
           inkscape:connector-curvature="0"
           d="m 475.38,394.41 -8.77,19.38 c -0.35,0.8 -0.6,0.8 -0.75,0.8 -0.05,0 -0.3,0 -0.84,-0.4 l -4.73,-3.59 c -0.65,-0.5 -0.65,-0.65 -0.65,-0.8 0,-0.25 0.15,-0.55 0.49,-0.55 0.3,0 1.15,0.7 1.7,1.1 0.3,0.25 1.05,0.8 1.59,1.2 l 9.81,-21.57 c 0.36,-0.8 0.6,-0.8 1.05,-0.8 0.75,0 0.9,0.3 1.25,1 L 498.14,437 c 0.35,0.7 0.35,0.9 0.35,1 0,0.5 -0.4,0.99 -0.99,0.99 -0.4,0 -0.75,-0.25 -1.15,-1.04 z"
           id="path4496" /><polyline
           style="fill:#000000;fill-rule:nonzero;stroke-width:0"
           points="497,437 527.12,437 527.12,439.04 497,439.04 "
           id="polyline4498" /><path
           style="fill:#000000;stroke-width:0"
           inkscape:connector-curvature="0"
           d="m 508.51,423.48 0.02,0.1 0.03,0.11 0.02,0.11 0.03,0.11 0.03,0.12 0.03,0.12 0.06,0.24 0.06,0.25 0.06,0.25 0.07,0.24 0.05,0.25 0.03,0.11 0.03,0.12 0.03,0.11 0.02,0.11 0.03,0.1 0.02,0.1 0.02,0.1 0.02,0.09 0.02,0.08 0.02,0.07 0.01,0.07 0.01,0.07 0.01,0.05 0.01,0.05 0,0.03 0,0.02 0,0.01 c 0,0.85 -0.59,1.35 -1.44,1.35 -0.15,0 -1.54,-0.05 -1.99,-1.8 l -7.18,-28.84 c -0.14,-0.59 -0.14,-0.7 -0.14,-0.79 0,-0.75 0.54,-1.35 1.39,-1.35 1.04,0 1.64,0.9 1.74,1.05 0.2,0.44 0.85,3.03 2.74,10.71 1.59,-1.35 3.84,-1.55 4.83,-1.55 3.49,0 5.43,2.25 6.63,3.64 0.45,-2.24 2.29,-3.64 4.48,-3.64 1.74,0 2.89,1.15 3.69,2.74 0.84,1.79 1.49,4.83 1.49,4.94 0,0.49 -0.45,0.49 -0.59,0.49 -0.5,0 -0.55,-0.2 -0.7,-0.89 -0.85,-3.24 -1.75,-6.18 -3.79,-6.18 -1.34,0 -1.49,1.29 -1.49,2.29 0,1.09 0.6,3.44 0.99,5.18 l 1.4,5.38 c 0.15,0.75 0.65,2.64 0.85,3.39 0.25,1.14 0.74,3.03 0.74,3.34 0,0.89 -0.69,1.34 -1.44,1.34 -0.25,0 -1.55,-0.05 -1.94,-1.74 l -2.34,-9.32 c -0.6,-2.49 -1.15,-4.58 -1.3,-5.08 -0.05,-0.25 -2.44,-4.78 -6.48,-4.78 -2.49,0 -3.68,1.64 -3.68,4.33 0,1.45 0.35,2.84 0.69,4.24 z"
           id="path4500" /></g>    </g>
    <path
       sodipodi:type="star"
       style="fill:none;stroke:#0000ff;stroke-width:1;stroke-linecap:round;stroke-linejoin:bevel;stroke-miterlimit:4;stroke-opacity:1;stroke-dasharray:none;stroke-dashoffset:0"
       id="path3041"
       sodipodi:sides="200"
       sodipodi:cx="364.66507"
       sodipodi:cy="315.69077"
       sodipodi:r1="199.81889"
       sodipodi:r2="199.79424"
       sodipodi:arg1="1.3335023"
       sodipodi:arg2="1.3492103"
       inkscape:flatsided="true"
       inkscape:rounded="0"
       inkscape:randomized="0.0005"
       d="m 411.69118,509.90485 -6.13916,1.32274 -6.11583,1.34331 -6.19712,0.99107 -6.25868,0.64746 -6.29865,0.69399 -6.34938,0.44753 -6.26677,0.21328 -6.17204,-0.0896 -6.27835,-0.24769 -6.32097,-0.3029 -6.16336,-0.52335 -6.30477,-0.75352 -6.19242,-1.13674 -6.19728,-1.16593 -6.16851,-1.24658 -6.09269,-1.67756 -5.84819,-1.6787 -6.03975,-1.93499 -5.88377,-2.03835 -5.97491,-2.40018 -5.78612,-2.34955 -5.57381,-2.74471 -5.60592,-2.73402 -5.56616,-3.05163 -5.42691,-3.34471 -5.24551,-3.18785 -5.09324,-3.51466 -5.23726,-3.69927 -4.9887,-3.95104 -4.72091,-3.98587 -4.79188,-4.18133 -4.56943,-4.25613 -4.37629,-4.3551 -4.38437,-4.65958 -4.20211,-4.58709 -3.98837,-4.91846 -3.76429,-4.95984 -3.75901,-4.99347 -3.49449,-5.15625 -3.48084,-5.35293 -3.1551,-5.46285 -3.00266,-5.49714 -2.86097,-5.53035 -2.68063,-5.76575 -2.45055,-5.63804 -2.41451,-5.85074 -2.08917,-5.93381 -2.03891,-6.02956 -1.68873,-5.84183 -1.55529,-6.12401 -1.38356,-6.14535 -1.1933,-6.22194 -0.99724,-6.20781 -0.77597,-6.15691 -0.55019,-6.30011 -0.40975,-6.20176 -0.17217,-6.37452 -0.0512,-6.17725 0.10418,-6.29763 0.34145,-6.35496 0.69263,-6.26898 0.7978,-6.08563 0.92611,-6.27892 1.22612,-6.07189 1.32665,-6.24486 1.48766,-6.13082 1.85028,-5.97936 1.77199,-5.92022 2.24387,-5.88701 2.24867,-5.87373 2.41319,-5.78254 2.83604,-5.57892 2.70698,-5.64353 3.0563,-5.4549 3.13324,-5.4343 3.44845,-5.29486 3.56005,-5.35452 3.56018,-4.96409 3.84323,-5.07914 4.07687,-4.81387 4.00443,-4.62885 4.47393,-4.55534 4.39035,-4.52328 4.58083,-4.33039 4.61781,-4.16194 4.76893,-3.92287 5.10241,-3.87058 5.07255,-3.75765 5.14328,-3.50287 5.31405,-3.38503 5.36805,-3.29517 5.44711,-2.95762 5.59731,-2.74556 5.65924,-2.7565 5.78865,-2.58726 5.85024,-2.26203 5.87206,-2.15061 6.07788,-1.96967 5.86691,-1.69676 6.14283,-1.59875 6.09856,-1.29519 6.24309,-1.18375 6.15654,-1.07484 6.25868,-0.84728 6.13941,-0.61022 6.3088,-0.33148 6.37663,-0.16562 6.11354,-0.15954 6.42681,0.2494 6.27159,0.47856 6.12278,0.41747 6.1947,0.8663 6.34308,0.95215 6.05012,1.2222 6.2089,1.37946 5.96234,1.41464 6.13797,1.78662 5.99038,1.97722 5.92985,2.14169 5.88495,2.31439 5.71665,2.36839 5.73653,2.68821 5.44648,2.84477 5.48718,3.07533 5.46222,3.13389 5.2861,3.31585 5.29635,3.61316 4.99684,3.72684 5.0293,3.70154 4.71762,4.08718 4.75458,4.17395 4.56942,4.234 4.61342,4.42886 4.14396,4.48733 4.12622,4.86972 4.06754,4.73433 3.91145,4.88143 3.77308,5.1842 3.34405,5.15828 3.46657,5.36688 3.30904,5.33252 2.8928,5.44948 2.85768,5.60955 2.64333,5.75836 2.65037,5.61592 2.2114,5.95205 2.13305,5.76068 2.03561,6.15301 1.80937,5.84827 1.54781,6.06391 1.33968,6.16291 1.19639,6.30318 0.99744,6.20294 0.67359,6.08086 0.74252,6.26213 0.41704,6.2446 0.0857,6.316 0.13039,6.21506 -0.30729,6.42107 -0.33816,6.25364 -0.57529,6.1548 -0.71532,6.17768 -1.01607,6.34871 -1.13946,6.10342 -1.48258,6.07173 -1.49095,6.07658 -1.65067,6.13979 -2.05827,5.92807 -2.08793,5.83819 -2.35524,5.90245 -2.41319,5.76041 -2.7187,5.70881 -2.78373,5.66377 -3.0563,5.43278 -3.17712,5.40761 -3.24534,5.37124 -3.56025,5.18169 -3.71173,5.08096 -3.78144,4.87162 -4.07687,4.81387 -4.11758,4.83808 -4.23352,4.46141 -4.42766,4.47164 -4.58083,4.33039 -4.67046,4.10567 -4.85396,4.13604 -4.95395,3.85016 -5.04274,3.57148 -5.34638,3.64845 -5.15482,3.43471 -5.524,3.07779 -5.44731,2.9846 -5.63769,3.01234 -5.50131,2.59262 -5.79942,2.49504 -5.80087,2.44175 -6.02821,2.13791 -5.91844,1.85892 -6.06674,1.69676 z"
       inkscape:transform-center-x="-0.052129217"
       inkscape:transform-center-y="-0.0068759227" />
    <path
       sodipodi:type="star"
       style="fill:none;stroke:#000000;stroke-width:1;stroke-linecap:round;stroke-linejoin:bevel;stroke-miterlimit:4;stroke-opacity:1;stroke-dasharray:none;stroke-dashoffset:0"
       id="path3043"
       sodipodi:sides="200"
       sodipodi:cx="364.66507"
       sodipodi:cy="315.69077"
       sodipodi:r1="129.06142"
       sodipodi:r2="129.04549"
       sodipodi:arg1="1.3937676"
       sodipodi:arg2="1.4094755"
       inkscape:flatsided="true"
       inkscape:rounded="0"
       inkscape:randomized="0.0005"
       d="m 387.41679,442.7803 -4.08585,0.58177 -3.96729,0.57779 -4.01522,0.3633 -4.04433,0.28541 -4.07326,0.19409 -4.0008,-0.01 -4.03672,-0.19662 -4.06732,-0.21713 -4.09116,-0.32492 -4.05074,-0.45333 -3.90811,-0.65406 -3.98486,-0.71397 -4.04794,-0.87298 -3.96517,-0.95873 -3.79677,-1.19834 -3.86282,-1.27283 -3.82577,-1.31801 -3.8271,-1.50043 -3.68201,-1.5375 -3.7349,-1.67226 -3.52909,-1.90672 -3.55889,-1.87532 -3.50159,-2.034 -3.50887,-2.18301 -3.34906,-2.25845 -3.27472,-2.34822 -3.16481,-2.51985 -3.1814,-2.59529 -3.04959,-2.67919 -3.02058,-2.76825 -2.89679,-2.81745 -2.73016,-2.88844 -2.64712,-3.02387 -2.65472,-3.17907 -2.43673,-3.21618 -2.46743,-3.27675 -2.26686,-3.26559 -2.22967,-3.43819 -2.08326,-3.51329 -1.97755,-3.48059 -1.82895,-3.66753 -1.69148,-3.66549 -1.70964,-3.63976 -1.45826,-3.77969 -1.41023,-3.82786 -1.19803,-3.862 -1.17565,-3.95442 -1.05801,-3.91662 -0.84786,-3.941 -0.86754,-3.96771 -0.60652,-3.94642 -0.55605,-4.0816 -0.30174,-4.0211 -0.2856,-4.03017 -0.21564,-3.99681 0.0373,-4.05716 0.054,-4.08687 0.25083,-4.04526 0.32037,-4.04769 0.5216,-4.09194 0.63238,-3.9418 0.76946,-3.9406 0.81599,-3.97772 0.96039,-3.98062 1.14432,-3.85235 1.30806,-3.90459 1.37377,-3.76812 1.45385,-3.76666 1.57157,-3.7434 1.73218,-3.72933 1.82804,-3.57362 1.89699,-3.54835 2.09522,-3.51356 2.15946,-3.49944 2.28688,-3.25547 2.36108,-3.37672 2.3872,-3.21177 2.61279,-3.08629 2.68604,-3.14002 2.67165,-2.87845 2.92488,-2.93223 2.87352,-2.71021 3.04622,-2.68999 3.11621,-2.6673 3.2411,-2.51206 3.23679,-2.33361 3.37018,-2.29042 3.47502,-2.24702 3.40943,-2.06701 3.57873,-1.95758 3.61968,-1.81391 3.61057,-1.78327 3.69268,-1.60686 3.85951,-1.51344 3.76751,-1.35492 3.8464,-1.3648 3.91352,-1.1291 3.88674,-1.04392 3.99146,-0.86181 3.98062,-0.71882 3.93186,-0.76734 4.01843,-0.42431 4.11807,-0.46027 4.04433,-0.28541 3.97041,-0.1257 4.12986,0.0242 3.95241,0.0299 4.12543,0.31541 3.98831,0.4076 4.05073,0.43904 3.95286,0.64504 4.04295,0.75508 4.01593,0.77433 3.83624,1.07037 3.96255,1.09511 3.79776,1.27262 3.91009,1.34133 3.705,1.41665 3.77789,1.63909 3.68589,1.74004 3.522,1.836 3.58511,1.82894 3.50171,2.04514 3.48266,2.2294 3.27597,2.27881 3.30093,2.28755 3.29375,2.523 3.09933,2.60387 3.1077,2.6484 2.89139,2.7571 2.89479,2.89405 2.82734,2.90142 2.64924,2.95843 2.55754,3.15179 2.56579,3.20189 2.40722,3.31537 2.32483,3.32413 2.12907,3.438 2.08326,3.38423 1.97743,3.6128 1.87169,3.59174 1.69148,3.66549 1.71176,3.67479 1.46522,3.85355 1.33019,3.77437 1.3271,3.862 1.11967,3.80499 1.02022,3.99951 0.96784,3.97545 0.73848,3.96772 0.6156,3.92625 0.49099,4.0671 0.48678,4.07005 0.28546,4.00473 0.1598,4.11665 0.0208,3.98352 -0.18518,4.05182 -0.25082,4.05956 -0.37635,4.01302 -0.39253,4.10624 -0.70547,3.93358 -0.76946,3.95489 -0.80691,3.95756 -0.99356,3.96743 -1.14645,3.93208 -1.23014,3.89446 -1.3205,3.71282 -1.44689,3.81193 -1.6318,3.76773 -1.68104,3.5961 -1.7997,3.71992 -2.02605,3.54835 -1.96615,3.51356 -2.18781,3.35314 -2.34498,3.45819 -2.35199,3.21321 -2.46512,3.23618 -2.58658,3.14039 -2.5591,2.99021 -2.79375,3.06708 -2.82687,2.82502 -3.00259,2.83927 -3.04622,2.68999 -3.09211,2.5573 -3.2411,2.52635 -3.19205,2.42506 -3.44114,2.23106 -3.40193,2.24094 -3.45418,2.07604 -3.57873,1.97187 -3.51683,1.74552 -3.74176,1.84871 -3.66646,1.56048 -3.73045,1.51344 -3.79372,1.41559 -3.90451,1.26653 -3.82707,1.10126 -3.94485,1.08899 -3.95957,0.86312 z"
       inkscape:transform-center-x="-0.028149936"
       inkscape:transform-center-y="0.018874949" />
    <g
       style="fill:#0000ff;fill-opacity:1;stroke:#0000ff;stroke-opacity:1"
       transform="matrix(0.57334274,0,0,0.57334274,383.43157,42.651612)"
       id="g3852">
      <g
         style="font-style:normal;font-variant:normal;font-weight:normal;font-stretch:normal;letter-spacing:normal;word-spacing:normal;text-anchor:start;fill:#0000ff;fill-opacity:1;stroke:#0000ff;stroke-linecap:butt;stroke-linejoin:miter;stroke-miterlimit:10.43299961000000000;stroke-opacity:1;stroke-dasharray:none;stroke-dashoffset:0"
         id="g3854"
         transform="matrix(1.0629921,0,0,-1.0629921,-186.02362,789.27165)"
         xml:space="preserve"
         stroke-miterlimit="10.433"
         font-style="normal"
         font-variant="normal"
         font-weight="normal"
         font-stretch="normal"
         font-size-adjust="none"
         letter-spacing="normal"
         word-spacing="normal"><path
           style="fill:#0000ff;fill-opacity:1;stroke:#0000ff;stroke-width:0;stroke-opacity:1"
           inkscape:connector-curvature="0"
           d="m 481.85,422.94 0.48,0.11 0.47,0.12 0.49,0.14 0.48,0.15 0.48,0.16 0.48,0.18 0.48,0.19 0.48,0.2 0.47,0.22 0.46,0.23 0.46,0.24 0.45,0.25 0.44,0.27 0.43,0.28 0.42,0.29 0.4,0.3 0.39,0.31 0.37,0.32 0.35,0.34 0.34,0.35 0.32,0.35 0.29,0.37 0.28,0.38 0.25,0.39 0.22,0.4 0.2,0.41 0.17,0.42 0.15,0.43 0.11,0.44 0.09,0.45 0.05,0.45 0.01,0.47 c 0,4.29 -4.48,7.47 -11.01,7.47 h -14.19 c -1,0 -1.45,0 -1.45,-0.99 0,-0.55 0.45,-0.55 1.4,-0.55 0.1,0 1.04,0 1.89,-0.1 0.9,-0.1 1.34,-0.15 1.34,-0.8 0,-0.2 -0.04,-0.35 -0.2,-0.94 l -6.67,-26.75 c -0.5,-1.95 -0.6,-2.35 -4.53,-2.35 -0.9,0 -1.35,0 -1.35,-0.99 0,-0.55 0.6,-0.55 0.7,-0.55 h 12.6 c 0.4,0 1,0 1,1 0,0.54 -0.45,0.54 -1.39,0.54 -1.85,0 -3.24,0 -3.24,0.9 0,0.3 0.09,0.55 0.15,0.85 l 3.28,13.2 h 5.93 l -0.05,1.1 h -5.58 l 3.24,13 c 0.3,1.19 0.45,1.69 1.39,1.84 0.45,0.05 2.05,0.05 3.04,0.05 3.54,0 9.07,0 9.07,-4.93 0,-1.7 -0.8,-5.14 -2.74,-7.08 -1.3,-1.29 -3.94,-2.88 -8.42,-2.88 l 0.05,-1.1 c 4.54,0 5.43,-2.79 5.43,-4.53 0,-0.75 -0.4,-2.3 -0.7,-3.44 -0.35,-1.39 -0.79,-3.24 -0.79,-4.23 0,-5.39 5.97,-5.39 6.62,-5.39 4.24,0 5.98,5.03 5.98,5.73 0,0.6 -0.55,0.6 -0.6,0.6 -0.45,0 -0.55,-0.35 -0.65,-0.7 -1.24,-3.68 -3.38,-4.53 -4.53,-4.53 -1.64,0 -1.99,1.1 -1.99,3.04 0,1.54 0.3,4.09 0.5,5.68 0.1,0.69 0.2,1.64 0.2,2.34 0,3.83 -3.34,5.38 -4.69,5.88 z"
           id="path3856" /><path
           style="fill:#0000ff;fill-opacity:1;stroke:#0000ff;stroke-width:0;stroke-opacity:1"
           inkscape:connector-curvature="0"
           d="m 510.61,405.35 h -1.19 c -0.1,-0.77 -0.45,-2.83 -0.9,-3.18 -0.28,-0.21 -2.97,-0.21 -3.45,-0.21 h -6.42 c 3.66,3.25 4.88,4.22 6.97,5.86 2.58,2.06 4.99,4.22 4.99,7.54 0,4.21 -3.7,6.79 -8.16,6.79 -4.32,0 -7.25,-3.03 -7.25,-6.24 0,-1.78 1.5,-1.95 1.84,-1.95 0.84,0 1.85,0.59 1.85,1.85 0,0.62 -0.24,1.85 -2.05,1.85 1.08,2.47 3.45,3.24 5.09,3.24 3.48,0 5.3,-2.72 5.3,-5.54 0,-3.04 -2.16,-5.45 -3.28,-6.7 l -8.4,-8.3 c -0.35,-0.31 -0.35,-0.38 -0.35,-1.36 h 14.36 z"
           id="path3858" /></g>    </g>
    <g
       id="g3920"
       style="fill:#ff0000;fill-opacity:1"
       transform="matrix(0.57334272,0,0,0.57334272,147.30842,75.734111)">
      <g
         word-spacing="normal"
         letter-spacing="normal"
         font-size-adjust="none"
         font-stretch="normal"
         font-weight="normal"
         font-variant="normal"
         font-style="normal"
         stroke-miterlimit="10.433"
         xml:space="preserve"
         transform="matrix(1.0629921,0,0,-1.0629921,-186.02362,789.27165)"
         id="g3922"
         style="font-style:normal;font-variant:normal;font-weight:normal;font-stretch:normal;letter-spacing:normal;word-spacing:normal;text-anchor:start;fill:#ff0000;fill-opacity:1;fill-rule:evenodd;stroke:#000000;stroke-linecap:butt;stroke-linejoin:miter;stroke-miterlimit:10.43299961;stroke-opacity:1;stroke-dasharray:none;stroke-dashoffset:0"><path
           id="path3924"
           d="m 481.85,422.94 0.48,0.11 0.47,0.12 0.49,0.14 0.48,0.15 0.48,0.16 0.48,0.18 0.48,0.19 0.48,0.2 0.47,0.22 0.46,0.23 0.46,0.24 0.45,0.25 0.44,0.27 0.43,0.28 0.42,0.29 0.4,0.3 0.39,0.31 0.37,0.32 0.35,0.34 0.34,0.35 0.32,0.35 0.29,0.37 0.28,0.38 0.25,0.39 0.22,0.4 0.2,0.41 0.17,0.42 0.15,0.43 0.11,0.44 0.09,0.45 0.05,0.45 0.01,0.47 c 0,4.29 -4.48,7.47 -11.01,7.47 h -14.19 c -1,0 -1.45,0 -1.45,-0.99 0,-0.55 0.45,-0.55 1.4,-0.55 0.1,0 1.04,0 1.89,-0.1 0.9,-0.1 1.34,-0.15 1.34,-0.8 0,-0.2 -0.04,-0.35 -0.2,-0.94 l -6.67,-26.75 c -0.5,-1.95 -0.6,-2.35 -4.53,-2.35 -0.9,0 -1.35,0 -1.35,-0.99 0,-0.55 0.6,-0.55 0.7,-0.55 h 12.6 c 0.4,0 1,0 1,1 0,0.54 -0.45,0.54 -1.39,0.54 -1.85,0 -3.24,0 -3.24,0.9 0,0.3 0.09,0.55 0.15,0.85 l 3.28,13.2 h 5.93 l -0.05,1.1 h -5.58 l 3.24,13 c 0.3,1.19 0.45,1.69 1.39,1.84 0.45,0.05 2.05,0.05 3.04,0.05 3.54,0 9.07,0 9.07,-4.93 0,-1.7 -0.8,-5.14 -2.74,-7.08 -1.3,-1.29 -3.94,-2.88 -8.42,-2.88 l 0.05,-1.1 c 4.54,0 5.43,-2.79 5.43,-4.53 0,-0.75 -0.4,-2.3 -0.7,-3.44 -0.35,-1.39 -0.79,-3.24 -0.79,-4.23 0,-5.39 5.97,-5.39 6.62,-5.39 4.24,0 5.98,5.03 5.98,5.73 0,0.6 -0.55,0.6 -0.6,0.6 -0.45,0 -0.55,-0.35 -0.65,-0.7 -1.24,-3.68 -3.38,-4.53 -4.53,-4.53 -1.64,0 -1.99,1.1 -1.99,3.04 0,1.54 0.3,4.09 0.5,5.68 0.1,0.69 0.2,1.64 0.2,2.34 0,3.83 -3.34,5.38 -4.69,5.88 z"
           style="fill:#ff0000;fill-opacity:1;stroke-width:0"
           inkscape:connector-curvature="0" /><path
           id="path3926"
           d="m 504.68,421.18 0,0.04 0,0.04 0,0.04 0,0.04 0,0.04 0,0.04 0,0.03 0,0.04 -0.01,0.03 0,0.03 0,0.04 0,0.03 -0.01,0.02 0,0.03 0,0.03 -0.01,0.03 0,0.02 0,0.02 -0.02,0.05 -0.01,0.04 -0.01,0.04 -0.02,0.03 -0.02,0.03 -0.02,0.03 -0.03,0.03 -0.02,0.02 -0.03,0.02 -0.04,0.02 -0.03,0.01 -0.04,0.01 -0.05,0.02 -0.05,0 -0.02,0.01 -0.03,0 -0.03,0.01 -0.02,0 -0.03,0 -0.03,0 -0.04,0 -0.03,0.01 -0.03,0 -0.04,0 -0.03,0 -0.04,0 -0.04,0 -0.04,0 -0.04,0 -0.04,0 -0.05,0 -0.04,0 c -2.24,-2.19 -5.41,-2.23 -6.84,-2.23 v -1.25 c 0.84,0 3.14,0 5.06,0.97 v -17.78 c 0,-1.15 0,-1.61 -3.49,-1.61 h -1.33 V 399 h 12.45 v 1.25 h -1.32 c -3.49,0 -3.49,0.46 -3.49,1.61 z"
           style="fill:#ff0000;fill-opacity:1;stroke-width:0"
           inkscape:connector-curvature="0" /></g>    </g>
    <path
       sodipodi:type="star"
       style="fill:none;fill-opacity:1;stroke:#ff0000;stroke-width:1;stroke-linecap:round;stroke-linejoin:bevel;stroke-miterlimit:4;stroke-opacity:1;stroke-dasharray:none;stroke-dashoffset:0"
       id="path3961"
       sodipodi:sides="200"
       sodipodi:cx="364.66507"
       sodipodi:cy="315.69077"
       sodipodi:r1="75.209781"
       sodipodi:r2="75.200502"
       sodipodi:arg1="-1.9382956"
       sodipodi:arg2="-1.9225876"
       inkscape:flatsided="true"
       inkscape:rounded="0"
       inkscape:randomized="0.0005"
       d="m 337.65376,245.5381 2.17131,-0.85598 2.26331,-0.76959 2.31174,-0.6252 2.23671,-0.61656 2.33146,-0.51862 2.34077,-0.47657 2.32021,-0.37378 2.29006,-0.30995 2.36895,-0.20769 2.3658,-0.19406 2.39005,-0.11397 2.32452,0.0226 2.34959,0.0342 2.36454,0.10839 2.35006,0.22426 2.33985,0.31643 2.32653,0.32821 2.37061,0.41649 2.29116,0.51001 2.29511,0.60126 2.24746,0.66147 2.31705,0.69484 2.21792,0.80228 2.19915,0.80639 2.15861,0.95199 2.10377,0.95923 2.15122,1.06301 2.06472,1.1332 2.03188,1.19437 2.00344,1.27644 1.97301,1.3406 1.89462,1.34226 1.91406,1.40209 1.85081,1.51547 1.77242,1.55952 1.71819,1.65068 1.64342,1.64722 1.68599,1.66223 1.57646,1.81115 1.49861,1.8233 1.47482,1.81074 1.34738,1.91354 1.39262,1.93115 1.27332,2.01482 1.16415,2.03702 1.18064,2.0545 1.08693,2.08789 1.01806,2.15116 0.95526,2.1787 0.84504,2.15851 0.88279,2.2175 0.68889,2.27587 0.71177,2.23764 0.61742,2.29633 0.53395,2.27478 0.43443,2.3278 0.36637,2.29181 0.30868,2.36012 0.24522,2.333 0.1817,2.38345 0.0684,2.35645 0.005,2.41266 -0.0634,2.34828 -0.12848,2.33778 -0.19493,2.3209 -0.25849,2.36155 -0.36705,2.32694 -0.42587,2.34589 -0.48426,2.29567 -0.61333,2.31146 -0.64204,2.24895 -0.71514,2.26063 -0.81251,2.27586 -0.80604,2.17042 -0.96077,2.15306 -0.99391,2.17604 -1.08202,2.13122 -1.11749,2.06036 -1.13417,2.00311 -1.28909,2.01739 -1.30047,1.9353 -1.36558,1.92648 -1.42924,1.90559 -1.55453,1.81994 -1.53613,1.79031 -1.57105,1.6967 -1.71057,1.69868 -1.71374,1.67791 -1.71294,1.54891 -1.82596,1.49127 -1.84981,1.44441 -1.87942,1.44586 -1.95443,1.30898 -1.99787,1.32243 -2.0609,1.16886 -2.07606,1.2044 -2.06159,1.0783 -2.11484,0.98648 -2.19911,0.96534 -2.14368,0.86265 -2.24652,0.86431 -2.26323,0.69255 -2.23654,0.70041 -2.29664,0.58953 -2.33146,0.51862 -2.26556,0.47657 -2.33549,0.40081 -2.32391,0.27766 -2.40633,0.2682 -2.36572,0.12534 -2.33343,0.12153 -2.32452,-0.0143 -2.39499,-0.045 -2.37981,-0.14824 -2.30466,-0.23016 -2.38525,-0.24365 -2.3604,-0.35217 -2.32147,-0.41123 -2.24576,-0.51591 -2.35173,-0.60882 -2.25152,-0.62931 -2.24184,-0.68651 -2.21792,-0.79395 -2.233,-0.85534 -2.13929,-0.93597 -2.14794,-1.00812 -2.10993,-1.02659 -2.12136,-1.14909 -1.9864,-1.19378 -2.00749,-1.23594 -2.01435,-1.29999 -1.91321,-1.40157 -1.84009,-1.43084 -1.81695,-1.48318 -1.77242,-1.56785 -1.73347,-1.62365 -1.71863,-1.63889 -1.60954,-1.7087 -1.57646,-1.73594 -1.53247,-1.86391 -1.44096,-1.83701 -1.40863,-1.9006 -1.31733,-1.93297 -1.27332,-2.02315 -1.26916,-2.02628 -1.1496,-2.02818 -1.08693,-2.08788 -1.03342,-2.13063 -0.95113,-2.2127 -0.85033,-2.14676 -0.80758,-2.2175 -0.76418,-2.28237 -0.63524,-2.27761 -0.61742,-2.22112 -0.53395,-2.34998 -0.43037,-2.29309 -0.44695,-2.35344 -0.3086,-2.35362 -0.17002,-2.34966 -0.18045,-2.34637 -0.1436,-2.35645 -0.005,-2.33745 0.0634,-2.34829 0.12717,-2.36469 0.19905,-2.36322 0.29985,-2.40218 0.39809,-2.28395 0.42587,-2.36255 0.48426,-2.28734 0.53812,-2.31147 0.6408,-2.28601 0.7192,-2.20927 0.80845,-2.25202 0.84863,-2.18229 0.91942,-2.17933 0.99391,-2.17604 1.0973,-2.0747 1.11625,-2.08911 1.20938,-2.01144 1.21793,-2.05789 1.29642,-1.90313 1.42675,-1.93758 1.42924,-1.9056 1.48338,-1.78522 1.53207,-1.82502 1.64619,-1.69488 1.63419,-1.72925 1.7032,-1.59909 1.73876,-1.58788 1.82596,-1.48294 1.8924,-1.44795 1.898,-1.45343 1.95443,-1.32563 2.00193,-1.28772 1.98163,-1.18691 2.07599,-1.13569 2.081,-1.08078 2.18475,-1.04161 2.09409,-0.97124 z"
       inkscape:transform-center-x="0.017983988"
       inkscape:transform-center-y="-0.002161057" />
    <path
       style="fill:none;stroke:#ff0000;stroke-width:1px;stroke-linecap:butt;stroke-linejoin:miter;stroke-opacity:1;marker-end:url(#Arrow2Lend-1)"
       d="m 289.43427,315.69077 -28.00436,0"
       id="path3967"
       inkscape:connector-curvature="0" />
    <path
       style="fill:none;stroke:#ff0000;stroke-width:1px;stroke-linecap:butt;stroke-linejoin:miter;stroke-opacity:1;marker-end:url(#Arrow2Lend-1)"
       d="m 439.85984,315.69077 28.00436,0"
       id="path3967-4"
       inkscape:connector-curvature="0" />
    <path
       style="fill:none;stroke:#ff0000;stroke-width:1px;stroke-linecap:butt;stroke-linejoin:miter;stroke-opacity:1;marker-end:url(#Arrow2Lend-1)"
       d="m 364.66507,240.49193 0,-28.00436"
       id="path3967-48"
       inkscape:connector-curvature="0" />
    <path
       style="fill:none;stroke:#ff0000;stroke-width:1px;stroke-linecap:butt;stroke-linejoin:miter;stroke-opacity:1;marker-end:url(#Arrow2Lend-1)"
       d="m 364.66507,390.89094 0,28.00436"
       id="path3967-45"
       inkscape:connector-curvature="0" />
    <path
       style="fill:none;stroke:#ff0000;stroke-width:1px;stroke-linecap:butt;stroke-linejoin:miter;stroke-opacity:1;marker-end:url(#Arrow2Lend-1)"
       d="m 308.57731,365.79436 -19.80207,19.80208"
       id="path3967-7"
       inkscape:connector-curvature="0" />
    <path
       style="fill:none;stroke:#ff0000;stroke-width:1px;stroke-linecap:butt;stroke-linejoin:miter;stroke-opacity:1;marker-end:url(#Arrow2Lend-1)"
       d="m 420.58628,365.96436 19.80208,19.80207"
       id="path3967-2"
       inkscape:connector-curvature="0" />
    <path
       style="fill:none;stroke:#ff0000;stroke-width:1px;stroke-linecap:butt;stroke-linejoin:miter;stroke-opacity:1;marker-end:url(#Arrow2Lend-1)"
       d="m 422.32961,267.42414 19.80207,-19.80208"
       id="path3967-2-1"
       inkscape:connector-curvature="0" />
    <path
       style="fill:none;stroke:#ff0000;stroke-width:1px;stroke-linecap:butt;stroke-linejoin:miter;stroke-opacity:1;marker-end:url(#Arrow2Lend-1)"
       d="M 310.35408,263.70444 290.552,243.90237"
       id="path3967-2-2"
       inkscape:connector-curvature="0" />
    <path
       style="fill:#0000ff;stroke:#0000ff;stroke-width:1px;stroke-linecap:butt;stroke-linejoin:miter;stroke-opacity:1;fill-opacity:1;marker-end:url(#Arrow2Lend-1-4)"
       d="m 164.92599,315.69077 42.93115,0"
       id="path4269"
       inkscape:connector-curvature="0" />
    <path
       style="fill:#0000ff;fill-opacity:1;stroke:#0000ff;stroke-width:1px;stroke-linecap:butt;stroke-linejoin:miter;stroke-opacity:1;marker-end:url(#Arrow2Lend-1-4)"
       d="m 174.69992,377.69115 39.66321,-16.42904"
       id="path4269-6"
       inkscape:connector-curvature="0" />
    <path
       style="fill:#0000ff;fill-opacity:1;stroke:#0000ff;stroke-width:1px;stroke-linecap:butt;stroke-linejoin:miter;stroke-opacity:1;marker-end:url(#Arrow2Lend-1-4)"
       d="m 217.06207,450.35265 30.3569,-30.3569"
       id="path4269-6-9"
       inkscape:connector-curvature="0" />
    <path
       style="fill:#0000ff;fill-opacity:1;stroke:#0000ff;stroke-width:1px;stroke-linecap:butt;stroke-linejoin:miter;stroke-opacity:1;marker-end:url(#Arrow2Lend-1-4)"
       d="m 291.41604,501.56819 16.42904,-39.6632"
       id="path4269-6-5"
       inkscape:connector-curvature="0" />
    <path
       style="fill:#0000ff;fill-opacity:1;stroke:#0000ff;stroke-width:1px;stroke-linecap:butt;stroke-linejoin:miter;stroke-opacity:1;marker-end:url(#Arrow2Lend-1-4)"
       d="m 364.66507,515.51485 0,-42.93114"
       id="path4269-6-5-1"
       inkscape:connector-curvature="0" />
    <path
       style="fill:#0000ff;fill-opacity:1;stroke:#0000ff;stroke-width:1px;stroke-linecap:butt;stroke-linejoin:miter;stroke-opacity:1;marker-end:url(#Arrow2Lend-1-4)"
       d="M 438.59738,501.3494 422.16835,461.68619"
       id="path4269-6-5-1-1"
       inkscape:connector-curvature="0" />
    <path
       style="fill:#0000ff;fill-opacity:1;stroke:#0000ff;stroke-width:1px;stroke-linecap:butt;stroke-linejoin:miter;stroke-opacity:1;marker-end:url(#Arrow2Lend-1-4)"
       d="M 512.67186,449.95619 482.31497,419.59928"
       id="path4269-6-5-1-4"
       inkscape:connector-curvature="0" />
    <path
       style="fill:#0000ff;fill-opacity:1;stroke:#0000ff;stroke-width:1px;stroke-linecap:butt;stroke-linejoin:miter;stroke-opacity:1;marker-end:url(#Arrow2Lend-1-4)"
       d="M 551.66935,385.9229 512.00616,369.49385"
       id="path4269-6-5-1-19"
       inkscape:connector-curvature="0" />
    <path
       style="fill:#0000ff;fill-opacity:1;stroke:#0000ff;stroke-width:1px;stroke-linecap:butt;stroke-linejoin:miter;stroke-opacity:1;marker-end:url(#Arrow2Lend-1-4)"
       d="m 564.68842,315.73108 -42.93114,-2e-5"
       id="path4269-6-5-1-19-5"
       inkscape:connector-curvature="0" />
    <path
       style="fill:#0000ff;fill-opacity:1;stroke:#0000ff;stroke-width:1px;stroke-linecap:butt;stroke-linejoin:miter;stroke-opacity:1;marker-end:url(#Arrow2Lend-1-4)"
       d="m 553.5558,250.55635 -39.66321,16.42901"
       id="path4269-6-5-1-19-8"
       inkscape:connector-curvature="0" />
    <path
       style="fill:#0000ff;fill-opacity:1;stroke:#0000ff;stroke-width:1px;stroke-linecap:butt;stroke-linejoin:miter;stroke-opacity:1;marker-end:url(#Arrow2Lend-1-4)"
       d="m 505.71855,174.18119 -30.35692,30.35687"
       id="path4269-6-5-1-19-2"
       inkscape:connector-curvature="0" />
    <path
       style="fill:#0000ff;fill-opacity:1;stroke:#0000ff;stroke-width:1px;stroke-linecap:butt;stroke-linejoin:miter;stroke-opacity:1;marker-end:url(#Arrow2Lend-1-4)"
       d="m 432.06269,127.61841 -16.42906,39.66318"
       id="path4269-6-5-1-19-2-0"
       inkscape:connector-curvature="0" />
    <path
       style="fill:#0000ff;fill-opacity:1;stroke:#0000ff;stroke-width:1px;stroke-linecap:butt;stroke-linejoin:miter;stroke-opacity:1;marker-end:url(#Arrow2Lend-1-4)"
       d="m 364.66507,115.87463 -3e-5,42.93113"
       id="path4269-6-5-1-19-2-6"
       inkscape:connector-curvature="0" />
    <path
       style="fill:#0000ff;fill-opacity:1;stroke:#0000ff;stroke-width:1px;stroke-linecap:butt;stroke-linejoin:miter;stroke-opacity:1;marker-end:url(#Arrow2Lend-1-4)"
       d="m 296.6702,127.81195 16.429,39.6632"
       id="path4269-6-5-1-19-2-3"
       inkscape:connector-curvature="0" />
    <path
       style="fill:#0000ff;fill-opacity:1;stroke:#0000ff;stroke-width:1px;stroke-linecap:butt;stroke-linejoin:miter;stroke-opacity:1;marker-end:url(#Arrow2Lend-1-4)"
       d="m 218.79639,179.22368 30.35686,30.35691"
       id="path4269-6-5-1-19-2-3-6"
       inkscape:connector-curvature="0" />
    <path
       style="fill:#0000ff;fill-opacity:1;stroke:#0000ff;stroke-width:1px;stroke-linecap:butt;stroke-linejoin:miter;stroke-opacity:1;marker-end:url(#Arrow2Lend-1-4)"
       d="m 174.54194,254.25172 39.66317,16.42906"
       id="path4269-6-5-1-19-2-3-6-9"
       inkscape:connector-curvature="0" />
  </g>
</svg>
