<?xml version="1.0" encoding="UTF-8" standalone="no"?>
<!-- Created with Inkscape (http://www.inkscape.org/) -->

<svg
   xmlns:dc="http://purl.org/dc/elements/1.1/"
   xmlns:cc="http://creativecommons.org/ns#"
   xmlns:rdf="http://www.w3.org/1999/02/22-rdf-syntax-ns#"
   xmlns:svg="http://www.w3.org/2000/svg"
   xmlns="http://www.w3.org/2000/svg"
   xmlns:sodipodi="http://sodipodi.sourceforge.net/DTD/sodipodi-0.dtd"
   xmlns:inkscape="http://www.inkscape.org/namespaces/inkscape"
   width="210mm"
   height="297mm"
   id="svg2"
   version="1.1"
   inkscape:version="0.48.4 r9939"
   sodipodi:docname="lin_sys_7_2.svg">
  <defs
     id="defs4">
    <marker
       inkscape:stockid="Arrow2Lstart"
       orient="auto"
       refY="0.0"
       refX="0.0"
       id="Arrow2Lstart"
       style="overflow:visible">
      <path
         id="path3817"
         style="fill-rule:evenodd;stroke-width:0.62500000;stroke-linejoin:round"
         d="M 8.7185878,4.0337352 L -2.2072895,0.016013256 L 8.7185884,-4.0017078 C 6.9730900,-1.6296469 6.9831476,1.6157441 8.7185878,4.0337352 z "
         transform="scale(1.1) translate(1,0)" />
    </marker>
    <marker
       inkscape:stockid="Arrow2Lend"
       orient="auto"
       refY="0.0"
       refX="0.0"
       id="Arrow2Lend"
       style="overflow:visible;">
      <path
         id="path3820"
         style="fill-rule:evenodd;stroke-width:0.62500000;stroke-linejoin:round;"
         d="M 8.7185878,4.0337352 L -2.2072895,0.016013256 L 8.7185884,-4.0017078 C 6.9730900,-1.6296469 6.9831476,1.6157441 8.7185878,4.0337352 z "
         transform="scale(1.1) rotate(180) translate(1,0)" />
    </marker>
    <marker
       inkscape:stockid="Arrow1Lstart"
       orient="auto"
       refY="0.0"
       refX="0.0"
       id="Arrow1Lstart"
       style="overflow:visible">
      <path
         id="path3799"
         d="M 0.0,0.0 L 5.0,-5.0 L -12.5,0.0 L 5.0,5.0 L 0.0,0.0 z "
         style="fill-rule:evenodd;stroke:#000000;stroke-width:1.0pt"
         transform="scale(0.8) translate(12.5,0)" />
    </marker>
    <marker
       style="overflow:visible;"
       id="Arrow1Lend"
       refX="0.0"
       refY="0.0"
       orient="auto"
       inkscape:stockid="Arrow1Lend">
      <path
         transform="scale(0.8) rotate(180) translate(12.5,0)"
         style="fill-rule:evenodd;stroke:#000000;stroke-width:1.0pt;"
         d="M 0.0,0.0 L 5.0,-5.0 L -12.5,0.0 L 5.0,5.0 L 0.0,0.0 z "
         id="path3764" />
    </marker>
  </defs>
  <sodipodi:namedview
     id="base"
     pagecolor="#ffffff"
     bordercolor="#666666"
     borderopacity="1.0"
     inkscape:pageopacity="0.0"
     inkscape:pageshadow="2"
     inkscape:zoom="0.49497475"
     inkscape:cx="-473.14306"
     inkscape:cy="443.61172"
     inkscape:document-units="px"
     inkscape:current-layer="layer1"
     showgrid="false"
     inkscape:snap-bbox="true"
     inkscape:bbox-paths="true"
     inkscape:bbox-nodes="true"
     inkscape:snap-bbox-edge-midpoints="true"
     inkscape:snap-bbox-midpoints="true"
     inkscape:object-paths="true"
     inkscape:snap-intersection-paths="true"
     inkscape:object-nodes="true"
     inkscape:snap-smooth-nodes="true"
     inkscape:snap-midpoints="true"
     inkscape:snap-object-midpoints="true"
     inkscape:snap-center="true"
     inkscape:window-width="1920"
     inkscape:window-height="1138"
     inkscape:window-x="-8"
     inkscape:window-y="-8"
     inkscape:window-maximized="1" />
  <metadata
     id="metadata7">
    <rdf:RDF>
      <cc:Work
         rdf:about="">
        <dc:format>image/svg+xml</dc:format>
        <dc:type
           rdf:resource="http://purl.org/dc/dcmitype/StillImage" />
        <dc:title></dc:title>
      </cc:Work>
    </rdf:RDF>
  </metadata>
  <g
     inkscape:label="Ebene 1"
     inkscape:groupmode="layer"
     id="layer1">
    <g
       id="layer1-9"
       inkscape:label="Ebene 1"
       transform="translate(-2.6528722,147.90846)">
      <path
         inkscape:connector-curvature="0"
         id="path2987"
         d="m 374.2345,605.48785 0,-548.857273"
         style="fill:none;stroke:#000000;stroke-width:1.14271963;stroke-linecap:butt;stroke-linejoin:miter;stroke-miterlimit:4;stroke-opacity:1;stroke-dasharray:none;marker-end:url(#Arrow1Lend)" />
      <path
         inkscape:connector-curvature="0"
         id="path2985"
         d="m 99.400372,326.86632 549.668258,0"
         style="fill:none;stroke:#000000;stroke-width:0.93175322px;stroke-linecap:butt;stroke-linejoin:miter;stroke-opacity:1;marker-start:none;marker-end:url(#Arrow1Lend)" />
      <g
         id="g4574"
         transform="matrix(0.83751682,0,0,0.83751682,-296.64845,8.9759542)">
        <g
           word-spacing="normal"
           letter-spacing="normal"
           font-size-adjust="none"
           font-stretch="normal"
           font-weight="normal"
           font-variant="normal"
           font-style="normal"
           stroke-miterlimit="10.433"
           xml:space="preserve"
           transform="matrix(1.0629921,0,0,-1.0629921,-186.02362,789.27165)"
           id="content"
           style="font-style:normal;font-variant:normal;font-weight:normal;font-stretch:normal;letter-spacing:normal;word-spacing:normal;text-anchor:start;fill:none;stroke:#000000;stroke-linecap:butt;stroke-linejoin:miter;stroke-miterlimit:10.43299961;stroke-opacity:1;stroke-dasharray:none;stroke-dashoffset:0"><path
             id="path4577"
             d="m 1225.7,361.24 -0.5,-0.34 -0.5,-0.34 -0.4,-0.35 -0.5,-0.36 -0.4,-0.35 -0.3,-0.36 -0.4,-0.37 -0.3,-0.36 -0.4,-0.37 -0.3,-0.36 -0.2,-0.36 -0.3,-0.36 -0.2,-0.36 -0.2,-0.36 -0.2,-0.35 -0.2,-0.35 -0.2,-0.34 -0.2,-0.34 -0.1,-0.33 -0.1,-0.32 -0.1,-0.32 -0.1,-0.3 -0.1,-0.3 -0.1,-0.29 -0.1,-0.27 0,-0.26 -0.1,-0.25 0,-0.24 0,-0.22 0,-0.21 -0.1,-0.19 0,-0.18 c 0,-2.39 1.4,-3.79 1.5,-3.93 1.6,-1.65 2,-1.85 5.8,-3.24 l 6,-2.34 c 0.7,-0.35 1.7,-0.7 1.7,-2.15 0,-1.14 -0.9,-2.64 -2.4,-2.64 -2.2,0 -3.8,1.2 -4.4,1.6 -0.3,0.2 -0.3,0.25 -0.5,0.25 -0.4,0 -0.5,-0.35 -0.5,-0.55 0,-0.6 2.6,-2.39 5.4,-2.39 3.1,0 5.2,2.89 5.2,5.33 0,2.39 -1.9,3.29 -2.4,3.54 -0.7,0.24 -2.4,0.89 -3.1,1.14 -1,0.4 -1.9,0.8 -3,1.15 l -3,1.19 c -2.2,0.9 -3.7,2.34 -3.7,4.43 0,2.05 1.9,6.38 6.1,8.47 1.9,-0.65 3.4,-0.65 4.4,-0.65 l 0.1,1.1 c -1.1,0 -1.5,0 -2.4,0.4 h 0 5.6 c -0.4,-0.2 -0.9,-0.4 -3.2,-0.4 l -0.1,-1.1 c 1.5,0 4.6,0 4.6,1.55 0,1.24 -2.1,1.35 -4,1.35 -1,0 -2.4,0 -4.2,-0.6 -1.3,1.29 -1.5,2.94 -1.5,3.88 0,2.79 1.8,6.63 5.5,8.47 0.9,-1.09 2,-1.09 3.2,-1.09 l 0,1.09 c -0.9,0 -1.5,0 -2.1,0.45 h 0 c 0.8,0.25 1.9,0.25 2.4,0.25 1.7,0 1.9,-0.05 2.8,-0.3 -0.4,-0.15 -0.9,-0.4 -3.1,-0.4 l 0,-1.09 c 1.2,0 4.4,0 4.4,1.54 0,1.3 -2.2,1.35 -4.1,1.35 -0.7,0 -1.9,0 -3.2,-0.25 v 3.48 c 0,0.4 -0.2,0.65 -0.6,0.65 -0.9,0 -0.9,-2.29 -0.9,-2.44 0,-1 0.4,-1.74 0.4,-1.94 -5.3,-1.5 -8.7,-5.48 -8.7,-9.32 0,-1.84 0.9,-3.93 3.2,-5.28 z"
             inkscape:connector-curvature="0"
             style="fill:#000000;stroke-width:0" /><path
             id="path4579"
             d="m 1251.7,361.18 0,0.04 0,0.04 0,0.04 0,0.04 0,0.04 0,0.04 0,0.03 0,0.04 0,0.03 0,0.03 0,0.04 0,0.03 0,0.02 0,0.03 0,0.03 0,0.03 -0.1,0.02 0,0.02 0,0.05 0,0.04 0,0.04 0,0.03 0,0.03 -0.1,0.03 0,0.03 0,0.02 0,0.02 -0.1,0.02 0,0.01 0,0.01 -0.1,0.02 0,0 -0.1,0.01 0,0 0,0.01 0,0 -0.1,0 0,0 0,0 -0.1,0.01 0,0 0,0 -0.1,0 0,0 0,0 -0.1,0 0,0 -0.1,0 0,0 -0.1,0 c -2.2,-2.19 -5.4,-2.23 -6.8,-2.23 v -1.25 c 0.8,0 3.1,0 5.1,0.97 v -17.78 c 0,-1.15 0,-1.61 -3.5,-1.61 H 1244 V 339 h 12.5 v 1.25 h -1.3 c -3.5,0 -3.5,0.46 -3.5,1.61 z"
             inkscape:connector-curvature="0"
             style="fill:#000000;stroke-width:0" /></g>      </g>
      <g
         transform="matrix(0.71784928,0,0,0.83751682,-417.34268,-266.02404)"
         id="g4605">
        <g
           style="font-style:normal;font-variant:normal;font-weight:normal;font-stretch:normal;letter-spacing:normal;word-spacing:normal;text-anchor:start;fill:none;stroke:#000000;stroke-linecap:butt;stroke-linejoin:miter;stroke-miterlimit:10.43299961;stroke-opacity:1;stroke-dasharray:none;stroke-dashoffset:0"
           id="g4607"
           transform="matrix(1.0629921,0,0,-1.0629921,-186.02362,789.27165)"
           xml:space="preserve"
           stroke-miterlimit="10.433"
           font-style="normal"
           font-variant="normal"
           font-weight="normal"
           font-stretch="normal"
           font-size-adjust="none"
           letter-spacing="normal"
           word-spacing="normal"><path
             style="fill:#000000;stroke-width:0"
             inkscape:connector-curvature="0"
             d="m 1225.7,361.24 -0.5,-0.34 -0.5,-0.34 -0.4,-0.35 -0.5,-0.36 -0.4,-0.35 -0.3,-0.36 -0.4,-0.37 -0.3,-0.36 -0.4,-0.37 -0.3,-0.36 -0.2,-0.36 -0.3,-0.36 -0.2,-0.36 -0.2,-0.36 -0.2,-0.35 -0.2,-0.35 -0.2,-0.34 -0.2,-0.34 -0.1,-0.33 -0.1,-0.32 -0.1,-0.32 -0.1,-0.3 -0.1,-0.3 -0.1,-0.29 -0.1,-0.27 0,-0.26 -0.1,-0.25 0,-0.24 0,-0.22 0,-0.21 -0.1,-0.19 0,-0.18 c 0,-2.39 1.4,-3.79 1.5,-3.93 1.6,-1.65 2,-1.85 5.8,-3.24 l 6,-2.34 c 0.7,-0.35 1.7,-0.7 1.7,-2.15 0,-1.14 -0.9,-2.64 -2.4,-2.64 -2.2,0 -3.8,1.2 -4.4,1.6 -0.3,0.2 -0.3,0.25 -0.5,0.25 -0.4,0 -0.5,-0.35 -0.5,-0.55 0,-0.6 2.6,-2.39 5.4,-2.39 3.1,0 5.2,2.89 5.2,5.33 0,2.39 -1.9,3.29 -2.4,3.54 -0.7,0.24 -2.4,0.89 -3.1,1.14 -1,0.4 -1.9,0.8 -3,1.15 l -3,1.19 c -2.2,0.9 -3.7,2.34 -3.7,4.43 0,2.05 1.9,6.38 6.1,8.47 1.9,-0.65 3.4,-0.65 4.4,-0.65 l 0.1,1.1 c -1.1,0 -1.5,0 -2.4,0.4 h 0 5.6 c -0.4,-0.2 -0.9,-0.4 -3.2,-0.4 l -0.1,-1.1 c 1.5,0 4.6,0 4.6,1.55 0,1.24 -2.1,1.35 -4,1.35 -1,0 -2.4,0 -4.2,-0.6 -1.3,1.29 -1.5,2.94 -1.5,3.88 0,2.79 1.8,6.63 5.5,8.47 0.9,-1.09 2,-1.09 3.2,-1.09 l 0,1.09 c -0.9,0 -1.5,0 -2.1,0.45 h 0 c 0.8,0.25 1.9,0.25 2.4,0.25 1.7,0 1.9,-0.05 2.8,-0.3 -0.4,-0.15 -0.9,-0.4 -3.1,-0.4 l 0,-1.09 c 1.2,0 4.4,0 4.4,1.54 0,1.3 -2.2,1.35 -4.1,1.35 -0.7,0 -1.9,0 -3.2,-0.25 v 3.48 c 0,0.4 -0.2,0.65 -0.6,0.65 -0.9,0 -0.9,-2.29 -0.9,-2.44 0,-1 0.4,-1.74 0.4,-1.94 -5.3,-1.5 -8.7,-5.48 -8.7,-9.32 0,-1.84 0.9,-3.93 3.2,-5.28 z"
             id="path4609" /><path
             style="fill:#000000;stroke-width:0"
             inkscape:connector-curvature="0"
             d="m 1257.6,345.35 h -1.2 c -0.1,-0.77 -0.4,-2.83 -0.9,-3.18 -0.3,-0.21 -2.9,-0.21 -3.4,-0.21 h -6.4 c 3.6,3.25 4.8,4.22 6.9,5.86 2.6,2.06 5,4.22 5,7.54 0,4.21 -3.7,6.79 -8.2,6.79 -4.3,0 -7.2,-3.03 -7.2,-6.24 0,-1.78 1.5,-1.95 1.8,-1.95 0.9,0 1.9,0.59 1.9,1.85 0,0.62 -0.2,1.85 -2.1,1.85 1.1,2.47 3.5,3.24 5.1,3.24 3.5,0 5.3,-2.72 5.3,-5.54 0,-3.04 -2.1,-5.45 -3.3,-6.7 l -8.3,-8.3 c -0.4,-0.31 -0.4,-0.38 -0.4,-1.36 h 14.4 z"
             id="path4611" /></g>      </g>
    </g>
    <path
       style="fill:none;stroke:#00ff00;stroke-width:0;stroke-linecap:butt;stroke-linejoin:miter;stroke-opacity:1;marker-end:url(#Arrow2Lend);stroke-miterlimit:4;stroke-dasharray:none"
       d="m 538.42592,655.96684 -1.98255,1.99028"
       id="path4805"
       inkscape:connector-curvature="0" />
    <path
       sodipodi:type="star"
       style="fill:none;stroke:#00ff00;stroke-width:1;stroke-linecap:round;stroke-linejoin:bevel;stroke-miterlimit:4;stroke-opacity:1;stroke-dasharray:none;stroke-dashoffset:0"
       id="path5779"
       sodipodi:sides="557"
       sodipodi:cx="371.58163"
       sodipodi:cy="474.77478"
       sodipodi:r1="205.24405"
       sodipodi:r2="205.24078"
       sodipodi:arg1="1.0553489"
       sodipodi:arg2="1.0609891"
       inkscape:flatsided="true"
       inkscape:rounded="0"
       inkscape:randomized="0"
       d="m 472.75139,653.35193 -2.02081,1.12985 -2.03344,1.10699 -2.04579,1.08397 -2.05789,1.06083 -2.06972,1.03755 -2.08129,1.01414 -2.09261,0.99059 -2.10364,0.96692 -2.11442,0.94314 -2.12492,0.91922 -2.13515,0.8952 -2.14512,0.87105 -2.1548,0.8468 -2.16422,0.82245 -2.17336,0.79797 -2.18223,0.77341 -2.19081,0.74874 -2.19911,0.72399 -2.20714,0.69913 -2.21489,0.67419 -2.22235,0.64916 -2.22954,0.62406 -2.23643,0.59886 -2.24304,0.5736 -2.24937,0.54826 -2.25542,0.52285 -2.26116,0.49738 -2.26664,0.47184 -2.27181,0.44624 -2.2767,0.42058 -2.2813,0.39488 -2.28561,0.36912 -2.28963,0.34331 -2.29335,0.31747 -2.29679,0.29157 -2.29994,0.26565 -2.30278,0.23969 -2.30534,0.2137 -2.3076,0.18768 -2.30958,0.16163 -2.31125,0.13558 -2.31263,0.10949 -2.31372,0.0834 -2.31452,0.0573 -2.31501,0.0312 -2.31522,0.005 -2.31513,-0.021 -2.31474,-0.0472 -2.31406,-0.0733 -2.31309,-0.0994 -2.31183,-0.12545 -2.31026,-0.15153 -2.3084,-0.17757 -2.30625,-0.2036 -2.30381,-0.22961 -2.30108,-0.25557 -2.29804,-0.28152 -2.29472,-0.30742 -2.29111,-0.33329 -2.28721,-0.35911 -2.28301,-0.38488 -2.27852,-0.41062 -2.27374,-0.43629 -2.26868,-0.46191 -2.26332,-0.48747 -2.25768,-0.51298 -2.25175,-0.5384 -2.24553,-0.56378 -2.23903,-0.58906 -2.23225,-0.61429 -2.22517,-0.63943 -2.21782,-0.66448 -2.21018,-0.68947 -2.20227,-0.71434 -2.19406,-0.73915 -2.18559,-0.76385 -2.17683,-0.78845 -2.1678,-0.81296 -2.1585,-0.83736 -2.14891,-0.86165 -2.13905,-0.88584 -2.12892,-0.90991 -2.11853,-0.93387 -2.10785,-0.95771 -2.09692,-0.98142 -2.08572,-1.00502 -2.07424,-1.02847 -2.06252,-1.05181 -2.05051,-1.07501 -2.03826,-1.09807 -2.02575,-1.12099 -2.01297,-1.14377 -1.99994,-1.16641 -1.98665,-1.18889 -1.97312,-1.21122 -1.95933,-1.23341 -1.94529,-1.25543 -1.93101,-1.27729 -1.91647,-1.29899 -1.90171,-1.32053 -1.88668,-1.34189 -1.87143,-1.3631 -1.85593,-1.38411 -1.8402,-1.40496 -1.82424,-1.42563 -1.80804,-1.44612 -1.79161,-1.46642 -1.77495,-1.48654 -1.75808,-1.50646 -1.74097,-1.5262 -1.72364,-1.54574 -1.7061,-1.56509 -1.68833,-1.58423 -1.67036,-1.60318 -1.65216,-1.62191 -1.63377,-1.64045 -1.61516,-1.65877 -1.59634,-1.67689 -1.57732,-1.69479 -1.55811,-1.71247 -1.53869,-1.72994 -1.51908,-1.74718 -1.49928,-1.76421 -1.47928,-1.78101 -1.45909,-1.79758 -1.43873,-1.81393 -1.41817,-1.83004 -1.39744,-1.84592 -1.37652,-1.86157 -1.35545,-1.87698 -1.33418,-1.89214 -1.31275,-1.90708 -1.29116,-1.92176 -1.2694,-1.93621 -1.24747,-1.9504 -1.2254,-1.96435 -1.20316,-1.97804 -1.18077,-1.9915 -1.15823,-2.00468 -1.13555,-2.01762 -1.11271,-2.03031 -1.08974,-2.04272 -1.06663,-2.05489 -1.04338,-2.06679 -1.02,-2.07842 -0.99649,-2.0898 -0.97285,-2.10091 -0.9491,-2.11175 -0.92521,-2.12232 -0.90121,-2.13262 -0.8771,-2.14265 -0.85288,-2.15241 -0.82854,-2.1619 -0.8041,-2.1711 -0.77956,-2.18003 -0.75492,-2.18869 -0.73018,-2.19706 -0.70536,-2.20517 -0.68043,-2.21297 -0.65543,-2.22052 -0.63034,-2.22776 -0.60516,-2.23473 -0.57993,-2.24142 -0.5546,-2.24782 -0.52921,-2.25393 -0.50375,-2.25975 -0.47823,-2.2653 -0.45264,-2.27054 -0.42701,-2.27551 -0.40131,-2.28017 -0.37556,-2.28456 -0.34977,-2.28865 -0.32393,-2.29245 -0.29805,-2.29596 -0.27214,-2.29918 -0.24618,-2.3021 -0.2202,-2.30472 -0.19418,-2.30707 -0.16815,-2.30911 -0.14209,-2.31086 -0.11602,-2.31231 -0.0899,-2.31348 -0.0638,-2.31434 -0.0377,-2.31492 -0.0116,-2.31519 0.0145,-2.31518 0.0406,-2.31487 0.0667,-2.31426 0.0928,-2.31336 0.11893,-2.31217 0.14501,-2.31068 0.17106,-2.30889 0.1971,-2.30682 0.22311,-2.30445 0.24908,-2.30179 0.27504,-2.29883 0.30095,-2.29558 0.32682,-2.29204 0.35266,-2.2882 0.37844,-2.28409 0.40419,-2.27967 0.42988,-2.27496 0.45551,-2.26997 0.48109,-2.26469 0.5066,-2.25912 0.53206,-2.25326 0.55743,-2.24711 0.58275,-2.24069 0.60799,-2.23396 0.63315,-2.22697 0.65823,-2.21968 0.68323,-2.21212 0.70813,-2.20427 0.73296,-2.19614 0.75768,-2.18774 0.78231,-2.17904 0.80684,-2.17009 0.83127,-2.16084 0.85559,-2.15134 0.87981,-2.14154 0.9039,-2.13148 0.92789,-2.12115 0.95176,-2.11055 0.9755,-2.09968 0.99913,-2.08854 1.02263,-2.07714 1.04599,-2.06547 1.06922,-2.05354 1.09231,-2.04135 1.11528,-2.02889 1.13809,-2.01619 1.16076,-2.00322 1.18328,-1.99 1.20566,-1.97653 1.22787,-1.9628 1.24994,-1.94882 1.27184,-1.9346 1.29358,-1.92014 1.31516,-1.90541 1.33657,-1.89046 1.35781,-1.87527 1.37888,-1.85983 1.39976,-1.84415 1.42048,-1.82825 1.44102,-1.81211 1.46136,-1.79574 1.48152,-1.77914 1.5015,-1.76232 1.52129,-1.74527 1.54087,-1.72799 1.56027,-1.7105 1.57946,-1.6928 1.59846,-1.67487 1.61725,-1.65673 1.63584,-1.63839 1.65421,-1.61983 1.67238,-1.60106 1.69033,-1.5821 1.70807,-1.56293 1.72559,-1.54357 1.7429,-1.524 1.75997,-1.50424 1.77683,-1.4843 1.79346,-1.46416 1.80986,-1.44383 1.82604,-1.42333 1.84197,-1.40264 1.85768,-1.38177 1.87315,-1.36073 1.88837,-1.33951 1.90337,-1.31813 1.91811,-1.29657 1.93262,-1.27485 1.94688,-1.25297 1.96088,-1.23093 1.97465,-1.20874 1.98815,-1.18638 2.00141,-1.16388 2.01441,-1.14123 2.02716,-1.11843 2.03964,-1.0955 2.05188,-1.07242 2.06383,-1.0492 2.07555,-1.02586 2.08698,-1.00238 2.09815,-0.97878 2.10907,-0.95504 2.1197,-0.9312 2.13007,-0.90722 2.14017,-0.88314 2.15,-0.85894 2.15954,-0.83464 2.16883,-0.81022 2.17783,-0.7857 2.18655,-0.76109 2.19499,-0.73638 2.20317,-0.71157 2.21105,-0.68667 2.21865,-0.66168 2.22598,-0.63662 2.23302,-0.61147 2.23977,-0.58624 2.24624,-0.56094 2.25243,-0.53556 2.25833,-0.51013 2.26393,-0.48461 2.26926,-0.45905 2.27429,-0.43342 2.27904,-0.40774 2.28349,-0.382 2.28766,-0.35623 2.29153,-0.33039 2.29511,-0.30452 2.29839,-0.27862 2.3014,-0.25267 2.3041,-0.2267 2.30651,-0.20069 2.30862,-0.17466 2.31045,-0.14861 2.31198,-0.12253 2.31321,-0.0964 2.31416,-0.0704 2.3148,-0.0442 2.31515,-0.0181 2.31521,0.008 2.31497,0.0341 2.31444,0.0602 2.31362,0.0863 2.31249,0.11241 2.31108,0.13849 2.30937,0.16455 2.30736,0.19059 2.30507,0.21661 2.30248,0.24259 2.2996,0.26855 2.29642,0.29448 2.29295,0.32036 2.28919,0.3462 2.28514,0.372 2.2808,0.39776 2.27617,0.42346 2.27125,0.44911 2.26603,0.4747 2.26054,0.50023 2.25475,0.5257 2.24868,0.55109 2.24232,0.57643 2.23567,0.60169 2.22875,0.62687 2.22153,0.65196 2.21403,0.67699 2.20626,0.70191 2.1982,0.72676 2.18986,0.75151 2.18125,0.77617 2.17235,0.80071 2.16318,0.82518 2.15373,0.84952 2.14402,0.87376 2.13402,0.89789 2.12376,0.9219 2.11323,0.9458 2.10242,0.96958 2.09135,0.99324 2.08001,1.01676 2.06841,1.04016 2.05655,1.06343 2.04442,1.08655 2.03203,1.10955 2.01939,1.1324 2.00649,1.15511 1.99333,1.17766 1.97992,1.20008 1.96625,1.22234 1.95234,1.24443 1.93819,1.26638 1.92377,1.28816 1.90912,1.30978 1.89422,1.33124 1.87908,1.35251 1.86371,1.37363 1.8481,1.39456 1.83225,1.41532 1.81617,1.43589 1.79985,1.4563 1.78331,1.4765 1.76654,1.49652 1.74955,1.51636 1.73234,1.53599 1.7149,1.55544 1.69724,1.57468 1.67937,1.59373 1.66129,1.61257 1.64299,1.63121 1.62449,1.64964 1.60577,1.66786 1.58686,1.68586 1.56774,1.70366 1.54843,1.72123 1.52891,1.73859 1.5092,1.75572 1.4893,1.77264 1.46921,1.78933 1.44893,1.80578 1.42847,1.82201 1.40783,1.83801 1.38701,1.85378 1.366,1.8693 1.34483,1.88459 1.32349,1.89964 1.30198,1.91445 1.2803,1.92902 1.25845,1.94333 1.23646,1.95741 1.2143,1.97122 1.19198,1.9848 1.16952,1.99813 1.14691,2.01118 1.12414,2.024 1.10125,2.03654 1.0782,2.04884 1.05502,2.06087 1.03171,2.07264 1.00826,2.08415 0.98469,2.09539 0.96099,2.10636 0.93717,2.11707 0.91322,2.1275 0.88917,2.13767 0.86501,2.14757 0.84072,2.15718 0.81633,2.16653 0.79185,2.17561 0.76725,2.18439 0.74256,2.19291 0.71778,2.20115 0.6929,2.20911 0.66794,2.21678 0.6429,2.22417 0.61776,2.23128 0.59255,2.23811 0.56728,2.24466 0.54191,2.25091 0.51649,2.25687 0.491,2.26256 0.46544,2.26796 0.43984,2.27306 0.41416,2.27788 0.38844,2.2824 0.36267,2.28665 0.33686,2.29058 0.311,2.29424 0.28509,2.29761 0.25916,2.30067 0.2332,2.30345 0.20719,2.30593 0.18117,2.30813 0.15512,2.31002 0.12906,2.31162 0.10297,2.31294 0.0769,2.31394 0.0508,2.31467 0.0247,2.31509 -0.001,2.31523 -0.0276,2.31505 -0.0537,2.31461 -0.0798,2.31384 -0.1059,2.3128 -0.13197,2.31146 -0.15804,2.30983 -0.18408,2.30789 -0.2101,2.30567 -0.2361,2.30316 -0.26207,2.30034 -0.288,2.29724 -0.31389,2.29385 -0.33974,2.29016 -0.36556,2.28618 -0.39132,2.28191 -0.41704,2.27736 -0.4427,2.2725 -0.46831,2.26737 -0.49386,2.26194 -0.51933,2.25622 -0.54476,2.25022 -0.5701,2.24394 -0.59538,2.23736 -0.62058,2.2305 -0.6457,2.22336 -0.67074,2.21594 -0.69569,2.20823 -0.72056,2.20024 -0.74533,2.19197 -0.77,2.18342 -0.79459,2.1746 -0.81907,2.1655 -0.84344,2.15613 -0.86772,2.14647 -0.89186,2.13654 -0.91592,2.12635 -0.93984,2.11589 -0.96364,2.10514 -0.98733,2.09415 -1.0109,2.08287 -1.03432,2.07134 -1.05762,2.05954 -1.08079,2.04747 -1.10381,2.03516 -1.1267,2.02257 -1.14945,2.00974 -1.17204,1.99664 -1.19448,1.9833 -1.21679,1.96969 -1.23892,1.95584 -1.26091,1.94175 -1.28273,1.92739 -1.3044,1.91281 -1.32588,1.89797 -1.34721,1.88289 -1.36837,1.86758 -1.38934,1.85202 -1.41015,1.83623 -1.43077,1.82021 -1.45121,1.80395 -1.47146,1.78747 -1.49154,1.77076 -1.51142,1.75382 -1.5311,1.73666 -1.55059,1.71927 -1.5699,1.70168 -1.58898,1.68386 -1.60788,1.66583 -1.62657,1.64758 -1.64505,1.62914 -1.66332,1.61047 -1.68138,1.59161 -1.69923,1.57254 -1.71686,1.55327 -1.73427,1.53381 -1.75146,1.51414 -1.76843,1.4943 -1.78518,1.47425 -1.80169,1.45402 -1.81798,1.4336 -1.83403,1.413 -1.84985,1.39223 -1.86545,1.37127 -1.88079,1.35015 -1.8959,1.32884 -1.91077,1.30737 -1.9254,1.28573 -1.93977,1.26393 -1.95391,1.24197 -1.9678,1.21985 -1.98143,1.19758 -1.99482,1.17515 z"
       inkscape:transform-center-x="0.001267048"
       inkscape:transform-center-y="-0.00036524865" />
    <path
       sodipodi:type="star"
       style="fill:none;stroke:#00ff00;stroke-width:1;stroke-linecap:round;stroke-linejoin:bevel;stroke-miterlimit:4;stroke-opacity:1;stroke-dasharray:none;stroke-dashoffset:0"
       id="path5781"
       sodipodi:sides="557"
       sodipodi:cx="371.58163"
       sodipodi:cy="474.77478"
       sodipodi:r1="142.95762"
       sodipodi:r2="142.95535"
       sodipodi:arg1="0.93398721"
       sodipodi:arg2="0.93962741"
       inkscape:flatsided="true"
       inkscape:rounded="0"
       inkscape:randomized="0"
       d="m 456.58896,589.71232 -1.30192,0.95158 -1.31258,0.93684 -1.32306,0.92197 -1.33337,0.90699 -1.34352,0.89189 -1.3535,0.87668 -1.36329,0.86136 -1.37293,0.84592 -1.38239,0.83038 -1.39166,0.81473 -1.40076,0.79899 -1.40969,0.78313 -1.41843,0.76719 -1.42699,0.75113 -1.43538,0.73499 -1.44358,0.71875 -1.45159,0.70242 -1.45942,0.686 -1.46707,0.6695 -1.47453,0.6529 -1.4818,0.63623 -1.48888,0.61948 -1.49577,0.60264 -1.50248,0.58573 -1.50899,0.56874 -1.5153,0.55169 -1.52144,0.53456 -1.52736,0.51736 -1.53311,0.5001 -1.53865,0.48277 -1.544,0.46539 -1.54915,0.44794 -1.5541,0.43044 -1.55886,0.41288 -1.56342,0.39527 -1.56778,0.37761 -1.57193,0.3599 -1.5759,0.34215 -1.57966,0.32435 -1.58321,0.30651 -1.58657,0.28863 -1.58973,0.27071 -1.59268,0.25277 -1.59543,0.23478 -1.59797,0.21677 -1.60032,0.19874 -1.60246,0.18066 -1.60439,0.16258 -1.60613,0.14448 -1.60765,0.12634 -1.60898,0.10821 -1.6101,0.09 -1.61101,0.0719 -1.61171,0.0537 -1.61222,0.0355 -1.61252,0.0173 -1.61261,-8.6e-4 -1.6125,-0.019 -1.61218,-0.0372 -1.61166,-0.0554 -1.61093,-0.0736 -1.61,-0.0918 -1.60886,-0.10992 -1.60752,-0.12806 -1.60597,-0.14619 -1.60422,-0.16429 -1.60227,-0.18238 -1.6001,-0.20044 -1.59774,-0.21848 -1.59518,-0.23648 -1.59241,-0.25447 -1.58943,-0.27241 -1.58627,-0.29032 -1.58288,-0.3082 -1.57931,-0.32604 -1.57553,-0.34382 -1.57156,-0.36158 -1.56737,-0.37929 -1.56299,-0.39693 -1.55842,-0.41455 -1.55365,-0.4321 -1.54867,-0.44959 -1.5435,-0.46704 -1.53813,-0.48441 -1.53257,-0.50174 -1.52682,-0.51899 -1.52086,-0.53619 -1.51472,-0.5533 -1.50838,-0.57035 -1.50185,-0.58734 -1.49513,-0.60423 -1.48822,-0.62107 -1.48111,-0.63781 -1.47383,-0.65448 -1.46636,-0.67106 -1.45869,-0.68756 -1.45084,-0.70397 -1.44281,-0.72029 -1.43459,-0.73652 -1.42619,-0.75266 -1.41761,-0.76869 -1.40885,-0.78464 -1.39991,-0.80048 -1.39079,-0.81622 -1.3815,-0.83186 -1.37202,-0.84739 -1.36238,-0.86281 -1.35256,-0.87812 -1.34257,-0.89332 -1.3324,-0.90841 -1.32207,-0.92339 -1.31158,-0.93824 -1.3009,-0.95297 -1.29008,-0.96759 -1.27907,-0.98207 -1.26792,-0.99645 -1.2566,-1.01068 -1.24512,-1.02479 -1.23347,-1.03878 -1.22169,-1.05262 -1.20973,-1.06633 -1.19762,-1.07991 -1.18537,-1.09336 -1.17296,-1.10665 -1.1604,-1.11981 -1.14769,-1.13284 -1.13484,-1.14571 -1.12185,-1.15843 -1.10871,-1.17102 -1.09543,-1.18345 -1.08201,-1.19573 -1.06845,-1.20786 -1.05476,-1.21983 -1.04093,-1.23166 -1.02698,-1.24332 -1.01288,-1.25482 -0.99866,-1.26617 -0.98432,-1.27735 -0.96985,-1.28838 -0.95525,-1.29923 -0.94054,-1.30993 -0.92569,-1.32045 -0.91075,-1.33081 -0.89568,-1.341 -0.88049,-1.35102 -0.86519,-1.36086 -0.8498,-1.37054 -0.83427,-1.38004 -0.81866,-1.38936 -0.80293,-1.3985 -0.78711,-1.40747 -0.77118,-1.41626 -0.75515,-1.42488 -0.73903,-1.43329 -0.72282,-1.44155 -0.70651,-1.4496 -0.69012,-1.45749 -0.67363,-1.46517 -0.65706,-1.47268 -0.64041,-1.48 -0.62367,-1.48713 -0.60686,-1.49407 -0.58996,-1.50081 -0.573,-1.50738 -0.55595,-1.51375 -0.53885,-1.51992 -0.52167,-1.5259 -0.50442,-1.53169 -0.48711,-1.53728 -0.46974,-1.54268 -0.45231,-1.54788 -0.43482,-1.55289 -0.41728,-1.55769 -0.39968,-1.56229 -0.38202,-1.56671 -0.36434,-1.57092 -0.34659,-1.57492 -0.3288,-1.57874 -0.31097,-1.58234 -0.2931,-1.58575 -0.2752,-1.58896 -0.25726,-1.59196 -0.23928,-1.59476 -0.22128,-1.59735 -0.20324,-1.59976 -0.18519,-1.60194 -0.1671,-1.60393 -0.149,-1.60571 -0.13088,-1.60729 -0.11274,-1.60867 -0.0946,-1.60983 -0.0764,-1.6108 -0.0583,-1.61156 -0.0401,-1.61212 -0.0219,-1.61246 -0.004,-1.61261 0.0145,-1.61254 0.0327,-1.61228 0.0509,-1.61181 0.0691,-1.61113 0.0872,-1.61025 0.10538,-1.60917 0.12353,-1.60787 0.14166,-1.60638 0.15976,-1.60467 0.17786,-1.60278 0.19593,-1.60066 0.21397,-1.59836 0.23199,-1.59583 0.24997,-1.59312 0.26793,-1.5902 0.28585,-1.58707 0.30373,-1.58375 0.32158,-1.58023 0.33939,-1.57649 0.35714,-1.57257 0.37486,-1.56843 0.39253,-1.56411 0.41015,-1.55958 0.42771,-1.55486 0.44523,-1.54993 0.46268,-1.54481 0.48008,-1.53949 0.49741,-1.53398 0.51469,-1.52828 0.53189,-1.52237 0.54903,-1.51627 0.5661,-1.50998 0.58309,-1.5035 0.60002,-1.49683 0.61686,-1.48996 0.63364,-1.48291 0.65032,-1.47567 0.66692,-1.46824 0.68344,-1.46063 0.69988,-1.45282 0.71622,-1.44483 0.73247,-1.43666 0.74863,-1.42831 0.7647,-1.41978 0.78066,-1.41105 0.79653,-1.40217 0.81229,-1.39308 0.82796,-1.38384 0.84351,-1.37441 0.85897,-1.3648 0.8743,-1.35503 0.88954,-1.34508 0.90465,-1.33497 0.91965,-1.32467 0.93454,-1.31421 0.9493,-1.30359 0.96394,-1.2928 0.97847,-1.28184 0.99286,-1.27072 1.00714,-1.25945 1.02127,-1.248 1.03529,-1.2364 1.04917,-1.22464 1.06292,-1.21274 1.07653,-1.20066 1.09001,-1.18845 1.10334,-1.17607 1.11654,-1.16356 1.12959,-1.15088 1.1425,-1.13807 1.15527,-1.12511 1.16789,-1.11201 1.18035,-1.09876 1.19268,-1.08538 1.20484,-1.07185 1.21685,-1.0582 1.22872,-1.0444 1.24042,-1.03047 1.25196,-1.01642 1.26335,-1.00223 1.27457,-0.98792 1.28564,-0.97347 1.29653,-0.95892 1.30727,-0.94422 1.31784,-0.92942 1.32823,-0.9145 1.33847,-0.89945 1.34853,-0.8843 1.35842,-0.86903 1.36813,-0.85365 1.37768,-0.83817 1.38705,-0.82257 1.39623,-0.80687 1.40525,-0.79107 1.41408,-0.77517 1.42274,-0.75917 1.4312,-0.74308 1.4395,-0.72688 1.44761,-0.71059 1.45553,-0.69423 1.46327,-0.67776 1.47082,-0.66121 1.47819,-0.64458 1.48536,-0.62786 1.49235,-0.61107 1.49915,-0.59419 1.50576,-0.57725 1.51217,-0.56022 1.5184,-0.54313 1.52442,-0.52597 1.53026,-0.50874 1.5359,-0.49145 1.54135,-0.47408 1.5466,-0.45668 1.55165,-0.43919 1.55651,-0.42167 1.56116,-0.40408 1.56562,-0.38645 1.56989,-0.36876 1.57394,-0.35103 1.5778,-0.33325 1.58146,-0.31543 1.58492,-0.29758 1.58817,-0.27968 1.59123,-0.26174 1.59408,-0.24378 1.59673,-0.22578 1.59917,-0.20776 1.60141,-0.1897 1.60346,-0.17163 1.60528,-0.15352 1.60692,-0.13542 1.60834,-0.11727 1.60956,-0.0991 1.61058,-0.081 1.61139,-0.0628 1.61199,-0.0446 1.6124,-0.0264 1.61259,-0.008 1.61258,0.01 1.61236,0.0281 1.61195,0.0463 1.61132,0.0645 1.61049,0.0827 1.60945,0.10085 1.60822,0.11899 1.60677,0.13713 1.60512,0.15524 1.60327,0.17334 1.60121,0.19141 1.59895,0.20946 1.59649,0.22749 1.59381,0.24548 1.59095,0.26344 1.58787,0.28138 1.5846,0.29926 1.58113,0.31712 1.57744,0.33494 1.57357,0.35271 1.56949,0.37043 1.56521,0.38812 1.56073,0.40575 1.55605,0.42333 1.55118,0.44085 1.54611,0.45832 1.54085,0.47574 1.53537,0.49308 1.52972,0.51038 1.52386,0.52759 1.51782,0.54475 1.51157,0.56184 1.50514,0.57885 1.49851,0.5958 1.4917,0.61266 1.48469,0.62945 1.4775,0.64615 1.47012,0.66278 1.46254,0.67932 1.45479,0.69578 1.44685,0.71214 1.43872,0.72842 1.43041,0.7446 1.42193,0.76069 1.41325,0.77668 1.4044,0.79257 1.39538,0.80836 1.38616,0.82405 1.37678,0.83964 1.36723,0.85511 1.35749,0.87048 1.34758,0.88574 1.33751,0.90088 1.32726,0.91591 1.31684,0.93083 1.30626,0.94562 1.29551,0.96029 1.2846,0.97485 1.27352,0.98928 1.26228,1.00358 1.25087,1.01775 1.23932,1.0318 1.2276,1.04571 1.21572,1.0595 1.2037,1.07314 1.19151,1.08665 1.17919,1.10002 1.16669,1.11325 1.15407,1.12634 1.14129,1.13929 1.12836,1.15209 1.1153,1.16475 1.10208,1.17725 1.08874,1.18961 1.07525,1.20181 1.06162,1.21387 1.04786,1.22576 1.03397,1.23751 1.01995,1.24909 1.00579,1.26052 0.9915,1.27178 0.9771,1.28288 0.96257,1.29383 0.9479,1.3046 0.93314,1.31521 0.91823,1.32565 0.90323,1.33593 0.8881,1.34603 0.87285,1.35596 0.85751,1.36573 0.84205,1.3753 0.82648,1.38472 0.81081,1.39396 0.79503,1.40301 0.77915,1.41189 0.76318,1.42059 0.74711,1.4291 0.73094,1.43745 0.71467,1.44559 0.69833,1.45357 0.68188,1.46135 0.66536,1.46895 0.64874,1.47637 0.63205,1.48358 0.61527,1.49063 0.59842,1.49746 0.58149,1.50413 0.56449,1.51058 0.54741,1.51686 0.53027,1.52294 0.51305,1.52882 0.49577,1.53451 0.47844,1.54 0.46103,1.54531 0.44357,1.5504 0.42606,1.55531 0.40848,1.56002 0.39086,1.56453 0.37318,1.56883 0.35547,1.57295 0.3377,1.57686 0.31989,1.58056 0.30205,1.58407 0.28415,1.58738 0.26623,1.59048 0.24827,1.59339 0.23029,1.59608 0.21226,1.59858 0.19422,1.60088 0.17615,1.60296 0.15806,1.60485 0.13994,1.60652 0.12181,1.60801 0.10367,1.60927 0.0855,1.61035 0.0673,1.6112 0.0492,1.61186 0.031,1.61232 0.0128,1.61256 -0.005,1.6126 -0.0236,1.61244 -0.0418,1.61207 -0.06,1.61149 -0.0781,1.61072 -0.0963,1.60973 -0.11446,1.60855 -0.13259,1.60715 -0.15072,1.60555 -0.16881,1.60375 -0.1869,1.60175 -0.20495,1.59953 -0.22299,1.59712 -0.24098,1.59451 -0.25896,1.59168 -0.27689,1.58866 -0.29479,1.58544 -0.31267,1.58201 -0.33048,1.57838 -0.34827,1.57456 -0.36601,1.57052 -0.3837,1.5663 -0.40135,1.56187 -0.41894,1.55724 -0.43647,1.55242 -0.45396,1.5474 -0.47139,1.54218 -0.48875,1.53676 -0.50606,1.53115 -0.5233,1.52534 -0.54047,1.51935 -0.55757,1.51315 -0.5746,1.50676 -0.59157,1.50019 -0.60845,1.49342 -0.62526,1.48646 -0.64199,1.47932 -0.65863,1.47197 -0.67519,1.46446 -0.69167,1.45674 -0.70806,1.44886 -0.72436,1.44077 -0.74056,1.43251 -0.75668,1.42406 -0.77269,1.41544 -0.78861,1.40663 -0.80442,1.39765 -0.82014,1.38848 -0.83575,1.37914 -0.85125,1.36963 -0.86665,1.35994 -0.88193,1.35008 -0.89711,1.34004 -0.91217,1.32984 -0.92711,1.31946 -0.94193,1.30893 -0.95664,1.29821 -0.97122,1.28734 -0.98568,1.2763 -1.00001,1.2651 -1.01423,1.25375 -1.0283,1.24222 -1.04224,1.23054 -1.05606,1.21871 -1.06975,1.20672 -1.08328,1.19457 -1.09669,1.18228 -1.10996,1.16983 -1.12308,1.15724 -1.13607,1.1445 -1.1489,1.1316 -1.1616,1.11858 -1.17414,1.1054 -1.18653,1.09209 -1.19878,1.07863 -1.21086,1.06504 -1.22281,1.05132 -1.23458,1.03746 -1.24621,1.02346 -1.25768,1.00934 -1.26898,0.99509 -1.28013,0.98071 z"
       inkscape:transform-center-x="-0.0002151781"
       inkscape:transform-center-y="-0.00092175732" />
    <path
       sodipodi:type="star"
       style="fill:none;stroke:#00ff00;stroke-width:1;stroke-linecap:round;stroke-linejoin:bevel;stroke-miterlimit:4;stroke-opacity:1;stroke-dasharray:none;stroke-dashoffset:0"
       id="path5783"
       sodipodi:sides="557"
       sodipodi:cx="371.58163"
       sodipodi:cy="474.77478"
       sodipodi:r1="55.66871"
       sodipodi:r2="55.667824"
       sodipodi:arg1="0.78064298"
       sodipodi:arg2="0.78628318"
       inkscape:flatsided="true"
       inkscape:rounded="0"
       inkscape:randomized="0"
       d="m 411.13209,513.95088 -0.44443,0.44364 -0.4494,0.4386 -0.45433,0.43351 -0.45918,0.42835 -0.46399,0.42314 -0.46873,0.41789 -0.47342,0.41257 -0.47804,0.4072 -0.4826,0.40179 -0.4871,0.39631 -0.49155,0.3908 -0.49592,0.38523 -0.50023,0.3796 -0.50448,0.37395 -0.50867,0.36822 -0.5128,0.36247 -0.51684,0.35666 -0.52084,0.3508 -0.52476,0.34491 -0.52862,0.33897 -0.53241,0.33298 -0.53613,0.32695 -0.53979,0.32089 -0.54337,0.31478 -0.54689,0.30863 -0.55033,0.30244 -0.55371,0.29621 -0.55701,0.28995 -0.56026,0.28364 -0.56341,0.27731 -0.56651,0.27094 -0.56953,0.26452 -0.57247,0.25809 -0.57535,0.25161 -0.57815,0.24511 -0.58088,0.23857 -0.58354,0.232 -0.58611,0.2254 -0.58862,0.21878 -0.59105,0.21213 -0.5934,0.20544 -0.59569,0.19874 -0.59789,0.192 -0.60001,0.18525 -0.60207,0.17847 -0.60404,0.17167 -0.60594,0.16484 -0.60777,0.158 -0.6095,0.15113 -0.61117,0.14424 -0.61276,0.13734 -0.61427,0.13042 -0.6157,0.12349 -0.61706,0.11653 -0.61833,0.10956 -0.61952,0.10258 -0.62065,0.0956 -0.62168,0.0886 -0.62264,0.0816 -0.62353,0.0745 -0.62432,0.0675 -0.62505,0.0604 -0.62569,0.0534 -0.62625,0.0463 -0.62673,0.0393 -0.62714,0.0322 -0.62746,0.0251 -0.6277,0.018 -0.62787,0.0109 -0.62795,0.004 -0.62795,-0.003 -0.62788,-0.0103 -0.62772,-0.0174 -0.62749,-0.0245 -0.62717,-0.0315 -0.62677,-0.0386 -0.6263,-0.0457 -0.62574,-0.0527 -0.62511,-0.0598 -0.6244,-0.0668 -0.6236,-0.0739 -0.62273,-0.0809 -0.62177,-0.0879 -0.62075,-0.0949 -0.61963,-0.10193 -0.61845,-0.10892 -0.61718,-0.11588 -0.61583,-0.12284 -0.6144,-0.12977 -0.61291,-0.1367 -0.61132,-0.14361 -0.60966,-0.15049 -0.60793,-0.15735 -0.60611,-0.16421 -0.60422,-0.17103 -0.60226,-0.17784 -0.60021,-0.18462 -0.59809,-0.19137 -0.59589,-0.19812 -0.59362,-0.20482 -0.59127,-0.2115 -0.58885,-0.21816 -0.58635,-0.22479 -0.58378,-0.23139 -0.58113,-0.23796 -0.57841,-0.2445 -0.57561,-0.251 -0.57275,-0.25749 -0.5698,-0.26393 -0.56679,-0.27034 -0.56371,-0.27672 -0.56055,-0.28305 -0.55732,-0.28937 -0.55402,-0.29563 -0.55065,-0.30186 -0.54721,-0.30805 -0.5437,-0.31421 -0.54012,-0.32032 -0.53648,-0.32639 -0.53276,-0.33242 -0.52897,-0.33842 -0.52513,-0.34435 -0.5212,-0.35026 -0.51722,-0.35612 -0.51318,-0.36192 -0.50905,-0.3677 -0.50488,-0.37341 -0.50063,-0.37908 -0.49633,-0.38471 -0.49195,-0.39028 -0.48752,-0.3958 -0.48302,-0.40128 -0.47847,-0.4067 -0.47385,-0.41207 -0.46917,-0.4174 -0.46443,-0.42265 -0.45963,-0.42787 -0.45478,-0.43303 -0.44987,-0.43813 -0.44489,-0.44318 -0.43987,-0.44816 -0.43479,-0.4531 -0.42964,-0.45798 -0.42445,-0.46279 -0.41921,-0.46755 -0.4139,-0.47225 -0.40855,-0.47689 -0.40315,-0.48147 -0.39768,-0.48598 -0.39219,-0.49044 -0.38662,-0.49483 -0.38102,-0.49916 -0.37536,-0.50343 -0.36966,-0.50763 -0.36391,-0.51177 -0.35811,-0.51584 -0.35228,-0.51985 -0.34638,-0.52378 -0.34046,-0.52766 -0.33448,-0.53147 -0.32847,-0.53521 -0.32241,-0.53888 -0.3163,-0.54248 -0.31017,-0.54601 -0.30399,-0.54948 -0.29778,-0.55287 -0.29151,-0.5562 -0.28523,-0.55945 -0.27889,-0.56263 -0.27254,-0.56574 -0.26613,-0.56878 -0.2597,-0.57174 -0.25323,-0.57464 -0.24674,-0.57746 -0.2402,-0.58021 -0.23365,-0.58287 -0.22706,-0.58548 -0.22044,-0.588 -0.21379,-0.59045 -0.20711,-0.59282 -0.20042,-0.59512 -0.19369,-0.59735 -0.18694,-0.59949 -0.18017,-0.60156 -0.17337,-0.60356 -0.16655,-0.60547 -0.1597,-0.60731 -0.15285,-0.60908 -0.14597,-0.61076 -0.13907,-0.61237 -0.13215,-0.6139 -0.12522,-0.61535 -0.11827,-0.61672 -0.11131,-0.61802 -0.10433,-0.61924 -0.0973,-0.62037 -0.0903,-0.62143 -0.0833,-0.62241 -0.0763,-0.62331 -0.0693,-0.62414 -0.0622,-0.62487 -0.0552,-0.62553 -0.0481,-0.62612 -0.041,-0.62662 -0.034,-0.62704 -0.0269,-0.62739 -0.0198,-0.62765 -0.0127,-0.62783 -0.006,-0.62794 0.001,-0.62796 0.009,-0.62791 0.0156,-0.62776 0.0227,-0.62756 0.0298,-0.62725 0.0368,-0.62688 0.0439,-0.62643 0.051,-0.62589 0.058,-0.62527 0.0651,-0.62459 0.0721,-0.6238 0.0792,-0.62296 0.0862,-0.62202 0.0932,-0.62101 0.10018,-0.61992 0.10717,-0.61875 0.11414,-0.6175 0.1211,-0.61617 0.12804,-0.61477 0.13497,-0.61329 0.14188,-0.61172 0.14877,-0.61009 0.15565,-0.60837 0.16249,-0.60657 0.16933,-0.6047 0.17614,-0.60276 0.18292,-0.60073 0.18969,-0.59862 0.19643,-0.59645 0.20315,-0.5942 0.20983,-0.59186 0.2165,-0.58946 0.22314,-0.58699 0.22974,-0.58442 0.23632,-0.5818 0.24287,-0.5791 0.24938,-0.57632 0.25587,-0.57347 0.26232,-0.57055 0.26874,-0.56755 0.27513,-0.56448 0.28147,-0.56135 0.28779,-0.55813 0.29407,-0.55485 0.30031,-0.5515 0.30651,-0.54808 0.31267,-0.54458 0.31879,-0.54103 0.32488,-0.53739 0.33092,-0.53369 0.33692,-0.52993 0.34287,-0.52609 0.34879,-0.5222 0.35465,-0.51822 0.36048,-0.51419 0.36626,-0.51009 0.37199,-0.50593 0.37766,-0.5017 0.38331,-0.49741 0.38889,-0.49305 0.39443,-0.48863 0.39991,-0.48416 0.40535,-0.47961 0.41074,-0.47501 0.41607,-0.47034 0.42134,-0.46562 0.42657,-0.46084 0.43175,-0.456 0.43686,-0.4511 0.44192,-0.44614 0.44692,-0.44113 0.45187,-0.43606 0.45676,-0.43094 0.4616,-0.42575 0.46637,-0.42052 0.47108,-0.41524 0.47573,-0.40989 0.48033,-0.4045 0.48486,-0.39906 0.48933,-0.39356 0.49374,-0.38802 0.49809,-0.38242 0.50236,-0.37679 0.50659,-0.37109 0.51074,-0.36535 0.51483,-0.35957 0.51885,-0.35373 0.5228,-0.34787 0.5267,-0.34194 0.53053,-0.33598 0.53427,-0.32997 0.53797,-0.32393 0.54159,-0.31783 0.54514,-0.31171 0.54861,-0.30554 0.55204,-0.29933 0.55537,-0.29309 0.55864,-0.2868 0.56184,-0.28048 0.56497,-0.27413 0.56803,-0.26773 0.57101,-0.26131 0.57392,-0.25486 0.57676,-0.24836 0.57953,-0.24184 0.58221,-0.23529 0.58484,-0.22871 0.58737,-0.22209 0.58984,-0.21546 0.59224,-0.20879 0.59456,-0.20209 0.59679,-0.19537 0.59896,-0.18863 0.60105,-0.18187 0.60307,-0.17507 0.605,-0.16825 0.60686,-0.16142 0.60864,-0.15457 0.61035,-0.14769 0.61198,-0.1408 0.61352,-0.13388 0.615,-0.12695 0.61638,-0.12001 0.61771,-0.11305 0.61893,-0.10608 0.6201,-0.0991 0.62117,-0.0921 0.62218,-0.0851 0.62309,-0.078 0.62393,-0.071 0.6247,-0.064 0.62538,-0.0569 0.62598,-0.0499 0.6265,-0.0428 0.62694,-0.0357 0.62731,-0.0287 0.62759,-0.0216 0.6278,-0.0145 0.62792,-0.007 0.62796,-3.3e-4 0.62792,0.007 0.62781,0.0138 0.62762,0.0209 0.62734,0.028 0.62698,0.0351 0.62654,0.0421 0.62604,0.0492 0.62543,0.0563 0.62476,0.0633 0.62401,0.0704 0.62318,0.0774 0.62226,0.0844 0.62127,0.0914 0.6202,0.0984 0.61905,0.10542 0.61782,0.1124 0.61651,0.11936 0.61513,0.12631 0.61367,0.13324 0.61212,0.14015 0.6105,0.14705 0.60881,0.15393 0.60703,0.16078 0.60517,0.16762 0.60325,0.17444 0.60124,0.18123 0.59916,0.188 0.597,0.19475 0.59477,0.20147 0.59245,0.20817 0.59007,0.21483 0.58761,0.22148 0.58508,0.22809 0.58246,0.23468 0.57978,0.24123 0.57702,0.24776 0.57419,0.25425 0.57128,0.26071 0.56831,0.26714 0.56526,0.27353 0.56213,0.2799 0.55895,0.28621 0.55568,0.2925 0.55234,0.29875 0.54894,0.30496 0.54546,0.31114 0.54192,0.31727 0.53831,0.32336 0.53463,0.32941 0.53087,0.33542 0.52706,0.34139 0.52317,0.34732 0.51922,0.35319 0.51521,0.35903 0.51112,0.36481 0.50698,0.37056 0.50276,0.37625 0.49848,0.3819 0.49415,0.3875 0.48975,0.39305 0.48528,0.39855 0.48075,0.404 0.47616,0.40939 0.47152,0.41474 0.46681,0.42003 0.46204,0.42527 0.45721,0.43046 0.45233,0.43558 0.44739,0.44066 0.44239,0.44568 0.43733,0.45064 0.43222,0.45554 0.42706,0.4604 0.42183,0.46518 0.41656,0.4699 0.41124,0.47458 0.40585,0.47919 0.40042,0.48373 0.39495,0.48822 0.3894,0.49264 0.38383,0.49701 0.3782,0.5013 0.37251,0.50554 0.3668,0.5097 0.36101,0.51381 0.3552,0.51786 0.34934,0.52182 0.34342,0.52573 0.33748,0.52958 0.33148,0.53334 0.32544,0.53705 0.31936,0.54069 0.31325,0.54426 0.30708,0.54775 0.30089,0.55119 0.29465,0.55454 0.28837,0.55783 0.28207,0.56105 0.27572,0.5642 0.26933,0.56727 0.26292,0.57027 0.25648,0.5732 0.24998,0.57605 0.24348,0.57885 0.23693,0.58155 0.23035,0.58418 0.22375,0.58675 0.21712,0.58923 0.21046,0.59165 0.20377,0.59398 0.19706,0.59624 0.19032,0.59843 0.18355,0.60054 0.17677,0.60256 0.16996,0.60453 0.16314,0.6064 0.15628,0.60821 0.14941,0.60992 0.14252,0.61158 0.13561,0.61314 0.12869,0.61464 0.12175,0.61605 0.11479,0.61738 0.10782,0.61863 0.10083,0.61982 0.0938,0.62091 0.0868,0.62193 0.0798,0.62287 0.0728,0.62373 0.0657,0.62451 0.0587,0.62522 0.0516,0.62583 0.0446,0.62638 0.0375,0.62685 0.0304,0.62722 0.0233,0.62753 0.0163,0.62775 0.009,0.6279 0.002,0.62795 -0.005,0.62795 -0.0121,0.62784 -0.0192,0.62767 -0.0262,0.62742 -0.0333,0.62708 -0.0404,0.62666 -0.0474,0.62617 -0.0545,0.62559 -0.0616,0.62494 -0.0686,0.6242 -0.0756,0.62339 -0.0827,0.6225 -0.0897,0.62153 -0.0967,0.62047 -0.10367,0.61934 -0.11066,0.61814 -0.11762,0.61685 -0.12458,0.61548 -0.13151,0.61404 -0.13842,0.61251 -0.14533,0.61092 -0.15221,0.60923 -0.15907,0.60748 -0.16591,0.60565 -0.17274,0.60374 -0.17953,0.60175 -0.18631,0.59969 -0.19307,0.59755 -0.19979,0.59533 -0.20649,0.59304 -0.21317,0.59067 -0.21982,0.58823 -0.22645,0.58571 -0.23303,0.58313 -0.2396,0.58045 -0.24613,0.57772 -0.25263,0.5749 -0.2591,0.57202 -0.26553,0.56906 -0.27194,0.56603 -0.2783,0.56292 -0.28464,0.55975 -0.29093,0.5565 -0.2972,0.55319 -0.30341,0.54979 -0.30959,0.54634 -0.31574,0.54282 -0.32185,0.53921 -0.3279,0.53555 -0.33392,0.53182 -0.3399,0.52802 -0.34584,0.52415 -0.35173,0.52022 -0.35757,0.51621 -0.36337,0.51215 -0.36913,0.50802 -0.37483,0.50382 -0.3805,0.49956 -0.3861,0.49524 -0.39167,0.49085 -0.39717,0.4864 -0.40264,0.48189 -0.40805,0.47732 -0.41341,0.47269 -0.41871,0.46799 -0.42397,0.46324 -0.42916,0.45842 -0.43431,0.45356 z"
       inkscape:transform-center-x="-8.2425722e-005"
       inkscape:transform-center-y="0.00036030497" />
    <path
       style="fill:none;stroke:#00ff00;stroke-width:1px;stroke-linecap:butt;stroke-linejoin:miter;stroke-opacity:1;marker-end:url(#Arrow2Lend)"
       d="m 178.32523,543.88152 -1.87488,-5.47577"
       id="path5785"
       inkscape:connector-curvature="0" />
    <path
       style="fill:none;stroke:#00ff00;stroke-width:1px;stroke-linecap:butt;stroke-linejoin:miter;stroke-opacity:1;marker-end:url(#Arrow2Lend)"
       d="m 505.15395,525.71268 -2.11258,5.23345"
       id="path5975"
       inkscape:connector-curvature="0" />
    <path
       style="fill:none;stroke:#00ff00;stroke-width:1px;stroke-linecap:butt;stroke-linejoin:miter;stroke-opacity:1;marker-end:url(#Arrow2Lend)"
       d="m 346.7174,424.96839 1.98493,-0.94341"
       id="path6165"
       inkscape:connector-curvature="0" />
    <path
       style="fill:none;stroke:#00ff00;stroke-width:1px;stroke-linecap:butt;stroke-linejoin:miter;stroke-opacity:1;marker-end:url(#Arrow2Lend)"
       d="m 280.23167,364.8138 1.24619,-1.02344"
       id="path6355"
       inkscape:connector-curvature="0" />
    <path
       style="fill:none;stroke:#00ff00;stroke-width:1px;stroke-linecap:butt;stroke-linejoin:miter;stroke-opacity:1;marker-end:url(#Arrow2Lend)"
       d="m 417.52208,506.21489 -1.27749,1.78829"
       id="path6545"
       inkscape:connector-curvature="0" />
    <path
       style="fill:none;stroke:#00ff00;stroke-width:0;stroke-linecap:butt;stroke-linejoin:miter;stroke-opacity:1;marker-end:url(#Arrow2Lend);stroke-miterlimit:4;stroke-dasharray:none"
       d="m 444.73177,283.01233 3.23532,1.26211 0,0 0,0"
       id="path6735"
       inkscape:connector-curvature="0" />
    <path
       style="fill:none;stroke:#00ff00;stroke-width:1px;stroke-linecap:butt;stroke-linejoin:miter;stroke-opacity:1;marker-end:url(#Arrow2Lend)"
       d="m 431.59524,278.50419 4.41238,1.40378"
       id="path6925"
       inkscape:connector-curvature="0" />
    <path
       style="fill:none;stroke:#00ff00;stroke-width:1px;stroke-linecap:butt;stroke-linejoin:miter;stroke-opacity:1;marker-end:url(#Arrow2Lend)"
       d="m 478.73558,649.82663 -2.97884,1.78516"
       id="path7115"
       inkscape:connector-curvature="0" />
  </g>
</svg>
