<?xml version="1.0" encoding="UTF-8" standalone="no"?>
<!-- Created with Inkscape (http://www.inkscape.org/) -->

<svg
   xmlns:dc="http://purl.org/dc/elements/1.1/"
   xmlns:cc="http://creativecommons.org/ns#"
   xmlns:rdf="http://www.w3.org/1999/02/22-rdf-syntax-ns#"
   xmlns:svg="http://www.w3.org/2000/svg"
   xmlns="http://www.w3.org/2000/svg"
   xmlns:sodipodi="http://sodipodi.sourceforge.net/DTD/sodipodi-0.dtd"
   xmlns:inkscape="http://www.inkscape.org/namespaces/inkscape"
   width="210mm"
   height="297mm"
   id="svg2"
   version="1.1"
   inkscape:version="0.48.4 r9939"
   sodipodi:docname="lin_sys_2.pdf">
  <sodipodi:namedview
     id="base"
     pagecolor="#ffffff"
     bordercolor="#666666"
     borderopacity="1.0"
     inkscape:pageopacity="0.0"
     inkscape:pageshadow="2"
     inkscape:zoom="2.8"
     inkscape:cx="312.74494"
     inkscape:cy="655.04927"
     inkscape:document-units="px"
     inkscape:current-layer="layer1"
     showgrid="false"
     inkscape:window-width="1920"
     inkscape:window-height="1138"
     inkscape:window-x="-8"
     inkscape:window-y="-8"
     inkscape:window-maximized="1"
     inkscape:object-paths="true"
     inkscape:snap-bbox="true"
     inkscape:bbox-paths="true"
     inkscape:bbox-nodes="true"
     inkscape:snap-bbox-edge-midpoints="true"
     inkscape:snap-bbox-midpoints="false"
     inkscape:snap-grids="true"
     inkscape:snap-to-guides="false"
     inkscape:snap-page="true"
     inkscape:snap-intersection-paths="true" />
  <defs
     id="defs4">
    <marker
       inkscape:stockid="TriangleInL"
       orient="auto"
       refY="0.0"
       refX="0.0"
       id="TriangleInL"
       style="overflow:visible">
      <path
         id="path6607"
         d="M 5.77,0.0 L -2.88,5.0 L -2.88,-5.0 L 5.77,0.0 z "
         style="fill-rule:evenodd;stroke:#000000;stroke-width:1.0pt"
         transform="scale(-0.8)" />
    </marker>
    <marker
       style="overflow:visible"
       id="TriangleOutL"
       refX="0.0"
       refY="0.0"
       orient="auto"
       inkscape:stockid="TriangleOutL">
      <path
         transform="scale(0.8)"
         style="fill-rule:evenodd;stroke:#000000;stroke-width:1.0pt"
         d="M 5.77,0.0 L -2.88,5.0 L -2.88,-5.0 L 5.77,0.0 z "
         id="path6616" />
    </marker>
    <marker
       style="overflow:visible"
       id="DotL"
       refX="0.0"
       refY="0.0"
       orient="auto"
       inkscape:stockid="DotL">
      <path
         transform="scale(0.8) translate(7.4, 1)"
         style="fill-rule:evenodd;stroke:#000000;stroke-width:1.0pt"
         d="M -2.5,-1.0 C -2.5,1.7600000 -4.7400000,4.0 -7.5,4.0 C -10.260000,4.0 -12.5,1.7600000 -12.5,-1.0 C -12.5,-3.7600000 -10.260000,-6.0 -7.5,-6.0 C -4.7400000,-6.0 -2.5,-3.7600000 -2.5,-1.0 z "
         id="path6535" />
    </marker>
    <marker
       style="overflow:visible"
       id="Arrow1Lstart"
       refX="0.0"
       refY="0.0"
       orient="auto"
       inkscape:stockid="Arrow1Lstart">
      <path
         transform="scale(0.8) translate(12.5,0)"
         style="fill-rule:evenodd;stroke:#000000;stroke-width:1.0pt"
         d="M 0.0,0.0 L 5.0,-5.0 L -12.5,0.0 L 5.0,5.0 L 0.0,0.0 z "
         id="path6474" />
    </marker>
    <marker
       style="overflow:visible;"
       id="Arrow2Lend"
       refX="0.0"
       refY="0.0"
       orient="auto"
       inkscape:stockid="Arrow2Lend">
      <path
         transform="scale(1.1) rotate(180) translate(1,0)"
         d="M 8.7185878,4.0337352 L -2.2072895,0.016013256 L 8.7185884,-4.0017078 C 6.9730900,-1.6296469 6.9831476,1.6157441 8.7185878,4.0337352 z "
         style="fill-rule:evenodd;stroke-width:0.62500000;stroke-linejoin:round;"
         id="path6495" />
    </marker>
    <marker
       style="overflow:visible;"
       id="Arrow1Lend"
       refX="0.0"
       refY="0.0"
       orient="auto"
       inkscape:stockid="Arrow1Lend">
      <path
         transform="scale(0.8) rotate(180) translate(12.5,0)"
         style="fill-rule:evenodd;stroke:#000000;stroke-width:1.0pt;"
         d="M 0.0,0.0 L 5.0,-5.0 L -12.5,0.0 L 5.0,5.0 L 0.0,0.0 z "
         id="path6477" />
    </marker>
    <marker
       style="overflow:visible"
       id="Arrow1Lstart-0"
       refX="0"
       refY="0"
       orient="auto"
       inkscape:stockid="Arrow1Lstart">
      <path
         inkscape:connector-curvature="0"
         transform="matrix(0.8,0,0,0.8,10,0)"
         style="fill-rule:evenodd;stroke:#000000;stroke-width:1pt"
         d="M 0,0 5,-5 -12.5,0 5,5 0,0 z"
         id="path6474-3" />
    </marker>
    <marker
       style="overflow:visible"
       id="Arrow1Lend-6"
       refX="0"
       refY="0"
       orient="auto"
       inkscape:stockid="Arrow1Lend">
      <path
         inkscape:connector-curvature="0"
         transform="matrix(-0.8,0,0,-0.8,-10,0)"
         style="fill-rule:evenodd;stroke:#000000;stroke-width:1pt"
         d="M 0,0 5,-5 -12.5,0 5,5 0,0 z"
         id="path6477-2" />
    </marker>
    <marker
       style="overflow:visible"
       id="Arrow1Lstart-5"
       refX="0"
       refY="0"
       orient="auto"
       inkscape:stockid="Arrow1Lstart">
      <path
         inkscape:connector-curvature="0"
         transform="matrix(0.8,0,0,0.8,10,0)"
         style="fill-rule:evenodd;stroke:#000000;stroke-width:1pt"
         d="M 0,0 5,-5 -12.5,0 5,5 0,0 z"
         id="path6474-8" />
    </marker>
    <marker
       style="overflow:visible"
       id="Arrow1Lend-8"
       refX="0"
       refY="0"
       orient="auto"
       inkscape:stockid="Arrow1Lend">
      <path
         inkscape:connector-curvature="0"
         transform="matrix(-0.8,0,0,-0.8,-10,0)"
         style="fill-rule:evenodd;stroke:#000000;stroke-width:1pt"
         d="M 0,0 5,-5 -12.5,0 5,5 0,0 z"
         id="path6477-1" />
    </marker>
    <marker
       style="overflow:visible"
       id="Arrow1Lstart-1"
       refX="0"
       refY="0"
       orient="auto"
       inkscape:stockid="Arrow1Lstart">
      <path
         inkscape:connector-curvature="0"
         transform="matrix(0.8,0,0,0.8,10,0)"
         style="fill-rule:evenodd;stroke:#000000;stroke-width:1pt"
         d="M 0,0 5,-5 -12.5,0 5,5 0,0 z"
         id="path6474-4" />
    </marker>
    <marker
       style="overflow:visible"
       id="Arrow1Lend-9"
       refX="0"
       refY="0"
       orient="auto"
       inkscape:stockid="Arrow1Lend">
      <path
         inkscape:connector-curvature="0"
         transform="matrix(-0.8,0,0,-0.8,-10,0)"
         style="fill-rule:evenodd;stroke:#000000;stroke-width:1pt"
         d="M 0,0 5,-5 -12.5,0 5,5 0,0 z"
         id="path6477-8" />
    </marker>
    <marker
       style="overflow:visible"
       id="Arrow1Lstart-52"
       refX="0"
       refY="0"
       orient="auto"
       inkscape:stockid="Arrow1Lstart">
      <path
         inkscape:connector-curvature="0"
         transform="matrix(0.8,0,0,0.8,10,0)"
         style="fill-rule:evenodd;stroke:#000000;stroke-width:1pt"
         d="M 0,0 5,-5 -12.5,0 5,5 0,0 z"
         id="path6474-9" />
    </marker>
    <marker
       style="overflow:visible"
       id="Arrow1Lend-98"
       refX="0"
       refY="0"
       orient="auto"
       inkscape:stockid="Arrow1Lend">
      <path
         inkscape:connector-curvature="0"
         transform="matrix(-0.8,0,0,-0.8,-10,0)"
         style="fill-rule:evenodd;stroke:#000000;stroke-width:1pt"
         d="M 0,0 5,-5 -12.5,0 5,5 0,0 z"
         id="path6477-3" />
    </marker>
    <marker
       style="overflow:visible"
       id="Arrow1Lstart-6"
       refX="0"
       refY="0"
       orient="auto"
       inkscape:stockid="Arrow1Lstart">
      <path
         inkscape:connector-curvature="0"
         transform="matrix(0.8,0,0,0.8,10,0)"
         style="fill-rule:evenodd;stroke:#000000;stroke-width:1pt"
         d="M 0,0 5,-5 -12.5,0 5,5 0,0 z"
         id="path6474-98" />
    </marker>
    <marker
       style="overflow:visible"
       id="Arrow1Lend-66"
       refX="0"
       refY="0"
       orient="auto"
       inkscape:stockid="Arrow1Lend">
      <path
         inkscape:connector-curvature="0"
         transform="matrix(-0.8,0,0,-0.8,-10,0)"
         style="fill-rule:evenodd;stroke:#000000;stroke-width:1pt"
         d="M 0,0 5,-5 -12.5,0 5,5 0,0 z"
         id="path6477-23" />
    </marker>
  </defs>
  <metadata
     id="metadata7">
    <rdf:RDF>
      <cc:Work
         rdf:about="">
        <dc:format>image/svg+xml</dc:format>
        <dc:type
           rdf:resource="http://purl.org/dc/dcmitype/StillImage" />
        <dc:title></dc:title>
      </cc:Work>
    </rdf:RDF>
  </metadata>
  <g
     inkscape:label="Ebene 1"
     inkscape:groupmode="layer"
     id="layer1">
    <path
       sodipodi:nodetypes="cc"
       inkscape:connector-curvature="0"
       id="path5780"
       d="m 47.142857,445.21933 645.714283,0"
       style="fill:none;stroke:#000000;stroke-width:1px;stroke-linecap:butt;stroke-linejoin:miter;stroke-opacity:1;marker-start:none;marker-end:url(#Arrow1Lend)" />
    <path
       inkscape:connector-curvature="0"
       id="path6914"
       d="m 374.5,775.49353 0,-651.54839"
       style="fill:none;stroke:#000000;stroke-width:1px;stroke-linecap:butt;stroke-linejoin:miter;stroke-opacity:1;marker-end:url(#Arrow1Lend)" />
    <g
       id="g7107"
       transform="translate(-436.39086,65.150032)">
      <g
         word-spacing="normal"
         letter-spacing="normal"
         font-size-adjust="none"
         font-stretch="normal"
         font-weight="normal"
         font-variant="normal"
         font-style="normal"
         stroke-miterlimit="10.433"
         xml:space="preserve"
         transform="matrix(1.0629921,0,0,-1.0629921,-186.02362,789.27165)"
         id="content"
         style="font-style:normal;font-variant:normal;font-weight:normal;font-stretch:normal;letter-spacing:normal;word-spacing:normal;text-anchor:start;fill:none;stroke:#000000;stroke-linecap:butt;stroke-linejoin:miter;stroke-miterlimit:10.43299961;stroke-opacity:1;stroke-dasharray:none;stroke-dashoffset:0"><path
           id="path7110"
           d="m 1225.7,361.24 -0.5,-0.34 -0.5,-0.34 -0.4,-0.35 -0.5,-0.36 -0.4,-0.35 -0.3,-0.36 -0.4,-0.37 -0.3,-0.36 -0.4,-0.37 -0.3,-0.36 -0.2,-0.36 -0.3,-0.36 -0.2,-0.36 -0.2,-0.36 -0.2,-0.35 -0.2,-0.35 -0.2,-0.34 -0.2,-0.34 -0.1,-0.33 -0.1,-0.32 -0.1,-0.32 -0.1,-0.3 -0.1,-0.3 -0.1,-0.29 -0.1,-0.27 0,-0.26 -0.1,-0.25 0,-0.24 0,-0.22 0,-0.21 -0.1,-0.19 0,-0.18 c 0,-2.39 1.4,-3.79 1.5,-3.93 1.6,-1.65 2,-1.85 5.8,-3.24 l 6,-2.34 c 0.7,-0.35 1.7,-0.7 1.7,-2.15 0,-1.14 -0.9,-2.64 -2.4,-2.64 -2.2,0 -3.8,1.2 -4.4,1.6 -0.3,0.2 -0.3,0.25 -0.5,0.25 -0.4,0 -0.5,-0.35 -0.5,-0.55 0,-0.6 2.6,-2.39 5.4,-2.39 3.1,0 5.2,2.89 5.2,5.33 0,2.39 -1.9,3.29 -2.4,3.54 -0.7,0.24 -2.4,0.89 -3.1,1.14 -1,0.4 -1.9,0.8 -3,1.15 l -3,1.19 c -2.2,0.9 -3.7,2.34 -3.7,4.43 0,2.05 1.9,6.38 6.1,8.47 1.9,-0.65 3.4,-0.65 4.4,-0.65 l 0.1,1.1 c -1.1,0 -1.5,0 -2.4,0.4 h 0 5.6 c -0.4,-0.2 -0.9,-0.4 -3.2,-0.4 l -0.1,-1.1 c 1.5,0 4.6,0 4.6,1.55 0,1.24 -2.1,1.35 -4,1.35 -1,0 -2.4,0 -4.2,-0.6 -1.3,1.29 -1.5,2.94 -1.5,3.88 0,2.79 1.8,6.63 5.5,8.47 0.9,-1.09 2,-1.09 3.2,-1.09 l 0,1.09 c -0.9,0 -1.5,0 -2.1,0.45 h 0 c 0.8,0.25 1.9,0.25 2.4,0.25 1.7,0 1.9,-0.05 2.8,-0.3 -0.4,-0.15 -0.9,-0.4 -3.1,-0.4 l 0,-1.09 c 1.2,0 4.4,0 4.4,1.54 0,1.3 -2.2,1.35 -4.1,1.35 -0.7,0 -1.9,0 -3.2,-0.25 v 3.48 c 0,0.4 -0.2,0.65 -0.6,0.65 -0.9,0 -0.9,-2.29 -0.9,-2.44 0,-1 0.4,-1.74 0.4,-1.94 -5.3,-1.5 -8.7,-5.48 -8.7,-9.32 0,-1.84 0.9,-3.93 3.2,-5.28 z"
           inkscape:connector-curvature="0"
           style="fill:#000000;stroke-width:0" /><path
           id="path7112"
           d="m 1251.7,361.18 0,0.04 0,0.04 0,0.04 0,0.04 0,0.04 0,0.04 0,0.03 0,0.04 0,0.03 0,0.03 0,0.04 0,0.03 0,0.02 0,0.03 0,0.03 0,0.03 -0.1,0.02 0,0.02 0,0.05 0,0.04 0,0.04 0,0.03 0,0.03 -0.1,0.03 0,0.03 0,0.02 0,0.02 -0.1,0.02 0,0.01 0,0.01 -0.1,0.02 0,0 -0.1,0.01 0,0 0,0.01 0,0 -0.1,0 0,0 0,0 -0.1,0.01 0,0 0,0 -0.1,0 0,0 0,0 -0.1,0 0,0 -0.1,0 0,0 -0.1,0 c -2.2,-2.19 -5.4,-2.23 -6.8,-2.23 v -1.25 c 0.8,0 3.1,0 5.1,0.97 v -17.78 c 0,-1.15 0,-1.61 -3.5,-1.61 H 1244 V 339 h 12.5 v 1.25 h -1.3 c -3.5,0 -3.5,0.46 -3.5,1.61 z"
           inkscape:connector-curvature="0"
           style="fill:#000000;stroke-width:0" /></g>    </g>
    <g
       id="g7138">
      <g
         style="font-style:normal;font-variant:normal;font-weight:normal;font-stretch:normal;letter-spacing:normal;word-spacing:normal;text-anchor:start;fill:none;stroke:#000000;stroke-linecap:butt;stroke-linejoin:miter;stroke-miterlimit:10.43299961;stroke-opacity:1;stroke-dasharray:none;stroke-dashoffset:0"
         id="g7140"
         transform="matrix(1.0629921,0,0,-1.0629921,-916.89367,528.14749)"
         xml:space="preserve"
         stroke-miterlimit="10.433"
         font-style="normal"
         font-variant="normal"
         font-weight="normal"
         font-stretch="normal"
         font-size-adjust="none"
         letter-spacing="normal"
         word-spacing="normal"><path
           style="fill:#000000;stroke-width:0"
           inkscape:connector-curvature="0"
           d="m 1225.7,361.24 -0.5,-0.34 -0.5,-0.34 -0.4,-0.35 -0.5,-0.36 -0.4,-0.35 -0.3,-0.36 -0.4,-0.37 -0.3,-0.36 -0.4,-0.37 -0.3,-0.36 -0.2,-0.36 -0.3,-0.36 -0.2,-0.36 -0.2,-0.36 -0.2,-0.35 -0.2,-0.35 -0.2,-0.34 -0.2,-0.34 -0.1,-0.33 -0.1,-0.32 -0.1,-0.32 -0.1,-0.3 -0.1,-0.3 -0.1,-0.29 -0.1,-0.27 0,-0.26 -0.1,-0.25 0,-0.24 0,-0.22 0,-0.21 -0.1,-0.19 0,-0.18 c 0,-2.39 1.4,-3.79 1.5,-3.93 1.6,-1.65 2,-1.85 5.8,-3.24 l 6,-2.34 c 0.7,-0.35 1.7,-0.7 1.7,-2.15 0,-1.14 -0.9,-2.64 -2.4,-2.64 -2.2,0 -3.8,1.2 -4.4,1.6 -0.3,0.2 -0.3,0.25 -0.5,0.25 -0.4,0 -0.5,-0.35 -0.5,-0.55 0,-0.6 2.6,-2.39 5.4,-2.39 3.1,0 5.2,2.89 5.2,5.33 0,2.39 -1.9,3.29 -2.4,3.54 -0.7,0.24 -2.4,0.89 -3.1,1.14 -1,0.4 -1.9,0.8 -3,1.15 l -3,1.19 c -2.2,0.9 -3.7,2.34 -3.7,4.43 0,2.05 1.9,6.38 6.1,8.47 1.9,-0.65 3.4,-0.65 4.4,-0.65 l 0.1,1.1 c -1.1,0 -1.5,0 -2.4,0.4 h 0 5.6 c -0.4,-0.2 -0.9,-0.4 -3.2,-0.4 l -0.1,-1.1 c 1.5,0 4.6,0 4.6,1.55 0,1.24 -2.1,1.35 -4,1.35 -1,0 -2.4,0 -4.2,-0.6 -1.3,1.29 -1.5,2.94 -1.5,3.88 0,2.79 1.8,6.63 5.5,8.47 0.9,-1.09 2,-1.09 3.2,-1.09 l 0,1.09 c -0.9,0 -1.5,0 -2.1,0.45 h 0 c 0.8,0.25 1.9,0.25 2.4,0.25 1.7,0 1.9,-0.05 2.8,-0.3 -0.4,-0.15 -0.9,-0.4 -3.1,-0.4 l 0,-1.09 c 1.2,0 4.4,0 4.4,1.54 0,1.3 -2.2,1.35 -4.1,1.35 -0.7,0 -1.9,0 -3.2,-0.25 v 3.48 c 0,0.4 -0.2,0.65 -0.6,0.65 -0.9,0 -0.9,-2.29 -0.9,-2.44 0,-1 0.4,-1.74 0.4,-1.94 -5.3,-1.5 -8.7,-5.48 -8.7,-9.32 0,-1.84 0.9,-3.93 3.2,-5.28 z"
           id="path7142" /><path
           style="fill:#000000;stroke-width:0"
           inkscape:connector-curvature="0"
           d="m 1257.6,345.35 h -1.2 c -0.1,-0.77 -0.4,-2.83 -0.9,-3.18 -0.3,-0.21 -2.9,-0.21 -3.4,-0.21 h -6.4 c 3.6,3.25 4.8,4.22 6.9,5.86 2.6,2.06 5,4.22 5,7.54 0,4.21 -3.7,6.79 -8.2,6.79 -4.3,0 -7.2,-3.03 -7.2,-6.24 0,-1.78 1.5,-1.95 1.8,-1.95 0.9,0 1.9,0.59 1.9,1.85 0,0.62 -0.2,1.85 -2.1,1.85 1.1,2.47 3.5,3.24 5.1,3.24 3.5,0 5.3,-2.72 5.3,-5.54 0,-3.04 -2.1,-5.45 -3.3,-6.7 l -8.3,-8.3 c -0.4,-0.31 -0.4,-0.38 -0.4,-1.36 h 14.4 z"
           id="path7144" /></g>      <path
         inkscape:connector-curvature="0"
         id="path7161"
         d="m 374.58,445.21933 155.4146,0"
         style="fill:none;stroke:#ff0000;stroke-width:1;stroke-linecap:round;stroke-linejoin:bevel;stroke-miterlimit:22.70000076000000200;stroke-opacity:1;stroke-dasharray:none;marker-start:url(#DotL);marker-mid:url(#Arrow2Lend);marker-end:url(#TriangleInL)" />
      <path
         inkscape:connector-curvature="0"
         id="path9407"
         d="m 374.5,445.21933 0,-125.00001 0,1.42858"
         style="fill:none;stroke:#000000;stroke-width:1px;stroke-linecap:butt;stroke-linejoin:miter;stroke-opacity:1" />
      <path
         inkscape:connector-curvature="0"
         id="path9979"
         d="m 374.5,445.21933 0,-132.14286"
         style="fill:none;stroke:#ff0000;stroke-width:1px;stroke-linecap:butt;stroke-linejoin:miter;stroke-opacity:1;marker-end:url(#TriangleInL)" />
      <path
         inkscape:connector-curvature="0"
         id="path10743"
         d="m 374.44152,445.21933 -156.72611,0"
         style="fill:none;stroke:#ff0000;stroke-width:1.11695921000000010px;stroke-linecap:butt;stroke-linejoin:miter;stroke-opacity:1;marker-end:url(#TriangleInL)" />
      <path
         inkscape:connector-curvature="0"
         id="path11125"
         d="m 374.5,445.33652 0,154.45463"
         style="fill:none;stroke:#ff0000;stroke-width:1.23439026000000010px;stroke-linecap:butt;stroke-linejoin:miter;stroke-opacity:1;marker-end:url(#TriangleInL)" />
    </g>
    <path
       id="path12310"
       title="t t*t"
       d="m 219.33993,392.1154 c 3.5669,2.40017 7.13379,4.71766 10.70069,6.95247 3.5669,2.2348 7.1338,4.38659 10.7007,6.45586 3.5669,2.06927 7.1338,4.05552 10.70069,5.95926 3.5669,1.90373 7.1338,3.72445 10.70069,5.46265 3.5669,1.7382 7.13381,3.39339 10.7007,4.96605 3.5669,1.57267 7.1338,3.06231 10.7007,4.46944 3.56689,1.40713 7.13379,2.73125 10.70069,3.97284 3.5669,1.2416 7.1338,2.40018 10.7007,3.47624 3.56689,1.07606 7.13379,2.0691 10.70069,2.97963 3.5669,0.91052 7.13379,1.73803 10.70069,2.48302 3.56691,0.745 7.1338,1.40697 10.7007,1.98642 3.5669,0.57945 7.1338,1.0759 10.70069,1.48982 3.5669,0.41392 7.1338,0.74482 10.70069,0.9932 3.56691,0.24839 7.13381,0.41376 10.7007,0.49661 3.5669,0.0829 7.1338,0.0827 10.7007,0 3.56689,-0.0827 7.13379,-0.24838 10.7007,-0.49661 3.56689,-0.24822 7.13379,-0.57945 10.70069,-0.9932 3.56689,-0.41376 7.13379,-0.91053 10.70069,-1.48982 3.5669,-0.57929 7.13379,-1.2416 10.7007,-1.98642 3.5669,-0.74482 7.13379,-1.57266 10.70069,-2.48302 3.5669,-0.91036 7.1338,-1.90374 10.70069,-2.97963 3.5669,-1.07589 7.1338,-2.23481 10.7007,-3.47624 3.5669,-1.24142 7.1338,-2.56587 10.70069,-3.97284 3.5669,-1.40696 7.1338,-2.89694 10.7007,-4.46944 3.56689,-1.5725 7.1338,-3.22801 10.7007,-4.96605 3.56689,-1.73804 7.13379,-3.55909 10.70069,-5.46265 3.56689,-1.90357 7.13379,-3.89016 10.70069,-5.95926 3.5669,-2.06911 7.1338,-4.22123 10.7007,-6.45586 3.5669,-2.23464 7.13379,-4.5523 10.70069,-6.95247"
       style="fill:none;stroke:#00ff00;stroke-width:0.79667807000000002;stroke-linecap:round;stroke-linejoin:bevel;stroke-miterlimit:22.70000076000000200;stroke-opacity:1;stroke-dasharray:none;marker-start:url(#Arrow1Lend-66);marker-end:url(#Arrow1Lstart-6)"
       inkscape:connector-curvature="0" />
    <path
       id="path12310-4"
       title="t t*t"
       d="m 225.17913,290.37441 c 3.56036,7.06467 7.12071,13.88598 10.68107,20.46392 3.56036,6.57792 7.12072,12.9115 10.68109,19.0022 3.56036,6.09069 7.12072,11.93703 10.68107,17.5405 3.56036,5.60344 7.12072,10.96256 10.68107,16.07878 3.56036,5.11622 7.12074,9.98811 10.68109,14.61709 3.56036,4.629 7.12072,9.01361 10.68108,13.15536 3.56035,4.14175 7.12071,8.03917 10.68107,11.69367 3.56036,3.65453 7.12073,7.06469 10.68109,10.23197 3.56035,3.16728 7.12071,6.0902 10.68107,8.77025 3.56036,2.68003 7.12071,5.11572 10.68107,7.30853 3.56038,2.19284 7.12073,4.14128 10.68109,5.84683 3.56036,1.70556 7.12072,3.16681 10.68107,4.38515 3.56036,1.21833 7.12072,2.1923 10.68107,2.92338 3.56038,0.73111 7.12074,1.21787 10.68109,1.46173 3.56036,0.244 7.12072,0.24342 10.68108,0 3.56035,-0.24342 7.12071,-0.73109 10.68109,-1.46173 3.56035,-0.73061 7.12071,-1.70555 10.68107,-2.92338 3.56035,-1.21787 7.12071,-2.68006 10.68107,-4.38515 3.56036,-1.70508 7.12071,-3.65452 10.68109,-5.84683 3.56036,-2.1923 7.12071,-4.62897 10.68107,-7.30853 3.56036,-2.67955 7.12072,-5.60347 10.68107,-8.77025 3.56036,-3.16678 7.12073,-6.57795 10.68109,-10.23197 3.56036,-3.654 7.12072,-7.55239 10.68107,-11.69367 3.56036,-4.14125 7.12072,-8.52686 10.68108,-13.15536 3.56035,-4.62851 7.12073,-9.50134 10.68109,-14.61709 3.56035,-5.11575 7.12071,-10.47584 10.68107,-16.07878 3.56035,-5.60297 7.12071,-11.45031 10.68107,-17.5405 3.56037,-6.09023 7.12073,-12.42478 10.68109,-19.0022 3.56036,-6.57744 7.12071,-13.39925 10.68107,-20.46392"
       style="fill:none;stroke:#00ff00;stroke-width:1;stroke-linecap:round;stroke-linejoin:bevel;stroke-miterlimit:22.70000076000000200;stroke-opacity:1;stroke-dasharray:none;marker-start:url(#Arrow1Lend-66);marker-end:url(#Arrow1Lstart-6)"
       inkscape:connector-curvature="0" />
    <path
       id="path12310-2"
       title="t t*t"
       d="m 220.03616,45.32184 c 3.54326,18.311984 7.08652,35.993166 10.62978,53.043544 3.54326,17.050306 7.08652,33.467286 10.62978,49.254676 3.54326,15.7874 7.08653,30.9414 10.62978,45.4659 3.54326,14.52442 7.08653,28.41552 10.62978,41.67703 3.54326,13.26152 7.08654,25.88971 10.62979,37.88825 3.54326,11.99861 7.08652,23.36375 10.62978,34.09938 3.54326,10.73563 7.08652,20.83794 10.62978,30.3106 3.54326,9.47272 7.08652,18.31206 10.62979,26.52181 3.54326,8.20975 7.08652,15.7861 10.62978,22.73295 3.54326,6.94677 7.08651,13.26021 10.62977,18.94408 3.54328,5.68394 7.08653,10.73441 10.62979,15.1553 3.54326,4.42088 7.08652,8.20852 10.62977,11.36651 3.54328,3.15798 7.08654,5.68257 10.62979,7.57757 3.54327,1.89509 7.08653,3.15677 10.62979,3.78886 3.54326,0.63248 7.08652,0.63096 10.62978,0 3.54325,-0.63095 7.08651,-1.89499 10.62979,-3.78886 3.54325,-1.89378 7.08651,-4.42088 10.62978,-7.57757 3.54325,-3.15676 7.08651,-6.94685 10.62978,-11.36651 3.54326,-4.41967 7.08651,-9.47274 10.62978,-15.1553 3.54326,-5.68257 7.08651,-11.99853 10.62978,-18.94408 3.54326,-6.94555 7.08652,-14.5245 10.62977,-22.73295 3.54327,-8.20845 7.08654,-17.05038 10.6298,-26.52181 3.54326,-9.47136 7.08652,-19.57619 10.62977,-30.3106 3.54326,-10.73433 7.08653,-22.10206 10.62979,-34.09938 3.54325,-11.99732 7.08652,-24.62795 10.62978,-37.88825 3.54325,-13.26029 7.08653,-27.15391 10.62979,-41.67703 3.54325,-14.5232 7.08651,-29.6798 10.62977,-45.4659 3.54326,-15.78617 7.08653,-32.20567 10.62979,-49.254676 3.54326,-17.049081 7.08651,-34.73156 10.62977,-53.043544"
       style="fill:none;stroke:#00ff00;stroke-width:0.99900000000000000;stroke-linecap:round;stroke-linejoin:bevel;stroke-miterlimit:22.70000076000000200;stroke-opacity:1;stroke-dasharray:none;marker-end:url(#Arrow1Lstart-6);marker-mid:none;marker-start:url(#Arrow1Lend-66)"
       inkscape:connector-curvature="0" />
    <path
       id="path12310-24"
       title="t t*t"
       d="m 529.65685,497.42494 c -3.5669,-2.40017 -7.13379,-4.71766 -10.70069,-6.95247 -3.5669,-2.2348 -7.1338,-4.38659 -10.7007,-6.45586 -3.5669,-2.06927 -7.1338,-4.05552 -10.70069,-5.95926 -3.5669,-1.90373 -7.1338,-3.72445 -10.70069,-5.46265 -3.5669,-1.7382 -7.13381,-3.39339 -10.7007,-4.96605 -3.5669,-1.57267 -7.1338,-3.06231 -10.7007,-4.46944 -3.56689,-1.40713 -7.13379,-2.73125 -10.70069,-3.97284 -3.5669,-1.2416 -7.1338,-2.40018 -10.7007,-3.47624 -3.56689,-1.07606 -7.13379,-2.0691 -10.70069,-2.97963 -3.56691,-0.91052 -7.1338,-1.73803 -10.7007,-2.48302 -3.56691,-0.745 -7.1338,-1.40697 -10.7007,-1.98642 -3.5669,-0.57945 -7.1338,-1.0759 -10.70069,-1.48982 -3.5669,-0.41392 -7.1338,-0.74482 -10.70069,-0.9932 -3.56691,-0.24839 -7.13381,-0.41376 -10.7007,-0.49661 -3.5669,-0.0829 -7.1338,-0.0827 -10.7007,0 -3.56689,0.0827 -7.13379,0.24838 -10.7007,0.49661 -3.56689,0.24822 -7.13379,0.57945 -10.70069,0.9932 -3.56689,0.41376 -7.13379,0.91053 -10.70069,1.48982 -3.5669,0.57929 -7.13379,1.2416 -10.7007,1.98642 -3.5669,0.74482 -7.13379,1.57266 -10.70069,2.48302 -3.5669,0.91036 -7.1338,1.90374 -10.70069,2.97963 -3.5669,1.07589 -7.1338,2.23481 -10.7007,3.47624 -3.5669,1.24142 -7.1338,2.56587 -10.70069,3.97284 -3.5669,1.40696 -7.1338,2.89694 -10.7007,4.46944 -3.56689,1.5725 -7.1338,3.22801 -10.7007,4.96605 -3.56689,1.73804 -7.13379,3.55909 -10.70069,5.46265 -3.56689,1.90357 -7.13379,3.89016 -10.70069,5.95926 -3.5669,2.06911 -7.1338,4.22123 -10.7007,6.45586 -3.5669,2.23464 -7.13379,4.5523 -10.70069,6.95247"
       style="fill:none;stroke:#00ff00;stroke-width:0.79667807000000002;stroke-linecap:round;stroke-linejoin:bevel;stroke-miterlimit:22.70000076000000200;stroke-opacity:1;stroke-dasharray:none;marker-start:url(#Arrow1Lend-66);marker-end:url(#Arrow1Lstart-6)"
       inkscape:connector-curvature="0" />
    <path
       id="path12310-24-8"
       title="t t*t"
       d="m 529.35874,605.40984 c -3.56005,-7.35111 -7.12009,-14.44898 -10.68013,-21.29363 -3.56005,-6.84462 -7.1201,-13.435 -10.68014,-19.77265 -3.56005,-6.33764 -7.1201,-12.42102 -10.68013,-18.25168 -3.56005,-5.83064 -7.1201,-11.40704 -10.68013,-16.7307 -3.56005,-5.32366 -7.12011,-10.39308 -10.68014,-15.20974 -3.56005,-4.81668 -7.1201,-9.37907 -10.68015,-13.68875 -3.56003,-4.30967 -7.12008,-8.36511 -10.68013,-12.16779 -3.56004,-3.8027 -7.12009,-7.35113 -10.68014,-10.64683 -3.56003,-3.29569 -7.12008,-6.33712 -10.68013,-9.12584 -3.56005,-2.78869 -7.12009,-5.32314 -10.68014,-7.60485 -3.56005,-2.28175 -7.12009,-4.30919 -10.68014,-6.0839 -3.56004,-1.77471 -7.12009,-3.2952 -10.68013,-4.56294 -3.56005,-1.26773 -7.12009,-2.28119 -10.68013,-3.04191 -3.56006,-0.76076 -7.1201,-1.26724 -10.68014,-1.52099 -3.56005,-0.2539 -7.12009,-0.25329 -10.68014,0 -3.56004,0.25329 -7.12008,0.76072 -10.68014,1.52099 -3.56004,0.76023 -7.12008,1.7747 -10.68013,3.04191 -3.56004,1.26725 -7.12009,2.78872 -10.68013,4.56294 -3.56005,1.77422 -7.12009,3.8027 -10.68014,6.0839 -3.56005,2.28119 -7.12009,4.81665 -10.68013,7.60485 -3.56005,2.7882 -7.1201,5.83067 -10.68013,9.12584 -3.56005,3.29518 -7.1201,6.84465 -10.68014,10.64683 -3.56005,3.80216 -7.1201,7.85861 -10.68013,12.16779 -3.56005,4.30916 -7.1201,8.87259 -10.68015,13.68875 -3.56003,4.81617 -7.12009,9.88657 -10.68014,15.20974 -3.56003,5.32317 -7.12008,10.90058 -10.68013,16.7307 -3.56003,5.83014 -7.12008,11.91456 -10.68013,18.25168 -3.56004,6.33716 -7.12009,12.92855 -10.68014,19.77265 -3.56004,6.84413 -7.12008,13.94252 -10.68013,21.29363"
       style="fill:none;stroke:#00ff00;stroke-width:1;stroke-linecap:round;stroke-linejoin:bevel;stroke-miterlimit:22.70000076000000200;stroke-opacity:1;stroke-dasharray:none;marker-start:url(#Arrow1Lend-66);marker-end:url(#Arrow1Lstart-6)"
       inkscape:connector-curvature="0" />
    <path
       id="path12310-24-82"
       title="t t*t"
       d="m 529.08663,755.0035 c -3.55379,-14.24243 -7.10757,-27.99424 -10.66136,-41.25544 -3.55379,-13.26113 -7.10758,-26.02969 -10.66138,-38.30859 -3.55379,-12.27889 -7.10758,-24.06515 -10.66136,-35.3618 -3.55379,-11.29659 -7.10758,-22.10061 -10.66137,-32.41495 -3.55379,-10.31435 -7.10759,-20.13613 -10.66137,-29.46817 -3.55379,-9.33211 -7.10758,-18.17152 -10.66137,-26.52132 -3.55379,-8.34981 -7.10758,-16.20704 -10.66137,-23.57454 -3.55379,-7.36756 -7.10758,-14.24249 -10.66137,-20.62774 -3.55379,-6.38526 -7.10758,-12.27789 -10.66137,-17.6809 -3.5538,-5.40296 -7.10758,-10.31334 -10.66137,-14.73406 -3.55381,-4.42077 -7.10759,-8.34885 -10.66138,-11.78727 -3.55379,-3.43841 -7.10758,-6.38431 -10.66136,-8.84048 -3.55379,-2.45617 -7.10759,-4.4197 -10.66137,-5.89357 -3.5538,-1.47393 -7.10759,-2.45522 -10.66137,-2.94685 -3.55379,-0.49192 -7.10759,-0.49073 -10.66138,0 -3.55378,0.49074 -7.10757,1.47387 -10.66137,2.94685 -3.55378,1.47292 -7.10758,3.43841 -10.66137,5.89357 -3.55378,2.45522 -7.10757,5.40302 -10.66136,8.84048 -3.55379,3.43747 -7.10757,7.36756 -10.66138,11.78727 -3.55379,4.41971 -7.10757,9.33205 -10.66136,14.73406 -3.55379,5.402 -7.10758,11.29665 -10.66137,17.6809 -3.55379,6.38425 -7.10758,13.26119 -10.66137,20.62774 -3.55379,7.3665 -7.10758,15.22568 -10.66137,23.57454 -3.55379,8.34879 -7.10758,17.19022 -10.66137,26.52132 -3.55378,9.3311 -7.10758,19.15477 -10.66137,29.46817 -3.55379,10.3134 -7.10758,21.11937 -10.66137,32.41495 -3.55378,11.29564 -7.10757,23.08392 -10.66136,35.3618 -3.5538,12.27795 -7.10759,25.04846 -10.66138,38.30859 -3.55379,13.26019 -7.10757,27.01301 -10.66136,41.25544"
       style="fill:none;stroke:#00ff00;stroke-width:1;stroke-linecap:round;stroke-linejoin:bevel;stroke-miterlimit:22.70000076;stroke-opacity:1;stroke-dasharray:none;marker-start:url(#Arrow1Lend-66);marker-end:url(#Arrow1Lstart-6)"
       inkscape:connector-curvature="0" />
  </g>
</svg>
