<?xml version="1.0" encoding="UTF-8" standalone="no"?>
<!-- Created with Inkscape (http://www.inkscape.org/) -->

<svg
   xmlns:dc="http://purl.org/dc/elements/1.1/"
   xmlns:cc="http://creativecommons.org/ns#"
   xmlns:rdf="http://www.w3.org/1999/02/22-rdf-syntax-ns#"
   xmlns:svg="http://www.w3.org/2000/svg"
   xmlns="http://www.w3.org/2000/svg"
   xmlns:sodipodi="http://sodipodi.sourceforge.net/DTD/sodipodi-0.dtd"
   xmlns:inkscape="http://www.inkscape.org/namespaces/inkscape"
   width="210mm"
   height="297mm"
   id="svg2"
   version="1.1"
   inkscape:version="0.48.4 r9939"
   sodipodi:docname="lin_sys_7_1.svg">
  <defs
     id="defs4">
    <marker
       inkscape:stockid="Arrow2Lend"
       orient="auto"
       refY="0.0"
       refX="0.0"
       id="Arrow2Lend"
       style="overflow:visible;">
      <path
         id="path3820"
         style="fill-rule:evenodd;stroke-width:0.62500000;stroke-linejoin:round;"
         d="M 8.7185878,4.0337352 L -2.2072895,0.016013256 L 8.7185884,-4.0017078 C 6.9730900,-1.6296469 6.9831476,1.6157441 8.7185878,4.0337352 z "
         transform="scale(1.1) rotate(180) translate(1,0)" />
    </marker>
    <marker
       inkscape:stockid="Arrow1Lstart"
       orient="auto"
       refY="0.0"
       refX="0.0"
       id="Arrow1Lstart"
       style="overflow:visible">
      <path
         id="path3799"
         d="M 0.0,0.0 L 5.0,-5.0 L -12.5,0.0 L 5.0,5.0 L 0.0,0.0 z "
         style="fill-rule:evenodd;stroke:#000000;stroke-width:1.0pt"
         transform="scale(0.8) translate(12.5,0)" />
    </marker>
    <marker
       style="overflow:visible;"
       id="Arrow1Lend"
       refX="0.0"
       refY="0.0"
       orient="auto"
       inkscape:stockid="Arrow1Lend">
      <path
         transform="scale(0.8) rotate(180) translate(12.5,0)"
         style="fill-rule:evenodd;stroke:#000000;stroke-width:1.0pt;"
         d="M 0.0,0.0 L 5.0,-5.0 L -12.5,0.0 L 5.0,5.0 L 0.0,0.0 z "
         id="path3764" />
    </marker>
  </defs>
  <sodipodi:namedview
     id="base"
     pagecolor="#ffffff"
     bordercolor="#666666"
     borderopacity="1.0"
     inkscape:pageopacity="0.0"
     inkscape:pageshadow="2"
     inkscape:zoom="0.98994949"
     inkscape:cx="155.35785"
     inkscape:cy="616.33655"
     inkscape:document-units="px"
     inkscape:current-layer="layer1"
     showgrid="false"
     inkscape:snap-bbox="true"
     inkscape:bbox-paths="true"
     inkscape:bbox-nodes="true"
     inkscape:snap-bbox-edge-midpoints="true"
     inkscape:snap-bbox-midpoints="true"
     inkscape:object-paths="true"
     inkscape:snap-intersection-paths="true"
     inkscape:object-nodes="true"
     inkscape:snap-smooth-nodes="true"
     inkscape:snap-midpoints="true"
     inkscape:snap-object-midpoints="true"
     inkscape:snap-center="true"
     inkscape:window-width="1680"
     inkscape:window-height="1028"
     inkscape:window-x="1912"
     inkscape:window-y="142"
     inkscape:window-maximized="1" />
  <metadata
     id="metadata7">
    <rdf:RDF>
      <cc:Work
         rdf:about="">
        <dc:format>image/svg+xml</dc:format>
        <dc:type
           rdf:resource="http://purl.org/dc/dcmitype/StillImage" />
        <dc:title></dc:title>
      </cc:Work>
    </rdf:RDF>
  </metadata>
  <g
     inkscape:label="Ebene 1"
     inkscape:groupmode="layer"
     id="layer1">
    <g
       id="layer1-9"
       inkscape:label="Ebene 1"
       transform="translate(-2.6528722,147.90846)">
      <path
         inkscape:connector-curvature="0"
         id="path2987"
         d="m 374.2345,605.48785 0,-548.857273"
         style="fill:none;stroke:#000000;stroke-width:1.14271963;stroke-linecap:butt;stroke-linejoin:miter;stroke-miterlimit:4;stroke-opacity:1;stroke-dasharray:none;marker-end:url(#Arrow1Lend)" />
      <path
         inkscape:connector-curvature="0"
         id="path2985"
         d="m 99.400372,326.86632 549.668258,0"
         style="fill:none;stroke:#000000;stroke-width:0.93175322px;stroke-linecap:butt;stroke-linejoin:miter;stroke-opacity:1;marker-start:none;marker-end:url(#Arrow1Lend)" />
      <g
         id="g4574"
         transform="matrix(0.83751682,0,0,0.83751682,-296.64845,8.9759542)">
        <g
           word-spacing="normal"
           letter-spacing="normal"
           font-size-adjust="none"
           font-stretch="normal"
           font-weight="normal"
           font-variant="normal"
           font-style="normal"
           stroke-miterlimit="10.433"
           xml:space="preserve"
           transform="matrix(1.0629921,0,0,-1.0629921,-186.02362,789.27165)"
           id="content"
           style="font-style:normal;font-variant:normal;font-weight:normal;font-stretch:normal;letter-spacing:normal;word-spacing:normal;text-anchor:start;fill:none;stroke:#000000;stroke-linecap:butt;stroke-linejoin:miter;stroke-miterlimit:10.43299961;stroke-opacity:1;stroke-dasharray:none;stroke-dashoffset:0"><path
             id="path4577"
             d="m 1225.7,361.24 -0.5,-0.34 -0.5,-0.34 -0.4,-0.35 -0.5,-0.36 -0.4,-0.35 -0.3,-0.36 -0.4,-0.37 -0.3,-0.36 -0.4,-0.37 -0.3,-0.36 -0.2,-0.36 -0.3,-0.36 -0.2,-0.36 -0.2,-0.36 -0.2,-0.35 -0.2,-0.35 -0.2,-0.34 -0.2,-0.34 -0.1,-0.33 -0.1,-0.32 -0.1,-0.32 -0.1,-0.3 -0.1,-0.3 -0.1,-0.29 -0.1,-0.27 0,-0.26 -0.1,-0.25 0,-0.24 0,-0.22 0,-0.21 -0.1,-0.19 0,-0.18 c 0,-2.39 1.4,-3.79 1.5,-3.93 1.6,-1.65 2,-1.85 5.8,-3.24 l 6,-2.34 c 0.7,-0.35 1.7,-0.7 1.7,-2.15 0,-1.14 -0.9,-2.64 -2.4,-2.64 -2.2,0 -3.8,1.2 -4.4,1.6 -0.3,0.2 -0.3,0.25 -0.5,0.25 -0.4,0 -0.5,-0.35 -0.5,-0.55 0,-0.6 2.6,-2.39 5.4,-2.39 3.1,0 5.2,2.89 5.2,5.33 0,2.39 -1.9,3.29 -2.4,3.54 -0.7,0.24 -2.4,0.89 -3.1,1.14 -1,0.4 -1.9,0.8 -3,1.15 l -3,1.19 c -2.2,0.9 -3.7,2.34 -3.7,4.43 0,2.05 1.9,6.38 6.1,8.47 1.9,-0.65 3.4,-0.65 4.4,-0.65 l 0.1,1.1 c -1.1,0 -1.5,0 -2.4,0.4 h 0 5.6 c -0.4,-0.2 -0.9,-0.4 -3.2,-0.4 l -0.1,-1.1 c 1.5,0 4.6,0 4.6,1.55 0,1.24 -2.1,1.35 -4,1.35 -1,0 -2.4,0 -4.2,-0.6 -1.3,1.29 -1.5,2.94 -1.5,3.88 0,2.79 1.8,6.63 5.5,8.47 0.9,-1.09 2,-1.09 3.2,-1.09 l 0,1.09 c -0.9,0 -1.5,0 -2.1,0.45 h 0 c 0.8,0.25 1.9,0.25 2.4,0.25 1.7,0 1.9,-0.05 2.8,-0.3 -0.4,-0.15 -0.9,-0.4 -3.1,-0.4 l 0,-1.09 c 1.2,0 4.4,0 4.4,1.54 0,1.3 -2.2,1.35 -4.1,1.35 -0.7,0 -1.9,0 -3.2,-0.25 v 3.48 c 0,0.4 -0.2,0.65 -0.6,0.65 -0.9,0 -0.9,-2.29 -0.9,-2.44 0,-1 0.4,-1.74 0.4,-1.94 -5.3,-1.5 -8.7,-5.48 -8.7,-9.32 0,-1.84 0.9,-3.93 3.2,-5.28 z"
             inkscape:connector-curvature="0"
             style="fill:#000000;stroke-width:0" /><path
             id="path4579"
             d="m 1251.7,361.18 0,0.04 0,0.04 0,0.04 0,0.04 0,0.04 0,0.04 0,0.03 0,0.04 0,0.03 0,0.03 0,0.04 0,0.03 0,0.02 0,0.03 0,0.03 0,0.03 -0.1,0.02 0,0.02 0,0.05 0,0.04 0,0.04 0,0.03 0,0.03 -0.1,0.03 0,0.03 0,0.02 0,0.02 -0.1,0.02 0,0.01 0,0.01 -0.1,0.02 0,0 -0.1,0.01 0,0 0,0.01 0,0 -0.1,0 0,0 0,0 -0.1,0.01 0,0 0,0 -0.1,0 0,0 0,0 -0.1,0 0,0 -0.1,0 0,0 -0.1,0 c -2.2,-2.19 -5.4,-2.23 -6.8,-2.23 v -1.25 c 0.8,0 3.1,0 5.1,0.97 v -17.78 c 0,-1.15 0,-1.61 -3.5,-1.61 H 1244 V 339 h 12.5 v 1.25 h -1.3 c -3.5,0 -3.5,0.46 -3.5,1.61 z"
             inkscape:connector-curvature="0"
             style="fill:#000000;stroke-width:0" /></g>      </g>
      <g
         transform="matrix(0.71784928,0,0,0.83751682,-417.34268,-266.02404)"
         id="g4605">
        <g
           style="font-style:normal;font-variant:normal;font-weight:normal;font-stretch:normal;letter-spacing:normal;word-spacing:normal;text-anchor:start;fill:none;stroke:#000000;stroke-linecap:butt;stroke-linejoin:miter;stroke-miterlimit:10.43299961;stroke-opacity:1;stroke-dasharray:none;stroke-dashoffset:0"
           id="g4607"
           transform="matrix(1.0629921,0,0,-1.0629921,-186.02362,789.27165)"
           xml:space="preserve"
           stroke-miterlimit="10.433"
           font-style="normal"
           font-variant="normal"
           font-weight="normal"
           font-stretch="normal"
           font-size-adjust="none"
           letter-spacing="normal"
           word-spacing="normal"><path
             style="fill:#000000;stroke-width:0"
             inkscape:connector-curvature="0"
             d="m 1225.7,361.24 -0.5,-0.34 -0.5,-0.34 -0.4,-0.35 -0.5,-0.36 -0.4,-0.35 -0.3,-0.36 -0.4,-0.37 -0.3,-0.36 -0.4,-0.37 -0.3,-0.36 -0.2,-0.36 -0.3,-0.36 -0.2,-0.36 -0.2,-0.36 -0.2,-0.35 -0.2,-0.35 -0.2,-0.34 -0.2,-0.34 -0.1,-0.33 -0.1,-0.32 -0.1,-0.32 -0.1,-0.3 -0.1,-0.3 -0.1,-0.29 -0.1,-0.27 0,-0.26 -0.1,-0.25 0,-0.24 0,-0.22 0,-0.21 -0.1,-0.19 0,-0.18 c 0,-2.39 1.4,-3.79 1.5,-3.93 1.6,-1.65 2,-1.85 5.8,-3.24 l 6,-2.34 c 0.7,-0.35 1.7,-0.7 1.7,-2.15 0,-1.14 -0.9,-2.64 -2.4,-2.64 -2.2,0 -3.8,1.2 -4.4,1.6 -0.3,0.2 -0.3,0.25 -0.5,0.25 -0.4,0 -0.5,-0.35 -0.5,-0.55 0,-0.6 2.6,-2.39 5.4,-2.39 3.1,0 5.2,2.89 5.2,5.33 0,2.39 -1.9,3.29 -2.4,3.54 -0.7,0.24 -2.4,0.89 -3.1,1.14 -1,0.4 -1.9,0.8 -3,1.15 l -3,1.19 c -2.2,0.9 -3.7,2.34 -3.7,4.43 0,2.05 1.9,6.38 6.1,8.47 1.9,-0.65 3.4,-0.65 4.4,-0.65 l 0.1,1.1 c -1.1,0 -1.5,0 -2.4,0.4 h 0 5.6 c -0.4,-0.2 -0.9,-0.4 -3.2,-0.4 l -0.1,-1.1 c 1.5,0 4.6,0 4.6,1.55 0,1.24 -2.1,1.35 -4,1.35 -1,0 -2.4,0 -4.2,-0.6 -1.3,1.29 -1.5,2.94 -1.5,3.88 0,2.79 1.8,6.63 5.5,8.47 0.9,-1.09 2,-1.09 3.2,-1.09 l 0,1.09 c -0.9,0 -1.5,0 -2.1,0.45 h 0 c 0.8,0.25 1.9,0.25 2.4,0.25 1.7,0 1.9,-0.05 2.8,-0.3 -0.4,-0.15 -0.9,-0.4 -3.1,-0.4 l 0,-1.09 c 1.2,0 4.4,0 4.4,1.54 0,1.3 -2.2,1.35 -4.1,1.35 -0.7,0 -1.9,0 -3.2,-0.25 v 3.48 c 0,0.4 -0.2,0.65 -0.6,0.65 -0.9,0 -0.9,-2.29 -0.9,-2.44 0,-1 0.4,-1.74 0.4,-1.94 -5.3,-1.5 -8.7,-5.48 -8.7,-9.32 0,-1.84 0.9,-3.93 3.2,-5.28 z"
             id="path4609" /><path
             style="fill:#000000;stroke-width:0"
             inkscape:connector-curvature="0"
             d="m 1257.6,345.35 h -1.2 c -0.1,-0.77 -0.4,-2.83 -0.9,-3.18 -0.3,-0.21 -2.9,-0.21 -3.4,-0.21 h -6.4 c 3.6,3.25 4.8,4.22 6.9,5.86 2.6,2.06 5,4.22 5,7.54 0,4.21 -3.7,6.79 -8.2,6.79 -4.3,0 -7.2,-3.03 -7.2,-6.24 0,-1.78 1.5,-1.95 1.8,-1.95 0.9,0 1.9,0.59 1.9,1.85 0,0.62 -0.2,1.85 -2.1,1.85 1.1,2.47 3.5,3.24 5.1,3.24 3.5,0 5.3,-2.72 5.3,-5.54 0,-3.04 -2.1,-5.45 -3.3,-6.7 l -8.3,-8.3 c -0.4,-0.31 -0.4,-0.38 -0.4,-1.36 h 14.4 z"
             id="path4611" /></g>      </g>
    </g>
    <path
       sodipodi:type="spiral"
       style="fill:none;stroke:#00ff00;stroke-width:1px;stroke-linecap:butt;stroke-linejoin:miter;stroke-opacity:1"
       id="path3017"
       sodipodi:cx="371.58163"
       sodipodi:cy="474.77478"
       sodipodi:expansion="1"
       sodipodi:revolution="3"
       sodipodi:radius="260.18759"
       sodipodi:argument="-17.073586"
       sodipodi:t0="0"
       d="m 371.58163,474.77478 c -2.65783,12.77177 -18.52737,2.71843 -21.22752,-4.4175 -7.31724,-19.33793 12.5265,-36.22501 30.06252,-38.03755 31.36784,-3.2422 54.73245,26.41643 54.84758,55.70755 0.16896,42.9859 -40.42549,73.59665 -81.35257,71.6576 -54.54937,-2.58446 -92.60138,-54.46776 -88.46763,-106.9976 5.2019,-66.10343 68.52365,-111.67644 132.64262,-105.27765 77.65667,7.7498 130.79181,82.58676 122.08768,158.28765 -10.25753,89.21087 -96.6543,149.93241 -183.93267,138.8977 C 235.4753,631.85497 167.15178,533.87018 180.53391,435.01728 195.73954,322.69434 305.33131,246.75819 415.75663,262.49953 539.63716,280.15894 623.19354,401.37107 605.08441,523.36728 584.97984,658.80618 452.13754,749.98843 318.57164,729.50508"
       transform="matrix(-1,0,0,1,743.16326,-2.7343754e-7)" />
    <path
       style="fill:none;stroke:#00ff00;stroke-width:1px;stroke-linecap:butt;stroke-linejoin:miter;stroke-opacity:1;marker-end:url(#Arrow2Lend)"
       d="m 269.40489,703.56063 -5.50351,-2.93461"
       id="path4456"
       inkscape:connector-curvature="0" />
    <path
       style="fill:none;stroke:#00ff00;stroke-width:1px;stroke-linecap:butt;stroke-linejoin:miter;stroke-opacity:1;marker-end:url(#Arrow2Lend)"
       d="m 383.88235,262.23833 7.39574,1.11099"
       id="path4644"
       inkscape:connector-curvature="0" />
    <path
       style="fill:none;stroke:#00ff00;stroke-width:1px;stroke-linecap:butt;stroke-linejoin:miter;stroke-opacity:1;marker-end:url(#Arrow2Lend)"
       d="m 222.98895,505.69728 -0.81127,-10.41114"
       id="path4832"
       inkscape:connector-curvature="0" />
    <path
       style="fill:none;stroke:#00ff00;stroke-width:1px;stroke-linecap:butt;stroke-linejoin:miter;stroke-opacity:1;marker-end:url(#Arrow2Lend)"
       d="m 456.95802,523.02855 -2.19515,2.79139"
       id="path5020"
       inkscape:connector-curvature="0" />
  </g>
</svg>
