<?xml version="1.0" encoding="UTF-8" standalone="no"?>
<!-- Created with Inkscape (http://www.inkscape.org/) -->

<svg
   xmlns:ns0="http://www.iki.fi/pav/software/textext/"
   xmlns:dc="http://purl.org/dc/elements/1.1/"
   xmlns:cc="http://creativecommons.org/ns#"
   xmlns:rdf="http://www.w3.org/1999/02/22-rdf-syntax-ns#"
   xmlns:svg="http://www.w3.org/2000/svg"
   xmlns="http://www.w3.org/2000/svg"
   xmlns:sodipodi="http://sodipodi.sourceforge.net/DTD/sodipodi-0.dtd"
   xmlns:inkscape="http://www.inkscape.org/namespaces/inkscape"
   width="297mm"
   height="210mm"
   id="svg2985"
   version="1.1"
   inkscape:version="0.48.4 r9939"
   sodipodi:docname="eigenraeume.pdf">
  <sodipodi:namedview
     inkscape:document-units="mm"
     pagecolor="#ffffff"
     bordercolor="#666666"
     borderopacity="1.0"
     inkscape:pageopacity="0.0"
     inkscape:pageshadow="2"
     inkscape:zoom="0.83457144"
     inkscape:cx="495.62649"
     inkscape:cy="372.04724"
     inkscape:current-layer="layer1"
     id="namedview2989"
     showgrid="false"
     inkscape:snap-bbox="true"
     inkscape:bbox-paths="true"
     inkscape:bbox-nodes="true"
     inkscape:snap-bbox-edge-midpoints="true"
     inkscape:snap-bbox-midpoints="true"
     inkscape:object-paths="true"
     inkscape:snap-intersection-paths="true"
     inkscape:object-nodes="true"
     inkscape:snap-smooth-nodes="true"
     inkscape:snap-midpoints="true"
     inkscape:snap-object-midpoints="true"
     inkscape:snap-center="true"
     inkscape:window-width="1440"
     inkscape:window-height="838"
     inkscape:window-x="1272"
     inkscape:window-y="116"
     inkscape:window-maximized="1"
     inkscape:snap-global="true"
     showguides="true"
     inkscape:guide-bbox="true" />
  <defs
     id="defs2987">
    <inkscape:path-effect
       is_visible="true"
       id="path-effect7855"
       effect="spiro" />
    <inkscape:path-effect
       is_visible="true"
       id="path-effect7851"
       effect="spiro" />
    <inkscape:path-effect
       is_visible="true"
       id="path-effect7847"
       effect="spiro" />
    <inkscape:path-effect
       is_visible="true"
       id="path-effect7843"
       effect="spiro" />
    <inkscape:path-effect
       fuse_tolerance="0"
       vertical_pattern="false"
       prop_units="false"
       tang_offset="0"
       normal_offset="0"
       spacing="0"
       scale_y_rel="false"
       prop_scale="1"
       copytype="single_stretched"
       pattern="M 0,5 10,10 10,0 z"
       is_visible="true"
       id="path-effect7839"
       effect="skeletal" />
    <inkscape:path-effect
       is_visible="true"
       id="path-effect7837"
       effect="spiro" />
    <inkscape:path-effect
       fuse_tolerance="0"
       vertical_pattern="false"
       prop_units="false"
       tang_offset="0"
       normal_offset="0"
       spacing="0"
       scale_y_rel="false"
       prop_scale="1"
       copytype="single_stretched"
       pattern="M 0,5 C 0,2.24 2.24,0 5,0 7.76,0 10,2.24 10,5 10,7.76 7.76,10 5,10 2.24,10 0,7.76 0,5 z"
       is_visible="true"
       id="path-effect7833"
       effect="skeletal" />
    <inkscape:path-effect
       is_visible="true"
       id="path-effect7831"
       effect="spiro" />
    <inkscape:path-effect
       is_visible="true"
       id="path-effect7827"
       effect="spiro" />
    <marker
       style="overflow:visible"
       id="Arrow1Lstart"
       refX="0.0"
       refY="0.0"
       orient="auto"
       inkscape:stockid="Arrow1Lstart">
      <path
         transform="scale(0.8) translate(12.5,0)"
         style="fill-rule:evenodd;stroke:#000000;stroke-width:1.0pt"
         d="M 0.0,0.0 L 5.0,-5.0 L -12.5,0.0 L 5.0,5.0 L 0.0,0.0 z "
         id="path3788" />
    </marker>
    <marker
       style="overflow:visible"
       id="Arrow2Lstart"
       refX="0.0"
       refY="0.0"
       orient="auto"
       inkscape:stockid="Arrow2Lstart">
      <path
         transform="scale(1.1) translate(1,0)"
         d="M 8.7185878,4.0337352 L -2.2072895,0.016013256 L 8.7185884,-4.0017078 C 6.9730900,-1.6296469 6.9831476,1.6157441 8.7185878,4.0337352 z "
         style="fill-rule:evenodd;stroke-width:0.62500000;stroke-linejoin:round"
         id="path3806" />
    </marker>
    <marker
       inkscape:stockid="Arrow2Lend"
       orient="auto"
       refY="0.0"
       refX="0.0"
       id="Arrow2Lend"
       style="overflow:visible;">
      <path
         id="path3809"
         style="fill-rule:evenodd;stroke-width:0.62500000;stroke-linejoin:round;"
         d="M 8.7185878,4.0337352 L -2.2072895,0.016013256 L 8.7185884,-4.0017078 C 6.9730900,-1.6296469 6.9831476,1.6157441 8.7185878,4.0337352 z "
         transform="scale(1.1) rotate(180) translate(1,0)" />
    </marker>
    <marker
       inkscape:stockid="Arrow1Lend"
       orient="auto"
       refY="0.0"
       refX="0.0"
       id="Arrow1Lend"
       style="overflow:visible;">
      <path
         id="path3791"
         d="M 0.0,0.0 L 5.0,-5.0 L -12.5,0.0 L 5.0,5.0 L 0.0,0.0 z "
         style="fill-rule:evenodd;stroke:#000000;stroke-width:1.0pt;"
         transform="scale(0.8) rotate(180) translate(12.5,0)" />
    </marker>
    <marker
       inkscape:stockid="Arrow1Lend"
       orient="auto"
       refY="0"
       refX="0"
       id="Arrow1Lend-7"
       style="overflow:visible">
      <path
         inkscape:connector-curvature="0"
         id="path3791-4"
         d="M 0,0 5,-5 -12.5,0 5,5 0,0 z"
         style="fill-rule:evenodd;stroke:#000000;stroke-width:1pt"
         transform="matrix(-0.8,0,0,-0.8,-10,0)" />
    </marker>
    <marker
       inkscape:stockid="Arrow1Lend"
       orient="auto"
       refY="0"
       refX="0"
       id="marker4610"
       style="overflow:visible">
      <path
         inkscape:connector-curvature="0"
         id="path4612"
         d="M 0,0 5,-5 -12.5,0 5,5 0,0 z"
         style="fill-rule:evenodd;stroke:#000000;stroke-width:1pt"
         transform="matrix(-0.8,0,0,-0.8,-10,0)" />
    </marker>
  </defs>
  <metadata
     id="metadata2991">
    <rdf:RDF>
      <cc:Work
         rdf:about="">
        <dc:format>image/svg+xml</dc:format>
        <dc:type
           rdf:resource="http://purl.org/dc/dcmitype/StillImage" />
        <dc:title></dc:title>
      </cc:Work>
    </rdf:RDF>
  </metadata>
  <g
     inkscape:label="Layer 1"
     inkscape:groupmode="layer"
     id="layer1">
    <path
       style="fill:none;stroke:#000000;stroke-width:0.99921262;stroke-linecap:butt;stroke-linejoin:miter;stroke-miterlimit:4;stroke-opacity:1;stroke-dasharray:none;marker-end:url(#Arrow1Lend)"
       d="m 339.44805,341.75338 299.42996,0"
       id="path2994"
       inkscape:connector-curvature="0" />
    <path
       style="fill:none;stroke:#000000;stroke-width:1px;stroke-linecap:butt;stroke-linejoin:miter;stroke-opacity:1;marker-end:url(#Arrow1Lend)"
       d="m 489.66303,491.96833 0,-299.42991"
       id="path2994-1"
       inkscape:connector-curvature="0" />
    <path
       inkscape:connector-curvature="0"
       style="fill:none;stroke:#00ff00;stroke-width:0.99595636;stroke-linecap:round;stroke-linejoin:bevel;stroke-miterlimit:4;stroke-opacity:1;stroke-dasharray:none;stroke-dashoffset:0"
       d="m 498.20788,194.29424 c 0.96706,19.28104 1.93411,31.67892 2.90117,41.69723 0.96706,10.01831 1.93412,17.36471 2.90117,23.48465 0.96706,6.11994 1.93412,10.94316 2.90118,15.06563 0.96705,4.12246 1.93411,7.52127 2.90117,10.48567 0.96705,2.9644 1.93411,5.48493 2.90117,7.71862 0.96706,2.23369 1.93411,4.17591 2.90117,5.91919 0.96706,1.74328 1.93412,3.28504 2.90117,4.68331 0.96706,1.39828 1.93412,2.65151 2.90117,3.79792 0.96706,1.14641 1.93412,2.18497 2.90118,3.1419 0.96705,0.95694 1.93411,1.83153 2.90117,2.64236 0.96706,0.81083 1.93411,1.55738 2.90117,2.25318 0.96706,0.69579 1.93411,1.34045 2.90117,1.94407 0.96706,0.60362 1.93412,1.16589 2.90117,1.6945 0.96706,0.52861 1.93412,1.02331 2.90118,1.49008 0.96705,0.46676 1.93411,0.90538 2.90117,1.32055 0.96705,0.41517 1.93411,0.80672 2.90117,1.17839 0.96706,0.37168 1.93411,0.72335 2.90117,1.05803 0.96706,0.33467 1.93412,0.65225 2.90117,0.95519 0.96706,0.30294 1.93412,0.59115 2.90117,0.86667 0.96706,0.27551 1.93412,0.53825 2.90118,0.7899 0.96705,0.25165 1.93411,0.49214 2.90117,0.72289 0.96706,0.23076 1.93411,0.45172 2.90117,0.66408 0.96706,0.21236 1.93411,0.41607 2.90117,0.61215 0.96706,0.19608 1.93412,0.38449 2.90117,0.56609 0.96706,0.1816 1.93412,0.35636 2.90118,0.52504 0.96705,0.16867 1.93411,0.33122 2.90117,0.48829 0.96705,0.15707 1.93411,0.30864 2.90117,0.45528 0.96706,0.14663 1.93411,0.2883 2.90117,0.4255 0.96706,0.1372 1.93412,0.2699 2.90117,0.39855 0.96706,0.12865 1.93412,0.25321 2.90117,0.37408 0.96706,0.12088 1.93412,0.23803 2.90118,0.35181 0.96705,0.11378 1.93411,0.22416 2.90117,0.33146 0.96706,0.10729 1.93411,0.21147 2.90117,0.31282 0.96706,0.10135 1.93412,0.19984 2.90117,0.29572 0.96706,0.0959 1.93412,0.18913 2.90117,0.27998 0.96706,0.0908 1.93412,0.17927 2.90118,0.26547 0.96705,0.0862 1.93411,0.17015 2.90117,0.25205 0.96706,0.0819 1.93411,0.16172 2.90117,0.23963 0.96706,0.0779 1.93411,0.15389 2.90117,0.2281 0.96706,0.0742 1.93412,0.14663 2.90117,0.21739 0.96706,0.0708 1.93412,0.13986 2.90118,0.20741 0.96705,0.0675 1.93411,0.13355 2.90117,0.19811 0.96705,0.0645 1.93411,0.12766 2.90117,0.18941 0.96706,0.0618 1.93411,0.12215 2.90117,0.18128 0.96706,0.0591 1.93412,0.11699 2.90117,0.17366 0.96706,0.0567 1.93412,0.11215 2.90117,0.16651 0.96706,0.0544 1.93412,0.10761 2.90118,0.1598 0.96705,0.0522 1.93411,0.10332 2.90115,0.15347 0.9671,0.0501 1.9341,0.0993 2.9012,0.14753"
       title="t 5/t"
       id="path5312" />
    <path
       style="fill:none;stroke:#00ff00;stroke-width:0.99595636;stroke-linecap:round;stroke-linejoin:bevel;stroke-miterlimit:4;stroke-opacity:1;stroke-dasharray:none;stroke-dashoffset:0"
       d="m 520.65379,191.58774 c 0.81436,4.06041 1.62872,7.79162 2.44309,11.26281 0.81436,3.47119 1.62873,6.68098 2.44309,9.68206 0.81436,3.00109 1.62873,5.7919 2.44309,8.41229 0.81437,2.62039 1.62873,5.06913 2.44309,7.37692 0.81437,2.3078 1.62873,4.47366 2.4431,6.52163 0.81436,2.04798 1.62872,3.97725 2.44309,5.80694 0.81436,1.82968 1.62873,3.55909 2.44309,5.20361 0.81436,1.64452 1.62873,3.20357 2.44309,4.68968 0.81437,1.4861 1.62873,2.89877 2.44309,4.24829 0.81437,1.34952 1.62873,2.63549 2.4431,3.86643 0.81436,1.23094 1.62872,2.4065 2.44309,3.53383 0.81436,1.12732 1.62873,2.20611 2.44309,3.24238 0.81436,1.03626 1.62873,2.02975 2.44309,2.98556 0.81437,0.95581 1.62873,1.87371 2.44309,2.75808 0.81437,0.88438 1.62873,1.73501 2.4431,2.55566 0.81436,0.82066 1.62872,1.61115 2.44309,2.37473 0.81436,0.76358 1.62873,1.50009 2.44309,2.21235 0.81436,0.71226 1.62873,1.40013 2.44309,2.06608 0.81437,0.66595 1.62873,1.30984 2.44309,1.93385 0.81437,0.62401 1.62873,1.22802 2.4431,1.81393 0.81436,0.58591 1.62872,1.15362 2.44309,1.70481 0.81436,0.5512 1.62873,1.08579 2.44309,1.60527 0.81436,0.51948 1.62873,1.02376 2.44309,1.51418 0.81437,0.49043 1.62873,0.96691 2.4431,1.43065 0.81436,0.46373 1.62872,0.91465 2.44309,1.35383 0.81436,0.43917 1.62873,0.86653 2.44309,1.28304 0.81436,0.41651 1.62873,0.82211 2.44309,1.21766 0.81437,0.39556 1.62873,0.78102 2.44309,1.15716 0.81437,0.37615 1.62873,0.74293 2.4431,1.10106 0.81436,0.35813 1.62872,0.70755 2.44309,1.04893 0.81436,0.34138 1.62873,0.67465 2.44309,1.00043 0.81436,0.32577 1.62873,0.64399 2.44309,0.95521 0.81437,0.31121 1.62873,0.61538 2.44309,0.91299 0.81437,0.29761 1.62873,0.58863 2.4431,0.87351 0.81436,0.28488 1.62872,0.56359 2.44309,0.83654 0.81436,0.27295 1.62873,0.54011 2.44309,0.80186 0.81436,0.26175 1.62873,0.51807 2.44309,0.7693 0.81437,0.25123 1.62873,0.49735 2.44309,0.73868 0.81437,0.24133 1.62873,0.47785 2.4431,0.70985 0.81436,0.23201 1.62872,0.45947 2.44309,0.68268 0.81436,0.22321 1.62873,0.44214 2.44309,0.65705 0.81436,0.2149 1.62873,0.42576 2.44309,0.63281 0.81437,0.20706 1.62873,0.41029 2.44309,0.60992 0.81437,0.19962 1.62873,0.39563 2.4431,0.58822 0.81436,0.19259 1.62872,0.38175 2.44309,0.56768 0.81436,0.18592 1.62873,0.36859 2.44309,0.54818 0.81436,0.1796 1.62873,0.3561 2.44309,0.52968 0.81437,0.17359 1.62873,0.34423 2.4431,0.5121 0.81436,0.16787 1.62872,0.33295 2.44309,0.49538"
       title="t 20/t"
       id="path5389"
       inkscape:connector-curvature="0" />
    <path
       style="fill:none;stroke:#00ff00;stroke-width:0.99595636;stroke-linecap:round;stroke-linejoin:bevel;stroke-miterlimit:4;stroke-opacity:1;stroke-dasharray:none;stroke-dashoffset:0"
       d="m 479.62631,194.29423 c -0.96706,19.28104 -1.93411,31.67892 -2.90117,41.69724 -0.96706,10.01831 -1.93412,17.3647 -2.90117,23.48464 -0.96706,6.11995 -1.93412,10.94316 -2.90118,15.06563 -0.96705,4.12247 -1.93411,7.52127 -2.90117,10.48567 -0.96705,2.9644 -1.93411,5.48493 -2.90117,7.71863 -0.96706,2.2337 -1.93411,4.17592 -2.90117,5.91919 -0.96706,1.74328 -1.93412,3.28504 -2.90117,4.68332 -0.96706,1.39828 -1.93412,2.6515 -2.90117,3.79791 -0.96706,1.14641 -1.93412,2.18497 -2.90118,3.14191 -0.96705,0.95693 -1.93411,1.83153 -2.90117,2.64235 -0.96706,0.81083 -1.93411,1.55738 -2.90117,2.25318 -0.96706,0.6958 -1.93411,1.34046 -2.90117,1.94407 -0.96706,0.60362 -1.93412,1.16589 -2.90117,1.6945 -0.96706,0.52861 -1.93412,1.02332 -2.90118,1.49008 -0.96705,0.46676 -1.93411,0.90538 -2.90117,1.32055 -0.96705,0.41517 -1.93411,0.80672 -2.90117,1.1784 -0.96706,0.37167 -1.93411,0.72334 -2.90117,1.05802 -0.96706,0.33468 -1.93412,0.65225 -2.90117,0.9552 -0.96706,0.30294 -1.93412,0.59115 -2.90117,0.86666 -0.96706,0.27551 -1.93412,0.53825 -2.90118,0.7899 -0.96705,0.25165 -1.93411,0.49214 -2.90117,0.7229 -0.96706,0.23075 -1.93411,0.45171 -2.90117,0.66407 -0.96706,0.21236 -1.93411,0.41607 -2.90117,0.61215 -0.96706,0.19609 -1.93412,0.38449 -2.90117,0.56609 -0.96706,0.18161 -1.93412,0.35637 -2.90118,0.52504 -0.96705,0.16867 -1.93411,0.33122 -2.90117,0.48829 -0.96705,0.15708 -1.93411,0.30865 -2.90117,0.45528 -0.96706,0.14663 -1.93411,0.2883 -2.90117,0.4255 -0.96706,0.1372 -1.93412,0.26991 -2.90117,0.39855 -0.96706,0.12865 -1.93412,0.25322 -2.90117,0.37409 -0.96706,0.12087 -1.93412,0.23802 -2.90118,0.3518 -0.96705,0.11378 -1.93411,0.22416 -2.90117,0.33146 -0.96706,0.10729 -1.93411,0.21148 -2.90117,0.31282 -0.96706,0.10135 -1.93412,0.19984 -2.90117,0.29572 -0.96706,0.0959 -1.93412,0.18914 -2.90117,0.27998 -0.96706,0.0908 -1.93412,0.17927 -2.90118,0.26547 -0.96705,0.0862 -1.93411,0.17016 -2.90117,0.25205 -0.96706,0.0819 -1.93411,0.16172 -2.90117,0.23963 -0.96706,0.0779 -1.93411,0.1539 -2.90117,0.2281 -0.96706,0.0742 -1.93412,0.14663 -2.90117,0.21739 -0.96706,0.0708 -1.93412,0.13986 -2.90118,0.20742 -0.96705,0.0675 -1.93411,0.13355 -2.90117,0.1981 -0.96705,0.0646 -1.93411,0.12766 -2.90117,0.18942 -0.96706,0.0618 -1.93411,0.12214 -2.90117,0.18128 -0.96706,0.0591 -1.93412,0.11698 -2.90117,0.17366 -0.96706,0.0567 -1.93412,0.11214 -2.90117,0.16651 -0.96706,0.0544 -1.93412,0.1076 -2.90118,0.15979 -0.96705,0.0522 -1.93411,0.10333 -2.90115,0.15348 -0.9671,0.0501 -1.9341,0.0993 -2.9012,0.14752"
       title="t 5/t"
       id="path5312-8"
       inkscape:connector-curvature="0" />
    <path
       style="fill:none;stroke:#00ff00;stroke-width:0.99595636;stroke-linecap:round;stroke-linejoin:bevel;stroke-miterlimit:4;stroke-opacity:1;stroke-dasharray:none;stroke-dashoffset:0"
       d="m 457.1804,194.29423 c -0.81436,4.06041 -1.62873,7.79162 -2.44309,11.26281 -0.81436,3.47119 -1.62873,6.68098 -2.44309,9.68206 -0.81437,3.00109 -1.62873,5.79189 -2.44309,8.41229 -0.81437,2.62039 -1.62873,5.06913 -2.4431,7.37692 -0.81436,2.3078 -1.62872,4.47366 -2.44309,6.52163 -0.81436,2.04798 -1.62873,3.97725 -2.44309,5.80693 -0.81436,1.82969 -1.62873,3.5591 -2.44309,5.20362 -0.81437,1.64452 -1.62873,3.20357 -2.44309,4.68967 -0.81437,1.48611 -1.62873,2.89878 -2.4431,4.2483 -0.81436,1.34952 -1.62872,2.63549 -2.44309,3.86643 -0.81436,1.23094 -1.62873,2.4065 -2.44309,3.53383 -0.81436,1.12732 -1.62873,2.20611 -2.44309,3.24238 -0.81437,1.03626 -1.62873,2.02974 -2.4431,2.98555 -0.81436,0.95582 -1.62872,1.87372 -2.44309,2.75809 -0.81436,0.88437 -1.62873,1.73501 -2.44309,2.55566 -0.81436,0.82066 -1.62873,1.61115 -2.44309,2.37473 -0.81437,0.76358 -1.62873,1.50009 -2.44309,2.21235 -0.81437,0.71226 -1.62873,1.40013 -2.4431,2.06608 -0.81436,0.66595 -1.62872,1.30984 -2.44309,1.93385 -0.81436,0.62401 -1.62873,1.22802 -2.44309,1.81393 -0.81436,0.58591 -1.62873,1.15361 -2.44309,1.70481 -0.81437,0.5512 -1.62873,1.08579 -2.44309,1.60527 -0.81437,0.51948 -1.62873,1.02376 -2.4431,1.51418 -0.81436,0.49042 -1.62872,0.96691 -2.44309,1.43064 -0.81436,0.46374 -1.62873,0.91467 -2.44309,1.35385 -0.81436,0.43917 -1.62873,0.86653 -2.44309,1.28304 -0.81437,0.41651 -1.62873,0.82211 -2.44309,1.21766 -0.81437,0.39556 -1.62873,0.78102 -2.4431,1.15716 -0.81436,0.37615 -1.62872,0.74293 -2.44309,1.10106 -0.81436,0.35813 -1.62873,0.70755 -2.44309,1.04893 -0.81436,0.34138 -1.62873,0.67465 -2.44309,1.00043 -0.81437,0.32577 -1.62873,0.64399 -2.44309,0.95521 -0.81437,0.31121 -1.62873,0.61538 -2.4431,0.91299 -0.81436,0.29761 -1.62872,0.58863 -2.44309,0.87351 -0.81436,0.28488 -1.62873,0.56359 -2.44309,0.83654 -0.81436,0.27295 -1.62873,0.54011 -2.44309,0.80186 -0.81437,0.26175 -1.62873,0.51807 -2.4431,0.7693 -0.81436,0.25123 -1.62872,0.49735 -2.44309,0.73868 -0.81436,0.24133 -1.62873,0.47785 -2.44309,0.70985 -0.81436,0.23201 -1.62873,0.45947 -2.44309,0.68268 -0.81437,0.22321 -1.62873,0.44214 -2.44309,0.65705 -0.81437,0.2149 -1.62873,0.42576 -2.4431,0.63281 -0.81436,0.20706 -1.62872,0.41029 -2.44309,0.60992 -0.81436,0.19962 -1.62873,0.39563 -2.44309,0.58822 -0.81436,0.19259 -1.62873,0.38175 -2.44309,0.56768 -0.81437,0.18592 -1.62873,0.36859 -2.44309,0.54818 -0.81437,0.1796 -1.62873,0.3561 -2.4431,0.52968 -0.81436,0.17359 -1.62869,0.34423 -2.44309,0.5121 -0.8144,0.16787 -1.6287,0.33295 -2.4431,0.49538"
       title="t 20/t"
       id="path5389-8"
       inkscape:connector-curvature="0" />
    <path
       style="fill:none;stroke:#00ff00;stroke-width:0.99595636;stroke-linecap:round;stroke-linejoin:bevel;stroke-miterlimit:4;stroke-opacity:1;stroke-dasharray:none;stroke-dashoffset:0"
       d="m 498.70004,490.64962 c 0.96706,-19.28104 1.93411,-31.67892 2.90117,-41.69724 0.96706,-10.01831 1.93412,-17.3647 2.90117,-23.48464 0.96706,-6.11995 1.93412,-10.94316 2.90118,-15.06563 0.96705,-4.12247 1.93411,-7.52127 2.90117,-10.48567 0.96705,-2.9644 1.93411,-5.48493 2.90117,-7.71863 0.96706,-2.2337 1.93411,-4.17592 2.90117,-5.91919 0.96706,-1.74328 1.93412,-3.28504 2.90117,-4.68332 0.96706,-1.39828 1.93412,-2.6515 2.90117,-3.79791 0.96706,-1.14641 1.93412,-2.18497 2.90118,-3.14191 0.96705,-0.95693 1.93411,-1.83153 2.90117,-2.64235 0.96706,-0.81083 1.93411,-1.55738 2.90117,-2.25318 0.96706,-0.6958 1.93411,-1.34046 2.90117,-1.94407 0.96706,-0.60362 1.93412,-1.16589 2.90117,-1.6945 0.96706,-0.52861 1.93412,-1.02332 2.90118,-1.49008 0.96705,-0.46676 1.93411,-0.90538 2.90117,-1.32055 0.96705,-0.41517 1.93411,-0.80672 2.90117,-1.1784 0.96706,-0.37167 1.93411,-0.72334 2.90117,-1.05802 0.96706,-0.33468 1.93412,-0.65225 2.90117,-0.9552 0.96706,-0.30294 1.93412,-0.59115 2.90117,-0.86666 0.96706,-0.27551 1.93412,-0.53825 2.90118,-0.7899 0.96705,-0.25165 1.93411,-0.49214 2.90117,-0.7229 0.96706,-0.23075 1.93411,-0.45171 2.90117,-0.66407 0.96706,-0.21236 1.93411,-0.41607 2.90117,-0.61215 0.96706,-0.19609 1.93412,-0.38449 2.90117,-0.56609 0.96706,-0.18161 1.93412,-0.35637 2.90118,-0.52504 0.96705,-0.16867 1.93411,-0.33122 2.90117,-0.48829 0.96705,-0.15708 1.93411,-0.30865 2.90117,-0.45528 0.96706,-0.14663 1.93411,-0.2883 2.90117,-0.4255 0.96706,-0.1372 1.93412,-0.26991 2.90117,-0.39855 0.96706,-0.12865 1.93412,-0.25322 2.90117,-0.37409 0.96706,-0.12087 1.93412,-0.23802 2.90118,-0.3518 0.96705,-0.11378 1.93411,-0.22416 2.90117,-0.33146 0.96706,-0.10729 1.93411,-0.21148 2.90117,-0.31282 0.96706,-0.10135 1.93412,-0.19984 2.90117,-0.29572 0.96706,-0.0959 1.93412,-0.18914 2.90117,-0.27998 0.96706,-0.0908 1.93412,-0.17927 2.90118,-0.26547 0.96705,-0.0862 1.93411,-0.17016 2.90117,-0.25205 0.96706,-0.0819 1.93411,-0.16172 2.90117,-0.23963 0.96706,-0.0779 1.93411,-0.1539 2.90117,-0.2281 0.96706,-0.0742 1.93412,-0.14663 2.90117,-0.21739 0.96706,-0.0708 1.93412,-0.13986 2.90118,-0.20742 0.96705,-0.0675 1.93411,-0.13355 2.90117,-0.1981 0.96705,-0.0646 1.93411,-0.12766 2.90117,-0.18942 0.96706,-0.0618 1.93411,-0.12214 2.90117,-0.18128 0.96706,-0.0591 1.93412,-0.11698 2.90117,-0.17366 0.96706,-0.0567 1.93412,-0.11214 2.90117,-0.16651 0.96706,-0.0544 1.93412,-0.1076 2.90118,-0.15979 0.96705,-0.0522 1.93409,-0.10333 2.90119,-0.15348 0.9671,-0.0501 1.9341,-0.0993 2.9012,-0.14752"
       title="t 5/t"
       id="path5312-8-5"
       inkscape:connector-curvature="0" />
    <path
       style="fill:none;stroke:#00ff00;stroke-width:0.99595636;stroke-linecap:round;stroke-linejoin:bevel;stroke-miterlimit:4;stroke-opacity:1;stroke-dasharray:none;stroke-dashoffset:0"
       d="m 515.32383,481.85125 c 0.81436,-4.06041 1.62873,-7.79162 2.44309,-11.26281 0.81436,-3.47119 1.62873,-6.68098 2.44309,-9.68206 0.81437,-3.00109 1.62873,-5.79189 2.44309,-8.41229 0.81437,-2.62039 1.62873,-5.06913 2.4431,-7.37692 0.81436,-2.3078 1.62872,-4.47366 2.44309,-6.52163 0.81436,-2.04798 1.62873,-3.97725 2.44309,-5.80693 0.81436,-1.82969 1.62873,-3.5591 2.44309,-5.20362 0.81437,-1.64452 1.62873,-3.20357 2.44309,-4.68967 0.81437,-1.48611 1.62873,-2.89878 2.4431,-4.2483 0.81436,-1.34952 1.62872,-2.63549 2.44309,-3.86643 0.81436,-1.23094 1.62873,-2.4065 2.44309,-3.53383 0.81436,-1.12732 1.62873,-2.20611 2.44309,-3.24238 0.81437,-1.03626 1.62873,-2.02974 2.4431,-2.98555 0.81436,-0.95582 1.62872,-1.87372 2.44309,-2.75809 0.81436,-0.88437 1.62873,-1.73501 2.44309,-2.55566 0.81436,-0.82066 1.62873,-1.61115 2.44309,-2.37473 0.81437,-0.76358 1.62873,-1.50009 2.44309,-2.21235 0.81437,-0.71226 1.62873,-1.40013 2.4431,-2.06608 0.81436,-0.66595 1.62872,-1.30984 2.44309,-1.93385 0.81436,-0.62401 1.62873,-1.22802 2.44309,-1.81393 0.81436,-0.58591 1.62873,-1.15361 2.44309,-1.70481 0.81437,-0.5512 1.62873,-1.08579 2.44309,-1.60527 0.81437,-0.51948 1.62873,-1.02376 2.4431,-1.51418 0.81436,-0.49042 1.62872,-0.96691 2.44309,-1.43064 0.81436,-0.46374 1.62873,-0.91467 2.44309,-1.35385 0.81436,-0.43917 1.62873,-0.86653 2.44309,-1.28304 0.81437,-0.41651 1.62873,-0.82211 2.44309,-1.21766 0.81437,-0.39556 1.62873,-0.78102 2.4431,-1.15716 0.81436,-0.37615 1.62872,-0.74293 2.44309,-1.10106 0.81436,-0.35813 1.62873,-0.70755 2.44309,-1.04893 0.81436,-0.34138 1.62873,-0.67465 2.44309,-1.00043 0.81437,-0.32577 1.62873,-0.64399 2.44309,-0.95521 0.81437,-0.31121 1.62873,-0.61538 2.4431,-0.91299 0.81436,-0.29761 1.62872,-0.58863 2.44309,-0.87351 0.81436,-0.28488 1.62873,-0.56359 2.44309,-0.83654 0.81436,-0.27295 1.62873,-0.54011 2.44309,-0.80186 0.81437,-0.26175 1.62873,-0.51807 2.4431,-0.7693 0.81436,-0.25123 1.62872,-0.49735 2.44309,-0.73868 0.81436,-0.24133 1.62873,-0.47785 2.44309,-0.70985 0.81436,-0.23201 1.62873,-0.45947 2.44309,-0.68268 0.81437,-0.22321 1.62873,-0.44214 2.44309,-0.65705 0.81437,-0.2149 1.62873,-0.42576 2.4431,-0.63281 0.81436,-0.20706 1.62872,-0.41029 2.44309,-0.60992 0.81436,-0.19962 1.62873,-0.39563 2.44309,-0.58822 0.81436,-0.19259 1.62873,-0.38175 2.44309,-0.56768 0.81437,-0.18592 1.62873,-0.36859 2.44309,-0.54818 0.81437,-0.1796 1.62873,-0.3561 2.4431,-0.52968 0.81436,-0.17359 1.62869,-0.34423 2.44309,-0.5121 0.8144,-0.16787 1.6287,-0.33295 2.4431,-0.49538"
       title="t 20/t"
       id="path5389-8-5"
       inkscape:connector-curvature="0" />
    <path
       style="fill:none;stroke:#00ff00;stroke-width:0.99595636;stroke-linecap:round;stroke-linejoin:bevel;stroke-miterlimit:4;stroke-opacity:1;stroke-dasharray:none;stroke-dashoffset:0"
       d="m 479.62598,490.64963 c -0.96706,-19.28104 -1.93411,-31.67892 -2.90117,-41.69724 -0.96706,-10.01831 -1.93412,-17.3647 -2.90117,-23.48464 -0.96706,-6.11995 -1.93412,-10.94316 -2.90118,-15.06563 -0.96705,-4.12247 -1.93411,-7.52127 -2.90117,-10.48567 -0.96705,-2.9644 -1.93411,-5.48493 -2.90117,-7.71863 -0.96706,-2.2337 -1.93411,-4.17592 -2.90117,-5.91919 -0.96706,-1.74328 -1.93412,-3.28504 -2.90117,-4.68332 -0.96706,-1.39828 -1.93412,-2.6515 -2.90117,-3.79791 -0.96706,-1.14641 -1.93412,-2.18497 -2.90118,-3.14191 -0.96705,-0.95693 -1.93411,-1.83153 -2.90117,-2.64235 -0.96706,-0.81083 -1.93411,-1.55738 -2.90117,-2.25318 -0.96706,-0.6958 -1.93411,-1.34046 -2.90117,-1.94407 -0.96706,-0.60362 -1.93412,-1.16589 -2.90117,-1.6945 -0.96706,-0.52861 -1.93412,-1.02332 -2.90118,-1.49008 -0.96705,-0.46676 -1.93411,-0.90538 -2.90117,-1.32055 -0.96705,-0.41517 -1.93411,-0.80672 -2.90117,-1.1784 -0.96706,-0.37167 -1.93411,-0.72334 -2.90117,-1.05802 -0.96706,-0.33468 -1.93412,-0.65225 -2.90117,-0.9552 -0.96706,-0.30294 -1.93412,-0.59115 -2.90117,-0.86666 -0.96706,-0.27551 -1.93412,-0.53825 -2.90118,-0.7899 -0.96705,-0.25165 -1.93411,-0.49214 -2.90117,-0.7229 -0.96706,-0.23075 -1.93411,-0.45171 -2.90117,-0.66407 -0.96706,-0.21236 -1.93411,-0.41607 -2.90117,-0.61215 -0.96706,-0.19609 -1.93412,-0.38449 -2.90117,-0.56609 -0.96706,-0.18161 -1.93412,-0.35637 -2.90118,-0.52504 -0.96705,-0.16867 -1.93411,-0.33122 -2.90117,-0.48829 -0.96705,-0.15708 -1.93411,-0.30865 -2.90117,-0.45528 -0.96706,-0.14663 -1.93411,-0.2883 -2.90117,-0.4255 -0.96706,-0.1372 -1.93412,-0.26991 -2.90117,-0.39855 -0.96706,-0.12865 -1.93412,-0.25322 -2.90117,-0.37409 -0.96706,-0.12087 -1.93412,-0.23802 -2.90118,-0.3518 -0.96705,-0.11378 -1.93411,-0.22416 -2.90117,-0.33146 -0.96706,-0.10729 -1.93411,-0.21148 -2.90117,-0.31282 -0.96706,-0.10135 -1.93412,-0.19984 -2.90117,-0.29572 -0.96706,-0.0959 -1.93412,-0.18914 -2.90117,-0.27998 -0.96706,-0.0908 -1.93412,-0.17927 -2.90118,-0.26547 -0.96705,-0.0862 -1.93411,-0.17016 -2.90117,-0.25205 -0.96706,-0.0819 -1.93411,-0.16172 -2.90117,-0.23963 -0.96706,-0.0779 -1.93411,-0.1539 -2.90117,-0.2281 -0.96706,-0.0742 -1.93412,-0.14663 -2.90117,-0.21739 -0.96706,-0.0708 -1.93412,-0.13986 -2.90118,-0.20742 -0.96705,-0.0675 -1.93411,-0.13355 -2.90117,-0.1981 -0.96705,-0.0646 -1.93411,-0.12766 -2.90117,-0.18942 -0.96706,-0.0618 -1.93411,-0.12214 -2.90117,-0.18128 -0.96706,-0.0591 -1.93412,-0.11698 -2.90117,-0.17366 -0.96706,-0.0567 -1.93412,-0.11214 -2.90117,-0.16651 -0.96706,-0.0544 -1.93412,-0.1076 -2.90118,-0.15979 -0.96705,-0.0522 -1.93411,-0.10333 -2.90115,-0.15348 -0.9671,-0.0501 -1.9341,-0.0993 -2.9012,-0.14752"
       title="t 5/t"
       id="path5312-8-1"
       inkscape:connector-curvature="0" />
    <path
       style="fill:none;stroke:#00ff00;stroke-width:0.99595636;stroke-linecap:round;stroke-linejoin:bevel;stroke-miterlimit:4;stroke-opacity:1;stroke-dasharray:none;stroke-dashoffset:0"
       d="m 463.79641,481.76052 c -0.81436,-4.06041 -1.62873,-7.79162 -2.44309,-11.26281 -0.81436,-3.47119 -1.62873,-6.68098 -2.44309,-9.68206 -0.81437,-3.00109 -1.62873,-5.79189 -2.44309,-8.41229 -0.81437,-2.62039 -1.62873,-5.06913 -2.4431,-7.37692 -0.81436,-2.3078 -1.62872,-4.47366 -2.44309,-6.52163 -0.81436,-2.04798 -1.62873,-3.97725 -2.44309,-5.80693 -0.81436,-1.82969 -1.62873,-3.5591 -2.44309,-5.20362 -0.81437,-1.64452 -1.62873,-3.20357 -2.44309,-4.68967 -0.81437,-1.48611 -1.62873,-2.89878 -2.4431,-4.2483 -0.81436,-1.34952 -1.62872,-2.63549 -2.44309,-3.86643 -0.81436,-1.23094 -1.62873,-2.4065 -2.44309,-3.53383 -0.81436,-1.12732 -1.62873,-2.20611 -2.44309,-3.24238 -0.81437,-1.03626 -1.62873,-2.02974 -2.4431,-2.98555 -0.81436,-0.95582 -1.62872,-1.87372 -2.44309,-2.75809 -0.81436,-0.88437 -1.62873,-1.73501 -2.44309,-2.55566 -0.81436,-0.82066 -1.62873,-1.61115 -2.44309,-2.37473 -0.81437,-0.76358 -1.62873,-1.50009 -2.44309,-2.21235 -0.81437,-0.71226 -1.62873,-1.40013 -2.4431,-2.06608 -0.81436,-0.66595 -1.62872,-1.30984 -2.44309,-1.93385 -0.81436,-0.62401 -1.62873,-1.22802 -2.44309,-1.81393 -0.81436,-0.58591 -1.62873,-1.15361 -2.44309,-1.70481 -0.81437,-0.5512 -1.62873,-1.08579 -2.44309,-1.60527 -0.81437,-0.51948 -1.62873,-1.02376 -2.4431,-1.51418 -0.81436,-0.49042 -1.62872,-0.96691 -2.44309,-1.43064 -0.81436,-0.46374 -1.62873,-0.91467 -2.44309,-1.35385 -0.81436,-0.43917 -1.62873,-0.86653 -2.44309,-1.28304 -0.81437,-0.41651 -1.62873,-0.82211 -2.44309,-1.21766 -0.81437,-0.39556 -1.62873,-0.78102 -2.4431,-1.15716 -0.81436,-0.37615 -1.62872,-0.74293 -2.44309,-1.10106 -0.81436,-0.35813 -1.62873,-0.70755 -2.44309,-1.04893 -0.81436,-0.34138 -1.62873,-0.67465 -2.44309,-1.00043 -0.81437,-0.32577 -1.62873,-0.64399 -2.44309,-0.95521 -0.81437,-0.31121 -1.62873,-0.61538 -2.4431,-0.91299 -0.81436,-0.29761 -1.62872,-0.58863 -2.44309,-0.87351 -0.81436,-0.28488 -1.62873,-0.56359 -2.44309,-0.83654 -0.81436,-0.27295 -1.62873,-0.54011 -2.44309,-0.80186 -0.81437,-0.26175 -1.62873,-0.51807 -2.4431,-0.7693 -0.81436,-0.25123 -1.62872,-0.49735 -2.44309,-0.73868 -0.81436,-0.24133 -1.62873,-0.47785 -2.44309,-0.70985 -0.81436,-0.23201 -1.62873,-0.45947 -2.44309,-0.68268 -0.81437,-0.22321 -1.62873,-0.44214 -2.44309,-0.65705 -0.81437,-0.2149 -1.62873,-0.42576 -2.4431,-0.63281 -0.81436,-0.20706 -1.62872,-0.41029 -2.44309,-0.60992 -0.81436,-0.19962 -1.62873,-0.39563 -2.44309,-0.58822 -0.81436,-0.19259 -1.62873,-0.38175 -2.44309,-0.56768 -0.81437,-0.18592 -1.62873,-0.36859 -2.44309,-0.54818 -0.81437,-0.1796 -1.62873,-0.3561 -2.4431,-0.52968 -0.81436,-0.17359 -1.62869,-0.34423 -2.44309,-0.5121 -0.8144,-0.16787 -1.6287,-0.33295 -2.4431,-0.49538"
       title="t 20/t"
       id="path5389-8-7"
       inkscape:connector-curvature="0" />
    <path
       inkscape:connector-curvature="0"
       id="path5523"
       d="m 526.01592,311.94076 -2.73517,-2.30331"
       style="fill:none;stroke:#00ff00;stroke-width:1px;stroke-linecap:butt;stroke-linejoin:miter;stroke-opacity:1;marker-end:url(#Arrow2Lend)" />
    <path
       inkscape:connector-curvature="0"
       id="path5713"
       d="m 564.45236,280.27029 -3.88683,-3.31101"
       style="fill:none;stroke:#00ff00;stroke-width:1px;stroke-linecap:butt;stroke-linejoin:miter;stroke-opacity:1;marker-end:url(#Arrow2Lend)" />
    <path
       inkscape:connector-curvature="0"
       id="path5903"
       d="m 456.41694,307.14646 2.90117,-3.79791"
       style="fill:none;stroke:#00ff00;stroke-width:1px;stroke-linecap:butt;stroke-linejoin:miter;stroke-opacity:1;marker-end:url(#Arrow2Lend)" />
    <path
       inkscape:connector-curvature="0"
       id="path6093"
       d="m 418.09093,278.81513 2.44309,-2.37473"
       style="fill:none;stroke:#00ff00;stroke-width:1px;stroke-linecap:butt;stroke-linejoin:miter;stroke-opacity:1;marker-end:url(#Arrow2Lend)" />
    <path
       inkscape:connector-curvature="0"
       id="path6283"
       d="m 524.81059,374.65548 -2.90118,3.14191"
       style="fill:none;stroke:#00ff00;stroke-width:1px;stroke-linecap:butt;stroke-linejoin:miter;stroke-opacity:1;marker-end:url(#Arrow2Lend)" />
    <path
       inkscape:connector-curvature="0"
       id="path6473"
       d="m 554.4133,397.33035 -2.44309,2.37473"
       style="fill:none;stroke:#00ff00;stroke-width:1px;stroke-linecap:butt;stroke-linejoin:miter;stroke-opacity:1;marker-end:url(#Arrow2Lend)" />
    <path
       inkscape:connector-curvature="0"
       id="path6663"
       d="m 447.71309,369.75996 2.90117,2.25318"
       style="fill:none;stroke:#00ff00;stroke-width:1px;stroke-linecap:butt;stroke-linejoin:miter;stroke-opacity:1;marker-end:url(#Arrow2Lend)" />
    <path
       inkscape:connector-curvature="0"
       id="path6853"
       d="m 419.82075,392.96119 2.4431,2.06608"
       style="fill:none;stroke:#00ff00;stroke-width:1px;stroke-linecap:butt;stroke-linejoin:miter;stroke-opacity:1;marker-end:url(#Arrow2Lend)" />
    <path
       inkscape:connector-curvature="0"
       id="path9619"
       d="m 489.66303,341.75338 -61.71435,-0.0776"
       style="fill:none;stroke:#ff0000;stroke-width:1px;stroke-linecap:butt;stroke-linejoin:miter;stroke-opacity:1" />
    <path
       inkscape:connector-curvature="0"
       id="path9621"
       d="m 489.66303,341.75338 0.096,61.71244"
       style="fill:none;stroke:#ff0000;stroke-width:1px;stroke-linecap:butt;stroke-linejoin:miter;stroke-opacity:1" />
    <path
       inkscape:connector-curvature="0"
       id="path9623"
       d="m 489.66303,341.75338 -0.006,-61.71342"
       style="fill:none;stroke:#ff0000;stroke-width:1px;stroke-linecap:butt;stroke-linejoin:miter;stroke-opacity:1" />
    <path
       inkscape:connector-curvature="0"
       id="path9627"
       d="m 489.66303,341.75338 61.71378,0.0242"
       style="fill:none;stroke:#ff0000;stroke-width:1px;stroke-linecap:butt;stroke-linejoin:miter;stroke-opacity:1" />
    <path
       inkscape:connector-curvature="0"
       id="path9629"
       d="m 489.66003,290.89667 0,-5.0519"
       style="fill:none;stroke:#0000ff;stroke-width:1px;stroke-linecap:butt;stroke-linejoin:miter;stroke-opacity:1;marker-end:url(#Arrow2Lend)" />
    <path
       inkscape:connector-curvature="0"
       id="path9823"
       d="m 535.04531,341.75338 -5.70039,0"
       style="fill:none;stroke:#0000ff;stroke-width:1px;stroke-linecap:butt;stroke-linejoin:miter;stroke-opacity:1;marker-end:url(#Arrow2Lend)" />
    <path
       inkscape:connector-curvature="0"
       id="path10017"
       d="m 447.55667,341.71049 5.29327,0"
       style="fill:none;stroke:#0000ff;stroke-width:1px;stroke-linecap:butt;stroke-linejoin:miter;stroke-opacity:1;marker-end:url(#Arrow2Lend)" />
    <path
       inkscape:connector-curvature="0"
       id="path10211"
       d="m 489.66303,387.68737 0,3.05378"
       style="fill:none;stroke:#0000ff;stroke-width:1px;stroke-linecap:butt;stroke-linejoin:miter;stroke-opacity:1;marker-end:url(#Arrow2Lend)" />
    <g
       style="font-style:normal;font-variant:normal;font-weight:normal;font-stretch:normal;letter-spacing:normal;word-spacing:normal;text-anchor:start;fill:none;stroke:#000000;stroke-linecap:butt;stroke-linejoin:miter;stroke-miterlimit:10.43299961;stroke-opacity:1;stroke-dasharray:none;stroke-dashoffset:0"
       id="content"
       transform="matrix(2.758971,0,0,-2.758971,6.588538,2324.2153)"
       xml:space="preserve"
       stroke-miterlimit="10.433"
       font-style="normal"
       font-variant="normal"
       font-weight="normal"
       font-stretch="normal"
       font-size-adjust="none"
       letter-spacing="normal"
       word-spacing="normal"
       ns0:text="$\\xi_1$"
       ns0:preamble="">
<path
   style="fill:#000000;stroke-width:0"
   inkscape:connector-curvature="0"
   d="m 224.97,710.17 -0.1,-0.07 -0.1,-0.07 -0.09,-0.07 -0.08,-0.07 -0.08,-0.07 -0.08,-0.07 -0.07,-0.07 -0.07,-0.08 -0.06,-0.07 -0.06,-0.07 -0.05,-0.07 -0.05,-0.08 -0.05,-0.07 -0.04,-0.07 -0.05,-0.07 -0.03,-0.07 -0.04,-0.07 -0.03,-0.07 -0.03,-0.06 -0.02,-0.07 -0.02,-0.06 -0.02,-0.06 -0.02,-0.06 -0.02,-0.06 -0.01,-0.05 -0.01,-0.05 -0.01,-0.05 -0.01,-0.05 0,-0.05 -0.01,-0.04 0,-0.04 0,-0.03 c 0,-0.48 0.27,-0.76 0.29,-0.79 0.32,-0.33 0.41,-0.37 1.16,-0.65 l 1.2,-0.46 c 0.15,-0.07 0.35,-0.14 0.35,-0.43 0,-0.23 -0.18,-0.53 -0.49,-0.53 -0.44,0 -0.77,0.24 -0.87,0.32 -0.06,0.04 -0.07,0.05 -0.11,0.05 -0.08,0 -0.1,-0.07 -0.1,-0.11 0,-0.12 0.52,-0.48 1.08,-0.48 0.62,0 1.04,0.58 1.04,1.07 0,0.47 -0.37,0.65 -0.48,0.7 -0.14,0.05 -0.48,0.18 -0.61,0.23 -0.2,0.08 -0.4,0.16 -0.61,0.23 l -0.59,0.24 c -0.45,0.18 -0.75,0.47 -0.75,0.89 0,0.41 0.39,1.27 1.23,1.69 0.36,-0.13 0.66,-0.13 0.87,-0.13 0.3,0 0.93,0 0.93,0.31 0,0.25 -0.43,0.27 -0.82,0.27 l -0.01,-0.22 c 0.35,0 0.39,-0.01 0.57,-0.06 -0.08,-0.04 -0.18,-0.08 -0.64,-0.08 -0.23,0 -0.32,0 -0.5,0.08 h 0 c 0.23,0.06 0.45,0.06 0.57,0.06 l 0.01,0.22 c -0.18,0 -0.47,0 -0.84,-0.12 -0.25,0.26 -0.29,0.59 -0.29,0.78 0,0.55 0.35,1.32 1.1,1.69 0.18,-0.22 0.41,-0.22 0.64,-0.22 0.25,0 0.89,0 0.89,0.31 0,0.26 -0.44,0.27 -0.83,0.27 l 0.01,-0.22 c 0.34,0 0.38,-0.01 0.56,-0.06 -0.08,-0.03 -0.18,-0.08 -0.62,-0.08 -0.19,0 -0.31,0 -0.42,0.09 h 0 c 0.16,0.05 0.37,0.05 0.48,0.05 l -0.01,0.22 c -0.13,0 -0.37,0 -0.63,-0.05 -0.03,0.09 -0.05,0.16 -0.05,0.33 0,0.14 0.05,0.35 0.05,0.37 0,0.08 -0.05,0.13 -0.12,0.13 -0.18,0 -0.18,-0.46 -0.18,-0.49 0,-0.2 0.06,-0.35 0.07,-0.39 -1.06,-0.3 -1.74,-1.1 -1.74,-1.86 0,-0.37 0.18,-0.79 0.65,-1.06 z"
   id="path4688" />
<path
   style="fill:#000000;stroke-width:0"
   inkscape:connector-curvature="0"
   d="m 230.13,710.07 0,0 0,0.01 0,0.01 0,0.01 0,0.01 0,0 0,0.01 0,0.01 -0.01,0 0,0.01 0,0.01 0,0 0,0.01 0,0 0,0.01 0,0.01 0,0 0,0.01 0,0 -0.01,0.01 0,0.01 0,0.01 -0.01,0 0,0.01 -0.01,0 0,0.01 -0.01,0 0,0.01 -0.01,0 -0.01,0 -0.01,0 -0.01,0.01 0,0 -0.01,0 0,0 -0.01,0 -0.01,0 0,0 -0.01,0 0,0 -0.01,0 -0.01,0 -0.01,0 0,0 -0.01,0 -0.01,0 -0.01,0 -0.01,0 0,0 -0.01,0 c -0.45,-0.44 -1.08,-0.45 -1.37,-0.45 v -0.25 c 0.17,0 0.63,0 1.01,0.2 v -3.56 c 0,-0.23 0,-0.32 -0.7,-0.32 h -0.26 v -0.25 c 0.12,0.01 0.98,0.03 1.24,0.03 0.22,0 1.09,-0.02 1.25,-0.03 v 0.25 h -0.27 c -0.69,0 -0.69,0.09 -0.69,0.32 z"
   id="path4690" />
</g>    <g
       ns0:preamble=""
       ns0:text="$\\xi_2$"
       word-spacing="normal"
       letter-spacing="normal"
       font-size-adjust="none"
       font-stretch="normal"
       font-weight="normal"
       font-variant="normal"
       font-style="normal"
       stroke-miterlimit="10.433"
       xml:space="preserve"
       transform="matrix(2.758971,0,0,-2.758971,-115.41146,2160.2153)"
       id="g4800"
       style="font-style:normal;font-variant:normal;font-weight:normal;font-stretch:normal;letter-spacing:normal;word-spacing:normal;text-anchor:start;fill:none;stroke:#000000;stroke-linecap:butt;stroke-linejoin:miter;stroke-miterlimit:10.43299961;stroke-opacity:1;stroke-dasharray:none;stroke-dashoffset:0">
<path
   id="path4802"
   d="m 224.97,710.17 -0.1,-0.07 -0.1,-0.07 -0.09,-0.07 -0.08,-0.07 -0.08,-0.07 -0.08,-0.07 -0.07,-0.07 -0.07,-0.08 -0.06,-0.07 -0.06,-0.07 -0.05,-0.07 -0.05,-0.08 -0.05,-0.07 -0.04,-0.07 -0.05,-0.07 -0.03,-0.07 -0.04,-0.07 -0.03,-0.07 -0.03,-0.06 -0.02,-0.07 -0.02,-0.06 -0.02,-0.06 -0.02,-0.06 -0.02,-0.06 -0.01,-0.05 -0.01,-0.05 -0.01,-0.05 -0.01,-0.05 0,-0.05 -0.01,-0.04 0,-0.04 0,-0.03 c 0,-0.48 0.27,-0.76 0.29,-0.79 0.32,-0.33 0.41,-0.37 1.16,-0.65 l 1.2,-0.46 c 0.15,-0.07 0.35,-0.14 0.35,-0.43 0,-0.23 -0.18,-0.53 -0.49,-0.53 -0.44,0 -0.77,0.24 -0.87,0.32 -0.06,0.04 -0.07,0.05 -0.11,0.05 -0.08,0 -0.1,-0.07 -0.1,-0.11 0,-0.12 0.52,-0.48 1.08,-0.48 0.62,0 1.04,0.58 1.04,1.07 0,0.47 -0.37,0.65 -0.48,0.7 -0.14,0.05 -0.48,0.18 -0.61,0.23 -0.2,0.08 -0.4,0.16 -0.61,0.23 l -0.59,0.24 c -0.45,0.18 -0.75,0.47 -0.75,0.89 0,0.41 0.39,1.27 1.23,1.69 0.36,-0.13 0.66,-0.13 0.87,-0.13 0.3,0 0.93,0 0.93,0.31 0,0.25 -0.43,0.27 -0.82,0.27 l -0.01,-0.22 c 0.35,0 0.39,-0.01 0.57,-0.06 -0.08,-0.04 -0.18,-0.08 -0.64,-0.08 -0.23,0 -0.32,0 -0.5,0.08 h 0 c 0.23,0.06 0.45,0.06 0.57,0.06 l 0.01,0.22 c -0.18,0 -0.47,0 -0.84,-0.12 -0.25,0.26 -0.29,0.59 -0.29,0.78 0,0.55 0.35,1.32 1.1,1.69 0.18,-0.22 0.41,-0.22 0.64,-0.22 0.25,0 0.89,0 0.89,0.31 0,0.26 -0.44,0.27 -0.83,0.27 l 0.01,-0.22 c 0.34,0 0.38,-0.01 0.56,-0.06 -0.08,-0.03 -0.18,-0.08 -0.62,-0.08 -0.19,0 -0.31,0 -0.42,0.09 h 0 c 0.16,0.05 0.37,0.05 0.48,0.05 l -0.01,0.22 c -0.13,0 -0.37,0 -0.63,-0.05 -0.03,0.09 -0.05,0.16 -0.05,0.33 0,0.14 0.05,0.35 0.05,0.37 0,0.08 -0.05,0.13 -0.12,0.13 -0.18,0 -0.18,-0.46 -0.18,-0.49 0,-0.2 0.06,-0.35 0.07,-0.39 -1.06,-0.3 -1.74,-1.1 -1.74,-1.86 0,-0.37 0.18,-0.79 0.65,-1.06 z"
   inkscape:connector-curvature="0"
   style="fill:#000000;stroke-width:0" />
<path
   id="path4804"
   d="m 231.31,706.9 h -0.24 c -0.02,-0.15 -0.09,-0.57 -0.18,-0.63 -0.05,-0.05 -0.59,-0.05 -0.69,-0.05 h -1.28 c 0.73,0.65 0.98,0.85 1.4,1.17 0.51,0.42 0.99,0.85 0.99,1.51 0,0.84 -0.74,1.36 -1.63,1.36 -0.86,0 -1.45,-0.61 -1.45,-1.25 0,-0.35 0.3,-0.39 0.37,-0.39 0.17,0 0.37,0.12 0.37,0.37 0,0.13 -0.05,0.37 -0.41,0.37 0.21,0.5 0.69,0.65 1.01,0.65 0.7,0 1.06,-0.54 1.06,-1.11 0,-0.61 -0.43,-1.09 -0.65,-1.34 l -1.68,-1.66 c -0.07,-0.06 -0.07,-0.07 -0.07,-0.27 h 2.87 z"
   inkscape:connector-curvature="0"
   style="fill:#000000;stroke-width:0" />
</g>  </g>
</svg>
