<?xml version="1.0" encoding="UTF-8" standalone="no"?>
<!-- Created with Inkscape (http://www.inkscape.org/) -->

<svg
   xmlns:dc="http://purl.org/dc/elements/1.1/"
   xmlns:cc="http://creativecommons.org/ns#"
   xmlns:rdf="http://www.w3.org/1999/02/22-rdf-syntax-ns#"
   xmlns:svg="http://www.w3.org/2000/svg"
   xmlns="http://www.w3.org/2000/svg"
   xmlns:sodipodi="http://sodipodi.sourceforge.net/DTD/sodipodi-0.dtd"
   xmlns:inkscape="http://www.inkscape.org/namespaces/inkscape"
   width="210mm"
   height="297mm"
   id="svg2"
   version="1.1"
   inkscape:version="0.48.4 r9939"
   sodipodi:docname="lin_sys_5.svg">
  <sodipodi:namedview
     id="base"
     pagecolor="#ffffff"
     bordercolor="#666666"
     borderopacity="1.0"
     inkscape:pageopacity="0.0"
     inkscape:pageshadow="2"
     inkscape:zoom="0.98994949"
     inkscape:cx="270.15556"
     inkscape:cy="803.67685"
     inkscape:document-units="px"
     inkscape:current-layer="layer1"
     showgrid="false"
     inkscape:snap-center="true"
     inkscape:snap-object-midpoints="true"
     inkscape:snap-midpoints="true"
     inkscape:object-paths="true"
     inkscape:snap-intersection-paths="true"
     inkscape:object-nodes="true"
     inkscape:snap-smooth-nodes="true"
     inkscape:snap-global="false"
     showguides="true"
     inkscape:guide-bbox="true"
     inkscape:window-width="1920"
     inkscape:window-height="1138"
     inkscape:window-x="-8"
     inkscape:window-y="-8"
     inkscape:window-maximized="1"
     inkscape:snap-nodes="true"
     inkscape:snap-bbox="true"
     inkscape:bbox-paths="true"
     inkscape:bbox-nodes="true"
     inkscape:snap-bbox-edge-midpoints="true"
     inkscape:snap-bbox-midpoints="true" />
  <defs
     id="defs4">
    <marker
       style="overflow:visible"
       id="Arrow2Lstart"
       refX="0.0"
       refY="0.0"
       orient="auto"
       inkscape:stockid="Arrow2Lstart">
      <path
         transform="scale(1.1) translate(1,0)"
         d="M 8.7185878,4.0337352 L -2.2072895,0.016013256 L 8.7185884,-4.0017078 C 6.9730900,-1.6296469 6.9831476,1.6157441 8.7185878,4.0337352 z "
         style="fill-rule:evenodd;stroke-width:0.62500000;stroke-linejoin:round"
         id="path3779" />
    </marker>
    <marker
       style="overflow:visible"
       id="Arrow1Lstart"
       refX="0.0"
       refY="0.0"
       orient="auto"
       inkscape:stockid="Arrow1Lstart">
      <path
         transform="scale(0.8) translate(12.5,0)"
         style="fill-rule:evenodd;stroke:#000000;stroke-width:1.0pt"
         d="M 0.0,0.0 L 5.0,-5.0 L -12.5,0.0 L 5.0,5.0 L 0.0,0.0 z "
         id="path3761" />
    </marker>
    <marker
       style="overflow:visible;"
       id="Arrow1Lend"
       refX="0.0"
       refY="0.0"
       orient="auto"
       inkscape:stockid="Arrow1Lend">
      <path
         transform="scale(0.8) rotate(180) translate(12.5,0)"
         style="fill-rule:evenodd;stroke:#000000;stroke-width:1.0pt;"
         d="M 0.0,0.0 L 5.0,-5.0 L -12.5,0.0 L 5.0,5.0 L 0.0,0.0 z "
         id="path3764" />
    </marker>
    <marker
       style="overflow:visible"
       id="Arrow2Lstart-9"
       refX="0"
       refY="0"
       orient="auto"
       inkscape:stockid="Arrow2Lstart">
      <path
         transform="matrix(1.1,0,0,1.1,1.1,0)"
         d="M 8.7185878,4.0337352 -2.2072895,0.01601326 8.7185884,-4.0017078 c -1.7454984,2.3720609 -1.7354408,5.6174519 -6e-7,8.035443 z"
         style="fill-rule:evenodd;stroke-width:0.625;stroke-linejoin:round"
         id="path3779-3"
         inkscape:connector-curvature="0" />
    </marker>
    <marker
       style="overflow:visible"
       id="Arrow2Lstart-98"
       refX="0"
       refY="0"
       orient="auto"
       inkscape:stockid="Arrow2Lstart">
      <path
         transform="matrix(1.1,0,0,1.1,1.1,0)"
         d="M 8.7185878,4.0337352 -2.2072895,0.01601326 8.7185884,-4.0017078 c -1.7454984,2.3720609 -1.7354408,5.6174519 -6e-7,8.035443 z"
         style="fill-rule:evenodd;stroke-width:0.625;stroke-linejoin:round"
         id="path3779-6"
         inkscape:connector-curvature="0" />
    </marker>
    <marker
       style="overflow:visible"
       id="Arrow2Lstart-0"
       refX="0"
       refY="0"
       orient="auto"
       inkscape:stockid="Arrow2Lstart">
      <path
         transform="matrix(1.1,0,0,1.1,1.1,0)"
         d="M 8.7185878,4.0337352 -2.2072895,0.01601326 8.7185884,-4.0017078 c -1.7454984,2.3720609 -1.7354408,5.6174519 -6e-7,8.035443 z"
         style="fill-rule:evenodd;stroke-width:0.625;stroke-linejoin:round"
         id="path3779-2"
         inkscape:connector-curvature="0" />
    </marker>
    <marker
       style="overflow:visible"
       id="Arrow2Lstart-0-7"
       refX="0"
       refY="0"
       orient="auto"
       inkscape:stockid="Arrow2Lstart">
      <path
         transform="matrix(1.1,0,0,1.1,1.1,0)"
         d="M 8.7185878,4.0337352 -2.2072895,0.01601326 8.7185884,-4.0017078 c -1.7454984,2.3720609 -1.7354408,5.6174519 -6e-7,8.035443 z"
         style="fill-rule:evenodd;stroke-width:0.625;stroke-linejoin:round"
         id="path3779-2-6"
         inkscape:connector-curvature="0" />
    </marker>
    <marker
       style="overflow:visible"
       id="Arrow2Lstart-0-8"
       refX="0"
       refY="0"
       orient="auto"
       inkscape:stockid="Arrow2Lstart">
      <path
         transform="matrix(1.1,0,0,1.1,1.1,0)"
         d="M 8.7185878,4.0337352 -2.2072895,0.01601326 8.7185884,-4.0017078 c -1.7454984,2.3720609 -1.7354408,5.6174519 -6e-7,8.035443 z"
         style="fill-rule:evenodd;stroke-width:0.625;stroke-linejoin:round"
         id="path3779-2-7"
         inkscape:connector-curvature="0" />
    </marker>
    <marker
       style="overflow:visible"
       id="Arrow2Lstart-0-1"
       refX="0"
       refY="0"
       orient="auto"
       inkscape:stockid="Arrow2Lstart">
      <path
         transform="matrix(1.1,0,0,1.1,1.1,0)"
         d="M 8.7185878,4.0337352 -2.2072895,0.01601326 8.7185884,-4.0017078 c -1.7454984,2.3720609 -1.7354408,5.6174519 -6e-7,8.035443 z"
         style="fill-rule:evenodd;stroke-width:0.625;stroke-linejoin:round"
         id="path3779-2-60"
         inkscape:connector-curvature="0" />
    </marker>
  </defs>
  <metadata
     id="metadata7">
    <rdf:RDF>
      <cc:Work
         rdf:about="">
        <dc:format>image/svg+xml</dc:format>
        <dc:type
           rdf:resource="http://purl.org/dc/dcmitype/StillImage" />
        <dc:title />
      </cc:Work>
    </rdf:RDF>
  </metadata>
  <g
     id="layer1"
     inkscape:groupmode="layer"
     inkscape:label="Ebene 1">
    <path
       inkscape:connector-curvature="0"
       id="path2987"
       d="m 374.2345,605.48785 0,-548.857273"
       style="fill:none;stroke:#000000;stroke-width:1.14271963;stroke-linecap:butt;stroke-linejoin:miter;stroke-miterlimit:4;stroke-opacity:1;stroke-dasharray:none;marker-end:url(#Arrow1Lend)" />
    <path
       inkscape:connector-curvature="0"
       id="path2985"
       d="m 99.400372,326.86632 549.668258,0"
       style="fill:none;stroke:#000000;stroke-width:0.93175322px;stroke-linecap:butt;stroke-linejoin:miter;stroke-opacity:1;marker-start:none;marker-end:url(#Arrow1Lend)" />
    <g
       id="g4574"
       transform="matrix(0.83751682,0,0,0.83751682,-309.66857,21.01567)">
      <g
         word-spacing="normal"
         letter-spacing="normal"
         font-size-adjust="none"
         font-stretch="normal"
         font-weight="normal"
         font-variant="normal"
         font-style="normal"
         stroke-miterlimit="10.433"
         xml:space="preserve"
         transform="matrix(1.0629921,0,0,-1.0629921,-186.02362,789.27165)"
         id="content"
         style="font-style:normal;font-variant:normal;font-weight:normal;font-stretch:normal;letter-spacing:normal;word-spacing:normal;text-anchor:start;fill:none;stroke:#000000;stroke-linecap:butt;stroke-linejoin:miter;stroke-miterlimit:10.43299961;stroke-opacity:1;stroke-dasharray:none;stroke-dashoffset:0"><path
           id="path4577"
           d="m 1225.7,361.24 -0.5,-0.34 -0.5,-0.34 -0.4,-0.35 -0.5,-0.36 -0.4,-0.35 -0.3,-0.36 -0.4,-0.37 -0.3,-0.36 -0.4,-0.37 -0.3,-0.36 -0.2,-0.36 -0.3,-0.36 -0.2,-0.36 -0.2,-0.36 -0.2,-0.35 -0.2,-0.35 -0.2,-0.34 -0.2,-0.34 -0.1,-0.33 -0.1,-0.32 -0.1,-0.32 -0.1,-0.3 -0.1,-0.3 -0.1,-0.29 -0.1,-0.27 0,-0.26 -0.1,-0.25 0,-0.24 0,-0.22 0,-0.21 -0.1,-0.19 0,-0.18 c 0,-2.39 1.4,-3.79 1.5,-3.93 1.6,-1.65 2,-1.85 5.8,-3.24 l 6,-2.34 c 0.7,-0.35 1.7,-0.7 1.7,-2.15 0,-1.14 -0.9,-2.64 -2.4,-2.64 -2.2,0 -3.8,1.2 -4.4,1.6 -0.3,0.2 -0.3,0.25 -0.5,0.25 -0.4,0 -0.5,-0.35 -0.5,-0.55 0,-0.6 2.6,-2.39 5.4,-2.39 3.1,0 5.2,2.89 5.2,5.33 0,2.39 -1.9,3.29 -2.4,3.54 -0.7,0.24 -2.4,0.89 -3.1,1.14 -1,0.4 -1.9,0.8 -3,1.15 l -3,1.19 c -2.2,0.9 -3.7,2.34 -3.7,4.43 0,2.05 1.9,6.38 6.1,8.47 1.9,-0.65 3.4,-0.65 4.4,-0.65 l 0.1,1.1 c -1.1,0 -1.5,0 -2.4,0.4 h 0 5.6 c -0.4,-0.2 -0.9,-0.4 -3.2,-0.4 l -0.1,-1.1 c 1.5,0 4.6,0 4.6,1.55 0,1.24 -2.1,1.35 -4,1.35 -1,0 -2.4,0 -4.2,-0.6 -1.3,1.29 -1.5,2.94 -1.5,3.88 0,2.79 1.8,6.63 5.5,8.47 0.9,-1.09 2,-1.09 3.2,-1.09 l 0,1.09 c -0.9,0 -1.5,0 -2.1,0.45 h 0 c 0.8,0.25 1.9,0.25 2.4,0.25 1.7,0 1.9,-0.05 2.8,-0.3 -0.4,-0.15 -0.9,-0.4 -3.1,-0.4 l 0,-1.09 c 1.2,0 4.4,0 4.4,1.54 0,1.3 -2.2,1.35 -4.1,1.35 -0.7,0 -1.9,0 -3.2,-0.25 v 3.48 c 0,0.4 -0.2,0.65 -0.6,0.65 -0.9,0 -0.9,-2.29 -0.9,-2.44 0,-1 0.4,-1.74 0.4,-1.94 -5.3,-1.5 -8.7,-5.48 -8.7,-9.32 0,-1.84 0.9,-3.93 3.2,-5.28 z"
           inkscape:connector-curvature="0"
           style="fill:#000000;stroke-width:0" /><path
           id="path4579"
           d="m 1251.7,361.18 0,0.04 0,0.04 0,0.04 0,0.04 0,0.04 0,0.04 0,0.03 0,0.04 0,0.03 0,0.03 0,0.04 0,0.03 0,0.02 0,0.03 0,0.03 0,0.03 -0.1,0.02 0,0.02 0,0.05 0,0.04 0,0.04 0,0.03 0,0.03 -0.1,0.03 0,0.03 0,0.02 0,0.02 -0.1,0.02 0,0.01 0,0.01 -0.1,0.02 0,0 -0.1,0.01 0,0 0,0.01 0,0 -0.1,0 0,0 0,0 -0.1,0.01 0,0 0,0 -0.1,0 0,0 0,0 -0.1,0 0,0 -0.1,0 0,0 -0.1,0 c -2.2,-2.19 -5.4,-2.23 -6.8,-2.23 v -1.25 c 0.8,0 3.1,0 5.1,0.97 v -17.78 c 0,-1.15 0,-1.61 -3.5,-1.61 H 1244 V 339 h 12.5 v 1.25 h -1.3 c -3.5,0 -3.5,0.46 -3.5,1.61 z"
           inkscape:connector-curvature="0"
           style="fill:#000000;stroke-width:0" /></g>    </g>
    <g
       transform="matrix(0.71784928,0,0,0.83751682,-401.62839,-267.29902)"
       id="g4605">
      <g
         style="font-style:normal;font-variant:normal;font-weight:normal;font-stretch:normal;letter-spacing:normal;word-spacing:normal;text-anchor:start;fill:none;stroke:#000000;stroke-linecap:butt;stroke-linejoin:miter;stroke-miterlimit:10.43299961;stroke-opacity:1;stroke-dasharray:none;stroke-dashoffset:0"
         id="g4607"
         transform="matrix(1.0629921,0,0,-1.0629921,-186.02362,789.27165)"
         xml:space="preserve"
         stroke-miterlimit="10.433"
         font-style="normal"
         font-variant="normal"
         font-weight="normal"
         font-stretch="normal"
         font-size-adjust="none"
         letter-spacing="normal"
         word-spacing="normal"><path
           style="fill:#000000;stroke-width:0"
           inkscape:connector-curvature="0"
           d="m 1225.7,361.24 -0.5,-0.34 -0.5,-0.34 -0.4,-0.35 -0.5,-0.36 -0.4,-0.35 -0.3,-0.36 -0.4,-0.37 -0.3,-0.36 -0.4,-0.37 -0.3,-0.36 -0.2,-0.36 -0.3,-0.36 -0.2,-0.36 -0.2,-0.36 -0.2,-0.35 -0.2,-0.35 -0.2,-0.34 -0.2,-0.34 -0.1,-0.33 -0.1,-0.32 -0.1,-0.32 -0.1,-0.3 -0.1,-0.3 -0.1,-0.29 -0.1,-0.27 0,-0.26 -0.1,-0.25 0,-0.24 0,-0.22 0,-0.21 -0.1,-0.19 0,-0.18 c 0,-2.39 1.4,-3.79 1.5,-3.93 1.6,-1.65 2,-1.85 5.8,-3.24 l 6,-2.34 c 0.7,-0.35 1.7,-0.7 1.7,-2.15 0,-1.14 -0.9,-2.64 -2.4,-2.64 -2.2,0 -3.8,1.2 -4.4,1.6 -0.3,0.2 -0.3,0.25 -0.5,0.25 -0.4,0 -0.5,-0.35 -0.5,-0.55 0,-0.6 2.6,-2.39 5.4,-2.39 3.1,0 5.2,2.89 5.2,5.33 0,2.39 -1.9,3.29 -2.4,3.54 -0.7,0.24 -2.4,0.89 -3.1,1.14 -1,0.4 -1.9,0.8 -3,1.15 l -3,1.19 c -2.2,0.9 -3.7,2.34 -3.7,4.43 0,2.05 1.9,6.38 6.1,8.47 1.9,-0.65 3.4,-0.65 4.4,-0.65 l 0.1,1.1 c -1.1,0 -1.5,0 -2.4,0.4 h 0 5.6 c -0.4,-0.2 -0.9,-0.4 -3.2,-0.4 l -0.1,-1.1 c 1.5,0 4.6,0 4.6,1.55 0,1.24 -2.1,1.35 -4,1.35 -1,0 -2.4,0 -4.2,-0.6 -1.3,1.29 -1.5,2.94 -1.5,3.88 0,2.79 1.8,6.63 5.5,8.47 0.9,-1.09 2,-1.09 3.2,-1.09 l 0,1.09 c -0.9,0 -1.5,0 -2.1,0.45 h 0 c 0.8,0.25 1.9,0.25 2.4,0.25 1.7,0 1.9,-0.05 2.8,-0.3 -0.4,-0.15 -0.9,-0.4 -3.1,-0.4 l 0,-1.09 c 1.2,0 4.4,0 4.4,1.54 0,1.3 -2.2,1.35 -4.1,1.35 -0.7,0 -1.9,0 -3.2,-0.25 v 3.48 c 0,0.4 -0.2,0.65 -0.6,0.65 -0.9,0 -0.9,-2.29 -0.9,-2.44 0,-1 0.4,-1.74 0.4,-1.94 -5.3,-1.5 -8.7,-5.48 -8.7,-9.32 0,-1.84 0.9,-3.93 3.2,-5.28 z"
           id="path4609" /><path
           style="fill:#000000;stroke-width:0"
           inkscape:connector-curvature="0"
           d="m 1257.6,345.35 h -1.2 c -0.1,-0.77 -0.4,-2.83 -0.9,-3.18 -0.3,-0.21 -2.9,-0.21 -3.4,-0.21 h -6.4 c 3.6,3.25 4.8,4.22 6.9,5.86 2.6,2.06 5,4.22 5,7.54 0,4.21 -3.7,6.79 -8.2,6.79 -4.3,0 -7.2,-3.03 -7.2,-6.24 0,-1.78 1.5,-1.95 1.8,-1.95 0.9,0 1.9,0.59 1.9,1.85 0,0.62 -0.2,1.85 -2.1,1.85 1.1,2.47 3.5,3.24 5.1,3.24 3.5,0 5.3,-2.72 5.3,-5.54 0,-3.04 -2.1,-5.45 -3.3,-6.7 l -8.3,-8.3 c -0.4,-0.31 -0.4,-0.38 -0.4,-1.36 h 14.4 z"
           id="path4611" /></g>    </g>
    <path
       inkscape:connector-curvature="0"
       style="fill:none;stroke:#00ff00;stroke-width:2;stroke-linecap:butt;stroke-linejoin:bevel;stroke-miterlimit:4;stroke-opacity:1;stroke-dasharray:none"
       d="m 381,55.784233 c 3.09336,152.373537 6.1867,149.130597 9.28005,170.242267 3.09336,21.11168 6.18671,30.91266 9.28005,38.87423 3.09336,7.96157 6.18671,13.08325 9.28006,17.22834 3.09335,4.1451 6.1867,7.18834 9.28005,9.72445 3.09336,2.53611 6.18669,4.53628 9.28006,6.24636 3.09334,1.71007 6.18669,3.12063 9.28004,4.35118 3.09336,1.23055 6.1867,2.27721 9.28006,3.20489 3.09334,0.92771 6.1867,1.73456 9.28004,2.45889 3.09336,0.7243 6.1867,1.36501 9.28006,1.94616 3.09336,0.58115 6.18669,1.10208 9.28006,1.57868 3.09335,0.47659 6.18669,0.9084 9.28005,1.30631 3.09335,0.39789 6.18669,0.7616 9.28004,1.09882 3.09336,0.33721 6.18671,0.6477 9.28005,0.93711 3.09337,0.28943 6.18671,0.55759 9.28006,0.80869 3.09335,0.25112 6.1867,0.48504 9.28005,0.70496 3.09335,0.21993 6.18669,0.42577 9.28006,0.61998 3.09334,0.19423 6.18669,0.37672 9.28005,0.5495 3.09336,0.17277 6.1867,0.3357 9.28004,0.49038 3.09337,0.15466 6.1867,0.30103 9.28006,0.44033 3.09336,0.13927 6.1867,0.27146 9.28005,0.39755 3.09336,0.12608 6.18671,0.24603 9.28006,0.36072 3.09334,0.11469 6.1867,0.22404 9.28004,0.32879 3.09336,0.10473 6.1867,0.20487 9.28006,0.30094 3.09334,0.0961 6.1867,0.18803 9.28005,0.27644 3.09335,0.0884 6.18669,0.1732 9.28005,0.25485 3.09335,0.0816 6.1867,0.16007 9.28006,0.23568 3.09333,0.0756 6.1867,0.14835 9.28005,0.21858 3.09335,0.0702 6.18669,0.13792 9.28005,0.20332 3.09334,0.0654 6.18669,0.1285 9.28005,0.18955"
       title="t 1/t + 1"
       id="path15935" />
    <path
       inkscape:connector-curvature="0"
       id="path15953"
       d="m 374.25795,326.86632 149.38404,0"
       style="fill:none;stroke:#ff0000;stroke-width:1.33097994px;stroke-linecap:butt;stroke-linejoin:miter;stroke-opacity:1;marker-start:none;marker-end:url(#Arrow2Lstart-98)" />
    <path
       inkscape:connector-curvature="0"
       id="path15953-1"
       d="m 373.569,326.88977 -149.38404,0"
       style="fill:none;stroke:#ff0000;stroke-width:1.33099997;stroke-linecap:butt;stroke-linejoin:miter;stroke-miterlimit:4;stroke-opacity:1;stroke-dasharray:none;marker-start:none;marker-end:url(#Arrow2Lstart-98)" />
    <path
       inkscape:connector-curvature="0"
       id="path15953-1-5"
       d="m 374.25795,176.81679 0,149.38404"
       style="fill:none;stroke:#ff0000;stroke-width:1.33097994px;stroke-linecap:butt;stroke-linejoin:miter;stroke-opacity:1;marker-start:url(#Arrow2Lstart)" />
    <path
       inkscape:connector-curvature="0"
       id="path15953-1-5-8"
       d="m 374.25795,475.58487 0,-149.38404"
       style="fill:none;stroke:#ff0000;stroke-width:1.33097994px;stroke-linecap:butt;stroke-linejoin:miter;stroke-opacity:1;marker-start:url(#Arrow2Lstart)" />
    <path
       sodipodi:nodetypes="cssacssccsssssssssssssssscsssc"
       inkscape:connector-curvature="0"
       style="fill:none;stroke:#00ff00;stroke-width:2;stroke-linecap:butt;stroke-linejoin:bevel;stroke-miterlimit:4;stroke-opacity:1;stroke-dasharray:none;stroke-dashoffset:0"
       d="m 365.6585,55.784237 c -3.09336,152.373543 -6.1867,149.130593 -9.28005,170.242263 -3.09336,21.11169 -6.18671,30.91267 -9.28005,38.87424 -3.09336,7.96157 -5.44739,11.95018 -9.28006,17.22834 -2.63269,3.6256 -6.1422,7.0782 -9.28005,9.72444 -3.13785,2.64624 -6.18669,4.53628 -9.28006,6.24637 -3.09334,1.71007 -6.18669,3.12063 -9.28004,4.35118 -3.09336,1.23055 -6.1867,2.27721 -9.28006,3.20489 -3.09334,0.92771 -6.1867,1.73456 -9.28004,2.45889 -3.09335,0.72429 -6.1867,1.365 -9.28005,1.94615 -3.09336,0.58116 -6.18669,1.10208 -9.28006,1.57868 -3.09335,0.47659 -6.18669,0.9084 -9.28004,1.30631 -3.09335,0.39789 -6.18669,0.7616 -9.28004,1.09882 -3.09336,0.33721 -6.18671,0.6477 -9.28005,0.93711 -3.09337,0.28943 -6.18671,0.5576 -9.28006,0.80869 -3.09335,0.25112 -6.1867,0.48504 -9.28005,0.70496 -3.09335,0.21993 -6.18669,0.42577 -9.28006,0.61998 -3.09334,0.19423 -6.18669,0.37673 -9.28005,0.54951 -3.09337,0.17277 -6.1867,0.33569 -9.28004,0.49037 -3.09337,0.15466 -6.1867,0.30103 -9.28006,0.44033 -3.09336,0.13927 -6.1867,0.27146 -9.28005,0.39755 -3.09337,0.12608 -6.18671,0.24603 -9.28006,0.36072 -3.09334,0.11469 -6.1867,0.22404 -9.28004,0.32879 -3.09336,0.10473 -6.1867,0.20487 -9.28006,0.30094 -3.09334,0.0961 -6.1867,0.18803 -9.28005,0.27644 -3.09335,0.0884 -6.18669,0.1732 -9.28005,0.25485 -3.09335,0.0816 -6.1867,0.16007 -9.28006,0.23568 -3.09333,0.0756 -6.1867,0.14835 -9.28005,0.21858 -3.09335,0.0702 -6.18669,0.13792 -9.28006,0.20332 -3.09334,0.0654 -6.18669,0.1285 -9.28005,0.18955"
       title="t 1/t + 1"
       id="path15935-6" />
    <path
       inkscape:connector-curvature="0"
       id="path19160"
       d="m 341.1015,277.24577 -7.09835,9.37864"
       style="fill:#00ff00;fill-opacity:1;stroke:#00ff00;stroke-width:1;stroke-opacity:1;marker-start:url(#Arrow2Lstart-0);marker-end:none;stroke-miterlimit:4;stroke-dasharray:none" />
    <path
       inkscape:connector-curvature="0"
       style="fill:none;stroke:#00ff00;stroke-width:2;stroke-linecap:round;stroke-linejoin:bevel;stroke-miterlimit:4;stroke-opacity:1;stroke-dasharray:none;stroke-dashoffset:0;marker-mid:none"
       d="m 366.8586,598.76918 c -3.09336,-152.37354 -6.1867,-149.13059 -9.28005,-170.24226 -3.09336,-21.11169 -6.18671,-30.91267 -9.28005,-38.87424 -3.09336,-7.96157 -6.18671,-13.08325 -9.28006,-17.22834 -3.09335,-4.1451 -6.1867,-7.18834 -9.28005,-9.72444 -3.09336,-2.53612 -6.18669,-4.53628 -9.28006,-6.24637 -3.09334,-1.71007 -6.18669,-3.12063 -9.28004,-4.35118 -3.09336,-1.23055 -6.1867,-2.27721 -9.28006,-3.20489 -3.09334,-0.92771 -6.1867,-1.73456 -9.28004,-2.45889 -3.09335,-0.72429 -6.1867,-1.365 -9.28005,-1.94615 -3.09336,-0.58116 -6.18669,-1.10208 -9.28006,-1.57868 -3.09335,-0.47659 -6.18669,-0.9084 -9.28004,-1.30631 -3.09335,-0.39789 -6.18669,-0.7616 -9.28004,-1.09882 -3.09336,-0.33721 -6.18671,-0.6477 -9.28005,-0.93711 -3.09337,-0.28943 -6.18671,-0.5576 -9.28006,-0.80869 -3.09335,-0.25112 -6.1867,-0.48504 -9.28005,-0.70496 -3.09335,-0.21993 -6.18669,-0.42577 -9.28006,-0.61998 -3.09334,-0.19423 -6.18669,-0.37673 -9.28005,-0.54951 -3.09337,-0.17277 -6.1867,-0.33569 -9.28004,-0.49037 -3.09337,-0.15466 -6.1867,-0.30103 -9.28006,-0.44033 -3.09336,-0.13927 -6.1867,-0.27146 -9.28005,-0.39755 -3.09337,-0.12608 -6.18671,-0.24603 -9.28006,-0.36072 -3.09334,-0.11469 -6.1867,-0.22404 -9.28004,-0.32879 -3.09336,-0.10473 -6.1867,-0.20487 -9.28006,-0.30094 -3.09334,-0.0961 -6.1867,-0.18803 -9.28005,-0.27644 -3.09335,-0.0884 -6.18669,-0.1732 -9.28005,-0.25485 -3.09335,-0.0816 -6.1867,-0.16007 -9.28006,-0.23568 -3.09333,-0.0756 -6.1867,-0.14835 -9.28005,-0.21858 -3.09335,-0.0702 -6.18669,-0.13792 -9.28006,-0.20332 -3.09334,-0.0654 -6.18669,-0.1285 -9.28005,-0.18955"
       title="t 1/t + 1"
       id="path15935-6-0" />
    <path
       inkscape:connector-curvature="0"
       style="fill:none;stroke:#00ff00;stroke-width:2;stroke-linecap:butt;stroke-linejoin:bevel;stroke-miterlimit:4;stroke-opacity:1;stroke-dasharray:none"
       d="m 383.041,599.36218 c 3.09336,-152.37354 6.1867,-149.13059 9.28005,-170.24226 3.09336,-21.11169 6.18671,-30.91267 9.28005,-38.87424 3.09336,-7.96157 6.18671,-13.08325 9.28006,-17.22834 3.09335,-4.1451 6.1867,-7.18834 9.28005,-9.72444 3.09336,-2.53612 6.18669,-4.53628 9.28006,-6.24637 3.09334,-1.71007 6.18669,-3.12063 9.28004,-4.35118 3.09336,-1.23055 6.1867,-2.27721 9.28006,-3.20489 3.09334,-0.92771 6.1867,-1.73456 9.28004,-2.45889 3.09335,-0.72429 6.1867,-1.365 9.28005,-1.94615 3.09336,-0.58116 6.18669,-1.10208 9.28006,-1.57868 3.09335,-0.47659 6.18669,-0.9084 9.28004,-1.30631 3.09335,-0.39789 6.18669,-0.7616 9.28004,-1.09882 3.09336,-0.33721 6.18671,-0.6477 9.28005,-0.93711 3.09337,-0.28943 6.18671,-0.5576 9.28006,-0.80869 3.09335,-0.25112 6.1867,-0.48504 9.28005,-0.70496 3.09335,-0.21993 6.18669,-0.42577 9.28006,-0.61998 3.09334,-0.19423 6.18669,-0.37673 9.28005,-0.54951 3.09337,-0.17277 6.1867,-0.33569 9.28004,-0.49037 3.09337,-0.15466 6.1867,-0.30103 9.28006,-0.44033 3.09336,-0.13927 6.1867,-0.27146 9.28005,-0.39755 3.09337,-0.12608 6.18671,-0.24603 9.28006,-0.36072 3.09334,-0.11469 6.1867,-0.22404 9.28004,-0.32879 3.09336,-0.10473 6.1867,-0.20487 9.28006,-0.30094 3.09334,-0.0961 6.1867,-0.18803 9.28005,-0.27644 3.09335,-0.0884 6.18669,-0.1732 9.28005,-0.25485 3.09335,-0.0816 6.1867,-0.16007 9.28006,-0.23568 3.09333,-0.0756 6.1867,-0.14835 9.28005,-0.21858 3.09335,-0.0702 6.18669,-0.13792 9.28006,-0.20332 3.09334,-0.0654 6.18669,-0.1285 9.28005,-0.18955"
       title="t 1/t + 1"
       id="path15935-6-0-2" />
    <path
       inkscape:connector-curvature="0"
       id="path19160-7"
       d="m 405.97356,277.83265 6.59438,9.69315"
       style="fill:#00ff00;fill-opacity:1;stroke:#00ff00;stroke-width:1;stroke-miterlimit:4;stroke-opacity:1;stroke-dasharray:none;marker-start:url(#Arrow2Lstart-0);marker-end:none" />
    <path
       inkscape:connector-curvature="0"
       id="path19160-7-8"
       d="m 405.91533,380.87454 6.33708,-9.84535"
       style="fill:#00ff00;fill-opacity:1;stroke:#00ff00;stroke-width:1;stroke-miterlimit:4;stroke-opacity:1;stroke-dasharray:none;marker-start:url(#Arrow2Lstart-0);marker-end:none" />
    <path
       inkscape:connector-curvature="0"
       id="path19160-7-8-9"
       d="m 344.49547,381.09638 -6.33708,-9.84535"
       style="fill:#00ff00;fill-opacity:1;stroke:#00ff00;stroke-width:1;stroke-miterlimit:4;stroke-opacity:1;stroke-dasharray:none;marker-start:url(#Arrow2Lstart-0);marker-end:none" />
  </g>
</svg>
