<?xml version="1.0" encoding="UTF-8" standalone="no"?>
<!-- Created with Inkscape (http://www.inkscape.org/) -->

<svg
   xmlns:osb="http://www.openswatchbook.org/uri/2009/osb"
   xmlns:dc="http://purl.org/dc/elements/1.1/"
   xmlns:cc="http://creativecommons.org/ns#"
   xmlns:rdf="http://www.w3.org/1999/02/22-rdf-syntax-ns#"
   xmlns:svg="http://www.w3.org/2000/svg"
   xmlns="http://www.w3.org/2000/svg"
   xmlns:sodipodi="http://sodipodi.sourceforge.net/DTD/sodipodi-0.dtd"
   xmlns:inkscape="http://www.inkscape.org/namespaces/inkscape"
   width="210mm"
   height="297mm"
   id="svg2"
   version="1.1"
   inkscape:version="0.48.4 r9939"
   sodipodi:docname="instabilitaet_lypunov.svg">
  <sodipodi:namedview
     id="base"
     pagecolor="#ffffff"
     bordercolor="#666666"
     borderopacity="1.0"
     inkscape:pageopacity="0.0"
     inkscape:pageshadow="2"
     inkscape:zoom="0.49497475"
     inkscape:cx="216.63871"
     inkscape:cy="461.48851"
     inkscape:document-units="px"
     inkscape:current-layer="svg2"
     showgrid="false"
     inkscape:window-width="1920"
     inkscape:window-height="1138"
     inkscape:window-x="-8"
     inkscape:window-y="-8"
     inkscape:window-maximized="1"
     showguides="true"
     inkscape:guide-bbox="true">
    <inkscape:grid
       empspacing="5"
       visible="true"
       enabled="true"
       snapvisiblegridlinesonly="true"
       type="xygrid"
       id="grid5509" />
  </sodipodi:namedview>
  <defs
     id="defs4">
    <inkscape:path-effect
       is_visible="true"
       id="path-effect5414"
       effect="spiro" />
    <inkscape:path-effect
       is_visible="true"
       id="path-effect5400"
       effect="spiro" />
    <inkscape:path-effect
       effect="spiro"
       id="path-effect5311"
       is_visible="true" />
    <linearGradient
       id="linearGradient5299"
       osb:paint="solid">
      <stop
         style="stop-color:#000000;stop-opacity:1;"
         offset="0"
         id="stop5301" />
    </linearGradient>
  </defs>
  <metadata
     id="metadata7">
    <rdf:RDF>
      <cc:Work
         rdf:about="">
        <dc:format>image/svg+xml</dc:format>
        <dc:type
           rdf:resource="http://purl.org/dc/dcmitype/StillImage" />
        <dc:title></dc:title>
      </cc:Work>
    </rdf:RDF>
  </metadata>
  <g
     inkscape:label="Ebene 1"
     inkscape:groupmode="layer"
     id="layer1"
     style="display:inline">
    <path
       style="fill:none;stroke:#000000;stroke-width:1.33457899000000000px;stroke-linecap:butt;stroke-linejoin:miter;stroke-opacity:1"
       d="M 546.35464,251.71043 C 282.02067,96.184728 292.95863,26.397568 179.93306,150.02055 66.907496,273.64355 6.7487346,247.72259 19.509689,399.26047 32.27064,550.79832 -27.88813,610.61591 83.314441,688.37875 194.51701,766.14161 314.83454,808.01392 395.04623,796.05039 475.25792,784.08687 533.5937,758.16592 579.16853,720.28148 624.74334,682.39701 679.43312,624.57333 710.42401,574.72535 741.41488,524.87738 704.95503,419.19965 690.37109,401.25438 675.78715,383.3091 546.35464,251.71043 546.35464,251.71043 z"
       id="path2985"
       inkscape:connector-curvature="0" />
    <text
       xml:space="preserve"
       style="font-size:40px;font-style:normal;font-weight:normal;text-align:center;line-height:125%;letter-spacing:0px;word-spacing:0px;text-anchor:middle;fill:#000000;fill-opacity:1;stroke:none;font-family:Sans"
       x="270"
       y="351.64789"
       id="text3015"
       sodipodi:linespacing="125%"><tspan
         sodipodi:role="line"
         id="tspan3017"
         x="270"
         y="351.64789" /></text>
    <g
       transform="matrix(1.2760951,0,0,1.3957435,-1232.505,-30.378485)"
       id="g3028">
      <g
         style="font-style:normal;font-variant:normal;font-weight:normal;font-stretch:normal;letter-spacing:normal;word-spacing:normal;text-anchor:start;fill:none;stroke:#000000;stroke-linecap:butt;stroke-linejoin:miter;stroke-miterlimit:10.43299961;stroke-opacity:1;stroke-dasharray:none;stroke-dashoffset:0"
         id="content"
         transform="matrix(1.0629921,0,0,-1.0629921,-186.02362,789.27165)"
         xml:space="preserve"
         stroke-miterlimit="10.433"
         font-style="normal"
         font-variant="normal"
         font-weight="normal"
         font-stretch="normal"
         font-size-adjust="none"
         letter-spacing="normal"
         word-spacing="normal"><path
           style="fill:#000000;stroke-width:0"
           inkscape:connector-curvature="0"
           d="m 1236,357.31 0.2,-0.06 0.1,-0.06 0.2,-0.06 0.1,-0.05 0.2,-0.05 0.1,-0.05 0.2,-0.04 0.1,-0.04 0.2,-0.03 0.1,-0.03 0.3,-0.06 0.3,-0.05 0.2,-0.03 0.3,-0.03 0.3,-0.02 0.2,-0.02 0.3,-0.01 0.2,-0.01 0.2,0 0.3,0 0.2,0 v 1.1 c -1.1,0 -1.7,0 -2.6,0.25 h 0 c 1.1,0.4 2.2,0.44 3,0.44 1.2,0 1.5,-0.04 2.4,-0.29 -0.8,-0.35 -0.9,-0.4 -2.8,-0.4 v -1.1 c 1.3,0 4,0 4,1.55 0,1.19 -1.7,1.34 -3.6,1.34 -1,0 -2.8,-0.1 -4.6,-0.95 -1.2,0.6 -2,1.55 -2,2.89 0,3.04 4.9,4.83 9.3,4.83 0.8,0 2.6,0 4.6,-1.39 0.6,-0.4 0.7,-0.5 1,-0.5 0.7,0 1.4,0.65 1.4,1.35 0,0.94 -3.1,2.84 -6.5,2.84 -5.7,0 -11.1,-3.34 -11.1,-7.13 0,-2.14 1.8,-3.39 2,-3.53 -2.9,-1.65 -4.5,-4.44 -4.5,-6.73 0,-3.24 2.8,-6.28 8.1,-6.28 6.6,0 9.4,4.39 9.4,5.14 0,0.29 -0.3,0.49 -0.6,0.49 -0.2,0 -0.4,-0.2 -0.5,-0.35 -0.7,-1.14 -1.9,-2.98 -7.8,-2.98 -3.1,0 -7.3,0.74 -7.3,4.28 0,1.69 1.4,4.33 4.4,5.83 z"
           id="path3031" /></g>    </g>
    <g
       id="g3055"
       transform="matrix(1.2760951,0,0,1.3957435,-1089.749,-172.87538)">
      <g
         word-spacing="normal"
         letter-spacing="normal"
         font-size-adjust="none"
         font-stretch="normal"
         font-weight="normal"
         font-variant="normal"
         font-style="normal"
         stroke-miterlimit="10.433"
         xml:space="preserve"
         transform="matrix(1.0629921,0,0,-1.0629921,-186.02362,789.27165)"
         id="g3057"
         style="font-style:normal;font-variant:normal;font-weight:normal;font-stretch:normal;letter-spacing:normal;word-spacing:normal;text-anchor:start;fill:none;stroke:#000000;stroke-linecap:butt;stroke-linejoin:miter;stroke-miterlimit:10.43299961;stroke-opacity:1;stroke-dasharray:none;stroke-dashoffset:0"><path
           id="path3059"
           d="m 1225.6,361.04 0.1,0.13 0,0.15 0,0.17 0.1,0.18 0,0.19 0.1,0.21 0.1,0.21 0,0.23 0.1,0.23 0.1,0.24 0.1,0.25 0.1,0.24 0.1,0.25 0.1,0.25 0.2,0.25 0.1,0.25 0.2,0.24 0.1,0.24 0.2,0.23 0.2,0.22 0.1,0.22 0.2,0.2 0.2,0.19 0.3,0.18 0.2,0.16 0.2,0.14 0.2,0.07 0.1,0.06 0.1,0.05 0.2,0.05 0.1,0.05 0.1,0.04 0.2,0.03 0.1,0.03 0.2,0.02 0.1,0.02 0.2,0.01 0.2,0 c 0.2,0 1.4,0 2.5,-0.65 -1.4,-0.25 -2.4,-1.49 -2.4,-2.68 0,-0.8 0.5,-1.75 1.9,-1.75 1.1,0 2.7,0.9 2.7,2.89 0,2.59 -3,3.29 -4.7,3.29 -2.9,0 -4.6,-2.64 -5.2,-3.79 -1.3,3.29 -4,3.79 -5.4,3.79 -5.2,0 -8,-6.43 -8,-7.67 0,-0.5 0.5,-0.5 0.6,-0.5 0.4,0 0.5,0.1 0.6,0.54 1.7,5.29 5,6.53 6.7,6.53 1,0 2.7,-0.45 2.7,-3.33 0,-1.55 -0.8,-4.89 -2.7,-11.86 -0.8,-3.09 -2.5,-5.18 -4.7,-5.18 -0.3,0 -1.5,0 -2.5,0.65 1.2,0.25 2.3,1.29 2.3,2.69 0,1.34 -1.1,1.74 -1.8,1.74 -1.5,0 -2.8,-1.3 -2.8,-2.89 0,-2.29 2.5,-3.29 4.7,-3.29 3.3,0 5.1,3.49 5.3,3.79 0.6,-1.85 2.4,-3.79 5.3,-3.79 5.2,0 8,6.43 8,7.68 0,0.49 -0.4,0.49 -0.6,0.49 -0.4,0 -0.5,-0.2 -0.6,-0.55 -1.7,-5.33 -5.1,-6.52 -6.7,-6.52 -1.9,0 -2.7,1.59 -2.7,3.29 0,1.09 0.3,2.19 0.8,4.38 z"
           inkscape:connector-curvature="0"
           style="fill:#000000;stroke-width:0" /><path
           id="path3061"
           d="m 1267.4,363.06 0,0.02 0,0.01 0,0.02 0,0.02 0,0.02 0,0.02 0,0.01 0,0.02 0,0.02 0,0.02 -0.1,0.02 0,0.02 0,0.02 0,0.02 0,0.01 0,0.02 0,0.02 0,0.01 0,0.02 -0.1,0.01 0,0.02 0,0.01 0,0.01 0,0.02 -0.1,0.01 0,0.01 0,0 0,0.01 -0.1,0 0,0 0,0.01 0,0 0,0 0,0 0,0 -0.1,0 c -0.2,0 -0.3,-0.07 -0.6,-0.42 l -2.5,-2.68 c -0.4,0.42 -2.3,3.1 -6.6,3.1 -8.5,0 -16.8,-7.49 -16.8,-15.37 0,-5.41 4.2,-9.84 10.9,-9.84 3,0 6.3,0.81 8.1,2.76 0.3,-0.77 1.3,-2.02 1.7,-2.02 0.3,0 0.4,0.14 0.5,0.87 l 0.7,2.68 c 0.2,0.63 0.7,2.72 0.8,3.14 0.4,1.57 0.4,1.6 2.5,1.64 0.2,0 0.7,0 0.7,0.73 0,0.35 -0.2,0.53 -0.5,0.53 h -9.5 c -0.2,0 -0.7,0 -0.7,-0.77 0,-0.49 0.4,-0.49 1.2,-0.49 0.7,0 1.4,0 2,-0.07 1.2,-0.1 1.2,-0.25 1.2,-0.66 0,-0.14 0,-0.21 -0.2,-1.12 -0.3,-0.98 -0.7,-2.54 -0.8,-2.89 -1,-2.13 -4.3,-3.07 -7,-3.07 -3.5,0 -8,1.67 -8,7.57 0,3.73 1.7,8.4 4.3,11.01 3.6,3.56 7.3,4.12 9.3,4.12 4,0 6.4,-2.93 6.4,-6.84 0,-0.97 -0.1,-1.22 -0.1,-1.43 0,-0.45 0.4,-0.45 0.6,-0.45 0.6,0 0.6,0.1 0.7,0.77 z"
           inkscape:connector-curvature="0"
           style="fill:#000000;stroke-width:0" /></g>    </g>
    <path
       sodipodi:type="arc"
       id="path3085"
       sodipodi:cx="241.60715"
       sodipodi:cy="366.46933"
       sodipodi:rx="55.892857"
       sodipodi:ry="58.392857"
       d="m 297.5,366.46933 a 55.892857,58.392857 0 1 1 -111.78571,0 55.892857,58.392857 0 1 1 111.78571,0 z"
       style="fill:none;stroke:#000000;stroke-opacity:1"
       transform="matrix(3.4690575,0,0,3.5945457,-533.81312,-905.58122)" />
    <path
       style="fill:none;stroke:#000000;stroke-width:1.47934651px;stroke-linecap:butt;stroke-linejoin:miter;stroke-opacity:1"
       d="m 297.44689,414.78903 -130.11396,142.76932 0.51227,1.08985 0,0"
       id="path5309"
       inkscape:path-effect="#path-effect5311"
       inkscape:original-d="m 297.44689,414.78903 -130.11396,142.76932 0.51227,1.08985 0,0"
       inkscape:connector-curvature="0" />
    <path
       sodipodi:type="arc"
       style="opacity:0;fill:none;stroke:#000000;stroke-opacity:1"
       id="path5313"
       sodipodi:cx="335.37064"
       sodipodi:cy="390.45972"
       sodipodi:rx="97.479721"
       sodipodi:ry="77.024132"
       d="m 432.85036,390.45972 a 97.479721,77.024132 0 1 1 -194.95945,0 97.479721,77.024132 0 1 1 194.95945,0 z"
       transform="matrix(1.2760951,0,0,1.3957435,-117.21478,-138.4069)" />
    <path
       sodipodi:type="arc"
       style="fill:none;stroke:#000000;stroke-opacity:1"
       id="path5343"
       sodipodi:cx="558.86688"
       sodipodi:cy="272.77695"
       sodipodi:rx="111.8744"
       sodipodi:ry="93.186569"
       d="m 670.74128,272.77695 a 111.8744,93.186569 0 1 1 -223.74879,0 111.8744,93.186569 0 1 1 223.74879,0 z"
       transform="matrix(0.88861866,0,0,1.1403735,-199.4638,97.9995)" />
    <g
       transform="matrix(1.2760951,0,0,1.4087625,-1167.5751,-222.75985)"
       id="g5368">
      <g
         style="font-style:normal;font-variant:normal;font-weight:normal;font-stretch:normal;letter-spacing:normal;word-spacing:normal;text-anchor:start;fill:none;stroke:#000000;stroke-linecap:butt;stroke-linejoin:miter;stroke-miterlimit:10.43299961;stroke-opacity:1;stroke-dasharray:none;stroke-dashoffset:0"
         id="g5370"
         transform="matrix(1.0629921,0,0,-1.0629921,-186.02362,789.27165)"
         xml:space="preserve"
         stroke-miterlimit="10.433"
         font-style="normal"
         font-variant="normal"
         font-weight="normal"
         font-stretch="normal"
         font-size-adjust="none"
         letter-spacing="normal"
         word-spacing="normal"><path
           style="fill:#000000;stroke-width:0"
           inkscape:connector-curvature="0"
           d="m 1241.2,367.77 -0.6,-0.15 -0.6,-0.19 -0.6,-0.21 -0.5,-0.23 -0.6,-0.27 -0.5,-0.28 -0.5,-0.31 -0.5,-0.33 -0.5,-0.35 -0.5,-0.38 -0.4,-0.39 -0.5,-0.41 -0.4,-0.43 -0.4,-0.44 -0.4,-0.46 -0.4,-0.47 -0.4,-0.49 -0.3,-0.5 -0.3,-0.51 -0.4,-0.52 -0.2,-0.53 -0.3,-0.53 -0.2,-0.55 -0.3,-0.55 -0.2,-0.56 -0.1,-0.56 -0.2,-0.56 -0.1,-0.57 -0.1,-0.57 -0.1,-0.57 0,-0.56 0,-0.57 c 0,-4.78 3.2,-8.37 7.9,-8.37 v 1.1 c -2.8,0 -4.8,2.09 -4.8,5.88 0,3.14 1.8,12.5 8.6,14.29 h 0 c 1.2,-2.29 2.7,-4.98 2.7,-8.56 0,-3.29 -1.9,-11.61 -6.5,-11.61 v -1.1 c 5.8,0 9.9,7.82 9.9,14.7 0,4.53 -2,7.02 -3.7,9.26 -1.8,2.25 -4.7,5.98 -4.7,8.17 0,1.1 1,2.29 2.8,2.29 1.4,0 2.4,-0.64 3.5,-1.34 1,-0.6 2,-1.25 2.7,-1.25 1.3,0 2,1.2 2,2 0,1.09 -0.8,1.24 -2.6,1.64 -2.6,0.55 -3.3,0.55 -4.1,0.55 -3.8,0 -5.6,-2.15 -5.6,-5.13 0,-2.69 1.4,-5.48 3,-8.52 z"
           id="path5372" /></g>    </g>
    <path
       inkscape:connector-curvature="0"
       inkscape:original-d="M 298.82664,413.15587 221.46286,341.00035"
       inkscape:path-effect="#path-effect5400"
       id="path5398"
       d="M 298.82664,413.15587 221.46286,341.00035"
       style="fill:none;stroke:#000000;stroke-width:1.45319808px;stroke-linecap:butt;stroke-linejoin:miter;stroke-opacity:1" />
    <path
       inkscape:connector-curvature="0"
       inkscape:original-d="m 267.89247,496.96251 c 0,0 117.1273,88.72939 135.81299,-3.98784 18.68566,-92.71726 13.21669,-141.0698 -9.11498,-173.47098 -22.33166,-32.40119 -19.59716,-54.33429 -77.4772,-57.82366 -57.88003,-3.48936 -64.71625,-25.92094 -117.12729,20.93616 -52.41105,46.85711 -87.04792,34.39509 -72.46398,101.1914 14.58396,66.79629 23.24317,145.5561 76.5657,161.00898 53.32255,15.45287 67.9065,29.41031 122.59628,23.42854 54.6898,-5.98175 82.94618,-7.47719 108.01234,-44.3647 25.06615,-36.88751 35.09262,-33.39814 34.1811,-62.30998 -0.91148,-28.91182 -10.02645,-86.23699 -19.59716,-112.65643 -9.57072,-26.41942 -34.18111,-58.82062 -44.20759,-70.78414 -10.02645,-11.9635 -44.66332,-31.9027 -76.5657,-39.87839 -31.90237,-7.97566 -88.87089,-6.97872 -88.87089,-6.97872 l 0,0"
       inkscape:path-effect="#path-effect5414"
       id="path5412"
       d="m 267.89247,496.96251 c 18.17988,17.47953 43.53477,27.26138 68.74378,26.52118 25.20901,-0.74021 49.94626,-11.9929 67.06921,-30.50902 21.3638,-23.10202 30.08662,-56.2289 26.99883,-87.54312 -3.08778,-31.31423 -17.11977,-60.84118 -36.11381,-85.92786 -19.78666,-26.13355 -46.03677,-48.55144 -77.4772,-57.82366 -19.61858,-5.7858 -40.65771,-6.23997 -60.72924,-2.30329 -20.07154,3.93669 -39.18647,12.18841 -56.39805,23.23945 -35.85435,23.021 -63.88829,59.45463 -72.46398,101.1914 -6.39184,31.10828 -1.78555,64.23306 12.10548,92.79212 13.89103,28.55906 36.87944,52.47261 64.46022,68.21686 36.69913,20.94938 80.51087,27.23918 122.59628,23.42854 39.53808,-3.57999 79.63877,-16.59752 108.01234,-44.3647 17.18721,-16.81988 29.47395,-38.72712 34.1811,-62.30998 3.78867,-18.98123 2.69842,-38.71341 -1.26708,-57.65848 -3.9655,-18.94507 -10.7475,-37.18937 -18.33008,-54.99795 -10.97316,-25.77177 -24.05394,-51.331 -44.20759,-70.78414 -20.93748,-20.20973 -48.38486,-32.62225 -76.5657,-39.87839 -28.92135,-7.44681 -59.14166,-9.81991 -88.87089,-6.97872 l 0,0"
       style="fill:none;stroke:#ff0000;stroke-width:1.33457899000000000px;stroke-linecap:butt;stroke-linejoin:miter;stroke-opacity:1" />
    <path
       transform="matrix(1.427737,0,0,1.8647706,-158.13864,-351.25515)"
       d="m 304.99999,455.93362 a 3.5714285,2.8571429 0 1 1 -7.14286,0 3.5714285,2.8571429 0 1 1 7.14286,0 z"
       sodipodi:ry="2.8571429"
       sodipodi:rx="3.5714285"
       sodipodi:cy="455.93362"
       sodipodi:cx="301.42856"
       id="path5416"
       style="fill:#000000;fill-opacity:1;stroke:#000000;stroke-opacity:1"
       sodipodi:type="arc" />
    <path
       transform="matrix(1.2760951,0,0,1.3957435,23.155671,-130.43123)"
       d="m 218.21429,389.68362 a 3.9285715,3.75 0 1 1 -7.85714,0 3.9285715,3.75 0 1 1 7.85714,0 z"
       sodipodi:ry="3.75"
       sodipodi:rx="3.9285715"
       sodipodi:cy="389.68362"
       sodipodi:cx="214.28572"
       id="path5418"
       style="fill:#000000;fill-opacity:1;stroke:#000000;stroke-opacity:1"
       sodipodi:type="arc" />
    <g
       id="g5451"
       transform="matrix(1.2760951,0,0,1.3957435,-1139.9233,-88.265137)">
      <g
         word-spacing="normal"
         letter-spacing="normal"
         font-size-adjust="none"
         font-stretch="normal"
         font-weight="normal"
         font-variant="normal"
         font-style="normal"
         stroke-miterlimit="10.433"
         xml:space="preserve"
         transform="matrix(1.0629921,0,0,-1.0629921,-186.02362,789.27165)"
         id="g5453"
         style="font-style:normal;font-variant:normal;font-weight:normal;font-stretch:normal;letter-spacing:normal;word-spacing:normal;text-anchor:start;fill:none;stroke:#000000;stroke-linecap:butt;stroke-linejoin:miter;stroke-miterlimit:10.43299961;stroke-opacity:1;stroke-dasharray:none;stroke-dashoffset:0"><path
           id="path5455"
           d="m 1242.6,361.04 0.1,0.13 0,0.15 0,0.17 0.1,0.18 0,0.19 0.1,0.21 0.1,0.21 0,0.23 0.1,0.23 0.1,0.24 0.1,0.25 0.1,0.24 0.1,0.25 0.1,0.25 0.2,0.25 0.1,0.25 0.2,0.24 0.1,0.24 0.2,0.23 0.2,0.22 0.1,0.22 0.2,0.2 0.2,0.19 0.3,0.18 0.2,0.16 0.2,0.14 0.2,0.07 0.1,0.06 0.1,0.05 0.2,0.05 0.1,0.05 0.1,0.04 0.2,0.03 0.1,0.03 0.2,0.02 0.1,0.02 0.2,0.01 0.2,0 c 0.2,0 1.4,0 2.5,-0.65 -1.4,-0.25 -2.4,-1.49 -2.4,-2.68 0,-0.8 0.5,-1.75 1.9,-1.75 1.1,0 2.7,0.9 2.7,2.89 0,2.59 -3,3.29 -4.7,3.29 -2.9,0 -4.6,-2.64 -5.2,-3.79 -1.3,3.29 -4,3.79 -5.4,3.79 -5.2,0 -8,-6.43 -8,-7.67 0,-0.5 0.5,-0.5 0.6,-0.5 0.4,0 0.5,0.1 0.6,0.54 1.7,5.29 5,6.53 6.7,6.53 1,0 2.7,-0.45 2.7,-3.33 0,-1.55 -0.8,-4.89 -2.7,-11.86 -0.8,-3.09 -2.5,-5.18 -4.7,-5.18 -0.3,0 -1.5,0 -2.5,0.65 1.2,0.25 2.3,1.29 2.3,2.69 0,1.34 -1.1,1.74 -1.8,1.74 -1.5,0 -2.8,-1.3 -2.8,-2.89 0,-2.29 2.5,-3.29 4.7,-3.29 3.3,0 5.1,3.49 5.3,3.79 0.6,-1.85 2.4,-3.79 5.3,-3.79 5.2,0 8,6.43 8,7.68 0,0.49 -0.4,0.49 -0.6,0.49 -0.4,0 -0.5,-0.2 -0.6,-0.55 -1.7,-5.33 -5.1,-6.52 -6.7,-6.52 -1.9,0 -2.7,1.59 -2.7,3.29 0,1.09 0.3,2.19 0.8,4.38 z"
           inkscape:connector-curvature="0"
           style="fill:#000000;stroke-width:0" /></g>    </g>
  </g>
</svg>
