<?xml version="1.0" encoding="UTF-8" standalone="no"?>
<!-- Created with Inkscape (http://www.inkscape.org/) -->

<svg
   xmlns:dc="http://purl.org/dc/elements/1.1/"
   xmlns:cc="http://creativecommons.org/ns#"
   xmlns:rdf="http://www.w3.org/1999/02/22-rdf-syntax-ns#"
   xmlns:svg="http://www.w3.org/2000/svg"
   xmlns="http://www.w3.org/2000/svg"
   xmlns:sodipodi="http://sodipodi.sourceforge.net/DTD/sodipodi-0.dtd"
   xmlns:inkscape="http://www.inkscape.org/namespaces/inkscape"
   width="210mm"
   height="297mm"
   id="svg2"
   version="1.1"
   inkscape:version="0.48.4 r9939"
   sodipodi:docname="eigenraeume.svg">
  <sodipodi:namedview
     id="base"
     pagecolor="#ffffff"
     bordercolor="#666666"
     borderopacity="1.0"
     inkscape:pageopacity="0.0"
     inkscape:pageshadow="2"
     inkscape:zoom="1.4"
     inkscape:cx="416.35602"
     inkscape:cy="649.83449"
     inkscape:document-units="px"
     inkscape:current-layer="layer1"
     showgrid="false"
     inkscape:snap-center="true"
     inkscape:snap-object-midpoints="true"
     inkscape:snap-midpoints="true"
     inkscape:object-paths="true"
     inkscape:snap-intersection-paths="true"
     inkscape:object-nodes="true"
     inkscape:snap-smooth-nodes="true"
     inkscape:snap-global="false"
     showguides="true"
     inkscape:guide-bbox="true"
     inkscape:window-width="1920"
     inkscape:window-height="1138"
     inkscape:window-x="-8"
     inkscape:window-y="-8"
     inkscape:window-maximized="1"
     inkscape:snap-nodes="true"
     inkscape:snap-bbox="true"
     inkscape:bbox-paths="true"
     inkscape:bbox-nodes="true"
     inkscape:snap-bbox-edge-midpoints="true"
     inkscape:snap-bbox-midpoints="true" />
  <defs
     id="defs4">
    <marker
       inkscape:stockid="Arrow2Lstart"
       orient="auto"
       refY="0.0"
       refX="0.0"
       id="Arrow2Lstart"
       style="overflow:visible">
      <path
         id="path3779"
         style="fill-rule:evenodd;stroke-width:0.62500000;stroke-linejoin:round"
         d="M 8.7185878,4.0337352 L -2.2072895,0.016013256 L 8.7185884,-4.0017078 C 6.9730900,-1.6296469 6.9831476,1.6157441 8.7185878,4.0337352 z "
         transform="scale(1.1) translate(1,0)" />
    </marker>
    <marker
       inkscape:stockid="Arrow1Lstart"
       orient="auto"
       refY="0.0"
       refX="0.0"
       id="Arrow1Lstart"
       style="overflow:visible">
      <path
         id="path3761"
         d="M 0.0,0.0 L 5.0,-5.0 L -12.5,0.0 L 5.0,5.0 L 0.0,0.0 z "
         style="fill-rule:evenodd;stroke:#000000;stroke-width:1.0pt"
         transform="scale(0.8) translate(12.5,0)" />
    </marker>
    <marker
       inkscape:stockid="Arrow1Lend"
       orient="auto"
       refY="0.0"
       refX="0.0"
       id="Arrow1Lend"
       style="overflow:visible;">
      <path
         id="path3764"
         d="M 0.0,0.0 L 5.0,-5.0 L -12.5,0.0 L 5.0,5.0 L 0.0,0.0 z "
         style="fill-rule:evenodd;stroke:#000000;stroke-width:1.0pt;"
         transform="scale(0.8) rotate(180) translate(12.5,0)" />
    </marker>
    <marker
       inkscape:stockid="Arrow2Lstart"
       orient="auto"
       refY="0"
       refX="0"
       id="Arrow2Lstart-9"
       style="overflow:visible">
      <path
         inkscape:connector-curvature="0"
         id="path3779-3"
         style="fill-rule:evenodd;stroke-width:0.625;stroke-linejoin:round"
         d="M 8.7185878,4.0337352 -2.2072895,0.01601326 8.7185884,-4.0017078 c -1.7454984,2.3720609 -1.7354408,5.6174519 -6e-7,8.035443 z"
         transform="matrix(1.1,0,0,1.1,1.1,0)" />
    </marker>
    <marker
       inkscape:stockid="Arrow2Lstart"
       orient="auto"
       refY="0"
       refX="0"
       id="Arrow2Lstart-98"
       style="overflow:visible">
      <path
         inkscape:connector-curvature="0"
         id="path3779-6"
         style="fill-rule:evenodd;stroke-width:0.625;stroke-linejoin:round"
         d="M 8.7185878,4.0337352 -2.2072895,0.01601326 8.7185884,-4.0017078 c -1.7454984,2.3720609 -1.7354408,5.6174519 -6e-7,8.035443 z"
         transform="matrix(1.1,0,0,1.1,1.1,0)" />
    </marker>
    <marker
       inkscape:stockid="Arrow2Lstart"
       orient="auto"
       refY="0"
       refX="0"
       id="Arrow2Lstart-0"
       style="overflow:visible">
      <path
         inkscape:connector-curvature="0"
         id="path3779-2"
         style="fill-rule:evenodd;stroke-width:0.625;stroke-linejoin:round"
         d="M 8.7185878,4.0337352 -2.2072895,0.01601326 8.7185884,-4.0017078 c -1.7454984,2.3720609 -1.7354408,5.6174519 -6e-7,8.035443 z"
         transform="matrix(1.1,0,0,1.1,1.1,0)" />
    </marker>
    <marker
       inkscape:stockid="Arrow2Lstart"
       orient="auto"
       refY="0"
       refX="0"
       id="Arrow2Lstart-0-7"
       style="overflow:visible">
      <path
         inkscape:connector-curvature="0"
         id="path3779-2-6"
         style="fill-rule:evenodd;stroke-width:0.625;stroke-linejoin:round"
         d="M 8.7185878,4.0337352 -2.2072895,0.01601326 8.7185884,-4.0017078 c -1.7454984,2.3720609 -1.7354408,5.6174519 -6e-7,8.035443 z"
         transform="matrix(1.1,0,0,1.1,1.1,0)" />
    </marker>
    <marker
       inkscape:stockid="Arrow2Lstart"
       orient="auto"
       refY="0"
       refX="0"
       id="Arrow2Lstart-0-8"
       style="overflow:visible">
      <path
         inkscape:connector-curvature="0"
         id="path3779-2-7"
         style="fill-rule:evenodd;stroke-width:0.625;stroke-linejoin:round"
         d="M 8.7185878,4.0337352 -2.2072895,0.01601326 8.7185884,-4.0017078 c -1.7454984,2.3720609 -1.7354408,5.6174519 -6e-7,8.035443 z"
         transform="matrix(1.1,0,0,1.1,1.1,0)" />
    </marker>
    <marker
       inkscape:stockid="Arrow2Lstart"
       orient="auto"
       refY="0"
       refX="0"
       id="Arrow2Lstart-0-1"
       style="overflow:visible">
      <path
         inkscape:connector-curvature="0"
         id="path3779-2-60"
         style="fill-rule:evenodd;stroke-width:0.625;stroke-linejoin:round"
         d="M 8.7185878,4.0337352 -2.2072895,0.01601326 8.7185884,-4.0017078 c -1.7454984,2.3720609 -1.7354408,5.6174519 -6e-7,8.035443 z"
         transform="matrix(1.1,0,0,1.1,1.1,0)" />
    </marker>
  </defs>
  <metadata
     id="metadata7">
    <rdf:RDF>
      <cc:Work
         rdf:about="">
        <dc:format>image/svg+xml</dc:format>
        <dc:type
           rdf:resource="http://purl.org/dc/dcmitype/StillImage" />
        <dc:title />
      </cc:Work>
    </rdf:RDF>
  </metadata>
  <g
     inkscape:label="Ebene 1"
     inkscape:groupmode="layer"
     id="layer1">
    <path
       style="fill:none;stroke:#000000;stroke-width:0.75724751;stroke-linecap:butt;stroke-linejoin:miter;stroke-miterlimit:4;stroke-opacity:1;stroke-dasharray:none;marker-end:url(#Arrow1Lend)"
       d="M 82.434149,512.70015 666.87166,148.98819"
       id="path2987"
       inkscape:connector-curvature="0" />
    <path
       style="fill:none;stroke:#000000;stroke-width:0.81165391px;stroke-linecap:butt;stroke-linejoin:miter;stroke-opacity:1;marker-start:none;marker-end:url(#Arrow1Lend)"
       d="m 64.406162,328.06566 629.422898,0"
       id="path2985"
       inkscape:connector-curvature="0" />
    <path
       id="path15935"
       title="t 1/t + 1"
       d="M 672.25618,148.42735 C 512.05475,249.40091 517.55779,247.25191 497.1274,261.242 c -20.43038,13.99011 -28.81685,20.48494 -35.24468,25.76084 -6.4278,5.2759 -9.83163,8.6699 -12.19555,11.41674 -2.36393,2.74682 -3.55458,4.76349 -4.20523,6.4441 -0.65061,1.68062 -0.7306,3.00606 -0.50165,4.13928 0.22894,1.13322 0.77683,2.06796 1.51636,2.88341 0.73957,0.81544 1.67492,1.50904 2.73698,2.12378 1.06203,0.61477 2.25276,1.14945 3.53134,1.62945 1.27861,0.47997 2.64624,0.90455 4.0773,1.28966 1.43105,0.38511 2.92622,0.73031 4.4686,1.04614 1.5424,0.31583 3.13246,0.60197 4.75864,0.86566 1.62619,0.26367 3.28877,0.50469 4.97956,0.72816 1.69081,0.22345 3.41006,0.4292 5.15177,0.62099 1.74169,0.1918 3.50602,0.3695 5.28851,0.5359 1.78247,0.1664 3.58327,0.32141 5.39896,0.46715 1.81569,0.14574 3.64637,0.28214 5.48947,0.41084 1.84303,0.12871 3.69859,0.24965 5.56449,0.36415 1.86591,0.11448 3.74229,0.22246 5.62746,0.32495 1.8852,0.10249 3.77919,0.19948 5.68074,0.2918 1.90158,0.0923 3.8107,0.17989 5.72631,0.26344 1.91562,0.0835 3.83777,0.16303 5.76552,0.23904 1.92774,0.076 3.86118,0.14846 5.79951,0.21788 1.93837,0.0694 3.88159,0.13577 5.82919,0.19943 1.94753,0.0637 3.89953,0.1246 5.85526,0.18318 1.95575,0.0586 3.91531,0.11478 5.87825,0.16889 1.96298,0.0541 3.9293,0.10606 5.89867,0.15617 1.96937,0.05 3.94178,0.0983 5.91687,0.14486 1.97513,0.0466 3.95288,0.0914 5.93312,0.13472 1.98024,0.0434 3.96291,0.0852 5.94779,0.12561"
       style="fill:none;stroke:#00ff00;stroke-width:1.32534266;stroke-linecap:butt;stroke-linejoin:bevel;stroke-miterlimit:4;stroke-opacity:1;stroke-dasharray:none"
       inkscape:connector-curvature="0" />
    <path
       style="fill:none;stroke:#ff0000;stroke-width:0.88200223px;stroke-linecap:butt;stroke-linejoin:miter;stroke-opacity:1;marker-start:none;marker-end:url(#Arrow2Lstart-98)"
       d="m 379.13315,328.06566 98.99252,0"
       id="path15953"
       inkscape:connector-curvature="0" />
    <path
       style="fill:none;stroke:#ff0000;stroke-width:0.88201547;stroke-linecap:butt;stroke-linejoin:miter;stroke-miterlimit:4;stroke-opacity:1;stroke-dasharray:none;marker-start:none;marker-end:url(#Arrow2Lstart-98)"
       d="m 378.65163,328.08119 -98.99252,0"
       id="path15953-1"
       inkscape:connector-curvature="0" />
    <path
       style="fill:none;stroke:#ff0000;stroke-width:0.88200223px;stroke-linecap:butt;stroke-linejoin:miter;stroke-opacity:1;marker-start:url(#Arrow2Lstart)"
       d="M 538.90979,228.63215 379.84178,327.62466"
       id="path15953-1-5"
       inkscape:connector-curvature="0" />
    <path
       style="fill:none;stroke:#ff0000;stroke-width:0.88200223px;stroke-linecap:butt;stroke-linejoin:miter;stroke-opacity:1;marker-start:url(#Arrow2Lstart)"
       d="M 220.77377,426.61717 379.84178,327.62466"
       id="path15953-1-5-8"
       inkscape:connector-curvature="0" />
    <path
       id="path15935-6"
       title="t 1/t + 1"
       d="M 662.0898,148.42735 C 497.7886,249.40091 499.19191,247.25191 474.66178,261.242 c -24.53015,13.99012 -37.01637,20.48494 -47.54392,25.76085 -10.52757,5.2759 -16.33469,7.91905 -24.49481,11.41673 -5.60524,2.40257 -11.60733,4.69051 -16.50447,6.4441 -4.89715,1.75359 -8.93009,3.00606 -12.80092,4.13928 -3.8708,1.13323 -7.42267,2.06796 -10.78287,2.88341 -3.3602,0.81545 -6.52457,1.50904 -9.56227,2.12379 -3.03773,0.61477 -5.94676,1.14944 -8.76791,1.62945 -2.82113,0.47996 -5.55324,0.90454 -8.22194,1.28965 -2.6687,0.38512 -5.27325,0.73031 -7.83064,1.04614 -2.55736,0.31583 -5.06704,0.60197 -7.54062,0.86566 -2.47355,0.26367 -4.91071,0.50469 -7.31966,0.72816 -2.40895,0.22345 -4.78945,0.4292 -7.14749,0.62099 -2.35808,0.1918 -4.6935,0.3695 -7.01074,0.5359 -2.31728,0.1664 -4.61623,0.32141 -6.90029,0.46715 -2.28405,0.14574 -4.55311,0.28214 -6.80979,0.41084 -2.25669,0.12871 -4.5009,0.24966 -6.73476,0.36415 -2.23385,0.11449 -4.45719,0.22246 -6.67177,0.32495 -2.21458,0.10249 -4.42029,0.19948 -6.61851,0.2918 -2.19818,0.0923 -4.38881,0.17989 -6.57295,0.26344 -2.18413,0.0835 -4.36172,0.16303 -6.53372,0.23904 -2.172,0.076 -4.33831,0.14846 -6.49972,0.21788 -2.1614,0.0694 -4.3179,0.13577 -6.47008,0.19943 -2.1522,0.0637 -4.29997,0.1246 -6.44399,0.18318 -2.144,0.0586 -4.28416,0.11478 -6.42099,0.16889 -2.13678,0.0541 -4.27019,0.10606 -6.40058,0.15617 -2.13037,0.05 -4.25772,0.0983 -6.38238,0.14486 -2.12462,0.0466 -4.2466,0.0914 -6.36612,0.13472 -2.11952,0.0434 -4.23657,0.0852 -6.35147,0.12561"
       style="fill:none;stroke:#00ff00;stroke-width:1.32534266;stroke-linecap:butt;stroke-linejoin:bevel;stroke-miterlimit:4;stroke-opacity:1;stroke-dasharray:none;stroke-dashoffset:0"
       inkscape:connector-curvature="0"
       sodipodi:nodetypes="cssacssccsssssssssssssssscsssc" />
    <path
       style="fill:#00ff00;fill-opacity:1;stroke:#00ff00;stroke-width:0.66267133;stroke-miterlimit:4;stroke-opacity:1;stroke-dasharray:none;marker-start:url(#Arrow2Lstart-0);marker-end:none"
       d="m 409.99857,295.18355 -14.69049,6.21496"
       id="path19160"
       inkscape:connector-curvature="0" />
    <path
       id="path15935-6-0"
       title="t 1/t + 1"
       d="M 84.700567,508.24788 C 244.902,407.27431 239.39895,409.42331 259.82934,395.43322 c 20.43039,-13.99011 28.81685,-20.48493 35.24467,-25.76085 6.42781,-5.2759 9.83163,-8.66989 12.19557,-11.41672 2.36393,-2.74684 3.55458,-4.76351 4.2052,-6.44411 0.65065,-1.68061 0.7306,-3.00605 0.50167,-4.13929 -0.22893,-1.13321 -0.77682,-2.06794 -1.51636,-2.8834 -0.73956,-0.81545 -1.67491,-1.50903 -2.73698,-2.12379 -1.06202,-0.61476 -2.25273,-1.14943 -3.53133,-1.62943 -1.27863,-0.47996 -2.64626,-0.90455 -4.07731,-1.28966 -1.43104,-0.38512 -2.92622,-0.73032 -4.46861,-1.04615 -1.54239,-0.31582 -3.13245,-0.60197 -4.75862,-0.86565 -1.62619,-0.26367 -3.28877,-0.50469 -4.97957,-0.72814 -1.6908,-0.22348 -3.41006,-0.42924 -5.15176,-0.62102 -1.7417,-0.19179 -3.50601,-0.36949 -5.28852,-0.53589 -1.78247,-0.16642 -3.58326,-0.32142 -5.39895,-0.46715 -1.81569,-0.14575 -3.64638,-0.28215 -5.48947,-0.41086 -1.84305,-0.1287 -3.69859,-0.24963 -5.56448,-0.36413 -1.86592,-0.1145 -3.7423,-0.22245 -5.62746,-0.32497 -1.8852,-0.10247 -3.77921,-0.19946 -5.68077,-0.29178 -1.90156,-0.0923 -3.81068,-0.17989 -5.72629,-0.26344 -1.91563,-0.0835 -3.83778,-0.16304 -5.76552,-0.23905 -1.92776,-0.076 -3.86119,-0.14846 -5.79952,-0.21787 -1.93836,-0.0694 -3.8816,-0.13577 -5.82918,-0.19943 -1.94752,-0.0637 -3.89952,-0.1246 -5.85526,-0.18319 -1.95573,-0.0586 -3.91531,-0.11478 -5.87825,-0.16889 -1.96298,-0.0541 -3.9293,-0.10607 -5.89867,-0.15617 -1.96935,-0.05 -3.94178,-0.0983 -5.91687,-0.14484 -1.97513,-0.0465 -3.95289,-0.0914 -5.93313,-0.13474 -1.98023,-0.0433 -3.96292,-0.0851 -5.94779,-0.12561"
       style="fill:none;stroke:#00ff00;stroke-width:1.32534266;stroke-linecap:round;stroke-linejoin:bevel;stroke-miterlimit:4;stroke-opacity:1;stroke-dasharray:none;stroke-dashoffset:0;marker-mid:none"
       inkscape:connector-curvature="0" />
    <path
       id="path15935-6-0-2"
       title="t 1/t + 1"
       d="M 94.792737,508.64084 C 259.09394,407.66727 257.69062,409.81628 282.22075,395.82619 c 24.53017,-13.99011 37.01638,-20.48495 47.54392,-25.76085 10.52758,-5.27591 18.03115,-8.66989 24.49483,-11.41672 6.46368,-2.74685 11.75407,-4.76352 16.50445,-6.44411 4.75041,-1.68061 8.93009,-3.00607 12.80093,-4.13929 3.8708,-1.13321 7.42267,-2.06795 10.78286,-2.88341 3.3602,-0.81544 6.52457,-1.50904 9.56228,-2.12379 3.03771,-0.61475 5.94675,-1.14944 8.76791,-1.62943 2.82112,-0.47997 5.55322,-0.90454 8.22194,-1.28966 2.6687,-0.38511 5.27325,-0.73031 7.83064,-1.04614 2.55736,-0.31583 5.06703,-0.60198 7.54061,-0.86566 2.47355,-0.26366 4.91072,-0.50468 7.31966,-0.72815 2.40896,-0.22345 4.78945,-0.42921 7.14749,-0.62099 2.35808,-0.1918 4.69351,-0.36951 7.01074,-0.53591 2.31729,-0.1664 4.61623,-0.32141 6.90028,-0.46715 2.28407,-0.14574 4.55312,-0.28214 6.8098,-0.41085 2.25669,-0.1287 4.50089,-0.24963 6.73476,-0.36413 2.23386,-0.1145 4.4572,-0.22246 6.67177,-0.32496 2.21457,-0.10249 4.4203,-0.19949 6.61851,-0.2918 2.19818,-0.0923 4.38881,-0.17989 6.57295,-0.26344 2.18413,-0.0835 4.36172,-0.16304 6.53372,-0.23903 2.172,-0.076 4.33831,-0.14847 6.49973,-0.21789 2.1614,-0.0694 4.3179,-0.13576 6.47008,-0.19943 2.15219,-0.0637 4.29996,-0.12459 6.44398,-0.18319 2.144,-0.0586 4.28416,-0.11476 6.421,-0.16887 2.13676,-0.0542 4.27018,-0.10608 6.40058,-0.15618 2.13036,-0.05 4.25772,-0.0983 6.38237,-0.14485 2.12463,-0.0465 4.2466,-0.0914 6.36613,-0.13473 2.11951,-0.0433 4.23656,-0.0852 6.35145,-0.12561"
       style="fill:none;stroke:#00ff00;stroke-width:1.32534266;stroke-linecap:butt;stroke-linejoin:bevel;stroke-miterlimit:4;stroke-opacity:1;stroke-dasharray:none"
       inkscape:connector-curvature="0" />
    <path
       style="fill:#00ff00;fill-opacity:1;stroke:#00ff00;stroke-width:0.66267133;stroke-miterlimit:4;stroke-opacity:1;stroke-dasharray:none;marker-start:url(#Arrow2Lstart-0);marker-end:none"
       d="m 452.3625,295.57246 -5.9516,6.42336"
       id="path19160-7"
       inkscape:connector-curvature="0" />
    <path
       style="fill:#00ff00;fill-opacity:1;stroke:#00ff00;stroke-width:0.66267133;stroke-miterlimit:4;stroke-opacity:1;stroke-dasharray:none;marker-start:url(#Arrow2Lstart-0);marker-end:none"
       d="m 342.60222,363.85536 14.683,-6.52424"
       id="path19160-7-8"
       inkscape:connector-curvature="0" />
    <path
       style="fill:#00ff00;fill-opacity:1;stroke:#00ff00;stroke-width:0.66267133;stroke-miterlimit:4;stroke-opacity:1;stroke-dasharray:none;marker-start:url(#Arrow2Lstart-0);marker-end:none"
       d="m 301.66481,364.00236 6.2842,-6.52423"
       id="path19160-7-8-9"
       inkscape:connector-curvature="0" />
    <path
       inkscape:connector-curvature="0"
       id="path3022"
       d="m 379.38909,529.29842 0,-425.6067"
       style="fill:none;stroke:#000000;stroke-width:0.947;stroke-linecap:butt;stroke-linejoin:miter;stroke-opacity:1;stroke-miterlimit:4;stroke-dasharray:none;marker-start:none;marker-end:url(#Arrow1Lend)" />
    <g
       id="g4365"
       transform="matrix(0.51717469,0,0,0.51717469,93.160263,-35.589795)">
      <g
         id="content"
         transform="matrix(1.0629921,0,0,-1.0629921,-186.02362,789.27165)"
         xml:space="preserve"
         stroke-miterlimit="10.433"
         font-style="normal"
         font-variant="normal"
         font-weight="normal"
         font-stretch="normal"
         font-size-adjust="none"
         letter-spacing="normal"
         word-spacing="normal"
         style="font-style:normal;font-variant:normal;font-weight:normal;font-stretch:normal;letter-spacing:normal;word-spacing:normal;text-anchor:start;fill:none;stroke:#000000;stroke-linecap:butt;stroke-linejoin:miter;stroke-miterlimit:10.43299961;stroke-opacity:1;stroke-dasharray:none;stroke-dashoffset:0"><path
           d="m 1242.3,357.61 0,0.02 0,0.02 0,0.05 0,0.05 0.1,0.06 0,0.05 0,0.05 0,0.05 0,0.05 0,0.02 0.1,0.03 0,0.02 0,0.02 0,0.03 0,0.02 0,0.02 0,0.02 0,0.02 0,0.01 0,0.02 0,0.02 0,0.01 0,0.01 0,0.01 0,0.01 c 0,0.06 0,0.55 -0.6,0.55 -0.4,0 -0.5,-0.3 -0.6,-0.6 -3.3,-7.37 -5.1,-10.71 -13.6,-10.71 h -7.3 c -0.7,0 -0.8,0 -1.1,0.05 -0.5,0.05 -0.6,0.11 -0.6,0.5 0,0.15 0,0.25 0.2,1.15 l 3.4,13.6 h 4.9 c 4.3,0 4.3,-1.05 4.3,-2.29 0,-0.35 0,-0.95 -0.4,-2.44 -0.1,-0.25 -0.1,-0.4 -0.1,-0.56 0,-0.24 0.2,-0.54 0.6,-0.54 0.4,0 0.6,0.25 0.8,0.99 l 2.8,11.66 c 0,0.3 -0.3,0.55 -0.6,0.55 -0.4,0 -0.5,-0.3 -0.7,-0.9 -1.1,-3.78 -1.9,-4.93 -6.5,-4.93 h -4.7 l 3,12.01 c 0.4,1.74 0.5,1.94 2.7,1.94 h 7 c 6.1,0 7.6,-1.45 7.6,-5.53 0,-1.19 0,-1.3 -0.2,-2.64 0,-0.3 -0.1,-0.65 -0.1,-0.9 0,-0.25 0.2,-0.6 0.6,-0.6 0.6,0 0.6,0.3 0.7,1.25 l 1,8.62 c 0.2,1.34 -0.1,1.34 -1.3,1.34 h -25.2 c -1,0 -1.5,0 -1.5,-0.99 0,-0.55 0.5,-0.55 1.4,-0.55 1.9,0 3.2,0 3.2,-0.9 0,-0.2 0,-0.3 -0.2,-1.19 l -6.6,-26.35 c -0.5,-1.95 -0.6,-2.35 -4.5,-2.35 -0.9,0 -1.4,0 -1.4,-0.94 0,-0.6 0.4,-0.6 1.4,-0.6 h 25.8 c 1.2,0 1.2,0.05 1.6,0.85 z"
           id="path4368"
           inkscape:connector-curvature="0"
           style="fill:#000000;stroke-width:0" /><path
           d="m 1261.8,372.65 -0.1,-0.07 0,-0.07 0,-0.07 0,-0.08 0,-0.08 -0.1,-0.08 0,-0.08 0,-0.08 0,-0.17 -0.1,-0.17 0,-0.17 -0.1,-0.08 0,-0.08 0,-0.08 0,-0.07 0,-0.08 0,-0.07 -0.1,-0.06 0,-0.07 0,-0.06 0,-0.05 0,-0.05 0,-0.05 -0.1,-0.04 0,-0.03 0,-0.01 0,-0.02 0,-0.01 0,-0.01 0,-0.01 0,0 0,-0.01 0,0 c -0.7,-1.08 -2.1,-2.96 -4.2,-2.96 -2.4,0 -2.4,2.26 -2.4,2.89 0,2.06 0.9,4.53 1.9,7.08 0.3,0.7 0.5,1.22 0.5,1.78 0,1.81 -1.5,3 -3.3,3 -3.5,0 -5.1,-4.78 -5.1,-5.34 0,-0.45 0.5,-0.45 0.6,-0.45 0.5,0 0.6,0.17 0.7,0.56 0.8,2.86 2.3,4.25 3.7,4.25 0.6,0 0.9,-0.38 0.9,-1.22 0,-0.8 -0.3,-1.54 -0.7,-2.34 -1.9,-4.81 -1.9,-5.82 -1.9,-6.76 0,-0.59 0,-2.2 1.3,-3.31 1.1,-0.84 2.4,-1.12 3.6,-1.12 2.2,0 3.4,1.19 4.6,2.3 0.7,-2.23 3.1,-2.3 3.5,-2.3 1.2,0 2.1,0.7 2.7,1.85 0.8,1.36 1.3,3.38 1.3,3.48 0,0.46 -0.5,0.46 -0.6,0.46 -0.5,0 -0.5,-0.14 -0.8,-1.08 -0.4,-1.64 -1,-3.73 -2.5,-3.73 -0.9,0 -1.2,0.8 -1.2,1.71 0,0.59 0.3,1.84 0.6,2.75 0.2,0.94 0.6,2.37 0.7,3.14 l 0.8,3.1 c 0.2,0.87 0.6,2.41 0.6,2.58 0,0.7 -0.5,1.12 -1.1,1.12 -1.3,0 -1.6,-1.01 -1.8,-2.13 z"
           id="path4370"
           inkscape:connector-curvature="0"
           style="fill:#000000;stroke-width:0" /></g>    </g>
    <g
       id="g4454"
       transform="matrix(0.51717469,0,0,0.51717469,103.99951,140.60027)">
      <g
         word-spacing="normal"
         letter-spacing="normal"
         font-size-adjust="none"
         font-stretch="normal"
         font-weight="normal"
         font-variant="normal"
         font-style="normal"
         stroke-miterlimit="10.433"
         xml:space="preserve"
         transform="matrix(1.0629921,0,0,-1.0629921,-186.02362,789.27165)"
         id="g4456"
         style="font-style:normal;font-variant:normal;font-weight:normal;font-stretch:normal;letter-spacing:normal;word-spacing:normal;text-anchor:start;fill:none;stroke:#000000;stroke-linecap:butt;stroke-linejoin:miter;stroke-miterlimit:10.43299961;stroke-opacity:1;stroke-dasharray:none;stroke-dashoffset:0"><path
           id="path4458"
           d="m 1245.3,357.61 0,0.02 0,0.02 0,0.05 0,0.05 0.1,0.06 0,0.05 0,0.05 0,0.05 0,0.05 0,0.02 0.1,0.03 0,0.02 0,0.02 0,0.03 0,0.02 0,0.02 0,0.02 0,0.02 0,0.01 0,0.02 0,0.02 0,0.01 0,0.01 0,0.01 0,0.01 c 0,0.06 0,0.55 -0.6,0.55 -0.4,0 -0.5,-0.3 -0.6,-0.6 -3.3,-7.37 -5.1,-10.71 -13.6,-10.71 h -7.3 c -0.7,0 -0.8,0 -1.1,0.05 -0.5,0.05 -0.6,0.11 -0.6,0.5 0,0.15 0,0.25 0.2,1.15 l 3.4,13.6 h 4.9 c 4.3,0 4.3,-1.05 4.3,-2.29 0,-0.35 0,-0.95 -0.4,-2.44 -0.1,-0.25 -0.1,-0.4 -0.1,-0.56 0,-0.24 0.2,-0.54 0.6,-0.54 0.4,0 0.6,0.25 0.8,0.99 l 2.8,11.66 c 0,0.3 -0.3,0.55 -0.6,0.55 -0.4,0 -0.5,-0.3 -0.7,-0.9 -1.1,-3.78 -1.9,-4.93 -6.5,-4.93 h -4.7 l 3,12.01 c 0.4,1.74 0.5,1.94 2.7,1.94 h 7 c 6.1,0 7.6,-1.45 7.6,-5.53 0,-1.19 0,-1.3 -0.2,-2.64 0,-0.3 -0.1,-0.65 -0.1,-0.9 0,-0.25 0.2,-0.6 0.6,-0.6 0.6,0 0.6,0.3 0.7,1.25 l 1,8.62 c 0.2,1.34 -0.1,1.34 -1.3,1.34 h -25.2 c -1,0 -1.5,0 -1.5,-0.99 0,-0.55 0.5,-0.55 1.4,-0.55 1.9,0 3.2,0 3.2,-0.9 0,-0.2 0,-0.3 -0.2,-1.19 l -6.6,-26.35 c -0.5,-1.95 -0.6,-2.35 -4.5,-2.35 -0.9,0 -1.4,0 -1.4,-0.94 0,-0.6 0.4,-0.6 1.4,-0.6 h 25.8 c 1.2,0 1.2,0.05 1.6,0.85 z"
           inkscape:connector-curvature="0"
           style="fill:#000000;stroke-width:0" /><path
           id="path4460"
           d="m 1264,380.11 -0.1,-0.02 0,-0.03 -0.1,-0.02 -0.1,-0.03 -0.1,-0.03 0,-0.04 -0.1,-0.04 -0.1,-0.04 -0.1,-0.04 0,-0.04 -0.1,-0.05 0,-0.05 -0.1,-0.05 0,-0.05 -0.1,-0.05 0,-0.06 -0.1,-0.05 0,-0.06 -0.1,-0.06 0,-0.06 0,-0.06 -0.1,-0.06 0,-0.06 0,-0.07 -0.1,-0.06 0,-0.07 0,-0.06 0,-0.07 0,-0.06 0,-0.07 0,-0.06 0,-0.07 c 0,-0.8 0.7,-1.11 1.1,-1.11 0.4,0 1.7,0.21 1.7,1.98 0,2.27 -2.5,3.04 -4.6,3.04 -5.5,0 -6.5,-4.01 -6.5,-5.09 0,-1.29 0.8,-2.13 1.3,-2.55 0.9,-0.7 1.5,-0.84 3.9,-1.26 0.7,-0.13 3,-0.55 3,-2.3 0,-0.59 -0.4,-1.91 -1.9,-2.79 -1.3,-0.76 -3.1,-0.76 -3.5,-0.76 -1.4,0 -3.4,0.31 -4.2,1.46 1.2,0.14 2,1.01 2,1.99 0,0.87 -0.7,1.29 -1.4,1.29 -1,0 -2,-0.8 -2,-2.33 0,-2.1 2.2,-3.39 5.6,-3.39 6.4,0 7.6,4.39 7.6,5.76 0,3.2 -3.5,3.83 -4.8,4.07 -0.3,0.07 -1.2,0.22 -1.4,0.28 -1.3,0.25 -1.9,0.98 -1.9,1.75 0,0.8 0.6,1.74 1.4,2.23 0.9,0.59 2.1,0.66 2.7,0.66 0.7,0 2.6,-0.1 3.3,-1.29 z"
           inkscape:connector-curvature="0"
           style="fill:#000000;stroke-width:0" /></g>    </g>
    <g
       transform="matrix(0.51717469,0,0,0.51717469,-181.3934,-96.500534)"
       id="g4552">
      <g
         style="font-style:normal;font-variant:normal;font-weight:normal;font-stretch:normal;letter-spacing:normal;word-spacing:normal;text-anchor:start;fill:none;stroke:#000000;stroke-linecap:butt;stroke-linejoin:miter;stroke-miterlimit:10.43299961;stroke-opacity:1;stroke-dasharray:none;stroke-dashoffset:0"
         id="g4554"
         transform="matrix(1.0629921,0,0,-1.0629921,-186.02362,789.27165)"
         xml:space="preserve"
         stroke-miterlimit="10.433"
         font-style="normal"
         font-variant="normal"
         font-weight="normal"
         font-stretch="normal"
         font-size-adjust="none"
         letter-spacing="normal"
         word-spacing="normal"><path
           style="fill:#000000;stroke-width:0"
           inkscape:connector-curvature="0"
           d="m 1245.3,357.61 0,0.02 0,0.02 0,0.05 0,0.05 0.1,0.06 0,0.05 0,0.05 0,0.05 0,0.05 0,0.02 0.1,0.03 0,0.02 0,0.02 0,0.03 0,0.02 0,0.02 0,0.02 0,0.02 0,0.01 0,0.02 0,0.02 0,0.01 0,0.01 0,0.01 0,0.01 c 0,0.06 0,0.55 -0.6,0.55 -0.4,0 -0.5,-0.3 -0.6,-0.6 -3.3,-7.37 -5.1,-10.71 -13.6,-10.71 h -7.3 c -0.7,0 -0.8,0 -1.1,0.05 -0.5,0.05 -0.6,0.11 -0.6,0.5 0,0.15 0,0.25 0.2,1.15 l 3.4,13.6 h 4.9 c 4.3,0 4.3,-1.05 4.3,-2.29 0,-0.35 0,-0.95 -0.4,-2.44 -0.1,-0.25 -0.1,-0.4 -0.1,-0.56 0,-0.24 0.2,-0.54 0.6,-0.54 0.4,0 0.6,0.25 0.8,0.99 l 2.8,11.66 c 0,0.3 -0.3,0.55 -0.6,0.55 -0.4,0 -0.5,-0.3 -0.7,-0.9 -1.1,-3.78 -1.9,-4.93 -6.5,-4.93 h -4.7 l 3,12.01 c 0.4,1.74 0.5,1.94 2.7,1.94 h 7 c 6.1,0 7.6,-1.45 7.6,-5.53 0,-1.19 0,-1.3 -0.2,-2.64 0,-0.3 -0.1,-0.65 -0.1,-0.9 0,-0.25 0.2,-0.6 0.6,-0.6 0.6,0 0.6,0.3 0.7,1.25 l 1,8.62 c 0.2,1.34 -0.1,1.34 -1.3,1.34 h -25.2 c -1,0 -1.5,0 -1.5,-0.99 0,-0.55 0.5,-0.55 1.4,-0.55 1.9,0 3.2,0 3.2,-0.9 0,-0.2 0,-0.3 -0.2,-1.19 l -6.6,-26.35 c -0.5,-1.95 -0.6,-2.35 -4.5,-2.35 -0.9,0 -1.4,0 -1.4,-0.94 0,-0.6 0.4,-0.6 1.4,-0.6 h 25.8 c 1.2,0 1.2,0.05 1.6,0.85 z"
           id="path4556" /><path
           style="fill:#000000;stroke-width:0"
           inkscape:connector-curvature="0"
           d="m 1265.3,380.36 -0.1,-0.03 -0.2,-0.02 -0.1,-0.03 -0.1,-0.04 -0.1,-0.04 -0.1,-0.04 0,-0.04 -0.1,-0.05 -0.1,-0.05 -0.1,-0.06 -0.1,-0.05 0,-0.06 -0.1,-0.07 -0.1,-0.06 0,-0.07 -0.1,-0.06 0,-0.07 -0.1,-0.07 0,-0.08 -0.1,-0.07 0,-0.07 0,-0.08 -0.1,-0.07 0,-0.08 0,-0.08 0,-0.07 -0.1,-0.08 0,-0.07 0,-0.08 0,-0.07 0,-0.08 0,-0.07 c 0,-0.94 0.7,-1.29 1.4,-1.29 0.7,0 1.9,0.56 1.9,2.23 0,2.37 -2.7,3.04 -4.6,3.04 -5.2,0 -10,-4.81 -10,-9.66 0,-3 2.1,-6.07 6.4,-6.07 5.9,0 8.7,3.45 8.7,3.94 0,0.21 -0.4,0.59 -0.6,0.59 -0.2,0 -0.3,-0.07 -0.6,-0.34 -2.7,-3.21 -6.8,-3.21 -7.4,-3.21 -2.5,0 -3.6,1.71 -3.6,3.87 0,1.01 0.4,4.81 2.3,7.21 1.3,1.72 3.1,2.69 4.8,2.69 0.5,0 2.2,-0.07 3.1,-1.04 z"
           id="path4558" /></g>    </g>
    <g
       id="g4658"
       transform="matrix(0.53572936,0,0,0.53572936,232.19777,-7.5032802)">
      <g
         word-spacing="normal"
         letter-spacing="normal"
         font-size-adjust="none"
         font-stretch="normal"
         font-weight="normal"
         font-variant="normal"
         font-style="normal"
         stroke-miterlimit="10.433"
         xml:space="preserve"
         transform="matrix(1.0629921,0,0,-1.0629921,-186.02362,789.27165)"
         id="g4660"
         style="font-style:normal;font-variant:normal;font-weight:normal;font-stretch:normal;letter-spacing:normal;word-spacing:normal;text-anchor:start;fill:none;stroke:#000000;stroke-linecap:butt;stroke-linejoin:miter;stroke-miterlimit:10.43299961;stroke-opacity:1;stroke-dasharray:none;stroke-dashoffset:0"><path
           id="path4662"
           d="m 467.71,418.4 0.01,0.58 0.04,0.57 0.07,0.55 0.09,0.53 0.11,0.52 0.13,0.5 0.16,0.48 0.17,0.47 0.19,0.46 0.2,0.44 0.22,0.42 0.23,0.41 0.24,0.4 0.25,0.38 0.26,0.36 0.26,0.35 0.27,0.34 0.27,0.32 0.28,0.31 0.28,0.29 0.27,0.28 0.27,0.26 0.27,0.26 0.27,0.23 0.26,0.22 0.25,0.21 0.24,0.2 0.23,0.18 0.22,0.17 0.2,0.15 0.19,0.14 0.17,0.13 c 1.35,1 2.39,2.79 2.39,4.88 0,2.89 -1.99,6.73 -9.41,6.73 -5.38,0 -8.47,-3.39 -8.47,-6.63 0,-1.69 1.14,-2.39 2.29,-2.39 1.4,0 2.29,1 2.29,2.29 0,2.25 -2.09,2.25 -2.79,2.25 1.55,2.63 4.44,3.38 6.53,3.38 5.43,0 5.43,-3.38 5.43,-5.33 0,-2.94 -0.8,-3.83 -1.7,-4.73 -3.28,-3.58 -4.38,-8.17 -4.38,-11.21 v -2.24 c 0,-0.9 0,-1.19 0.6,-1.19 0.65,0 0.65,0.44 0.65,1.34 z"
           inkscape:connector-curvature="0"
           style="fill:#000000;stroke-width:0" /><path
           id="path4664"
           d="m 469.7,408.64 0,0.14 -0.01,0.13 -0.02,0.13 -0.03,0.13 -0.02,0.13 -0.04,0.12 -0.04,0.12 -0.05,0.12 -0.05,0.12 -0.06,0.11 -0.07,0.11 -0.07,0.11 -0.07,0.1 -0.08,0.1 -0.08,0.1 -0.09,0.09 -0.09,0.09 -0.1,0.08 -0.1,0.08 -0.1,0.08 -0.11,0.07 -0.11,0.06 -0.11,0.06 -0.12,0.05 -0.12,0.05 -0.12,0.04 -0.13,0.04 -0.12,0.03 -0.13,0.02 -0.13,0.02 -0.14,0.01 -0.13,0 c -1.45,0 -2.64,-1.19 -2.64,-2.64 0,-1.44 1.19,-2.64 2.64,-2.64 1.44,0 2.64,1.2 2.64,2.64 z"
           inkscape:connector-curvature="0"
           style="fill:#000000;stroke-width:0" /></g>    </g>
  </g>
</svg>
