<?xml version="1.0" encoding="UTF-8" standalone="no"?>
<!-- Created with Inkscape (http://www.inkscape.org/) -->

<svg
   xmlns:ns0="http://www.iki.fi/pav/software/textext/"
   xmlns:dc="http://purl.org/dc/elements/1.1/"
   xmlns:cc="http://creativecommons.org/ns#"
   xmlns:rdf="http://www.w3.org/1999/02/22-rdf-syntax-ns#"
   xmlns:svg="http://www.w3.org/2000/svg"
   xmlns="http://www.w3.org/2000/svg"
   xmlns:sodipodi="http://sodipodi.sourceforge.net/DTD/sodipodi-0.dtd"
   xmlns:inkscape="http://www.inkscape.org/namespaces/inkscape"
   sodipodi:docname="grobman-hartman.svg"
   inkscape:version="0.48.4 r9939"
   version="1.1"
   id="svg2985"
   height="210mm"
   width="297mm">
  <sodipodi:namedview
     inkscape:document-units="mm"
     pagecolor="#ffffff"
     bordercolor="#666666"
     borderopacity="1.0"
     inkscape:pageopacity="0.0"
     inkscape:pageshadow="2"
     inkscape:zoom="0.83457144"
     inkscape:cx="495.62649"
     inkscape:cy="372.04724"
     inkscape:current-layer="layer1"
     id="namedview2989"
     showgrid="false"
     inkscape:snap-bbox="true"
     inkscape:bbox-paths="true"
     inkscape:bbox-nodes="true"
     inkscape:snap-bbox-edge-midpoints="true"
     inkscape:snap-bbox-midpoints="true"
     inkscape:object-paths="true"
     inkscape:snap-intersection-paths="true"
     inkscape:object-nodes="true"
     inkscape:snap-smooth-nodes="true"
     inkscape:snap-midpoints="true"
     inkscape:snap-object-midpoints="true"
     inkscape:snap-center="true"
     inkscape:window-width="1440"
     inkscape:window-height="838"
     inkscape:window-x="1272"
     inkscape:window-y="116"
     inkscape:window-maximized="1"
     inkscape:snap-global="true"
     showguides="true"
     inkscape:guide-bbox="true" />
  <defs
     id="defs2987">
    <inkscape:path-effect
       is_visible="true"
       id="path-effect7855"
       effect="spiro" />
    <inkscape:path-effect
       is_visible="true"
       id="path-effect7851"
       effect="spiro" />
    <inkscape:path-effect
       is_visible="true"
       id="path-effect7847"
       effect="spiro" />
    <inkscape:path-effect
       is_visible="true"
       id="path-effect7843"
       effect="spiro" />
    <inkscape:path-effect
       fuse_tolerance="0"
       vertical_pattern="false"
       prop_units="false"
       tang_offset="0"
       normal_offset="0"
       spacing="0"
       scale_y_rel="false"
       prop_scale="1"
       copytype="single_stretched"
       pattern="M 0,5 10,10 10,0 z"
       is_visible="true"
       id="path-effect7839"
       effect="skeletal" />
    <inkscape:path-effect
       is_visible="true"
       id="path-effect7837"
       effect="spiro" />
    <inkscape:path-effect
       fuse_tolerance="0"
       vertical_pattern="false"
       prop_units="false"
       tang_offset="0"
       normal_offset="0"
       spacing="0"
       scale_y_rel="false"
       prop_scale="1"
       copytype="single_stretched"
       pattern="M 0,5 C 0,2.24 2.24,0 5,0 7.76,0 10,2.24 10,5 10,7.76 7.76,10 5,10 2.24,10 0,7.76 0,5 z"
       is_visible="true"
       id="path-effect7833"
       effect="skeletal" />
    <inkscape:path-effect
       is_visible="true"
       id="path-effect7831"
       effect="spiro" />
    <inkscape:path-effect
       is_visible="true"
       id="path-effect7827"
       effect="spiro" />
    <marker
       style="overflow:visible"
       id="Arrow1Lstart"
       refX="0.0"
       refY="0.0"
       orient="auto"
       inkscape:stockid="Arrow1Lstart">
      <path
         transform="scale(0.8) translate(12.5,0)"
         style="fill-rule:evenodd;stroke:#000000;stroke-width:1.0pt"
         d="M 0.0,0.0 L 5.0,-5.0 L -12.5,0.0 L 5.0,5.0 L 0.0,0.0 z "
         id="path3788" />
    </marker>
    <marker
       style="overflow:visible"
       id="Arrow2Lstart"
       refX="0.0"
       refY="0.0"
       orient="auto"
       inkscape:stockid="Arrow2Lstart">
      <path
         transform="scale(1.1) translate(1,0)"
         d="M 8.7185878,4.0337352 L -2.2072895,0.016013256 L 8.7185884,-4.0017078 C 6.9730900,-1.6296469 6.9831476,1.6157441 8.7185878,4.0337352 z "
         style="fill-rule:evenodd;stroke-width:0.62500000;stroke-linejoin:round"
         id="path3806" />
    </marker>
    <marker
       inkscape:stockid="Arrow2Lend"
       orient="auto"
       refY="0.0"
       refX="0.0"
       id="Arrow2Lend"
       style="overflow:visible;">
      <path
         id="path3809"
         style="fill-rule:evenodd;stroke-width:0.62500000;stroke-linejoin:round;"
         d="M 8.7185878,4.0337352 L -2.2072895,0.016013256 L 8.7185884,-4.0017078 C 6.9730900,-1.6296469 6.9831476,1.6157441 8.7185878,4.0337352 z "
         transform="scale(1.1) rotate(180) translate(1,0)" />
    </marker>
    <marker
       inkscape:stockid="Arrow1Lend"
       orient="auto"
       refY="0.0"
       refX="0.0"
       id="Arrow1Lend"
       style="overflow:visible;">
      <path
         id="path3791"
         d="M 0.0,0.0 L 5.0,-5.0 L -12.5,0.0 L 5.0,5.0 L 0.0,0.0 z "
         style="fill-rule:evenodd;stroke:#000000;stroke-width:1.0pt;"
         transform="scale(0.8) rotate(180) translate(12.5,0)" />
    </marker>
    <marker
       inkscape:stockid="Arrow1Lend"
       orient="auto"
       refY="0"
       refX="0"
       id="Arrow1Lend-7"
       style="overflow:visible">
      <path
         inkscape:connector-curvature="0"
         id="path3791-4"
         d="M 0,0 5,-5 -12.5,0 5,5 0,0 z"
         style="fill-rule:evenodd;stroke:#000000;stroke-width:1pt"
         transform="matrix(-0.8,0,0,-0.8,-10,0)" />
    </marker>
    <marker
       inkscape:stockid="Arrow1Lend"
       orient="auto"
       refY="0"
       refX="0"
       id="marker4610"
       style="overflow:visible">
      <path
         inkscape:connector-curvature="0"
         id="path4612"
         d="M 0,0 5,-5 -12.5,0 5,5 0,0 z"
         style="fill-rule:evenodd;stroke:#000000;stroke-width:1pt"
         transform="matrix(-0.8,0,0,-0.8,-10,0)" />
    </marker>
  </defs>
  <metadata
     id="metadata2991">
    <rdf:RDF>
      <cc:Work
         rdf:about="">
        <dc:format>image/svg+xml</dc:format>
        <dc:type
           rdf:resource="http://purl.org/dc/dcmitype/StillImage" />
        <dc:title></dc:title>
      </cc:Work>
    </rdf:RDF>
  </metadata>
  <g
     inkscape:label="Layer 1"
     inkscape:groupmode="layer"
     id="layer1">
    <path
       style="fill:none;stroke:#000000;stroke-width:1.28622047;stroke-linecap:butt;stroke-linejoin:miter;stroke-opacity:1;marker-end:url(#marker4610);stroke-miterlimit:4;stroke-dasharray:none"
       d="m 509.59583,498.16241 0,-417.565565"
       id="path3954"
       inkscape:connector-curvature="0" />
    <path
       style="fill:none;stroke:#000000;stroke-width:1.49881887;stroke-linecap:butt;stroke-linejoin:miter;stroke-miterlimit:4;stroke-opacity:1;stroke-dasharray:none;marker-end:url(#Arrow1Lend)"
       d="m 176.74685,273.55804 663.48212,116.9898"
       id="path2994"
       inkscape:connector-curvature="0" />
    <path
       style="fill:none;stroke:#000000;stroke-width:1.5px;stroke-linecap:butt;stroke-linejoin:miter;stroke-opacity:1;marker-end:url(#Arrow1Lend)"
       d="M 223.0556,434.25578 794.22855,230.91989"
       id="path2994-1"
       inkscape:connector-curvature="0" />
    <path
       inkscape:connector-curvature="0"
       style="fill:none;stroke:#00ff00;stroke-width:1.49393463;stroke-linecap:round;stroke-linejoin:bevel;stroke-miterlimit:4;stroke-opacity:1;stroke-dasharray:none;stroke-dashoffset:0"
       d="m 809.81309,235.45077 c -34.63645,13.47114 -56.14301,22.26809 -73.11046,29.44913 -16.96744,7.18104 -28.83813,12.54765 -38.36932,17.08139 -9.53115,4.53375 -16.58879,8.18692 -22.30972,11.36424 -5.72094,3.1773 -10.06145,5.86319 -13.5733,8.25407 -3.5119,2.3909 -6.17708,4.48037 -8.29509,6.37506 -2.11801,1.89469 -3.68007,3.59143 -4.8626,5.15309 -1.18255,1.56166 -1.98067,2.98648 -2.5051,4.31385 -0.52444,1.32737 -0.77219,2.55625 -0.81621,3.71258 -0.044,1.15634 0.11774,2.23944 0.4352,3.26711 0.31742,1.02767 0.79192,1.99942 1.38808,2.92788 0.59613,0.92845 1.31486,1.81325 2.13043,2.66359 0.81559,0.85033 1.72869,1.66594 2.72009,2.45369 0.9914,0.78774 2.06168,1.5474 3.19614,2.2842 1.13448,0.73681 2.33366,1.45059 3.5861,2.1454 1.25247,0.6948 2.5586,1.37049 3.90948,2.03026 1.35085,0.65977 2.74678,1.3035 4.18063,1.93373 1.43384,0.63024 2.90583,1.24689 4.41025,1.852 1.50443,0.6051 3.04147,1.1986 4.60639,1.78216 1.56496,0.58355 3.15802,1.15711 4.77527,1.72204 1.61729,0.56494 3.2589,1.12119 4.92172,1.66992 1.66277,0.54872 3.34686,1.08988 5.04951,1.62441 1.70272,0.53452 3.42399,1.06243 5.16173,1.58447 1.73777,0.52205 3.49193,1.03822 5.26068,1.54923 1.76874,0.51101 3.55221,1.01678 5.34862,1.51793 1.79649,0.50115 3.60588,0.99768 5.42692,1.49007 1.82147,0.49226 3.65459,0.9804 5.49702,1.4651 1.84308,0.48452 3.69689,0.96527 5.55996,1.4427 1.86307,0.47742 3.73561,0.95147 5.61671,1.42248 1.88107,0.47101 3.77068,0.939 5.66817,1.40416 1.89736,0.46522 3.8027,0.92763 5.71491,1.38754 1.91228,0.45992 3.83161,0.91732 5.75738,1.37242 1.92585,0.45509 3.85803,0.9079 5.79621,1.35859 1.93825,0.45069 3.88223,0.89929 5.83174,1.34595 1.94947,0.44668 3.90448,0.89138 5.86438,1.33433 1.9599,0.44297 3.92488,0.8841 5.89439,1.32364 1.96961,0.4395 3.94369,0.87742 5.92207,1.31379 1.97837,0.43637 3.96107,0.87122 5.94766,1.30467 1.98664,0.43346 3.97718,0.86549 5.97139,1.29624 1.99423,0.43074 3.99209,0.86018 5.99335,1.2884 2.00133,0.42824 4.00594,0.85526 6.01379,1.28115 2.00775,0.42591 4.01886,0.85065 6.03286,1.27436 2.01406,0.42367 4.03087,0.84637 6.05055,1.26805 2.01975,0.42163 4.04211,0.84236 6.06714,1.26213 2.02496,0.41981 4.05265,0.83862 6.08266,1.2566 2.03014,0.41798 4.06251,0.83514 6.09721,1.25146 2.03467,0.41634 4.07173,0.83183 6.11082,1.24658 2.03909,0.41478 4.08042,0.82875 6.12369,1.24203 2.04323,0.41329 4.08854,0.82584 6.13566,1.23772 2.04736,0.41188 4.0962,0.8231 6.1471,1.23371"
       title="t 5/t"
       id="path5312" />
    <path
       style="fill:none;stroke:#00ff00;stroke-width:1.49393463;stroke-linecap:round;stroke-linejoin:bevel;stroke-miterlimit:4;stroke-opacity:1;stroke-dasharray:none;stroke-dashoffset:0"
       d="m 864.71187,242.38265 c -5.9409,3.07551 -11.25384,5.92746 -16.07075,8.60285 -4.81695,2.67538 -9.13523,5.17325 -13.05544,7.5294 -3.92019,2.35615 -7.43927,4.5695 -10.63329,6.66712 -3.19399,2.09763 -6.06058,4.07869 -8.65829,5.96403 -2.5977,1.88536 -4.92468,3.67432 -7.02678,5.38323 -2.10211,1.70891 -3.97779,3.33721 -5.66349,4.8979 -1.6857,1.56067 -3.18011,3.05325 -4.51262,4.48818 -1.33251,1.43493 -2.50193,2.81183 -3.53228,4.13919 -1.0303,1.32736 -1.92055,2.60485 -2.69033,3.83945 -0.76976,1.23461 -1.41832,2.42606 -1.9619,3.58014 -0.54358,1.15408 -0.98152,2.27056 -1.32744,3.35428 -0.34593,1.08372 -0.59928,2.13448 -0.77152,3.15636 -0.17207,1.02191 -0.26285,2.01472 -0.28161,2.98196 -0.0188,0.96725 0.0348,1.90875 0.1523,2.82749 0.11752,0.91874 0.29939,1.81456 0.53845,2.69003 0.23903,0.87546 0.53562,1.73044 0.88357,2.56716 0.34792,0.8367 0.74749,1.65503 1.19328,2.45688 0.44583,0.80186 0.93821,1.58716 1.47235,2.35757 0.53417,0.77041 1.11039,1.52584 1.72457,2.26776 0.61416,0.74194 1.26646,1.47029 1.95331,2.18635 0.68683,0.71605 1.40838,1.41975 2.16146,2.11223 0.75304,0.69248 1.53777,1.37369 2.35133,2.04463 0.81354,0.67095 1.65611,1.33158 2.52509,1.98279 0.86898,0.65122 1.76456,1.29296 2.68446,1.92606 0.91989,0.63308 1.86422,1.25747 2.83095,1.87389 0.96674,0.6164 1.95604,1.2248 2.96601,1.82582 1.00996,0.60101 2.04076,1.19463 3.0907,1.78142 1.04997,0.58679 2.11916,1.16673 3.20613,1.74033 1.08695,0.57361 2.19179,1.14087 3.31315,1.70225 1.12133,0.56137 2.25929,1.11682 3.41257,1.66684 1.15327,0.55 2.32206,1.09449 3.50509,1.6339 1.18306,0.5394 2.38053,1.07368 3.59133,1.6032 1.21087,0.52951 2.43512,1.05425 3.67189,1.57452 1.2368,0.52028 2.48614,1.03609 3.74722,1.54772 1.26106,0.51164 2.53388,1.01908 3.8177,1.52261 1.28381,0.50353 2.5787,1.00314 3.88388,1.49907 1.30517,0.49592 2.62074,0.98815 3.94595,1.47694 1.32529,0.48879 2.6603,0.9741 4.0044,1.45616 1.34424,0.48203 2.69744,0.96085 4.05941,1.43658 1.36183,0.47574 2.73249,0.94837 4.1112,1.41813 1.37873,0.46975 2.76557,0.93661 4.1601,1.40072 1.3946,0.46409 2.79679,0.92548 4.20633,1.38427 1.40952,0.45879 2.82632,0.91497 4.25,1.36871 1.42363,0.45376 2.85429,0.90503 4.29142,1.35399 1.43721,0.44893 2.88079,0.89558 4.33055,1.34003 1.44978,0.44445 2.90578,0.88669 4.36778,1.3268 1.46178,0.44016 2.92964,0.87819 4.40305,1.31422 1.47345,0.43605 2.9523,0.87014 4.43658,1.30231 1.48425,0.43218 2.97374,0.86248 4.46851,1.29093"
       title="t 20/t"
       id="path5389"
       inkscape:connector-curvature="0" />
    <path
       style="fill:none;stroke:#00ff00;stroke-width:1.49393463;stroke-linecap:round;stroke-linejoin:bevel;stroke-miterlimit:4;stroke-opacity:1;stroke-dasharray:none;stroke-dashoffset:0"
       d="m 768.63976,228.19078 c -38.92211,12.71547 -64.71429,20.75675 -85.96741,27.18212 -21.2531,6.42537 -37.40943,11.03629 -51.22624,14.81436 -13.81684,3.77808 -25.15923,6.67582 -35.1667,9.09721 -10.00655,2.42164 -18.63269,4.35184 -26.43023,5.98706 -7.79752,1.63522 -14.74834,2.96901 -21.15203,4.10803 -6.40369,1.13902 -12.25134,2.0801 -17.71951,2.88607 -5.4682,0.80599 -10.55198,1.47512 -15.36208,2.04682 -4.81008,0.57171 -9.34347,1.0449 -13.67309,1.44557 -4.32964,0.40066 -8.45357,0.72808 -12.42179,1.00008 -3.96818,0.27199 -7.77934,0.48808 -11.46884,0.66085 -3.68952,0.17277 -7.25638,0.30191 -10.72646,0.39656 -3.47011,0.0947 -6.84261,0.1546 -10.13687,0.18667 -3.29425,0.0321 -6.50963,0.036 -9.66077,0.0172 -3.15118,-0.0189 -6.23767,-0.0608 -9.27087,-0.12163 -3.03315,-0.0609 -6.01268,-0.14085 -8.94746,-0.23676 -2.93474,-0.0959 -5.82451,-0.20785 -8.67629,-0.33329 -2.85181,-0.12544 -5.66545,-0.26447 -8.44668,-0.41503 -2.78125,-0.15057 -5.52985,-0.31275 -8.25054,-0.48486 -2.7207,-0.17212 -5.4133,-0.35424 -8.08166,-0.54498 -2.66836,-0.19075 -5.31238,-0.39017 -7.93524,-0.59712 -2.62283,-0.20694 -5.2244,-0.42147 -7.80742,-0.6426 -2.58298,-0.22114 -5.14728,-0.44893 -7.6952,-0.68256 -2.54791,-0.23363 -5.0793,-0.47313 -7.59615,-0.71781 -2.51688,-0.24468 -5.01908,-0.49458 -7.50831,-0.7491 -2.48926,-0.25451 -4.96544,-0.51367 -7.43002,-0.77697 -2.46454,-0.26329 -4.91744,-0.53075 -7.35988,-0.80192 -2.44245,-0.27117 -4.87441,-0.54608 -7.29694,-0.82435 -2.42253,-0.27826 -4.83556,-0.55989 -7.24011,-0.84456 -2.40454,-0.28467 -4.80052,-0.57239 -7.18872,-0.86287 -2.38822,-0.29047 -4.76868,-0.58372 -7.14203,-0.87947 -2.3734,-0.29576 -4.7397,-0.59404 -7.09957,-0.89462 -2.35985,-0.30057 -4.71323,-0.60345 -7.06075,-0.90842 -2.34747,-0.30498 -4.68902,-0.61206 -7.02516,-0.92108 -2.33616,-0.30902 -4.66684,-0.61998 -6.99254,-0.93271 -2.32577,-0.31271 -4.64647,-0.62723 -6.96255,-0.94337 -2.31603,-0.31618 -4.62762,-0.63394 -6.93488,-0.95324 -2.30725,-0.3193 -4.61021,-0.64013 -6.90927,-0.96236 -2.29905,-0.32222 -4.59411,-0.64585 -6.88556,-0.97078 -2.29142,-0.32494 -4.5792,-0.65116 -6.86358,-0.97861 -2.28436,-0.32745 -4.56535,-0.65611 -6.84312,-0.98589 -2.2779,-0.32976 -4.55245,-0.6607 -6.82416,-0.99266 -2.27157,-0.332 -4.54039,-0.66498 -6.80635,-0.99899 -2.26602,-0.33396 -4.52914,-0.66898 -6.78978,-1.00488 -2.26071,-0.33587 -4.51863,-0.67273 -6.77426,-1.01041 -2.25559,-0.33771 -4.5088,-0.67623 -6.75971,-1.01559 -2.25098,-0.33933 -4.49958,-0.67951 -6.74611,-1.02043 -2.2466,-0.3409 -4.49091,-0.68261 -6.73327,-1.02501 -2.24238,-0.34239 -4.48275,-0.6855 -6.72119,-1.02927 -2.2385,-0.34383 -4.47504,-0.68824 -6.70993,-1.03335"
       title="t 5/t"
       id="path5312-8"
       inkscape:connector-curvature="0" />
    <path
       style="fill:none;stroke:#00ff00;stroke-width:1.49393463;stroke-linecap:round;stroke-linejoin:bevel;stroke-miterlimit:4;stroke-opacity:1;stroke-dasharray:none;stroke-dashoffset:0"
       d="m 718.90371,219.42098 c -9.54984,2.43915 -18.47177,4.65475 -26.89765,6.69378 -8.42589,2.03902 -16.35317,3.90054 -23.88231,5.62032 -7.52919,1.71979 -14.6572,3.29678 -21.46018,4.75806 -6.80297,1.46126 -13.2785,2.80597 -19.48519,4.05495 -6.2067,1.249 -12.14263,2.4016 -17.85368,3.47415 -5.71106,1.07256 -11.19571,2.0645 -16.49034,2.98881 -5.29469,0.92433 -10.39808,1.78056 -15.33954,2.57913 -4.94148,0.79858 -9.71988,1.53911 -14.35916,2.23011 -4.63929,0.691 -9.13849,1.33214 -13.51724,1.93038 -4.37874,0.59825 -8.63624,1.15335 -12.78878,1.67107 -4.15254,0.51773 -8.19946,0.99784 -12.15437,1.4452 -3.95486,0.44737 -7.81719,0.86177 -11.59841,1.24729 -3.78118,0.38552 -7.48074,0.742 -11.10846,1.07289 -3.62774,0.33089 -7.18314,0.63604 -10.67461,0.91841 -3.49143,0.28238 -6.91856,0.54185 -10.28844,0.78096 -3.36992,0.23911 -6.68231,0.45773 -9.94334,0.65808 -3.26103,0.20035 -6.47043,0.38232 -9.63356,0.54782 -3.16317,0.1655 -6.27977,0.31444 -9.35459,0.44849 -3.07479,0.13406 -6.10751,0.25313 -9.10233,0.3587 -2.99479,0.10557 -5.95144,0.19756 -8.87357,0.27726 -2.92211,0.0797 -5.80952,0.14703 -8.66543,0.20316 -2.85593,0.0561 -5.68015,0.10098 -8.47555,0.13557 -2.79542,0.0346 -5.56184,0.0589 -8.30181,0.0737 -2.73996,0.0149 -5.45335,0.0203 -8.14244,0.017 -2.68907,-0.003 -5.35373,-0.0152 -7.99596,-0.0352 -2.64222,-0.0199 -5.26191,-0.0479 -7.8609,-0.0833 -2.59897,-0.0353 -5.17715,-0.0781 -7.73615,-0.12765 -2.55904,-0.0496 -5.0988,-0.10599 -7.62078,-0.16874 -2.52199,-0.0627 -5.02612,-0.13185 -7.51377,-0.20683 -2.48761,-0.075 -4.95862,-0.15588 -7.4143,-0.24223 -2.45566,-0.0864 -4.89589,-0.17822 -7.3218,-0.27517 -2.42594,-0.097 -4.83743,-0.19905 -7.23553,-0.30587 -2.39815,-0.10685 -4.78283,-0.21847 -7.15505,-0.33456 -2.37215,-0.11607 -4.73175,-0.23662 -7.07969,-0.36135 -2.34789,-0.12473 -4.68404,-0.25364 -7.00918,-0.38647 -2.3251,-0.13281 -4.63923,-0.26958 -6.94299,-0.41 -2.30379,-0.14043 -4.59719,-0.28455 -6.8809,-0.43212 -2.28373,-0.14758 -4.55769,-0.29862 -6.82252,-0.45292 -2.26483,-0.1543 -4.52049,-0.31187 -6.76752,-0.4725 -2.24703,-0.16062 -4.48541,-0.32434 -6.71566,-0.49094 -2.23029,-0.1666 -4.4524,-0.33612 -6.66679,-0.50835 -2.21446,-0.17225 -4.42111,-0.34724 -6.62058,-0.52481 -2.19945,-0.17757 -4.39159,-0.35774 -6.57688,-0.54035 -2.18525,-0.18262 -4.36365,-0.3677 -6.53552,-0.5551 -2.17182,-0.18739 -4.33714,-0.37711 -6.49629,-0.56903 -2.15914,-0.19193 -4.31207,-0.38606 -6.45911,-0.58228 -2.14708,-0.19622 -4.28826,-0.39454 -6.42384,-0.59485 -2.13561,-0.20029 -4.26552,-0.40258 -6.39029,-0.60678 -2.12478,-0.20419 -4.24402,-0.41025 -6.35842,-0.61814"
       title="t 20/t"
       id="path5389-8"
       inkscape:connector-curvature="0" />
    <path
       style="fill:none;stroke:#00ff00;stroke-width:1.49393463;stroke-linecap:round;stroke-linejoin:bevel;stroke-miterlimit:4;stroke-opacity:1;stroke-dasharray:none;stroke-dashoffset:0"
       d="m 245.59546,436.89112 c 38.92204,-12.71548 64.71427,-20.75675 85.96738,-27.18212 21.25311,-6.42537 37.40943,-11.03629 51.22624,-14.81436 13.81685,-3.77808 25.15922,-6.67581 35.16669,-9.09721 10.00657,-2.42165 18.63272,-4.35185 26.43024,-5.98706 7.79751,-1.63522 14.74834,-2.96902 21.15202,-4.10803 6.4037,-1.13902 12.25134,-2.0801 17.71952,-2.88608 5.46819,-0.80598 10.55199,-1.47511 15.36207,-2.04682 4.81009,-0.5717 9.34349,-1.04489 13.6731,-1.44556 4.32967,-0.40067 8.45356,-0.72809 12.42181,-1.00008 3.96814,-0.272 7.77935,-0.48808 11.46885,-0.66085 3.6895,-0.17278 7.25635,-0.30191 10.72644,-0.39657 3.4701,-0.0947 6.84262,-0.1546 10.13687,-0.18666 3.29425,-0.0321 6.50962,-0.0361 9.66078,-0.0172 3.15115,0.0189 6.23766,0.0608 9.27084,0.12164 3.03318,0.0609 6.0127,0.14085 8.94747,0.23676 2.93475,0.0959 5.82448,0.20785 8.6763,0.33329 2.8518,0.12544 5.66543,0.26447 8.44668,0.41503 2.78124,0.15057 5.52982,0.31275 8.25052,0.48486 2.72071,0.17212 5.4133,0.35424 8.08167,0.54498 2.66837,0.19075 5.31238,0.39017 7.93524,0.59711 2.62283,0.20695 5.22438,0.42147 7.80741,0.64261 2.583,0.22114 5.1473,0.44893 7.69521,0.68256 2.54792,0.23363 5.0793,0.47313 7.59615,0.71781 2.51687,0.24468 5.01909,0.49458 7.50831,0.7491 2.48923,0.2545 4.96545,0.51367 7.42998,0.77696 2.46458,0.2633 4.91751,0.53076 7.35992,0.80193 2.44245,0.27117 4.8744,0.54608 7.29691,0.82434 2.42256,0.27827 4.8356,0.5599 7.24013,0.84457 2.40455,0.28467 4.80053,0.57239 7.18872,0.86286 2.38824,0.29048 4.76868,0.58372 7.14205,0.87948 2.37339,0.29576 4.7397,0.59404 7.09955,0.89461 2.35986,0.30058 4.71325,0.60346 7.06075,0.90843 2.34751,0.30498 4.68903,0.61206 7.02517,0.92108 2.33615,0.30902 4.66686,0.61997 6.99257,0.9327 2.32575,0.31271 4.64644,0.62723 6.96252,0.94338 2.31604,0.31618 4.62762,0.63394 6.93489,0.95324 2.30724,0.3193 4.61022,0.64012 6.90926,0.96235 2.29905,0.32223 4.59411,0.64585 6.88556,0.97079 2.29142,0.32494 4.57921,0.65116 6.86358,0.97861 2.28437,0.32745 4.56535,0.65611 6.84313,0.98589 2.27788,0.32976 4.55244,0.6607 6.82416,0.99265 2.27157,0.332 4.54038,0.66499 6.80633,0.999 2.26604,0.33396 4.52915,0.66898 6.78979,1.00488 2.26071,0.33587 4.51863,0.67273 6.77427,1.01041 2.25556,0.3377 4.5088,0.67623 6.75971,1.01558 2.25099,0.33933 4.49957,0.67952 6.7461,1.02044 2.2466,0.34089 4.49091,0.68261 6.7333,1.025 2.24236,0.34239 4.48267,0.6855 6.72126,1.0293 2.23848,0.34383 4.47503,0.68823 6.70993,1.03334"
       title="t 5/t"
       id="path5312-8-5"
       inkscape:connector-curvature="0" />
    <path
       style="fill:none;stroke:#00ff00;stroke-width:1.49393463;stroke-linecap:round;stroke-linejoin:bevel;stroke-miterlimit:4;stroke-opacity:1;stroke-dasharray:none;stroke-dashoffset:0"
       d="m 299.21393,437.4114 c 9.54983,-2.43916 18.47176,-4.65475 26.89765,-6.69378 8.42589,-2.03902 16.35316,-3.90054 23.88229,-5.62033 7.52919,-1.71978 14.65718,-3.29678 21.46016,-4.75805 6.80301,-1.46126 13.27854,-2.80597 19.48523,-4.05495 6.20668,-1.249 12.1426,-2.40161 17.85365,-3.47416 5.71107,-1.07256 11.19573,-2.0645 16.49038,-2.98881 5.29469,-0.92433 10.39807,-1.78055 15.33952,-2.57912 4.94149,-0.79858 9.7199,-1.53911 14.35918,-2.23012 4.63927,-0.691 9.13846,-1.33213 13.51722,-1.93038 4.37873,-0.59825 8.63624,-1.15334 12.78879,-1.67106 4.15254,-0.51773 8.19946,-0.99784 12.15435,-1.44521 3.95487,-0.44736 7.81719,-0.86176 11.59838,-1.24729 3.78121,-0.38552 7.48078,-0.74199 11.10853,-1.07288 3.62771,-0.33089 7.18312,-0.63604 10.67458,-0.91841 3.49144,-0.28238 6.91855,-0.54185 10.28844,-0.78096 3.36992,-0.23911 6.6823,-0.45773 9.94334,-0.65809 3.26104,-0.20035 6.47044,-0.38231 9.63357,-0.54782 3.16317,-0.1655 6.27976,-0.31443 9.35458,-0.44848 3.07479,-0.13406 6.10751,-0.25313 9.10233,-0.3587 2.99479,-0.10557 5.95146,-0.19756 8.87357,-0.27726 2.92212,-0.0797 5.80952,-0.14703 8.66544,-0.20316 2.85591,-0.0561 5.68014,-0.10098 8.47553,-0.13557 2.79543,-0.0346 5.56184,-0.0589 8.30182,-0.0737 2.73997,-0.0149 5.45336,-0.0203 8.14244,-0.017 2.68908,0.003 5.35373,0.0152 7.99595,0.0352 2.6422,0.0199 5.26191,0.0479 7.86089,0.0833 2.59898,0.0353 5.17718,0.0781 7.73618,0.12765 2.55904,0.0496 5.09879,0.10599 7.62077,0.16874 2.52199,0.0627 5.02611,0.13185 7.51377,0.20683 2.48761,0.075 4.95863,0.15588 7.4143,0.24223 2.45566,0.0864 4.89589,0.17822 7.3218,0.27517 2.4259,0.097 4.83739,0.19904 7.23552,0.30587 2.39812,0.10684 4.78281,0.21847 7.15504,0.33455 2.37219,0.11607 4.7318,0.23663 7.0797,0.36136 2.34789,0.12472 4.68404,0.25363 7.00916,0.38646 2.32513,0.13282 4.63925,0.26958 6.94302,0.41001 2.30379,0.14043 4.5972,0.28455 6.88094,0.43213 2.28367,0.14756 4.55765,0.29861 6.82248,0.45291 2.26482,0.1543 4.52049,0.31186 6.76751,0.4725 2.24704,0.16062 4.48543,0.32434 6.71568,0.49094 2.23028,0.1666 4.45238,0.33611 6.6668,0.50835 2.21441,0.17224 4.4211,0.34723 6.62056,0.52481 2.19945,0.17757 4.39159,0.35774 6.57688,0.54035 2.18526,0.18262 4.36366,0.3677 6.5355,0.55509 2.17185,0.1874 4.33716,0.37712 6.4963,0.56904 2.15917,0.19192 4.31208,0.38606 6.45914,0.58227 2.14705,0.19623 4.28822,0.39455 6.42383,0.59486 2.13557,0.20029 4.2655,0.40258 6.39028,0.60677 2.12478,0.2042 4.24402,0.41026 6.35843,0.61815"
       title="t 20/t"
       id="path5389-8-5"
       inkscape:connector-curvature="0" />
    <path
       style="fill:none;stroke:#00ff00;stroke-width:1.49393463;stroke-linecap:round;stroke-linejoin:bevel;stroke-miterlimit:4;stroke-opacity:1;stroke-dasharray:none;stroke-dashoffset:0"
       d="m 203.3308,429.43873 c 34.63642,-13.47115 56.143,-22.2681 73.11046,-29.44914 16.96745,-7.18104 28.83811,-12.54765 38.36932,-17.08139 9.53118,-4.53375 16.58879,-8.18692 22.30972,-11.36423 5.72094,-3.17731 10.06142,-5.8632 13.57331,-8.25409 3.51192,-2.3909 6.17708,-4.48037 8.2951,-6.37505 2.11802,-1.8947 3.68006,-3.59145 4.86259,-5.1531 1.18253,-1.56166 1.98067,-2.98647 2.50513,-4.31385 0.52445,-1.32737 0.77217,-2.55624 0.81618,-3.71258 0.044,-1.15634 -0.11775,-2.23944 -0.43518,-3.26711 -0.31743,-1.02767 -0.79192,-1.99942 -1.38808,-2.92787 -0.59614,-0.92846 -1.31488,-1.81326 -2.13045,-2.6636 -0.81556,-0.85034 -1.72866,-1.66594 -2.72008,-2.45368 -0.9914,-0.78774 -2.06168,-1.54741 -3.19615,-2.28421 -1.13449,-0.7368 -2.33364,-1.45059 -3.58611,-2.14539 -1.25243,-0.6948 -2.55858,-1.3705 -3.90946,-2.03027 -1.35086,-0.65977 -2.7468,-1.3035 -4.18063,-1.93373 -1.43385,-0.63024 -2.90583,-1.24688 -4.41025,-1.85199 -1.50441,-0.60511 -3.04147,-1.19861 -4.60639,-1.78217 -1.56498,-0.58356 -3.15802,-1.15711 -4.77527,-1.72204 -1.61729,-0.56493 -3.25892,-1.12119 -4.92173,-1.66992 -1.66278,-0.54872 -3.34686,-1.08987 -5.04952,-1.62441 -1.70269,-0.53452 -3.42397,-1.06242 -5.16171,-1.58447 -1.73776,-0.52204 -3.49197,-1.03822 -5.26071,-1.54923 -1.76875,-0.51101 -3.55218,-1.01677 -5.34862,-1.51792 -1.79646,-0.50115 -3.60588,-0.99768 -5.42692,-1.49007 -1.82147,-0.49227 -3.65456,-0.9804 -5.49702,-1.46511 -1.84306,-0.48452 -3.69687,-0.96526 -5.55996,-1.44269 -1.86304,-0.47743 -3.7356,-0.95147 -5.61668,-1.42249 -1.88108,-0.47101 -3.77067,-0.93899 -5.66822,-1.40415 -1.89735,-0.46522 -3.80267,-0.92762 -5.71488,-1.38755 -1.91228,-0.45991 -3.83162,-0.91731 -5.75743,-1.37241 -1.92583,-0.45509 -3.85803,-0.90789 -5.79616,-1.3586 -1.93823,-0.45068 -3.88224,-0.89929 -5.83176,-1.34594 -1.94946,-0.44668 -3.90446,-0.89139 -5.86438,-1.33433 -1.95993,-0.44296 -3.92484,-0.88412 -5.89438,-1.32364 -1.9696,-0.4395 -3.94369,-0.87742 -5.92209,-1.31379 -1.97836,-0.43637 -3.96104,-0.87123 -5.94766,-1.30467 -1.98661,-0.43346 -3.97716,-0.8655 -5.97137,-1.29624 -1.99421,-0.43074 -3.99206,-0.86018 -5.99335,-1.28841 -2.00131,-0.42823 -4.00596,-0.85525 -6.0138,-1.28114 -2.00776,-0.42591 -4.01886,-0.85065 -6.03282,-1.27437 -2.01403,-0.42367 -4.03086,-0.84636 -6.05059,-1.26803 -2.01958,-0.4217 -4.0421,-0.84237 -6.06712,-1.26215 -2.02495,-0.4198 -4.05265,-0.83861 -6.08266,-1.25661 -2.03009,-0.41797 -4.06251,-0.83512 -6.09722,-1.25143 -2.03468,-0.41635 -4.07175,-0.83183 -6.11082,-1.24659 -2.03905,-0.41478 -4.08041,-0.82875 -6.12368,-1.24203 -2.04323,-0.41328 -4.08854,-0.82584 -6.13566,-1.23773 -2.04735,-0.41187 -4.09619,-0.8231 -6.14713,-1.2337"
       title="t 5/t"
       id="path5312-8-1"
       inkscape:connector-curvature="0" />
    <path
       style="fill:none;stroke:#00ff00;stroke-width:1.49393463;stroke-linecap:round;stroke-linejoin:bevel;stroke-miterlimit:4;stroke-opacity:1;stroke-dasharray:none;stroke-dashoffset:0"
       d="m 185.21164,417.21759 c 5.9409,-3.07551 11.25383,-5.92746 16.07079,-8.60285 4.81692,-2.67538 9.13521,-5.17325 13.05538,-7.52939 3.92021,-2.35616 7.43929,-4.5695 10.63333,-6.66714 3.19396,-2.09762 6.06055,-4.07868 8.65825,-5.96403 2.59775,-1.88535 4.92472,-3.67431 7.02679,-5.38322 2.10212,-1.70891 3.97778,-3.33722 5.66348,-4.89789 1.68573,-1.56067 3.18014,-3.05326 4.51264,-4.48819 1.33249,-1.43494 2.50197,-2.81183 3.53228,-4.13918 1.03031,-1.32737 1.92055,-2.60486 2.69031,-3.83946 0.76978,-1.23461 1.41835,-2.42606 1.9619,-3.58014 0.54359,-1.15408 0.98155,-2.27056 1.32748,-3.35428 0.34592,-1.08371 0.59928,-2.13447 0.7715,-3.15636 0.17206,-1.02191 0.26284,-2.01471 0.28157,-2.98196 0.0188,-0.96725 -0.0348,-1.90875 -0.15228,-2.82749 -0.11749,-0.91874 -0.29938,-1.81456 -0.53843,-2.69002 -0.23904,-0.87547 -0.53565,-1.73046 -0.88356,-2.56716 -0.34795,-0.83672 -0.7475,-1.65504 -1.19333,-2.4569 -0.44581,-0.80185 -0.93814,-1.58715 -1.47233,-2.35756 -0.53415,-0.77041 -1.11038,-1.52584 -1.72455,-2.26777 -0.61415,-0.74193 -1.26648,-1.47028 -1.95331,-2.18633 -0.68684,-0.71606 -1.40841,-1.41975 -2.16145,-2.11223 -0.75307,-0.69249 -1.53781,-1.3737 -2.35134,-2.04464 -0.81359,-0.67096 -1.65611,-1.33157 -2.5251,-1.98279 -0.869,-0.65121 -1.76455,-1.29296 -2.68445,-1.92605 -0.91985,-0.6331 -1.86421,-1.25749 -2.83093,-1.8739 -0.96674,-0.61641 -1.95601,-1.22481 -2.966,-1.82582 -1.00999,-0.60102 -2.04077,-1.19464 -3.09072,-1.78142 -1.04994,-0.5868 -2.11913,-1.16673 -3.20614,-1.74034 -1.08695,-0.57361 -2.19178,-1.14086 -3.31312,-1.70224 -1.12134,-0.56138 -2.25931,-1.11684 -3.41258,-1.66684 -1.15328,-0.55 -2.32204,-1.0945 -3.50508,-1.6339 -1.18309,-0.53941 -2.38054,-1.07368 -3.59135,-1.6032 -1.21085,-0.52952 -2.4351,-1.05425 -3.67192,-1.57453 -1.23676,-0.52028 -2.48608,-1.03609 -3.74717,-1.54772 -1.26105,-0.51163 -2.5339,-1.01908 -3.81772,-1.52261 -1.2838,-0.50353 -2.57866,-1.00314 -3.88386,-1.49906 -1.3052,-0.49593 -2.62073,-0.98817 -3.94599,-1.47695 -1.32525,-0.48878 -2.66024,-0.9741 -4.00439,-1.45616 -1.34425,-0.48203 -2.69748,-0.96086 -4.05938,-1.43658 -1.36185,-0.47575 -2.73252,-0.94837 -4.11121,-1.41813 -1.37871,-0.46975 -2.76556,-0.9366 -4.16008,-1.40072 -1.39462,-0.4641 -2.79682,-0.92548 -4.20637,-1.38426 -1.40952,-0.45878 -2.82629,-0.91498 -4.25,-1.36872 -1.42364,-0.45376 -2.85428,-0.90502 -4.29138,-1.35398 -1.43702,-0.44899 -2.88085,-0.89558 -4.33058,-1.34004 -1.44981,-0.44445 -2.90579,-0.88668 -4.36777,-1.32679 -1.46202,-0.44011 -2.92959,-0.8782 -4.40306,-1.31424 -1.47344,-0.43604 -2.95221,-0.87012 -4.43655,-1.30231 -1.48435,-0.43218 -2.97371,-0.86246 -4.46852,-1.29092"
       title="t 20/t"
       id="path5389-8-7"
       inkscape:connector-curvature="0" />
    <path
       inkscape:connector-curvature="0"
       id="path5523"
       d="m 647.01582,326.20662 -1.66703,-2.63278"
       style="fill:none;stroke:#00ff00;stroke-width:1.5px;stroke-linecap:butt;stroke-linejoin:miter;stroke-opacity:1;marker-end:url(#Arrow2Lend)" />
    <path
       inkscape:connector-curvature="0"
       id="path5713"
       d="m 792.59647,319.71738 -2.29665,-3.76705"
       style="fill:none;stroke:#00ff00;stroke-width:1.5px;stroke-linecap:butt;stroke-linejoin:miter;stroke-opacity:1;marker-end:url(#Arrow2Lend)" />
    <path
       inkscape:connector-curvature="0"
       id="path5903"
       d="m 501.94247,295.75802 13.67309,-1.44557"
       style="fill:none;stroke:#00ff00;stroke-width:1.5px;stroke-linecap:butt;stroke-linejoin:miter;stroke-opacity:1;marker-end:url(#Arrow2Lend)" />
    <path
       inkscape:connector-curvature="0"
       id="path6093"
       d="m 471.06201,261.54457 9.94334,-0.65808"
       style="fill:none;stroke:#00ff00;stroke-width:1.5px;stroke-linecap:butt;stroke-linejoin:miter;stroke-opacity:1;marker-end:url(#Arrow2Lend)" />
    <path
       inkscape:connector-curvature="0"
       id="path6283"
       d="m 524.71453,368.3238 -12.42181,1.00008"
       style="fill:none;stroke:#00ff00;stroke-width:1.5px;stroke-linecap:butt;stroke-linejoin:miter;stroke-opacity:1;marker-end:url(#Arrow2Lend)" />
    <path
       inkscape:connector-curvature="0"
       id="path6473"
       d="m 547.05562,395.2878 -9.94334,0.65809"
       style="fill:none;stroke:#00ff00;stroke-width:1.5px;stroke-linecap:butt;stroke-linejoin:miter;stroke-opacity:1;marker-end:url(#Arrow2Lend)" />
    <path
       inkscape:connector-curvature="0"
       id="path6663"
       d="m 363.2189,334.87672 2.13045,2.6636"
       style="fill:none;stroke:#00ff00;stroke-width:1.5px;stroke-linecap:butt;stroke-linejoin:miter;stroke-opacity:1;marker-end:url(#Arrow2Lend)" />
    <path
       inkscape:connector-curvature="0"
       id="path6853"
       d="m 257.15741,339.73437 1.47233,2.35756"
       style="fill:none;stroke:#00ff00;stroke-width:1.5px;stroke-linecap:butt;stroke-linejoin:miter;stroke-opacity:1;marker-end:url(#Arrow2Lend)" />
    <path
       inkscape:connector-curvature="0"
       id="path9619"
       d="M 509.59583,332.2483 372.99613,308.08329"
       style="fill:none;stroke:#ff0000;stroke-width:1.5px;stroke-linecap:butt;stroke-linejoin:miter;stroke-opacity:1" />
    <path
       inkscape:connector-curvature="0"
       id="path9621"
       d="m 509.59583,332.2483 -117.5059,41.94499"
       style="fill:none;stroke:#ff0000;stroke-width:1.5px;stroke-linecap:butt;stroke-linejoin:miter;stroke-opacity:1" />
    <path
       inkscape:connector-curvature="0"
       id="path9623"
       d="m 509.59583,332.2483 117.7072,-41.91049"
       style="fill:none;stroke:#ff0000;stroke-width:1.5px;stroke-linecap:butt;stroke-linejoin:miter;stroke-opacity:1" />
    <path
       inkscape:connector-curvature="0"
       id="path9627"
       d="m 509.59583,332.2483 136.7003,24.12852"
       style="fill:none;stroke:#ff0000;stroke-width:1.5px;stroke-linecap:butt;stroke-linejoin:miter;stroke-opacity:1" />
    <path
       inkscape:connector-curvature="0"
       id="path9629"
       d="m 606.60013,297.71152 9.63667,-3.43063"
       style="fill:none;stroke:#0000ff;stroke-width:1.5px;stroke-linecap:butt;stroke-linejoin:miter;stroke-opacity:1;marker-end:url(#Arrow2Lend)" />
    <path
       inkscape:connector-curvature="0"
       id="path9823"
       d="m 610.15468,349.97954 -12.63102,-2.22719"
       style="fill:none;stroke:#0000ff;stroke-width:1.5px;stroke-linecap:butt;stroke-linejoin:miter;stroke-opacity:1;marker-end:url(#Arrow2Lend)" />
    <path
       inkscape:connector-curvature="0"
       id="path10017"
       d="m 416.37764,315.76786 11.72892,2.06813"
       style="fill:none;stroke:#0000ff;stroke-width:1.5px;stroke-linecap:butt;stroke-linejoin:miter;stroke-opacity:1;marker-end:url(#Arrow2Lend)" />
    <path
       inkscape:connector-curvature="0"
       id="path10211"
       d="m 421.97515,363.44101 -5.82519,2.07375"
       style="fill:none;stroke:#0000ff;stroke-width:1.5px;stroke-linecap:butt;stroke-linejoin:miter;stroke-opacity:1;marker-end:url(#Arrow2Lend)" />
    <g
       style="font-style:normal;font-variant:normal;font-weight:normal;font-stretch:normal;letter-spacing:normal;word-spacing:normal;text-anchor:start;fill:none;stroke:#000000;stroke-linecap:butt;stroke-linejoin:miter;stroke-miterlimit:10.43299961;stroke-opacity:1;stroke-dasharray:none;stroke-dashoffset:0"
       id="content"
       transform="matrix(5.2261166,0,0,-5.2261166,-385.84719,3970.3713)"
       xml:space="preserve"
       stroke-miterlimit="10.433"
       font-style="normal"
       font-variant="normal"
       font-weight="normal"
       font-stretch="normal"
       font-size-adjust="none"
       letter-spacing="normal"
       word-spacing="normal"
       ns0:text="$E^u$"
       ns0:preamble="">
<path
   style="fill:#000000;stroke-width:0"
   inkscape:connector-curvature="0"
   d="m 230.49,709.44 0,0.01 0,0 0,0.01 0.01,0.01 0,0.01 0.01,0.01 0,0.01 0,0.01 0.01,0.01 0,0.01 0,0 0,0.01 0.01,0 0,0.01 0,0 0,0.01 0,0 0,0 0,0.01 0,0 0,0 0.01,0.01 0,0 0,0 0,0 c 0,0.01 0,0.11 -0.12,0.11 -0.09,0 -0.11,-0.06 -0.13,-0.12 -0.65,-1.47 -1.02,-2.14 -2.72,-2.14 h -1.46 c -0.14,0 -0.16,0 -0.22,0.01 -0.1,0.01 -0.13,0.02 -0.13,0.1 0,0.03 0,0.05 0.05,0.23 l 0.68,2.72 h 0.99 c 0.84,0 0.84,-0.21 0.84,-0.46 0,-0.07 0,-0.19 -0.07,-0.49 -0.02,-0.05 -0.02,-0.08 -0.02,-0.11 0,-0.05 0.03,-0.11 0.12,-0.11 0.08,0 0.11,0.05 0.15,0.2 l 0.57,2.33 c 0,0.06 -0.05,0.11 -0.12,0.11 -0.09,0 -0.11,-0.05 -0.14,-0.18 -0.21,-0.75 -0.39,-0.98 -1.3,-0.98 h -0.94 l 0.6,2.4 c 0.09,0.35 0.1,0.39 0.54,0.39 h 1.4 c 1.22,0 1.52,-0.29 1.52,-1.11 0,-0.24 0,-0.26 -0.04,-0.53 0,-0.05 -0.01,-0.12 -0.01,-0.17 0,-0.06 0.03,-0.12 0.12,-0.12 0.1,0 0.12,0.06 0.14,0.25 l 0.19,1.72 c 0.03,0.27 -0.02,0.27 -0.27,0.27 h -5.03 c -0.19,0 -0.3,0 -0.3,-0.2 0,-0.11 0.09,-0.11 0.28,-0.11 0.37,0 0.65,0 0.65,-0.18 0,-0.04 0,-0.06 -0.05,-0.24 L 225,707.9 c -0.1,-0.39 -0.12,-0.47 -0.91,-0.47 -0.17,0 -0.28,0 -0.28,-0.19 0,-0.12 0.09,-0.12 0.28,-0.12 h 5.17 c 0.23,0 0.24,0.01 0.31,0.17 z"
   id="path4202" />
<path
   style="fill:#000000;stroke-width:0"
   inkscape:connector-curvature="0"
   d="m 234.31,711.87 0,-0.02 -0.01,-0.01 0,-0.02 0,-0.01 -0.01,-0.02 0,-0.01 -0.01,-0.02 0,-0.01 -0.01,-0.04 -0.01,-0.03 -0.01,-0.04 0,-0.01 0,-0.02 -0.01,-0.01 0,-0.02 -0.01,-0.01 0,-0.02 0,-0.01 -0.01,-0.01 0,-0.02 0,-0.01 -0.01,-0.01 0,-0.01 0,0 0,-0.01 -0.01,0 0,-0.01 0,0 0,0 0,0 0,0 0,0 0,0 c -0.13,-0.22 -0.41,-0.6 -0.85,-0.6 -0.48,0 -0.48,0.46 -0.48,0.58 0,0.41 0.2,0.91 0.39,1.42 0.06,0.14 0.1,0.24 0.1,0.35 0,0.37 -0.31,0.6 -0.66,0.6 -0.7,0 -1.01,-0.95 -1.01,-1.06 0,-0.09 0.1,-0.09 0.12,-0.09 0.09,0 0.1,0.03 0.12,0.11 0.17,0.57 0.48,0.85 0.75,0.85 0.12,0 0.17,-0.08 0.17,-0.25 0,-0.16 -0.05,-0.3 -0.12,-0.46 -0.38,-0.97 -0.38,-1.17 -0.38,-1.36 0,-0.12 0,-0.44 0.26,-0.66 0.2,-0.17 0.47,-0.22 0.72,-0.22 0.44,0 0.67,0.24 0.9,0.46 0.16,-0.45 0.62,-0.46 0.71,-0.46 0.24,0 0.42,0.14 0.55,0.37 0.15,0.27 0.25,0.67 0.25,0.69 0,0.1 -0.1,0.1 -0.12,0.1 -0.1,0 -0.1,-0.03 -0.15,-0.22 -0.09,-0.33 -0.22,-0.75 -0.51,-0.75 -0.18,0 -0.23,0.16 -0.23,0.35 0,0.11 0.05,0.36 0.1,0.55 0.05,0.18 0.12,0.47 0.16,0.62 l 0.16,0.62 c 0.04,0.18 0.11,0.48 0.11,0.52 0,0.14 -0.11,0.22 -0.22,0.22 -0.26,0 -0.31,-0.2 -0.37,-0.42 z"
   id="path4204" />
</g>    <g
       ns0:preamble=""
       ns0:text="$E^c$"
       word-spacing="normal"
       letter-spacing="normal"
       font-size-adjust="none"
       font-stretch="normal"
       font-weight="normal"
       font-variant="normal"
       font-style="normal"
       stroke-miterlimit="10.433"
       xml:space="preserve"
       transform="matrix(5.2261166,0,0,-5.2261166,-653.8472,3816.3716)"
       id="g4316"
       style="font-style:normal;font-variant:normal;font-weight:normal;font-stretch:normal;letter-spacing:normal;word-spacing:normal;text-anchor:start;fill:none;stroke:#000000;stroke-linecap:butt;stroke-linejoin:miter;stroke-miterlimit:10.43299961;stroke-opacity:1;stroke-dasharray:none;stroke-dashoffset:0">
<path
   id="path4318"
   d="m 230.49,709.44 0,0.01 0,0 0,0.01 0.01,0.01 0,0.01 0.01,0.01 0,0.01 0,0.01 0.01,0.01 0,0.01 0,0 0,0.01 0.01,0 0,0.01 0,0 0,0.01 0,0 0,0 0,0.01 0,0 0,0 0.01,0.01 0,0 0,0 0,0 c 0,0.01 0,0.11 -0.12,0.11 -0.09,0 -0.11,-0.06 -0.13,-0.12 -0.65,-1.47 -1.02,-2.14 -2.72,-2.14 h -1.46 c -0.14,0 -0.16,0 -0.22,0.01 -0.1,0.01 -0.13,0.02 -0.13,0.1 0,0.03 0,0.05 0.05,0.23 l 0.68,2.72 h 0.99 c 0.84,0 0.84,-0.21 0.84,-0.46 0,-0.07 0,-0.19 -0.07,-0.49 -0.02,-0.05 -0.02,-0.08 -0.02,-0.11 0,-0.05 0.03,-0.11 0.12,-0.11 0.08,0 0.11,0.05 0.15,0.2 l 0.57,2.33 c 0,0.06 -0.05,0.11 -0.12,0.11 -0.09,0 -0.11,-0.05 -0.14,-0.18 -0.21,-0.75 -0.39,-0.98 -1.3,-0.98 h -0.94 l 0.6,2.4 c 0.09,0.35 0.1,0.39 0.54,0.39 h 1.4 c 1.22,0 1.52,-0.29 1.52,-1.11 0,-0.24 0,-0.26 -0.04,-0.53 0,-0.05 -0.01,-0.12 -0.01,-0.17 0,-0.06 0.03,-0.12 0.12,-0.12 0.1,0 0.12,0.06 0.14,0.25 l 0.19,1.72 c 0.03,0.27 -0.02,0.27 -0.27,0.27 h -5.03 c -0.19,0 -0.3,0 -0.3,-0.2 0,-0.11 0.09,-0.11 0.28,-0.11 0.37,0 0.65,0 0.65,-0.18 0,-0.04 0,-0.06 -0.05,-0.24 L 225,707.9 c -0.1,-0.39 -0.12,-0.47 -0.91,-0.47 -0.17,0 -0.28,0 -0.28,-0.19 0,-0.12 0.09,-0.12 0.28,-0.12 h 5.17 c 0.23,0 0.24,0.01 0.31,0.17 z"
   inkscape:connector-curvature="0"
   style="fill:#000000;stroke-width:0" />
<path
   id="path4320"
   d="m 234.41,713.41 -0.02,-0.01 -0.02,0 -0.02,-0.01 -0.02,0 -0.02,-0.01 -0.02,-0.01 -0.02,-0.01 -0.02,-0.01 -0.01,-0.01 -0.02,-0.01 -0.01,-0.01 -0.02,-0.01 -0.01,-0.02 -0.01,-0.01 -0.02,-0.01 -0.01,-0.01 -0.01,-0.02 -0.01,-0.01 -0.01,-0.02 0,-0.01 -0.01,-0.02 -0.01,-0.01 -0.01,-0.02 0,-0.01 -0.01,-0.02 0,-0.01 0,-0.02 -0.01,-0.01 0,-0.02 0,-0.01 0,-0.02 0,-0.01 c 0,-0.19 0.15,-0.26 0.27,-0.26 0.15,0 0.4,0.11 0.4,0.45 0,0.47 -0.55,0.6 -0.92,0.6 -1.05,0 -2.02,-0.96 -2.02,-1.93 0,-0.6 0.42,-1.21 1.29,-1.21 1.18,0 1.73,0.69 1.73,0.79 0,0.04 -0.06,0.11 -0.12,0.11 -0.04,0 -0.05,-0.01 -0.11,-0.06 -0.54,-0.65 -1.36,-0.65 -1.48,-0.65 -0.51,0 -0.73,0.35 -0.73,0.78 0,0.2 0.1,0.96 0.46,1.44 0.27,0.34 0.63,0.54 0.98,0.54 0.09,0 0.43,-0.02 0.6,-0.21 z"
   inkscape:connector-curvature="0"
   style="fill:#000000;stroke-width:0" />
</g>    <g
       style="font-style:normal;font-variant:normal;font-weight:normal;font-stretch:normal;letter-spacing:normal;word-spacing:normal;text-anchor:start;fill:none;stroke:#000000;stroke-linecap:butt;stroke-linejoin:miter;stroke-miterlimit:10.43299961;stroke-opacity:1;stroke-dasharray:none;stroke-dashoffset:0"
       id="g4438"
       transform="matrix(5.2261166,0,0,-5.2261166,-359.8472,4138.3716)"
       xml:space="preserve"
       stroke-miterlimit="10.433"
       font-style="normal"
       font-variant="normal"
       font-weight="normal"
       font-stretch="normal"
       font-size-adjust="none"
       letter-spacing="normal"
       word-spacing="normal"
       ns0:text="$E^s$"
       ns0:preamble="">
<path
   style="fill:#000000;stroke-width:0"
   inkscape:connector-curvature="0"
   d="m 230.49,709.44 0,0.01 0,0 0,0.01 0.01,0.01 0,0.01 0.01,0.01 0,0.01 0,0.01 0.01,0.01 0,0.01 0,0 0,0.01 0.01,0 0,0.01 0,0 0,0.01 0,0 0,0 0,0.01 0,0 0,0 0.01,0.01 0,0 0,0 0,0 c 0,0.01 0,0.11 -0.12,0.11 -0.09,0 -0.11,-0.06 -0.13,-0.12 -0.65,-1.47 -1.02,-2.14 -2.72,-2.14 h -1.46 c -0.14,0 -0.16,0 -0.22,0.01 -0.1,0.01 -0.13,0.02 -0.13,0.1 0,0.03 0,0.05 0.05,0.23 l 0.68,2.72 h 0.99 c 0.84,0 0.84,-0.21 0.84,-0.46 0,-0.07 0,-0.19 -0.07,-0.49 -0.02,-0.05 -0.02,-0.08 -0.02,-0.11 0,-0.05 0.03,-0.11 0.12,-0.11 0.08,0 0.11,0.05 0.15,0.2 l 0.57,2.33 c 0,0.06 -0.05,0.11 -0.12,0.11 -0.09,0 -0.11,-0.05 -0.14,-0.18 -0.21,-0.75 -0.39,-0.98 -1.3,-0.98 h -0.94 l 0.6,2.4 c 0.09,0.35 0.1,0.39 0.54,0.39 h 1.4 c 1.22,0 1.52,-0.29 1.52,-1.11 0,-0.24 0,-0.26 -0.04,-0.53 0,-0.05 -0.01,-0.12 -0.01,-0.17 0,-0.06 0.03,-0.12 0.12,-0.12 0.1,0 0.12,0.06 0.14,0.25 l 0.19,1.72 c 0.03,0.27 -0.02,0.27 -0.27,0.27 h -5.03 c -0.19,0 -0.3,0 -0.3,-0.2 0,-0.11 0.09,-0.11 0.28,-0.11 0.37,0 0.65,0 0.65,-0.18 0,-0.04 0,-0.06 -0.05,-0.24 L 225,707.9 c -0.1,-0.39 -0.12,-0.47 -0.91,-0.47 -0.17,0 -0.28,0 -0.28,-0.19 0,-0.12 0.09,-0.12 0.28,-0.12 h 5.17 c 0.23,0 0.24,0.01 0.31,0.17 z"
   id="path4440" />
<path
   style="fill:#000000;stroke-width:0"
   inkscape:connector-curvature="0"
   d="m 234.37,713.36 -0.02,0 -0.02,-0.01 -0.01,0 -0.02,-0.01 -0.01,-0.01 -0.02,0 -0.01,-0.01 -0.02,-0.01 -0.01,-0.01 -0.01,-0.01 -0.01,-0.01 -0.02,-0.01 -0.01,-0.01 -0.01,-0.01 -0.01,-0.01 -0.01,-0.01 -0.01,-0.01 -0.01,-0.01 0,-0.01 -0.01,-0.01 -0.01,-0.02 -0.01,-0.01 0,-0.01 -0.01,-0.01 0,-0.02 -0.01,-0.01 0,-0.01 0,-0.02 0,-0.01 -0.01,-0.01 0,-0.01 0,-0.02 c 0,-0.16 0.14,-0.22 0.23,-0.22 0.07,0 0.34,0.04 0.34,0.4 0,0.45 -0.5,0.6 -0.93,0.6 -1.09,0 -1.28,-0.8 -1.28,-1.02 0,-0.25 0.14,-0.42 0.24,-0.5 0.18,-0.14 0.31,-0.17 0.79,-0.26 0.15,-0.02 0.59,-0.11 0.59,-0.46 0,-0.11 -0.07,-0.38 -0.37,-0.55 -0.27,-0.16 -0.61,-0.16 -0.69,-0.16 -0.28,0 -0.68,0.07 -0.84,0.3 0.23,0.02 0.38,0.2 0.38,0.39 0,0.18 -0.12,0.26 -0.27,0.26 -0.2,0 -0.41,-0.16 -0.41,-0.47 0,-0.41 0.45,-0.67 1.13,-0.67 1.28,0 1.52,0.88 1.52,1.15 0,0.64 -0.71,0.77 -0.96,0.81 -0.07,0.02 -0.24,0.05 -0.28,0.06 -0.26,0.05 -0.39,0.2 -0.39,0.35 0,0.16 0.13,0.35 0.28,0.44 0.19,0.12 0.44,0.14 0.55,0.14 0.15,0 0.51,-0.02 0.67,-0.26 z"
   id="path4442" />
</g>    <g
       ns0:preamble=""
       ns0:text="?"
       word-spacing="normal"
       letter-spacing="normal"
       font-size-adjust="none"
       font-stretch="normal"
       font-weight="normal"
       font-variant="normal"
       font-style="normal"
       stroke-miterlimit="10.433"
       xml:space="preserve"
       transform="matrix(3.5281863,0,0,-3.5281863,-270.28844,2667.7311)"
       id="g4566"
       style="font-style:normal;font-variant:normal;font-weight:normal;font-stretch:normal;letter-spacing:normal;word-spacing:normal;text-anchor:start;fill:none;stroke:#000000;stroke-linecap:butt;stroke-linejoin:miter;stroke-miterlimit:10.43299961;stroke-opacity:1;stroke-dasharray:none;stroke-dashoffset:0">
<path
   id="path4568"
   d="m 225.77,709.6 0.01,0.12 0,0.11 0.02,0.11 0.02,0.11 0.02,0.1 0.03,0.1 0.03,0.1 0.03,0.09 0.04,0.09 0.04,0.09 0.04,0.09 0.05,0.08 0.05,0.08 0.05,0.07 0.05,0.08 0.05,0.07 0.05,0.07 0.06,0.06 0.05,0.06 0.06,0.06 0.05,0.05 0.06,0.06 0.05,0.05 0.06,0.05 0.05,0.04 0.05,0.04 0.05,0.04 0.04,0.04 0.05,0.03 0.04,0.03 0.03,0.03 0.04,0.03 c 0.27,0.19 0.48,0.55 0.48,0.97 0,0.58 -0.4,1.35 -1.89,1.35 -1.07,0 -1.69,-0.68 -1.69,-1.33 0,-0.34 0.23,-0.48 0.46,-0.48 0.28,0 0.46,0.2 0.46,0.46 0,0.45 -0.42,0.45 -0.56,0.45 0.31,0.53 0.89,0.68 1.3,0.68 1.09,0 1.09,-0.68 1.09,-1.07 0,-0.59 -0.16,-0.77 -0.34,-0.95 -0.66,-0.71 -0.88,-1.63 -0.88,-2.24 v -0.45 c 0,-0.18 0,-0.23 0.12,-0.23 0.13,0 0.13,0.09 0.13,0.27 z"
   inkscape:connector-curvature="0"
   style="fill:#000000;stroke-width:0" />
<path
   id="path4570"
   d="m 226.17,707.65 0,0.03 0,0.02 0,0.03 -0.01,0.03 0,0.02 -0.01,0.03 -0.01,0.02 -0.01,0.03 -0.01,0.02 -0.01,0.02 -0.02,0.02 -0.01,0.02 -0.01,0.03 -0.02,0.02 -0.02,0.01 -0.01,0.02 -0.02,0.02 -0.02,0.02 -0.02,0.01 -0.02,0.02 -0.02,0.01 -0.03,0.01 -0.02,0.02 -0.02,0.01 -0.03,0.01 -0.02,0 -0.02,0.01 -0.03,0.01 -0.03,0 -0.02,0.01 -0.03,0 -0.03,0 c -0.29,0 -0.52,-0.24 -0.52,-0.53 0,-0.29 0.23,-0.53 0.52,-0.53 0.29,0 0.53,0.24 0.53,0.53 z"
   inkscape:connector-curvature="0"
   style="fill:#000000;stroke-width:0" />
</g>  </g>
</svg>
